<svg width="24" height="24" viewBox="0 0 24 24" fill="none" xmlns="http://www.w3.org/2000/svg">
<path fill-rule="evenodd" clip-rule="evenodd" d="M3 17.25H10.5V18.75H3C2.60218 18.75 2.22064 18.592 1.93934 18.3107C1.65804 18.0294 1.5 17.6478 1.5 17.25V5.25C1.5 4.85218 1.65804 4.47064 1.93934 4.18934C2.22064 3.90804 2.60218 3.75 3 3.75H21C21.3978 3.75 21.7794 3.90804 22.0607 4.18934C22.342 4.47064 22.5 4.85218 22.5 5.25V12.75H21V5.9325L12.4275 11.865C12.302 11.9521 12.1528 11.9988 12 11.9988C11.8472 11.9988 11.698 11.9521 11.5725 11.865L3 5.9325V17.25ZM12 10.335L19.35 5.25H4.65L12 10.335ZM12.4425 15.3075L15.1275 18L12.435 20.6925L13.5 21.75L17.25 18L13.5 14.25L12.4425 15.3075ZM17.6925 15.3075L20.3775 18L17.685 20.6925L18.75 21.75L22.5 18L18.75 14.25L17.6925 15.3075Z" fill="#049EAD"/>
</svg>
