<svg width="24" height="24" viewBox="0 0 24 24" fill="none" xmlns="http://www.w3.org/2000/svg">
<path fill-rule="evenodd" clip-rule="evenodd" d="M6.16652 20.7304C7.89323 21.8842 9.9233 22.5 12 22.5C14.7848 22.5 17.4555 21.3938 19.4246 19.4246C21.3938 17.4555 22.5 14.7848 22.5 12C22.5 9.9233 21.8842 7.89323 20.7304 6.16652C19.5767 4.4398 17.9368 3.09399 16.0182 2.29927C14.0996 1.50455 11.9884 1.29661 9.95156 1.70176C7.91476 2.1069 6.04383 3.10693 4.57538 4.57538C3.10693 6.04383 2.1069 7.91476 1.70176 9.95156C1.29661 11.9884 1.50455 14.0996 2.29927 16.0182C3.09399 17.9368 4.4398 19.5767 6.16652 20.7304ZM6.99987 4.51678C8.47992 3.52785 10.22 3 12 3C14.387 3 16.6761 3.94822 18.364 5.63604C20.0518 7.32387 21 9.61306 21 12C21 13.78 20.4722 15.5201 19.4832 17.0001C18.4943 18.4802 17.0887 19.6337 15.4442 20.3149C13.7996 20.9961 11.99 21.1743 10.2442 20.8271C8.49836 20.4798 6.89472 19.6226 5.63604 18.364C4.37737 17.1053 3.5202 15.5016 3.17294 13.7558C2.82567 12.01 3.0039 10.2004 3.68509 8.55585C4.36628 6.91132 5.51983 5.50571 6.99987 4.51678ZM11.25 12.3075L15.4425 16.5L16.5 15.4425L12.75 11.685V5.25H11.25V12.3075Z" fill="#CC2D1F"/>
</svg>
