<?xml version="1.0" encoding="utf-8"?>
<!-- Generator: Adobe Illustrator 22.0.0, SVG Export Plug-In . SVG Version: 6.00 Build 0)  -->
<svg version="1.1" id="TR_Download_on_the" xmlns="http://www.w3.org/2000/svg" xmlns:xlink="http://www.w3.org/1999/xlink" x="0px"
	 y="0px" viewBox="0 0 126 38" style="enable-background:new 0 0 126 38;" xml:space="preserve">
<style type="text/css">
	.st0{fill:#A6A6A6;}
	.st1{fill:#FFFFFF;}
</style>
<g>
	<path class="st0" d="M121.5172043,38H4.4137335C1.9805334,38,0,35.9784012,0,33.5036469V4.4896998
		C0,2.0139999,1.9805334,0,4.4137335,0h117.1034698C123.9494629,0,126,2.0139999,126,4.4896998v29.0139465
		C126,35.9784012,123.9494629,38,121.5172043,38L121.5172043,38z"/>
	<path d="M125.0965347,33.5046005c0,2.0102005-1.5997391,3.6385002-3.5783997,3.6385002H4.4137335
		c-1.9777334,0-3.5830667-1.6283035-3.5830667-3.638504V4.48875c0-2.0092502,1.6053333-3.64325,3.5830667-3.64325h117.1034698
		c1.9796066,0,3.5783997,1.6339998,3.5783997,3.64325L125.0965347,33.5046005L125.0965347,33.5046005z"/>
	<g>
		<g>
			<path class="st1" d="M28.1194668,18.7947998c-0.0270653-3.0618486,2.4630642-4.5514498,2.5769329-4.6208
				c-1.4102669-2.0928497-3.5961342-2.3787994-4.3642673-2.4015999c-1.8358669-0.1966496-3.6166668,1.1181507-4.5518665,1.1181507
				c-0.953867,0-2.394001-1.0991497-3.9461346-1.0668507c-1.9973326,0.0313501-3.8658667,1.2084007-4.890666,3.0362005
				c-2.114933,3.7268496-0.5376005,9.203599,1.4886665,12.2160482c1.0135994,1.4753494,2.1980009,3.1226521,3.7482672,3.0647011
				c1.5166664-0.0636501,2.0832005-0.9841995,3.9134655-0.9841995c1.813467,0,2.3454666,0.9841995,3.9265327,0.9471493
				c1.6277332-0.0265999,2.6525326-1.4819984,3.6306667-2.9706497c1.1713352-1.6910019,1.6417332-3.3563499,1.6604004-3.4418507
				C31.2731991,23.6777992,28.1502666,22.4646492,28.1194668,18.7947998z"/>
			<path class="st1" d="M25.1327991,9.7907c0.8157349-1.0383501,1.373867-2.4510002,1.2189331-3.8845506
				c-1.180666,0.0532002-2.6571999,0.8312502-3.5074654,1.8467999c-0.7522659,0.8949008-1.4242668,2.3617005-1.2506676,3.7410998
				C22.9198666,11.5947504,24.281601,10.8128996,25.1327991,9.7907z"/>
		</g>
	</g>
	<g>
		<path class="st1" d="M47.2677345,22.1620731h-1.470932l-0.8054657-2.5773487h-2.8000031l-0.7671967,2.5773487h-1.4326668
			l2.7747993-8.771349h1.7126656L47.2677345,22.1620731z M44.7486649,18.5045738l-0.7289314-2.290451
			c-0.0765343-0.2346487-0.221199-0.7846985-0.4349327-1.652998h-0.0251999
			c-0.0849342,0.3733492-0.221199,0.9243488-0.4087982,1.652998l-0.7158661,2.290451H44.7486649z"/>
		<path class="st1" d="M54.2751999,18.9216232c0,1.0763512-0.2855988,1.9256516-0.8568001,2.5507507
			c-0.511467,0.5557499-1.1470642,0.8331509-1.9058647,0.8331509c-0.8176003,0-1.4065323-0.2982998-1.7649345-0.8977489h-0.0251999
			v3.3316498h-1.3803978v-6.8190994c0-0.677351-0.0177345-1.3708496-0.0513344-2.0824003h1.2142639l0.0774689,1.0022497h0.0251999
			c0.4601326-0.7542992,1.1591988-1.1314497,2.0972023-1.1314497c0.7335968,0,1.343998,0.2954512,1.8349304,0.8854017
			C54.0306702,17.1840763,54.2751999,17.9583244,54.2751999,18.9216232z M52.8686676,18.9738731
			c0-0.6155987-0.1362686-1.123848-0.408802-1.52285c-0.2986641-0.4160995-0.6990662-0.6250992-1.2021294-0.6250992
			c-0.3406677,0-0.6505318,0.1149502-0.9267998,0.3448505c-0.2772026,0.2298985-0.4582672,0.5319996-0.544136,0.904398
			c-0.041996,0.173851-0.0634651,0.3163528-0.0634651,0.4294014v1.0535488c0,0.4597988,0.1381302,0.8492985,0.4153328,1.1656494
			c0.2771988,0.3163509,0.6374664,0.4750004,1.0807991,0.4750004c0.5198669,0,0.9249344-0.2042503,1.2142677-0.6117992
			C52.7230644,20.1794243,52.8686676,19.6417236,52.8686676,18.9738731z"/>
		<path class="st1" d="M61.4861336,18.9216232c0,1.0763512-0.2856026,1.9256516-0.8568001,2.5507507
			c-0.5114632,0.5557499-1.147068,0.8331509-1.9058685,0.8331509c-0.8176003,0-1.4065323-0.2982998-1.7649307-0.8977489h-0.0251999
			v3.3316498h-1.3804016v-6.8190994c0-0.677351-0.0177345-1.3708496-0.0513344-2.0824003h1.2142677l0.0774651,1.0022497h0.0251999
			c0.4601364-0.7542992,1.1592026-1.1314497,2.0972023-1.1314497c0.7336006,0,1.3440018,0.2954512,1.834938,0.8854017
			C61.2416039,17.1840763,61.4861336,17.9583244,61.4861336,18.9216232z M60.0796013,18.9738731
			c0-0.6155987-0.1362686-1.123848-0.4087982-1.52285c-0.2986679-0.4160995-0.6990662-0.6250992-1.2021332-0.6250992
			c-0.3406677,0-0.6505318,0.1149502-0.9267998,0.3448505c-0.2771988,0.2298985-0.4582672,0.5319996-0.5441322,0.904398
			c-0.0419998,0.173851-0.0634689,0.3163528-0.0634689,0.4294014v1.0535488c0,0.4597988,0.138134,0.8492985,0.4153328,1.1656494
			c0.2772026,0.3163509,0.6374664,0.4750004,1.0808029,0.4750004c0.5198631,0,0.9249344-0.2042503,1.2142639-0.6117992
			C59.9349365,20.1794243,60.0796013,19.6417236,60.0796013,18.9738731z"/>
		<path class="st1" d="M70.8203964,19.7025261c0,0.7457485-0.2547989,1.3537483-0.7653351,1.8220978
			c-0.5618591,0.5120506-1.3430634,0.767601-2.3473282,0.767601c-0.926796,0-1.6716003-0.1814499-2.2343979-0.5462513
			l0.320137-1.1713486c0.6047974,0.3742981,1.2702637,0.5604992,1.9954681,0.5604992
			c0.5207977,0,0.9258575-0.1196995,1.2161331-0.3591003c0.2902603-0.2384491,0.4349365-0.5585995,0.4349365-0.9585495
			c0-0.3562508-0.1194687-0.6555004-0.3584061-0.8987007c-0.2389374-0.2432022-0.6355972-0.4692993-1.1881332-0.678299
			c-1.509201-0.573801-2.264267-1.4117012-2.264267-2.5156012c0-0.7210493,0.2641296-1.3119497,0.7933273-1.7727003
			c0.5282669-0.4597998,1.2320023-0.6915989,2.1102676-0.6915989c0.7839966,0,1.4364014,0.1386995,1.9562683,0.4160995
			l-0.3443985,1.1457005c-0.4862747-0.2688503-1.0360031-0.4037504-1.6501312-0.4037504
			c-0.4862747,0-0.8652039,0.1216002-1.1386719,0.3647995c-0.229599,0.2175503-0.3443985,0.4816504-0.3443985,0.7932501
			c0,0.3477001,0.1315918,0.6336498,0.3966675,0.8588009c0.229599,0.2089996,0.6467972,0.4341507,1.252533,0.6773491
			c0.7419968,0.303051,1.2870636,0.6593018,1.6370697,1.0668507C70.6449356,18.5872231,70.8203964,19.0954742,70.8203964,19.7025261
			z"/>
		<path class="st1" d="M75.2957382,16.8905239h-1.5213318v3.0713501c0,0.780901,0.267868,1.1713505,0.8045349,1.1713505
			c0.2482605,0,0.4517288-0.0218506,0.6141281-0.0646019l0.038269,1.0668488
			c-0.273468,0.10355-0.6309357,0.1557999-1.0742722,0.1557999c-0.5450668,0-0.9715958-0.1690998-1.2777328-0.5072994
			c-0.3070679-0.3382015-0.4601288-0.9063015-0.4601288-1.7052517V16.890522h-0.9090652v-1.0535507h0.9090652v-1.1590004
			l1.3552017-0.4160995v1.5741491h1.5213318V16.8905239z"/>
		<path class="st1" d="M82.0988007,18.9472733c0,0.9709015-0.273468,1.7698498-0.8185349,2.394949
			c-0.5711975,0.6422005-1.3300018,0.9633007-2.2754669,0.9633007c-0.9128036,0-1.6389313-0.3078003-2.1802673-0.9243488
			c-0.5413361-0.6165504-0.8120041-1.3927002-0.8120041-2.329401c0-0.9804001,0.279068-1.7831497,0.837204-2.407299
			c0.5581284-0.6251011,1.3104019-0.9367008,2.2567978-0.9367008c0.912796,0,1.6454697,0.3078003,2.1989365,0.9243488
			C81.8346634,17.2296753,82.0988007,18.0020237,82.0988007,18.9472733z M80.6670685,18.9928741
			c0-0.5823498-0.1241379-1.08395-0.3705368-1.5009995c-0.2902679-0.5044518-0.7037354-0.7571507-1.2404022-0.7571507
			c-0.5544052,0-0.976265,0.2526989-1.2656021,0.7571507c-0.2473373,0.4170494-0.3705368,0.9272003-0.3705368,1.5266495
			c0,0.5832996,0.1241379,1.08395,0.3705368,1.5010014c0.2977295,0.5044498,0.7167969,0.7571507,1.2534714,0.7571507
			c0.5282669,0,0.9417343-0.2574501,1.2404022-0.7704506C80.538269,20.0806236,80.6670685,19.5752239,80.6670685,18.9928741z"/>
		<path class="st1" d="M86.7019958,17.0738735c-0.1362686-0.02565-0.2809372-0.03895-0.4349365-0.03895
			c-0.4862671,0-0.860527,0.1861992-1.1246643,0.5595493c-0.2305374,0.3296509-0.3453369,0.7457504-0.3453369,1.2492504v3.3183498
			h-1.3804016l0.0130692-4.3338985c0-0.728651-0.0177307-1.3927002-0.0513306-1.9912004h1.2021332l0.0513306,1.2102995h0.038269
			c0.1446686-0.4160995,0.3742676-0.7504997,0.6897354-1.0031986c0.3070679-0.2251511,0.6402588-0.3372507,0.9977341-0.3372507
			c0.127861,0,0.2426682,0.0085506,0.3443985,0.025651V17.0738735z"/>
		<path class="st1" d="M92.7873306,18.7002735c0,0.2526989-0.0167923,0.4645519-0.0513306,0.6383991h-4.1421356
			c0.0177307,0.6241493,0.2174683,1.1020012,0.6010666,1.4316502c0.3499985,0.2954521,0.8007965,0.4427013,1.3552017,0.4427013
			c0.6141281,0,1.1722641-0.0997505,1.6753311-0.2992516l0.2174683,0.9756508
			c-0.5889282,0.2602997-1.2833328,0.3904495-2.084137,0.3904495c-0.9631958,0-1.7201309-0.2888012-2.2698669-0.8654499
			c-0.5497284-0.5766487-0.8250656-1.3509007-0.8250656-2.3227482c0-0.9547501,0.2557373-1.7480011,0.7671967-2.3816509
			c0.5366669-0.677351,1.2618637-1.0145998,2.1737366-1.0145998c0.8950653,0,1.5726624,0.3372488,2.0327988,1.0145998
			C92.6044006,17.2467728,92.7873306,17.909874,92.7873306,18.7002735z M91.4713287,18.3364239
			c0.0084076-0.4160995-0.0811996-0.7761497-0.2687988-1.0810986c-0.2389297-0.3904495-0.604805-0.5852013-1.1004028-0.5852013
			c-0.450798,0-0.8175964,0.1909504-1.0994644,0.5728493c-0.2305374,0.3040009-0.3667984,0.6678505-0.4088058,1.0934505H91.4713287z
			"/>
	</g>
</g>
</svg>
