<svg id="Layer_1" data-name="Layer 1" xmlns="http://www.w3.org/2000/svg" viewBox="0 0 126 38">
  <defs>
    <style>
      .cls-1 {
        fill: #a6a6a6;
      }

      .cls-2 {
        fill: #fff;
      }

      .cls-3 {
        fill: #c8102e;
      }
    </style>
  </defs>
  <title>huawei</title>
  <g>
    <path d="M121.26,38H4.74A4.76,4.76,0,0,1,0,33.25V4.75A4.76,4.76,0,0,1,4.74,0H121.26A4.76,4.76,0,0,1,126,4.75v28.5A4.76,4.76,0,0,1,121.26,38Z"/>
    <path class="cls-1" d="M121.26.76a4,4,0,0,1,4,4v28.5a4,4,0,0,1-4,4H4.74a4,4,0,0,1-4-4V4.75a4,4,0,0,1,4-4H121.26m0-.76H4.74A4.76,4.76,0,0,0,0,4.75v28.5A4.76,4.76,0,0,0,4.74,38H121.26A4.76,4.76,0,0,0,126,33.25V4.75A4.76,4.76,0,0,0,121.26,0Z"/>
  </g>
  <g>
    <path class="cls-2" d="M47.06,14.23h-.77V11.09H42.77v3.14H42V7.55h.78v2.84h3.52V7.55h.77Z"/>
    <path class="cls-2" d="M50.9,14.32a2.28,2.28,0,0,1-1.75-.67,2.62,2.62,0,0,1-.65-1.88,2.91,2.91,0,0,1,.6-1.93,2,2,0,0,1,1.6-.71,1.89,1.89,0,0,1,1.49.62,2.35,2.35,0,0,1,.55,1.63v.48H49.29a2,2,0,0,0,.44,1.34,1.54,1.54,0,0,0,1.19.46,3.93,3.93,0,0,0,1.6-.34V14a4.21,4.21,0,0,1-.76.25A4.26,4.26,0,0,1,50.9,14.32Zm-.21-4.55a1.24,1.24,0,0,0-1,.39,1.77,1.77,0,0,0-.42,1.09h2.62a1.68,1.68,0,0,0-.32-1.1A1.12,1.12,0,0,0,50.69,9.77Z"/>
    <path class="cls-2" d="M60.42,14.23V11a1.36,1.36,0,0,0-.26-.9,1,1,0,0,0-.79-.29,1.27,1.27,0,0,0-1,.4A1.9,1.9,0,0,0,58,11.43v2.8h-.76V11a1.36,1.36,0,0,0-.25-.9,1,1,0,0,0-.8-.29,1.25,1.25,0,0,0-1.05.42,2.33,2.33,0,0,0-.33,1.4v2.63H54v-5h.62l.12.69h0a1.38,1.38,0,0,1,.6-.57,1.87,1.87,0,0,1,.88-.21,1.5,1.5,0,0,1,1.54.85h0a1.62,1.62,0,0,1,.65-.62,2,2,0,0,1,1-.23,1.69,1.69,0,0,1,1.27.44A1.94,1.94,0,0,1,61.17,11v3.27Z"/>
    <path class="cls-2" d="M64.85,14.32a2.3,2.3,0,0,1-1.75-.67,2.61,2.61,0,0,1-.64-1.88,3,3,0,0,1,.59-1.93,2,2,0,0,1,1.61-.71,1.92,1.92,0,0,1,1.49.62,2.4,2.4,0,0,1,.55,1.63v.48H63.24a2,2,0,0,0,.45,1.34,1.52,1.52,0,0,0,1.19.46,4,4,0,0,0,1.6-.34V14a4.48,4.48,0,0,1-.76.25A4.37,4.37,0,0,1,64.85,14.32Zm-.2-4.55a1.23,1.23,0,0,0-1,.39,1.78,1.78,0,0,0-.43,1.09h2.62a1.62,1.62,0,0,0-.32-1.1A1.1,1.1,0,0,0,64.65,9.77Z"/>
    <path class="cls-2" d="M71.42,14.23V11a1.32,1.32,0,0,0-.28-.91,1.16,1.16,0,0,0-.88-.3,1.46,1.46,0,0,0-1.15.42,2.16,2.16,0,0,0-.36,1.4v2.63H68v-5h.61l.13.69h0a1.62,1.62,0,0,1,.66-.58,2.18,2.18,0,0,1,.93-.2,1.93,1.93,0,0,1,1.37.44A1.86,1.86,0,0,1,72.17,11v3.27Z"/>
    <path class="cls-2" d="M76.1,7.87a.5.5,0,0,1,.13-.39.44.44,0,0,1,.32-.12.42.42,0,0,1,.31.13.47.47,0,0,1,.13.38.5.5,0,0,1-.13.38.45.45,0,0,1-.31.12.44.44,0,0,1-.32-.12A.5.5,0,0,1,76.1,7.87Zm.82,6.36h-.76v-5h.76Z"/>
    <path class="cls-2" d="M82,14.23V11a1.32,1.32,0,0,0-.28-.91,1.15,1.15,0,0,0-.87-.3,1.47,1.47,0,0,0-1.16.42,2.16,2.16,0,0,0-.36,1.4v2.63h-.76v-5h.62l.12.69h0A1.53,1.53,0,0,1,80,9.33a2.2,2.2,0,0,1,.94-.2,1.92,1.92,0,0,1,1.36.44A1.86,1.86,0,0,1,82.72,11v3.27Z"/>
    <path class="cls-2" d="M87.68,13.56h0a1.77,1.77,0,0,1-1.57.76,1.87,1.87,0,0,1-1.53-.67A3,3,0,0,1,84,11.74a3,3,0,0,1,.54-1.92,1.86,1.86,0,0,1,1.53-.69,1.82,1.82,0,0,1,1.56.74h.06l0-.36,0-.35v-2h.76v7.11h-.62Zm-1.51.13a1.35,1.35,0,0,0,1.12-.43,2.07,2.07,0,0,0,.35-1.36v-.16a2.56,2.56,0,0,0-.35-1.52,1.36,1.36,0,0,0-1.13-.45,1.14,1.14,0,0,0-1,.52,2.52,2.52,0,0,0-.36,1.46,2.52,2.52,0,0,0,.35,1.45A1.22,1.22,0,0,0,86.17,13.69Z"/>
    <path class="cls-2" d="M89.94,7.87a.54.54,0,0,1,.13-.39.45.45,0,0,1,.32-.12.44.44,0,0,1,.32.13.47.47,0,0,1,.13.38.5.5,0,0,1-.13.38.47.47,0,0,1-.32.12.45.45,0,0,1-.32-.12A.54.54,0,0,1,89.94,7.87Zm.83,6.36H90v-5h.76Z"/>
    <path class="cls-2" d="M94.66,9.13a2.77,2.77,0,0,1,.6.06l-.11.7a2.28,2.28,0,0,0-.54-.07,1.34,1.34,0,0,0-1,.49,1.8,1.8,0,0,0-.44,1.23v2.69h-.75v-5H93l.09.93h0a2,2,0,0,1,.67-.75A1.49,1.49,0,0,1,94.66,9.13Z"/>
    <path class="cls-2" d="M96.13,7.87a.5.5,0,0,1,.13-.39.44.44,0,0,1,.32-.12.4.4,0,0,1,.31.13.48.48,0,0,1,.14.38.51.51,0,0,1-.14.38.43.43,0,0,1-.31.12.44.44,0,0,1-.32-.12A.5.5,0,0,1,96.13,7.87ZM97,14.23H96.2v-5H97Z"/>
    <path class="cls-2" d="M102,14.23V11a1.27,1.27,0,0,0-.28-.91,1.13,1.13,0,0,0-.87-.3,1.43,1.43,0,0,0-1.15.42,2.1,2.1,0,0,0-.37,1.4v2.63h-.76v-5h.62l.12.69h0a1.59,1.59,0,0,1,.65-.58,2.23,2.23,0,0,1,.94-.2,1.9,1.9,0,0,1,1.36.44,1.82,1.82,0,0,1,.46,1.39v3.27Z"/>
  </g>
  <g>
    <g id="形状_1_拷贝_25" data-name="形状 1 拷贝 25">
      <path class="cls-3" d="M13.74,4.32H26.56a8.31,8.31,0,0,1,8.27,8.27V25.41a8.31,8.31,0,0,1-8.27,8.27H13.74a8.3,8.3,0,0,1-8.27-8.27V12.59A8.29,8.29,0,0,1,13.74,4.32Z"/>
    </g>
    <path class="cls-2" d="M11.28,19H12v3.8h-.75V21.24H9.57V22.8H8.82V19h.75v1.56h1.79V19Zm4.4,2.16a.85.85,0,0,1-.9,1c-.59,0-.89-.37-.89-1V19h-.75v2.16a1.56,1.56,0,0,0,1.64,1.72,1.52,1.52,0,0,0,1.64-1.72V19h-.74Zm9,.45L23.8,19h-.67l-.89,2.61L21.42,19H20.6l1.34,3.8h.67l.89-2.53.9,2.53h.67L26.41,19h-.82Zm3-.45h1.41v-.67H27.68v-.82h2.08V19H26.93v3.8h2.91v-.67H27.68Zm3.05,1.64h.75V19h-.75ZM18,22l-.37.82H16.8L18.43,19h.68l1.71,3.8H20L19.7,22Zm.3-.67h1.19L18.88,20Z"/>
    <path class="cls-2" d="M20.15,14.08a4.83,4.83,0,0,1-4.84-4.84H16a4.17,4.17,0,0,0,8.34,0H25A4.83,4.83,0,0,1,20.15,14.08Z"/>
  </g>
  <g>
    <path class="cls-2" d="M47.8,26.77H43.58l-1,2.83H40.69l4.1-10.45h1.74L50.8,29.6H48.9Zm-3.7-1.44h3.12l-1.1-3c-.17-.41-.29-.87-.46-1.39a13.28,13.28,0,0,1-.46,1.39Z"/>
    <path class="cls-2" d="M51.55,23.71c0-.58,0-1.21-.06-1.9h1.62a5.36,5.36,0,0,1,.12,1,3.3,3.3,0,0,1,2.36-1.16,2.83,2.83,0,0,1,2.55,1.62,4.64,4.64,0,0,1,.4,2.14,6.14,6.14,0,0,1-.46,2.31,3.25,3.25,0,0,1-1.33,1.44,3.81,3.81,0,0,1-2,.52,5.05,5.05,0,0,1-1.56-.29V32.6l-1.74.24Zm4.68,4a3.66,3.66,0,0,0,.52-2.14,3.31,3.31,0,0,0-.46-1.91,1.46,1.46,0,0,0-1.22-.57,2,2,0,0,0-1,.23,7.83,7.83,0,0,0-.86.63V28.1a2,2,0,0,0,.63.23,2.69,2.69,0,0,0,.69.06A2,2,0,0,0,56.23,27.7Z"/>
    <path class="cls-2" d="M59.69,23.71c0-.58,0-1.21,0-1.9h1.67a5.36,5.36,0,0,1,.12,1,3.21,3.21,0,0,1,2.36-1.16,2.83,2.83,0,0,1,2.55,1.62,4.64,4.64,0,0,1,.4,2.14,5.3,5.3,0,0,1-.46,2.31A3.25,3.25,0,0,1,65,29.14a3.81,3.81,0,0,1-2,.52,5.05,5.05,0,0,1-1.56-.29V32.6l-1.74.24Zm4.68,4a3.66,3.66,0,0,0,.52-2.14,3.31,3.31,0,0,0-.46-1.91,1.45,1.45,0,0,0-1.21-.57,1.93,1.93,0,0,0-1,.23,7.92,7.92,0,0,0-.87.63V28.1a2,2,0,0,0,.63.23,2.8,2.8,0,0,0,.7.06A1.88,1.88,0,0,0,64.37,27.7Z"/>
    <path class="cls-2" d="M70,29.08a4.27,4.27,0,0,1-1.79-1.85,6,6,0,0,1-.63-2.83,6,6,0,0,1,.69-3,4.66,4.66,0,0,1,2-1.85A6.57,6.57,0,0,1,73,18.92a9.33,9.33,0,0,1,1.74.17,6.82,6.82,0,0,1,1.5.52L75.81,21a7.5,7.5,0,0,0-2.72-.7,4.17,4.17,0,0,0-1.9.47,3.19,3.19,0,0,0-1.27,1.38,4.82,4.82,0,0,0-.47,2.2,5.66,5.66,0,0,0,.35,2,3.3,3.3,0,0,0,1.1,1.39,3.69,3.69,0,0,0,1.9.52,6,6,0,0,0,1-.12,7.08,7.08,0,0,0,1-.23V25.73H72.4V24.35h4.16v4.44a6.93,6.93,0,0,1-1.91.64,7.72,7.72,0,0,1-2,.23A4.37,4.37,0,0,1,70,29.08Z"/>
    <path class="cls-2" d="M83,29.6a6,6,0,0,1-.12-1,2.55,2.55,0,0,1-1.09.81,3.45,3.45,0,0,1-1.51.35A2.24,2.24,0,0,1,79,29.43a2,2,0,0,1-.87-.81,2.63,2.63,0,0,1-.34-1.27,2.28,2.28,0,0,1,.81-1.79,4.15,4.15,0,0,1,2.71-.69,12.41,12.41,0,0,1,1.44.11v-.17a2,2,0,0,0-.46-1.45,1.71,1.71,0,0,0-1.27-.4,4.59,4.59,0,0,0-1.21.17,6.9,6.9,0,0,0-1.16.41l-.28-1.33a7.63,7.63,0,0,1,2.94-.58,6.09,6.09,0,0,1,1.73.29,2.36,2.36,0,0,1,1.1,1,4.87,4.87,0,0,1,.41,2V28.1c0,.35,0,.81,0,1.44Zm-1.1-1.44a3.64,3.64,0,0,0,.92-.69V26A8.11,8.11,0,0,0,81.58,26a2.59,2.59,0,0,0-1.56.35,1,1,0,0,0-.4,1,1.23,1.23,0,0,0,.29.87,1.4,1.4,0,0,0,.81.29A2.48,2.48,0,0,0,81.87,28.16Z"/>
    <path class="cls-2" d="M86,27.7V18.46l1.79-.12v9.07a1.41,1.41,0,0,0,.17.69.65.65,0,0,0,.52.23c.18,0,.35-.06.47-.06l.23,1.27-.64.18a2.69,2.69,0,0,1-.69.06C86.55,29.72,86,29.08,86,27.7Z"/>
    <path class="cls-2" d="M90.42,27.7V18.46l1.79-.12v9.07a1.41,1.41,0,0,0,.17.69.65.65,0,0,0,.52.23c.17,0,.35-.06.46-.06l.23,1.27c-.17.06-.4.12-.63.18a2.69,2.69,0,0,1-.69.06C91,29.72,90.42,29.08,90.42,27.7Z"/>
    <path class="cls-2" d="M100.87,25.91H95.79c.06,1.61.87,2.42,2.31,2.42a7.45,7.45,0,0,0,1.1-.11l1.09-.35.41,1.21a6.51,6.51,0,0,1-3,.64,4.32,4.32,0,0,1-2.08-.46,2.65,2.65,0,0,1-1.27-1.33,4.54,4.54,0,0,1-.4-2.14,5.19,5.19,0,0,1,.46-2.25,3.42,3.42,0,0,1,1.27-1.45,3.7,3.7,0,0,1,1.91-.52,3.45,3.45,0,0,1,1.84.52,2.9,2.9,0,0,1,1.1,1.39,5.6,5.6,0,0,1,.35,1.91v.52Zm-1.73-1.16a2.36,2.36,0,0,0-.46-1.39,1.23,1.23,0,0,0-1.1-.46,1.76,1.76,0,0,0-1.16.46,2.48,2.48,0,0,0-.57,1.39Z"/>
    <path class="cls-2" d="M102.26,23.77c0-.41,0-1.1-.06-2h1.67c0,.23.06.46.06.75s.06.52.06.75a7.92,7.92,0,0,1,.63-.87,3.93,3.93,0,0,1,.7-.58,1.73,1.73,0,0,1,.92-.23,1.4,1.4,0,0,1,.69.12l-.23,1.56a2.09,2.09,0,0,0-1.67.23,4.28,4.28,0,0,0-1,1v5H102.2V23.77Z"/>
    <path class="cls-2" d="M107.92,32.78l-.64-.18.35-1.32c.17,0,.29,0,.46.11a1.54,1.54,0,0,0,.52.06c.81,0,1.39-.52,1.79-1.5l.12-.29-2.89-7.85h1.9L111,26.19c.17.58.34,1.16.46,1.74a13.73,13.73,0,0,1,.46-1.68l1.44-4.44h1.8l-2.89,7.91a8.49,8.49,0,0,1-.87,1.79,3.79,3.79,0,0,1-1.1,1,3.62,3.62,0,0,1-1.56.34C108.49,32.84,108.21,32.84,107.92,32.78Z"/>
  </g>
</svg>
