<?xml version="1.0" encoding="utf-8"?>
<!-- Generator: Adobe Illustrator 22.0.0, SVG Export Plug-In . SVG Version: 6.00 Build 0)  -->
<svg version="1.1" id="Layer_1" xmlns="http://www.w3.org/2000/svg" xmlns:xlink="http://www.w3.org/1999/xlink" x="0px" y="0px"
	 viewBox="0 0 126 38" style="enable-background:new 0 0 126 38;" xml:space="preserve">
<style type="text/css">
	.st0{fill:#A6A6A6;}
	.st1{fill:#FFFFFF;}
	.st2{fill:url(#SVGID_1_);}
	.st3{fill:url(#SVGID_2_);}
	.st4{fill:url(#SVGID_3_);}
	.st5{fill:url(#SVGID_4_);}
	.st6{opacity:0.2;enable-background:new    ;}
	.st7{opacity:0.12;enable-background:new    ;}
	.st8{opacity:0.25;fill:#FFFFFF;enable-background:new    ;}
</style>
<g>
	<g>
		<path d="M121.2592621,37.9998093H4.7407408C2.1333334,37.9998093,0,35.8623199,0,33.2498322V4.7499762
			C0,2.1374893,2.1333334,0,4.7407408,0h116.5185242C123.8666687,0,126,2.1374893,126,4.7499762v28.499855
			C126,35.8623199,123.8666687,37.9998093,121.2592621,37.9998093z"/>
	</g>
	<g>
		<g>
			<path class="st0" d="M121.2592621,0.7599962c2.1959076,0,3.9822159,1.7899811,3.9822159,3.9901702v28.4998569
				c0,2.2000961-1.7863083,3.9901695-3.9822159,3.9901695H4.7407408c-2.1958163,0-3.9821274-1.7900734-3.9821274-3.9901695
				V4.7501664c0-2.2001891,1.7863111-3.9901702,3.9821274-3.9901702H121.2592621 M121.2592621,0.00019H4.7407408
				C2.1333334,0.00019,0,2.1376793,0,4.7501664v28.4998569C0,35.8625107,2.1333334,38,4.7407408,38h116.5185242
				C123.8666687,38,126,35.8625107,126,33.2500229V4.7501664C126,2.1376793,123.8666687,0.00019,121.2592621,0.00019
				L121.2592621,0.00019z"/>
		</g>
	</g>
	<path class="st1" d="M61.3684158,15.8361835c-1.9494858,0-3.5382996,1.4848423-3.5382996,3.531702
		c0,2.0334644,1.5888138,3.531702,3.5382996,3.531702c1.9492989,0,3.538208-1.4982376,3.538208-3.531702
		C64.9066238,17.3210258,63.3177147,15.8361835,61.3684158,15.8361835z M61.3684158,21.5083199
		c-1.0681839,0-1.9894981-0.882925-1.9894981-2.1404343c0-1.2709045,0.9213142-2.1404343,1.9894981-2.1404343
		c1.0680885,0,1.9893112,0.8695297,1.9893112,2.1404343C63.3577271,20.6253948,62.4365044,21.5083199,61.3684158,21.5083199z
		 M53.6497307,15.8361835c-1.9493904,0-3.5382042,1.4848423-3.5382042,3.531702c0,2.0334644,1.5888138,3.531702,3.5382042,3.531702
		c1.9493942,0,3.5382042-1.4982376,3.5382042-3.531702C57.1879349,17.3210258,55.5991249,15.8361835,53.6497307,15.8361835z
		 M53.6497307,21.5083199c-1.0681839,0-1.9894028-0.882925-1.9894028-2.1404343
		c0-1.2709045,0.9212189-2.1404343,1.9894028-2.1404343s1.9894066,0.8695297,1.9894066,2.1404343
		C55.6391373,20.6253948,54.7179146,21.5083199,53.6497307,21.5083199z M44.4680557,16.9197483v1.4983311h3.5783119
		c-0.1068573,0.842741-0.3872261,1.458149-0.8145561,1.8862171c-0.5207214,0.5217361-1.3351822,1.0970535-2.7637558,1.0970535
		c-2.2031174,0-3.9254303-1.7793407-3.9254303-3.9866543s1.7223129-3.9865608,3.9254303-3.9865608
		c1.1883125,0,2.0561523,0.4681568,2.6971016,1.0701694l1.054718-1.0567741
		c-0.894577-0.8562317-2.0828896-1.5117283-3.7518196-1.5117283c-3.0175781,0-5.5544434,2.4615326-5.5544434,5.4848938
		c0,3.0234547,2.5368652,5.4848919,5.5544434,5.4848919c1.6288223,0,2.8572426-0.5350361,3.8185692-1.5384216
		c0.9880676-0.9898949,1.2951736-2.381258,1.2951736-3.5049133c0-0.3478889-0.026741-0.6689873-0.0802155-0.9365044H44.4680557z
		 M82.0180435,18.0835857c-0.2937393-0.7892551-1.1883163-2.2474022-3.0174866-2.2474022
		c-1.8158875,0-3.324585,1.4313564-3.324585,3.531702c0,1.9798851,1.4953232,3.531702,3.4981003,3.531702
		c1.6155472,0,2.5502319-0.9898949,2.9373627-1.5652122l-1.2015915-0.8026505
		c-0.400589,0.5887127-0.9479599,0.9765949-1.7357712,0.9765949c-0.7878189,0-1.3485565-0.3611889-1.7090378-1.0701694
		l4.7132416-1.9531898L82.0180435,18.0835857z M77.2114029,19.2608204
		c-0.0401077-1.3644772,1.0548172-2.0601597,1.8425369-2.0601597c0.614212,0,1.1349335,0.307703,1.3084412,0.7491665
		L77.2114029,19.2608204z M73.3793716,22.6855545h1.5487976V12.3043861h-1.5487976V22.6855545z M70.8425064,16.6254387h-0.0533829
		c-0.3471222-0.4147682-1.0147095-0.7892551-1.8559036-0.7892551c-1.7624207,0-3.3779678,1.5518169-3.3779678,3.5450974
		c0,1.9798851,1.6155472,3.5183067,3.3779678,3.5183067c0.8411942,0,1.5087814-0.3745823,1.8559036-0.8026505h0.0533829v0.5083427
		c0,1.3511772-0.7209778,2.073555-1.8825531,2.073555c-0.9479599,0-1.5355225-0.6821918-1.7757874-1.2574139l-1.3485489,0.5618267
		c0.3872223,0.9364109,1.4152985,2.0869503,3.1243362,2.0869503c1.8158951,0,3.351326-1.0702648,3.351326-3.6788578v-6.3412189
		h-1.4687729V16.6254387z M69.0668106,21.5083199c-1.0681839,0-1.9627609-0.8963203-1.9627609-2.127039
		c0-1.2441139,0.894577-2.1538296,1.9627609-2.1538296c1.054718,0,1.8825455,0.9097157,1.8825455,2.1538296
		C70.9493561,20.6119995,70.1215286,21.5083199,69.0668106,21.5083199z M89.2729874,12.304575h-3.7055511v10.3809795h1.5461426
		V18.752573h2.1594086c1.7141571,0,3.3989182-1.2433529,3.3989182-3.223999S90.9871445,12.304575,89.2729874,12.304575z
		 M89.3129044,17.3078213h-2.1993256V13.749424h2.1993256c1.1561661,0,1.8128586,0.9592094,1.8128586,1.77915
		C91.1257629,16.3331261,90.4690704,17.3078213,89.3129044,17.3078213z M98.8700409,15.8169937
		c-1.1196671,0-2.2793427,0.4941864-2.759201,1.5893421l1.3729172,0.5742722
		c0.2932587-0.5742722,0.8397751-0.7612324,1.4129333-0.7612324c0.7997589,0,1.6128006,0.4806976,1.6261673,1.3355045v0.1067791
		c-0.279892-0.160265-0.8797913-0.4006138-1.6128998-0.4006138c-1.4794846,0-2.9857178,0.814621-2.9857178,2.3371792
		c0,1.3888931,1.2129669,2.2836933,2.5725174,2.2836933c1.0397415,0,1.6128922-0.4673977,1.9728165-1.0149746h0.0532837v0.801321
		h1.4928589V18.688448C102.0157166,16.8453636,100.6427994,15.8169937,98.8700409,15.8169937z M98.6834488,21.5063248
		c-0.5065918,0-1.2129669-0.2537441-1.2129669-0.8814049c0-0.801321,0.8796921-1.1084557,1.6394424-1.1084557
		c0.6798248,0,0.9997253,0.1468697,1.4129333,0.3472233C100.402916,20.8252735,99.576416,21.5063248,98.6834488,21.5063248z
		 M107.45401,16.0440426l-1.7727509,4.5006981h-0.0532913l-1.8395004-4.5006981h-1.6660843l2.7591095,6.2902985
		l-1.5728836,3.4991169h1.6128998l4.2519684-9.7894154H107.45401z M93.5249557,22.6855545h1.5462418V12.304575h-1.5462418
		V22.6855545z"/>
	<g>
		
			<linearGradient id="SVGID_1_" gradientUnits="userSpaceOnUse" x1="20.6901226" y1="67.0152435" x2="4.7470098" y2="82.9583588" gradientTransform="matrix(1 0 0 1 0 -58.7409248)">
			<stop  offset="0" style="stop-color:#00A0FF"/>
			<stop  offset="0.0065745" style="stop-color:#00A1FF"/>
			<stop  offset="0.2601" style="stop-color:#00BEFF"/>
			<stop  offset="0.5122" style="stop-color:#00D2FF"/>
			<stop  offset="0.7604" style="stop-color:#00DFFF"/>
			<stop  offset="1" style="stop-color:#00E3FF"/>
		</linearGradient>
		<path class="st2" d="M9.8942108,7.161159C9.6184893,7.4535675,9.4554081,7.9075704,9.4554081,8.4958076v21.0101891
			c0,0.5887127,0.1630812,1.0422401,0.4388027,1.33465l0.0701628,0.0684929l11.7466078-11.7693958v-0.1387939v-0.1388893
			L9.9643736,7.0921893L9.8942108,7.161159z"/>
		
			<linearGradient id="SVGID_2_" gradientUnits="userSpaceOnUse" x1="32.0799065" y1="77.7423019" x2="9.1376629" y2="77.7423019" gradientTransform="matrix(1 0 0 1 0 -58.7409248)">
			<stop  offset="0" style="stop-color:#FFE000"/>
			<stop  offset="0.4087" style="stop-color:#FFBD00"/>
			<stop  offset="0.7754" style="stop-color:#FFA500"/>
			<stop  offset="1" style="stop-color:#FF9C00"/>
		</linearGradient>
		<path class="st3" d="M25.6262646,23.0645542l-3.9152832-3.9248104v-0.1387939v-0.1388893L25.6272125,14.9382l0.0882721,0.0504446
			l4.6390991,2.6410818c1.3251324,0.7542973,1.3251324,1.9885311,0,2.7433014l-4.6390991,2.6410828L25.6262646,23.0645542z"/>
		
			<linearGradient id="SVGID_3_" gradientUnits="userSpaceOnUse" x1="23.541338" y1="79.9201126" x2="1.9420559" y2="101.5193939" gradientTransform="matrix(1 0 0 1 0 -58.7409248)">
			<stop  offset="0" style="stop-color:#FF3A44"/>
			<stop  offset="1" style="stop-color:#C31162"/>
		</linearGradient>
		<path class="st4" d="M25.7154846,23.0136356l-4.0045033-4.0126858L9.8942108,30.8406467
			c0.4369068,0.4633121,1.1578779,0.5206909,1.9703465,0.0583286L25.7154846,23.0136356"/>
		
			<linearGradient id="SVGID_4_" gradientUnits="userSpaceOnUse" x1="6.9044118" y1="58.9266624" x2="16.5493927" y2="68.5716476" gradientTransform="matrix(1 0 0 1 0 -58.7409248)">
			<stop  offset="0" style="stop-color:#32A071"/>
			<stop  offset="0.0685" style="stop-color:#2DA771"/>
			<stop  offset="0.4762" style="stop-color:#15CF74"/>
			<stop  offset="0.8009" style="stop-color:#06E775"/>
			<stop  offset="1" style="stop-color:#00F076"/>
		</linearGradient>
		<path class="st5" d="M25.7154846,14.9881697L11.8645573,7.1028295c-0.8124685-0.4623628-1.5334396-0.404983-1.9703465,0.0583296
			l11.8167706,11.8397903L25.7154846,14.9881697z"/>
		<g>
			<path class="st6" d="M25.6272125,22.9252853l-13.7626553,7.8348961
				c-0.7698965,0.4382324-1.4581566,0.4090672-1.8997097,0.0101643l0,0l-0.0706367,0.070776l0,0l0.0701628,0.0684929
				l0.000474-0.0004749c0.4415531,0.3989029,1.1298132,0.4285431,1.8997097-0.0101643l13.8509274-7.8853397L25.6272125,22.9252853z"
				/>
			<path class="st7" d="M9.8942108,30.7023258c-0.2757215-0.2925034-0.4388027-0.7465057-0.4388027-1.3346481v0.1387939
				c0,0.5882378,0.1630812,1.0421448,0.4388027,1.33465l0.0706367-0.070776L9.8942108,30.7023258z"/>
		</g>
		<path class="st7" d="M30.3545837,20.2337589l-4.7273712,2.6915264l0.0882721,0.0883503l4.6390991-2.6410828
			c0.6623764-0.3771477,0.9939442-0.8741856,0.9939442-1.3712234l0,0
			C31.2926826,19.4507732,30.9555206,19.8917599,30.3545837,20.2337589z"/>
		<path class="st8" d="M11.8645573,7.2420988l18.4900265,10.5259466c0.6009369,0.3419991,0.9380989,0.7826061,0.9939442,1.2329044
			l0,0c0.0004749-0.4970379-0.3311882-0.9945507-0.9939442-1.3716984L11.8645573,7.1033044
			c-1.3251314-0.7543912-2.4091492-0.1277742-2.4091492,1.3929782v0.1387939
			C9.4554081,7.1144195,10.5394258,6.4878025,11.8645573,7.2420988z"/>
	</g>
</g>
</svg>
