<svg width="61" height="61" viewBox="0 0 61 61" fill="none" xmlns="http://www.w3.org/2000/svg">
<path fill-rule="evenodd" clip-rule="evenodd" d="M9.08591 6.86457C8.52391 6.86457 7.98197 7.08536 7.58054 7.47676C7.1791 7.87819 6.95831 8.41009 6.95831 8.9721C6.95831 9.03231 6.95831 9.09253 6.95831 9.15274C7.93179 21.7176 14.1942 51.4237 51.397 53.5513C51.959 53.5814 52.511 53.3907 52.9325 53.0194C53.354 52.6481 53.6049 52.1162 53.6451 51.5542C53.6451 51.514 53.6451 51.4639 53.6451 51.4237V40.2137L45.6465 37.0122L39.5547 43.0639L38.5311 42.9334C20.0651 40.6251 17.5662 22.1592 17.5662 21.9685L17.4357 20.9449L23.4673 14.8531L20.2859 6.85454H9.08591V6.86457ZM51.5375 57.7965H51.1762C9.46727 55.3979 3.54613 20.2122 2.72319 9.47389C2.59272 7.78787 3.13466 6.12192 4.2386 4.83733C5.34254 3.55274 6.8981 2.75991 8.58412 2.62945C8.75473 2.61941 8.92534 2.60938 9.08591 2.60938H20.2658C22.002 2.60938 23.5676 3.66314 24.2099 5.27891L27.4314 13.2173C28.0637 14.7929 27.7024 16.5993 26.4981 17.8036L21.982 22.3699C23.4271 30.5893 29.8501 37.0323 38.0694 38.4975L42.6759 33.9312C43.9003 32.747 45.7067 32.3958 47.2823 33.0581L55.2809 36.2596C56.8766 36.9219 57.9003 38.4875 57.8902 40.2036V51.4137C57.8902 54.9262 55.04 57.7764 51.5275 57.7764L51.5375 57.7965ZM55.7827 23.8452H51.5375C51.5375 15.6459 44.8838 9.00221 36.6845 8.99217V4.73697C47.2322 4.74701 55.7727 13.2975 55.7827 23.8352V23.8452ZM47.2924 23.8452H43.0472C43.0472 20.3327 40.197 17.4825 36.6845 17.4825V13.2373C42.5454 13.2373 47.2924 17.9943 47.2924 23.8452Z" fill="white"/>
<mask id="mask0_2099_5945" style="mask-type:alpha" maskUnits="userSpaceOnUse" x="30" y="3" width="30" height="25">
<path d="M59.4049 15.6557C59.4049 22.0297 54.013 27.1969 47.3619 27.1969C40.7107 27.1969 30.8027 14.0013 30.8027 7.62722C30.8027 1.25318 40.7107 4.11447 47.3619 4.11447C54.013 4.11447 59.4049 9.28165 59.4049 15.6557Z" fill="#D9D9D9"/>
</mask>
<g mask="url(#mask0_2099_5945)">
<path fill-rule="evenodd" clip-rule="evenodd" d="M9.08396 6.86506C8.52195 6.86506 7.98002 7.08585 7.57858 7.47725C7.17715 7.87868 6.95636 8.41058 6.95636 8.97259C6.95636 9.0328 6.95636 9.09302 6.95636 9.15323C7.92984 21.7181 14.1922 51.4242 51.3951 53.5518C51.9571 53.5819 52.5091 53.3912 52.9306 53.0199C53.3521 52.6486 53.603 52.1167 53.6431 51.5547C53.6431 51.5145 53.6431 51.4643 53.6431 51.4242V40.2142L45.6445 37.0127L39.5528 43.0643L38.5291 42.9339C20.0632 40.6256 17.5642 22.1597 17.5642 21.969L17.4338 20.9453L23.4653 14.8536L20.284 6.85502H9.08396V6.86506ZM51.5356 57.797H51.1743C9.46532 55.3984 3.54418 20.2127 2.72124 9.47438C2.59077 7.78836 3.13271 6.12241 4.23665 4.83782C5.34059 3.55323 6.89615 2.7604 8.58217 2.62993C8.75278 2.6199 8.92339 2.60986 9.08396 2.60986H20.2639C22.0001 2.60986 23.5657 3.66363 24.208 5.2794L27.4295 13.2177C28.0617 14.7934 27.7004 16.5998 26.4961 17.8041L21.98 22.3704C23.4252 30.5898 29.8481 37.0328 38.0675 38.498L42.6739 33.9317C43.8983 32.7475 45.7048 32.3962 47.2804 33.0586L55.2789 36.26C56.8746 36.9224 57.8983 38.488 57.8883 40.2041V51.4142C57.8883 54.9267 55.0381 57.7769 51.5255 57.7769L51.5356 57.797ZM55.7807 23.8457H51.5356C51.5356 15.6464 44.8818 9.00269 36.6825 8.99266V4.73746C47.2302 4.7475 55.7707 13.298 55.7807 23.8357V23.8457ZM47.2904 23.8457H43.0453C43.0453 20.3332 40.1951 17.483 36.6825 17.483V13.2378C42.5435 13.2378 47.2904 17.9948 47.2904 23.8457Z" fill="white"/>
</g>
</svg>
