<svg width="60" height="60" viewBox="0 0 60 60" fill="none" xmlns="http://www.w3.org/2000/svg">
<path fill-rule="evenodd" clip-rule="evenodd" d="M8.86097 6.74C8.30097 6.74 7.76097 6.96 7.36097 7.35C6.96097 7.75 6.74097 8.28 6.74097 8.84C6.74097 8.9 6.74097 8.96 6.74097 9.02C7.71097 21.54 13.951 51.14 51.021 53.26C51.581 53.29 52.131 53.1 52.551 52.73C52.971 52.36 53.221 51.83 53.261 51.27C53.261 51.23 53.261 51.18 53.261 51.14V39.97L45.291 36.78L39.221 42.81L38.201 42.68C19.801 40.38 17.311 21.98 17.311 21.79L17.181 20.77L23.191 14.7L20.021 6.73H8.86097V6.74ZM51.161 57.49H50.801C9.24097 55.1 3.34097 20.04 2.52097 9.34C2.39097 7.66 2.93097 6 4.03097 4.72C5.13097 3.44 6.68097 2.65 8.36097 2.52C8.53097 2.51 8.70097 2.5 8.86097 2.5H20.001C21.731 2.5 23.291 3.55 23.931 5.16L27.141 13.07C27.771 14.64 27.411 16.44 26.211 17.64L21.711 22.19C23.151 30.38 29.551 36.8 37.741 38.26L42.331 33.71C43.551 32.53 45.351 32.18 46.921 32.84L54.891 36.03C56.481 36.69 57.501 38.25 57.491 39.96V51.13C57.491 54.63 54.651 57.47 51.151 57.47L51.161 57.49ZM55.391 23.66H51.161C51.161 15.49 44.531 8.87 36.361 8.86V4.62C46.871 4.63 55.381 13.15 55.391 23.65V23.66ZM46.931 23.66H42.701C42.701 20.16 39.861 17.32 36.361 17.32V13.09C42.201 13.09 46.931 17.83 46.931 23.66Z" fill="url(#paint0_linear_2099_4968)"/>
<mask id="mask0_2099_4968" style="mask-type:alpha" maskUnits="userSpaceOnUse" x="30" y="3" width="29" height="24">
<path d="M59 15.4994C59 21.8507 53.6274 26.9994 47 26.9994C40.3726 26.9994 30.5 13.8509 30.5 7.4996C30.5 1.14832 40.3726 3.99939 47 3.99939C53.6274 3.99939 59 9.14812 59 15.4994Z" fill="#D9D9D9"/>
</mask>
<g mask="url(#mask0_2099_4968)">
<path fill-rule="evenodd" clip-rule="evenodd" d="M8.85902 6.74C8.29902 6.74 7.75902 6.96 7.35902 7.35C6.95902 7.75 6.73902 8.28 6.73902 8.84C6.73902 8.9 6.73902 8.96 6.73902 9.02C7.70902 21.54 13.949 51.14 51.019 53.26C51.579 53.29 52.129 53.1 52.549 52.73C52.969 52.36 53.219 51.83 53.259 51.27C53.259 51.23 53.259 51.18 53.259 51.14V39.97L45.289 36.78L39.219 42.81L38.199 42.68C19.799 40.38 17.309 21.98 17.309 21.79L17.179 20.77L23.189 14.7L20.019 6.73H8.85902V6.74ZM51.159 57.49H50.799C9.23902 55.1 3.33902 20.04 2.51902 9.34C2.38902 7.66 2.92902 6 4.02902 4.72C5.12902 3.44 6.67902 2.65 8.35902 2.52C8.52902 2.51 8.69902 2.5 8.85902 2.5H19.999C21.729 2.5 23.289 3.55 23.929 5.16L27.139 13.07C27.769 14.64 27.409 16.44 26.209 17.64L21.709 22.19C23.149 30.38 29.549 36.8 37.739 38.26L42.329 33.71C43.549 32.53 45.349 32.18 46.919 32.84L54.889 36.03C56.479 36.69 57.499 38.25 57.489 39.96V51.13C57.489 54.63 54.649 57.47 51.149 57.47L51.159 57.49ZM55.389 23.66H51.159C51.159 15.49 44.529 8.87 36.359 8.86V4.62C46.869 4.63 55.379 13.15 55.389 23.65V23.66ZM46.929 23.66H42.699C42.699 20.16 39.859 17.32 36.359 17.32V13.09C42.199 13.09 46.929 17.83 46.929 23.66Z" fill="url(#paint1_linear_2099_4968)"/>
</g>
<defs>
<linearGradient id="paint0_linear_2099_4968" x1="57.491" y1="2.49999" x2="15.8912" y2="-6.23987" gradientUnits="userSpaceOnUse">
<stop stop-color="#0ABEC7"/>
<stop offset="1" stop-color="#049EAD"/>
</linearGradient>
<linearGradient id="paint1_linear_2099_4968" x1="54.1897" y1="-3.82385" x2="18.446" y2="53.9151" gradientUnits="userSpaceOnUse">
<stop stop-color="#BB2254"/>
<stop offset="1" stop-color="#EF8223"/>
</linearGradient>
</defs>
</svg>
