<svg width="62" height="61" viewBox="0 0 62 61" fill="none" xmlns="http://www.w3.org/2000/svg">
<g clip-path="url(#clip0_2099_5932)">
<path fill-rule="evenodd" clip-rule="evenodd" d="M59.043 19.7712C43.793 4.73121 19.293 4.73121 4.04297 19.7712V19.8112L6.80297 22.5712C20.513 9.04121 42.543 9.03121 56.263 22.5512L59.043 19.7712ZM12.343 28.1212L15.123 30.9012C24.243 21.9912 38.803 21.9812 47.933 30.8812L50.713 28.1012C40.053 17.6612 23.003 17.6712 12.343 28.1212ZM20.673 36.4512L23.453 39.2312C27.973 34.9212 35.073 34.9212 39.603 39.2112L42.383 36.4312C36.323 30.6012 26.733 30.6112 20.673 36.4512ZM31.533 51.7112C33.703 51.7112 35.463 49.9512 35.463 47.7812C35.463 45.6112 33.703 43.8512 31.533 43.8512C29.363 43.8512 27.603 45.6112 27.603 47.7812C27.603 49.9512 29.363 51.7112 31.533 51.7112Z" fill="white"/>
<mask id="mask0_2099_5932" style="mask-type:alpha" maskUnits="userSpaceOnUse" x="26" y="43" width="10" height="10">
<circle cx="31.3926" cy="47.6006" r="4.5" fill="url(#paint0_linear_2099_5932)"/>
</mask>
<g mask="url(#mask0_2099_5932)">
<path fill-rule="evenodd" clip-rule="evenodd" d="M59.043 19.7712C43.793 4.73121 19.293 4.73121 4.04297 19.7712V19.8112L6.80297 22.5712C20.513 9.04121 42.543 9.03121 56.263 22.5512L59.043 19.7712ZM12.343 28.1212L15.123 30.9012C24.243 21.9912 38.803 21.9812 47.933 30.8812L50.713 28.1012C40.053 17.6612 23.003 17.6712 12.343 28.1212ZM20.673 36.4512L23.453 39.2312C27.973 34.9212 35.073 34.9212 39.603 39.2112L42.383 36.4312C36.323 30.6012 26.733 30.6112 20.673 36.4512ZM31.533 51.7112C33.703 51.7112 35.463 49.9512 35.463 47.7812C35.463 45.6112 33.703 43.8512 31.533 43.8512C29.363 43.8512 27.603 45.6112 27.603 47.7812C27.603 49.9512 29.363 51.7112 31.533 51.7112Z" fill="white"/>
</g>
</g>
<defs>
<linearGradient id="paint0_linear_2099_5932" x1="35.3526" y1="42.0656" x2="29.5026" y2="51.5156" gradientUnits="userSpaceOnUse">
<stop stop-color="#BB2254"/>
<stop offset="1" stop-color="#EF8223"/>
</linearGradient>
<clipPath id="clip0_2099_5932">
<rect width="60.2151" height="60.2151" fill="white" transform="translate(0.892578 0.100586)"/>
</clipPath>
</defs>
</svg>
