<svg width="60" height="60" viewBox="0 0 60 60" fill="none" xmlns="http://www.w3.org/2000/svg">
<path fill-rule="evenodd" clip-rule="evenodd" d="M58.1504 19.6706C42.9004 4.63062 18.4004 4.63062 3.15039 19.6706V19.7106L5.91039 22.4706C19.6204 8.94062 41.6504 8.93062 55.3704 22.4506L58.1504 19.6706ZM11.4504 28.0206L14.2304 30.8006C23.3504 21.8906 37.9104 21.8806 47.0404 30.7806L49.8204 28.0006C39.1604 17.5606 22.1104 17.5706 11.4504 28.0206ZM19.7804 36.3506L22.5604 39.1306C27.0804 34.8206 34.1804 34.8206 38.7104 39.1106L41.4904 36.3306C35.4304 30.5006 25.8404 30.5106 19.7804 36.3506ZM30.6404 51.6106C32.8104 51.6106 34.5704 49.8506 34.5704 47.6806C34.5704 45.5106 32.8104 43.7506 30.6404 43.7506C28.4704 43.7506 26.7104 45.5106 26.7104 47.6806C26.7104 49.8506 28.4704 51.6106 30.6404 51.6106Z" fill="url(#paint0_linear_2099_5441)"/>
<mask id="mask0_2099_5441" style="mask-type:alpha" maskUnits="userSpaceOnUse" x="26" y="43" width="9" height="9">
<circle cx="30.5" cy="47.5" r="4.5" fill="url(#paint1_linear_2099_5441)"/>
</mask>
<g mask="url(#mask0_2099_5441)">
<path fill-rule="evenodd" clip-rule="evenodd" d="M58.1504 19.6706C42.9004 4.63062 18.4004 4.63062 3.15039 19.6706V19.7106L5.91039 22.4706C19.6204 8.94062 41.6504 8.93062 55.3704 22.4506L58.1504 19.6706ZM11.4504 28.0206L14.2304 30.8006C23.3504 21.8906 37.9104 21.8806 47.0404 30.7806L49.8204 28.0006C39.1604 17.5606 22.1104 17.5706 11.4504 28.0206ZM19.7804 36.3506L22.5604 39.1306C27.0804 34.8206 34.1804 34.8206 38.7104 39.1106L41.4904 36.3306C35.4304 30.5006 25.8404 30.5106 19.7804 36.3506ZM30.6404 51.6106C32.8104 51.6106 34.5704 49.8506 34.5704 47.6806C34.5704 45.5106 32.8104 43.7506 30.6404 43.7506C28.4704 43.7506 26.7104 45.5106 26.7104 47.6806C26.7104 49.8506 28.4704 51.6106 30.6404 51.6106Z" fill="url(#paint2_linear_2099_5441)"/>
</g>
<defs>
<linearGradient id="paint0_linear_2099_5441" x1="58.1504" y1="8.39062" x2="17.6041" y2="-2.44988" gradientUnits="userSpaceOnUse">
<stop stop-color="#0ABEC7"/>
<stop offset="1" stop-color="#049EAD"/>
</linearGradient>
<linearGradient id="paint1_linear_2099_5441" x1="34.46" y1="41.965" x2="28.61" y2="51.415" gradientUnits="userSpaceOnUse">
<stop stop-color="#BB2254"/>
<stop offset="1" stop-color="#EF8223"/>
</linearGradient>
<linearGradient id="paint2_linear_2099_5441" x1="54.8504" y1="3.42032" x2="30.1578" y2="54.1803" gradientUnits="userSpaceOnUse">
<stop stop-color="#BB2254"/>
<stop offset="1" stop-color="#EF8223"/>
</linearGradient>
</defs>
</svg>
