<svg width="60" height="60" viewBox="0 0 60 60" fill="none" xmlns="http://www.w3.org/2000/svg">
<path fill-rule="evenodd" clip-rule="evenodd" d="M42.6901 2.5H17.3101C14.9701 2.5 13.0801 4.4 13.0801 6.73V53.27C13.0801 55.61 14.9801 57.5 17.3101 57.5H42.6901C45.0301 57.5 46.9201 55.6 46.9201 53.27V6.73C46.9201 4.39 45.0201 2.5 42.6901 2.5ZM17.3101 6.73H42.6901V10.96H17.3101V6.73ZM42.6901 49.31V53.27H17.3101V15.19H42.6901V49.31Z" fill="url(#paint0_linear_2099_5953)"/>
<mask id="mask0_2099_5953" style="mask-type:alpha" maskUnits="userSpaceOnUse" x="17" y="10" width="26" height="6">
<path d="M17.2969 10.961L42.6992 10.9609V15.1914L17.2969 15.1914V10.961Z" fill="#D9D9D9"/>
</mask>
<g mask="url(#mask0_2099_5953)">
<path fill-rule="evenodd" clip-rule="evenodd" d="M42.6901 2.5H17.3101C14.9701 2.5 13.0801 4.4 13.0801 6.73V53.27C13.0801 55.61 14.9801 57.5 17.3101 57.5H42.6901C45.0301 57.5 46.9201 55.6 46.9201 53.27V6.73C46.9201 4.39 45.0201 2.5 42.6901 2.5ZM17.3101 6.73H42.6901V10.96H17.3101V6.73ZM42.6901 49.31V53.27H17.3101V15.19H42.6901V49.31Z" fill="url(#paint1_linear_2099_5953)"/>
</g>
<defs>
<linearGradient id="paint0_linear_2099_5953" x1="46.9201" y1="2.49999" x2="20.6291" y2="-0.898563" gradientUnits="userSpaceOnUse">
<stop stop-color="#0ABEC7"/>
<stop offset="1" stop-color="#049EAD"/>
</linearGradient>
<linearGradient id="paint1_linear_2099_5953" x1="44.8897" y1="-3.825" x2="4.94995" y2="35.8712" gradientUnits="userSpaceOnUse">
<stop stop-color="#BB2254"/>
<stop offset="1" stop-color="#EF8223"/>
</linearGradient>
</defs>
</svg>
