<svg width="89" height="80" viewBox="0 0 89 80" fill="none" xmlns="http://www.w3.org/2000/svg">
<g filter="url(#filter0_d_407_9995)">
<path d="M61.1905 56.966C60.7754 56.966 60.3728 56.7885 60.0889 56.4798C60.0595 56.4537 60.0279 56.4209 59.9973 56.3881C59.9679 56.3621 59.9363 56.3293 59.9057 56.2965C59.8763 56.2705 59.8446 56.2389 59.8141 56.2049C59.7847 56.1789 59.753 56.1461 59.7225 56.1133C59.6931 56.0873 59.6614 56.0545 59.6309 56.0217C59.6015 55.9957 59.5698 55.964 59.5393 55.9301C59.5099 55.9041 59.4782 55.8713 59.4477 55.8385C59.4183 55.8125 59.3866 55.7797 59.3561 55.7469C59.3267 55.7209 59.295 55.6881 59.2645 55.6553C59.2351 55.6293 59.2034 55.5965 59.1729 55.5637C59.1435 55.5377 59.1118 55.506 59.0813 55.4721C59.0519 55.4461 59.0202 55.4133 58.9897 55.3805C58.9602 55.3545 58.9286 55.3217 58.8981 55.2889C58.8686 55.2629 58.837 55.2312 58.8076 55.1984C58.7782 55.1713 58.7465 55.1396 58.716 55.1068C58.6866 55.0808 58.6549 55.048 58.6244 55.0152C58.595 54.9892 58.5633 54.9575 58.5328 54.9236C58.5034 54.8976 58.4717 54.8648 58.4411 54.832C58.4117 54.806 58.3801 54.7743 58.3507 54.7415C58.3213 54.7155 58.2896 54.6827 58.2591 54.6499C58.2297 54.6239 58.198 54.5911 58.1675 54.5583C58.1381 54.5323 58.1064 54.5006 58.0759 54.4667C58.0465 54.4407 58.0148 54.4079 57.9843 54.3751C57.9549 54.3491 57.9232 54.3174 57.8926 54.2835C57.8678 54.262 57.8429 54.236 57.8169 54.2088V55.4608C57.8169 56.2886 57.144 56.9615 56.3161 56.9615H33.9644C33.5685 56.9615 33.1942 56.8088 32.9126 56.5306L31.3926 55.0367L31.3813 55.0242L31.301 54.9451C31.301 54.9451 31.2931 54.9372 31.2897 54.9338L31.2094 54.8546C31.2094 54.8546 31.2026 54.8467 31.1981 54.8433L31.1178 54.763C31.1178 54.763 31.111 54.7551 31.1076 54.7517L31.0273 54.6714L31.0171 54.6601L30.9368 54.5798C30.9368 54.5798 30.9289 54.5719 30.9255 54.5685L30.8441 54.4882L30.8351 54.4791L30.7536 54.3988C30.7536 54.3988 30.7457 54.3909 30.7423 54.3864L30.6632 54.3072C30.6632 54.3072 30.6552 54.2993 30.6518 54.2959L30.5715 54.2168C30.5715 54.2168 30.5636 54.2088 30.5602 54.2043L30.4799 54.1251C30.4799 54.1251 30.472 54.1172 30.4686 54.1138L30.3883 54.0347C30.3883 54.0347 30.3816 54.0268 30.377 54.0234L30.2967 53.9442C30.2967 53.9442 30.2899 53.9363 30.2866 53.9329L30.2063 53.8526L30.195 53.8413L30.1124 53.7599L30.1033 53.7497L30.0219 53.6694C30.0219 53.6694 30.014 53.6615 30.0106 53.6569L29.9303 53.5778C29.9303 53.5778 29.9224 53.5699 29.919 53.5653L29.8387 53.4862C29.8387 53.4862 29.8308 53.4782 29.8274 53.4749L29.7471 53.3957C29.7471 53.3957 29.7392 53.3878 29.7358 53.3833L29.6555 53.3041L29.6453 53.2928L29.565 53.2125L29.5548 53.2012L29.4745 53.1209C29.4745 53.1209 29.4666 53.113 29.4632 53.1084L29.3818 53.0281L29.3739 53.0191L29.2925 52.9388C29.2925 52.9388 29.2845 52.9309 29.2812 52.9264L29.2009 52.8472C29.2009 52.8472 29.1929 52.8393 29.1895 52.8359L29.1093 52.7567C29.1093 52.7567 29.1013 52.7488 29.0979 52.7454L29.0176 52.6662C29.0176 52.6662 29.0097 52.6583 29.0063 52.6538L28.9249 52.5735L28.9159 52.5633L28.8344 52.483C28.8344 52.483 28.8277 52.4751 28.8243 52.4717L28.744 52.3914C28.744 52.3914 28.736 52.3835 28.7327 52.379L28.6512 52.2987L28.6433 52.2896L28.5619 52.2093C28.5619 52.2093 28.554 52.2014 28.5506 52.1969L28.4703 52.1177C28.4703 52.1177 28.4624 52.1098 28.459 52.1053L28.3775 52.025L28.3685 52.0148L28.2882 51.9345C28.2882 51.9345 28.2814 51.9266 28.2769 51.9232L28.1966 51.8441L28.1864 51.8327L28.1039 51.7513L28.0948 51.7411L28.0145 51.6608L28.0043 51.6495L27.9218 51.5681L27.9127 51.5591L27.8313 51.4788C27.8313 51.4788 27.8234 51.4708 27.82 51.4674L27.7397 51.3883C27.7397 51.3883 27.7318 51.3804 27.7273 51.3758L27.6458 51.2955L27.6379 51.2865L27.5565 51.2062L27.5463 51.1949L27.4637 51.1135L27.4547 51.1033L27.3733 51.023C27.3733 51.023 27.3654 51.0151 27.362 51.0117L27.2817 50.9325C27.2817 50.9325 27.2737 50.9246 27.2704 50.9212L27.1889 50.8398L27.181 50.8307L27.0996 50.7504L27.0883 50.738L27.0091 50.6588C27.0091 50.6588 27.0012 50.6509 26.9978 50.6475L26.9175 50.5684C26.9175 50.5684 26.9096 50.5604 26.9062 50.557L26.8248 50.4756L26.8157 50.4654L26.7332 50.384L26.7241 50.375L26.6416 50.2935L26.6325 50.2834L26.5522 50.2031C26.2672 49.9226 26.1032 49.5324 26.1032 49.1332V33.1508H24.1829C23.9624 33.1508 23.7509 33.0705 23.5858 32.9235L22.6098 32.0538C22.6019 32.0471 22.5951 32.0391 22.5894 32.0312C22.5872 32.0278 22.5838 32.0244 22.5804 32.0222L22.5566 32.0007C22.5487 31.9939 22.5419 31.986 22.5351 31.9781C22.5329 31.9747 22.5295 31.9713 22.5272 31.969L22.5035 31.9475C22.4956 31.9407 22.4888 31.9328 22.482 31.9249C22.4797 31.9215 22.4763 31.9181 22.4741 31.9159L22.4503 31.8944C22.4424 31.8876 22.4356 31.8797 22.4288 31.8718C22.4266 31.8684 22.4232 31.865 22.4209 31.8627L22.3972 31.8424C22.3892 31.8356 22.3825 31.8277 22.3757 31.8197C22.3734 31.8163 22.37 31.8129 22.3678 31.8107L22.344 31.7903C22.3361 31.7835 22.3293 31.7756 22.3236 31.7677C22.3214 31.7643 22.318 31.7609 22.3146 31.7587L22.2909 31.7372C22.2829 31.7304 22.2762 31.7225 22.2694 31.7146C22.2671 31.7112 22.2637 31.7078 22.2603 31.7044L22.2366 31.6829C22.2287 31.6761 22.2219 31.6682 22.2151 31.6603C22.2128 31.6569 22.2094 31.6535 22.2072 31.6512L22.1834 31.6309C22.1755 31.6241 22.1687 31.6162 22.1619 31.6082C22.1597 31.6049 22.1563 31.6015 22.154 31.5992L22.1303 31.5788C22.1223 31.5721 22.1156 31.5641 22.1088 31.5562C22.1065 31.5528 22.1031 31.5494 22.0997 31.5472L22.076 31.5257C22.0681 31.5189 22.0613 31.511 22.0545 31.5031C22.0522 31.4997 22.0488 31.4963 22.0454 31.494L22.0217 31.4725C22.0138 31.4658 22.007 31.4578 22.0013 31.4499C21.9991 31.4465 21.9957 31.4431 21.9923 31.4397L21.9685 31.4183C21.9606 31.4115 21.9538 31.4035 21.9471 31.3956C21.9448 31.3922 21.9414 31.3888 21.938 31.3855L21.9142 31.3651C21.9063 31.3583 21.8995 31.3504 21.8928 31.3425C21.8905 31.3391 21.8871 31.3357 21.8848 31.3334L21.8611 31.3131C21.8532 31.3063 21.8464 31.2984 21.8396 31.2905C21.8373 31.2871 21.834 31.2837 21.8306 31.2803L21.8068 31.2588C21.7989 31.252 21.7921 31.2441 21.7853 31.2362C21.7831 31.2328 21.7797 31.2294 21.7763 31.2271L21.7525 31.2056C21.7446 31.1989 21.7378 31.1909 21.731 31.183C21.7288 31.1796 21.7254 31.1762 21.7231 31.174L21.6994 31.1525C21.6915 31.1457 21.6847 31.1378 21.6779 31.1299C21.6756 31.1265 21.6722 31.1231 21.6688 31.1208L21.6451 31.0993C21.6372 31.0925 21.6304 31.0846 21.6236 31.0767C21.6213 31.0733 21.6179 31.0699 21.6157 31.0677L21.5919 31.0473C21.584 31.0405 21.5772 31.0326 21.5704 31.0247C21.5682 31.0213 21.5648 31.0179 21.5614 31.0145L21.5377 30.9942C21.5297 30.9874 21.523 30.9794 21.5162 30.9715C21.5139 30.9681 21.5105 30.9647 21.5082 30.9625L21.4845 30.9421C21.4766 30.9353 21.4698 30.9274 21.463 30.9195C21.4607 30.9161 21.4574 30.9127 21.454 30.9093L21.4302 30.8878C21.4223 30.8811 21.4155 30.8731 21.4099 30.8652C21.4076 30.8618 21.4042 30.8584 21.4008 30.8562L21.3771 30.8347C21.3691 30.8279 21.3624 30.82 21.3556 30.8121C21.3533 30.8087 21.3499 30.8053 21.3465 30.8019L21.3228 30.7815C21.3149 30.7748 21.3081 30.7668 21.3013 30.7589C21.299 30.7555 21.2956 30.7521 21.2922 30.7499L21.2685 30.7284C21.2606 30.7216 21.2538 30.7137 21.247 30.7058C21.2447 30.7024 21.2413 30.699 21.238 30.6967L21.2142 30.6752C21.2063 30.6684 21.1995 30.6605 21.1927 30.6526C21.1905 30.6492 21.1871 30.6458 21.1837 30.6436L21.1599 30.6221C21.152 30.6153 21.1452 30.6074 21.1384 30.5995C21.1362 30.5961 21.1328 30.5927 21.1294 30.5893L21.1056 30.5689C21.0977 30.5621 21.0909 30.5542 21.0853 30.5463C21.083 30.5429 21.0796 30.5395 21.0762 30.5373L21.0525 30.5158C21.0446 30.509 21.0378 30.5011 21.031 30.4931C21.0287 30.4898 21.0253 30.4864 21.0231 30.4841L20.9993 30.4637C20.9914 30.457 20.9846 30.449 20.9778 30.4411C20.9756 30.4377 20.9722 30.4343 20.9699 30.4321L20.9462 30.4117C20.9383 30.4049 20.9315 30.397 20.9247 30.3891C20.9224 30.3857 20.919 30.3823 20.9168 30.3801L20.893 30.3586C20.8851 30.3518 20.8783 30.3439 20.8715 30.3359C20.8693 30.3326 20.8659 30.3292 20.8625 30.3269L20.8387 30.3054C20.8308 30.2986 20.824 30.2907 20.8172 30.2828C20.815 30.2794 20.8116 30.276 20.8093 30.2737L20.7856 30.2523C20.7777 30.2455 20.7709 30.2376 20.7641 30.2296C20.7618 30.2262 20.7584 30.2229 20.7562 30.2206L20.7324 30.2002C20.7245 30.1935 20.7177 30.1855 20.7109 30.1776C20.7087 30.1742 20.7053 30.1708 20.703 30.1686L20.6793 30.1471C20.6714 30.1403 20.6646 30.1324 20.6578 30.1245C20.6555 30.1211 20.6521 30.1177 20.6499 30.1154L20.6261 30.0939C20.6182 30.0871 20.6114 30.0792 20.6046 30.0713C20.6024 30.0679 20.599 30.0645 20.5967 30.0623L20.573 30.0408C20.565 30.034 20.5583 30.0261 20.5515 30.0182C20.5492 30.0148 20.5458 30.0114 20.5424 30.0091L20.5187 29.9876C20.5108 29.9808 20.504 29.9729 20.4972 29.965C20.4949 29.9616 20.4915 29.9582 20.4881 29.9548L20.4644 29.9333C20.4565 29.9266 20.4497 29.9186 20.4429 29.9107C20.4406 29.9073 20.4373 29.9039 20.435 29.9017L20.4112 29.8813C20.4033 29.8745 20.3965 29.8666 20.3898 29.8587C20.3875 29.8553 20.3841 29.8519 20.3807 29.8485L20.357 29.8282C20.349 29.8214 20.3423 29.8135 20.3355 29.8055C20.3332 29.8021 20.3298 29.7988 20.3276 29.7965L20.3038 29.775C20.2959 29.7682 20.2902 29.7603 20.2834 29.7524C20.2812 29.749 20.2778 29.7456 20.2744 29.7422L20.2507 29.7207C20.2427 29.7139 20.2359 29.706 20.2292 29.697C20.2269 29.6947 20.2235 29.6913 20.2212 29.6879L20.1975 29.6676C20.1918 29.6619 20.1862 29.6563 20.1817 29.6506C20.1805 29.6495 20.176 29.6449 20.1715 29.6393L20.1443 29.6133C20.1364 29.6065 20.1296 29.5986 20.1229 29.5907C20.1206 29.5873 20.1172 29.5839 20.1149 29.5816L20.0912 29.5613C20.0833 29.5545 20.0765 29.5466 20.0697 29.5386C20.0674 29.5352 20.064 29.5319 20.0618 29.5296L20.038 29.5092C20.0301 29.5024 20.0233 29.4945 20.0165 29.4855C20.0143 29.4821 20.0109 29.4787 20.0086 29.4764L19.9849 29.4561C19.977 29.4493 19.9702 29.4414 19.9634 29.4335C19.9611 29.4301 19.9577 29.4267 19.9555 29.4244L19.9317 29.4041C19.9238 29.3973 19.917 29.3894 19.9114 29.3814C19.9091 29.378 19.9057 29.3747 19.9023 29.3713L19.8786 29.3498C19.8718 29.3441 19.8661 29.3373 19.8605 29.3305C19.8582 29.3294 19.8548 29.3249 19.8514 29.3204L19.8254 29.2966C19.8186 29.2898 19.8118 29.283 19.8062 29.2763C19.8051 29.2751 19.8017 29.2706 19.7983 29.2672L19.7723 29.2435C19.7248 29.2005 19.6818 29.1541 19.6445 29.1032C19.5314 28.9483 19.4714 28.7651 19.4714 28.574V17.9895C19.4714 17.691 19.6196 17.4128 19.8673 17.2454C19.9645 17.1798 20.0731 17.1334 20.1884 17.1108C20.2473 17.0984 20.3083 17.0927 20.3694 17.0927H29.0934C29.1545 17.0927 29.2178 17.0995 29.2812 17.1131C29.2891 17.1142 29.2959 17.1176 29.3026 17.1199C29.3648 17.1357 29.4146 17.1527 29.4587 17.1719L29.47 17.1775C29.5707 17.2239 29.66 17.2884 29.7369 17.3687H29.7686V17.4003C29.7822 17.4128 29.7946 17.4263 29.807 17.4399C29.8229 17.4535 29.841 17.4727 29.8591 17.4919C29.8772 17.5089 29.8941 17.5259 29.9111 17.544C29.9303 17.562 29.9484 17.5801 29.9665 17.5994C29.9823 17.6141 30.0016 17.6333 30.0197 17.6525C30.0355 17.6672 30.0547 17.6853 30.0728 17.7057C30.0762 17.7079 30.0785 17.7113 30.0819 17.7136L30.3521 17.4026C30.5229 17.2058 30.7695 17.0927 31.0296 17.0927H39.1316C39.3815 17.0927 39.6213 17.1979 39.7909 17.3811L39.8226 17.415C39.8328 17.4229 39.8396 17.4286 39.8441 17.4343L39.8757 17.4682C39.8859 17.4761 39.8916 17.4818 39.8972 17.4874L39.9289 17.5213C39.9391 17.5304 39.9459 17.5349 39.9515 17.5406L39.9832 17.5745C39.9934 17.5824 39.999 17.5881 40.0047 17.5937L40.0363 17.6276C40.0465 17.6367 40.0533 17.6412 40.0578 17.6469L40.0895 17.6808C40.0997 17.6898 40.1065 17.6944 40.111 17.7L40.1426 17.734C40.1426 17.734 40.1472 17.7373 40.1483 17.7385C40.258 17.3585 40.6041 17.0927 41.0078 17.0927H44.4391C44.6879 17.0927 44.9276 17.199 45.0984 17.3834L45.1029 17.3879L46.6817 20.0399L48.1508 17.5349C48.3114 17.2624 48.6077 17.0927 48.9243 17.0927H52.3556C52.5049 17.0927 52.6508 17.1323 52.7865 17.2103C52.9222 17.1334 53.0726 17.0927 53.2242 17.0927H61.9335C62.1857 17.0927 62.4198 17.1968 62.5939 17.3868C62.6098 17.4015 62.629 17.4196 62.6471 17.4399C62.6641 17.4546 62.6822 17.4727 62.7002 17.4931C62.7161 17.5078 62.7353 17.5259 62.7534 17.5462C62.7692 17.5609 62.7885 17.579 62.8065 17.5994C62.8235 17.6141 62.8416 17.6322 62.8597 17.6525C62.8755 17.6672 62.8948 17.6853 62.9129 17.7057C62.9287 17.7204 62.9479 17.7385 62.966 17.7588C62.9818 17.7735 63.0011 17.7928 63.0192 17.812C63.035 17.8267 63.0542 17.8448 63.0723 17.8651C63.0882 17.8798 63.1074 17.8991 63.1255 17.9183C63.1413 17.933 63.1605 17.9511 63.1786 17.9714C63.1956 17.9861 63.2137 18.0054 63.2318 18.0246C63.2476 18.0393 63.2669 18.0574 63.2849 18.0778C63.3008 18.0925 63.32 18.1106 63.3381 18.1309C63.3539 18.1456 63.3732 18.1637 63.3912 18.1841C63.4071 18.1988 63.4263 18.2169 63.4444 18.2372C63.4602 18.2519 63.4795 18.27 63.4976 18.2904C63.5134 18.3051 63.5326 18.3232 63.5507 18.3435C63.5665 18.3582 63.5858 18.3775 63.6039 18.3967C63.6197 18.4114 63.6389 18.4295 63.657 18.4498C63.6728 18.4645 63.6921 18.4826 63.7102 18.503C63.726 18.5177 63.7452 18.5358 63.7633 18.5561C63.7803 18.5708 63.7984 18.5901 63.8165 18.6093C63.8323 18.624 63.8515 18.6421 63.8696 18.6624C63.8855 18.6772 63.9047 18.6964 63.9228 18.7156C63.9386 18.7303 63.9579 18.7484 63.9759 18.7688C63.9997 18.7902 64.0234 18.8163 64.0472 18.8445C64.0472 18.8445 64.0517 18.8479 64.0562 18.8513C64.0653 18.8592 64.0743 18.866 64.0822 18.8751C64.0981 18.8898 64.1173 18.9079 64.1354 18.9282C64.1512 18.9429 64.1705 18.961 64.1886 18.9814C64.2055 18.9961 64.2236 19.0142 64.2417 19.0345C64.2575 19.0492 64.2768 19.0673 64.2949 19.0877C64.3107 19.1024 64.3299 19.1205 64.348 19.1408C64.365 19.1555 64.3831 19.1748 64.4012 19.194C64.417 19.2087 64.4362 19.2268 64.4543 19.2471C64.4702 19.2618 64.4894 19.2799 64.5075 19.3003C64.5233 19.315 64.5425 19.3342 64.5606 19.3534C64.5765 19.3682 64.5957 19.3862 64.6138 19.4066C64.6296 19.4213 64.6488 19.4405 64.6669 19.4598C64.6839 19.4745 64.702 19.4926 64.7201 19.5129C64.7359 19.5276 64.7551 19.5457 64.7732 19.5661C64.7891 19.5808 64.8083 19.6 64.8264 19.6192C64.8422 19.6339 64.8615 19.6531 64.8796 19.6724C64.8954 19.6871 64.9146 19.7052 64.9327 19.7255C64.9485 19.7402 64.9678 19.7583 64.9859 19.7787C65.0017 19.7934 65.0209 19.8115 65.039 19.8318C65.0549 19.8465 65.0741 19.8646 65.0922 19.885C65.108 19.8997 65.1272 19.9178 65.1453 19.9381C65.1612 19.9528 65.1804 19.9709 65.1985 19.9913C65.2143 20.006 65.2335 20.0252 65.2516 20.0444C65.2675 20.0592 65.2867 20.0772 65.3048 20.0976C65.3206 20.1123 65.3398 20.1304 65.3579 20.1508C65.5434 20.3204 65.6486 20.5545 65.6486 20.8078V23.858C65.6486 24.3522 65.246 24.7548 64.7518 24.7548H64.4408C64.4634 24.8351 64.4747 24.9176 64.4747 25.0013V27.6534C64.486 27.6647 64.4973 27.676 64.5086 27.6884C64.5244 27.7031 64.5437 27.7224 64.5618 27.7416C64.5776 27.7563 64.5968 27.7744 64.6149 27.7947C64.6308 27.8094 64.65 27.8287 64.6681 27.8479C64.6839 27.8626 64.7031 27.8807 64.7212 27.901C64.7371 27.9157 64.7563 27.9338 64.7744 27.9542C64.7913 27.9689 64.8094 27.987 64.8275 28.0074C64.8434 28.0221 64.8626 28.0402 64.8807 28.0605C64.8965 28.0752 64.9157 28.0933 64.9338 28.1137C64.9497 28.1284 64.9689 28.1465 64.987 28.1668C65.0028 28.1815 65.022 28.1996 65.0401 28.22C65.056 28.2347 65.0752 28.2539 65.0933 28.2731C65.1103 28.2878 65.1284 28.3071 65.1465 28.3263C65.1623 28.341 65.1815 28.3591 65.1996 28.3794C65.2154 28.3941 65.2347 28.4134 65.2528 28.4326C65.2686 28.4473 65.2878 28.4654 65.3059 28.4857C65.3229 28.5004 65.341 28.5197 65.3591 28.5389C65.5445 28.7085 65.6497 28.9426 65.6497 29.1948V31.01C65.6497 31.0405 65.6486 31.0711 65.6452 31.1016C65.6486 31.1321 65.6497 31.1627 65.6497 31.1932V31.9679C65.6757 31.9928 65.7006 32.0176 65.7255 32.0448C65.7549 32.0719 65.7866 32.1036 65.8171 32.1364C65.8465 32.1624 65.8782 32.1941 65.9087 32.228C65.9381 32.2551 65.9698 32.2857 65.9992 32.3185C66.0286 32.3456 66.0603 32.3773 66.0908 32.4101C66.1202 32.4372 66.1519 32.4678 66.1824 32.5017C66.2118 32.5288 66.2435 32.5594 66.274 32.5922C66.3034 32.6193 66.3351 32.651 66.3656 32.6838C66.395 32.7109 66.4267 32.7426 66.4572 32.7754C66.4866 32.8025 66.5183 32.8342 66.5488 32.867C66.5782 32.8941 66.6099 32.9258 66.6404 32.9586C66.6698 32.9857 66.7015 33.0163 66.7309 33.0491C66.7603 33.0762 66.792 33.1079 66.8225 33.1407C66.8519 33.1678 66.8836 33.1995 66.9141 33.2323C66.9435 33.2594 66.9752 33.2899 67.0046 33.3227C67.034 33.3499 67.0657 33.3816 67.0962 33.4144C67.1256 33.4404 67.1573 33.472 67.1878 33.506C67.2172 33.5331 67.2489 33.5648 67.2794 33.5976C67.3088 33.6247 67.3405 33.6564 67.371 33.6892C67.4004 33.7163 67.4321 33.7468 67.4615 33.7796C67.4909 33.8068 67.5226 33.8385 67.5531 33.8713C67.5825 33.8984 67.6142 33.9301 67.6447 33.9629C67.6741 33.9889 67.7058 34.0205 67.7352 34.0533C67.7646 34.0805 67.7962 34.1121 67.8268 34.1449C67.8562 34.1721 67.8878 34.2037 67.9184 34.2365C67.9478 34.2637 67.9794 34.2953 68.01 34.3281C68.0394 34.3553 68.0711 34.387 68.1016 34.4198C68.131 34.4469 68.1627 34.4774 68.1921 34.5114C68.2215 34.5385 68.2531 34.5702 68.2837 34.603C68.3131 34.629 68.3447 34.6606 68.3753 34.6946C68.6829 34.975 68.8604 35.3788 68.8604 35.7972V53.3278C68.8604 53.381 68.8582 53.4341 68.8525 53.485C68.8582 53.5359 68.8604 53.5891 68.8604 53.6422V55.4766C68.8604 56.3045 68.1875 56.9774 67.3597 56.9774H61.1724L61.1905 56.966Z" fill="#161B32"/>
<path d="M61.9539 17.139C62.1993 17.139 62.4187 17.2465 62.5725 17.4139C62.5906 17.4308 62.6087 17.4489 62.6257 17.467C62.6438 17.484 62.6619 17.5021 62.6789 17.5202C62.697 17.5371 62.715 17.5552 62.732 17.5733C62.7501 17.5903 62.7682 17.6084 62.7852 17.6265C62.8033 17.6434 62.8214 17.6615 62.8383 17.6796C62.8564 17.6966 62.8745 17.7136 62.8915 17.7328C62.9096 17.7497 62.9277 17.7678 62.9446 17.7859C62.9627 17.8029 62.9808 17.821 62.9978 17.8391C63.0159 17.8561 63.034 17.8742 63.0509 17.8922C63.069 17.9092 63.0871 17.9273 63.1041 17.9454C63.1222 17.9624 63.1403 17.9805 63.1572 17.9986C63.1753 18.0155 63.1934 18.0336 63.2104 18.0517C63.2285 18.0687 63.2466 18.0868 63.2635 18.1049C63.2816 18.1218 63.2997 18.1399 63.3167 18.158C63.3348 18.175 63.3529 18.1931 63.3699 18.2112C63.388 18.2281 63.406 18.2462 63.423 18.2643C63.4411 18.2813 63.4592 18.2994 63.4762 18.3175C63.4954 18.3344 63.5123 18.3525 63.5293 18.3706C63.5474 18.3876 63.5655 18.4057 63.5825 18.4238C63.6017 18.4407 63.6187 18.4588 63.6356 18.4769C63.6537 18.4939 63.6718 18.512 63.6888 18.5301C63.7069 18.5471 63.725 18.5652 63.7419 18.5832C63.76 18.6002 63.7781 18.6183 63.7951 18.6364C63.8132 18.6534 63.8313 18.6715 63.8482 18.6896C63.8663 18.7065 63.8844 18.7246 63.9014 18.7427C63.9195 18.7597 63.9376 18.7778 63.9545 18.7959C63.9794 18.8185 64.0032 18.8434 64.0247 18.8694C64.036 18.8807 64.0495 18.8897 64.0609 18.9022C64.079 18.9191 64.097 18.9372 64.114 18.9553C64.1321 18.9723 64.1502 18.9893 64.1672 19.0085C64.1853 19.0254 64.2033 19.0435 64.2203 19.0616C64.2384 19.0786 64.2565 19.0967 64.2735 19.1148C64.2916 19.1317 64.3097 19.1498 64.3266 19.1679C64.3447 19.1849 64.3628 19.203 64.3798 19.2211C64.3979 19.2381 64.416 19.2562 64.4329 19.2742C64.451 19.2912 64.4691 19.3093 64.4861 19.3274C64.5042 19.3444 64.5223 19.3625 64.5392 19.3806C64.5573 19.3975 64.5754 19.4145 64.5924 19.4337C64.6116 19.4507 64.6286 19.4688 64.6455 19.4869C64.6648 19.5038 64.6817 19.5219 64.6987 19.54C64.7168 19.557 64.7349 19.5751 64.7519 19.5932C64.77 19.6101 64.788 19.6282 64.805 19.6463C64.8231 19.6633 64.8412 19.6814 64.8582 19.6995C64.8763 19.7164 64.8944 19.7345 64.9113 19.7526C64.9294 19.7696 64.9475 19.7877 64.9645 19.8058C64.9826 19.8227 65.0007 19.8408 65.0176 19.8589C65.0357 19.8759 65.0538 19.894 65.0708 19.9121C65.0889 19.9291 65.107 19.9472 65.1239 19.9652C65.142 19.9822 65.1601 19.9992 65.1771 20.0184C65.1963 20.0354 65.2133 20.0535 65.2302 20.0716C65.2483 20.0885 65.2664 20.1066 65.2834 20.1247C65.3015 20.1417 65.3196 20.1598 65.3366 20.1779C65.5051 20.3317 65.6114 20.5511 65.6114 20.7965V23.8466C65.6114 24.3114 65.2348 24.6869 64.7711 24.6869H64.3809C64.4171 24.7808 64.4375 24.8837 64.4375 24.99V27.6658C64.4544 27.6816 64.4703 27.6974 64.4861 27.7155C64.5042 27.7325 64.5223 27.7506 64.5392 27.7687C64.5573 27.7857 64.5754 27.8026 64.5924 27.8218C64.6116 27.8388 64.6286 27.8569 64.6455 27.875C64.6648 27.892 64.6817 27.9101 64.6987 27.9282C64.7168 27.9451 64.7349 27.9632 64.7519 27.9813C64.77 27.9983 64.788 28.0164 64.805 28.0345C64.8231 28.0514 64.8412 28.0695 64.8582 28.0876C64.8763 28.1046 64.8944 28.1227 64.9113 28.1408C64.9294 28.1577 64.9475 28.1758 64.9645 28.1939C64.9826 28.2109 65.0007 28.229 65.0176 28.2471C65.0357 28.264 65.0538 28.2821 65.0708 28.3002C65.0889 28.3172 65.107 28.3353 65.1239 28.3534C65.142 28.3703 65.1601 28.3873 65.1771 28.4065C65.1963 28.4235 65.2133 28.4416 65.2302 28.4597C65.2483 28.4767 65.2664 28.4948 65.2834 28.5128C65.3015 28.5298 65.3196 28.5479 65.3366 28.566C65.5051 28.7198 65.6114 28.9392 65.6114 29.1846V30.9998C65.6114 31.0303 65.6102 31.0608 65.6068 31.0914C65.6102 31.1219 65.6114 31.1524 65.6114 31.183V31.9825C65.643 32.0108 65.6724 32.0414 65.7018 32.073C65.7335 32.1024 65.764 32.133 65.7934 32.1646C65.8251 32.194 65.8557 32.2246 65.8851 32.2562C65.9167 32.2856 65.9472 32.315 65.9755 32.3467C66.0072 32.3761 66.0377 32.4066 66.0671 32.4383C66.0988 32.4677 66.1293 32.4983 66.1587 32.5299C66.1904 32.5593 66.2209 32.5887 66.2503 32.6215C66.282 32.6509 66.3125 32.6815 66.3419 32.7131C66.3736 32.7425 66.4042 32.7731 66.4336 32.8047C66.4652 32.8341 66.4958 32.8647 66.5252 32.8963C66.5568 32.9258 66.5874 32.9563 66.6168 32.988C66.6484 33.0174 66.679 33.0468 66.7072 33.0784C66.7389 33.1078 66.7694 33.1384 66.7988 33.17C66.8305 33.1994 66.8611 33.23 66.8905 33.2616C66.9221 33.291 66.9527 33.3204 66.9821 33.3532C67.0137 33.3826 67.0443 33.4132 67.0737 33.4448C67.1053 33.4743 67.1359 33.5048 67.1653 33.5365C67.1969 33.5659 67.2275 33.5964 67.2569 33.6281C67.2885 33.6575 67.3191 33.688 67.3485 33.7197C67.3801 33.7491 67.4107 33.7785 67.4401 33.8101C67.4718 33.8395 67.5023 33.8701 67.5317 33.9017C67.5634 33.9311 67.5939 33.9617 67.6233 33.9934C67.655 34.0228 67.6855 34.0522 67.7138 34.0838C67.7454 34.1132 67.776 34.1438 67.8054 34.1754C67.837 34.2048 67.8676 34.2354 67.897 34.267C67.9286 34.2964 67.9592 34.327 67.9886 34.3586C68.0203 34.388 68.0508 34.4186 68.0802 34.4502C68.1119 34.4797 68.1424 34.5091 68.1718 34.5419C68.2035 34.5713 68.234 34.6018 68.2634 34.6335C68.2951 34.6629 68.3256 34.6934 68.355 34.7251C68.6434 34.9886 68.8255 35.3674 68.8255 35.7893V53.3199C68.8255 53.373 68.8221 53.4251 68.8176 53.4771C68.8232 53.5291 68.8255 53.5811 68.8255 53.6343V55.4687C68.8255 56.266 68.1786 56.9129 67.3813 56.9129H61.1939C60.7857 56.9129 60.4046 56.7387 60.1331 56.4446C60.1015 56.4152 60.0709 56.3847 60.0415 56.353C60.0098 56.3236 59.9793 56.2931 59.9499 56.2614C59.9183 56.232 59.8877 56.2015 59.8583 56.1698C59.8266 56.1404 59.7961 56.1099 59.7667 56.0782C59.735 56.0488 59.7045 56.0183 59.6751 55.9866C59.6434 55.9572 59.6129 55.9267 59.5835 55.895C59.5518 55.8656 59.5213 55.8351 59.4919 55.8034C59.4602 55.774 59.4297 55.7435 59.4003 55.7118C59.3686 55.6824 59.3381 55.6519 59.3087 55.6202C59.277 55.5908 59.2465 55.5603 59.2171 55.5286C59.1854 55.4992 59.1549 55.4687 59.1255 55.437C59.0938 55.4076 59.0633 55.377 59.0338 55.3454C59.0022 55.316 58.9717 55.2854 58.9422 55.2538C58.9106 55.2255 58.88 55.195 58.8518 55.1633C58.8201 55.1339 58.7896 55.1034 58.7602 55.0717C58.7285 55.0423 58.698 55.0118 58.6686 54.9801C58.6369 54.9507 58.6064 54.9202 58.577 54.8885C58.5453 54.8591 58.5148 54.8285 58.4853 54.7969C58.4537 54.7686 58.4232 54.7381 58.3949 54.7064C58.3632 54.677 58.3327 54.6465 58.3033 54.6148C58.2716 54.5854 58.2411 54.5549 58.2117 54.5232C58.18 54.4949 58.1495 54.4632 58.1201 54.4316C58.0884 54.4022 58.0578 54.3716 58.0284 54.34C57.9968 54.3106 57.9663 54.28 57.9368 54.2484C57.9052 54.219 57.8746 54.1884 57.8452 54.1568C57.817 54.1308 57.7898 54.1036 57.7627 54.0753V55.4641C57.7627 56.2614 57.1158 56.9083 56.3185 56.9083H33.9667C33.5878 56.9083 33.2248 56.7602 32.9545 56.4944L31.4345 55.0004C31.4345 55.0004 31.4244 54.9891 31.4198 54.9835L31.3441 54.9088C31.3441 54.9088 31.3339 54.8975 31.3294 54.893L31.2536 54.8184C31.2536 54.8184 31.2434 54.8071 31.2378 54.8014L31.162 54.7268C31.162 54.7268 31.1529 54.7166 31.1473 54.7109L31.0704 54.6352C31.0704 54.6352 31.0602 54.6238 31.0546 54.6182L30.9788 54.5435C30.9788 54.5435 30.9686 54.5322 30.9641 54.5277L30.8883 54.4531C30.8883 54.4531 30.8793 54.4429 30.8747 54.4384L30.7967 54.3615C30.791 54.3558 30.7865 54.349 30.7809 54.3434L30.7062 54.2699C30.7062 54.2699 30.696 54.2586 30.6915 54.254L30.6157 54.1794C30.6157 54.1794 30.6056 54.1681 30.5999 54.1624L30.5241 54.0878C30.5241 54.0878 30.514 54.0765 30.5094 54.0719L30.4337 53.9973C30.4337 53.9973 30.4235 53.986 30.419 53.9815L30.3421 53.9057C30.3421 53.9057 30.3319 53.8944 30.3274 53.8887L30.2516 53.8141C30.2516 53.8141 30.2414 53.8028 30.2369 53.7983L30.1611 53.7236C30.1611 53.7236 30.1521 53.7134 30.1475 53.7089L30.0695 53.632C30.0638 53.6264 30.0593 53.6207 30.0537 53.6139L29.979 53.5404C29.979 53.5404 29.9689 53.5291 29.9632 53.5234L29.8874 53.4488C29.8874 53.4488 29.8772 53.4375 29.8727 53.433L29.797 53.3583C29.797 53.3583 29.7868 53.347 29.7822 53.3414L29.7065 53.2667C29.7065 53.2667 29.6974 53.2554 29.6918 53.2509L29.6149 53.1751C29.6149 53.1751 29.6047 53.1638 29.6002 53.1593L29.5244 53.0846C29.5244 53.0846 29.5142 53.0733 29.5086 53.0677L29.4328 52.993C29.4328 52.993 29.4237 52.9829 29.4192 52.9783L29.3412 52.9014C29.3355 52.8958 29.331 52.889 29.3242 52.8833L29.2496 52.8098C29.2496 52.8098 29.2394 52.7985 29.2349 52.7929L29.1591 52.7182C29.1591 52.7182 29.1489 52.7069 29.1444 52.7013L29.0686 52.6266C29.0686 52.6266 29.0585 52.6153 29.0528 52.6097L28.977 52.535C28.977 52.535 28.968 52.5248 28.9623 52.5192L28.8854 52.4434C28.8854 52.4434 28.8752 52.4321 28.8696 52.4264L28.7938 52.3518C28.7938 52.3518 28.7836 52.3405 28.7791 52.336L28.7033 52.2613C28.7033 52.2613 28.6943 52.2511 28.6898 52.2466L28.6117 52.1697C28.6061 52.1641 28.6016 52.1573 28.5959 52.1516L28.5213 52.0781C28.5213 52.0781 28.5111 52.0668 28.5066 52.0623L28.4308 51.9876C28.4308 51.9876 28.4206 51.9763 28.415 51.9707L28.3392 51.896C28.3392 51.896 28.329 51.8847 28.3245 51.8802L28.2487 51.8056C28.2487 51.8056 28.2397 51.7943 28.234 51.7897L28.1571 51.714C28.1571 51.714 28.1469 51.7026 28.1424 51.697L28.0666 51.6223C28.0666 51.6223 28.0564 51.611 28.0508 51.6054L27.975 51.5307C27.975 51.5307 27.966 51.5206 27.9614 51.516L27.8834 51.4391C27.8778 51.4335 27.8732 51.4278 27.8676 51.421L27.7929 51.3475C27.7929 51.3475 27.7828 51.3362 27.7771 51.3306L27.7013 51.2559C27.7013 51.2559 27.6912 51.2446 27.6866 51.2401L27.6109 51.1654C27.6109 51.1654 27.6007 51.1541 27.595 51.1485L27.5192 51.0738C27.5192 51.0738 27.5102 51.0625 27.5045 51.058L27.4276 50.9822C27.4276 50.9822 27.4175 50.9709 27.4129 50.9664L27.3372 50.8918C27.3372 50.8918 27.327 50.8805 27.3213 50.8748L27.2456 50.8002C27.2456 50.8002 27.2365 50.79 27.232 50.7855L27.154 50.7086C27.1483 50.7029 27.1438 50.6961 27.137 50.6905L27.0624 50.6169C27.0624 50.6169 27.0522 50.6056 27.0477 50.6L26.9719 50.5253C26.9719 50.5253 26.9617 50.514 26.9572 50.5095L26.8814 50.4349C26.8814 50.4349 26.8712 50.4236 26.8656 50.4179L26.7898 50.3433C26.7898 50.3433 26.7808 50.3331 26.7751 50.3274L26.6982 50.2517C26.6982 50.2517 26.688 50.2403 26.6824 50.2347L26.6066 50.1601C26.3306 49.8886 26.1746 49.5177 26.1746 49.1298V33.1451C26.1746 33.1271 26.1768 33.109 26.178 33.0897H24.1977C23.9919 33.0897 23.7928 33.014 23.639 32.8771L22.663 32.0074C22.6528 31.9984 22.6449 31.9871 22.6359 31.9769L22.6099 31.9543C22.5997 31.9452 22.5918 31.9339 22.5827 31.9237L22.5567 31.9011C22.5465 31.8921 22.5386 31.8808 22.5296 31.8706L22.5036 31.848C22.4934 31.8389 22.4855 31.8276 22.4764 31.8174L22.4504 31.7948C22.4402 31.7858 22.4323 31.7745 22.4233 31.7643L22.3973 31.7417C22.3871 31.7326 22.3792 31.7213 22.3701 31.7111L22.3441 31.6885C22.3339 31.6795 22.326 31.6682 22.317 31.658L22.2909 31.6354C22.2808 31.6263 22.2729 31.615 22.2638 31.6048L22.2378 31.5822C22.2276 31.5732 22.2197 31.5618 22.2106 31.5517L22.1846 31.529C22.1745 31.52 22.1665 31.5087 22.1575 31.4985L22.1315 31.4759C22.1213 31.4668 22.1134 31.4555 22.1043 31.4454L22.0783 31.4227C22.0682 31.4137 22.0602 31.4024 22.0512 31.3922L22.0252 31.3696C22.015 31.3605 22.0071 31.3492 21.998 31.339L21.972 31.3164C21.9618 31.3074 21.9539 31.2961 21.9449 31.2859L21.9189 31.2633C21.9087 31.2542 21.9008 31.2429 21.8917 31.2327L21.8657 31.2101C21.8555 31.2011 21.8476 31.1898 21.8386 31.1796L21.8126 31.157C21.8024 31.1479 21.7945 31.1366 21.7854 31.1264L21.7594 31.1038C21.7492 31.0948 21.7413 31.0835 21.7323 31.0733L21.7063 31.0507C21.6961 31.0416 21.6882 31.0303 21.6791 31.0201L21.6531 30.9975C21.6429 30.9885 21.635 30.9771 21.626 30.967L21.5999 30.9444C21.5898 30.9353 21.5819 30.924 21.5728 30.9138L21.5468 30.8912C21.5366 30.8822 21.5287 30.8708 21.5196 30.8607L21.4936 30.838C21.4835 30.829 21.4755 30.8177 21.4665 30.8075L21.4405 30.7849C21.4303 30.7758 21.4224 30.7645 21.4133 30.7544L21.3873 30.7317C21.3772 30.7227 21.3692 30.7114 21.3602 30.7012L21.3342 30.6786C21.324 30.6695 21.3161 30.6582 21.307 30.648L21.281 30.6254C21.2708 30.6164 21.2629 30.6051 21.2539 30.5949L21.2279 30.5723C21.2177 30.5632 21.2098 30.5519 21.2007 30.5417L21.1747 30.5191C21.1645 30.5101 21.1566 30.4988 21.1476 30.4886L21.1216 30.466C21.1114 30.4569 21.1035 30.4456 21.0944 30.4354L21.0684 30.4128C21.0582 30.4038 21.0503 30.3925 21.0413 30.3823L21.0152 30.3597C21.0051 30.3506 20.9972 30.3393 20.9881 30.3291L20.9621 30.3065C20.9519 30.2975 20.944 30.2861 20.935 30.276L20.9089 30.2534C20.8988 30.2443 20.8908 30.233 20.8818 30.2228L20.8558 30.2002C20.8456 30.1912 20.8377 30.1798 20.8286 30.1697L20.8026 30.147C20.7925 30.138 20.7845 30.1267 20.7755 30.1165L20.7495 30.0939C20.7393 30.0848 20.7314 30.0735 20.7223 30.0634L20.6963 30.0407C20.6862 30.0317 20.6782 30.0204 20.6692 30.0102L20.6432 29.9876C20.633 29.9785 20.6251 29.9672 20.616 29.957L20.59 29.9344C20.5798 29.9254 20.5719 29.9141 20.5629 29.9039L20.5369 29.8813C20.5267 29.8722 20.5188 29.8609 20.5097 29.8507L20.4837 29.8281C20.4735 29.8191 20.4656 29.8078 20.4566 29.7976L20.4306 29.775C20.4204 29.7659 20.4125 29.7546 20.4034 29.7444L20.3774 29.7218C20.3672 29.7128 20.3593 29.7015 20.3503 29.6913L20.3242 29.6687C20.3163 29.6619 20.3107 29.654 20.3039 29.646C20.3016 29.6438 20.2994 29.6404 20.2971 29.6381L20.2711 29.6155C20.2711 29.6155 20.2632 29.6076 20.2598 29.6031C20.2541 29.5974 20.2496 29.5906 20.244 29.585L20.2179 29.5624C20.2078 29.5533 20.1998 29.542 20.1908 29.5318L20.1648 29.5092C20.1546 29.5002 20.1467 29.4888 20.1376 29.4787L20.1331 29.4741L20.1116 29.4549C20.1015 29.4459 20.0935 29.4346 20.0845 29.4244L20.0585 29.4018C20.0483 29.3927 20.0404 29.3814 20.0313 29.3712L20.0053 29.3486C19.9951 29.3396 19.9872 29.3282 19.9782 29.3181L19.9646 29.3056L19.9533 29.2955C19.9533 29.2955 19.9431 29.2853 19.9386 29.2796C19.9341 29.2751 19.9307 29.2694 19.9262 29.2649L19.9001 29.2423C19.9001 29.2423 19.89 29.2321 19.8854 29.2265C19.8809 29.2219 19.8775 29.2163 19.873 29.2129L19.847 29.1903C19.8018 29.1507 19.7622 29.1066 19.7271 29.0591C19.6231 28.9166 19.5654 28.7424 19.5654 28.5626V17.9782C19.5654 17.6875 19.7124 17.432 19.9363 17.2815C20.0257 17.2216 20.1275 17.1775 20.2372 17.1549C20.2915 17.1436 20.348 17.1379 20.4068 17.1379H29.1308C29.1908 17.1379 29.2496 17.1447 29.3061 17.1571C29.3152 17.1594 29.3231 17.1628 29.3321 17.1651C29.3808 17.1775 29.4271 17.1922 29.4712 17.2114C29.4746 17.2126 29.478 17.2159 29.4814 17.2171C29.5832 17.2646 29.6725 17.3313 29.7472 17.4127C29.7653 17.4297 29.7834 17.4467 29.8003 17.4659C29.8184 17.4828 29.8365 17.5009 29.8535 17.519C29.8716 17.536 29.8897 17.553 29.9067 17.5722C29.9248 17.5892 29.9428 17.6061 29.9598 17.6253C29.9779 17.6423 29.996 17.6604 30.013 17.6785C30.0311 17.6955 30.0492 17.7124 30.0661 17.7317C30.0842 17.7486 30.1023 17.7656 30.1193 17.7848L30.4291 17.4274C30.5886 17.2431 30.8204 17.1379 31.0636 17.1379H39.1656C39.3997 17.1379 39.6248 17.2363 39.7831 17.4082L39.8148 17.4421C39.8216 17.4489 39.8295 17.4546 39.8362 17.4614L39.8679 17.4953C39.8747 17.5021 39.8826 17.5077 39.8894 17.5145L39.9199 17.5484C39.9267 17.5552 39.9358 17.5609 39.9426 17.5677L39.9742 17.6016C39.981 17.6084 39.9889 17.614 39.9957 17.6208L40.0274 17.6547C40.0342 17.6615 40.0432 17.6672 40.0489 17.674L40.0805 17.7079C40.0873 17.7147 40.0964 17.7203 40.102 17.7271L40.1337 17.7611C40.1405 17.7678 40.1495 17.7735 40.1552 17.7803L40.1868 17.8142C40.1936 17.821 40.2015 17.8267 40.2083 17.8334L40.2129 17.8391C40.2796 17.4421 40.6234 17.1379 41.0396 17.1379H44.4708C44.7083 17.1379 44.9311 17.2397 45.0883 17.4105L46.7135 20.1405L48.2312 17.553C48.3827 17.2962 48.6575 17.139 48.9561 17.139H52.3874C52.5468 17.139 52.6927 17.1877 52.8182 17.2646C52.946 17.1865 53.0953 17.139 53.2559 17.139H61.9652M61.9652 17.0259H53.2559C53.1055 17.0259 52.9551 17.0633 52.8182 17.1357C52.6814 17.0633 52.5366 17.0259 52.3862 17.0259H48.955C48.6191 17.0259 48.3035 17.2058 48.1328 17.4964L46.7123 19.9189L45.1856 17.3539L45.1799 17.3437L45.172 17.3347C44.9911 17.1379 44.7355 17.0259 44.4719 17.0259H41.0407C40.6437 17.0259 40.2988 17.268 40.1574 17.6253L40.1326 17.5993C40.1258 17.5914 40.1167 17.5846 40.1088 17.5778L40.0794 17.5462C40.0715 17.5383 40.0636 17.5303 40.0557 17.5236L40.0263 17.493C40.0183 17.4851 40.0104 17.4783 40.0025 17.4715L39.9731 17.4399C39.9652 17.432 39.9573 17.4252 39.9493 17.4184L39.9199 17.3867C39.912 17.3788 39.9041 17.372 39.8962 17.3652L39.8668 17.3336C39.687 17.139 39.4314 17.0271 39.1656 17.0271H31.0636C30.7865 17.0271 30.5241 17.147 30.3432 17.3562L30.1136 17.6208C30.1068 17.614 30.1 17.6073 30.0933 17.6016C30.0763 17.5835 30.0582 17.5654 30.0401 17.5484C30.0333 17.5417 30.0265 17.5337 30.0197 17.527V17.5009L29.9734 17.4806C29.9609 17.467 29.9474 17.4546 29.9338 17.441C29.9168 17.4218 29.8987 17.4048 29.8806 17.3878C29.8637 17.3698 29.8456 17.3517 29.8275 17.3347C29.7415 17.242 29.642 17.1696 29.5301 17.1176C29.5301 17.1176 29.5244 17.1142 29.5187 17.1119C29.4701 17.0904 29.4181 17.0723 29.3593 17.0576C29.348 17.0531 29.3389 17.0508 29.3299 17.0486C29.262 17.0339 29.1953 17.0271 29.1297 17.0271H20.4057C20.3412 17.0271 20.2768 17.0339 20.2134 17.0463C20.0913 17.0712 19.9759 17.1198 19.8719 17.1899C19.6084 17.3675 19.4512 17.6638 19.4512 17.9805V28.5649C19.4512 28.7684 19.5145 28.963 19.6344 29.1281C19.674 29.1824 19.7192 29.2321 19.7701 29.2774L19.7916 29.2966C19.7916 29.2966 19.7972 29.3034 19.8006 29.3056C19.8085 29.3158 19.8165 29.3237 19.8244 29.3305L19.8459 29.3497C19.8459 29.3497 19.8504 29.3554 19.8538 29.3588C19.8617 29.369 19.8685 29.3757 19.8775 29.3837L19.89 29.3938L19.9001 29.4029L19.9047 29.4074C19.9126 29.4176 19.9216 29.4266 19.9318 29.4357L19.9533 29.4549L19.9578 29.4594C19.9657 29.4696 19.9748 29.4798 19.985 29.4877L20.0076 29.5069L20.0121 29.5115C20.02 29.5216 20.0291 29.5318 20.0393 29.5397L20.0607 29.559L20.0653 29.5624V29.5646C20.0743 29.5748 20.0834 29.5838 20.0935 29.5929L20.1162 29.6121L20.1207 29.6166C20.1286 29.6268 20.1376 29.637 20.1478 29.6449L20.1704 29.6641C20.1704 29.6641 20.1784 29.6732 20.1818 29.6766C20.1885 29.6845 20.1942 29.6901 20.201 29.6969L20.2225 29.7162C20.2225 29.7162 20.2236 29.7184 20.2247 29.7196L20.227 29.7229C20.2349 29.7331 20.244 29.7422 20.2541 29.7512L20.2768 29.7716L20.2813 29.7761C20.2892 29.7863 20.2982 29.7953 20.3084 29.8044L20.331 29.8236L20.3356 29.8281C20.3435 29.8383 20.3525 29.8485 20.3627 29.8575L20.3842 29.8768L20.3887 29.8813C20.3966 29.8915 20.4057 29.9016 20.4159 29.9095L20.4373 29.9288L20.4419 29.9333C20.4498 29.9435 20.4588 29.9525 20.469 29.9616L20.4916 29.9819L20.495 29.9865C20.5029 29.9966 20.512 30.0068 20.5222 30.0147L20.5448 30.034L20.5493 30.0385C20.5572 30.0487 20.5663 30.0588 20.5765 30.0667L20.5979 30.086L20.6025 30.0905C20.6104 30.1007 20.6194 30.1109 20.6296 30.1188L20.6511 30.138L20.6556 30.1425C20.6635 30.1527 20.6726 30.1629 20.6828 30.1719L20.7088 30.1945V30.1968C20.7178 30.207 20.7269 30.216 20.7359 30.2251L20.7585 30.2454L20.7631 30.25C20.771 30.2601 20.78 30.2703 20.7902 30.2782L20.8128 30.2986L20.8173 30.3031C20.8253 30.3133 20.8343 30.3223 20.8445 30.3314L20.866 30.3506L20.8705 30.3551C20.8784 30.3653 20.8875 30.3755 20.8976 30.3834L20.9203 30.4026L20.9248 30.4072C20.9327 30.4173 20.9417 30.4264 20.9519 30.4354L20.9779 30.4581V30.4603C20.987 30.4705 20.996 30.4795 21.0051 30.4886L21.0277 30.5089L21.0322 30.5135C21.0401 30.5236 21.0492 30.5327 21.0594 30.5417L21.082 30.5621L21.0865 30.5666C21.0944 30.5768 21.1035 30.587 21.1136 30.5949L21.1351 30.6141L21.1397 30.6186C21.1476 30.6288 21.1566 30.639 21.1668 30.6469L21.1928 30.6695V30.6718C21.2019 30.682 21.2109 30.6922 21.2199 30.7001L21.2414 30.7193L21.246 30.7238C21.2539 30.734 21.2629 30.7442 21.2731 30.7521L21.2991 30.7747V30.777C21.3082 30.7872 21.3172 30.7962 21.3263 30.8052L21.3489 30.8245L21.3534 30.829C21.3613 30.8392 21.3704 30.8494 21.3805 30.8573L21.4032 30.8765L21.4066 30.881C21.4145 30.8912 21.4235 30.9014 21.4337 30.9104L21.4552 30.9297L21.4597 30.9342C21.4676 30.9444 21.4767 30.9534 21.4869 30.9624L21.5095 30.9817L21.514 30.9862C21.5219 30.9964 21.531 31.0054 21.5411 31.0145L21.5626 31.0337L21.5671 31.0382C21.5751 31.0484 21.5841 31.0586 21.5943 31.0665L21.6203 31.0891V31.0914C21.6293 31.1016 21.6384 31.1106 21.6474 31.1196L21.6689 31.1389L21.6735 31.1434C21.6814 31.1536 21.6904 31.1638 21.7006 31.1717L21.7221 31.1909L21.7266 31.1954C21.7345 31.2056 21.7436 31.2158 21.7538 31.2237L21.7798 31.2463V31.2486C21.7888 31.2588 21.7979 31.2678 21.8069 31.2768L21.8295 31.2961L21.8341 31.3006C21.842 31.3108 21.851 31.3198 21.8612 31.3289L21.8838 31.3492L21.8883 31.3538C21.8962 31.3639 21.9053 31.3741 21.9155 31.382L21.937 31.4012L21.9415 31.4058C21.9494 31.416 21.9585 31.4261 21.9686 31.434L21.9912 31.4533L21.9946 31.4578C22.0026 31.468 22.0116 31.4782 22.0218 31.4872L22.0444 31.5064L22.0489 31.511C22.0568 31.5211 22.0659 31.5313 22.0761 31.5392L22.0976 31.5584L22.1021 31.563C22.11 31.5732 22.119 31.5833 22.1292 31.5912L22.1507 31.6105L22.1552 31.615C22.1631 31.6252 22.1722 31.6354 22.1824 31.6433L22.2084 31.6659V31.6682C22.2174 31.6783 22.2265 31.6874 22.2355 31.6964L22.2582 31.7156L22.2627 31.7202C22.2706 31.7304 22.2796 31.7405 22.2898 31.7484L22.3113 31.7677L22.3158 31.7722C22.3237 31.7824 22.3328 31.7926 22.343 31.8005L22.3645 31.8197L22.369 31.8242C22.3769 31.8344 22.3859 31.8446 22.3961 31.8525L22.4176 31.8717L22.4221 31.8762C22.43 31.8864 22.4391 31.8966 22.4493 31.9056L22.4708 31.9249L22.4753 31.9294C22.4832 31.9396 22.4923 31.9486 22.5024 31.9577L22.5273 31.9803V31.9825C22.5364 31.9927 22.5454 32.0029 22.5556 32.0108L22.5771 32.03L22.5805 32.0346C22.5884 32.0448 22.5974 32.0549 22.6076 32.0628L23.5836 32.9325C23.7589 33.0886 23.984 33.1746 24.2181 33.1746H26.0818V49.1004C26.0818 49.5154 26.2515 49.9203 26.5478 50.2109L26.6236 50.2856C26.6292 50.2924 26.6337 50.2969 26.6383 50.3025L26.7152 50.3783C26.7208 50.3851 26.7253 50.3896 26.7299 50.3941L26.8056 50.4688C26.8113 50.4756 26.8158 50.4801 26.8203 50.4858L26.8972 50.5604C26.9029 50.5672 26.9074 50.5717 26.9119 50.5762L26.9877 50.6509C26.9934 50.6577 26.9979 50.6622 27.0035 50.6678L27.0782 50.7413C27.085 50.7493 27.0895 50.7538 27.0951 50.7594L27.1732 50.8363C27.1777 50.842 27.1822 50.8465 27.1868 50.8511L27.2625 50.9257C27.2682 50.9325 27.2727 50.9381 27.2784 50.9427L27.3541 51.0173C27.3598 51.0241 27.3643 51.0286 27.3688 51.0343L27.4457 51.11C27.4514 51.1168 27.4559 51.1213 27.4604 51.1259L27.5362 51.2005C27.5419 51.2073 27.5464 51.2129 27.5509 51.2175L27.6267 51.2921C27.6323 51.2989 27.6369 51.3034 27.6414 51.3079L27.7183 51.3837C27.724 51.3905 27.7285 51.3962 27.7341 51.4007L27.8088 51.4742C27.8156 51.4821 27.8201 51.4866 27.8246 51.4912L27.9026 51.5681C27.9072 51.5737 27.9117 51.5782 27.9162 51.5828L27.992 51.6574C27.9976 51.6642 28.0022 51.6687 28.0067 51.6744L28.0825 51.749C28.0881 51.7558 28.0926 51.7603 28.0972 51.7648L28.1741 51.8406C28.1797 51.8474 28.1842 51.8519 28.1888 51.8565L28.2657 51.9322C28.2713 51.939 28.2758 51.9435 28.2804 51.9492L28.3561 52.0238C28.3618 52.0306 28.3663 52.0351 28.3708 52.0408L28.4477 52.1154C28.4534 52.1222 28.4579 52.1267 28.4625 52.1324L28.5371 52.2059C28.5439 52.2138 28.5484 52.2195 28.5541 52.224L28.631 52.2998C28.6355 52.3054 28.64 52.31 28.6445 52.3145L28.7214 52.3891C28.7271 52.3959 28.7316 52.4004 28.7361 52.4061L28.8119 52.4807C28.8176 52.4875 28.8221 52.4932 28.8266 52.4977L28.9035 52.5735C28.9092 52.5802 28.9137 52.5848 28.9182 52.5893L28.994 52.6639C28.9996 52.6707 29.0042 52.6764 29.0087 52.6809L29.0845 52.7555C29.0901 52.7623 29.0946 52.7668 29.0992 52.7714L29.1761 52.846C29.1817 52.8528 29.1863 52.8585 29.1919 52.863L29.2665 52.9365C29.2733 52.9444 29.2779 52.9489 29.2835 52.9546L29.3615 53.0315C29.3615 53.0315 29.3706 53.0417 29.374 53.0451L29.4509 53.1197C29.4565 53.1265 29.4611 53.131 29.4656 53.1367L29.5425 53.2113C29.5481 53.2181 29.5527 53.2226 29.5572 53.2283L29.6341 53.304C29.6398 53.3108 29.6443 53.3154 29.6488 53.3199L29.7246 53.3945C29.7302 53.4013 29.7348 53.407 29.7404 53.4115L29.8162 53.4861C29.8218 53.4929 29.8264 53.4974 29.8309 53.5031L29.9067 53.5777C29.9123 53.5845 29.9168 53.5902 29.9214 53.5947L29.9971 53.6682C30.0039 53.6761 30.0084 53.6806 30.0141 53.6863L30.091 53.7621C30.0955 53.7677 30.1 53.7723 30.1046 53.7768L30.1803 53.8514C30.186 53.8582 30.1905 53.8627 30.195 53.8684L30.2708 53.943C30.2765 53.9498 30.281 53.9555 30.2866 53.96L30.3636 54.0346C30.3692 54.0414 30.3737 54.0459 30.3783 54.0505L30.454 54.1251C30.4597 54.1319 30.4642 54.1364 30.4687 54.1409L30.5445 54.2156C30.5502 54.2224 30.5547 54.228 30.5603 54.2325L30.6361 54.3072C30.6418 54.314 30.6463 54.3185 30.6508 54.323L30.7266 54.3965C30.7334 54.4044 30.7379 54.409 30.7424 54.4146L30.8204 54.4915C30.8204 54.4915 30.8295 54.5017 30.834 54.5062L30.9098 54.5809C30.9154 54.5877 30.92 54.5922 30.9245 54.5978L31.0003 54.6725C31.0059 54.6793 31.0116 54.6849 31.0161 54.6894L31.093 54.7652C31.0987 54.772 31.1032 54.7765 31.1077 54.781L31.1835 54.8557C31.1891 54.8625 31.1937 54.867 31.1982 54.8727L31.2751 54.9473C31.2807 54.9541 31.2853 54.9586 31.2898 54.9643L31.3656 55.0389C31.3712 55.0457 31.3757 55.0502 31.3803 55.0547L32.9002 56.5487C33.1931 56.8371 33.5811 56.9954 33.9916 56.9954H56.3434C57.2017 56.9954 57.9007 56.2965 57.9007 55.4381V54.323C57.9255 54.349 57.9493 54.3728 57.973 54.3943C58.0047 54.4282 58.0352 54.4587 58.0646 54.4859C58.0963 54.5198 58.1257 54.5503 58.1562 54.5775C58.1879 54.6114 58.2185 54.6419 58.2479 54.6691C58.2795 54.703 58.3101 54.7335 58.3395 54.7607C58.3711 54.7946 58.4005 54.8252 58.4299 54.8512C58.4616 54.8851 58.491 54.9145 58.5215 54.9428C58.5532 54.9767 58.5826 55.0072 58.6131 55.0344C58.6448 55.0683 58.6742 55.0988 58.7048 55.126C58.7364 55.1599 58.767 55.1904 58.7964 55.2176C58.828 55.2515 58.8574 55.282 58.8868 55.3081C58.9185 55.342 58.9479 55.3725 58.9784 55.3997C59.0101 55.4336 59.0406 55.4641 59.07 55.4913C59.1017 55.5252 59.1311 55.5557 59.1616 55.5829C59.1933 55.6168 59.2227 55.6473 59.2533 55.6745C59.2849 55.7084 59.3155 55.7389 59.3449 55.7661C59.3765 55.8 59.4071 55.8306 59.4365 55.8577C59.4681 55.8916 59.4975 55.9222 59.5281 55.9493C59.5597 55.9832 59.5891 56.0126 59.6197 56.0409C59.6513 56.0748 59.6819 56.1054 59.7113 56.1325C59.7429 56.1664 59.7735 56.197 59.8029 56.2241C59.8346 56.258 59.864 56.2886 59.8945 56.3157C59.9262 56.3497 59.9556 56.3791 59.9861 56.4073C60.0178 56.4413 60.0483 56.4718 60.0777 56.4989C60.3729 56.8167 60.7879 56.9999 61.2177 56.9999H67.405C68.2634 56.9999 68.9623 56.301 68.9623 55.4426V53.6083C68.9623 53.5562 68.9601 53.5031 68.9544 53.4511C68.9601 53.399 68.9623 53.3459 68.9623 53.2939V35.7633C68.9623 35.3301 68.7791 34.9139 68.4579 34.6188C68.4285 34.5871 68.398 34.5566 68.3663 34.5272C68.3369 34.4955 68.3064 34.465 68.2747 34.4355C68.2453 34.4039 68.2148 34.3733 68.1842 34.3451C68.1548 34.3134 68.1243 34.2829 68.0926 34.2535C68.0632 34.2218 68.0327 34.1913 68.001 34.1619C67.9716 34.1302 67.9411 34.0997 67.9094 34.0703C67.88 34.0386 67.8495 34.0081 67.8178 33.9786C67.7884 33.947 67.7579 33.9164 67.7273 33.8882C67.6979 33.8565 67.6674 33.826 67.6357 33.7966C67.6063 33.7649 67.5758 33.7344 67.5441 33.705C67.5147 33.6733 67.4842 33.6428 67.4525 33.6145C67.4231 33.5828 67.3926 33.5523 67.3609 33.5229C67.3315 33.4912 67.301 33.4607 67.2693 33.4313C67.2399 33.3996 67.2094 33.3691 67.1777 33.3397C67.1483 33.308 67.1178 33.2775 67.0861 33.2481C67.0567 33.2164 67.0262 33.1859 66.9956 33.1576C66.9662 33.1259 66.9357 33.0954 66.904 33.066C66.8746 33.0343 66.8441 33.0038 66.8124 32.9744C66.783 32.9427 66.7525 32.9122 66.722 32.8839C66.6925 32.8522 66.662 32.8217 66.6303 32.7923C66.6009 32.7606 66.5704 32.7301 66.5387 32.7007C66.5093 32.669 66.4788 32.6385 66.4471 32.6091C66.4177 32.5774 66.3872 32.5469 66.3555 32.5175C66.3261 32.4858 66.2956 32.4553 66.2639 32.427C66.2345 32.3953 66.204 32.3648 66.1723 32.3354C66.1429 32.3037 66.1124 32.2732 66.0807 32.2438C66.0513 32.2121 66.0208 32.1816 65.9902 32.1533C65.9608 32.1217 65.9303 32.0911 65.8986 32.0617C65.8692 32.03 65.8387 31.9995 65.807 31.9701C65.7889 31.9498 65.7697 31.9305 65.7505 31.9113V31.1604C65.7505 31.1298 65.7493 31.0993 65.746 31.0688C65.7493 31.0382 65.7505 31.0077 65.7505 30.9771V29.162C65.7505 28.8951 65.6408 28.6474 65.4417 28.4631C65.4248 28.445 65.4067 28.4269 65.3886 28.4099C65.3716 28.3907 65.3535 28.3737 65.3354 28.3568C65.3185 28.3387 65.3004 28.3206 65.2823 28.3036C65.2653 28.2855 65.2483 28.2674 65.2291 28.2505C65.2121 28.2324 65.1952 28.2143 65.176 28.1973C65.159 28.1792 65.1409 28.1611 65.1228 28.1442C65.1058 28.1261 65.0877 28.108 65.0696 28.091C65.0527 28.0729 65.0346 28.0548 65.0165 28.0379C64.9995 28.0198 64.9814 28.0017 64.9633 27.9847C64.9464 27.9666 64.9294 27.9485 64.9102 27.9315C64.8932 27.9135 64.8751 27.8954 64.857 27.8784C64.8401 27.8603 64.822 27.8422 64.8039 27.8252C64.7869 27.806 64.7688 27.789 64.7507 27.7721C64.7338 27.754 64.7157 27.7359 64.6976 27.7189C64.6806 27.7008 64.6636 27.6827 64.6444 27.6658C64.6274 27.6477 64.6094 27.6296 64.5913 27.6126C64.5856 27.607 64.5811 27.6013 64.5754 27.5957V24.9662C64.5754 24.9018 64.5686 24.8384 64.5562 24.7762H64.796C65.3218 24.7762 65.7493 24.3487 65.7493 23.8229V20.7727C65.7493 20.5058 65.6396 20.2582 65.4406 20.0738C65.4236 20.0557 65.4055 20.0376 65.3874 20.0207C65.3705 20.0014 65.3524 19.9845 65.3343 19.9675C65.3173 19.9494 65.2992 19.9313 65.2811 19.9144C65.2642 19.8963 65.2472 19.8782 65.228 19.8612C65.211 19.8431 65.194 19.825 65.1748 19.808C65.1579 19.79 65.1398 19.7719 65.1217 19.7549C65.1047 19.7368 65.0866 19.7187 65.0685 19.7017C65.0515 19.6836 65.0335 19.6655 65.0154 19.6486C64.9984 19.6305 64.9803 19.6124 64.9622 19.5954C64.9452 19.5773 64.9283 19.5592 64.9091 19.5423C64.8921 19.5242 64.874 19.5061 64.8559 19.4891C64.8389 19.471 64.8208 19.4529 64.8027 19.436C64.7858 19.4167 64.7677 19.3998 64.7496 19.3828C64.7326 19.3647 64.7145 19.3466 64.6964 19.3297C64.6795 19.3116 64.6625 19.2935 64.6433 19.2765C64.6263 19.2584 64.6082 19.2403 64.5901 19.2234C64.5732 19.2053 64.5551 19.1872 64.537 19.1702C64.52 19.1521 64.5019 19.134 64.4838 19.117C64.4669 19.099 64.4499 19.0809 64.4307 19.0639C64.4137 19.0458 64.3956 19.0277 64.3775 19.0107C64.3605 18.9926 64.3425 18.9745 64.3244 18.9576C64.3074 18.9395 64.2893 18.9214 64.2712 18.9044C64.2542 18.8863 64.2373 18.8682 64.2181 18.8513C64.2011 18.8321 64.183 18.8151 64.1638 18.797C64.1547 18.7879 64.1457 18.78 64.1366 18.7721C64.1344 18.7699 64.1321 18.7687 64.1298 18.7665C64.1038 18.7359 64.0812 18.7122 64.0575 18.6907C64.0405 18.6726 64.0224 18.6545 64.0043 18.6375C63.9873 18.6194 63.9693 18.6013 63.9512 18.5844C63.9342 18.5663 63.9161 18.5482 63.898 18.5312C63.881 18.5131 63.8641 18.495 63.8448 18.4781C63.8279 18.46 63.8098 18.4419 63.7917 18.4249C63.7747 18.4057 63.7566 18.3887 63.7385 18.3718C63.7216 18.3525 63.7035 18.3356 63.6854 18.3186C63.6684 18.3005 63.6503 18.2824 63.6322 18.2655C63.6153 18.2474 63.5972 18.2293 63.5791 18.2123C63.5621 18.1942 63.544 18.1761 63.5259 18.1591C63.509 18.1411 63.4909 18.123 63.4728 18.106C63.4558 18.0879 63.4377 18.0698 63.4196 18.0528C63.4026 18.0347 63.3846 18.0166 63.3665 17.9997C63.3495 17.9816 63.3314 17.9635 63.3133 17.9465C63.2963 17.9284 63.2782 17.9103 63.2601 17.8934C63.2432 17.8753 63.2262 17.8572 63.207 17.8402C63.19 17.8221 63.1719 17.804 63.1538 17.7871C63.1369 17.769 63.1199 17.7509 63.1007 17.7339C63.0837 17.7158 63.0656 17.6977 63.0475 17.6808C63.0306 17.6615 63.0125 17.6446 62.9944 17.6276C62.9774 17.6095 62.9605 17.5914 62.9412 17.5745C62.9243 17.5564 62.9062 17.5383 62.8881 17.5213C62.8711 17.5032 62.853 17.4851 62.8349 17.4681C62.818 17.4501 62.7999 17.432 62.7818 17.415C62.7648 17.3969 62.7467 17.3788 62.7286 17.3618C62.7117 17.3437 62.6936 17.3256 62.6755 17.3087C62.4923 17.1096 62.2434 16.9999 61.9765 16.9999L61.9652 17.0259Z" fill="#48DFFA"/>
<path d="M20.3932 19.2607H25.4722V18.9101H20.3932V17.9793H29.1172V21.0294H23.8245V26.3674H26.0965V25.2241H24.693V22.1886H26.8972C27.6346 22.1886 28.3742 22.1943 29.1161 22.2033V28.1826H24.9068L24.8514 28.3658H29.1161V29.4334H21.3681L20.3921 28.5637V19.2595L20.3932 19.2607Z" fill="#377FED"/>
<path d="M35.0344 19.2607V18.9101H30.2449L31.0523 17.9793H39.1544L40.0829 18.9858V28.1826H37.7543L37.7102 28.3658H40.084V29.4334H36.6527V25.2241H33.5868V29.4334H30.1555V19.2607H35.0366H35.0344ZM36.6516 22.1739V21.0306H33.5856V22.1739H36.6516Z" fill="#377FED"/>
<path d="M41.0282 19.2607H43.4055V18.9101H41.0282V17.9793H44.4595L46.7089 21.777L48.9436 17.9793H52.3749V28.1826H50.0565L50.0011 28.3658H52.3749V29.4334H48.9436L48.9538 24.6439L47.5368 27.0845H45.9365L44.4583 24.6439V29.4334H41.0271V19.2607H41.0282Z" fill="#377FED"/>
<path d="M61.954 17.9793V21.0294H56.677V22.1728H60.78V25.2229H56.677V26.3663H61.954V28.1814H56.8602L56.8048 28.3646H61.954V29.4322H53.2446V19.2595H58.1099V18.9089H53.2446V17.9781H61.954V17.9793Z" fill="#377FED"/>
<path d="M42.5177 30.9453L44.0636 32.6485V48.4759H39.4517L39.3567 48.7903H44.0636V50.6247H29.1274L27.6074 49.1307V33.1461H35.5466V32.5433H27.6074V30.9453H42.5177ZM38.2201 45.3839V36.1861H33.503V45.3839H38.2201Z" fill="#377FED"/>
<path d="M45.5837 33.1473H49.9592V32.5445H45.5837V30.9465H51.4792L56.6408 39.5676V30.9465H62.5364V48.4771H58.0296L57.9346 48.7915H62.5364V50.6259H56.349L51.4781 42.4244V50.6259H45.5825V33.1485L45.5837 33.1473Z" fill="#377FED"/>
<path d="M21.8635 29.3509L21.1465 28.7119V20.0139H25.8071C26.0378 20.0139 26.2255 19.8262 26.2255 19.5954V19.2449C26.2255 19.0141 26.0378 18.8264 25.8071 18.8264H21.1465V18.7325H29.0347V20.9469H24.1604C23.9297 20.9469 23.742 21.1346 23.742 21.3654V26.7034C23.742 26.9341 23.9297 27.1218 24.1604 27.1218H26.4325C26.6632 27.1218 26.8509 26.9341 26.8509 26.7034V25.56C26.8509 25.3293 26.6632 25.1415 26.4325 25.1415H25.4474V22.943H27.2332C27.8213 22.943 28.4252 22.9464 29.0336 22.9532V28.1001H25.2427C25.012 28.1001 24.8243 28.2878 24.8243 28.5185V28.7017C24.8243 28.9324 25.012 29.1202 25.2427 29.1202H29.0336V29.3509H21.8635Z" fill="#46E0F9"/>
<path d="M53.9978 29.3509V20.0139H58.4446C58.6753 20.0139 58.8631 19.8262 58.8631 19.5954V19.2449C58.8631 19.0141 58.6753 18.8264 58.4446 18.8264H53.9978V18.7325H61.8702V20.9469H57.0117C56.781 20.9469 56.5933 21.1346 56.5933 21.3654V22.5087C56.5933 22.7394 56.781 22.9272 57.0117 22.9272H60.6963V25.1415H57.0117C56.781 25.1415 56.5933 25.3293 56.5933 25.56V26.7034C56.5933 26.9341 56.781 27.1218 57.0117 27.1218H61.8702V28.1001H57.1938C56.9631 28.1001 56.7754 28.2878 56.7754 28.5185V28.7017C56.7754 28.9324 56.9631 29.1202 57.1938 29.1202H61.8702V29.3509H53.9978Z" fill="#46E0F9"/>
<path d="M29.9971 50.4812L28.9023 49.4045V34.44H36.1234C36.5203 34.44 36.8415 34.1188 36.8415 33.7219V33.1191C36.8415 32.7221 36.5203 32.4009 36.1234 32.4009H28.9023V32.2392H42.7755L43.9211 33.5013V48.3324H40.0273C39.6304 48.3324 39.3092 48.6536 39.3092 49.0505V49.3649C39.3092 49.7619 39.6304 50.0831 40.0273 50.0831H43.9211V50.48H29.9982L29.9971 50.4812ZM34.0786 36.0425C33.6817 36.0425 33.3605 36.3637 33.3605 36.7607V45.9586C33.3605 46.3555 33.6817 46.6767 34.0786 46.6767H38.7958C39.1927 46.6767 39.5139 46.3555 39.5139 45.9586V36.7607C39.5139 36.3637 39.1927 36.0425 38.7958 36.0425H34.0786Z" fill="#48DFFA"/>
<path d="M57.3342 50.4812L52.6724 42.6314C52.5412 42.4097 52.3038 42.2797 52.0549 42.2797C51.9916 42.2797 51.9283 42.2876 51.8649 42.3057C51.5528 42.3916 51.3368 42.6755 51.3368 42.9989V50.4823H46.8787V34.4412H50.5361C50.9331 34.4412 51.2543 34.12 51.2543 33.723V33.1202C51.2543 32.7233 50.9331 32.4021 50.5361 32.4021H46.8787V32.2404H51.6489L56.6013 40.512C56.7336 40.7325 56.97 40.8615 57.2177 40.8615C57.281 40.8615 57.3455 40.8524 57.4088 40.8355C57.7198 40.7495 57.9358 40.4656 57.9358 40.1433V32.2415H62.394V48.3347H58.6053C58.2084 48.3347 57.8872 48.6559 57.8872 49.0528V49.3672C57.8872 49.7642 58.2084 50.0854 58.6053 50.0854H62.394V50.4823H57.3342V50.4812Z" fill="#48DFFA"/>
<path d="M37.6364 53.0571H37.1614V53.4303H37.6364V53.0571Z" fill="white"/>
<path d="M36.8627 53.0571H36.3877V53.4303H36.8627V53.0571Z" fill="white"/>
<path d="M37.4451 55.3044L37.375 55.0827C37.3592 55.1144 37.2303 55.3361 36.8876 55.3361C36.58 55.3361 36.2158 55.1698 36.2158 54.6405V53.712H36.6931V54.6439C36.6931 54.8814 36.8209 54.9866 36.9883 54.9866C37.2065 54.9866 37.34 54.8136 37.34 54.5829V53.712H37.8093V55.3044H37.4463H37.4451Z" fill="white"/>
<path d="M36.0713 52.8413V53.253H35.4504V55.3056H34.9573V53.253H34.3364V52.8413H36.0713Z" fill="white"/>
<path d="M38.7945 53.4746V53.7438C38.9053 53.5108 39.0783 53.4565 39.4029 53.4565V53.9214H39.343C39.0331 53.9214 38.8114 54.0763 38.8114 54.471V55.3056H38.3364V53.4746H38.7956H38.7945Z" fill="white"/>
<path d="M44.2864 52.8413V53.253H43.6655V55.3056H43.1724V53.253H42.5515V52.8413H44.2864Z" fill="white"/>
<path d="M52.0886 53.3489C51.5152 53.3489 51.0504 53.8138 51.0504 54.3883C51.0504 54.9628 51.5152 55.4276 52.0886 55.4276C52.662 55.4276 53.1279 54.9628 53.1279 54.3883C53.1279 53.8138 52.6631 53.3489 52.0886 53.3489ZM52.0886 54.9775C51.7629 54.9775 51.4983 54.7128 51.4983 54.3871C51.4983 54.0614 51.7629 53.7968 52.0886 53.7968C52.4143 53.7968 52.679 54.0603 52.679 54.3871C52.679 54.714 52.4143 54.9775 52.0886 54.9775Z" fill="white"/>
<path d="M53.8258 53.4746L53.9038 53.7178C53.9807 53.5595 54.2035 53.4396 54.4104 53.4396C54.6174 53.4396 54.83 53.5662 54.9137 53.7675C55.0053 53.5877 55.2021 53.4396 55.5052 53.4396C55.8818 53.4396 56.16 53.6725 56.16 54.2041V55.3067H55.685V54.1724C55.685 53.9858 55.6115 53.8241 55.3898 53.8241C55.1546 53.8241 55.0517 54.0107 55.0517 54.2505V55.3067H54.5767V54.1475C54.5767 53.9858 54.4998 53.8241 54.2849 53.8241C54.0485 53.8241 53.9434 54.0107 53.9434 54.2471V55.3067H53.4684V53.4758H53.828L53.8258 53.4746Z" fill="white"/>
<path d="M49.8312 52.762L49.8324 54.2809L50.4431 53.4745H51.0097L50.2847 54.334L50.978 55.3055H50.4465L50.0099 54.6688L49.8335 54.8656V55.3055H49.3585V53.0289L49.8312 52.762Z" fill="white"/>
<path d="M40.2444 52.762V54.2809L40.8551 53.4745H41.4228L40.6967 54.334L41.3911 55.3055H40.8585L40.4219 54.6688L40.2466 54.8656V55.3055H39.7705V53.0289L40.2444 52.762Z" fill="white"/>
<path d="M49.0124 54.3477C49.0124 53.7947 48.6913 53.4396 48.1563 53.4396C47.5931 53.4396 47.2052 53.8343 47.2052 54.3975C47.2052 54.9607 47.6033 55.3418 48.2264 55.3418C48.4481 55.3418 48.7263 55.2887 48.9231 55.1835L48.7614 54.8385C48.6279 54.9087 48.4063 54.955 48.2366 54.955C47.9799 54.955 47.7266 54.825 47.7051 54.5366H49.0011C49.0011 54.5366 49.0113 54.4518 49.0113 54.35L49.0124 54.3477ZM47.6994 54.2177C47.748 53.953 47.9245 53.823 48.1857 53.823C48.4323 53.823 48.5521 54.0062 48.5555 54.2177H47.6994Z" fill="white"/>
<path d="M46.7167 52.7644V54.8103C46.7167 54.912 46.7766 54.9584 46.8818 54.9584C46.9067 54.9584 46.9598 54.9516 46.9949 54.9448V55.3079C46.8999 55.326 46.78 55.3429 46.6715 55.3429C46.4498 55.3429 46.2417 55.2581 46.2417 54.8431V53.0313L46.7167 52.7655V52.7644Z" fill="white"/>
<path d="M45.8786 54.3477C45.8786 53.7947 45.5585 53.4396 45.0236 53.4396C44.4604 53.4396 44.0725 53.8343 44.0725 54.3975C44.0725 54.9607 44.4706 55.3418 45.0937 55.3418C45.3154 55.3418 45.5936 55.2887 45.7915 55.1835L45.6298 54.8385C45.4964 54.9087 45.2747 54.955 45.1051 54.955C44.8483 54.955 44.595 54.825 44.5735 54.5366H45.8696C45.8696 54.5366 45.8797 54.4518 45.8797 54.35L45.8786 54.3477ZM44.5656 54.2177C44.6154 53.953 44.7906 53.823 45.0519 53.823C45.2984 53.823 45.4183 54.0062 45.4217 54.2177H44.5656Z" fill="white"/>
<path d="M38.0991 28.1H39.9991V19.4835L39.3047 18.7314H31.5771L31.4956 18.8253H35.3679C35.5986 18.8253 35.7864 19.013 35.7864 19.2437V19.5943C35.7864 19.825 35.5986 20.0127 35.3679 20.0127H30.9053V29.3497H33.5008V25.5588C33.5008 25.3281 33.6885 25.1404 33.9192 25.1404H36.9852C37.2159 25.1404 37.4036 25.3281 37.4036 25.5588V29.3497H39.9991V29.119H38.0991C37.8684 29.119 37.6807 28.9313 37.6807 28.7006V28.5174C37.6807 28.2866 37.8684 28.0989 38.0991 28.0989V28.1ZM37.4036 22.5076C37.4036 22.7383 37.2159 22.926 36.9852 22.926H33.9192C33.6885 22.926 33.5008 22.7383 33.5008 22.5076V21.3642C33.5008 21.1335 33.6885 20.9458 33.9192 20.9458H36.9852C37.2159 20.9458 37.4036 21.1335 37.4036 21.3642V22.5076Z" fill="#46E0F9"/>
<path d="M50.3924 28.1001H52.2924V18.7325H49.5182L47.4045 22.3244C47.3299 22.4522 47.193 22.5302 47.0449 22.5302C46.8967 22.5302 46.7599 22.4522 46.6852 22.3255L44.8294 19.1917L44.5568 18.7325H41.7815V18.8264H43.7403C43.971 18.8264 44.1587 19.0141 44.1587 19.2449V19.5954C44.1587 19.8262 43.971 20.0139 43.7403 20.0139H41.7815V29.3509H44.377V24.9798C44.377 24.7921 44.5025 24.627 44.6823 24.5772C44.7197 24.567 44.757 24.5614 44.7943 24.5614C44.9379 24.5614 45.0748 24.636 45.1517 24.7627L46.5077 27.0019H47.6307L48.9267 24.7695C49.0025 24.6383 49.1416 24.5614 49.2886 24.5614C49.3248 24.5614 49.3621 24.5659 49.3983 24.5761C49.5815 24.6258 49.7082 24.791 49.7071 24.981L49.6969 29.3509H52.2913V29.1202H50.3913C50.1606 29.1202 49.9728 28.9324 49.9728 28.7017V28.5185C49.9728 28.2878 50.1606 28.1001 50.3913 28.1001H50.3924Z" fill="#46E0F9"/>
</g>
<defs>
<filter id="filter0_d_407_9995" x="0.220402" y="0.846092" width="87.9726" height="78.4615" filterUnits="userSpaceOnUse" color-interpolation-filters="sRGB">
<feFlood flood-opacity="0" result="BackgroundImageFix"/>
<feColorMatrix in="SourceAlpha" type="matrix" values="0 0 0 0 0 0 0 0 0 0 0 0 0 0 0 0 0 0 127 0" result="hardAlpha"/>
<feOffset dy="3.07692"/>
<feGaussianBlur stdDeviation="9.61539"/>
<feComposite in2="hardAlpha" operator="out"/>
<feColorMatrix type="matrix" values="0 0 0 0 0.0196078 0 0 0 0 0.705882 0 0 0 0 0.780392 0 0 0 0.75 0"/>
<feBlend mode="normal" in2="BackgroundImageFix" result="effect1_dropShadow_407_9995"/>
<feBlend mode="normal" in="SourceGraphic" in2="effect1_dropShadow_407_9995" result="shape"/>
</filter>
</defs>
</svg>
