<svg width="59" height="56" viewBox="0 0 59 56" fill="none" xmlns="http://www.w3.org/2000/svg">
<path fill-rule="evenodd" clip-rule="evenodd" d="M23.3589 50.8024L25.5963 50.0362L27.8716 50.75L26.8986 49.6225L29.4128 48.8796L26.4004 48.967L25.5526 47.6968L24.7544 48.9874L21.7595 48.9786L24.2824 49.6516L23.3589 50.8024ZM15.3327 51.4462C17.4973 51.6968 19.6502 51.5365 21.3312 51.0675C21.4273 51.0355 21.4798 51.018 21.4798 51.018C21.4798 51.018 23.7056 51.8191 26.2839 51.9298C28.6728 52.0318 33.6254 51.3384 34.4295 49.1098C35.3356 46.6014 31.857 44.9116 27.8716 43.5482C23.6444 42.1032 22.1673 41.4943 21.4885 41.0369C20.8155 41.4798 19.3589 42.0595 15.222 43.4055C15.6677 43.4404 16.1193 43.487 16.5679 43.5482C20.4776 44.0843 23.2249 45.5147 24.0581 47.0937C23.152 46.0886 21.2176 45.2379 18.6364 44.8913C14.0421 44.2736 9.70412 45.4972 9.10398 47.4637C8.55336 49.2671 11.3939 50.9888 15.3327 51.4462Z" fill="url(#paint0_linear_407_9870)"/>
<path fill-rule="evenodd" clip-rule="evenodd" d="M23.4113 26.5111L25.6924 27.6561L28.0085 26.5927L27.018 28.2737L29.5788 29.3808L26.5053 29.2497L25.6429 31.1433L24.8301 29.2176L21.7798 29.2293L24.3494 28.2242L23.4113 26.5111ZM15.2365 25.5497C17.4419 25.1739 19.6356 25.4186 21.3458 26.1149C21.4448 26.1615 21.4943 26.1878 21.4943 26.1878C21.4943 26.1878 23.7609 24.9933 26.3858 24.8272C28.8184 24.6757 33.8643 25.71 34.683 29.0312C35.6036 32.769 32.0639 35.2919 28.0056 37.3225C23.7026 39.4754 22.1964 40.3844 21.5031 41.0661C20.8155 40.4048 19.3326 39.5424 15.12 37.5322C15.5745 37.4827 16.0318 37.4099 16.4892 37.3196C20.4718 36.5184 23.2685 34.3888 24.1192 32.0319C23.1957 33.5322 21.2263 34.7966 18.5985 35.3152C13.9197 36.2387 9.50017 34.4121 8.89129 31.4784C8.33193 28.801 11.2249 26.2315 15.2365 25.5497Z" fill="url(#paint1_linear_407_9870)"/>
<path fill-rule="evenodd" clip-rule="evenodd" d="M13.4478 19.5338C13.4478 20.1922 13.4274 20.6496 13.3866 20.906C13.3051 21.4071 13.1157 21.8062 12.8185 22.1033C12.4282 22.4937 11.8921 22.6889 11.2104 22.6889H9.02539V16.4661H11.2104C11.8921 16.4661 12.4282 16.6613 12.8185 17.0516C13.1157 17.3488 13.3051 17.7334 13.3866 18.2053C13.4274 18.45 13.4478 18.8929 13.4478 19.5338ZM12.5039 19.5338C12.5039 19.0152 12.4893 18.654 12.4602 18.45C12.4136 18.1354 12.3174 17.8965 12.1718 17.7334C11.9212 17.4537 11.5687 17.3138 11.1142 17.3138H9.96931V21.8411H11.1142C11.5687 21.8411 11.9212 21.7013 12.1718 21.4216C12.3174 21.2585 12.4136 21.005 12.4602 20.6613C12.4893 20.4398 12.5039 20.064 12.5039 19.5338Z" fill="black"/>
<path fill-rule="evenodd" clip-rule="evenodd" d="M18.7355 22.6889H14.7588V16.4661H18.7355V17.3138H15.7027V19.1318H18.2897V19.9708H15.7027V21.8411H18.7355V22.6889Z" fill="black"/>
<path fill-rule="evenodd" clip-rule="evenodd" d="M24.2244 20.2765C24.2244 21.0515 24.038 21.637 23.6651 22.0332C23.2222 22.5052 22.6512 22.7412 21.952 22.7412C21.3053 22.7412 20.7605 22.5198 20.3177 22.0769C20.038 21.7973 19.8603 21.4535 19.7845 21.0456C19.7379 20.7893 19.7146 20.2998 19.7146 19.5773C19.7146 18.8548 19.7379 18.3654 19.7845 18.109C19.8603 17.7011 20.038 17.3574 20.3177 17.0777C20.7605 16.6349 21.3053 16.4134 21.952 16.4134C22.5813 16.4134 23.1028 16.6028 23.5165 16.9815C23.8894 17.3253 24.1225 17.7798 24.2157 18.345H23.263C23.0941 17.6225 22.6571 17.2612 21.952 17.2612C21.5791 17.2612 21.2732 17.3894 21.0343 17.6458C20.8479 17.8497 20.7314 18.1556 20.6847 18.5635C20.6673 18.7091 20.6585 19.0471 20.6585 19.5773C20.6585 20.1075 20.6673 20.4455 20.6847 20.5912C20.7314 21.0048 20.8479 21.3137 21.0343 21.5176C21.2674 21.7681 21.5733 21.8934 21.952 21.8934C22.3716 21.8934 22.7095 21.7477 22.9659 21.4564C23.1756 21.2175 23.2805 20.8912 23.2805 20.4775V20.1279H21.952V19.3239H24.2244V20.2765ZM23.298 15.4957H20.5886V14.8577H23.298V15.4957Z" fill="black"/>
<path fill-rule="evenodd" clip-rule="evenodd" d="M29.5031 22.6889H25.5264V16.4661H29.5031V17.3138H26.4703V19.1318H29.0573V19.9708H26.4703V21.8411H29.5031V22.6889Z" fill="black"/>
<path fill-rule="evenodd" clip-rule="evenodd" d="M35.2453 22.6889H34.144L32.833 20.0669H31.6531V22.6889H30.7092V16.4661H33.1215C33.7041 16.4661 34.1703 16.635 34.5199 16.973C34.8753 17.3109 35.053 17.7479 35.053 18.284C35.053 18.7093 34.9365 19.0677 34.7034 19.359C34.4762 19.6445 34.179 19.8368 33.8119 19.9358L35.2453 22.6889ZM34.1091 18.2927C34.1091 17.9897 34.0129 17.7508 33.8207 17.576C33.6284 17.4012 33.372 17.3138 33.0515 17.3138H31.6531V19.2629H33.0515C33.372 19.2629 33.6284 19.1784 33.8207 19.0094C34.0129 18.8346 34.1091 18.5957 34.1091 18.2927Z" fill="black"/>
<path fill-rule="evenodd" clip-rule="evenodd" d="M12.8448 8.57367H11.1318V13.9488H10.1879V8.57367H8.47485V7.72589H12.8448V8.57367Z" fill="black"/>
<path fill-rule="evenodd" clip-rule="evenodd" d="M18.2025 11.851C18.2025 12.4861 17.9898 13.0046 17.5644 13.4067C17.1391 13.8029 16.606 14.001 15.965 14.001C15.3241 14.001 14.791 13.8029 14.3656 13.4067C13.9461 13.0046 13.7363 12.4861 13.7363 11.851V7.72569H14.6802V11.8073C14.6802 12.2209 14.7968 12.5502 15.0298 12.7949C15.2629 13.0338 15.5746 13.1532 15.965 13.1532C16.3554 13.1532 16.6671 13.0338 16.9002 12.7949C17.1391 12.5502 17.2585 12.2209 17.2585 11.8073V7.72569H18.2025V11.851ZM17.3197 7.07893H16.5156V6.13501H17.3197V7.07893ZM15.4319 7.07893H14.6278V6.13501H15.4319V7.07893Z" fill="black"/>
<path fill-rule="evenodd" clip-rule="evenodd" d="M24.1806 13.9488H23.0793L21.7683 11.3268H20.5884V13.9488H19.6445V7.72589H22.0568C22.6394 7.72589 23.1056 7.89486 23.4552 8.23281C23.8106 8.57076 23.9883 9.00775 23.9883 9.54381C23.9883 9.96915 23.8718 10.3275 23.6387 10.6188C23.4115 10.9043 23.1143 11.0966 22.7472 11.1957L24.1806 13.9488ZM23.0444 9.55255C23.0444 9.24956 22.9482 9.01067 22.756 8.83587C22.5637 8.66107 22.3073 8.57367 21.9868 8.57367H20.5884V10.5227H21.9868C22.3073 10.5227 22.5637 10.4382 22.756 10.2692C22.9482 10.0944 23.0444 9.85553 23.0444 9.55255Z" fill="black"/>
<path fill-rule="evenodd" clip-rule="evenodd" d="M30.1324 13.9488H29.0224L27.2745 10.881L26.2257 12.1396V13.9488H25.2817V7.72589H26.2257V10.8548L28.769 7.72589H29.9227L27.9037 10.1643L30.1324 13.9488Z" fill="black"/>
<path fill-rule="evenodd" clip-rule="evenodd" d="M31.8892 13.9485H30.9453V7.72566H31.8892V13.9485ZM30.9453 6.10876H31.898V7.05268H30.9453V6.10876Z" fill="black"/>
<path fill-rule="evenodd" clip-rule="evenodd" d="M37.3256 7.72589L35.464 11.3879V13.9488H34.5201V11.3879L32.6584 7.72589H33.6898L34.992 10.4615L36.2943 7.72589H37.3256Z" fill="black"/>
<path fill-rule="evenodd" clip-rule="evenodd" d="M42.0714 13.9488H38.0947V7.72589H42.0714V8.57367H39.0386V10.3916H41.6257V11.2306H39.0386V13.101H42.0714V13.9488Z" fill="black"/>
<path fill-rule="evenodd" clip-rule="evenodd" d="M44.1251 8.64359L43.1462 9.43893V7.72589H44.1251V8.64359Z" fill="black"/>
<path fill-rule="evenodd" clip-rule="evenodd" d="M49.4303 7.72589L47.5687 11.3879V13.9488H46.6248V11.3879L44.7632 7.72589H45.7945L47.0968 10.4615L48.399 7.72589H49.4303Z" fill="black"/>
<path fill-rule="evenodd" clip-rule="evenodd" d="M54.1762 13.9488H50.1995V7.72589H54.1762V8.57367H51.1434V10.3916H53.7304V11.2306H51.1434V13.101H54.1762V13.9488Z" fill="black"/>
<defs>
<linearGradient id="paint0_linear_407_9870" x1="21.8023" y1="41.0392" x2="21.8023" y2="51.9412" gradientUnits="userSpaceOnUse">
<stop stop-color="#E5D6CF"/>
<stop offset="1" stop-color="#FBF9F8"/>
</linearGradient>
<linearGradient id="paint1_linear_407_9870" x1="21.8252" y1="41.0682" x2="21.8252" y2="24.8127" gradientUnits="userSpaceOnUse">
<stop stop-color="#B11116"/>
<stop offset="1" stop-color="#E61B23"/>
</linearGradient>
</defs>
</svg>
