<svg width="307" height="32" viewBox="0 0 307 32" fill="none" xmlns="http://www.w3.org/2000/svg">
<path d="M33.6621 6.10352e-05V32.0001L61.1307 16.0001L33.6621 6.10352e-05Z" fill="#00275D"/>
<path d="M23.4658 3.06763V28.6711L31.4659 23.8781V7.9478L23.4658 3.06763Z" fill="#00C4E3"/>
<path d="M14.0889 6.08289V25.9522L21.5661 22.2397V9.88245L14.0889 6.08289Z" fill="#FF0025"/>
<path d="M6.57666 8.50549V23.5295L12.5026 20.7234V11.3813L6.57666 8.50549Z" fill="#0185D6"/>
<path d="M0.25 10.1613V21.8737L4.62476 19.6777V12.4097L0.25 10.1613Z" fill="#C9DD00"/>
<path d="M80.6689 10.9457H76.1895V22.449H72.4074V10.9457H67.9629V8.01758H80.6689V10.9457Z" fill="#022959"/>
<path d="M92.0154 22.4489H88.9478L88.7386 20.9675C87.9543 22.0829 86.9783 22.6581 85.4096 22.6581C83.5796 22.6581 81.5752 22.1701 81.5752 18.6319V11.73H85.0785V18.2136C85.0785 19.5383 85.7234 19.9914 86.5426 19.9914C87.8846 19.9914 88.4946 18.7888 88.4946 17.3945V11.7474H91.9979V22.4489H92.0154ZM85.8802 8.92389C85.8802 9.93478 85.3051 10.5099 84.1024 10.5099C82.987 10.5099 82.3944 9.93478 82.3944 8.92389C82.3944 7.91299 82.987 7.33783 84.1024 7.33783C85.3051 7.33783 85.8802 7.91299 85.8802 8.92389ZM91.1265 8.92389C91.1265 9.93478 90.5513 10.5099 89.3487 10.5099C88.2332 10.5099 87.658 9.93478 87.658 8.92389C87.658 7.91299 88.2332 7.33783 89.3487 7.33783C90.5339 7.33783 91.1265 7.91299 91.1265 8.92389Z" fill="#022959"/>
<path d="M101.706 15.2507C99.2137 14.8324 98.2377 16.7148 98.2377 18.8237V22.449H94.7344V11.73H97.6451L97.9065 14.1353C98.3248 12.9849 99.5623 11.364 101.846 11.73L101.706 15.2507Z" fill="#022959"/>
<path d="M107.074 15.8253L110.682 11.712H114.517L110.613 15.9473L114.342 22.4484H110.421L108.277 18.4746L107.057 19.8166V22.4484H103.554V7.35474H107.057V15.8253H107.074Z" fill="#022959"/>
<path d="M133.306 10.9457H128.826V22.449H125.044V10.9457H120.6V8.01758H133.306V10.9457Z" fill="#022959"/>
<path d="M136.704 18.1613C136.722 19.5557 137.907 19.9565 139.545 19.9565C140.905 19.9565 142.247 19.5208 143.136 19.1548L143.746 21.6646C142.351 22.3269 140.835 22.6581 139.162 22.6581C135.188 22.6581 133.114 20.6537 133.114 17.1504C133.114 13.7692 135.17 11.5208 138.813 11.5208C141.95 11.5208 144.025 13.2986 144.025 16.6624C144.025 17.4293 143.92 18.1613 143.92 18.1613H136.704ZM136.809 15.9478H140.765C140.765 14.9021 140.277 14.1875 138.935 14.1875C137.889 14.2049 137.105 14.4838 136.809 15.9478Z" fill="#022959"/>
<path d="M149.619 19.2937C149.619 19.8515 149.985 19.9735 150.438 19.9735C150.734 19.9735 150.996 19.956 151.327 19.9386L151.432 22.4484C150.682 22.5704 150.159 22.6576 149.183 22.6576C146.97 22.6576 146.116 21.6641 146.116 19.956V7.35474H149.619V19.2937Z" fill="#022959"/>
<path d="M155.929 18.1613C155.946 19.5557 157.131 19.9565 158.77 19.9565C160.129 19.9565 161.471 19.5208 162.36 19.1548L162.97 21.6646C161.576 22.3269 160.06 22.6581 158.386 22.6581C154.412 22.6581 152.338 20.6537 152.338 17.1504C152.338 13.7692 154.395 11.5208 158.038 11.5208C161.175 11.5208 163.249 13.2986 163.249 16.6624C163.249 17.4293 163.145 18.1613 163.145 18.1613H155.929ZM156.033 15.9478H159.99C159.99 14.9021 159.502 14.1875 158.16 14.1875C157.114 14.2049 156.33 14.4838 156.033 15.9478Z" fill="#022959"/>
<path d="M168.983 15.8253L172.591 11.712H176.425L172.521 15.9473L176.251 22.4484H172.33L170.186 18.4746L168.966 19.8166V22.4484H165.462V7.35474H168.966V15.8253H168.983Z" fill="#022959"/>
<path d="M188.208 17.0633C188.208 20.6189 185.959 22.6581 182.386 22.6581C178.813 22.6581 176.565 20.6189 176.565 17.0633C176.565 13.5077 178.796 11.5208 182.386 11.5208C185.977 11.5208 188.208 13.5252 188.208 17.0633ZM180.138 17.1156C180.138 18.9631 180.835 19.974 182.386 19.974C183.938 19.974 184.635 18.9631 184.635 17.1156C184.635 15.1984 183.938 14.2049 182.386 14.2049C180.835 14.2049 180.138 15.1984 180.138 17.1156Z" fill="#022959"/>
<path d="M206.7 15.6864V22.4489H203.197V15.7387C203.197 14.9718 202.936 14.1875 201.838 14.1875C200.408 14.1875 200.251 15.547 200.251 16.279V22.4489H196.748V15.7735C196.748 15.0589 196.504 14.2049 195.406 14.2049C194.238 14.2049 193.803 15.1461 193.803 16.157V22.4489H190.299V11.73H193.349L193.559 13.2289C194.047 12.3226 194.935 11.5208 196.487 11.5208C197.637 11.5208 198.735 11.974 199.31 13.4032C199.99 12.4097 201.018 11.5208 202.953 11.5208C204.766 11.5208 206.7 12.2877 206.7 15.6864Z" fill="#022959"/>
<path d="M222.875 22.449H218.587L213.445 8.01758H217.559L220.748 18.1091L223.973 8.01758H228.016L222.875 22.449Z" fill="#022959"/>
<path d="M231.485 18.1613C231.502 19.5557 232.688 19.9565 234.326 19.9565C235.685 19.9565 237.027 19.5208 237.916 19.1548L238.526 21.6646C237.132 22.3269 235.616 22.6581 233.943 22.6581C229.969 22.6581 227.895 20.6537 227.895 17.1504C227.895 13.7692 229.951 11.5208 233.594 11.5208C236.731 11.5208 238.805 13.2986 238.805 16.6624C238.805 17.4293 238.701 18.1613 238.701 18.1613H231.485ZM231.59 15.9478H235.546C235.546 14.9021 235.058 14.1875 233.716 14.1875C232.653 14.2049 231.886 14.4838 231.59 15.9478Z" fill="#022959"/>
<path d="M251.441 15.547V22.4489H247.938V15.9827C247.938 14.6581 247.293 14.2049 246.457 14.2049C245.132 14.2049 244.522 15.425 244.522 16.8019V22.4489H241.019V11.73H244.086L244.278 13.2114C245.062 12.1134 246.038 11.5208 247.624 11.5208C249.454 11.5208 251.441 12.0088 251.441 15.547Z" fill="#022959"/>
<path d="M258.065 11.73H260.871V14.2049H258.065V18.9631C258.065 19.9566 258.605 20.1309 259.076 20.1309C259.564 20.1309 260.522 19.9217 260.801 19.8171L260.958 22.1701C260.086 22.5012 258.954 22.6407 258.117 22.6407C256.182 22.6407 254.544 22.0307 254.544 19.0328V14.1875H253.167V11.7126H254.544L255.084 8.61017H258.047V11.73H258.065Z" fill="#022959"/>
<path d="M273.245 22.449H270.178L269.969 20.9675C269.184 22.083 268.208 22.6581 266.64 22.6581C264.81 22.6581 262.805 22.1701 262.805 18.632V11.73H266.308V18.2137C266.308 19.5383 266.953 19.9915 267.773 19.9915C269.115 19.9915 269.725 18.7889 269.725 17.3945V11.7475H273.228V22.449H273.245Z" fill="#022959"/>
<path d="M282.936 15.2507C280.444 14.8324 279.468 16.7148 279.468 18.8237V22.449H275.964V11.73H278.875L279.137 14.1353C279.555 12.9849 280.792 11.364 283.076 11.73L282.936 15.2507Z" fill="#022959"/>
<path d="M287.869 18.1613C287.886 19.5557 289.071 19.9565 290.71 19.9565C292.069 19.9565 293.411 19.5208 294.3 19.1548L294.91 21.6646C293.516 22.3269 292 22.6581 290.326 22.6581C286.352 22.6581 284.278 20.6537 284.278 17.1504C284.278 13.7692 286.335 11.5208 289.978 11.5208C293.115 11.5208 295.189 13.2986 295.189 16.6624C295.189 17.4293 295.084 18.1613 295.084 18.1613H287.869ZM287.973 15.9478H291.93C291.93 14.9021 291.442 14.1875 290.1 14.1875C289.037 14.2049 288.252 14.4838 287.973 15.9478Z" fill="#022959"/>
<path d="M305.734 12.3574L305.089 14.6755C304.566 14.4838 303.381 13.9783 301.917 13.9783C300.557 13.9783 300.453 14.4141 300.453 14.6581C300.453 15.3552 301.115 15.3727 302.614 15.791C304.217 16.2267 306.17 16.8367 306.17 19.1897C306.17 21.7518 303.851 22.6581 301.446 22.6581C299.634 22.6581 297.995 22.1701 296.81 21.6646L297.56 19.2942C298.135 19.5382 299.477 20.1831 301.063 20.1831C302.422 20.1831 302.527 19.7648 302.527 19.486C302.527 18.7191 301.499 18.7365 300.244 18.3879C298.745 17.9696 296.827 17.3945 296.827 14.9892C296.827 12.4271 298.971 11.5208 301.394 11.5208C302.91 11.5208 304.531 11.8868 305.734 12.3574Z" fill="#022959"/>
</svg>
