<svg width="80" height="80" viewBox="0 0 80 80" fill="none" xmlns="http://www.w3.org/2000/svg">
<g clip-path="url(#clip0_1708_2975)">
<path d="M80 0H0V80H80V0Z" fill="white"/>
<path d="M6.48638 4.32422H4.32422V6.48638H6.48638V4.32422Z" fill="black"/>
<path d="M8.64849 4.32422H6.48633V6.48638H8.64849V4.32422Z" fill="black"/>
<path d="M10.8106 4.32422H8.64844V6.48638H10.8106V4.32422Z" fill="black"/>
<path d="M12.973 4.32422H10.8108V6.48638H12.973V4.32422Z" fill="black"/>
<path d="M15.1351 4.32422H12.9729V6.48638H15.1351V4.32422Z" fill="black"/>
<path d="M17.2972 4.32422H15.135V6.48638H17.2972V4.32422Z" fill="black"/>
<path d="M19.4593 4.32422H17.2971V6.48638H19.4593V4.32422Z" fill="black"/>
<path d="M23.7837 4.32422H21.6216V6.48638H23.7837V4.32422Z" fill="black"/>
<path d="M30.2701 4.32422H28.1079V6.48638H30.2701V4.32422Z" fill="black"/>
<path d="M34.5945 4.32422H32.4324V6.48638H34.5945V4.32422Z" fill="black"/>
<path d="M41.0809 4.32422H38.9187V6.48638H41.0809V4.32422Z" fill="black"/>
<path d="M45.4053 4.32422H43.2432V6.48638H45.4053V4.32422Z" fill="black"/>
<path d="M47.5674 4.32422H45.4053V6.48638H47.5674V4.32422Z" fill="black"/>
<path d="M49.7295 4.32422H47.5674V6.48638H49.7295V4.32422Z" fill="black"/>
<path d="M51.8919 4.32422H49.7297V6.48638H51.8919V4.32422Z" fill="black"/>
<path d="M54.054 4.32422H51.8918V6.48638H54.054V4.32422Z" fill="black"/>
<path d="M56.2161 4.32422H54.054V6.48638H56.2161V4.32422Z" fill="black"/>
<path d="M62.7027 4.32422H60.5405V6.48638H62.7027V4.32422Z" fill="black"/>
<path d="M64.8648 4.32422H62.7026V6.48638H64.8648V4.32422Z" fill="black"/>
<path d="M67.0269 4.32422H64.8647V6.48638H67.0269V4.32422Z" fill="black"/>
<path d="M69.189 4.32422H67.0269V6.48638H69.189V4.32422Z" fill="black"/>
<path d="M71.3511 4.32422H69.189V6.48638H71.3511V4.32422Z" fill="black"/>
<path d="M73.5135 4.32422H71.3513V6.48638H73.5135V4.32422Z" fill="black"/>
<path d="M75.6756 4.32422H73.5134V6.48638H75.6756V4.32422Z" fill="black"/>
<path d="M6.48638 6.48633H4.32422V8.64849H6.48638V6.48633Z" fill="black"/>
<path d="M19.4593 6.48633H17.2971V8.64849H19.4593V6.48633Z" fill="black"/>
<path d="M28.108 6.48633H25.9458V8.64849H28.108V6.48633Z" fill="black"/>
<path d="M32.4324 6.48633H30.2703V8.64849H32.4324V6.48633Z" fill="black"/>
<path d="M34.5945 6.48633H32.4324V8.64849H34.5945V6.48633Z" fill="black"/>
<path d="M38.9188 6.48633H36.7566V8.64849H38.9188V6.48633Z" fill="black"/>
<path d="M45.4053 6.48633H43.2432V8.64849H45.4053V6.48633Z" fill="black"/>
<path d="M51.8919 6.48633H49.7297V8.64849H51.8919V6.48633Z" fill="black"/>
<path d="M54.054 6.48633H51.8918V8.64849H54.054V6.48633Z" fill="black"/>
<path d="M62.7027 6.48633H60.5405V8.64849H62.7027V6.48633Z" fill="black"/>
<path d="M75.6756 6.48633H73.5134V8.64849H75.6756V6.48633Z" fill="black"/>
<path d="M6.48638 8.64844H4.32422V10.8106H6.48638V8.64844Z" fill="black"/>
<path d="M10.8106 8.64844H8.64844V10.8106H10.8106V8.64844Z" fill="black"/>
<path d="M12.973 8.64844H10.8108V10.8106H12.973V8.64844Z" fill="black"/>
<path d="M15.1351 8.64844H12.9729V10.8106H15.1351V8.64844Z" fill="black"/>
<path d="M19.4593 8.64844H17.2971V10.8106H19.4593V8.64844Z" fill="black"/>
<path d="M28.108 8.64844H25.9458V10.8106H28.108V8.64844Z" fill="black"/>
<path d="M30.2701 8.64844H28.1079V10.8106H30.2701V8.64844Z" fill="black"/>
<path d="M34.5945 8.64844H32.4324V10.8106H34.5945V8.64844Z" fill="black"/>
<path d="M36.7566 8.64844H34.5945V10.8106H36.7566V8.64844Z" fill="black"/>
<path d="M38.9188 8.64844H36.7566V10.8106H38.9188V8.64844Z" fill="black"/>
<path d="M49.7295 8.64844H47.5674V10.8106H49.7295V8.64844Z" fill="black"/>
<path d="M51.8919 8.64844H49.7297V10.8106H51.8919V8.64844Z" fill="black"/>
<path d="M62.7027 8.64844H60.5405V10.8106H62.7027V8.64844Z" fill="black"/>
<path d="M67.0269 8.64844H64.8647V10.8106H67.0269V8.64844Z" fill="black"/>
<path d="M69.189 8.64844H67.0269V10.8106H69.189V8.64844Z" fill="black"/>
<path d="M71.3511 8.64844H69.189V10.8106H71.3511V8.64844Z" fill="black"/>
<path d="M75.6756 8.64844H73.5134V10.8106H75.6756V8.64844Z" fill="black"/>
<path d="M6.48638 10.8108H4.32422V12.973H6.48638V10.8108Z" fill="black"/>
<path d="M10.8106 10.8108H8.64844V12.973H10.8106V10.8108Z" fill="black"/>
<path d="M12.973 10.8108H10.8108V12.973H12.973V10.8108Z" fill="black"/>
<path d="M15.1351 10.8108H12.9729V12.973H15.1351V10.8108Z" fill="black"/>
<path d="M19.4593 10.8108H17.2971V12.973H19.4593V10.8108Z" fill="black"/>
<path d="M25.9459 10.8108H23.7837V12.973H25.9459V10.8108Z" fill="black"/>
<path d="M28.108 10.8108H25.9458V12.973H28.108V10.8108Z" fill="black"/>
<path d="M36.7566 10.8108H34.5945V12.973H36.7566V10.8108Z" fill="black"/>
<path d="M41.0809 10.8108H38.9187V12.973H41.0809V10.8108Z" fill="black"/>
<path d="M45.4053 10.8108H43.2432V12.973H45.4053V10.8108Z" fill="black"/>
<path d="M47.5674 10.8108H45.4053V12.973H47.5674V10.8108Z" fill="black"/>
<path d="M54.054 10.8108H51.8918V12.973H54.054V10.8108Z" fill="black"/>
<path d="M56.2161 10.8108H54.054V12.973H56.2161V10.8108Z" fill="black"/>
<path d="M62.7027 10.8108H60.5405V12.973H62.7027V10.8108Z" fill="black"/>
<path d="M67.0269 10.8108H64.8647V12.973H67.0269V10.8108Z" fill="black"/>
<path d="M69.189 10.8108H67.0269V12.973H69.189V10.8108Z" fill="black"/>
<path d="M71.3511 10.8108H69.189V12.973H71.3511V10.8108Z" fill="black"/>
<path d="M75.6756 10.8108H73.5134V12.973H75.6756V10.8108Z" fill="black"/>
<path d="M6.48638 12.9729H4.32422V15.1351H6.48638V12.9729Z" fill="black"/>
<path d="M10.8106 12.9729H8.64844V15.1351H10.8106V12.9729Z" fill="black"/>
<path d="M12.973 12.9729H10.8108V15.1351H12.973V12.9729Z" fill="black"/>
<path d="M15.1351 12.9729H12.9729V15.1351H15.1351V12.9729Z" fill="black"/>
<path d="M19.4593 12.9729H17.2971V15.1351H19.4593V12.9729Z" fill="black"/>
<path d="M23.7837 12.9729H21.6216V15.1351H23.7837V12.9729Z" fill="black"/>
<path d="M28.108 12.9729H25.9458V15.1351H28.108V12.9729Z" fill="black"/>
<path d="M30.2701 12.9729H28.1079V15.1351H30.2701V12.9729Z" fill="black"/>
<path d="M34.5945 12.9729H32.4324V15.1351H34.5945V12.9729Z" fill="black"/>
<path d="M36.7566 12.9729H34.5945V15.1351H36.7566V12.9729Z" fill="black"/>
<path d="M38.9188 12.9729H36.7566V15.1351H38.9188V12.9729Z" fill="black"/>
<path d="M41.0809 12.9729H38.9187V15.1351H41.0809V12.9729Z" fill="black"/>
<path d="M43.2432 12.9729H41.0811V15.1351H43.2432V12.9729Z" fill="black"/>
<path d="M49.7295 12.9729H47.5674V15.1351H49.7295V12.9729Z" fill="black"/>
<path d="M51.8919 12.9729H49.7297V15.1351H51.8919V12.9729Z" fill="black"/>
<path d="M54.054 12.9729H51.8918V15.1351H54.054V12.9729Z" fill="black"/>
<path d="M56.2161 12.9729H54.054V15.1351H56.2161V12.9729Z" fill="black"/>
<path d="M58.3782 12.9729H56.2161V15.1351H58.3782V12.9729Z" fill="black"/>
<path d="M62.7027 12.9729H60.5405V15.1351H62.7027V12.9729Z" fill="black"/>
<path d="M67.0269 12.9729H64.8647V15.1351H67.0269V12.9729Z" fill="black"/>
<path d="M69.189 12.9729H67.0269V15.1351H69.189V12.9729Z" fill="black"/>
<path d="M71.3511 12.9729H69.189V15.1351H71.3511V12.9729Z" fill="black"/>
<path d="M75.6756 12.9729H73.5134V15.1351H75.6756V12.9729Z" fill="black"/>
<path d="M6.48638 15.135H4.32422V17.2972H6.48638V15.135Z" fill="black"/>
<path d="M19.4593 15.135H17.2971V17.2972H19.4593V15.135Z" fill="black"/>
<path d="M23.7837 15.135H21.6216V17.2972H23.7837V15.135Z" fill="black"/>
<path d="M25.9459 15.135H23.7837V17.2972H25.9459V15.135Z" fill="black"/>
<path d="M28.108 15.135H25.9458V17.2972H28.108V15.135Z" fill="black"/>
<path d="M30.2701 15.135H28.1079V17.2972H30.2701V15.135Z" fill="black"/>
<path d="M32.4324 15.135H30.2703V17.2972H32.4324V15.135Z" fill="black"/>
<path d="M36.7566 15.135H34.5945V17.2972H36.7566V15.135Z" fill="black"/>
<path d="M38.9188 15.135H36.7566V17.2972H38.9188V15.135Z" fill="black"/>
<path d="M41.0809 15.135H38.9187V17.2972H41.0809V15.135Z" fill="black"/>
<path d="M45.4053 15.135H43.2432V17.2972H45.4053V15.135Z" fill="black"/>
<path d="M47.5674 15.135H45.4053V17.2972H47.5674V15.135Z" fill="black"/>
<path d="M51.8919 15.135H49.7297V17.2972H51.8919V15.135Z" fill="black"/>
<path d="M62.7027 15.135H60.5405V17.2972H62.7027V15.135Z" fill="black"/>
<path d="M75.6756 15.135H73.5134V17.2972H75.6756V15.135Z" fill="black"/>
<path d="M6.48638 17.2971H4.32422V19.4593H6.48638V17.2971Z" fill="black"/>
<path d="M8.64849 17.2971H6.48633V19.4593H8.64849V17.2971Z" fill="black"/>
<path d="M10.8106 17.2971H8.64844V19.4593H10.8106V17.2971Z" fill="black"/>
<path d="M12.973 17.2971H10.8108V19.4593H12.973V17.2971Z" fill="black"/>
<path d="M15.1351 17.2971H12.9729V19.4593H15.1351V17.2971Z" fill="black"/>
<path d="M17.2972 17.2971H15.135V19.4593H17.2972V17.2971Z" fill="black"/>
<path d="M19.4593 17.2971H17.2971V19.4593H19.4593V17.2971Z" fill="black"/>
<path d="M23.7837 17.2971H21.6216V19.4593H23.7837V17.2971Z" fill="black"/>
<path d="M28.108 17.2971H25.9458V19.4593H28.108V17.2971Z" fill="black"/>
<path d="M32.4324 17.2971H30.2703V19.4593H32.4324V17.2971Z" fill="black"/>
<path d="M36.7566 17.2971H34.5945V19.4593H36.7566V17.2971Z" fill="black"/>
<path d="M41.0809 17.2971H38.9187V19.4593H41.0809V17.2971Z" fill="black"/>
<path d="M45.4053 17.2971H43.2432V19.4593H45.4053V17.2971Z" fill="black"/>
<path d="M49.7295 17.2971H47.5674V19.4593H49.7295V17.2971Z" fill="black"/>
<path d="M54.054 17.2971H51.8918V19.4593H54.054V17.2971Z" fill="black"/>
<path d="M58.3782 17.2971H56.2161V19.4593H58.3782V17.2971Z" fill="black"/>
<path d="M62.7027 17.2971H60.5405V19.4593H62.7027V17.2971Z" fill="black"/>
<path d="M64.8648 17.2971H62.7026V19.4593H64.8648V17.2971Z" fill="black"/>
<path d="M67.0269 17.2971H64.8647V19.4593H67.0269V17.2971Z" fill="black"/>
<path d="M69.189 17.2971H67.0269V19.4593H69.189V17.2971Z" fill="black"/>
<path d="M71.3511 17.2971H69.189V19.4593H71.3511V17.2971Z" fill="black"/>
<path d="M73.5135 17.2971H71.3513V19.4593H73.5135V17.2971Z" fill="black"/>
<path d="M75.6756 17.2971H73.5134V19.4593H75.6756V17.2971Z" fill="black"/>
<path d="M25.9459 19.4595H23.7837V21.6216H25.9459V19.4595Z" fill="black"/>
<path d="M30.2701 19.4595H28.1079V21.6216H30.2701V19.4595Z" fill="black"/>
<path d="M38.9188 19.4595H36.7566V21.6216H38.9188V19.4595Z" fill="black"/>
<path d="M41.0809 19.4595H38.9187V21.6216H41.0809V19.4595Z" fill="black"/>
<path d="M47.5674 19.4595H45.4053V21.6216H47.5674V19.4595Z" fill="black"/>
<path d="M49.7295 19.4595H47.5674V21.6216H49.7295V19.4595Z" fill="black"/>
<path d="M51.8919 19.4595H49.7297V21.6216H51.8919V19.4595Z" fill="black"/>
<path d="M54.054 19.4595H51.8918V21.6216H54.054V19.4595Z" fill="black"/>
<path d="M56.2161 19.4595H54.054V21.6216H56.2161V19.4595Z" fill="black"/>
<path d="M8.64849 21.6216H6.48633V23.7837H8.64849V21.6216Z" fill="black"/>
<path d="M10.8106 21.6216H8.64844V23.7837H10.8106V21.6216Z" fill="black"/>
<path d="M12.973 21.6216H10.8108V23.7837H12.973V21.6216Z" fill="black"/>
<path d="M15.1351 21.6216H12.9729V23.7837H15.1351V21.6216Z" fill="black"/>
<path d="M17.2972 21.6216H15.135V23.7837H17.2972V21.6216Z" fill="black"/>
<path d="M19.4593 21.6216H17.2971V23.7837H19.4593V21.6216Z" fill="black"/>
<path d="M21.6216 21.6216H19.4595V23.7837H21.6216V21.6216Z" fill="black"/>
<path d="M25.9459 21.6216H23.7837V23.7837H25.9459V21.6216Z" fill="black"/>
<path d="M28.108 21.6216H25.9458V23.7837H28.108V21.6216Z" fill="black"/>
<path d="M32.4324 21.6216H30.2703V23.7837H32.4324V21.6216Z" fill="black"/>
<path d="M34.5945 21.6216H32.4324V23.7837H34.5945V21.6216Z" fill="black"/>
<path d="M36.7566 21.6216H34.5945V23.7837H36.7566V21.6216Z" fill="black"/>
<path d="M38.9188 21.6216H36.7566V23.7837H38.9188V21.6216Z" fill="black"/>
<path d="M43.2432 21.6216H41.0811V23.7837H43.2432V21.6216Z" fill="black"/>
<path d="M47.5674 21.6216H45.4053V23.7837H47.5674V21.6216Z" fill="black"/>
<path d="M54.054 21.6216H51.8918V23.7837H54.054V21.6216Z" fill="black"/>
<path d="M56.2161 21.6216H54.054V23.7837H56.2161V21.6216Z" fill="black"/>
<path d="M58.3782 21.6216H56.2161V23.7837H58.3782V21.6216Z" fill="black"/>
<path d="M64.8648 21.6216H62.7026V23.7837H64.8648V21.6216Z" fill="black"/>
<path d="M67.0269 21.6216H64.8647V23.7837H67.0269V21.6216Z" fill="black"/>
<path d="M75.6756 21.6216H73.5134V23.7837H75.6756V21.6216Z" fill="black"/>
<path d="M10.8106 23.7837H8.64844V25.9459H10.8106V23.7837Z" fill="black"/>
<path d="M17.2972 23.7837H15.135V25.9459H17.2972V23.7837Z" fill="black"/>
<path d="M21.6216 23.7837H19.4595V25.9459H21.6216V23.7837Z" fill="black"/>
<path d="M23.7837 23.7837H21.6216V25.9459H23.7837V23.7837Z" fill="black"/>
<path d="M25.9459 23.7837H23.7837V25.9459H25.9459V23.7837Z" fill="black"/>
<path d="M38.9188 23.7837H36.7566V25.9459H38.9188V23.7837Z" fill="black"/>
<path d="M43.2432 23.7837H41.0811V25.9459H43.2432V23.7837Z" fill="black"/>
<path d="M45.4053 23.7837H43.2432V25.9459H45.4053V23.7837Z" fill="black"/>
<path d="M47.5674 23.7837H45.4053V25.9459H47.5674V23.7837Z" fill="black"/>
<path d="M49.7295 23.7837H47.5674V25.9459H49.7295V23.7837Z" fill="black"/>
<path d="M51.8919 23.7837H49.7297V25.9459H51.8919V23.7837Z" fill="black"/>
<path d="M54.054 23.7837H51.8918V25.9459H54.054V23.7837Z" fill="black"/>
<path d="M56.2161 23.7837H54.054V25.9459H56.2161V23.7837Z" fill="black"/>
<path d="M58.3782 23.7837H56.2161V25.9459H58.3782V23.7837Z" fill="black"/>
<path d="M62.7027 23.7837H60.5405V25.9459H62.7027V23.7837Z" fill="black"/>
<path d="M64.8648 23.7837H62.7026V25.9459H64.8648V23.7837Z" fill="black"/>
<path d="M69.189 23.7837H67.0269V25.9459H69.189V23.7837Z" fill="black"/>
<path d="M71.3511 23.7837H69.189V25.9459H71.3511V23.7837Z" fill="black"/>
<path d="M73.5135 23.7837H71.3513V25.9459H73.5135V23.7837Z" fill="black"/>
<path d="M8.64849 25.9458H6.48633V28.108H8.64849V25.9458Z" fill="black"/>
<path d="M15.1351 25.9458H12.9729V28.108H15.1351V25.9458Z" fill="black"/>
<path d="M19.4593 25.9458H17.2971V28.108H19.4593V25.9458Z" fill="black"/>
<path d="M28.108 25.9458H25.9458V28.108H28.108V25.9458Z" fill="black"/>
<path d="M30.2701 25.9458H28.1079V28.108H30.2701V25.9458Z" fill="black"/>
<path d="M32.4324 25.9458H30.2703V28.108H32.4324V25.9458Z" fill="black"/>
<path d="M34.5945 25.9458H32.4324V28.108H34.5945V25.9458Z" fill="black"/>
<path d="M38.9188 25.9458H36.7566V28.108H38.9188V25.9458Z" fill="black"/>
<path d="M41.0809 25.9458H38.9187V28.108H41.0809V25.9458Z" fill="black"/>
<path d="M43.2432 25.9458H41.0811V28.108H43.2432V25.9458Z" fill="black"/>
<path d="M49.7295 25.9458H47.5674V28.108H49.7295V25.9458Z" fill="black"/>
<path d="M51.8919 25.9458H49.7297V28.108H51.8919V25.9458Z" fill="black"/>
<path d="M60.5403 25.9458H58.3782V28.108H60.5403V25.9458Z" fill="black"/>
<path d="M67.0269 25.9458H64.8647V28.108H67.0269V25.9458Z" fill="black"/>
<path d="M71.3511 25.9458H69.189V28.108H71.3511V25.9458Z" fill="black"/>
<path d="M73.5135 25.9458H71.3513V28.108H73.5135V25.9458Z" fill="black"/>
<path d="M6.48638 28.1079H4.32422V30.2701H6.48638V28.1079Z" fill="black"/>
<path d="M12.973 28.1079H10.8108V30.2701H12.973V28.1079Z" fill="black"/>
<path d="M21.6216 28.1079H19.4595V30.2701H21.6216V28.1079Z" fill="black"/>
<path d="M28.108 28.1079H25.9458V30.2701H28.108V28.1079Z" fill="black"/>
<path d="M30.2701 28.1079H28.1079V30.2701H30.2701V28.1079Z" fill="black"/>
<path d="M34.5945 28.1079H32.4324V30.2701H34.5945V28.1079Z" fill="black"/>
<path d="M43.2432 28.1079H41.0811V30.2701H43.2432V28.1079Z" fill="black"/>
<path d="M45.4053 28.1079H43.2432V30.2701H45.4053V28.1079Z" fill="black"/>
<path d="M47.5674 28.1079H45.4053V30.2701H47.5674V28.1079Z" fill="black"/>
<path d="M49.7295 28.1079H47.5674V30.2701H49.7295V28.1079Z" fill="black"/>
<path d="M51.8919 28.1079H49.7297V30.2701H51.8919V28.1079Z" fill="black"/>
<path d="M54.054 28.1079H51.8918V30.2701H54.054V28.1079Z" fill="black"/>
<path d="M60.5403 28.1079H58.3782V30.2701H60.5403V28.1079Z" fill="black"/>
<path d="M62.7027 28.1079H60.5405V30.2701H62.7027V28.1079Z" fill="black"/>
<path d="M67.0269 28.1079H64.8647V30.2701H67.0269V28.1079Z" fill="black"/>
<path d="M69.189 28.1079H67.0269V30.2701H69.189V28.1079Z" fill="black"/>
<path d="M71.3511 28.1079H69.189V30.2701H71.3511V28.1079Z" fill="black"/>
<path d="M73.5135 28.1079H71.3513V30.2701H73.5135V28.1079Z" fill="black"/>
<path d="M75.6756 28.1079H73.5134V30.2701H75.6756V28.1079Z" fill="black"/>
<path d="M10.8106 30.2703H8.64844V32.4324H10.8106V30.2703Z" fill="black"/>
<path d="M12.973 30.2703H10.8108V32.4324H12.973V30.2703Z" fill="black"/>
<path d="M19.4593 30.2703H17.2971V32.4324H19.4593V30.2703Z" fill="black"/>
<path d="M25.9459 30.2703H23.7837V32.4324H25.9459V30.2703Z" fill="black"/>
<path d="M28.108 30.2703H25.9458V32.4324H28.108V30.2703Z" fill="black"/>
<path d="M32.4324 30.2703H30.2703V32.4324H32.4324V30.2703Z" fill="black"/>
<path d="M36.7566 30.2703H34.5945V32.4324H36.7566V30.2703Z" fill="black"/>
<path d="M38.9188 30.2703H36.7566V32.4324H38.9188V30.2703Z" fill="black"/>
<path d="M41.0809 30.2703H38.9187V32.4324H41.0809V30.2703Z" fill="black"/>
<path d="M47.5674 30.2703H45.4053V32.4324H47.5674V30.2703Z" fill="black"/>
<path d="M49.7295 30.2703H47.5674V32.4324H49.7295V30.2703Z" fill="black"/>
<path d="M54.054 30.2703H51.8918V32.4324H54.054V30.2703Z" fill="black"/>
<path d="M58.3782 30.2703H56.2161V32.4324H58.3782V30.2703Z" fill="black"/>
<path d="M67.0269 30.2703H64.8647V32.4324H67.0269V30.2703Z" fill="black"/>
<path d="M69.189 30.2703H67.0269V32.4324H69.189V30.2703Z" fill="black"/>
<path d="M73.5135 30.2703H71.3513V32.4324H73.5135V30.2703Z" fill="black"/>
<path d="M75.6756 30.2703H73.5134V32.4324H75.6756V30.2703Z" fill="black"/>
<path d="M8.64849 32.4324H6.48633V34.5945H8.64849V32.4324Z" fill="black"/>
<path d="M10.8106 32.4324H8.64844V34.5945H10.8106V32.4324Z" fill="black"/>
<path d="M12.973 32.4324H10.8108V34.5945H12.973V32.4324Z" fill="black"/>
<path d="M28.108 32.4324H25.9458V34.5945H28.108V32.4324Z" fill="black"/>
<path d="M34.5945 32.4324H32.4324V34.5945H34.5945V32.4324Z" fill="black"/>
<path d="M45.4053 32.4324H43.2432V34.5945H45.4053V32.4324Z" fill="black"/>
<path d="M51.8919 32.4324H49.7297V34.5945H51.8919V32.4324Z" fill="black"/>
<path d="M56.2161 32.4324H54.054V34.5945H56.2161V32.4324Z" fill="black"/>
<path d="M62.7027 32.4324H60.5405V34.5945H62.7027V32.4324Z" fill="black"/>
<path d="M69.189 32.4324H67.0269V34.5945H69.189V32.4324Z" fill="black"/>
<path d="M71.3511 32.4324H69.189V34.5945H71.3511V32.4324Z" fill="black"/>
<path d="M73.5135 32.4324H71.3513V34.5945H73.5135V32.4324Z" fill="black"/>
<path d="M75.6756 32.4324H73.5134V34.5945H75.6756V32.4324Z" fill="black"/>
<path d="M12.973 34.5945H10.8108V36.7566H12.973V34.5945Z" fill="black"/>
<path d="M17.2972 34.5945H15.135V36.7566H17.2972V34.5945Z" fill="black"/>
<path d="M19.4593 34.5945H17.2971V36.7566H19.4593V34.5945Z" fill="black"/>
<path d="M21.6216 34.5945H19.4595V36.7566H21.6216V34.5945Z" fill="black"/>
<path d="M23.7837 34.5945H21.6216V36.7566H23.7837V34.5945Z" fill="black"/>
<path d="M28.108 34.5945H25.9458V36.7566H28.108V34.5945Z" fill="black"/>
<path d="M36.7566 34.5945H34.5945V36.7566H36.7566V34.5945Z" fill="black"/>
<path d="M49.7295 34.5945H47.5674V36.7566H49.7295V34.5945Z" fill="black"/>
<path d="M58.3782 34.5945H56.2161V36.7566H58.3782V34.5945Z" fill="black"/>
<path d="M60.5403 34.5945H58.3782V36.7566H60.5403V34.5945Z" fill="black"/>
<path d="M62.7027 34.5945H60.5405V36.7566H62.7027V34.5945Z" fill="black"/>
<path d="M71.3511 34.5945H69.189V36.7566H71.3511V34.5945Z" fill="black"/>
<path d="M73.5135 34.5945H71.3513V36.7566H73.5135V34.5945Z" fill="black"/>
<path d="M12.973 36.7566H10.8108V38.9188H12.973V36.7566Z" fill="black"/>
<path d="M21.6216 36.7566H19.4595V38.9188H21.6216V36.7566Z" fill="black"/>
<path d="M32.4324 36.7566H30.2703V38.9188H32.4324V36.7566Z" fill="black"/>
<path d="M36.7566 36.7566H34.5945V38.9188H36.7566V36.7566Z" fill="black"/>
<path d="M38.9188 36.7566H36.7566V38.9188H38.9188V36.7566Z" fill="black"/>
<path d="M41.0809 36.7566H38.9187V38.9188H41.0809V36.7566Z" fill="black"/>
<path d="M45.4053 36.7566H43.2432V38.9188H45.4053V36.7566Z" fill="black"/>
<path d="M51.8919 36.7566H49.7297V38.9188H51.8919V36.7566Z" fill="black"/>
<path d="M58.3782 36.7566H56.2161V38.9188H58.3782V36.7566Z" fill="black"/>
<path d="M60.5403 36.7566H58.3782V38.9188H60.5403V36.7566Z" fill="black"/>
<path d="M62.7027 36.7566H60.5405V38.9188H62.7027V36.7566Z" fill="black"/>
<path d="M69.189 36.7566H67.0269V38.9188H69.189V36.7566Z" fill="black"/>
<path d="M71.3511 36.7566H69.189V38.9188H71.3511V36.7566Z" fill="black"/>
<path d="M10.8106 38.9187H8.64844V41.0809H10.8106V38.9187Z" fill="black"/>
<path d="M19.4593 38.9187H17.2971V41.0809H19.4593V38.9187Z" fill="black"/>
<path d="M21.6216 38.9187H19.4595V41.0809H21.6216V38.9187Z" fill="black"/>
<path d="M28.108 38.9187H25.9458V41.0809H28.108V38.9187Z" fill="black"/>
<path d="M30.2701 38.9187H28.1079V41.0809H30.2701V38.9187Z" fill="black"/>
<path d="M41.0809 38.9187H38.9187V41.0809H41.0809V38.9187Z" fill="black"/>
<path d="M43.2432 38.9187H41.0811V41.0809H43.2432V38.9187Z" fill="black"/>
<path d="M56.2161 38.9187H54.054V41.0809H56.2161V38.9187Z" fill="black"/>
<path d="M58.3782 38.9187H56.2161V41.0809H58.3782V38.9187Z" fill="black"/>
<path d="M60.5403 38.9187H58.3782V41.0809H60.5403V38.9187Z" fill="black"/>
<path d="M64.8648 38.9187H62.7026V41.0809H64.8648V38.9187Z" fill="black"/>
<path d="M67.0269 38.9187H64.8647V41.0809H67.0269V38.9187Z" fill="black"/>
<path d="M71.3511 38.9187H69.189V41.0809H71.3511V38.9187Z" fill="black"/>
<path d="M75.6756 38.9187H73.5134V41.0809H75.6756V38.9187Z" fill="black"/>
<path d="M6.48638 41.0811H4.32422V43.2432H6.48638V41.0811Z" fill="black"/>
<path d="M17.2972 41.0811H15.135V43.2432H17.2972V41.0811Z" fill="black"/>
<path d="M21.6216 41.0811H19.4595V43.2432H21.6216V41.0811Z" fill="black"/>
<path d="M25.9459 41.0811H23.7837V43.2432H25.9459V41.0811Z" fill="black"/>
<path d="M30.2701 41.0811H28.1079V43.2432H30.2701V41.0811Z" fill="black"/>
<path d="M32.4324 41.0811H30.2703V43.2432H32.4324V41.0811Z" fill="black"/>
<path d="M34.5945 41.0811H32.4324V43.2432H34.5945V41.0811Z" fill="black"/>
<path d="M43.2432 41.0811H41.0811V43.2432H43.2432V41.0811Z" fill="black"/>
<path d="M45.4053 41.0811H43.2432V43.2432H45.4053V41.0811Z" fill="black"/>
<path d="M47.5674 41.0811H45.4053V43.2432H47.5674V41.0811Z" fill="black"/>
<path d="M51.8919 41.0811H49.7297V43.2432H51.8919V41.0811Z" fill="black"/>
<path d="M56.2161 41.0811H54.054V43.2432H56.2161V41.0811Z" fill="black"/>
<path d="M62.7027 41.0811H60.5405V43.2432H62.7027V41.0811Z" fill="black"/>
<path d="M64.8648 41.0811H62.7026V43.2432H64.8648V41.0811Z" fill="black"/>
<path d="M69.189 41.0811H67.0269V43.2432H69.189V41.0811Z" fill="black"/>
<path d="M71.3511 41.0811H69.189V43.2432H71.3511V41.0811Z" fill="black"/>
<path d="M75.6756 41.0811H73.5134V43.2432H75.6756V41.0811Z" fill="black"/>
<path d="M8.64849 43.2432H6.48633V45.4053H8.64849V43.2432Z" fill="black"/>
<path d="M10.8106 43.2432H8.64844V45.4053H10.8106V43.2432Z" fill="black"/>
<path d="M19.4593 43.2432H17.2971V45.4053H19.4593V43.2432Z" fill="black"/>
<path d="M21.6216 43.2432H19.4595V45.4053H21.6216V43.2432Z" fill="black"/>
<path d="M23.7837 43.2432H21.6216V45.4053H23.7837V43.2432Z" fill="black"/>
<path d="M25.9459 43.2432H23.7837V45.4053H25.9459V43.2432Z" fill="black"/>
<path d="M28.108 43.2432H25.9458V45.4053H28.108V43.2432Z" fill="black"/>
<path d="M30.2701 43.2432H28.1079V45.4053H30.2701V43.2432Z" fill="black"/>
<path d="M36.7566 43.2432H34.5945V45.4053H36.7566V43.2432Z" fill="black"/>
<path d="M38.9188 43.2432H36.7566V45.4053H38.9188V43.2432Z" fill="black"/>
<path d="M43.2432 43.2432H41.0811V45.4053H43.2432V43.2432Z" fill="black"/>
<path d="M49.7295 43.2432H47.5674V45.4053H49.7295V43.2432Z" fill="black"/>
<path d="M51.8919 43.2432H49.7297V45.4053H51.8919V43.2432Z" fill="black"/>
<path d="M60.5403 43.2432H58.3782V45.4053H60.5403V43.2432Z" fill="black"/>
<path d="M62.7027 43.2432H60.5405V45.4053H62.7027V43.2432Z" fill="black"/>
<path d="M64.8648 43.2432H62.7026V45.4053H64.8648V43.2432Z" fill="black"/>
<path d="M67.0269 43.2432H64.8647V45.4053H67.0269V43.2432Z" fill="black"/>
<path d="M71.3511 43.2432H69.189V45.4053H71.3511V43.2432Z" fill="black"/>
<path d="M6.48638 45.4053H4.32422V47.5674H6.48638V45.4053Z" fill="black"/>
<path d="M8.64849 45.4053H6.48633V47.5674H8.64849V45.4053Z" fill="black"/>
<path d="M10.8106 45.4053H8.64844V47.5674H10.8106V45.4053Z" fill="black"/>
<path d="M15.1351 45.4053H12.9729V47.5674H15.1351V45.4053Z" fill="black"/>
<path d="M17.2972 45.4053H15.135V47.5674H17.2972V45.4053Z" fill="black"/>
<path d="M25.9459 45.4053H23.7837V47.5674H25.9459V45.4053Z" fill="black"/>
<path d="M28.108 45.4053H25.9458V47.5674H28.108V45.4053Z" fill="black"/>
<path d="M36.7566 45.4053H34.5945V47.5674H36.7566V45.4053Z" fill="black"/>
<path d="M41.0809 45.4053H38.9187V47.5674H41.0809V45.4053Z" fill="black"/>
<path d="M49.7295 45.4053H47.5674V47.5674H49.7295V45.4053Z" fill="black"/>
<path d="M51.8919 45.4053H49.7297V47.5674H51.8919V45.4053Z" fill="black"/>
<path d="M54.054 45.4053H51.8918V47.5674H54.054V45.4053Z" fill="black"/>
<path d="M60.5403 45.4053H58.3782V47.5674H60.5403V45.4053Z" fill="black"/>
<path d="M64.8648 45.4053H62.7026V47.5674H64.8648V45.4053Z" fill="black"/>
<path d="M67.0269 45.4053H64.8647V47.5674H67.0269V45.4053Z" fill="black"/>
<path d="M69.189 45.4053H67.0269V47.5674H69.189V45.4053Z" fill="black"/>
<path d="M71.3511 45.4053H69.189V47.5674H71.3511V45.4053Z" fill="black"/>
<path d="M73.5135 45.4053H71.3513V47.5674H73.5135V45.4053Z" fill="black"/>
<path d="M75.6756 45.4053H73.5134V47.5674H75.6756V45.4053Z" fill="black"/>
<path d="M19.4593 47.5674H17.2971V49.7295H19.4593V47.5674Z" fill="black"/>
<path d="M21.6216 47.5674H19.4595V49.7295H21.6216V47.5674Z" fill="black"/>
<path d="M25.9459 47.5674H23.7837V49.7295H25.9459V47.5674Z" fill="black"/>
<path d="M30.2701 47.5674H28.1079V49.7295H30.2701V47.5674Z" fill="black"/>
<path d="M32.4324 47.5674H30.2703V49.7295H32.4324V47.5674Z" fill="black"/>
<path d="M34.5945 47.5674H32.4324V49.7295H34.5945V47.5674Z" fill="black"/>
<path d="M36.7566 47.5674H34.5945V49.7295H36.7566V47.5674Z" fill="black"/>
<path d="M38.9188 47.5674H36.7566V49.7295H38.9188V47.5674Z" fill="black"/>
<path d="M41.0809 47.5674H38.9187V49.7295H41.0809V47.5674Z" fill="black"/>
<path d="M47.5674 47.5674H45.4053V49.7295H47.5674V47.5674Z" fill="black"/>
<path d="M51.8919 47.5674H49.7297V49.7295H51.8919V47.5674Z" fill="black"/>
<path d="M54.054 47.5674H51.8918V49.7295H54.054V47.5674Z" fill="black"/>
<path d="M60.5403 47.5674H58.3782V49.7295H60.5403V47.5674Z" fill="black"/>
<path d="M67.0269 47.5674H64.8647V49.7295H67.0269V47.5674Z" fill="black"/>
<path d="M69.189 47.5674H67.0269V49.7295H69.189V47.5674Z" fill="black"/>
<path d="M75.6756 47.5674H73.5134V49.7295H75.6756V47.5674Z" fill="black"/>
<path d="M6.48638 49.7297H4.32422V51.8919H6.48638V49.7297Z" fill="black"/>
<path d="M8.64849 49.7297H6.48633V51.8919H8.64849V49.7297Z" fill="black"/>
<path d="M10.8106 49.7297H8.64844V51.8919H10.8106V49.7297Z" fill="black"/>
<path d="M12.973 49.7297H10.8108V51.8919H12.973V49.7297Z" fill="black"/>
<path d="M17.2972 49.7297H15.135V51.8919H17.2972V49.7297Z" fill="black"/>
<path d="M21.6216 49.7297H19.4595V51.8919H21.6216V49.7297Z" fill="black"/>
<path d="M23.7837 49.7297H21.6216V51.8919H23.7837V49.7297Z" fill="black"/>
<path d="M25.9459 49.7297H23.7837V51.8919H25.9459V49.7297Z" fill="black"/>
<path d="M30.2701 49.7297H28.1079V51.8919H30.2701V49.7297Z" fill="black"/>
<path d="M32.4324 49.7297H30.2703V51.8919H32.4324V49.7297Z" fill="black"/>
<path d="M36.7566 49.7297H34.5945V51.8919H36.7566V49.7297Z" fill="black"/>
<path d="M43.2432 49.7297H41.0811V51.8919H43.2432V49.7297Z" fill="black"/>
<path d="M45.4053 49.7297H43.2432V51.8919H45.4053V49.7297Z" fill="black"/>
<path d="M49.7295 49.7297H47.5674V51.8919H49.7295V49.7297Z" fill="black"/>
<path d="M54.054 49.7297H51.8918V51.8919H54.054V49.7297Z" fill="black"/>
<path d="M62.7027 49.7297H60.5405V51.8919H62.7027V49.7297Z" fill="black"/>
<path d="M69.189 49.7297H67.0269V51.8919H69.189V49.7297Z" fill="black"/>
<path d="M75.6756 49.7297H73.5134V51.8919H75.6756V49.7297Z" fill="black"/>
<path d="M6.48638 51.8918H4.32422V54.054H6.48638V51.8918Z" fill="black"/>
<path d="M12.973 51.8918H10.8108V54.054H12.973V51.8918Z" fill="black"/>
<path d="M15.1351 51.8918H12.9729V54.054H15.1351V51.8918Z" fill="black"/>
<path d="M19.4593 51.8918H17.2971V54.054H19.4593V51.8918Z" fill="black"/>
<path d="M21.6216 51.8918H19.4595V54.054H21.6216V51.8918Z" fill="black"/>
<path d="M25.9459 51.8918H23.7837V54.054H25.9459V51.8918Z" fill="black"/>
<path d="M34.5945 51.8918H32.4324V54.054H34.5945V51.8918Z" fill="black"/>
<path d="M38.9188 51.8918H36.7566V54.054H38.9188V51.8918Z" fill="black"/>
<path d="M41.0809 51.8918H38.9187V54.054H41.0809V51.8918Z" fill="black"/>
<path d="M47.5674 51.8918H45.4053V54.054H47.5674V51.8918Z" fill="black"/>
<path d="M54.054 51.8918H51.8918V54.054H54.054V51.8918Z" fill="black"/>
<path d="M60.5403 51.8918H58.3782V54.054H60.5403V51.8918Z" fill="black"/>
<path d="M73.5135 51.8918H71.3513V54.054H73.5135V51.8918Z" fill="black"/>
<path d="M6.48638 54.054H4.32422V56.2161H6.48638V54.054Z" fill="black"/>
<path d="M21.6216 54.054H19.4595V56.2161H21.6216V54.054Z" fill="black"/>
<path d="M30.2701 54.054H28.1079V56.2161H30.2701V54.054Z" fill="black"/>
<path d="M34.5945 54.054H32.4324V56.2161H34.5945V54.054Z" fill="black"/>
<path d="M36.7566 54.054H34.5945V56.2161H36.7566V54.054Z" fill="black"/>
<path d="M41.0809 54.054H38.9187V56.2161H41.0809V54.054Z" fill="black"/>
<path d="M47.5674 54.054H45.4053V56.2161H47.5674V54.054Z" fill="black"/>
<path d="M49.7295 54.054H47.5674V56.2161H49.7295V54.054Z" fill="black"/>
<path d="M51.8919 54.054H49.7297V56.2161H51.8919V54.054Z" fill="black"/>
<path d="M56.2161 54.054H54.054V56.2161H56.2161V54.054Z" fill="black"/>
<path d="M62.7027 54.054H60.5405V56.2161H62.7027V54.054Z" fill="black"/>
<path d="M64.8648 54.054H62.7026V56.2161H64.8648V54.054Z" fill="black"/>
<path d="M67.0269 54.054H64.8647V56.2161H67.0269V54.054Z" fill="black"/>
<path d="M69.189 54.054H67.0269V56.2161H69.189V54.054Z" fill="black"/>
<path d="M71.3511 54.054H69.189V56.2161H71.3511V54.054Z" fill="black"/>
<path d="M73.5135 54.054H71.3513V56.2161H73.5135V54.054Z" fill="black"/>
<path d="M6.48638 56.2161H4.32422V58.3782H6.48638V56.2161Z" fill="black"/>
<path d="M10.8106 56.2161H8.64844V58.3782H10.8106V56.2161Z" fill="black"/>
<path d="M12.973 56.2161H10.8108V58.3782H12.973V56.2161Z" fill="black"/>
<path d="M15.1351 56.2161H12.9729V58.3782H15.1351V56.2161Z" fill="black"/>
<path d="M19.4593 56.2161H17.2971V58.3782H19.4593V56.2161Z" fill="black"/>
<path d="M21.6216 56.2161H19.4595V58.3782H21.6216V56.2161Z" fill="black"/>
<path d="M23.7837 56.2161H21.6216V58.3782H23.7837V56.2161Z" fill="black"/>
<path d="M32.4324 56.2161H30.2703V58.3782H32.4324V56.2161Z" fill="black"/>
<path d="M34.5945 56.2161H32.4324V58.3782H34.5945V56.2161Z" fill="black"/>
<path d="M41.0809 56.2161H38.9187V58.3782H41.0809V56.2161Z" fill="black"/>
<path d="M43.2432 56.2161H41.0811V58.3782H43.2432V56.2161Z" fill="black"/>
<path d="M47.5674 56.2161H45.4053V58.3782H47.5674V56.2161Z" fill="black"/>
<path d="M54.054 56.2161H51.8918V58.3782H54.054V56.2161Z" fill="black"/>
<path d="M56.2161 56.2161H54.054V58.3782H56.2161V56.2161Z" fill="black"/>
<path d="M58.3782 56.2161H56.2161V58.3782H58.3782V56.2161Z" fill="black"/>
<path d="M60.5403 56.2161H58.3782V58.3782H60.5403V56.2161Z" fill="black"/>
<path d="M62.7027 56.2161H60.5405V58.3782H62.7027V56.2161Z" fill="black"/>
<path d="M64.8648 56.2161H62.7026V58.3782H64.8648V56.2161Z" fill="black"/>
<path d="M67.0269 56.2161H64.8647V58.3782H67.0269V56.2161Z" fill="black"/>
<path d="M71.3511 56.2161H69.189V58.3782H71.3511V56.2161Z" fill="black"/>
<path d="M75.6756 56.2161H73.5134V58.3782H75.6756V56.2161Z" fill="black"/>
<path d="M23.7837 58.3782H21.6216V60.5403H23.7837V58.3782Z" fill="black"/>
<path d="M25.9459 58.3782H23.7837V60.5403H25.9459V58.3782Z" fill="black"/>
<path d="M30.2701 58.3782H28.1079V60.5403H30.2701V58.3782Z" fill="black"/>
<path d="M34.5945 58.3782H32.4324V60.5403H34.5945V58.3782Z" fill="black"/>
<path d="M36.7566 58.3782H34.5945V60.5403H36.7566V58.3782Z" fill="black"/>
<path d="M45.4053 58.3782H43.2432V60.5403H45.4053V58.3782Z" fill="black"/>
<path d="M47.5674 58.3782H45.4053V60.5403H47.5674V58.3782Z" fill="black"/>
<path d="M49.7295 58.3782H47.5674V60.5403H49.7295V58.3782Z" fill="black"/>
<path d="M51.8919 58.3782H49.7297V60.5403H51.8919V58.3782Z" fill="black"/>
<path d="M58.3782 58.3782H56.2161V60.5403H58.3782V58.3782Z" fill="black"/>
<path d="M67.0269 58.3782H64.8647V60.5403H67.0269V58.3782Z" fill="black"/>
<path d="M71.3511 58.3782H69.189V60.5403H71.3511V58.3782Z" fill="black"/>
<path d="M75.6756 58.3782H73.5134V60.5403H75.6756V58.3782Z" fill="black"/>
<path d="M6.48638 60.5405H4.32422V62.7027H6.48638V60.5405Z" fill="black"/>
<path d="M8.64849 60.5405H6.48633V62.7027H8.64849V60.5405Z" fill="black"/>
<path d="M10.8106 60.5405H8.64844V62.7027H10.8106V60.5405Z" fill="black"/>
<path d="M12.973 60.5405H10.8108V62.7027H12.973V60.5405Z" fill="black"/>
<path d="M15.1351 60.5405H12.9729V62.7027H15.1351V60.5405Z" fill="black"/>
<path d="M17.2972 60.5405H15.135V62.7027H17.2972V60.5405Z" fill="black"/>
<path d="M19.4593 60.5405H17.2971V62.7027H19.4593V60.5405Z" fill="black"/>
<path d="M23.7837 60.5405H21.6216V62.7027H23.7837V60.5405Z" fill="black"/>
<path d="M30.2701 60.5405H28.1079V62.7027H30.2701V60.5405Z" fill="black"/>
<path d="M34.5945 60.5405H32.4324V62.7027H34.5945V60.5405Z" fill="black"/>
<path d="M38.9188 60.5405H36.7566V62.7027H38.9188V60.5405Z" fill="black"/>
<path d="M45.4053 60.5405H43.2432V62.7027H45.4053V60.5405Z" fill="black"/>
<path d="M49.7295 60.5405H47.5674V62.7027H49.7295V60.5405Z" fill="black"/>
<path d="M54.054 60.5405H51.8918V62.7027H54.054V60.5405Z" fill="black"/>
<path d="M56.2161 60.5405H54.054V62.7027H56.2161V60.5405Z" fill="black"/>
<path d="M58.3782 60.5405H56.2161V62.7027H58.3782V60.5405Z" fill="black"/>
<path d="M62.7027 60.5405H60.5405V62.7027H62.7027V60.5405Z" fill="black"/>
<path d="M67.0269 60.5405H64.8647V62.7027H67.0269V60.5405Z" fill="black"/>
<path d="M71.3511 60.5405H69.189V62.7027H71.3511V60.5405Z" fill="black"/>
<path d="M73.5135 60.5405H71.3513V62.7027H73.5135V60.5405Z" fill="black"/>
<path d="M6.48638 62.7026H4.32422V64.8648H6.48638V62.7026Z" fill="black"/>
<path d="M19.4593 62.7026H17.2971V64.8648H19.4593V62.7026Z" fill="black"/>
<path d="M23.7837 62.7026H21.6216V64.8648H23.7837V62.7026Z" fill="black"/>
<path d="M32.4324 62.7026H30.2703V64.8648H32.4324V62.7026Z" fill="black"/>
<path d="M36.7566 62.7026H34.5945V64.8648H36.7566V62.7026Z" fill="black"/>
<path d="M38.9188 62.7026H36.7566V64.8648H38.9188V62.7026Z" fill="black"/>
<path d="M47.5674 62.7026H45.4053V64.8648H47.5674V62.7026Z" fill="black"/>
<path d="M49.7295 62.7026H47.5674V64.8648H49.7295V62.7026Z" fill="black"/>
<path d="M51.8919 62.7026H49.7297V64.8648H51.8919V62.7026Z" fill="black"/>
<path d="M54.054 62.7026H51.8918V64.8648H54.054V62.7026Z" fill="black"/>
<path d="M56.2161 62.7026H54.054V64.8648H56.2161V62.7026Z" fill="black"/>
<path d="M58.3782 62.7026H56.2161V64.8648H58.3782V62.7026Z" fill="black"/>
<path d="M67.0269 62.7026H64.8647V64.8648H67.0269V62.7026Z" fill="black"/>
<path d="M69.189 62.7026H67.0269V64.8648H69.189V62.7026Z" fill="black"/>
<path d="M71.3511 62.7026H69.189V64.8648H71.3511V62.7026Z" fill="black"/>
<path d="M75.6756 62.7026H73.5134V64.8648H75.6756V62.7026Z" fill="black"/>
<path d="M6.48638 64.8647H4.32422V67.0269H6.48638V64.8647Z" fill="black"/>
<path d="M10.8106 64.8647H8.64844V67.0269H10.8106V64.8647Z" fill="black"/>
<path d="M12.973 64.8647H10.8108V67.0269H12.973V64.8647Z" fill="black"/>
<path d="M15.1351 64.8647H12.9729V67.0269H15.1351V64.8647Z" fill="black"/>
<path d="M19.4593 64.8647H17.2971V67.0269H19.4593V64.8647Z" fill="black"/>
<path d="M23.7837 64.8647H21.6216V67.0269H23.7837V64.8647Z" fill="black"/>
<path d="M25.9459 64.8647H23.7837V67.0269H25.9459V64.8647Z" fill="black"/>
<path d="M28.108 64.8647H25.9458V67.0269H28.108V64.8647Z" fill="black"/>
<path d="M30.2701 64.8647H28.1079V67.0269H30.2701V64.8647Z" fill="black"/>
<path d="M34.5945 64.8647H32.4324V67.0269H34.5945V64.8647Z" fill="black"/>
<path d="M45.4053 64.8647H43.2432V67.0269H45.4053V64.8647Z" fill="black"/>
<path d="M47.5674 64.8647H45.4053V67.0269H47.5674V64.8647Z" fill="black"/>
<path d="M54.054 64.8647H51.8918V67.0269H54.054V64.8647Z" fill="black"/>
<path d="M58.3782 64.8647H56.2161V67.0269H58.3782V64.8647Z" fill="black"/>
<path d="M60.5403 64.8647H58.3782V67.0269H60.5403V64.8647Z" fill="black"/>
<path d="M62.7027 64.8647H60.5405V67.0269H62.7027V64.8647Z" fill="black"/>
<path d="M64.8648 64.8647H62.7026V67.0269H64.8648V64.8647Z" fill="black"/>
<path d="M67.0269 64.8647H64.8647V67.0269H67.0269V64.8647Z" fill="black"/>
<path d="M69.189 64.8647H67.0269V67.0269H69.189V64.8647Z" fill="black"/>
<path d="M73.5135 64.8647H71.3513V67.0269H73.5135V64.8647Z" fill="black"/>
<path d="M75.6756 64.8647H73.5134V67.0269H75.6756V64.8647Z" fill="black"/>
<path d="M6.48638 67.0269H4.32422V69.189H6.48638V67.0269Z" fill="black"/>
<path d="M10.8106 67.0269H8.64844V69.189H10.8106V67.0269Z" fill="black"/>
<path d="M12.973 67.0269H10.8108V69.189H12.973V67.0269Z" fill="black"/>
<path d="M15.1351 67.0269H12.9729V69.189H15.1351V67.0269Z" fill="black"/>
<path d="M19.4593 67.0269H17.2971V69.189H19.4593V67.0269Z" fill="black"/>
<path d="M23.7837 67.0269H21.6216V69.189H23.7837V67.0269Z" fill="black"/>
<path d="M25.9459 67.0269H23.7837V69.189H25.9459V67.0269Z" fill="black"/>
<path d="M28.108 67.0269H25.9458V69.189H28.108V67.0269Z" fill="black"/>
<path d="M30.2701 67.0269H28.1079V69.189H30.2701V67.0269Z" fill="black"/>
<path d="M34.5945 67.0269H32.4324V69.189H34.5945V67.0269Z" fill="black"/>
<path d="M38.9188 67.0269H36.7566V69.189H38.9188V67.0269Z" fill="black"/>
<path d="M43.2432 67.0269H41.0811V69.189H43.2432V67.0269Z" fill="black"/>
<path d="M51.8919 67.0269H49.7297V69.189H51.8919V67.0269Z" fill="black"/>
<path d="M60.5403 67.0269H58.3782V69.189H60.5403V67.0269Z" fill="black"/>
<path d="M67.0269 67.0269H64.8647V69.189H67.0269V67.0269Z" fill="black"/>
<path d="M69.189 67.0269H67.0269V69.189H69.189V67.0269Z" fill="black"/>
<path d="M75.6756 67.0269H73.5134V69.189H75.6756V67.0269Z" fill="black"/>
<path d="M6.48638 69.189H4.32422V71.3511H6.48638V69.189Z" fill="black"/>
<path d="M10.8106 69.189H8.64844V71.3511H10.8106V69.189Z" fill="black"/>
<path d="M12.973 69.189H10.8108V71.3511H12.973V69.189Z" fill="black"/>
<path d="M15.1351 69.189H12.9729V71.3511H15.1351V69.189Z" fill="black"/>
<path d="M19.4593 69.189H17.2971V71.3511H19.4593V69.189Z" fill="black"/>
<path d="M23.7837 69.189H21.6216V71.3511H23.7837V69.189Z" fill="black"/>
<path d="M36.7566 69.189H34.5945V71.3511H36.7566V69.189Z" fill="black"/>
<path d="M41.0809 69.189H38.9187V71.3511H41.0809V69.189Z" fill="black"/>
<path d="M58.3782 69.189H56.2161V71.3511H58.3782V69.189Z" fill="black"/>
<path d="M60.5403 69.189H58.3782V71.3511H60.5403V69.189Z" fill="black"/>
<path d="M62.7027 69.189H60.5405V71.3511H62.7027V69.189Z" fill="black"/>
<path d="M64.8648 69.189H62.7026V71.3511H64.8648V69.189Z" fill="black"/>
<path d="M71.3511 69.189H69.189V71.3511H71.3511V69.189Z" fill="black"/>
<path d="M6.48638 71.3513H4.32422V73.5135H6.48638V71.3513Z" fill="black"/>
<path d="M19.4593 71.3513H17.2971V73.5135H19.4593V71.3513Z" fill="black"/>
<path d="M23.7837 71.3513H21.6216V73.5135H23.7837V71.3513Z" fill="black"/>
<path d="M25.9459 71.3513H23.7837V73.5135H25.9459V71.3513Z" fill="black"/>
<path d="M34.5945 71.3513H32.4324V73.5135H34.5945V71.3513Z" fill="black"/>
<path d="M38.9188 71.3513H36.7566V73.5135H38.9188V71.3513Z" fill="black"/>
<path d="M41.0809 71.3513H38.9187V73.5135H41.0809V71.3513Z" fill="black"/>
<path d="M45.4053 71.3513H43.2432V73.5135H45.4053V71.3513Z" fill="black"/>
<path d="M47.5674 71.3513H45.4053V73.5135H47.5674V71.3513Z" fill="black"/>
<path d="M49.7295 71.3513H47.5674V73.5135H49.7295V71.3513Z" fill="black"/>
<path d="M51.8919 71.3513H49.7297V73.5135H51.8919V71.3513Z" fill="black"/>
<path d="M54.054 71.3513H51.8918V73.5135H54.054V71.3513Z" fill="black"/>
<path d="M58.3782 71.3513H56.2161V73.5135H58.3782V71.3513Z" fill="black"/>
<path d="M60.5403 71.3513H58.3782V73.5135H60.5403V71.3513Z" fill="black"/>
<path d="M67.0269 71.3513H64.8647V73.5135H67.0269V71.3513Z" fill="black"/>
<path d="M69.189 71.3513H67.0269V73.5135H69.189V71.3513Z" fill="black"/>
<path d="M71.3511 71.3513H69.189V73.5135H71.3511V71.3513Z" fill="black"/>
<path d="M6.48638 73.5134H4.32422V75.6756H6.48638V73.5134Z" fill="black"/>
<path d="M8.64849 73.5134H6.48633V75.6756H8.64849V73.5134Z" fill="black"/>
<path d="M10.8106 73.5134H8.64844V75.6756H10.8106V73.5134Z" fill="black"/>
<path d="M12.973 73.5134H10.8108V75.6756H12.973V73.5134Z" fill="black"/>
<path d="M15.1351 73.5134H12.9729V75.6756H15.1351V73.5134Z" fill="black"/>
<path d="M17.2972 73.5134H15.135V75.6756H17.2972V73.5134Z" fill="black"/>
<path d="M19.4593 73.5134H17.2971V75.6756H19.4593V73.5134Z" fill="black"/>
<path d="M25.9459 73.5134H23.7837V75.6756H25.9459V73.5134Z" fill="black"/>
<path d="M30.2701 73.5134H28.1079V75.6756H30.2701V73.5134Z" fill="black"/>
<path d="M32.4324 73.5134H30.2703V75.6756H32.4324V73.5134Z" fill="black"/>
<path d="M34.5945 73.5134H32.4324V75.6756H34.5945V73.5134Z" fill="black"/>
<path d="M36.7566 73.5134H34.5945V75.6756H36.7566V73.5134Z" fill="black"/>
<path d="M45.4053 73.5134H43.2432V75.6756H45.4053V73.5134Z" fill="black"/>
<path d="M54.054 73.5134H51.8918V75.6756H54.054V73.5134Z" fill="black"/>
<path d="M56.2161 73.5134H54.054V75.6756H56.2161V73.5134Z" fill="black"/>
<path d="M58.3782 73.5134H56.2161V75.6756H58.3782V73.5134Z" fill="black"/>
<path d="M62.7027 73.5134H60.5405V75.6756H62.7027V73.5134Z" fill="black"/>
<path d="M64.8648 73.5134H62.7026V75.6756H64.8648V73.5134Z" fill="black"/>
<path d="M73.5135 73.5134H71.3513V75.6756H73.5135V73.5134Z" fill="black"/>
</g>
<defs>
<clipPath id="clip0_1708_2975">
<rect width="80" height="80" fill="white"/>
</clipPath>
</defs>
</svg>
