<svg width="80" height="80" viewBox="0 0 80 80" fill="none" xmlns="http://www.w3.org/2000/svg">
<g clip-path="url(#clip0_1708_3543)">
<path d="M80 0H0V80H80V0Z" fill="white"/>
<path d="M6.48638 4.32434H4.32422V6.4865H6.48638V4.32434Z" fill="black"/>
<path d="M8.64849 4.32434H6.48633V6.4865H8.64849V4.32434Z" fill="black"/>
<path d="M10.8106 4.32434H8.64844V6.4865H10.8106V4.32434Z" fill="black"/>
<path d="M12.973 4.32434H10.8108V6.4865H12.973V4.32434Z" fill="black"/>
<path d="M15.1351 4.32434H12.9729V6.4865H15.1351V4.32434Z" fill="black"/>
<path d="M17.2972 4.32434H15.135V6.4865H17.2972V4.32434Z" fill="black"/>
<path d="M19.4593 4.32434H17.2971V6.4865H19.4593V4.32434Z" fill="black"/>
<path d="M23.7837 4.32434H21.6216V6.4865H23.7837V4.32434Z" fill="black"/>
<path d="M25.9459 4.32434H23.7837V6.4865H25.9459V4.32434Z" fill="black"/>
<path d="M30.2701 4.32434H28.1079V6.4865H30.2701V4.32434Z" fill="black"/>
<path d="M41.0809 4.32434H38.9187V6.4865H41.0809V4.32434Z" fill="black"/>
<path d="M45.4053 4.32434H43.2432V6.4865H45.4053V4.32434Z" fill="black"/>
<path d="M47.5674 4.32434H45.4053V6.4865H47.5674V4.32434Z" fill="black"/>
<path d="M49.7295 4.32434H47.5674V6.4865H49.7295V4.32434Z" fill="black"/>
<path d="M54.054 4.32434H51.8918V6.4865H54.054V4.32434Z" fill="black"/>
<path d="M56.2161 4.32434H54.054V6.4865H56.2161V4.32434Z" fill="black"/>
<path d="M62.7027 4.32434H60.5405V6.4865H62.7027V4.32434Z" fill="black"/>
<path d="M64.8648 4.32434H62.7026V6.4865H64.8648V4.32434Z" fill="black"/>
<path d="M67.0269 4.32434H64.8647V6.4865H67.0269V4.32434Z" fill="black"/>
<path d="M69.189 4.32434H67.0269V6.4865H69.189V4.32434Z" fill="black"/>
<path d="M71.3511 4.32434H69.189V6.4865H71.3511V4.32434Z" fill="black"/>
<path d="M73.5135 4.32434H71.3513V6.4865H73.5135V4.32434Z" fill="black"/>
<path d="M75.6756 4.32434H73.5134V6.4865H75.6756V4.32434Z" fill="black"/>
<path d="M6.48638 6.48645H4.32422V8.64861H6.48638V6.48645Z" fill="black"/>
<path d="M19.4593 6.48645H17.2971V8.64861H19.4593V6.48645Z" fill="black"/>
<path d="M32.4324 6.48645H30.2703V8.64861H32.4324V6.48645Z" fill="black"/>
<path d="M36.7566 6.48645H34.5945V8.64861H36.7566V6.48645Z" fill="black"/>
<path d="M38.9188 6.48645H36.7566V8.64861H38.9188V6.48645Z" fill="black"/>
<path d="M45.4053 6.48645H43.2432V8.64861H45.4053V6.48645Z" fill="black"/>
<path d="M62.7027 6.48645H60.5405V8.64861H62.7027V6.48645Z" fill="black"/>
<path d="M75.6756 6.48645H73.5134V8.64861H75.6756V6.48645Z" fill="black"/>
<path d="M6.48638 8.64868H4.32422V10.8108H6.48638V8.64868Z" fill="black"/>
<path d="M10.8106 8.64868H8.64844V10.8108H10.8106V8.64868Z" fill="black"/>
<path d="M12.973 8.64868H10.8108V10.8108H12.973V8.64868Z" fill="black"/>
<path d="M15.1351 8.64868H12.9729V10.8108H15.1351V8.64868Z" fill="black"/>
<path d="M19.4593 8.64868H17.2971V10.8108H19.4593V8.64868Z" fill="black"/>
<path d="M25.9459 8.64868H23.7837V10.8108H25.9459V8.64868Z" fill="black"/>
<path d="M30.2701 8.64868H28.1079V10.8108H30.2701V8.64868Z" fill="black"/>
<path d="M34.5945 8.64868H32.4324V10.8108H34.5945V8.64868Z" fill="black"/>
<path d="M36.7566 8.64868H34.5945V10.8108H36.7566V8.64868Z" fill="black"/>
<path d="M38.9188 8.64868H36.7566V10.8108H38.9188V8.64868Z" fill="black"/>
<path d="M49.7295 8.64868H47.5674V10.8108H49.7295V8.64868Z" fill="black"/>
<path d="M51.8919 8.64868H49.7297V10.8108H51.8919V8.64868Z" fill="black"/>
<path d="M54.054 8.64868H51.8918V10.8108H54.054V8.64868Z" fill="black"/>
<path d="M62.7027 8.64868H60.5405V10.8108H62.7027V8.64868Z" fill="black"/>
<path d="M67.0269 8.64868H64.8647V10.8108H67.0269V8.64868Z" fill="black"/>
<path d="M69.189 8.64868H67.0269V10.8108H69.189V8.64868Z" fill="black"/>
<path d="M71.3511 8.64868H69.189V10.8108H71.3511V8.64868Z" fill="black"/>
<path d="M75.6756 8.64868H73.5134V10.8108H75.6756V8.64868Z" fill="black"/>
<path d="M6.48638 10.8108H4.32422V12.973H6.48638V10.8108Z" fill="black"/>
<path d="M10.8106 10.8108H8.64844V12.973H10.8106V10.8108Z" fill="black"/>
<path d="M12.973 10.8108H10.8108V12.973H12.973V10.8108Z" fill="black"/>
<path d="M15.1351 10.8108H12.9729V12.973H15.1351V10.8108Z" fill="black"/>
<path d="M19.4593 10.8108H17.2971V12.973H19.4593V10.8108Z" fill="black"/>
<path d="M25.9459 10.8108H23.7837V12.973H25.9459V10.8108Z" fill="black"/>
<path d="M32.4324 10.8108H30.2703V12.973H32.4324V10.8108Z" fill="black"/>
<path d="M36.7566 10.8108H34.5945V12.973H36.7566V10.8108Z" fill="black"/>
<path d="M41.0809 10.8108H38.9187V12.973H41.0809V10.8108Z" fill="black"/>
<path d="M45.4053 10.8108H43.2432V12.973H45.4053V10.8108Z" fill="black"/>
<path d="M47.5674 10.8108H45.4053V12.973H47.5674V10.8108Z" fill="black"/>
<path d="M54.054 10.8108H51.8918V12.973H54.054V10.8108Z" fill="black"/>
<path d="M56.2161 10.8108H54.054V12.973H56.2161V10.8108Z" fill="black"/>
<path d="M58.3782 10.8108H56.2161V12.973H58.3782V10.8108Z" fill="black"/>
<path d="M62.7027 10.8108H60.5405V12.973H62.7027V10.8108Z" fill="black"/>
<path d="M67.0269 10.8108H64.8647V12.973H67.0269V10.8108Z" fill="black"/>
<path d="M69.189 10.8108H67.0269V12.973H69.189V10.8108Z" fill="black"/>
<path d="M71.3511 10.8108H69.189V12.973H71.3511V10.8108Z" fill="black"/>
<path d="M75.6756 10.8108H73.5134V12.973H75.6756V10.8108Z" fill="black"/>
<path d="M6.48638 12.973H4.32422V15.1352H6.48638V12.973Z" fill="black"/>
<path d="M10.8106 12.973H8.64844V15.1352H10.8106V12.973Z" fill="black"/>
<path d="M12.973 12.973H10.8108V15.1352H12.973V12.973Z" fill="black"/>
<path d="M15.1351 12.973H12.9729V15.1352H15.1351V12.973Z" fill="black"/>
<path d="M19.4593 12.973H17.2971V15.1352H19.4593V12.973Z" fill="black"/>
<path d="M23.7837 12.973H21.6216V15.1352H23.7837V12.973Z" fill="black"/>
<path d="M28.108 12.973H25.9458V15.1352H28.108V12.973Z" fill="black"/>
<path d="M34.5945 12.973H32.4324V15.1352H34.5945V12.973Z" fill="black"/>
<path d="M36.7566 12.973H34.5945V15.1352H36.7566V12.973Z" fill="black"/>
<path d="M38.9188 12.973H36.7566V15.1352H38.9188V12.973Z" fill="black"/>
<path d="M41.0809 12.973H38.9187V15.1352H41.0809V12.973Z" fill="black"/>
<path d="M43.2432 12.973H41.0811V15.1352H43.2432V12.973Z" fill="black"/>
<path d="M49.7295 12.973H47.5674V15.1352H49.7295V12.973Z" fill="black"/>
<path d="M51.8919 12.973H49.7297V15.1352H51.8919V12.973Z" fill="black"/>
<path d="M54.054 12.973H51.8918V15.1352H54.054V12.973Z" fill="black"/>
<path d="M56.2161 12.973H54.054V15.1352H56.2161V12.973Z" fill="black"/>
<path d="M62.7027 12.973H60.5405V15.1352H62.7027V12.973Z" fill="black"/>
<path d="M67.0269 12.973H64.8647V15.1352H67.0269V12.973Z" fill="black"/>
<path d="M69.189 12.973H67.0269V15.1352H69.189V12.973Z" fill="black"/>
<path d="M71.3511 12.973H69.189V15.1352H71.3511V12.973Z" fill="black"/>
<path d="M75.6756 12.973H73.5134V15.1352H75.6756V12.973Z" fill="black"/>
<path d="M6.48638 15.1351H4.32422V17.2973H6.48638V15.1351Z" fill="black"/>
<path d="M19.4593 15.1351H17.2971V17.2973H19.4593V15.1351Z" fill="black"/>
<path d="M23.7837 15.1351H21.6216V17.2973H23.7837V15.1351Z" fill="black"/>
<path d="M25.9459 15.1351H23.7837V17.2973H25.9459V15.1351Z" fill="black"/>
<path d="M28.108 15.1351H25.9458V17.2973H28.108V15.1351Z" fill="black"/>
<path d="M30.2701 15.1351H28.1079V17.2973H30.2701V15.1351Z" fill="black"/>
<path d="M36.7566 15.1351H34.5945V17.2973H36.7566V15.1351Z" fill="black"/>
<path d="M38.9188 15.1351H36.7566V17.2973H38.9188V15.1351Z" fill="black"/>
<path d="M41.0809 15.1351H38.9187V17.2973H41.0809V15.1351Z" fill="black"/>
<path d="M45.4053 15.1351H43.2432V17.2973H45.4053V15.1351Z" fill="black"/>
<path d="M47.5674 15.1351H45.4053V17.2973H47.5674V15.1351Z" fill="black"/>
<path d="M51.8919 15.1351H49.7297V17.2973H51.8919V15.1351Z" fill="black"/>
<path d="M62.7027 15.1351H60.5405V17.2973H62.7027V15.1351Z" fill="black"/>
<path d="M75.6756 15.1351H73.5134V17.2973H75.6756V15.1351Z" fill="black"/>
<path d="M6.48638 17.2974H4.32422V19.4595H6.48638V17.2974Z" fill="black"/>
<path d="M8.64849 17.2974H6.48633V19.4595H8.64849V17.2974Z" fill="black"/>
<path d="M10.8106 17.2974H8.64844V19.4595H10.8106V17.2974Z" fill="black"/>
<path d="M12.973 17.2974H10.8108V19.4595H12.973V17.2974Z" fill="black"/>
<path d="M15.1351 17.2974H12.9729V19.4595H15.1351V17.2974Z" fill="black"/>
<path d="M17.2972 17.2974H15.135V19.4595H17.2972V17.2974Z" fill="black"/>
<path d="M19.4593 17.2974H17.2971V19.4595H19.4593V17.2974Z" fill="black"/>
<path d="M23.7837 17.2974H21.6216V19.4595H23.7837V17.2974Z" fill="black"/>
<path d="M28.108 17.2974H25.9458V19.4595H28.108V17.2974Z" fill="black"/>
<path d="M32.4324 17.2974H30.2703V19.4595H32.4324V17.2974Z" fill="black"/>
<path d="M36.7566 17.2974H34.5945V19.4595H36.7566V17.2974Z" fill="black"/>
<path d="M41.0809 17.2974H38.9187V19.4595H41.0809V17.2974Z" fill="black"/>
<path d="M45.4053 17.2974H43.2432V19.4595H45.4053V17.2974Z" fill="black"/>
<path d="M49.7295 17.2974H47.5674V19.4595H49.7295V17.2974Z" fill="black"/>
<path d="M54.054 17.2974H51.8918V19.4595H54.054V17.2974Z" fill="black"/>
<path d="M58.3782 17.2974H56.2161V19.4595H58.3782V17.2974Z" fill="black"/>
<path d="M62.7027 17.2974H60.5405V19.4595H62.7027V17.2974Z" fill="black"/>
<path d="M64.8648 17.2974H62.7026V19.4595H64.8648V17.2974Z" fill="black"/>
<path d="M67.0269 17.2974H64.8647V19.4595H67.0269V17.2974Z" fill="black"/>
<path d="M69.189 17.2974H67.0269V19.4595H69.189V17.2974Z" fill="black"/>
<path d="M71.3511 17.2974H69.189V19.4595H71.3511V17.2974Z" fill="black"/>
<path d="M73.5135 17.2974H71.3513V19.4595H73.5135V17.2974Z" fill="black"/>
<path d="M75.6756 17.2974H73.5134V19.4595H75.6756V17.2974Z" fill="black"/>
<path d="M25.9459 19.4595H23.7837V21.6216H25.9459V19.4595Z" fill="black"/>
<path d="M32.4324 19.4595H30.2703V21.6216H32.4324V19.4595Z" fill="black"/>
<path d="M41.0809 19.4595H38.9187V21.6216H41.0809V19.4595Z" fill="black"/>
<path d="M47.5674 19.4595H45.4053V21.6216H47.5674V19.4595Z" fill="black"/>
<path d="M49.7295 19.4595H47.5674V21.6216H49.7295V19.4595Z" fill="black"/>
<path d="M51.8919 19.4595H49.7297V21.6216H51.8919V19.4595Z" fill="black"/>
<path d="M54.054 19.4595H51.8918V21.6216H54.054V19.4595Z" fill="black"/>
<path d="M58.3782 19.4595H56.2161V21.6216H58.3782V19.4595Z" fill="black"/>
<path d="M8.64849 21.6216H6.48633V23.7837H8.64849V21.6216Z" fill="black"/>
<path d="M10.8106 21.6216H8.64844V23.7837H10.8106V21.6216Z" fill="black"/>
<path d="M12.973 21.6216H10.8108V23.7837H12.973V21.6216Z" fill="black"/>
<path d="M15.1351 21.6216H12.9729V23.7837H15.1351V21.6216Z" fill="black"/>
<path d="M17.2972 21.6216H15.135V23.7837H17.2972V21.6216Z" fill="black"/>
<path d="M19.4593 21.6216H17.2971V23.7837H19.4593V21.6216Z" fill="black"/>
<path d="M21.6216 21.6216H19.4595V23.7837H21.6216V21.6216Z" fill="black"/>
<path d="M25.9459 21.6216H23.7837V23.7837H25.9459V21.6216Z" fill="black"/>
<path d="M28.108 21.6216H25.9458V23.7837H28.108V21.6216Z" fill="black"/>
<path d="M32.4324 21.6216H30.2703V23.7837H32.4324V21.6216Z" fill="black"/>
<path d="M34.5945 21.6216H32.4324V23.7837H34.5945V21.6216Z" fill="black"/>
<path d="M36.7566 21.6216H34.5945V23.7837H36.7566V21.6216Z" fill="black"/>
<path d="M43.2432 21.6216H41.0811V23.7837H43.2432V21.6216Z" fill="black"/>
<path d="M47.5674 21.6216H45.4053V23.7837H47.5674V21.6216Z" fill="black"/>
<path d="M54.054 21.6216H51.8918V23.7837H54.054V21.6216Z" fill="black"/>
<path d="M58.3782 21.6216H56.2161V23.7837H58.3782V21.6216Z" fill="black"/>
<path d="M64.8648 21.6216H62.7026V23.7837H64.8648V21.6216Z" fill="black"/>
<path d="M67.0269 21.6216H64.8647V23.7837H67.0269V21.6216Z" fill="black"/>
<path d="M75.6756 21.6216H73.5134V23.7837H75.6756V21.6216Z" fill="black"/>
<path d="M10.8106 23.7838H8.64844V25.946H10.8106V23.7838Z" fill="black"/>
<path d="M17.2972 23.7838H15.135V25.946H17.2972V23.7838Z" fill="black"/>
<path d="M21.6216 23.7838H19.4595V25.946H21.6216V23.7838Z" fill="black"/>
<path d="M23.7837 23.7838H21.6216V25.946H23.7837V23.7838Z" fill="black"/>
<path d="M38.9188 23.7838H36.7566V25.946H38.9188V23.7838Z" fill="black"/>
<path d="M43.2432 23.7838H41.0811V25.946H43.2432V23.7838Z" fill="black"/>
<path d="M45.4053 23.7838H43.2432V25.946H45.4053V23.7838Z" fill="black"/>
<path d="M47.5674 23.7838H45.4053V25.946H47.5674V23.7838Z" fill="black"/>
<path d="M49.7295 23.7838H47.5674V25.946H49.7295V23.7838Z" fill="black"/>
<path d="M51.8919 23.7838H49.7297V25.946H51.8919V23.7838Z" fill="black"/>
<path d="M54.054 23.7838H51.8918V25.946H54.054V23.7838Z" fill="black"/>
<path d="M56.2161 23.7838H54.054V25.946H56.2161V23.7838Z" fill="black"/>
<path d="M58.3782 23.7838H56.2161V25.946H58.3782V23.7838Z" fill="black"/>
<path d="M62.7027 23.7838H60.5405V25.946H62.7027V23.7838Z" fill="black"/>
<path d="M64.8648 23.7838H62.7026V25.946H64.8648V23.7838Z" fill="black"/>
<path d="M69.189 23.7838H67.0269V25.946H69.189V23.7838Z" fill="black"/>
<path d="M71.3511 23.7838H69.189V25.946H71.3511V23.7838Z" fill="black"/>
<path d="M73.5135 23.7838H71.3513V25.946H73.5135V23.7838Z" fill="black"/>
<path d="M75.6756 23.7838H73.5134V25.946H75.6756V23.7838Z" fill="black"/>
<path d="M15.1351 25.9459H12.9729V28.1081H15.1351V25.9459Z" fill="black"/>
<path d="M19.4593 25.9459H17.2971V28.1081H19.4593V25.9459Z" fill="black"/>
<path d="M25.9459 25.9459H23.7837V28.1081H25.9459V25.9459Z" fill="black"/>
<path d="M28.108 25.9459H25.9458V28.1081H28.108V25.9459Z" fill="black"/>
<path d="M30.2701 25.9459H28.1079V28.1081H30.2701V25.9459Z" fill="black"/>
<path d="M32.4324 25.9459H30.2703V28.1081H32.4324V25.9459Z" fill="black"/>
<path d="M36.7566 25.9459H34.5945V28.1081H36.7566V25.9459Z" fill="black"/>
<path d="M38.9188 25.9459H36.7566V28.1081H38.9188V25.9459Z" fill="black"/>
<path d="M41.0809 25.9459H38.9187V28.1081H41.0809V25.9459Z" fill="black"/>
<path d="M43.2432 25.9459H41.0811V28.1081H43.2432V25.9459Z" fill="black"/>
<path d="M49.7295 25.9459H47.5674V28.1081H49.7295V25.9459Z" fill="black"/>
<path d="M54.054 25.9459H51.8918V28.1081H54.054V25.9459Z" fill="black"/>
<path d="M67.0269 25.9459H64.8647V28.1081H67.0269V25.9459Z" fill="black"/>
<path d="M71.3511 25.9459H69.189V28.1081H71.3511V25.9459Z" fill="black"/>
<path d="M6.48638 28.1082H4.32422V30.2703H6.48638V28.1082Z" fill="black"/>
<path d="M8.64849 28.1082H6.48633V30.2703H8.64849V28.1082Z" fill="black"/>
<path d="M12.973 28.1082H10.8108V30.2703H12.973V28.1082Z" fill="black"/>
<path d="M15.1351 28.1082H12.9729V30.2703H15.1351V28.1082Z" fill="black"/>
<path d="M21.6216 28.1082H19.4595V30.2703H21.6216V28.1082Z" fill="black"/>
<path d="M25.9459 28.1082H23.7837V30.2703H25.9459V28.1082Z" fill="black"/>
<path d="M28.108 28.1082H25.9458V30.2703H28.108V28.1082Z" fill="black"/>
<path d="M30.2701 28.1082H28.1079V30.2703H30.2701V28.1082Z" fill="black"/>
<path d="M43.2432 28.1082H41.0811V30.2703H43.2432V28.1082Z" fill="black"/>
<path d="M45.4053 28.1082H43.2432V30.2703H45.4053V28.1082Z" fill="black"/>
<path d="M47.5674 28.1082H45.4053V30.2703H47.5674V28.1082Z" fill="black"/>
<path d="M49.7295 28.1082H47.5674V30.2703H49.7295V28.1082Z" fill="black"/>
<path d="M51.8919 28.1082H49.7297V30.2703H51.8919V28.1082Z" fill="black"/>
<path d="M54.054 28.1082H51.8918V30.2703H54.054V28.1082Z" fill="black"/>
<path d="M62.7027 28.1082H60.5405V30.2703H62.7027V28.1082Z" fill="black"/>
<path d="M67.0269 28.1082H64.8647V30.2703H67.0269V28.1082Z" fill="black"/>
<path d="M69.189 28.1082H67.0269V30.2703H69.189V28.1082Z" fill="black"/>
<path d="M71.3511 28.1082H69.189V30.2703H71.3511V28.1082Z" fill="black"/>
<path d="M73.5135 28.1082H71.3513V30.2703H73.5135V28.1082Z" fill="black"/>
<path d="M75.6756 28.1082H73.5134V30.2703H75.6756V28.1082Z" fill="black"/>
<path d="M10.8106 30.2703H8.64844V32.4324H10.8106V30.2703Z" fill="black"/>
<path d="M19.4593 30.2703H17.2971V32.4324H19.4593V30.2703Z" fill="black"/>
<path d="M25.9459 30.2703H23.7837V32.4324H25.9459V30.2703Z" fill="black"/>
<path d="M28.108 30.2703H25.9458V32.4324H28.108V30.2703Z" fill="black"/>
<path d="M34.5945 30.2703H32.4324V32.4324H34.5945V30.2703Z" fill="black"/>
<path d="M36.7566 30.2703H34.5945V32.4324H36.7566V30.2703Z" fill="black"/>
<path d="M38.9188 30.2703H36.7566V32.4324H38.9188V30.2703Z" fill="black"/>
<path d="M41.0809 30.2703H38.9187V32.4324H41.0809V30.2703Z" fill="black"/>
<path d="M47.5674 30.2703H45.4053V32.4324H47.5674V30.2703Z" fill="black"/>
<path d="M49.7295 30.2703H47.5674V32.4324H49.7295V30.2703Z" fill="black"/>
<path d="M51.8919 30.2703H49.7297V32.4324H51.8919V30.2703Z" fill="black"/>
<path d="M54.054 30.2703H51.8918V32.4324H54.054V30.2703Z" fill="black"/>
<path d="M60.5403 30.2703H58.3782V32.4324H60.5403V30.2703Z" fill="black"/>
<path d="M64.8648 30.2703H62.7026V32.4324H64.8648V30.2703Z" fill="black"/>
<path d="M67.0269 30.2703H64.8647V32.4324H67.0269V30.2703Z" fill="black"/>
<path d="M69.189 30.2703H67.0269V32.4324H69.189V30.2703Z" fill="black"/>
<path d="M73.5135 30.2703H71.3513V32.4324H73.5135V30.2703Z" fill="black"/>
<path d="M75.6756 30.2703H73.5134V32.4324H75.6756V30.2703Z" fill="black"/>
<path d="M8.64849 32.4325H6.48633V34.5947H8.64849V32.4325Z" fill="black"/>
<path d="M12.973 32.4325H10.8108V34.5947H12.973V32.4325Z" fill="black"/>
<path d="M21.6216 32.4325H19.4595V34.5947H21.6216V32.4325Z" fill="black"/>
<path d="M23.7837 32.4325H21.6216V34.5947H23.7837V32.4325Z" fill="black"/>
<path d="M30.2701 32.4325H28.1079V34.5947H30.2701V32.4325Z" fill="black"/>
<path d="M32.4324 32.4325H30.2703V34.5947H32.4324V32.4325Z" fill="black"/>
<path d="M34.5945 32.4325H32.4324V34.5947H34.5945V32.4325Z" fill="black"/>
<path d="M36.7566 32.4325H34.5945V34.5947H36.7566V32.4325Z" fill="black"/>
<path d="M45.4053 32.4325H43.2432V34.5947H45.4053V32.4325Z" fill="black"/>
<path d="M51.8919 32.4325H49.7297V34.5947H51.8919V32.4325Z" fill="black"/>
<path d="M60.5403 32.4325H58.3782V34.5947H60.5403V32.4325Z" fill="black"/>
<path d="M62.7027 32.4325H60.5405V34.5947H62.7027V32.4325Z" fill="black"/>
<path d="M71.3511 32.4325H69.189V34.5947H71.3511V32.4325Z" fill="black"/>
<path d="M73.5135 32.4325H71.3513V34.5947H73.5135V32.4325Z" fill="black"/>
<path d="M75.6756 32.4325H73.5134V34.5947H75.6756V32.4325Z" fill="black"/>
<path d="M10.8106 34.5946H8.64844V36.7568H10.8106V34.5946Z" fill="black"/>
<path d="M17.2972 34.5946H15.135V36.7568H17.2972V34.5946Z" fill="black"/>
<path d="M19.4593 34.5946H17.2971V36.7568H19.4593V34.5946Z" fill="black"/>
<path d="M28.108 34.5946H25.9458V36.7568H28.108V34.5946Z" fill="black"/>
<path d="M36.7566 34.5946H34.5945V36.7568H36.7566V34.5946Z" fill="black"/>
<path d="M38.9188 34.5946H36.7566V36.7568H38.9188V34.5946Z" fill="black"/>
<path d="M49.7295 34.5946H47.5674V36.7568H49.7295V34.5946Z" fill="black"/>
<path d="M60.5403 34.5946H58.3782V36.7568H60.5403V34.5946Z" fill="black"/>
<path d="M62.7027 34.5946H60.5405V36.7568H62.7027V34.5946Z" fill="black"/>
<path d="M71.3511 34.5946H69.189V36.7568H71.3511V34.5946Z" fill="black"/>
<path d="M73.5135 34.5946H71.3513V36.7568H73.5135V34.5946Z" fill="black"/>
<path d="M12.973 36.7568H10.8108V38.919H12.973V36.7568Z" fill="black"/>
<path d="M36.7566 36.7568H34.5945V38.919H36.7566V36.7568Z" fill="black"/>
<path d="M38.9188 36.7568H36.7566V38.919H38.9188V36.7568Z" fill="black"/>
<path d="M41.0809 36.7568H38.9187V38.919H41.0809V36.7568Z" fill="black"/>
<path d="M45.4053 36.7568H43.2432V38.919H45.4053V36.7568Z" fill="black"/>
<path d="M51.8919 36.7568H49.7297V38.919H51.8919V36.7568Z" fill="black"/>
<path d="M56.2161 36.7568H54.054V38.919H56.2161V36.7568Z" fill="black"/>
<path d="M58.3782 36.7568H56.2161V38.919H58.3782V36.7568Z" fill="black"/>
<path d="M60.5403 36.7568H58.3782V38.919H60.5403V36.7568Z" fill="black"/>
<path d="M62.7027 36.7568H60.5405V38.919H62.7027V36.7568Z" fill="black"/>
<path d="M64.8648 36.7568H62.7026V38.919H64.8648V36.7568Z" fill="black"/>
<path d="M69.189 36.7568H67.0269V38.919H69.189V36.7568Z" fill="black"/>
<path d="M71.3511 36.7568H69.189V38.919H71.3511V36.7568Z" fill="black"/>
<path d="M10.8106 38.9189H8.64844V41.0811H10.8106V38.9189Z" fill="black"/>
<path d="M19.4593 38.9189H17.2971V41.0811H19.4593V38.9189Z" fill="black"/>
<path d="M21.6216 38.9189H19.4595V41.0811H21.6216V38.9189Z" fill="black"/>
<path d="M28.108 38.9189H25.9458V41.0811H28.108V38.9189Z" fill="black"/>
<path d="M30.2701 38.9189H28.1079V41.0811H30.2701V38.9189Z" fill="black"/>
<path d="M38.9188 38.9189H36.7566V41.0811H38.9188V38.9189Z" fill="black"/>
<path d="M41.0809 38.9189H38.9187V41.0811H41.0809V38.9189Z" fill="black"/>
<path d="M43.2432 38.9189H41.0811V41.0811H43.2432V38.9189Z" fill="black"/>
<path d="M58.3782 38.9189H56.2161V41.0811H58.3782V38.9189Z" fill="black"/>
<path d="M60.5403 38.9189H58.3782V41.0811H60.5403V38.9189Z" fill="black"/>
<path d="M64.8648 38.9189H62.7026V41.0811H64.8648V38.9189Z" fill="black"/>
<path d="M67.0269 38.9189H64.8647V41.0811H67.0269V38.9189Z" fill="black"/>
<path d="M69.189 38.9189H67.0269V41.0811H69.189V38.9189Z" fill="black"/>
<path d="M75.6756 38.9189H73.5134V41.0811H75.6756V38.9189Z" fill="black"/>
<path d="M6.48638 41.0811H4.32422V43.2432H6.48638V41.0811Z" fill="black"/>
<path d="M15.1351 41.0811H12.9729V43.2432H15.1351V41.0811Z" fill="black"/>
<path d="M17.2972 41.0811H15.135V43.2432H17.2972V41.0811Z" fill="black"/>
<path d="M21.6216 41.0811H19.4595V43.2432H21.6216V41.0811Z" fill="black"/>
<path d="M30.2701 41.0811H28.1079V43.2432H30.2701V41.0811Z" fill="black"/>
<path d="M32.4324 41.0811H30.2703V43.2432H32.4324V41.0811Z" fill="black"/>
<path d="M34.5945 41.0811H32.4324V43.2432H34.5945V41.0811Z" fill="black"/>
<path d="M45.4053 41.0811H43.2432V43.2432H45.4053V41.0811Z" fill="black"/>
<path d="M47.5674 41.0811H45.4053V43.2432H47.5674V41.0811Z" fill="black"/>
<path d="M56.2161 41.0811H54.054V43.2432H56.2161V41.0811Z" fill="black"/>
<path d="M62.7027 41.0811H60.5405V43.2432H62.7027V41.0811Z" fill="black"/>
<path d="M64.8648 41.0811H62.7026V43.2432H64.8648V41.0811Z" fill="black"/>
<path d="M69.189 41.0811H67.0269V43.2432H69.189V41.0811Z" fill="black"/>
<path d="M71.3511 41.0811H69.189V43.2432H71.3511V41.0811Z" fill="black"/>
<path d="M75.6756 41.0811H73.5134V43.2432H75.6756V41.0811Z" fill="black"/>
<path d="M10.8106 43.2433H8.64844V45.4054H10.8106V43.2433Z" fill="black"/>
<path d="M15.1351 43.2433H12.9729V45.4054H15.1351V43.2433Z" fill="black"/>
<path d="M17.2972 43.2433H15.135V45.4054H17.2972V43.2433Z" fill="black"/>
<path d="M19.4593 43.2433H17.2971V45.4054H19.4593V43.2433Z" fill="black"/>
<path d="M21.6216 43.2433H19.4595V45.4054H21.6216V43.2433Z" fill="black"/>
<path d="M23.7837 43.2433H21.6216V45.4054H23.7837V43.2433Z" fill="black"/>
<path d="M30.2701 43.2433H28.1079V45.4054H30.2701V43.2433Z" fill="black"/>
<path d="M38.9188 43.2433H36.7566V45.4054H38.9188V43.2433Z" fill="black"/>
<path d="M49.7295 43.2433H47.5674V45.4054H49.7295V43.2433Z" fill="black"/>
<path d="M51.8919 43.2433H49.7297V45.4054H51.8919V43.2433Z" fill="black"/>
<path d="M64.8648 43.2433H62.7026V45.4054H64.8648V43.2433Z" fill="black"/>
<path d="M67.0269 43.2433H64.8647V45.4054H67.0269V43.2433Z" fill="black"/>
<path d="M71.3511 43.2433H69.189V45.4054H71.3511V43.2433Z" fill="black"/>
<path d="M10.8106 45.4054H8.64844V47.5676H10.8106V45.4054Z" fill="black"/>
<path d="M15.1351 45.4054H12.9729V47.5676H15.1351V45.4054Z" fill="black"/>
<path d="M17.2972 45.4054H15.135V47.5676H17.2972V45.4054Z" fill="black"/>
<path d="M41.0809 45.4054H38.9187V47.5676H41.0809V45.4054Z" fill="black"/>
<path d="M49.7295 45.4054H47.5674V47.5676H49.7295V45.4054Z" fill="black"/>
<path d="M51.8919 45.4054H49.7297V47.5676H51.8919V45.4054Z" fill="black"/>
<path d="M54.054 45.4054H51.8918V47.5676H54.054V45.4054Z" fill="black"/>
<path d="M60.5403 45.4054H58.3782V47.5676H60.5403V45.4054Z" fill="black"/>
<path d="M62.7027 45.4054H60.5405V47.5676H62.7027V45.4054Z" fill="black"/>
<path d="M64.8648 45.4054H62.7026V47.5676H64.8648V45.4054Z" fill="black"/>
<path d="M67.0269 45.4054H64.8647V47.5676H67.0269V45.4054Z" fill="black"/>
<path d="M69.189 45.4054H67.0269V47.5676H69.189V45.4054Z" fill="black"/>
<path d="M71.3511 45.4054H69.189V47.5676H71.3511V45.4054Z" fill="black"/>
<path d="M73.5135 45.4054H71.3513V47.5676H73.5135V45.4054Z" fill="black"/>
<path d="M75.6756 45.4054H73.5134V47.5676H75.6756V45.4054Z" fill="black"/>
<path d="M6.48638 47.5676H4.32422V49.7298H6.48638V47.5676Z" fill="black"/>
<path d="M8.64849 47.5676H6.48633V49.7298H8.64849V47.5676Z" fill="black"/>
<path d="M12.973 47.5676H10.8108V49.7298H12.973V47.5676Z" fill="black"/>
<path d="M19.4593 47.5676H17.2971V49.7298H19.4593V47.5676Z" fill="black"/>
<path d="M21.6216 47.5676H19.4595V49.7298H21.6216V47.5676Z" fill="black"/>
<path d="M28.108 47.5676H25.9458V49.7298H28.108V47.5676Z" fill="black"/>
<path d="M30.2701 47.5676H28.1079V49.7298H30.2701V47.5676Z" fill="black"/>
<path d="M32.4324 47.5676H30.2703V49.7298H32.4324V47.5676Z" fill="black"/>
<path d="M38.9188 47.5676H36.7566V49.7298H38.9188V47.5676Z" fill="black"/>
<path d="M41.0809 47.5676H38.9187V49.7298H41.0809V47.5676Z" fill="black"/>
<path d="M47.5674 47.5676H45.4053V49.7298H47.5674V47.5676Z" fill="black"/>
<path d="M51.8919 47.5676H49.7297V49.7298H51.8919V47.5676Z" fill="black"/>
<path d="M54.054 47.5676H51.8918V49.7298H54.054V47.5676Z" fill="black"/>
<path d="M60.5403 47.5676H58.3782V49.7298H60.5403V47.5676Z" fill="black"/>
<path d="M64.8648 47.5676H62.7026V49.7298H64.8648V47.5676Z" fill="black"/>
<path d="M67.0269 47.5676H64.8647V49.7298H67.0269V47.5676Z" fill="black"/>
<path d="M69.189 47.5676H67.0269V49.7298H69.189V47.5676Z" fill="black"/>
<path d="M75.6756 47.5676H73.5134V49.7298H75.6756V47.5676Z" fill="black"/>
<path d="M6.48638 49.7297H4.32422V51.8919H6.48638V49.7297Z" fill="black"/>
<path d="M8.64849 49.7297H6.48633V51.8919H8.64849V49.7297Z" fill="black"/>
<path d="M21.6216 49.7297H19.4595V51.8919H21.6216V49.7297Z" fill="black"/>
<path d="M23.7837 49.7297H21.6216V51.8919H23.7837V49.7297Z" fill="black"/>
<path d="M25.9459 49.7297H23.7837V51.8919H25.9459V49.7297Z" fill="black"/>
<path d="M30.2701 49.7297H28.1079V51.8919H30.2701V49.7297Z" fill="black"/>
<path d="M32.4324 49.7297H30.2703V51.8919H32.4324V49.7297Z" fill="black"/>
<path d="M36.7566 49.7297H34.5945V51.8919H36.7566V49.7297Z" fill="black"/>
<path d="M38.9188 49.7297H36.7566V51.8919H38.9188V49.7297Z" fill="black"/>
<path d="M43.2432 49.7297H41.0811V51.8919H43.2432V49.7297Z" fill="black"/>
<path d="M49.7295 49.7297H47.5674V51.8919H49.7295V49.7297Z" fill="black"/>
<path d="M54.054 49.7297H51.8918V51.8919H54.054V49.7297Z" fill="black"/>
<path d="M56.2161 49.7297H54.054V51.8919H56.2161V49.7297Z" fill="black"/>
<path d="M62.7027 49.7297H60.5405V51.8919H62.7027V49.7297Z" fill="black"/>
<path d="M71.3511 49.7297H69.189V51.8919H71.3511V49.7297Z" fill="black"/>
<path d="M75.6756 49.7297H73.5134V51.8919H75.6756V49.7297Z" fill="black"/>
<path d="M6.48638 51.8918H4.32422V54.054H6.48638V51.8918Z" fill="black"/>
<path d="M15.1351 51.8918H12.9729V54.054H15.1351V51.8918Z" fill="black"/>
<path d="M19.4593 51.8918H17.2971V54.054H19.4593V51.8918Z" fill="black"/>
<path d="M21.6216 51.8918H19.4595V54.054H21.6216V51.8918Z" fill="black"/>
<path d="M25.9459 51.8918H23.7837V54.054H25.9459V51.8918Z" fill="black"/>
<path d="M34.5945 51.8918H32.4324V54.054H34.5945V51.8918Z" fill="black"/>
<path d="M38.9188 51.8918H36.7566V54.054H38.9188V51.8918Z" fill="black"/>
<path d="M41.0809 51.8918H38.9187V54.054H41.0809V51.8918Z" fill="black"/>
<path d="M47.5674 51.8918H45.4053V54.054H47.5674V51.8918Z" fill="black"/>
<path d="M54.054 51.8918H51.8918V54.054H54.054V51.8918Z" fill="black"/>
<path d="M60.5403 51.8918H58.3782V54.054H60.5403V51.8918Z" fill="black"/>
<path d="M64.8648 51.8918H62.7026V54.054H64.8648V51.8918Z" fill="black"/>
<path d="M67.0269 51.8918H64.8647V54.054H67.0269V51.8918Z" fill="black"/>
<path d="M73.5135 51.8918H71.3513V54.054H73.5135V51.8918Z" fill="black"/>
<path d="M6.48638 54.0541H4.32422V56.2162H6.48638V54.0541Z" fill="black"/>
<path d="M10.8106 54.0541H8.64844V56.2162H10.8106V54.0541Z" fill="black"/>
<path d="M12.973 54.0541H10.8108V56.2162H12.973V54.0541Z" fill="black"/>
<path d="M23.7837 54.0541H21.6216V56.2162H23.7837V54.0541Z" fill="black"/>
<path d="M32.4324 54.0541H30.2703V56.2162H32.4324V54.0541Z" fill="black"/>
<path d="M34.5945 54.0541H32.4324V56.2162H34.5945V54.0541Z" fill="black"/>
<path d="M36.7566 54.0541H34.5945V56.2162H36.7566V54.0541Z" fill="black"/>
<path d="M47.5674 54.0541H45.4053V56.2162H47.5674V54.0541Z" fill="black"/>
<path d="M49.7295 54.0541H47.5674V56.2162H49.7295V54.0541Z" fill="black"/>
<path d="M51.8919 54.0541H49.7297V56.2162H51.8919V54.0541Z" fill="black"/>
<path d="M62.7027 54.0541H60.5405V56.2162H62.7027V54.0541Z" fill="black"/>
<path d="M64.8648 54.0541H62.7026V56.2162H64.8648V54.0541Z" fill="black"/>
<path d="M69.189 54.0541H67.0269V56.2162H69.189V54.0541Z" fill="black"/>
<path d="M71.3511 54.0541H69.189V56.2162H71.3511V54.0541Z" fill="black"/>
<path d="M73.5135 54.0541H71.3513V56.2162H73.5135V54.0541Z" fill="black"/>
<path d="M6.48638 56.2162H4.32422V58.3783H6.48638V56.2162Z" fill="black"/>
<path d="M10.8106 56.2162H8.64844V58.3783H10.8106V56.2162Z" fill="black"/>
<path d="M12.973 56.2162H10.8108V58.3783H12.973V56.2162Z" fill="black"/>
<path d="M15.1351 56.2162H12.9729V58.3783H15.1351V56.2162Z" fill="black"/>
<path d="M19.4593 56.2162H17.2971V58.3783H19.4593V56.2162Z" fill="black"/>
<path d="M21.6216 56.2162H19.4595V58.3783H21.6216V56.2162Z" fill="black"/>
<path d="M23.7837 56.2162H21.6216V58.3783H23.7837V56.2162Z" fill="black"/>
<path d="M30.2701 56.2162H28.1079V58.3783H30.2701V56.2162Z" fill="black"/>
<path d="M32.4324 56.2162H30.2703V58.3783H32.4324V56.2162Z" fill="black"/>
<path d="M34.5945 56.2162H32.4324V58.3783H34.5945V56.2162Z" fill="black"/>
<path d="M41.0809 56.2162H38.9187V58.3783H41.0809V56.2162Z" fill="black"/>
<path d="M43.2432 56.2162H41.0811V58.3783H43.2432V56.2162Z" fill="black"/>
<path d="M47.5674 56.2162H45.4053V58.3783H47.5674V56.2162Z" fill="black"/>
<path d="M54.054 56.2162H51.8918V58.3783H54.054V56.2162Z" fill="black"/>
<path d="M58.3782 56.2162H56.2161V58.3783H58.3782V56.2162Z" fill="black"/>
<path d="M60.5403 56.2162H58.3782V58.3783H60.5403V56.2162Z" fill="black"/>
<path d="M62.7027 56.2162H60.5405V58.3783H62.7027V56.2162Z" fill="black"/>
<path d="M64.8648 56.2162H62.7026V58.3783H64.8648V56.2162Z" fill="black"/>
<path d="M67.0269 56.2162H64.8647V58.3783H67.0269V56.2162Z" fill="black"/>
<path d="M71.3511 56.2162H69.189V58.3783H71.3511V56.2162Z" fill="black"/>
<path d="M75.6756 56.2162H73.5134V58.3783H75.6756V56.2162Z" fill="black"/>
<path d="M23.7837 58.3784H21.6216V60.5406H23.7837V58.3784Z" fill="black"/>
<path d="M25.9459 58.3784H23.7837V60.5406H25.9459V58.3784Z" fill="black"/>
<path d="M30.2701 58.3784H28.1079V60.5406H30.2701V58.3784Z" fill="black"/>
<path d="M36.7566 58.3784H34.5945V60.5406H36.7566V58.3784Z" fill="black"/>
<path d="M45.4053 58.3784H43.2432V60.5406H45.4053V58.3784Z" fill="black"/>
<path d="M47.5674 58.3784H45.4053V60.5406H47.5674V58.3784Z" fill="black"/>
<path d="M49.7295 58.3784H47.5674V60.5406H49.7295V58.3784Z" fill="black"/>
<path d="M51.8919 58.3784H49.7297V60.5406H51.8919V58.3784Z" fill="black"/>
<path d="M58.3782 58.3784H56.2161V60.5406H58.3782V58.3784Z" fill="black"/>
<path d="M67.0269 58.3784H64.8647V60.5406H67.0269V58.3784Z" fill="black"/>
<path d="M71.3511 58.3784H69.189V60.5406H71.3511V58.3784Z" fill="black"/>
<path d="M75.6756 58.3784H73.5134V60.5406H75.6756V58.3784Z" fill="black"/>
<path d="M6.48638 60.5405H4.32422V62.7027H6.48638V60.5405Z" fill="black"/>
<path d="M8.64849 60.5405H6.48633V62.7027H8.64849V60.5405Z" fill="black"/>
<path d="M10.8106 60.5405H8.64844V62.7027H10.8106V60.5405Z" fill="black"/>
<path d="M12.973 60.5405H10.8108V62.7027H12.973V60.5405Z" fill="black"/>
<path d="M15.1351 60.5405H12.9729V62.7027H15.1351V60.5405Z" fill="black"/>
<path d="M17.2972 60.5405H15.135V62.7027H17.2972V60.5405Z" fill="black"/>
<path d="M19.4593 60.5405H17.2971V62.7027H19.4593V60.5405Z" fill="black"/>
<path d="M23.7837 60.5405H21.6216V62.7027H23.7837V60.5405Z" fill="black"/>
<path d="M25.9459 60.5405H23.7837V62.7027H25.9459V60.5405Z" fill="black"/>
<path d="M30.2701 60.5405H28.1079V62.7027H30.2701V60.5405Z" fill="black"/>
<path d="M36.7566 60.5405H34.5945V62.7027H36.7566V60.5405Z" fill="black"/>
<path d="M38.9188 60.5405H36.7566V62.7027H38.9188V60.5405Z" fill="black"/>
<path d="M45.4053 60.5405H43.2432V62.7027H45.4053V60.5405Z" fill="black"/>
<path d="M49.7295 60.5405H47.5674V62.7027H49.7295V60.5405Z" fill="black"/>
<path d="M51.8919 60.5405H49.7297V62.7027H51.8919V60.5405Z" fill="black"/>
<path d="M54.054 60.5405H51.8918V62.7027H54.054V60.5405Z" fill="black"/>
<path d="M56.2161 60.5405H54.054V62.7027H56.2161V60.5405Z" fill="black"/>
<path d="M58.3782 60.5405H56.2161V62.7027H58.3782V60.5405Z" fill="black"/>
<path d="M62.7027 60.5405H60.5405V62.7027H62.7027V60.5405Z" fill="black"/>
<path d="M67.0269 60.5405H64.8647V62.7027H67.0269V60.5405Z" fill="black"/>
<path d="M71.3511 60.5405H69.189V62.7027H71.3511V60.5405Z" fill="black"/>
<path d="M73.5135 60.5405H71.3513V62.7027H73.5135V60.5405Z" fill="black"/>
<path d="M6.48638 62.7028H4.32422V64.8649H6.48638V62.7028Z" fill="black"/>
<path d="M19.4593 62.7028H17.2971V64.8649H19.4593V62.7028Z" fill="black"/>
<path d="M23.7837 62.7028H21.6216V64.8649H23.7837V62.7028Z" fill="black"/>
<path d="M28.108 62.7028H25.9458V64.8649H28.108V62.7028Z" fill="black"/>
<path d="M32.4324 62.7028H30.2703V64.8649H32.4324V62.7028Z" fill="black"/>
<path d="M34.5945 62.7028H32.4324V64.8649H34.5945V62.7028Z" fill="black"/>
<path d="M36.7566 62.7028H34.5945V64.8649H36.7566V62.7028Z" fill="black"/>
<path d="M38.9188 62.7028H36.7566V64.8649H38.9188V62.7028Z" fill="black"/>
<path d="M45.4053 62.7028H43.2432V64.8649H45.4053V62.7028Z" fill="black"/>
<path d="M47.5674 62.7028H45.4053V64.8649H47.5674V62.7028Z" fill="black"/>
<path d="M49.7295 62.7028H47.5674V64.8649H49.7295V62.7028Z" fill="black"/>
<path d="M51.8919 62.7028H49.7297V64.8649H51.8919V62.7028Z" fill="black"/>
<path d="M54.054 62.7028H51.8918V64.8649H54.054V62.7028Z" fill="black"/>
<path d="M56.2161 62.7028H54.054V64.8649H56.2161V62.7028Z" fill="black"/>
<path d="M58.3782 62.7028H56.2161V64.8649H58.3782V62.7028Z" fill="black"/>
<path d="M67.0269 62.7028H64.8647V64.8649H67.0269V62.7028Z" fill="black"/>
<path d="M69.189 62.7028H67.0269V64.8649H69.189V62.7028Z" fill="black"/>
<path d="M71.3511 62.7028H69.189V64.8649H71.3511V62.7028Z" fill="black"/>
<path d="M75.6756 62.7028H73.5134V64.8649H75.6756V62.7028Z" fill="black"/>
<path d="M6.48638 64.8649H4.32422V67.027H6.48638V64.8649Z" fill="black"/>
<path d="M10.8106 64.8649H8.64844V67.027H10.8106V64.8649Z" fill="black"/>
<path d="M12.973 64.8649H10.8108V67.027H12.973V64.8649Z" fill="black"/>
<path d="M15.1351 64.8649H12.9729V67.027H15.1351V64.8649Z" fill="black"/>
<path d="M19.4593 64.8649H17.2971V67.027H19.4593V64.8649Z" fill="black"/>
<path d="M23.7837 64.8649H21.6216V67.027H23.7837V64.8649Z" fill="black"/>
<path d="M28.108 64.8649H25.9458V67.027H28.108V64.8649Z" fill="black"/>
<path d="M30.2701 64.8649H28.1079V67.027H30.2701V64.8649Z" fill="black"/>
<path d="M32.4324 64.8649H30.2703V67.027H32.4324V64.8649Z" fill="black"/>
<path d="M41.0809 64.8649H38.9187V67.027H41.0809V64.8649Z" fill="black"/>
<path d="M47.5674 64.8649H45.4053V67.027H47.5674V64.8649Z" fill="black"/>
<path d="M54.054 64.8649H51.8918V67.027H54.054V64.8649Z" fill="black"/>
<path d="M58.3782 64.8649H56.2161V67.027H58.3782V64.8649Z" fill="black"/>
<path d="M60.5403 64.8649H58.3782V67.027H60.5403V64.8649Z" fill="black"/>
<path d="M62.7027 64.8649H60.5405V67.027H62.7027V64.8649Z" fill="black"/>
<path d="M64.8648 64.8649H62.7026V67.027H64.8648V64.8649Z" fill="black"/>
<path d="M67.0269 64.8649H64.8647V67.027H67.0269V64.8649Z" fill="black"/>
<path d="M69.189 64.8649H67.0269V67.027H69.189V64.8649Z" fill="black"/>
<path d="M73.5135 64.8649H71.3513V67.027H73.5135V64.8649Z" fill="black"/>
<path d="M75.6756 64.8649H73.5134V67.027H75.6756V64.8649Z" fill="black"/>
<path d="M6.48638 67.0271H4.32422V69.1893H6.48638V67.0271Z" fill="black"/>
<path d="M10.8106 67.0271H8.64844V69.1893H10.8106V67.0271Z" fill="black"/>
<path d="M12.973 67.0271H10.8108V69.1893H12.973V67.0271Z" fill="black"/>
<path d="M15.1351 67.0271H12.9729V69.1893H15.1351V67.0271Z" fill="black"/>
<path d="M19.4593 67.0271H17.2971V69.1893H19.4593V67.0271Z" fill="black"/>
<path d="M23.7837 67.0271H21.6216V69.1893H23.7837V67.0271Z" fill="black"/>
<path d="M25.9459 67.0271H23.7837V69.1893H25.9459V67.0271Z" fill="black"/>
<path d="M30.2701 67.0271H28.1079V69.1893H30.2701V67.0271Z" fill="black"/>
<path d="M34.5945 67.0271H32.4324V69.1893H34.5945V67.0271Z" fill="black"/>
<path d="M38.9188 67.0271H36.7566V69.1893H38.9188V67.0271Z" fill="black"/>
<path d="M41.0809 67.0271H38.9187V69.1893H41.0809V67.0271Z" fill="black"/>
<path d="M43.2432 67.0271H41.0811V69.1893H43.2432V67.0271Z" fill="black"/>
<path d="M51.8919 67.0271H49.7297V69.1893H51.8919V67.0271Z" fill="black"/>
<path d="M60.5403 67.0271H58.3782V69.1893H60.5403V67.0271Z" fill="black"/>
<path d="M67.0269 67.0271H64.8647V69.1893H67.0269V67.0271Z" fill="black"/>
<path d="M69.189 67.0271H67.0269V69.1893H69.189V67.0271Z" fill="black"/>
<path d="M71.3511 67.0271H69.189V69.1893H71.3511V67.0271Z" fill="black"/>
<path d="M75.6756 67.0271H73.5134V69.1893H75.6756V67.0271Z" fill="black"/>
<path d="M6.48638 69.1892H4.32422V71.3514H6.48638V69.1892Z" fill="black"/>
<path d="M10.8106 69.1892H8.64844V71.3514H10.8106V69.1892Z" fill="black"/>
<path d="M12.973 69.1892H10.8108V71.3514H12.973V69.1892Z" fill="black"/>
<path d="M15.1351 69.1892H12.9729V71.3514H15.1351V69.1892Z" fill="black"/>
<path d="M19.4593 69.1892H17.2971V71.3514H19.4593V69.1892Z" fill="black"/>
<path d="M23.7837 69.1892H21.6216V71.3514H23.7837V69.1892Z" fill="black"/>
<path d="M30.2701 69.1892H28.1079V71.3514H30.2701V69.1892Z" fill="black"/>
<path d="M36.7566 69.1892H34.5945V71.3514H36.7566V69.1892Z" fill="black"/>
<path d="M38.9188 69.1892H36.7566V71.3514H38.9188V69.1892Z" fill="black"/>
<path d="M49.7295 69.1892H47.5674V71.3514H49.7295V69.1892Z" fill="black"/>
<path d="M58.3782 69.1892H56.2161V71.3514H58.3782V69.1892Z" fill="black"/>
<path d="M60.5403 69.1892H58.3782V71.3514H60.5403V69.1892Z" fill="black"/>
<path d="M62.7027 69.1892H60.5405V71.3514H62.7027V69.1892Z" fill="black"/>
<path d="M64.8648 69.1892H62.7026V71.3514H64.8648V69.1892Z" fill="black"/>
<path d="M6.48638 71.3513H4.32422V73.5135H6.48638V71.3513Z" fill="black"/>
<path d="M19.4593 71.3513H17.2971V73.5135H19.4593V71.3513Z" fill="black"/>
<path d="M23.7837 71.3513H21.6216V73.5135H23.7837V71.3513Z" fill="black"/>
<path d="M25.9459 71.3513H23.7837V73.5135H25.9459V71.3513Z" fill="black"/>
<path d="M30.2701 71.3513H28.1079V73.5135H30.2701V71.3513Z" fill="black"/>
<path d="M34.5945 71.3513H32.4324V73.5135H34.5945V71.3513Z" fill="black"/>
<path d="M45.4053 71.3513H43.2432V73.5135H45.4053V71.3513Z" fill="black"/>
<path d="M51.8919 71.3513H49.7297V73.5135H51.8919V71.3513Z" fill="black"/>
<path d="M54.054 71.3513H51.8918V73.5135H54.054V71.3513Z" fill="black"/>
<path d="M56.2161 71.3513H54.054V73.5135H56.2161V71.3513Z" fill="black"/>
<path d="M67.0269 71.3513H64.8647V73.5135H67.0269V71.3513Z" fill="black"/>
<path d="M69.189 71.3513H67.0269V73.5135H69.189V71.3513Z" fill="black"/>
<path d="M71.3511 71.3513H69.189V73.5135H71.3511V71.3513Z" fill="black"/>
<path d="M6.48638 73.5135H4.32422V75.6757H6.48638V73.5135Z" fill="black"/>
<path d="M8.64849 73.5135H6.48633V75.6757H8.64849V73.5135Z" fill="black"/>
<path d="M10.8106 73.5135H8.64844V75.6757H10.8106V73.5135Z" fill="black"/>
<path d="M12.973 73.5135H10.8108V75.6757H12.973V73.5135Z" fill="black"/>
<path d="M15.1351 73.5135H12.9729V75.6757H15.1351V73.5135Z" fill="black"/>
<path d="M17.2972 73.5135H15.135V75.6757H17.2972V73.5135Z" fill="black"/>
<path d="M19.4593 73.5135H17.2971V75.6757H19.4593V73.5135Z" fill="black"/>
<path d="M25.9459 73.5135H23.7837V75.6757H25.9459V73.5135Z" fill="black"/>
<path d="M30.2701 73.5135H28.1079V75.6757H30.2701V73.5135Z" fill="black"/>
<path d="M32.4324 73.5135H30.2703V75.6757H32.4324V73.5135Z" fill="black"/>
<path d="M34.5945 73.5135H32.4324V75.6757H34.5945V73.5135Z" fill="black"/>
<path d="M36.7566 73.5135H34.5945V75.6757H36.7566V73.5135Z" fill="black"/>
<path d="M38.9188 73.5135H36.7566V75.6757H38.9188V73.5135Z" fill="black"/>
<path d="M45.4053 73.5135H43.2432V75.6757H45.4053V73.5135Z" fill="black"/>
<path d="M54.054 73.5135H51.8918V75.6757H54.054V73.5135Z" fill="black"/>
<path d="M56.2161 73.5135H54.054V75.6757H56.2161V73.5135Z" fill="black"/>
<path d="M58.3782 73.5135H56.2161V75.6757H58.3782V73.5135Z" fill="black"/>
<path d="M60.5403 73.5135H58.3782V75.6757H60.5403V73.5135Z" fill="black"/>
<path d="M62.7027 73.5135H60.5405V75.6757H62.7027V73.5135Z" fill="black"/>
<path d="M64.8648 73.5135H62.7026V75.6757H64.8648V73.5135Z" fill="black"/>
<path d="M73.5135 73.5135H71.3513V75.6757H73.5135V73.5135Z" fill="black"/>
</g>
<defs>
<clipPath id="clip0_1708_3543">
<rect width="80" height="80" fill="white"/>
</clipPath>
</defs>
</svg>
