<svg width="80" height="80" viewBox="0 0 80 80" fill="none" xmlns="http://www.w3.org/2000/svg">
<g clip-path="url(#clip0_1708_1318)">
<path d="M80 0H0V80H80V0Z" fill="white"/>
<path d="M6.48638 4.32422H4.32422V6.48638H6.48638V4.32422Z" fill="black"/>
<path d="M8.64849 4.32422H6.48633V6.48638H8.64849V4.32422Z" fill="black"/>
<path d="M10.8106 4.32422H8.64844V6.48638H10.8106V4.32422Z" fill="black"/>
<path d="M12.973 4.32422H10.8108V6.48638H12.973V4.32422Z" fill="black"/>
<path d="M15.1351 4.32422H12.9729V6.48638H15.1351V4.32422Z" fill="black"/>
<path d="M17.2972 4.32422H15.135V6.48638H17.2972V4.32422Z" fill="black"/>
<path d="M19.4593 4.32422H17.2971V6.48638H19.4593V4.32422Z" fill="black"/>
<path d="M23.7837 4.32422H21.6216V6.48638H23.7837V4.32422Z" fill="black"/>
<path d="M25.9459 4.32422H23.7837V6.48638H25.9459V4.32422Z" fill="black"/>
<path d="M30.2701 4.32422H28.1079V6.48638H30.2701V4.32422Z" fill="black"/>
<path d="M41.0809 4.32422H38.9187V6.48638H41.0809V4.32422Z" fill="black"/>
<path d="M45.4053 4.32422H43.2432V6.48638H45.4053V4.32422Z" fill="black"/>
<path d="M47.5674 4.32422H45.4053V6.48638H47.5674V4.32422Z" fill="black"/>
<path d="M49.7295 4.32422H47.5674V6.48638H49.7295V4.32422Z" fill="black"/>
<path d="M51.8919 4.32422H49.7297V6.48638H51.8919V4.32422Z" fill="black"/>
<path d="M54.054 4.32422H51.8918V6.48638H54.054V4.32422Z" fill="black"/>
<path d="M56.2161 4.32422H54.054V6.48638H56.2161V4.32422Z" fill="black"/>
<path d="M62.7027 4.32422H60.5405V6.48638H62.7027V4.32422Z" fill="black"/>
<path d="M64.8648 4.32422H62.7026V6.48638H64.8648V4.32422Z" fill="black"/>
<path d="M67.0269 4.32422H64.8647V6.48638H67.0269V4.32422Z" fill="black"/>
<path d="M69.189 4.32422H67.0269V6.48638H69.189V4.32422Z" fill="black"/>
<path d="M71.3511 4.32422H69.189V6.48638H71.3511V4.32422Z" fill="black"/>
<path d="M73.5135 4.32422H71.3513V6.48638H73.5135V4.32422Z" fill="black"/>
<path d="M75.6756 4.32422H73.5134V6.48638H75.6756V4.32422Z" fill="black"/>
<path d="M6.48638 6.48633H4.32422V8.64849H6.48638V6.48633Z" fill="black"/>
<path d="M19.4593 6.48633H17.2971V8.64849H19.4593V6.48633Z" fill="black"/>
<path d="M25.9459 6.48633H23.7837V8.64849H25.9459V6.48633Z" fill="black"/>
<path d="M32.4324 6.48633H30.2703V8.64849H32.4324V6.48633Z" fill="black"/>
<path d="M38.9188 6.48633H36.7566V8.64849H38.9188V6.48633Z" fill="black"/>
<path d="M45.4053 6.48633H43.2432V8.64849H45.4053V6.48633Z" fill="black"/>
<path d="M51.8919 6.48633H49.7297V8.64849H51.8919V6.48633Z" fill="black"/>
<path d="M54.054 6.48633H51.8918V8.64849H54.054V6.48633Z" fill="black"/>
<path d="M62.7027 6.48633H60.5405V8.64849H62.7027V6.48633Z" fill="black"/>
<path d="M75.6756 6.48633H73.5134V8.64849H75.6756V6.48633Z" fill="black"/>
<path d="M6.48638 8.64844H4.32422V10.8106H6.48638V8.64844Z" fill="black"/>
<path d="M10.8106 8.64844H8.64844V10.8106H10.8106V8.64844Z" fill="black"/>
<path d="M12.973 8.64844H10.8108V10.8106H12.973V8.64844Z" fill="black"/>
<path d="M15.1351 8.64844H12.9729V10.8106H15.1351V8.64844Z" fill="black"/>
<path d="M19.4593 8.64844H17.2971V10.8106H19.4593V8.64844Z" fill="black"/>
<path d="M25.9459 8.64844H23.7837V10.8106H25.9459V8.64844Z" fill="black"/>
<path d="M28.108 8.64844H25.9458V10.8106H28.108V8.64844Z" fill="black"/>
<path d="M30.2701 8.64844H28.1079V10.8106H30.2701V8.64844Z" fill="black"/>
<path d="M34.5945 8.64844H32.4324V10.8106H34.5945V8.64844Z" fill="black"/>
<path d="M38.9188 8.64844H36.7566V10.8106H38.9188V8.64844Z" fill="black"/>
<path d="M49.7295 8.64844H47.5674V10.8106H49.7295V8.64844Z" fill="black"/>
<path d="M51.8919 8.64844H49.7297V10.8106H51.8919V8.64844Z" fill="black"/>
<path d="M62.7027 8.64844H60.5405V10.8106H62.7027V8.64844Z" fill="black"/>
<path d="M67.0269 8.64844H64.8647V10.8106H67.0269V8.64844Z" fill="black"/>
<path d="M69.189 8.64844H67.0269V10.8106H69.189V8.64844Z" fill="black"/>
<path d="M71.3511 8.64844H69.189V10.8106H71.3511V8.64844Z" fill="black"/>
<path d="M75.6756 8.64844H73.5134V10.8106H75.6756V8.64844Z" fill="black"/>
<path d="M6.48638 10.8105H4.32422V12.9727H6.48638V10.8105Z" fill="black"/>
<path d="M10.8106 10.8105H8.64844V12.9727H10.8106V10.8105Z" fill="black"/>
<path d="M12.973 10.8105H10.8108V12.9727H12.973V10.8105Z" fill="black"/>
<path d="M15.1351 10.8105H12.9729V12.9727H15.1351V10.8105Z" fill="black"/>
<path d="M19.4593 10.8105H17.2971V12.9727H19.4593V10.8105Z" fill="black"/>
<path d="M28.108 10.8105H25.9458V12.9727H28.108V10.8105Z" fill="black"/>
<path d="M34.5945 10.8105H32.4324V12.9727H34.5945V10.8105Z" fill="black"/>
<path d="M45.4053 10.8105H43.2432V12.9727H45.4053V10.8105Z" fill="black"/>
<path d="M47.5674 10.8105H45.4053V12.9727H47.5674V10.8105Z" fill="black"/>
<path d="M51.8919 10.8105H49.7297V12.9727H51.8919V10.8105Z" fill="black"/>
<path d="M54.054 10.8105H51.8918V12.9727H54.054V10.8105Z" fill="black"/>
<path d="M56.2161 10.8105H54.054V12.9727H56.2161V10.8105Z" fill="black"/>
<path d="M58.3782 10.8105H56.2161V12.9727H58.3782V10.8105Z" fill="black"/>
<path d="M62.7027 10.8105H60.5405V12.9727H62.7027V10.8105Z" fill="black"/>
<path d="M67.0269 10.8105H64.8647V12.9727H67.0269V10.8105Z" fill="black"/>
<path d="M69.189 10.8105H67.0269V12.9727H69.189V10.8105Z" fill="black"/>
<path d="M71.3511 10.8105H69.189V12.9727H71.3511V10.8105Z" fill="black"/>
<path d="M75.6756 10.8105H73.5134V12.9727H75.6756V10.8105Z" fill="black"/>
<path d="M6.48638 12.9727H4.32422V15.1348H6.48638V12.9727Z" fill="black"/>
<path d="M10.8106 12.9727H8.64844V15.1348H10.8106V12.9727Z" fill="black"/>
<path d="M12.973 12.9727H10.8108V15.1348H12.973V12.9727Z" fill="black"/>
<path d="M15.1351 12.9727H12.9729V15.1348H15.1351V12.9727Z" fill="black"/>
<path d="M19.4593 12.9727H17.2971V15.1348H19.4593V12.9727Z" fill="black"/>
<path d="M23.7837 12.9727H21.6216V15.1348H23.7837V12.9727Z" fill="black"/>
<path d="M32.4324 12.9727H30.2703V15.1348H32.4324V12.9727Z" fill="black"/>
<path d="M34.5945 12.9727H32.4324V15.1348H34.5945V12.9727Z" fill="black"/>
<path d="M36.7566 12.9727H34.5945V15.1348H36.7566V12.9727Z" fill="black"/>
<path d="M38.9188 12.9727H36.7566V15.1348H38.9188V12.9727Z" fill="black"/>
<path d="M43.2432 12.9727H41.0811V15.1348H43.2432V12.9727Z" fill="black"/>
<path d="M49.7295 12.9727H47.5674V15.1348H49.7295V12.9727Z" fill="black"/>
<path d="M51.8919 12.9727H49.7297V15.1348H51.8919V12.9727Z" fill="black"/>
<path d="M54.054 12.9727H51.8918V15.1348H54.054V12.9727Z" fill="black"/>
<path d="M62.7027 12.9727H60.5405V15.1348H62.7027V12.9727Z" fill="black"/>
<path d="M67.0269 12.9727H64.8647V15.1348H67.0269V12.9727Z" fill="black"/>
<path d="M69.189 12.9727H67.0269V15.1348H69.189V12.9727Z" fill="black"/>
<path d="M71.3511 12.9727H69.189V15.1348H71.3511V12.9727Z" fill="black"/>
<path d="M75.6756 12.9727H73.5134V15.1348H75.6756V12.9727Z" fill="black"/>
<path d="M6.48638 15.1353H4.32422V17.2974H6.48638V15.1353Z" fill="black"/>
<path d="M19.4593 15.1353H17.2971V17.2974H19.4593V15.1353Z" fill="black"/>
<path d="M23.7837 15.1353H21.6216V17.2974H23.7837V15.1353Z" fill="black"/>
<path d="M25.9459 15.1353H23.7837V17.2974H25.9459V15.1353Z" fill="black"/>
<path d="M28.108 15.1353H25.9458V17.2974H28.108V15.1353Z" fill="black"/>
<path d="M30.2701 15.1353H28.1079V17.2974H30.2701V15.1353Z" fill="black"/>
<path d="M32.4324 15.1353H30.2703V17.2974H32.4324V15.1353Z" fill="black"/>
<path d="M36.7566 15.1353H34.5945V17.2974H36.7566V15.1353Z" fill="black"/>
<path d="M41.0809 15.1353H38.9187V17.2974H41.0809V15.1353Z" fill="black"/>
<path d="M45.4053 15.1353H43.2432V17.2974H45.4053V15.1353Z" fill="black"/>
<path d="M47.5674 15.1353H45.4053V17.2974H47.5674V15.1353Z" fill="black"/>
<path d="M51.8919 15.1353H49.7297V17.2974H51.8919V15.1353Z" fill="black"/>
<path d="M58.3782 15.1353H56.2161V17.2974H58.3782V15.1353Z" fill="black"/>
<path d="M62.7027 15.1353H60.5405V17.2974H62.7027V15.1353Z" fill="black"/>
<path d="M75.6756 15.1353H73.5134V17.2974H75.6756V15.1353Z" fill="black"/>
<path d="M6.48638 17.2974H4.32422V19.4595H6.48638V17.2974Z" fill="black"/>
<path d="M8.64849 17.2974H6.48633V19.4595H8.64849V17.2974Z" fill="black"/>
<path d="M10.8106 17.2974H8.64844V19.4595H10.8106V17.2974Z" fill="black"/>
<path d="M12.973 17.2974H10.8108V19.4595H12.973V17.2974Z" fill="black"/>
<path d="M15.1351 17.2974H12.9729V19.4595H15.1351V17.2974Z" fill="black"/>
<path d="M17.2972 17.2974H15.135V19.4595H17.2972V17.2974Z" fill="black"/>
<path d="M19.4593 17.2974H17.2971V19.4595H19.4593V17.2974Z" fill="black"/>
<path d="M23.7837 17.2974H21.6216V19.4595H23.7837V17.2974Z" fill="black"/>
<path d="M28.108 17.2974H25.9458V19.4595H28.108V17.2974Z" fill="black"/>
<path d="M32.4324 17.2974H30.2703V19.4595H32.4324V17.2974Z" fill="black"/>
<path d="M36.7566 17.2974H34.5945V19.4595H36.7566V17.2974Z" fill="black"/>
<path d="M41.0809 17.2974H38.9187V19.4595H41.0809V17.2974Z" fill="black"/>
<path d="M45.4053 17.2974H43.2432V19.4595H45.4053V17.2974Z" fill="black"/>
<path d="M49.7295 17.2974H47.5674V19.4595H49.7295V17.2974Z" fill="black"/>
<path d="M54.054 17.2974H51.8918V19.4595H54.054V17.2974Z" fill="black"/>
<path d="M58.3782 17.2974H56.2161V19.4595H58.3782V17.2974Z" fill="black"/>
<path d="M62.7027 17.2974H60.5405V19.4595H62.7027V17.2974Z" fill="black"/>
<path d="M64.8648 17.2974H62.7026V19.4595H64.8648V17.2974Z" fill="black"/>
<path d="M67.0269 17.2974H64.8647V19.4595H67.0269V17.2974Z" fill="black"/>
<path d="M69.189 17.2974H67.0269V19.4595H69.189V17.2974Z" fill="black"/>
<path d="M71.3511 17.2974H69.189V19.4595H71.3511V17.2974Z" fill="black"/>
<path d="M73.5135 17.2974H71.3513V19.4595H73.5135V17.2974Z" fill="black"/>
<path d="M75.6756 17.2974H73.5134V19.4595H75.6756V17.2974Z" fill="black"/>
<path d="M25.9459 19.4595H23.7837V21.6216H25.9459V19.4595Z" fill="black"/>
<path d="M47.5674 19.4595H45.4053V21.6216H47.5674V19.4595Z" fill="black"/>
<path d="M49.7295 19.4595H47.5674V21.6216H49.7295V19.4595Z" fill="black"/>
<path d="M51.8919 19.4595H49.7297V21.6216H51.8919V19.4595Z" fill="black"/>
<path d="M54.054 19.4595H51.8918V21.6216H54.054V19.4595Z" fill="black"/>
<path d="M56.2161 19.4595H54.054V21.6216H56.2161V19.4595Z" fill="black"/>
<path d="M58.3782 19.4595H56.2161V21.6216H58.3782V19.4595Z" fill="black"/>
<path d="M8.64849 21.6216H6.48633V23.7837H8.64849V21.6216Z" fill="black"/>
<path d="M10.8106 21.6216H8.64844V23.7837H10.8106V21.6216Z" fill="black"/>
<path d="M12.973 21.6216H10.8108V23.7837H12.973V21.6216Z" fill="black"/>
<path d="M15.1351 21.6216H12.9729V23.7837H15.1351V21.6216Z" fill="black"/>
<path d="M17.2972 21.6216H15.135V23.7837H17.2972V21.6216Z" fill="black"/>
<path d="M19.4593 21.6216H17.2971V23.7837H19.4593V21.6216Z" fill="black"/>
<path d="M21.6216 21.6216H19.4595V23.7837H21.6216V21.6216Z" fill="black"/>
<path d="M25.9459 21.6216H23.7837V23.7837H25.9459V21.6216Z" fill="black"/>
<path d="M28.108 21.6216H25.9458V23.7837H28.108V21.6216Z" fill="black"/>
<path d="M30.2701 21.6216H28.1079V23.7837H30.2701V21.6216Z" fill="black"/>
<path d="M32.4324 21.6216H30.2703V23.7837H32.4324V21.6216Z" fill="black"/>
<path d="M34.5945 21.6216H32.4324V23.7837H34.5945V21.6216Z" fill="black"/>
<path d="M36.7566 21.6216H34.5945V23.7837H36.7566V21.6216Z" fill="black"/>
<path d="M38.9188 21.6216H36.7566V23.7837H38.9188V21.6216Z" fill="black"/>
<path d="M43.2432 21.6216H41.0811V23.7837H43.2432V21.6216Z" fill="black"/>
<path d="M47.5674 21.6216H45.4053V23.7837H47.5674V21.6216Z" fill="black"/>
<path d="M54.054 21.6216H51.8918V23.7837H54.054V21.6216Z" fill="black"/>
<path d="M56.2161 21.6216H54.054V23.7837H56.2161V21.6216Z" fill="black"/>
<path d="M58.3782 21.6216H56.2161V23.7837H58.3782V21.6216Z" fill="black"/>
<path d="M64.8648 21.6216H62.7026V23.7837H64.8648V21.6216Z" fill="black"/>
<path d="M67.0269 21.6216H64.8647V23.7837H67.0269V21.6216Z" fill="black"/>
<path d="M75.6756 21.6216H73.5134V23.7837H75.6756V21.6216Z" fill="black"/>
<path d="M10.8106 23.7837H8.64844V25.9459H10.8106V23.7837Z" fill="black"/>
<path d="M15.1351 23.7837H12.9729V25.9459H15.1351V23.7837Z" fill="black"/>
<path d="M17.2972 23.7837H15.135V25.9459H17.2972V23.7837Z" fill="black"/>
<path d="M21.6216 23.7837H19.4595V25.9459H21.6216V23.7837Z" fill="black"/>
<path d="M23.7837 23.7837H21.6216V25.9459H23.7837V23.7837Z" fill="black"/>
<path d="M34.5945 23.7837H32.4324V25.9459H34.5945V23.7837Z" fill="black"/>
<path d="M38.9188 23.7837H36.7566V25.9459H38.9188V23.7837Z" fill="black"/>
<path d="M43.2432 23.7837H41.0811V25.9459H43.2432V23.7837Z" fill="black"/>
<path d="M45.4053 23.7837H43.2432V25.9459H45.4053V23.7837Z" fill="black"/>
<path d="M47.5674 23.7837H45.4053V25.9459H47.5674V23.7837Z" fill="black"/>
<path d="M49.7295 23.7837H47.5674V25.9459H49.7295V23.7837Z" fill="black"/>
<path d="M51.8919 23.7837H49.7297V25.9459H51.8919V23.7837Z" fill="black"/>
<path d="M54.054 23.7837H51.8918V25.9459H54.054V23.7837Z" fill="black"/>
<path d="M56.2161 23.7837H54.054V25.9459H56.2161V23.7837Z" fill="black"/>
<path d="M58.3782 23.7837H56.2161V25.9459H58.3782V23.7837Z" fill="black"/>
<path d="M62.7027 23.7837H60.5405V25.9459H62.7027V23.7837Z" fill="black"/>
<path d="M64.8648 23.7837H62.7026V25.9459H64.8648V23.7837Z" fill="black"/>
<path d="M69.189 23.7837H67.0269V25.9459H69.189V23.7837Z" fill="black"/>
<path d="M71.3511 23.7837H69.189V25.9459H71.3511V23.7837Z" fill="black"/>
<path d="M73.5135 23.7837H71.3513V25.9459H73.5135V23.7837Z" fill="black"/>
<path d="M75.6756 23.7837H73.5134V25.9459H75.6756V23.7837Z" fill="black"/>
<path d="M6.48638 25.9458H4.32422V28.108H6.48638V25.9458Z" fill="black"/>
<path d="M17.2972 25.9458H15.135V28.108H17.2972V25.9458Z" fill="black"/>
<path d="M19.4593 25.9458H17.2971V28.108H19.4593V25.9458Z" fill="black"/>
<path d="M25.9459 25.9458H23.7837V28.108H25.9459V25.9458Z" fill="black"/>
<path d="M30.2701 25.9458H28.1079V28.108H30.2701V25.9458Z" fill="black"/>
<path d="M32.4324 25.9458H30.2703V28.108H32.4324V25.9458Z" fill="black"/>
<path d="M36.7566 25.9458H34.5945V28.108H36.7566V25.9458Z" fill="black"/>
<path d="M38.9188 25.9458H36.7566V28.108H38.9188V25.9458Z" fill="black"/>
<path d="M41.0809 25.9458H38.9187V28.108H41.0809V25.9458Z" fill="black"/>
<path d="M43.2432 25.9458H41.0811V28.108H43.2432V25.9458Z" fill="black"/>
<path d="M49.7295 25.9458H47.5674V28.108H49.7295V25.9458Z" fill="black"/>
<path d="M51.8919 25.9458H49.7297V28.108H51.8919V25.9458Z" fill="black"/>
<path d="M54.054 25.9458H51.8918V28.108H54.054V25.9458Z" fill="black"/>
<path d="M62.7027 25.9458H60.5405V28.108H62.7027V25.9458Z" fill="black"/>
<path d="M67.0269 25.9458H64.8647V28.108H67.0269V25.9458Z" fill="black"/>
<path d="M71.3511 25.9458H69.189V28.108H71.3511V25.9458Z" fill="black"/>
<path d="M6.48638 28.1079H4.32422V30.2701H6.48638V28.1079Z" fill="black"/>
<path d="M8.64849 28.1079H6.48633V30.2701H8.64849V28.1079Z" fill="black"/>
<path d="M12.973 28.1079H10.8108V30.2701H12.973V28.1079Z" fill="black"/>
<path d="M15.1351 28.1079H12.9729V30.2701H15.1351V28.1079Z" fill="black"/>
<path d="M17.2972 28.1079H15.135V30.2701H17.2972V28.1079Z" fill="black"/>
<path d="M21.6216 28.1079H19.4595V30.2701H21.6216V28.1079Z" fill="black"/>
<path d="M30.2701 28.1079H28.1079V30.2701H30.2701V28.1079Z" fill="black"/>
<path d="M36.7566 28.1079H34.5945V30.2701H36.7566V28.1079Z" fill="black"/>
<path d="M43.2432 28.1079H41.0811V30.2701H43.2432V28.1079Z" fill="black"/>
<path d="M45.4053 28.1079H43.2432V30.2701H45.4053V28.1079Z" fill="black"/>
<path d="M47.5674 28.1079H45.4053V30.2701H47.5674V28.1079Z" fill="black"/>
<path d="M49.7295 28.1079H47.5674V30.2701H49.7295V28.1079Z" fill="black"/>
<path d="M51.8919 28.1079H49.7297V30.2701H51.8919V28.1079Z" fill="black"/>
<path d="M62.7027 28.1079H60.5405V30.2701H62.7027V28.1079Z" fill="black"/>
<path d="M67.0269 28.1079H64.8647V30.2701H67.0269V28.1079Z" fill="black"/>
<path d="M69.189 28.1079H67.0269V30.2701H69.189V28.1079Z" fill="black"/>
<path d="M71.3511 28.1079H69.189V30.2701H71.3511V28.1079Z" fill="black"/>
<path d="M73.5135 28.1079H71.3513V30.2701H73.5135V28.1079Z" fill="black"/>
<path d="M75.6756 28.1079H73.5134V30.2701H75.6756V28.1079Z" fill="black"/>
<path d="M6.48638 30.27H4.32422V32.4322H6.48638V30.27Z" fill="black"/>
<path d="M10.8106 30.27H8.64844V32.4322H10.8106V30.27Z" fill="black"/>
<path d="M15.1351 30.27H12.9729V32.4322H15.1351V30.27Z" fill="black"/>
<path d="M19.4593 30.27H17.2971V32.4322H19.4593V30.27Z" fill="black"/>
<path d="M23.7837 30.27H21.6216V32.4322H23.7837V30.27Z" fill="black"/>
<path d="M32.4324 30.27H30.2703V32.4322H32.4324V30.27Z" fill="black"/>
<path d="M36.7566 30.27H34.5945V32.4322H36.7566V30.27Z" fill="black"/>
<path d="M38.9188 30.27H36.7566V32.4322H38.9188V30.27Z" fill="black"/>
<path d="M41.0809 30.27H38.9187V32.4322H41.0809V30.27Z" fill="black"/>
<path d="M47.5674 30.27H45.4053V32.4322H47.5674V30.27Z" fill="black"/>
<path d="M49.7295 30.27H47.5674V32.4322H49.7295V30.27Z" fill="black"/>
<path d="M51.8919 30.27H49.7297V32.4322H51.8919V30.27Z" fill="black"/>
<path d="M54.054 30.27H51.8918V32.4322H54.054V30.27Z" fill="black"/>
<path d="M58.3782 30.27H56.2161V32.4322H58.3782V30.27Z" fill="black"/>
<path d="M69.189 30.27H67.0269V32.4322H69.189V30.27Z" fill="black"/>
<path d="M73.5135 30.27H71.3513V32.4322H73.5135V30.27Z" fill="black"/>
<path d="M75.6756 30.27H73.5134V32.4322H75.6756V30.27Z" fill="black"/>
<path d="M12.973 32.4321H10.8108V34.5943H12.973V32.4321Z" fill="black"/>
<path d="M21.6216 32.4321H19.4595V34.5943H21.6216V32.4321Z" fill="black"/>
<path d="M30.2701 32.4321H28.1079V34.5943H30.2701V32.4321Z" fill="black"/>
<path d="M34.5945 32.4321H32.4324V34.5943H34.5945V32.4321Z" fill="black"/>
<path d="M36.7566 32.4321H34.5945V34.5943H36.7566V32.4321Z" fill="black"/>
<path d="M45.4053 32.4321H43.2432V34.5943H45.4053V32.4321Z" fill="black"/>
<path d="M51.8919 32.4321H49.7297V34.5943H51.8919V32.4321Z" fill="black"/>
<path d="M54.054 32.4321H51.8918V34.5943H54.054V32.4321Z" fill="black"/>
<path d="M56.2161 32.4321H54.054V34.5943H56.2161V32.4321Z" fill="black"/>
<path d="M60.5403 32.4321H58.3782V34.5943H60.5403V32.4321Z" fill="black"/>
<path d="M62.7027 32.4321H60.5405V34.5943H62.7027V32.4321Z" fill="black"/>
<path d="M71.3511 32.4321H69.189V34.5943H71.3511V32.4321Z" fill="black"/>
<path d="M73.5135 32.4321H71.3513V34.5943H73.5135V32.4321Z" fill="black"/>
<path d="M75.6756 32.4321H73.5134V34.5943H75.6756V32.4321Z" fill="black"/>
<path d="M17.2972 34.5947H15.135V36.7569H17.2972V34.5947Z" fill="black"/>
<path d="M19.4593 34.5947H17.2971V36.7569H19.4593V34.5947Z" fill="black"/>
<path d="M23.7837 34.5947H21.6216V36.7569H23.7837V34.5947Z" fill="black"/>
<path d="M28.108 34.5947H25.9458V36.7569H28.108V34.5947Z" fill="black"/>
<path d="M30.2701 34.5947H28.1079V36.7569H30.2701V34.5947Z" fill="black"/>
<path d="M36.7566 34.5947H34.5945V36.7569H36.7566V34.5947Z" fill="black"/>
<path d="M38.9188 34.5947H36.7566V36.7569H38.9188V34.5947Z" fill="black"/>
<path d="M41.0809 34.5947H38.9187V36.7569H41.0809V34.5947Z" fill="black"/>
<path d="M49.7295 34.5947H47.5674V36.7569H49.7295V34.5947Z" fill="black"/>
<path d="M58.3782 34.5947H56.2161V36.7569H58.3782V34.5947Z" fill="black"/>
<path d="M60.5403 34.5947H58.3782V36.7569H60.5403V34.5947Z" fill="black"/>
<path d="M62.7027 34.5947H60.5405V36.7569H62.7027V34.5947Z" fill="black"/>
<path d="M73.5135 34.5947H71.3513V36.7569H73.5135V34.5947Z" fill="black"/>
<path d="M21.6216 36.7568H19.4595V38.919H21.6216V36.7568Z" fill="black"/>
<path d="M36.7566 36.7568H34.5945V38.919H36.7566V36.7568Z" fill="black"/>
<path d="M41.0809 36.7568H38.9187V38.919H41.0809V36.7568Z" fill="black"/>
<path d="M45.4053 36.7568H43.2432V38.919H45.4053V36.7568Z" fill="black"/>
<path d="M51.8919 36.7568H49.7297V38.919H51.8919V36.7568Z" fill="black"/>
<path d="M56.2161 36.7568H54.054V38.919H56.2161V36.7568Z" fill="black"/>
<path d="M60.5403 36.7568H58.3782V38.919H60.5403V36.7568Z" fill="black"/>
<path d="M62.7027 36.7568H60.5405V38.919H62.7027V36.7568Z" fill="black"/>
<path d="M64.8648 36.7568H62.7026V38.919H64.8648V36.7568Z" fill="black"/>
<path d="M69.189 36.7568H67.0269V38.919H69.189V36.7568Z" fill="black"/>
<path d="M71.3511 36.7568H69.189V38.919H71.3511V36.7568Z" fill="black"/>
<path d="M19.4593 38.9189H17.2971V41.0811H19.4593V38.9189Z" fill="black"/>
<path d="M28.108 38.9189H25.9458V41.0811H28.108V38.9189Z" fill="black"/>
<path d="M38.9188 38.9189H36.7566V41.0811H38.9188V38.9189Z" fill="black"/>
<path d="M41.0809 38.9189H38.9187V41.0811H41.0809V38.9189Z" fill="black"/>
<path d="M43.2432 38.9189H41.0811V41.0811H43.2432V38.9189Z" fill="black"/>
<path d="M58.3782 38.9189H56.2161V41.0811H58.3782V38.9189Z" fill="black"/>
<path d="M60.5403 38.9189H58.3782V41.0811H60.5403V38.9189Z" fill="black"/>
<path d="M64.8648 38.9189H62.7026V41.0811H64.8648V38.9189Z" fill="black"/>
<path d="M67.0269 38.9189H64.8647V41.0811H67.0269V38.9189Z" fill="black"/>
<path d="M69.189 38.9189H67.0269V41.0811H69.189V38.9189Z" fill="black"/>
<path d="M75.6756 38.9189H73.5134V41.0811H75.6756V38.9189Z" fill="black"/>
<path d="M6.48638 41.0811H4.32422V43.2432H6.48638V41.0811Z" fill="black"/>
<path d="M17.2972 41.0811H15.135V43.2432H17.2972V41.0811Z" fill="black"/>
<path d="M21.6216 41.0811H19.4595V43.2432H21.6216V41.0811Z" fill="black"/>
<path d="M25.9459 41.0811H23.7837V43.2432H25.9459V41.0811Z" fill="black"/>
<path d="M30.2701 41.0811H28.1079V43.2432H30.2701V41.0811Z" fill="black"/>
<path d="M32.4324 41.0811H30.2703V43.2432H32.4324V41.0811Z" fill="black"/>
<path d="M34.5945 41.0811H32.4324V43.2432H34.5945V41.0811Z" fill="black"/>
<path d="M43.2432 41.0811H41.0811V43.2432H43.2432V41.0811Z" fill="black"/>
<path d="M45.4053 41.0811H43.2432V43.2432H45.4053V41.0811Z" fill="black"/>
<path d="M47.5674 41.0811H45.4053V43.2432H47.5674V41.0811Z" fill="black"/>
<path d="M51.8919 41.0811H49.7297V43.2432H51.8919V41.0811Z" fill="black"/>
<path d="M56.2161 41.0811H54.054V43.2432H56.2161V41.0811Z" fill="black"/>
<path d="M62.7027 41.0811H60.5405V43.2432H62.7027V41.0811Z" fill="black"/>
<path d="M64.8648 41.0811H62.7026V43.2432H64.8648V41.0811Z" fill="black"/>
<path d="M69.189 41.0811H67.0269V43.2432H69.189V41.0811Z" fill="black"/>
<path d="M71.3511 41.0811H69.189V43.2432H71.3511V41.0811Z" fill="black"/>
<path d="M75.6756 41.0811H73.5134V43.2432H75.6756V41.0811Z" fill="black"/>
<path d="M8.64849 43.2432H6.48633V45.4053H8.64849V43.2432Z" fill="black"/>
<path d="M10.8106 43.2432H8.64844V45.4053H10.8106V43.2432Z" fill="black"/>
<path d="M17.2972 43.2432H15.135V45.4053H17.2972V43.2432Z" fill="black"/>
<path d="M19.4593 43.2432H17.2971V45.4053H19.4593V43.2432Z" fill="black"/>
<path d="M21.6216 43.2432H19.4595V45.4053H21.6216V43.2432Z" fill="black"/>
<path d="M23.7837 43.2432H21.6216V45.4053H23.7837V43.2432Z" fill="black"/>
<path d="M25.9459 43.2432H23.7837V45.4053H25.9459V43.2432Z" fill="black"/>
<path d="M28.108 43.2432H25.9458V45.4053H28.108V43.2432Z" fill="black"/>
<path d="M30.2701 43.2432H28.1079V45.4053H30.2701V43.2432Z" fill="black"/>
<path d="M38.9188 43.2432H36.7566V45.4053H38.9188V43.2432Z" fill="black"/>
<path d="M49.7295 43.2432H47.5674V45.4053H49.7295V43.2432Z" fill="black"/>
<path d="M51.8919 43.2432H49.7297V45.4053H51.8919V43.2432Z" fill="black"/>
<path d="M54.054 43.2432H51.8918V45.4053H54.054V43.2432Z" fill="black"/>
<path d="M64.8648 43.2432H62.7026V45.4053H64.8648V43.2432Z" fill="black"/>
<path d="M67.0269 43.2432H64.8647V45.4053H67.0269V43.2432Z" fill="black"/>
<path d="M71.3511 43.2432H69.189V45.4053H71.3511V43.2432Z" fill="black"/>
<path d="M6.48638 45.4053H4.32422V47.5674H6.48638V45.4053Z" fill="black"/>
<path d="M8.64849 45.4053H6.48633V47.5674H8.64849V45.4053Z" fill="black"/>
<path d="M10.8106 45.4053H8.64844V47.5674H10.8106V45.4053Z" fill="black"/>
<path d="M17.2972 45.4053H15.135V47.5674H17.2972V45.4053Z" fill="black"/>
<path d="M25.9459 45.4053H23.7837V47.5674H25.9459V45.4053Z" fill="black"/>
<path d="M36.7566 45.4053H34.5945V47.5674H36.7566V45.4053Z" fill="black"/>
<path d="M41.0809 45.4053H38.9187V47.5674H41.0809V45.4053Z" fill="black"/>
<path d="M45.4053 45.4053H43.2432V47.5674H45.4053V45.4053Z" fill="black"/>
<path d="M49.7295 45.4053H47.5674V47.5674H49.7295V45.4053Z" fill="black"/>
<path d="M51.8919 45.4053H49.7297V47.5674H51.8919V45.4053Z" fill="black"/>
<path d="M54.054 45.4053H51.8918V47.5674H54.054V45.4053Z" fill="black"/>
<path d="M60.5403 45.4053H58.3782V47.5674H60.5403V45.4053Z" fill="black"/>
<path d="M62.7027 45.4053H60.5405V47.5674H62.7027V45.4053Z" fill="black"/>
<path d="M64.8648 45.4053H62.7026V47.5674H64.8648V45.4053Z" fill="black"/>
<path d="M67.0269 45.4053H64.8647V47.5674H67.0269V45.4053Z" fill="black"/>
<path d="M69.189 45.4053H67.0269V47.5674H69.189V45.4053Z" fill="black"/>
<path d="M71.3511 45.4053H69.189V47.5674H71.3511V45.4053Z" fill="black"/>
<path d="M73.5135 45.4053H71.3513V47.5674H73.5135V45.4053Z" fill="black"/>
<path d="M75.6756 45.4053H73.5134V47.5674H75.6756V45.4053Z" fill="black"/>
<path d="M6.48638 47.5674H4.32422V49.7295H6.48638V47.5674Z" fill="black"/>
<path d="M12.973 47.5674H10.8108V49.7295H12.973V47.5674Z" fill="black"/>
<path d="M17.2972 47.5674H15.135V49.7295H17.2972V47.5674Z" fill="black"/>
<path d="M19.4593 47.5674H17.2971V49.7295H19.4593V47.5674Z" fill="black"/>
<path d="M21.6216 47.5674H19.4595V49.7295H21.6216V47.5674Z" fill="black"/>
<path d="M30.2701 47.5674H28.1079V49.7295H30.2701V47.5674Z" fill="black"/>
<path d="M32.4324 47.5674H30.2703V49.7295H32.4324V47.5674Z" fill="black"/>
<path d="M34.5945 47.5674H32.4324V49.7295H34.5945V47.5674Z" fill="black"/>
<path d="M36.7566 47.5674H34.5945V49.7295H36.7566V47.5674Z" fill="black"/>
<path d="M38.9188 47.5674H36.7566V49.7295H38.9188V47.5674Z" fill="black"/>
<path d="M43.2432 47.5674H41.0811V49.7295H43.2432V47.5674Z" fill="black"/>
<path d="M47.5674 47.5674H45.4053V49.7295H47.5674V47.5674Z" fill="black"/>
<path d="M54.054 47.5674H51.8918V49.7295H54.054V47.5674Z" fill="black"/>
<path d="M60.5403 47.5674H58.3782V49.7295H60.5403V47.5674Z" fill="black"/>
<path d="M64.8648 47.5674H62.7026V49.7295H64.8648V47.5674Z" fill="black"/>
<path d="M69.189 47.5674H67.0269V49.7295H69.189V47.5674Z" fill="black"/>
<path d="M75.6756 47.5674H73.5134V49.7295H75.6756V47.5674Z" fill="black"/>
<path d="M6.48638 49.7295H4.32422V51.8917H6.48638V49.7295Z" fill="black"/>
<path d="M10.8106 49.7295H8.64844V51.8917H10.8106V49.7295Z" fill="black"/>
<path d="M17.2972 49.7295H15.135V51.8917H17.2972V49.7295Z" fill="black"/>
<path d="M25.9459 49.7295H23.7837V51.8917H25.9459V49.7295Z" fill="black"/>
<path d="M28.108 49.7295H25.9458V51.8917H28.108V49.7295Z" fill="black"/>
<path d="M30.2701 49.7295H28.1079V51.8917H30.2701V49.7295Z" fill="black"/>
<path d="M36.7566 49.7295H34.5945V51.8917H36.7566V49.7295Z" fill="black"/>
<path d="M43.2432 49.7295H41.0811V51.8917H43.2432V49.7295Z" fill="black"/>
<path d="M49.7295 49.7295H47.5674V51.8917H49.7295V49.7295Z" fill="black"/>
<path d="M56.2161 49.7295H54.054V51.8917H56.2161V49.7295Z" fill="black"/>
<path d="M62.7027 49.7295H60.5405V51.8917H62.7027V49.7295Z" fill="black"/>
<path d="M69.189 49.7295H67.0269V51.8917H69.189V49.7295Z" fill="black"/>
<path d="M71.3511 49.7295H69.189V51.8917H71.3511V49.7295Z" fill="black"/>
<path d="M75.6756 49.7295H73.5134V51.8917H75.6756V49.7295Z" fill="black"/>
<path d="M6.48638 51.8916H4.32422V54.0538H6.48638V51.8916Z" fill="black"/>
<path d="M12.973 51.8916H10.8108V54.0538H12.973V51.8916Z" fill="black"/>
<path d="M15.1351 51.8916H12.9729V54.0538H15.1351V51.8916Z" fill="black"/>
<path d="M19.4593 51.8916H17.2971V54.0538H19.4593V51.8916Z" fill="black"/>
<path d="M21.6216 51.8916H19.4595V54.0538H21.6216V51.8916Z" fill="black"/>
<path d="M25.9459 51.8916H23.7837V54.0538H25.9459V51.8916Z" fill="black"/>
<path d="M30.2701 51.8916H28.1079V54.0538H30.2701V51.8916Z" fill="black"/>
<path d="M32.4324 51.8916H30.2703V54.0538H32.4324V51.8916Z" fill="black"/>
<path d="M34.5945 51.8916H32.4324V54.0538H34.5945V51.8916Z" fill="black"/>
<path d="M47.5674 51.8916H45.4053V54.0538H47.5674V51.8916Z" fill="black"/>
<path d="M54.054 51.8916H51.8918V54.0538H54.054V51.8916Z" fill="black"/>
<path d="M60.5403 51.8916H58.3782V54.0538H60.5403V51.8916Z" fill="black"/>
<path d="M67.0269 51.8916H64.8647V54.0538H67.0269V51.8916Z" fill="black"/>
<path d="M73.5135 51.8916H71.3513V54.0538H73.5135V51.8916Z" fill="black"/>
<path d="M6.48638 54.0537H4.32422V56.2159H6.48638V54.0537Z" fill="black"/>
<path d="M30.2701 54.0537H28.1079V56.2159H30.2701V54.0537Z" fill="black"/>
<path d="M34.5945 54.0537H32.4324V56.2159H34.5945V54.0537Z" fill="black"/>
<path d="M36.7566 54.0537H34.5945V56.2159H36.7566V54.0537Z" fill="black"/>
<path d="M38.9188 54.0537H36.7566V56.2159H38.9188V54.0537Z" fill="black"/>
<path d="M41.0809 54.0537H38.9187V56.2159H41.0809V54.0537Z" fill="black"/>
<path d="M47.5674 54.0537H45.4053V56.2159H47.5674V54.0537Z" fill="black"/>
<path d="M49.7295 54.0537H47.5674V56.2159H49.7295V54.0537Z" fill="black"/>
<path d="M51.8919 54.0537H49.7297V56.2159H51.8919V54.0537Z" fill="black"/>
<path d="M56.2161 54.0537H54.054V56.2159H56.2161V54.0537Z" fill="black"/>
<path d="M58.3782 54.0537H56.2161V56.2159H58.3782V54.0537Z" fill="black"/>
<path d="M62.7027 54.0537H60.5405V56.2159H62.7027V54.0537Z" fill="black"/>
<path d="M64.8648 54.0537H62.7026V56.2159H64.8648V54.0537Z" fill="black"/>
<path d="M67.0269 54.0537H64.8647V56.2159H67.0269V54.0537Z" fill="black"/>
<path d="M69.189 54.0537H67.0269V56.2159H69.189V54.0537Z" fill="black"/>
<path d="M71.3511 54.0537H69.189V56.2159H71.3511V54.0537Z" fill="black"/>
<path d="M73.5135 54.0537H71.3513V56.2159H73.5135V54.0537Z" fill="black"/>
<path d="M6.48638 56.2163H4.32422V58.3785H6.48638V56.2163Z" fill="black"/>
<path d="M12.973 56.2163H10.8108V58.3785H12.973V56.2163Z" fill="black"/>
<path d="M15.1351 56.2163H12.9729V58.3785H15.1351V56.2163Z" fill="black"/>
<path d="M19.4593 56.2163H17.2971V58.3785H19.4593V56.2163Z" fill="black"/>
<path d="M21.6216 56.2163H19.4595V58.3785H21.6216V56.2163Z" fill="black"/>
<path d="M23.7837 56.2163H21.6216V58.3785H23.7837V56.2163Z" fill="black"/>
<path d="M32.4324 56.2163H30.2703V58.3785H32.4324V56.2163Z" fill="black"/>
<path d="M34.5945 56.2163H32.4324V58.3785H34.5945V56.2163Z" fill="black"/>
<path d="M38.9188 56.2163H36.7566V58.3785H38.9188V56.2163Z" fill="black"/>
<path d="M41.0809 56.2163H38.9187V58.3785H41.0809V56.2163Z" fill="black"/>
<path d="M43.2432 56.2163H41.0811V58.3785H43.2432V56.2163Z" fill="black"/>
<path d="M47.5674 56.2163H45.4053V58.3785H47.5674V56.2163Z" fill="black"/>
<path d="M54.054 56.2163H51.8918V58.3785H54.054V56.2163Z" fill="black"/>
<path d="M58.3782 56.2163H56.2161V58.3785H58.3782V56.2163Z" fill="black"/>
<path d="M60.5403 56.2163H58.3782V58.3785H60.5403V56.2163Z" fill="black"/>
<path d="M62.7027 56.2163H60.5405V58.3785H62.7027V56.2163Z" fill="black"/>
<path d="M64.8648 56.2163H62.7026V58.3785H64.8648V56.2163Z" fill="black"/>
<path d="M67.0269 56.2163H64.8647V58.3785H67.0269V56.2163Z" fill="black"/>
<path d="M71.3511 56.2163H69.189V58.3785H71.3511V56.2163Z" fill="black"/>
<path d="M75.6756 56.2163H73.5134V58.3785H75.6756V56.2163Z" fill="black"/>
<path d="M23.7837 58.3784H21.6216V60.5406H23.7837V58.3784Z" fill="black"/>
<path d="M25.9459 58.3784H23.7837V60.5406H25.9459V58.3784Z" fill="black"/>
<path d="M30.2701 58.3784H28.1079V60.5406H30.2701V58.3784Z" fill="black"/>
<path d="M36.7566 58.3784H34.5945V60.5406H36.7566V58.3784Z" fill="black"/>
<path d="M45.4053 58.3784H43.2432V60.5406H45.4053V58.3784Z" fill="black"/>
<path d="M47.5674 58.3784H45.4053V60.5406H47.5674V58.3784Z" fill="black"/>
<path d="M49.7295 58.3784H47.5674V60.5406H49.7295V58.3784Z" fill="black"/>
<path d="M51.8919 58.3784H49.7297V60.5406H51.8919V58.3784Z" fill="black"/>
<path d="M58.3782 58.3784H56.2161V60.5406H58.3782V58.3784Z" fill="black"/>
<path d="M67.0269 58.3784H64.8647V60.5406H67.0269V58.3784Z" fill="black"/>
<path d="M71.3511 58.3784H69.189V60.5406H71.3511V58.3784Z" fill="black"/>
<path d="M75.6756 58.3784H73.5134V60.5406H75.6756V58.3784Z" fill="black"/>
<path d="M6.48638 60.5405H4.32422V62.7027H6.48638V60.5405Z" fill="black"/>
<path d="M8.64849 60.5405H6.48633V62.7027H8.64849V60.5405Z" fill="black"/>
<path d="M10.8106 60.5405H8.64844V62.7027H10.8106V60.5405Z" fill="black"/>
<path d="M12.973 60.5405H10.8108V62.7027H12.973V60.5405Z" fill="black"/>
<path d="M15.1351 60.5405H12.9729V62.7027H15.1351V60.5405Z" fill="black"/>
<path d="M17.2972 60.5405H15.135V62.7027H17.2972V60.5405Z" fill="black"/>
<path d="M19.4593 60.5405H17.2971V62.7027H19.4593V60.5405Z" fill="black"/>
<path d="M23.7837 60.5405H21.6216V62.7027H23.7837V60.5405Z" fill="black"/>
<path d="M28.108 60.5405H25.9458V62.7027H28.108V60.5405Z" fill="black"/>
<path d="M30.2701 60.5405H28.1079V62.7027H30.2701V60.5405Z" fill="black"/>
<path d="M34.5945 60.5405H32.4324V62.7027H34.5945V60.5405Z" fill="black"/>
<path d="M36.7566 60.5405H34.5945V62.7027H36.7566V60.5405Z" fill="black"/>
<path d="M38.9188 60.5405H36.7566V62.7027H38.9188V60.5405Z" fill="black"/>
<path d="M43.2432 60.5405H41.0811V62.7027H43.2432V60.5405Z" fill="black"/>
<path d="M45.4053 60.5405H43.2432V62.7027H45.4053V60.5405Z" fill="black"/>
<path d="M49.7295 60.5405H47.5674V62.7027H49.7295V60.5405Z" fill="black"/>
<path d="M51.8919 60.5405H49.7297V62.7027H51.8919V60.5405Z" fill="black"/>
<path d="M54.054 60.5405H51.8918V62.7027H54.054V60.5405Z" fill="black"/>
<path d="M56.2161 60.5405H54.054V62.7027H56.2161V60.5405Z" fill="black"/>
<path d="M58.3782 60.5405H56.2161V62.7027H58.3782V60.5405Z" fill="black"/>
<path d="M62.7027 60.5405H60.5405V62.7027H62.7027V60.5405Z" fill="black"/>
<path d="M67.0269 60.5405H64.8647V62.7027H67.0269V60.5405Z" fill="black"/>
<path d="M71.3511 60.5405H69.189V62.7027H71.3511V60.5405Z" fill="black"/>
<path d="M73.5135 60.5405H71.3513V62.7027H73.5135V60.5405Z" fill="black"/>
<path d="M6.48638 62.7026H4.32422V64.8648H6.48638V62.7026Z" fill="black"/>
<path d="M19.4593 62.7026H17.2971V64.8648H19.4593V62.7026Z" fill="black"/>
<path d="M23.7837 62.7026H21.6216V64.8648H23.7837V62.7026Z" fill="black"/>
<path d="M28.108 62.7026H25.9458V64.8648H28.108V62.7026Z" fill="black"/>
<path d="M32.4324 62.7026H30.2703V64.8648H32.4324V62.7026Z" fill="black"/>
<path d="M38.9188 62.7026H36.7566V64.8648H38.9188V62.7026Z" fill="black"/>
<path d="M47.5674 62.7026H45.4053V64.8648H47.5674V62.7026Z" fill="black"/>
<path d="M49.7295 62.7026H47.5674V64.8648H49.7295V62.7026Z" fill="black"/>
<path d="M51.8919 62.7026H49.7297V64.8648H51.8919V62.7026Z" fill="black"/>
<path d="M54.054 62.7026H51.8918V64.8648H54.054V62.7026Z" fill="black"/>
<path d="M56.2161 62.7026H54.054V64.8648H56.2161V62.7026Z" fill="black"/>
<path d="M58.3782 62.7026H56.2161V64.8648H58.3782V62.7026Z" fill="black"/>
<path d="M67.0269 62.7026H64.8647V64.8648H67.0269V62.7026Z" fill="black"/>
<path d="M69.189 62.7026H67.0269V64.8648H69.189V62.7026Z" fill="black"/>
<path d="M71.3511 62.7026H69.189V64.8648H71.3511V62.7026Z" fill="black"/>
<path d="M75.6756 62.7026H73.5134V64.8648H75.6756V62.7026Z" fill="black"/>
<path d="M6.48638 64.8647H4.32422V67.0269H6.48638V64.8647Z" fill="black"/>
<path d="M10.8106 64.8647H8.64844V67.0269H10.8106V64.8647Z" fill="black"/>
<path d="M12.973 64.8647H10.8108V67.0269H12.973V64.8647Z" fill="black"/>
<path d="M15.1351 64.8647H12.9729V67.0269H15.1351V64.8647Z" fill="black"/>
<path d="M19.4593 64.8647H17.2971V67.0269H19.4593V64.8647Z" fill="black"/>
<path d="M23.7837 64.8647H21.6216V67.0269H23.7837V64.8647Z" fill="black"/>
<path d="M25.9459 64.8647H23.7837V67.0269H25.9459V64.8647Z" fill="black"/>
<path d="M30.2701 64.8647H28.1079V67.0269H30.2701V64.8647Z" fill="black"/>
<path d="M36.7566 64.8647H34.5945V67.0269H36.7566V64.8647Z" fill="black"/>
<path d="M41.0809 64.8647H38.9187V67.0269H41.0809V64.8647Z" fill="black"/>
<path d="M47.5674 64.8647H45.4053V67.0269H47.5674V64.8647Z" fill="black"/>
<path d="M54.054 64.8647H51.8918V67.0269H54.054V64.8647Z" fill="black"/>
<path d="M58.3782 64.8647H56.2161V67.0269H58.3782V64.8647Z" fill="black"/>
<path d="M60.5403 64.8647H58.3782V67.0269H60.5403V64.8647Z" fill="black"/>
<path d="M62.7027 64.8647H60.5405V67.0269H62.7027V64.8647Z" fill="black"/>
<path d="M64.8648 64.8647H62.7026V67.0269H64.8648V64.8647Z" fill="black"/>
<path d="M67.0269 64.8647H64.8647V67.0269H67.0269V64.8647Z" fill="black"/>
<path d="M69.189 64.8647H67.0269V67.0269H69.189V64.8647Z" fill="black"/>
<path d="M73.5135 64.8647H71.3513V67.0269H73.5135V64.8647Z" fill="black"/>
<path d="M75.6756 64.8647H73.5134V67.0269H75.6756V64.8647Z" fill="black"/>
<path d="M6.48638 67.0269H4.32422V69.189H6.48638V67.0269Z" fill="black"/>
<path d="M10.8106 67.0269H8.64844V69.189H10.8106V67.0269Z" fill="black"/>
<path d="M12.973 67.0269H10.8108V69.189H12.973V67.0269Z" fill="black"/>
<path d="M15.1351 67.0269H12.9729V69.189H15.1351V67.0269Z" fill="black"/>
<path d="M19.4593 67.0269H17.2971V69.189H19.4593V67.0269Z" fill="black"/>
<path d="M23.7837 67.0269H21.6216V69.189H23.7837V67.0269Z" fill="black"/>
<path d="M25.9459 67.0269H23.7837V69.189H25.9459V67.0269Z" fill="black"/>
<path d="M30.2701 67.0269H28.1079V69.189H30.2701V67.0269Z" fill="black"/>
<path d="M34.5945 67.0269H32.4324V69.189H34.5945V67.0269Z" fill="black"/>
<path d="M38.9188 67.0269H36.7566V69.189H38.9188V67.0269Z" fill="black"/>
<path d="M41.0809 67.0269H38.9187V69.189H41.0809V67.0269Z" fill="black"/>
<path d="M43.2432 67.0269H41.0811V69.189H43.2432V67.0269Z" fill="black"/>
<path d="M51.8919 67.0269H49.7297V69.189H51.8919V67.0269Z" fill="black"/>
<path d="M60.5403 67.0269H58.3782V69.189H60.5403V67.0269Z" fill="black"/>
<path d="M67.0269 67.0269H64.8647V69.189H67.0269V67.0269Z" fill="black"/>
<path d="M69.189 67.0269H67.0269V69.189H69.189V67.0269Z" fill="black"/>
<path d="M75.6756 67.0269H73.5134V69.189H75.6756V67.0269Z" fill="black"/>
<path d="M6.48638 69.189H4.32422V71.3511H6.48638V69.189Z" fill="black"/>
<path d="M10.8106 69.189H8.64844V71.3511H10.8106V69.189Z" fill="black"/>
<path d="M12.973 69.189H10.8108V71.3511H12.973V69.189Z" fill="black"/>
<path d="M15.1351 69.189H12.9729V71.3511H15.1351V69.189Z" fill="black"/>
<path d="M19.4593 69.189H17.2971V71.3511H19.4593V69.189Z" fill="black"/>
<path d="M23.7837 69.189H21.6216V71.3511H23.7837V69.189Z" fill="black"/>
<path d="M36.7566 69.189H34.5945V71.3511H36.7566V69.189Z" fill="black"/>
<path d="M41.0809 69.189H38.9187V71.3511H41.0809V69.189Z" fill="black"/>
<path d="M58.3782 69.189H56.2161V71.3511H58.3782V69.189Z" fill="black"/>
<path d="M60.5403 69.189H58.3782V71.3511H60.5403V69.189Z" fill="black"/>
<path d="M62.7027 69.189H60.5405V71.3511H62.7027V69.189Z" fill="black"/>
<path d="M64.8648 69.189H62.7026V71.3511H64.8648V69.189Z" fill="black"/>
<path d="M69.189 69.189H67.0269V71.3511H69.189V69.189Z" fill="black"/>
<path d="M6.48638 71.3511H4.32422V73.5132H6.48638V71.3511Z" fill="black"/>
<path d="M19.4593 71.3511H17.2971V73.5132H19.4593V71.3511Z" fill="black"/>
<path d="M23.7837 71.3511H21.6216V73.5132H23.7837V71.3511Z" fill="black"/>
<path d="M25.9459 71.3511H23.7837V73.5132H25.9459V71.3511Z" fill="black"/>
<path d="M30.2701 71.3511H28.1079V73.5132H30.2701V71.3511Z" fill="black"/>
<path d="M34.5945 71.3511H32.4324V73.5132H34.5945V71.3511Z" fill="black"/>
<path d="M38.9188 71.3511H36.7566V73.5132H38.9188V71.3511Z" fill="black"/>
<path d="M45.4053 71.3511H43.2432V73.5132H45.4053V71.3511Z" fill="black"/>
<path d="M47.5674 71.3511H45.4053V73.5132H47.5674V71.3511Z" fill="black"/>
<path d="M51.8919 71.3511H49.7297V73.5132H51.8919V71.3511Z" fill="black"/>
<path d="M54.054 71.3511H51.8918V73.5132H54.054V71.3511Z" fill="black"/>
<path d="M62.7027 71.3511H60.5405V73.5132H62.7027V71.3511Z" fill="black"/>
<path d="M67.0269 71.3511H64.8647V73.5132H67.0269V71.3511Z" fill="black"/>
<path d="M69.189 71.3511H67.0269V73.5132H69.189V71.3511Z" fill="black"/>
<path d="M71.3511 71.3511H69.189V73.5132H71.3511V71.3511Z" fill="black"/>
<path d="M6.48638 73.5132H4.32422V75.6753H6.48638V73.5132Z" fill="black"/>
<path d="M8.64849 73.5132H6.48633V75.6753H8.64849V73.5132Z" fill="black"/>
<path d="M10.8106 73.5132H8.64844V75.6753H10.8106V73.5132Z" fill="black"/>
<path d="M12.973 73.5132H10.8108V75.6753H12.973V73.5132Z" fill="black"/>
<path d="M15.1351 73.5132H12.9729V75.6753H15.1351V73.5132Z" fill="black"/>
<path d="M17.2972 73.5132H15.135V75.6753H17.2972V73.5132Z" fill="black"/>
<path d="M19.4593 73.5132H17.2971V75.6753H19.4593V73.5132Z" fill="black"/>
<path d="M25.9459 73.5132H23.7837V75.6753H25.9459V73.5132Z" fill="black"/>
<path d="M32.4324 73.5132H30.2703V75.6753H32.4324V73.5132Z" fill="black"/>
<path d="M34.5945 73.5132H32.4324V75.6753H34.5945V73.5132Z" fill="black"/>
<path d="M36.7566 73.5132H34.5945V75.6753H36.7566V73.5132Z" fill="black"/>
<path d="M45.4053 73.5132H43.2432V75.6753H45.4053V73.5132Z" fill="black"/>
<path d="M54.054 73.5132H51.8918V75.6753H54.054V73.5132Z" fill="black"/>
<path d="M56.2161 73.5132H54.054V75.6753H56.2161V73.5132Z" fill="black"/>
<path d="M58.3782 73.5132H56.2161V75.6753H58.3782V73.5132Z" fill="black"/>
<path d="M60.5403 73.5132H58.3782V75.6753H60.5403V73.5132Z" fill="black"/>
<path d="M62.7027 73.5132H60.5405V75.6753H62.7027V73.5132Z" fill="black"/>
<path d="M64.8648 73.5132H62.7026V75.6753H64.8648V73.5132Z" fill="black"/>
<path d="M73.5135 73.5132H71.3513V75.6753H73.5135V73.5132Z" fill="black"/>
</g>
<defs>
<clipPath id="clip0_1708_1318">
<rect width="80" height="80" fill="white"/>
</clipPath>
</defs>
</svg>
