<?xml version="1.0" encoding="UTF-8"?>
<svg width="130px" height="44px" viewBox="0 0 130 44" version="1.1" xmlns="http://www.w3.org/2000/svg" xmlns:xlink="http://www.w3.org/1999/xlink">
    <title>logo.svg</title>
    <g id="Page-1" stroke="none" stroke-width="1" fill="none" fill-rule="evenodd">
        <g id="Artboard" transform="translate(-26.000000, -72.000000)">
            <g id="logo.svg" transform="translate(26.000000, 72.000000)">
                <path d="M110.337434,8.58103406 L105.421753,11.4413836 L107.879952,12.8723529 L110.337434,11.4423948 L110.337434,8.58103406 Z M110.337434,8.58103406 L105.421753,5.72111796 L110.337434,2.86091293 L110.337434,8.58103406 Z" id="Fill-1" fill="#D2DB2F"></path>
                <polygon id="Fill-2" fill="#008FC9" points="110.337434 8.58103406 105.421753 11.4413836 100.505929 8.58103406 105.421753 5.72111796"></polygon>
                <polygon id="Fill-3" fill="#DC3E33" points="130 2.86136079 125.082886 0 125.082886 5.72171029"></polygon>
                <path d="M98.3158829,38.0560958 L88.1000737,32.1114692 L88.1000737,44 L98.3158829,38.0560958 Z M100.505886,14.3021665 L105.42171,11.4413836 L100.505886,8.58103406 L100.505886,14.3021665 Z M100.505886,2.86091293 L100.505886,8.58103406 L105.42171,5.72111796 L100.505886,2.86091293 Z M110.337391,25.7435645 L110.337391,17.1626604 L115.253215,20.0231544 L115.253215,8.58146747 L110.337391,11.4423948 L110.337391,8.58103406 L110.337391,2.86091293 L129.999971,14.3021665 L110.337391,25.7435645 Z" id="Fill-4" fill="#44BAC7"></path>
                <g id="Group-47" transform="translate(0.000000, 8.580528)">
                    <path d="M74.1913328,24.957521 L74.1913328,20.1033494 L78.3632039,22.5308686 L74.1913328,24.957521 Z M93.208437,5.7221437 L93.208437,0 L98.1256947,2.86136079 L93.208437,5.7221437 Z M13.0068518,8.45926081 L15.1959948,8.45926081 L15.1959948,6.72779514 L13.0068518,6.72779514 L13.0068518,8.45926081 Z M9.44576762,8.45926081 L11.6347672,8.45926081 L11.6347672,6.72779514 L9.44576762,6.72779514 L9.44576762,8.45926081 Z M14.3154352,17.1540067 L13.9907621,16.1266849 C13.9167968,16.2756328 13.3263646,17.3020879 11.7467185,17.3020879 C10.329624,17.3020879 8.65250432,16.5284543 8.65250432,14.0737748 L8.65250432,9.7625192 L10.8513946,9.7625192 L10.8513946,14.0883662 C10.8513946,15.1887896 11.4416834,15.6807079 12.2095749,15.6807079 C13.2132666,15.6807079 13.8282105,14.8773136 13.8282105,13.8057841 L13.8282105,9.7625192 L15.9891147,9.7625192 L15.9891147,17.1540067 L14.3154352,17.1540067 Z M7.98825024,5.7221437 L7.98825024,7.63462951 L5.12940616,7.63462951 L5.12940616,17.1631083 L2.85913076,17.1631083 L2.85913076,7.63462951 L0,7.63462951 L0,5.7221437 L7.98825024,5.7221437 Z M20.5308123,8.66382947 L20.5230717,9.91464547 C21.0418321,8.83574804 21.839539,8.58263767 23.3311722,8.58263767 L23.3311722,10.7392768 L23.0556658,10.7392768 C21.6285373,10.7392768 20.607071,11.4587343 20.607071,13.2901728 L20.607071,17.1631083 L18.4179281,17.1631083 L18.4179281,8.66382947 L20.5308123,8.66382947 Z M45.8194841,5.7221437 L45.8194841,7.63462951 L42.9609267,7.63462951 L42.9609267,17.1631083 L40.690508,17.1631083 L40.690508,7.63462951 L37.8310906,7.63462951 L37.8310906,5.7221437 L45.8194841,5.7221437 Z M81.754426,15.640112 C80.2540489,15.640112 79.0367753,14.4142892 79.0367753,12.9011167 C79.0367753,11.3879443 80.2540489,10.1624105 81.754426,10.1624105 C83.2556632,10.1624105 84.4720767,11.3879443 84.4720767,12.9011167 C84.4720767,14.4142892 83.2556632,15.640112 81.754426,15.640112 L81.754426,15.640112 Z M81.754426,8.07872843 C79.1120307,8.07872843 76.9713379,10.2378235 76.9713379,12.9011167 C76.9713379,15.5642655 79.1120307,17.723794 81.754426,17.723794 C84.3976814,17.723794 86.5402376,15.5642655 86.5402376,12.9011167 C86.5402376,10.2378235 84.3976814,8.07872843 81.754426,8.07872843 L81.754426,8.07872843 Z M89.7550038,8.66382947 L90.1119293,9.79141308 C90.4685681,9.05606387 91.4900343,8.50043458 92.4467093,8.50043458 C93.4360666,8.50043458 94.3769737,9.08900289 94.7661515,10.020686 C95.188155,9.18738655 96.0955197,8.50043458 97.4896793,8.50043458 C99.2255698,8.50043458 100.505915,9.57918754 100.505915,12.0471582 L100.505915,17.1631083 L98.3163416,17.1631083 L98.3163416,11.9006662 C98.3163416,11.0335609 97.975614,10.2820311 96.9544344,10.2820311 C95.8696103,10.2820311 95.39801,11.1482696 95.39801,12.2602505 L95.39801,17.1631083 L93.2090104,17.1631083 L93.2090104,11.7856686 C93.2090104,11.0335609 92.8525149,10.2820311 91.8630143,10.2820311 C90.7766134,10.2820311 90.2898186,11.1482696 90.2898186,12.2430587 L90.2898186,17.1631083 L88.1001023,17.1631083 L88.1001023,8.66382947 L89.7550038,8.66382947 Z M71.3590073,5.35519144 L71.3613008,12.4064535 L74.1757083,8.66382947 L76.7858513,8.66382947 L73.4452295,12.6529183 L76.6393542,17.1631083 L74.1913328,17.1631083 L72.1800792,14.2046641 L71.368898,15.1201666 L71.368898,17.1631083 L69.1804718,17.1631083 L69.1804718,6.59603905 L71.3590073,5.35519144 Z M27.2043153,5.35519144 L27.2063221,12.4064535 L30.0197263,8.66382947 L32.6307293,8.66382947 L29.2902509,12.6529183 L32.4849489,17.1631083 L30.0359241,17.1631083 L28.0256739,14.2046641 L27.2144927,15.1201666 L27.2144927,17.1631083 L25.0256364,17.1631083 L25.0256364,6.59603905 L27.2043153,5.35519144 Z M63.6475535,8.50043458 C66.1122027,8.50043458 67.5886415,10.1515753 67.5886415,12.7179296 C67.5886415,13.192656 67.5399046,13.584457 67.5399046,13.584457 L61.5719386,13.584457 C61.6691256,14.9251329 62.8366589,15.529015 64.0201034,15.529015 C64.7987456,15.529015 65.8202119,15.3160671 66.4367326,14.9892773 L67.1821191,16.5907206 C66.2744676,17.081772 64.9934062,17.3275145 63.9720833,17.3275145 C61.101485,17.3275145 59.2686942,15.54534 59.2686942,12.9461912 C59.2686942,10.3312952 61.0530349,8.50043458 63.6475535,8.50043458 L63.6475535,8.50043458 Z M65.4800576,12.1130362 C65.4634297,11.1315112 64.9125604,10.2824645 63.7769927,10.2824645 C62.577207,10.2824645 61.7663125,10.8873579 61.5393996,12.1130362 L65.4800576,12.1130362 Z M57.0153334,5.3638596 L57.0153334,14.8593994 C57.0153334,15.3322477 57.290983,15.54534 57.7772044,15.54534 C57.8910192,15.54534 58.1341299,15.5128344 58.2959648,15.4803288 L58.2959648,17.1631083 C57.8586235,17.2451669 57.3071809,17.3275145 56.8041883,17.3275145 C55.7828654,17.3275145 54.8259037,16.935569 54.8259037,15.0054579 L54.8259037,6.59603905 L57.0153334,5.3638596 Z M49.2155799,8.50043458 C51.6803725,8.50043458 53.1558078,10.1515753 53.1558078,12.7179296 C53.1558078,13.192656 53.1075011,13.584457 53.1075011,13.584457 L47.1399651,13.584457 C47.237152,14.9251329 48.4046853,15.529015 49.5881298,15.529015 C50.3667721,15.529015 51.3879516,15.3160671 52.0046157,14.9892773 L52.7505756,16.5907206 C51.8420641,17.081772 50.561146,17.3275145 49.5395364,17.3275145 C46.6696548,17.3275145 44.837294,15.54534 44.837294,12.9461912 C44.837294,10.3312952 46.620918,8.50043458 49.2155799,8.50043458 L49.2155799,8.50043458 Z M51.0477974,12.1130362 C51.0317429,11.1315112 50.4801568,10.2824645 49.3453058,10.2824645 C48.1452335,10.2824645 47.3343389,10.8873579 47.1072827,12.1130362 L51.0477974,12.1130362 Z" id="Fill-5" fill="#003051"></path>
                    <polygon id="Fill-7" fill="#008FC9" points="115.253244 0.000924604112 110.33742 2.86156304 110.33742 8.58240652 115.253244 11.4426115"></polygon>
                    <polygon id="Fill-9" fill="#003051" points="105.421753 5.72220149 110.337434 8.58240652 110.337434 2.86156304"></polygon>
                    <path d="M3.55473409,20.5478095 L3.55473409,24.4318691 L4.65690276,24.4318691 C5.10212788,24.4318691 5.5618307,24.2626954 5.84651102,23.9757792 C6.18967551,23.6447998 6.36484135,23.1078071 6.36484135,22.4676632 C6.36484135,21.7320251 6.11671364,21.1655606 5.67148852,20.8493171 C5.36487664,20.6359358 4.98530287,20.5478095 4.65690276,20.5478095 L3.55473409,20.5478095 Z M4.88309891,19.915178 C5.32832403,19.915178 5.73713988,20.040144 6.07285051,20.2387894 C6.87571782,20.7169831 7.21873897,21.5628514 7.21873897,22.4750312 C7.21873897,23.3945788 6.8684073,24.2846548 6.07285051,24.7407446 C5.72251883,24.946758 5.27729372,25.0645005 4.88309891,25.0645005 L2.74455625,25.0645005 L2.74455625,19.915178 L4.88309891,19.915178 Z" id="Fill-11" fill="#003051"></path>
                    <path d="M8.67191304,22.8796466 L10.8470083,22.8796466 C10.8470083,22.2543831 10.5550175,21.7761894 9.81794485,21.7761894 C9.1975539,21.7761894 8.774117,22.0704735 8.67191304,22.8796466 L8.67191304,22.8796466 Z M8.65012482,23.4241517 C8.66460252,24.1670133 9.2120316,24.5199521 9.99296734,24.5199521 C10.460124,24.5199521 10.9199702,24.3876181 11.2703019,24.2258124 L11.4090584,24.7922769 C11.0075531,24.9761864 10.5112977,25.1232562 9.92014881,25.1232562 C8.58433012,25.1232562 7.86173521,24.3803946 7.86173521,23.1812987 C7.86173521,21.9895707 8.59164064,21.1803976 9.79601328,21.1803976 C10.9345912,21.1803976 11.5696032,21.9086678 11.5696032,23.0268609 C11.5696032,23.203258 11.5549822,23.4019034 11.5476717,23.4241517 L8.65012482,23.4241517 Z" id="Fill-13" fill="#003051"></path>
                    <path d="M13.0955528,22.4603386 C13.0955528,22.9385323 13.4824371,23.1298098 13.9933136,23.1298098 C14.5699847,23.1298098 14.8910743,22.8869567 14.8910743,22.4603386 C14.8910743,22.0043932 14.5334321,21.7834995 14.0006241,21.7834995 C13.4605055,21.7834995 13.0955528,22.0043932 13.0955528,22.4603386 L13.0955528,22.4603386 Z M14.9932783,19.8562778 C14.9056954,20.4668055 14.5771519,20.7170265 13.9786925,20.7170265 C13.3802331,20.7170265 13.051833,20.4668055 12.9641068,19.8562778 L13.4167858,19.8047022 C13.4970581,20.143194 13.6283609,20.3269591 13.9786925,20.3269591 C14.3290242,20.3269591 14.4604703,20.143194 14.5407427,19.8047022 L14.9932783,19.8562778 Z M13.2050673,24.865754 C13.0445225,24.9687607 12.935008,25.1012391 12.935008,25.2925166 C12.935008,25.6970309 13.4093319,25.7631979 13.9933136,25.7631979 C14.5407427,25.7631979 15.0589296,25.7043988 15.0589296,25.2777807 C15.0589296,24.991009 14.825423,24.9099616 14.4312282,24.9099616 L13.9860031,24.9099616 C13.7598069,24.9099616 13.4751266,24.9099616 13.2050673,24.865754 L13.2050673,24.865754 Z M14.621015,21.2392833 L15.9056601,21.2392833 L15.9056601,21.7541722 L15.3070574,21.7615402 C15.475056,21.8938741 15.6646996,22.1367272 15.6646996,22.5486094 C15.6646996,23.2547758 15.1027928,23.733114 14.0006241,23.733114 C13.6795345,23.733114 13.3875437,23.6962743 13.1465831,23.6152269 C13.037212,23.6889063 12.9423185,23.791913 12.9496291,23.9463508 C12.9569396,24.2627388 13.3436805,24.3141699 13.9276622,24.3141699 L14.5043334,24.3141699 C15.256027,24.3141699 15.8252443,24.5347746 15.8252443,25.2484534 C15.8252443,26.1532652 14.9130059,26.366502 13.971382,26.366502 C13.0955528,26.366502 12.1977921,26.1825925 12.1977921,25.4102591 C12.1977921,25.0571759 12.3875789,24.8216908 12.6210856,24.6598851 C12.4239882,24.5347746 12.299996,24.3508651 12.299996,24.0640933 C12.299996,23.7477054 12.4605408,23.5048523 12.686737,23.3577825 C12.4605408,23.1592815 12.3292381,22.8649974 12.3292381,22.4677066 C12.3292381,21.5997344 12.9569396,21.1804843 14.0152451,21.1804843 C14.2123425,21.1804843 14.4312282,21.1950757 14.621015,21.2392833 L14.621015,21.2392833 Z" id="Fill-15" fill="#003051"></path>
                    <path d="M17.1688753,22.8796466 L19.3439705,22.8796466 C19.3439705,22.2543831 19.0519797,21.7761894 18.3149071,21.7761894 C17.6945161,21.7761894 17.2710792,22.0704735 17.1688753,22.8796466 L17.1688753,22.8796466 Z M17.147087,23.4241517 C17.1615647,24.1670133 17.7089938,24.5199521 18.4899296,24.5199521 C18.9570862,24.5199521 19.4169324,24.3876181 19.7672641,24.2258124 L19.9060207,24.7922769 C19.5045153,24.9761864 19.0082599,25.1232562 18.417111,25.1232562 C17.0812923,25.1232562 16.3586974,24.3803946 16.3586974,23.1812987 C16.3586974,21.9895707 17.0886029,21.1803976 18.2929755,21.1803976 C19.4315534,21.1803976 20.0665654,21.9086678 20.0665654,23.0268609 C20.0665654,23.203258 20.0519444,23.4019034 20.0446339,23.4241517 L17.147087,23.4241517 Z" id="Fill-17" fill="#003051"></path>
                    <path d="M22.8552285,21.9748781 C22.0523612,21.85728 21.6509992,22.5045029 21.6509992,23.2915722 L21.6509992,25.0645005 L20.8991622,25.0645005 L20.8991622,21.23924 L21.5195532,21.23924 L21.5852045,22.048413 C21.7384388,21.6288739 22.1690429,21.1362333 22.8844706,21.23924 L22.8552285,21.9748781 Z" id="Fill-19" fill="#003051"></path>
                    <path d="M24.3298898,24.2405338 C24.3298898,24.4906103 24.4613358,24.534818 24.6218806,24.534818 C24.7531833,24.534818 24.8773189,24.52745 24.9356597,24.5202266 L24.9575913,25.0718107 C24.804357,25.1012825 24.6290478,25.1232418 24.366299,25.1232418 C23.8190133,25.1232418 23.5780528,24.8879012 23.5780528,24.3730122 L23.5780528,19.6797796 L24.3298898,19.6797796 L24.3298898,24.2405338 Z" id="Fill-21" fill="#003051"></path>
                    <path d="M26.4539977,20.2608499 C26.4539977,20.5182944 26.2934529,20.6360369 26.0233937,20.6360369 C25.7606449,20.6360369 25.5999568,20.5182944 25.5999568,20.2608499 C25.5999568,20.0107734 25.7606449,19.8856629 26.0233937,19.8856629 C26.2934529,19.8856629 26.4539977,20.0107734 26.4539977,20.2608499 L26.4539977,20.2608499 Z M26.4175885,25.0644572 L25.6657515,25.0644572 L25.6657515,21.7835573 L25.1985948,21.7835573 L25.1985948,21.2391966 L26.4175885,21.2391966 L26.4175885,25.0644572 Z" id="Fill-23" fill="#003051"></path>
                    <polygon id="Fill-25" fill="#003051" points="33.9213088 25.0644572 33.111131 25.0644572 33.111131 22.8282155 30.4251592 22.8282155 30.4251592 25.0644572 29.6149814 25.0644572 29.6149814 19.9151346 30.4251592 19.9151346 30.4251592 22.195584 33.111131 22.195584 33.111131 19.9151346 33.9213088 19.9151346"></polygon>
                    <path d="M35.9948881,20.2608499 C35.9948881,20.5182944 35.8343434,20.6360369 35.5642841,20.6360369 C35.3015353,20.6360369 35.1408472,20.5182944 35.1408472,20.2608499 C35.1408472,20.0107734 35.3015353,19.8856629 35.5642841,19.8856629 C35.8343434,19.8856629 35.9948881,20.0107734 35.9948881,20.2608499 L35.9948881,20.2608499 Z M35.9584789,25.0644572 L35.2066419,25.0644572 L35.2066419,21.7835573 L34.7394852,21.7835573 L34.7394852,21.2391966 L35.9584789,21.2391966 L35.9584789,25.0644572 Z" id="Fill-27" fill="#003051"></path>
                    <path d="M39.7102817,21.4452389 L39.5788357,21.9529043 C39.4036698,21.8865929 38.9512775,21.7247872 38.4329472,21.7247872 C37.8491088,21.7247872 37.6227694,21.938024 37.6227694,22.2323081 C37.6227694,22.6517028 38.0096536,22.6957659 38.6008025,22.8503482 C39.2358145,23.0267453 39.878137,23.2253907 39.878137,23.9978686 C39.878137,24.7849378 39.1994052,25.1232851 38.3599853,25.1232851 C37.7249733,25.1232851 37.1702337,24.9395201 36.8345231,24.7923058 L36.9950679,24.2774168 C37.1921653,24.3656876 37.6885641,24.571701 38.2724024,24.571701 C38.8781723,24.571701 39.0972013,24.3508073 39.0972013,24.0566676 C39.0972013,23.6374174 38.6591433,23.5932098 38.0972366,23.44614 C37.5060877,23.2769663 36.8491441,23.0929123 36.8491441,22.2984751 C36.8491441,21.5187738 37.4768456,21.1804265 38.3161222,21.1804265 C38.8416197,21.1804265 39.35995,21.3053925 39.7102817,21.4452389" id="Fill-29" fill="#003051"></path>
                    <path d="M43.258035,21.4452389 L43.1265889,21.9529043 C42.9514231,21.8865929 42.4990308,21.7247872 41.9807004,21.7247872 C41.3968621,21.7247872 41.1705226,21.938024 41.1705226,22.2323081 C41.1705226,22.6517028 41.5574069,22.6957659 42.1485558,22.8503482 C42.7835678,23.0267453 43.4258903,23.2253907 43.4258903,23.9978686 C43.4258903,24.7849378 42.7471585,25.1232851 41.9077386,25.1232851 C41.2727266,25.1232851 40.717987,24.9395201 40.3822763,24.7923058 L40.5428211,24.2774168 C40.7399185,24.3656876 41.2363173,24.571701 41.8201556,24.571701 C42.4259256,24.571701 42.6449545,24.3508073 42.6449545,24.0566676 C42.6449545,23.6374174 42.2068966,23.5932098 41.6449898,23.44614 C41.0538409,23.2769663 40.3968974,23.0929123 40.3968974,22.2984751 C40.3968974,21.5187738 41.0245989,21.1804265 41.8638754,21.1804265 C42.3893729,21.1804265 42.9077033,21.3053925 43.258035,21.4452389" id="Fill-31" fill="#003051"></path>
                    <path d="M44.7473889,22.8796466 L46.9224842,22.8796466 C46.9224842,22.2543831 46.6304934,21.7761894 45.8934208,21.7761894 C45.2730298,21.7761894 44.8495929,22.0704735 44.7473889,22.8796466 L44.7473889,22.8796466 Z M44.7256007,23.4241517 C44.7400784,24.1670133 45.2875075,24.5199521 46.0684432,24.5199521 C46.5355999,24.5199521 46.9954461,24.3876181 47.3457778,24.2258124 L47.4845343,24.7922769 C47.083029,24.9761864 46.5867736,25.1232562 45.9956247,25.1232562 C44.659806,25.1232562 43.9372111,24.3803946 43.9372111,23.1812987 C43.9372111,21.9895707 44.6671165,21.1803976 45.8714892,21.1803976 C47.0100671,21.1803976 47.6450791,21.9086678 47.6450791,23.0268609 C47.6450791,23.203258 47.6304581,23.4019034 47.6231476,23.4241517 L44.7256007,23.4241517 Z" id="Fill-33" fill="#003051"></path>
                    <path d="M49.3681118,21.2392689 L50.4191068,21.2392689 L50.4191068,21.7836295 L49.3681118,21.7836295 L49.3681118,23.9316005 C49.3681118,24.4171621 49.5286566,24.5642319 49.8789883,24.5642319 C50.0687751,24.5642319 50.3095923,24.5052884 50.4117963,24.4759611 L50.4410384,24.9983625 C50.2293199,25.0791208 49.9374724,25.1233285 49.6747237,25.1233285 C48.988538,25.1233285 48.6162748,24.8437802 48.6162748,23.9537043 L48.6162748,21.7836295 L48.0761562,21.7836295 L48.0761562,21.2392689 L48.6162748,21.2392689 L48.7257893,20.1358116 L49.3681118,20.1358116 L49.3681118,21.2392689 Z" id="Fill-35" fill="#003051"></path>
                    <path d="M52.0470597,21.2392689 L53.0980547,21.2392689 L53.0980547,21.7836295 L52.0470597,21.7836295 L52.0470597,23.9316005 C52.0470597,24.4171621 52.2076045,24.5642319 52.5579362,24.5642319 C52.747723,24.5642319 52.9885402,24.5052884 53.0907442,24.4759611 L53.1199863,24.9983625 C52.9082678,25.0791208 52.6164203,25.1233285 52.3536716,25.1233285 C51.6674859,25.1233285 51.2952227,24.8437802 51.2952227,23.9537043 L51.2952227,21.7836295 L50.7551041,21.7836295 L50.7551041,21.2392689 L51.2952227,21.2392689 L51.4047372,20.1358116 L52.0470597,20.1358116 L52.0470597,21.2392689 Z" id="Fill-37" fill="#003051"></path>
                    <path d="M54.7114439,20.2608499 C54.7114439,20.5182944 54.5508991,20.6360369 54.2808398,20.6360369 C54.0180911,20.6360369 53.8574029,20.5182944 53.8574029,20.2608499 C53.8574029,20.0107734 54.0180911,19.8856629 54.2808398,19.8856629 C54.5508991,19.8856629 54.7114439,20.0107734 54.7114439,20.2608499 L54.7114439,20.2608499 Z M54.6750346,25.0644572 L53.9231976,25.0644572 L53.9231976,21.7835573 L53.4560409,21.7835573 L53.4560409,21.2391966 L54.6750346,21.2391966 L54.6750346,25.0644572 Z" id="Fill-39" fill="#003051"></path>
                    <path d="M57.7553302,21.9748781 C56.9524629,21.85728 56.5511009,22.5045029 56.5511009,23.2915722 L56.5511009,25.0645005 L55.7992639,25.0645005 L55.7992639,21.23924 L56.4196548,21.23924 L56.4853062,22.048413 C56.6385405,21.6288739 57.0691445,21.1362333 57.7845723,21.23924 L57.7553302,21.9748781 Z" id="Fill-41" fill="#003051"></path>
                    <path d="M59.3686477,20.2608499 C59.3686477,20.5182944 59.2081029,20.6360369 58.9380436,20.6360369 C58.6752948,20.6360369 58.5146067,20.5182944 58.5146067,20.2608499 C58.5146067,20.0107734 58.6752948,19.8856629 58.9380436,19.8856629 C59.2081029,19.8856629 59.3686477,20.0107734 59.3686477,20.2608499 L59.3686477,20.2608499 Z M59.3322384,25.0644572 L58.5804014,25.0644572 L58.5804014,21.7835573 L58.1132447,21.7835573 L58.1132447,21.2391966 L59.3322384,21.2391966 L59.3322384,25.0644572 Z" id="Fill-43" fill="#003051"></path>
                    <path d="M62.4125196,21.9748781 C61.6096523,21.85728 61.208147,22.5045029 61.208147,23.2915722 L61.208147,25.0645005 L60.4564533,25.0645005 L60.4564533,21.23924 L61.0768443,21.23924 L61.1424956,22.048413 C61.2957299,21.6288739 61.726334,21.1362333 62.4417617,21.23924 L62.4125196,21.9748781 Z" id="Fill-45" fill="#003051"></path>
                </g>
            </g>
        </g>
    </g>
</svg>