<svg width="47" height="38" viewBox="0 0 47 38" fill="none" xmlns="http://www.w3.org/2000/svg">
<g clip-path="url(#clip0_595_17557)">
<path d="M39.2354 37.9675C38.8453 37.9675 38.4668 37.7989 38.1999 37.5055C38.1723 37.4808 38.1425 37.4497 38.1138 37.4186C38.0862 37.3938 38.0565 37.3627 38.0278 37.3315C38.0001 37.3068 37.9704 37.2767 37.9417 37.2445C37.914 37.2198 37.8842 37.1886 37.8555 37.1575C37.8279 37.1328 37.7981 37.1016 37.7694 37.0704C37.7418 37.0457 37.712 37.0156 37.6833 36.9834C37.6557 36.9587 37.6259 36.9276 37.5972 36.8964C37.5696 36.8717 37.5398 36.8405 37.5111 36.8094C37.4834 36.7846 37.4537 36.7535 37.425 36.7224C37.3973 36.6977 37.3676 36.6665 37.3389 36.6353C37.3112 36.6106 37.2815 36.5805 37.2528 36.5483C37.2252 36.5236 37.1954 36.4924 37.1667 36.4613C37.139 36.4366 37.1093 36.4054 37.0805 36.3742C37.0529 36.3495 37.0231 36.3194 36.9955 36.2883C36.9679 36.2625 36.9381 36.2324 36.9094 36.2013C36.8818 36.1766 36.852 36.1454 36.8233 36.1142C36.7957 36.0895 36.7659 36.0594 36.7372 36.0272C36.7095 36.0025 36.6797 35.9714 36.651 35.9402C36.6234 35.9155 36.5937 35.8854 36.566 35.8542C36.5384 35.8295 36.5086 35.7984 36.4799 35.7672C36.4523 35.7425 36.4225 35.7114 36.3938 35.6802C36.3661 35.6554 36.3364 35.6254 36.3077 35.5932C36.28 35.5685 36.2503 35.5373 36.2216 35.5062C36.194 35.4815 36.1642 35.4513 36.1355 35.4191C36.1121 35.3987 36.0887 35.374 36.0643 35.3482V36.5376C36.0643 37.324 35.4317 37.9633 34.6535 37.9633H13.6429C13.2708 37.9633 12.9189 37.8182 12.6542 37.5539L11.2254 36.1347L11.2148 36.1228L11.1393 36.0477C11.1393 36.0477 11.1319 36.0401 11.1287 36.0369L11.0532 35.9616C11.0532 35.9616 11.0468 35.9542 11.0426 35.951L10.9671 35.8747C10.9671 35.8747 10.9608 35.8672 10.9575 35.8639L10.8821 35.7876L10.8725 35.7769L10.797 35.7006C10.797 35.7006 10.7895 35.6931 10.7864 35.6899L10.7099 35.6136L10.7013 35.6049L10.6248 35.5287C10.6248 35.5287 10.6174 35.5212 10.6142 35.5169L10.5397 35.4417C10.5397 35.4417 10.5323 35.4342 10.5291 35.431L10.4537 35.3558C10.4537 35.3558 10.4462 35.3482 10.443 35.3439L10.3676 35.2687C10.3676 35.2687 10.3601 35.2612 10.3569 35.258L10.2814 35.1827C10.2814 35.1827 10.2751 35.1753 10.2708 35.172L10.1953 35.0968C10.1953 35.0968 10.189 35.0892 10.1858 35.086L10.0997 34.999L10.022 34.9217L10.0135 34.912L9.93696 34.8357C9.93696 34.8357 9.92951 34.8282 9.92633 34.8239L9.85084 34.7487C9.85084 34.7487 9.84347 34.7412 9.84021 34.7369L9.7648 34.6617C9.7648 34.6617 9.75735 34.6541 9.75417 34.6509L9.67868 34.5757C9.67868 34.5757 9.67123 34.5682 9.66805 34.5639L9.59256 34.4887L9.58294 34.478L9.50753 34.4017L9.49791 34.3909L9.42249 34.3146C9.42249 34.3146 9.41504 34.3071 9.41179 34.3028L9.33529 34.2266L9.32784 34.218L9.25127 34.1417C9.25127 34.1417 9.24389 34.1341 9.24064 34.1298L9.16522 34.0546C9.16522 34.0546 9.15777 34.0471 9.15459 34.0439L9.0791 33.9687C9.0791 33.9687 9.07165 33.9612 9.06847 33.9579L8.99298 33.8827C8.99298 33.8827 8.98554 33.8752 8.98235 33.8709L8.90578 33.7946L8.89732 33.785L8.82075 33.7087C8.82075 33.7087 8.81438 33.7012 8.8112 33.6979L8.73571 33.6216C8.73571 33.6216 8.72827 33.6141 8.72508 33.6099L8.64851 33.5336L8.64106 33.525L8.56456 33.4487C8.56456 33.4487 8.55711 33.4411 8.55393 33.4368L8.47844 33.3616C8.47844 33.3616 8.47099 33.3541 8.46781 33.3499L8.39124 33.2736L8.38278 33.2639L8.30729 33.1876C8.30729 33.1876 8.30093 33.1801 8.29666 33.1769L8.22117 33.1016L8.21163 33.0909L8.13404 33.0136L8.12551 33.0039L8.05002 32.9276L8.04047 32.9169L7.96282 32.8395L7.95436 32.8309L7.87778 32.7547C7.87778 32.7547 7.87033 32.7471 7.86715 32.7439L7.79166 32.6686C7.79166 32.6686 7.78422 32.6612 7.78002 32.6569L7.70345 32.5806L7.696 32.572L7.6195 32.4957L7.60988 32.4849L7.5323 32.4076L7.52376 32.398L7.44726 32.3217C7.44726 32.3217 7.43981 32.3142 7.43663 32.3109L7.36114 32.2357C7.36114 32.2357 7.3537 32.2282 7.35051 32.2249L7.27394 32.1476L7.26656 32.139L7.18999 32.0627L7.17936 32.0509L7.10494 31.9757C7.10494 31.9757 7.0975 31.9682 7.09431 31.965L7.01883 31.8897C7.01883 31.8897 7.01139 31.8822 7.0082 31.879L6.93166 31.8017L6.92316 31.7919L6.84555 31.7146L6.83705 31.706L6.75944 31.6287L6.75094 31.619L6.67546 31.5428C6.40756 31.2762 6.25342 30.9056 6.25342 30.5263V15.3431H4.44831C4.24101 15.3431 4.04222 15.2668 3.88701 15.1272L2.96957 14.301C2.96213 14.2945 2.95575 14.287 2.95044 14.2795C2.94831 14.2763 2.94512 14.273 2.94193 14.2709L2.91961 14.2505C2.91216 14.244 2.90578 14.2365 2.8994 14.229C2.89728 14.2258 2.8941 14.2225 2.89197 14.2204L2.86964 14.2C2.8622 14.1935 2.85582 14.186 2.84945 14.1785C2.84731 14.1753 2.84413 14.172 2.842 14.1699L2.81967 14.1495C2.81223 14.143 2.80585 14.1355 2.79948 14.128C2.79735 14.1248 2.79417 14.1215 2.79204 14.1194L2.76971 14.1C2.76227 14.0936 2.7559 14.0861 2.74951 14.0785C2.74739 14.0753 2.7442 14.0721 2.74207 14.07L2.71974 14.0506C2.7123 14.0442 2.70592 14.0367 2.70061 14.0291C2.69848 14.0259 2.6953 14.0227 2.69211 14.0205L2.66978 14.0001C2.66234 13.9937 2.65597 13.9862 2.64958 13.9786C2.64746 13.9754 2.64427 13.9722 2.64108 13.969L2.61876 13.9485C2.61132 13.9421 2.60494 13.9346 2.59856 13.927C2.59644 13.9238 2.59324 13.9206 2.59111 13.9185L2.56879 13.8991C2.56134 13.8927 2.55497 13.8852 2.54859 13.8776C2.54646 13.8744 2.54327 13.8712 2.54115 13.869L2.51883 13.8497C2.51139 13.8433 2.50501 13.8358 2.49863 13.8282C2.49651 13.825 2.49331 13.8218 2.49012 13.8196L2.46779 13.7992C2.46035 13.7928 2.45397 13.7853 2.4476 13.7778C2.44547 13.7745 2.44229 13.7713 2.43909 13.7691L2.41677 13.7487C2.40933 13.7423 2.40295 13.7348 2.39763 13.7273C2.39551 13.724 2.39232 13.7208 2.38913 13.7175L2.36681 13.6971C2.35937 13.6907 2.35299 13.6832 2.34661 13.6757C2.34449 13.6724 2.34129 13.6692 2.3381 13.666L2.31577 13.6467C2.30833 13.6402 2.30196 13.6327 2.29558 13.6252C2.29345 13.622 2.29026 13.6187 2.28814 13.6165L2.26582 13.5973C2.25838 13.5908 2.252 13.5833 2.24561 13.5758C2.24349 13.5726 2.2403 13.5693 2.23711 13.566L2.21478 13.5457C2.20734 13.5392 2.20096 13.5317 2.19459 13.5242C2.19246 13.521 2.18927 13.5177 2.18608 13.5156L2.16376 13.4952C2.15631 13.4887 2.14994 13.4812 2.14356 13.4737C2.14143 13.4705 2.13824 13.4672 2.13612 13.4651L2.1138 13.4447C2.10636 13.4382 2.09998 13.4307 2.0936 13.4232C2.09147 13.42 2.08828 13.4168 2.08509 13.4146L2.06276 13.3942C2.05532 13.3877 2.04894 13.3802 2.04257 13.3727C2.04044 13.3695 2.03725 13.3663 2.03513 13.3641L2.0128 13.3448C2.00536 13.3383 1.99898 13.3308 1.9926 13.3233C1.99048 13.3201 1.98729 13.3168 1.9841 13.3136L1.96178 13.2943C1.95434 13.2878 1.94796 13.2803 1.94158 13.2728C1.93946 13.2696 1.93626 13.2663 1.93413 13.2642L1.91181 13.2448C1.90436 13.2384 1.89799 13.2308 1.89161 13.2233C1.88948 13.2201 1.88629 13.2169 1.88311 13.2137L1.86078 13.1933C1.85334 13.1869 1.84697 13.1793 1.84165 13.1718C1.83952 13.1686 1.83633 13.1654 1.83314 13.1632L1.81081 13.1428C1.80337 13.1364 1.79699 13.1288 1.79062 13.1213C1.78849 13.1181 1.7853 13.1148 1.78211 13.1116L1.75979 13.0923C1.75234 13.0859 1.74597 13.0783 1.73959 13.0708C1.73746 13.0676 1.73427 13.0644 1.73109 13.0622L1.70876 13.0418C1.70132 13.0354 1.69495 13.0278 1.68856 13.0203C1.68644 13.0171 1.68325 13.0139 1.68006 13.0117L1.65773 12.9913C1.65029 12.9849 1.64391 12.9773 1.63753 12.9698C1.63541 12.9666 1.63222 12.9634 1.62903 12.9612L1.6067 12.9408C1.59926 12.9344 1.59288 12.9268 1.58651 12.9193C1.58438 12.9161 1.58119 12.9128 1.578 12.9096L1.55568 12.8903C1.54824 12.8839 1.54186 12.8763 1.53654 12.8688C1.53442 12.8656 1.53123 12.8623 1.52804 12.8602L1.50571 12.8398C1.49827 12.8334 1.49189 12.8259 1.48551 12.8183C1.48339 12.8151 1.4802 12.8119 1.47807 12.8097L1.45575 12.7903C1.44831 12.7839 1.44193 12.7764 1.43555 12.7689C1.43342 12.7656 1.43024 12.7624 1.42811 12.7603L1.40578 12.7409C1.39834 12.7345 1.39196 12.727 1.38559 12.7195C1.38346 12.7162 1.38027 12.713 1.37814 12.7108L1.35582 12.6904C1.34838 12.684 1.342 12.6765 1.33562 12.669C1.33349 12.6657 1.33031 12.6625 1.32712 12.6603L1.30479 12.6399C1.29735 12.6335 1.29097 12.626 1.28459 12.6185C1.28247 12.6152 1.27928 12.612 1.27715 12.6098L1.25482 12.5894C1.24738 12.583 1.24101 12.5755 1.23463 12.568C1.2325 12.5647 1.22931 12.5615 1.22719 12.5593L1.20486 12.54C1.19742 12.5336 1.19104 12.5261 1.18466 12.5186C1.18253 12.5153 1.17935 12.5121 1.17722 12.5099L1.15489 12.4896C1.14745 12.4831 1.14108 12.4756 1.1347 12.4681C1.13257 12.4649 1.12938 12.4616 1.12726 12.4594L1.10493 12.4391C1.09749 12.4326 1.09111 12.4251 1.08473 12.4176C1.08261 12.4144 1.07942 12.4111 1.07729 12.4089L1.05497 12.3886C1.04753 12.3821 1.04115 12.3746 1.03477 12.3671C1.03264 12.3639 1.02946 12.3606 1.02626 12.3585L1.00395 12.3381C0.996498 12.3316 0.99012 12.3241 0.983743 12.3166C0.981617 12.3134 0.978428 12.3101 0.975239 12.3069L0.952911 12.2865C0.94547 12.28 0.939093 12.2725 0.932708 12.265C0.930582 12.2618 0.9274 12.2586 0.925275 12.2564L0.902946 12.2371C0.895505 12.2306 0.889128 12.2231 0.88275 12.2156C0.880625 12.2124 0.877436 12.2092 0.874247 12.2059L0.851926 12.1866C0.844478 12.1801 0.8381 12.1726 0.831723 12.1651C0.829597 12.1619 0.826408 12.1587 0.824282 12.1565L0.801954 12.1361C0.794513 12.1296 0.789199 12.1221 0.782821 12.1146C0.780695 12.1114 0.777507 12.1082 0.774311 12.1049L0.751996 12.0845C0.744549 12.0781 0.738171 12.0705 0.731794 12.0619C0.729668 12.0598 0.726479 12.0566 0.724353 12.0534L0.702025 12.034C0.69671 12.0287 0.691393 12.0232 0.687141 12.0179C0.686078 12.0168 0.681829 12.0125 0.677577 12.0072L0.652064 11.9824C0.644622 11.976 0.638243 11.9684 0.631865 11.9609C0.629739 11.9577 0.626549 11.9545 0.624422 11.9524L0.602096 11.933C0.594654 11.9266 0.588276 11.919 0.581897 11.9115C0.579771 11.9083 0.576581 11.9051 0.574455 11.9029L0.552134 11.8836C0.544692 11.8772 0.538314 11.8696 0.531935 11.861C0.529809 11.8578 0.526619 11.8546 0.524493 11.8524L0.502166 11.8331C0.494725 11.8267 0.488346 11.8191 0.481968 11.8116C0.479841 11.8084 0.476652 11.8052 0.474525 11.803L0.452204 11.7837C0.444763 11.7772 0.438386 11.7697 0.43307 11.7621C0.430944 11.7589 0.427753 11.7557 0.424563 11.7525L0.402237 11.7321C0.395858 11.7267 0.390545 11.7203 0.38523 11.7138C0.383104 11.7127 0.379913 11.7084 0.376724 11.7042L0.352275 11.6816C0.345897 11.6752 0.339514 11.6687 0.334198 11.6622C0.333135 11.6612 0.329952 11.6569 0.326762 11.6537L0.302307 11.6311C0.257658 11.5903 0.21726 11.5462 0.182179 11.4979C0.075871 11.3507 0.0195312 11.1767 0.0195312 10.9951V0.939883C0.0195312 0.656242 0.158794 0.391943 0.391608 0.232933C0.483033 0.170619 0.585085 0.126569 0.693519 0.105081C0.7488 0.0932625 0.806206 0.0878906 0.863618 0.0878906H9.06421C9.12162 0.0878906 9.18113 0.0943375 9.24064 0.10723C9.24809 0.108305 9.25452 0.111527 9.26088 0.113676C9.31931 0.128717 9.36609 0.144833 9.4076 0.163098L9.41823 0.16847C9.5128 0.21252 9.59683 0.27376 9.66906 0.350041H9.69885V0.380125C9.71158 0.391943 9.72329 0.404835 9.73501 0.417728C9.7499 0.430621 9.76689 0.448885 9.78389 0.46715C9.80088 0.483265 9.81686 0.499381 9.83284 0.516572C9.85084 0.533761 9.86791 0.550951 9.8849 0.569216C9.89979 0.583183 9.91787 0.601447 9.93486 0.619712C9.94976 0.63368 9.96784 0.650869 9.98483 0.670208C9.98801 0.672358 9.99011 0.67558 9.99336 0.67773L10.2474 0.382273C10.4079 0.19533 10.6396 0.0878906 10.8842 0.0878906H18.5001C18.735 0.0878906 18.9604 0.187809 19.1198 0.361859L19.1496 0.394091C19.1592 0.401612 19.1656 0.406984 19.1698 0.412356L19.1996 0.444587C19.2091 0.452108 19.2145 0.45748 19.2197 0.462852L19.2495 0.495084C19.2591 0.503679 19.2655 0.507976 19.2708 0.513348L19.3006 0.54558C19.3101 0.553101 19.3155 0.558472 19.3208 0.563844L19.3506 0.596076C19.3601 0.604671 19.3665 0.608969 19.3707 0.614341L19.4005 0.646572C19.4101 0.655167 19.4164 0.659465 19.4207 0.664837L19.4505 0.697069C19.4505 0.697069 19.4548 0.700291 19.4558 0.701366C19.5589 0.340372 19.8842 0.0878906 20.2637 0.0878906H23.4891C23.723 0.0878906 23.9483 0.188884 24.1088 0.364008L24.1131 0.368306L25.5971 2.88774L26.9781 0.507976C27.1291 0.249049 27.4076 0.0878906 27.7053 0.0878906H30.9306C31.071 0.0878906 31.2081 0.125495 31.3357 0.199627C31.4632 0.126569 31.6046 0.0878906 31.7471 0.0878906H39.9339C40.1709 0.0878906 40.391 0.186734 40.5547 0.367232C40.5696 0.381199 40.5876 0.398389 40.6047 0.417728C40.6206 0.431695 40.6376 0.448885 40.6546 0.468224C40.6695 0.482191 40.6875 0.499382 40.7046 0.518721C40.7194 0.532687 40.7375 0.549877 40.7546 0.569216C40.7705 0.583183 40.7875 0.600373 40.8045 0.619712C40.8194 0.63368 40.8374 0.650869 40.8545 0.670208C40.8693 0.684176 40.8874 0.701366 40.9045 0.720705C40.9193 0.734669 40.9374 0.752938 40.9544 0.7712C40.9693 0.785165 40.9873 0.80236 41.0044 0.821696C41.0193 0.835661 41.0373 0.85393 41.0544 0.872192C41.0692 0.886157 41.0873 0.903352 41.1043 0.922688C41.1202 0.936653 41.1372 0.954923 41.1543 0.973185C41.1691 0.98715 41.1872 1.00434 41.2043 1.02368C41.2192 1.03765 41.2372 1.05484 41.2542 1.07418C41.2691 1.08814 41.2871 1.10534 41.3042 1.12467C41.319 1.13865 41.3371 1.15583 41.3541 1.17517C41.369 1.18914 41.387 1.20633 41.4041 1.22567C41.419 1.23964 41.437 1.25683 41.4541 1.27616C41.469 1.29013 41.487 1.3084 41.504 1.32666C41.5189 1.34062 41.5369 1.35782 41.554 1.37715C41.5688 1.39112 41.5869 1.40831 41.604 1.42765C41.6189 1.44161 41.6369 1.45881 41.6539 1.47815C41.6698 1.49211 41.6868 1.51038 41.7039 1.52864C41.7187 1.54261 41.7368 1.5598 41.7539 1.57914C41.7687 1.5931 41.7868 1.61137 41.8038 1.62963C41.8187 1.64361 41.8367 1.66079 41.8538 1.68013C41.8761 1.70055 41.8984 1.72526 41.9207 1.75212C41.9207 1.75212 41.925 1.75534 41.9292 1.75856C41.9377 1.76608 41.9463 1.77253 41.9537 1.78112C41.9685 1.7951 41.9866 1.81228 42.0037 1.83162C42.0185 1.84559 42.0366 1.86278 42.0537 1.88212C42.0696 1.89609 42.0866 1.91328 42.1036 1.93261C42.1185 1.94658 42.1365 1.96377 42.1536 1.98311C42.1684 1.99707 42.1865 2.01427 42.2035 2.0336C42.2195 2.04757 42.2364 2.06584 42.2535 2.0841C42.2684 2.09807 42.2864 2.11526 42.3035 2.1346C42.3183 2.14857 42.3364 2.16576 42.3534 2.18509C42.3683 2.19906 42.3863 2.21733 42.4034 2.23559C42.4182 2.24956 42.4363 2.26675 42.4534 2.28608C42.4683 2.30006 42.4863 2.31832 42.5033 2.33658C42.5192 2.35055 42.5362 2.36774 42.5533 2.38708C42.5681 2.40105 42.5862 2.41824 42.6033 2.43757C42.6181 2.45155 42.6362 2.46981 42.6532 2.48807C42.6681 2.50204 42.6861 2.5203 42.7032 2.53857C42.7181 2.55254 42.7361 2.56973 42.7532 2.58906C42.768 2.60303 42.7861 2.62022 42.8031 2.63956C42.8179 2.65353 42.836 2.67072 42.8531 2.69005C42.868 2.70403 42.886 2.72121 42.9031 2.74055C42.9179 2.75452 42.936 2.77171 42.953 2.79105C42.9678 2.80502 42.9859 2.82221 43.003 2.84154C43.0178 2.85551 43.036 2.87378 43.0529 2.89204C43.0678 2.90601 43.0858 2.9232 43.1029 2.94253C43.1178 2.95651 43.1358 2.97369 43.1529 2.99303C43.3272 3.15419 43.4261 3.37659 43.4261 3.61725V6.51488C43.4261 6.98438 43.0476 7.36686 42.583 7.36686H42.2907C42.3119 7.44315 42.3226 7.52156 42.3226 7.60107V10.1205C42.3332 10.1313 42.3438 10.142 42.3545 10.1538C42.3693 10.1678 42.3874 10.186 42.4044 10.2043C42.4193 10.2183 42.4374 10.2355 42.4544 10.2548C42.4693 10.2688 42.4874 10.287 42.5043 10.3053C42.5192 10.3193 42.5373 10.3365 42.5543 10.3558C42.5692 10.3698 42.5873 10.387 42.6043 10.4063C42.6203 10.4203 42.6372 10.4375 42.6542 10.4568C42.6691 10.4708 42.6872 10.488 42.7042 10.5073C42.7191 10.5213 42.7372 10.5385 42.7542 10.5578C42.7691 10.5718 42.7871 10.589 42.8041 10.6083C42.819 10.6223 42.8371 10.6395 42.8541 10.6588C42.869 10.6728 42.8871 10.691 42.9041 10.7093C42.92 10.7233 42.937 10.7415 42.954 10.7597C42.9689 10.7738 42.987 10.791 43.004 10.8102C43.0189 10.8243 43.037 10.8425 43.054 10.8607C43.0689 10.8748 43.0869 10.8919 43.1039 10.9112C43.1199 10.9253 43.1369 10.9435 43.1539 10.9617C43.3283 11.1229 43.4271 11.3453 43.4271 11.5849V13.3093C43.4271 13.3383 43.4261 13.3673 43.4229 13.3963C43.4261 13.4253 43.4271 13.4543 43.4271 13.4833V14.2193C43.4516 14.243 43.4749 14.2666 43.4984 14.2924C43.526 14.3182 43.5558 14.3483 43.5845 14.3794C43.6121 14.4041 43.6419 14.4342 43.6706 14.4664C43.6982 14.4922 43.728 14.5212 43.7556 14.5524C43.7833 14.5782 43.813 14.6082 43.8418 14.6394C43.8694 14.6652 43.8992 14.6942 43.9279 14.7264C43.9555 14.7522 43.9852 14.7812 44.0139 14.8124C44.0416 14.8382 44.0713 14.8682 44.1 14.8994C44.1277 14.9252 44.1574 14.9552 44.1861 14.9864C44.2138 15.0122 44.2436 15.0423 44.2723 15.0735C44.2999 15.0992 44.3297 15.1293 44.3584 15.1604C44.386 15.1862 44.4158 15.2152 44.4434 15.2465C44.471 15.2722 44.5008 15.3023 44.5295 15.3334C44.5572 15.3592 44.587 15.3893 44.6157 15.4204C44.6433 15.4462 44.6731 15.4753 44.7007 15.5064C44.7283 15.5322 44.7581 15.5623 44.7868 15.5934C44.8144 15.6182 44.8442 15.6482 44.8729 15.6805C44.9006 15.7063 44.9303 15.7364 44.959 15.7675C44.9867 15.7933 45.0165 15.8234 45.0452 15.8545C45.0728 15.8803 45.1025 15.9093 45.1302 15.9405C45.1578 15.9663 45.1876 15.9964 45.2163 16.0275C45.2439 16.0533 45.2737 16.0834 45.3024 16.1145C45.3301 16.1392 45.3598 16.1693 45.3875 16.2005C45.4151 16.2263 45.4448 16.2564 45.4735 16.2875C45.5012 16.3133 45.5309 16.3433 45.5596 16.3745C45.5873 16.4003 45.617 16.4304 45.6458 16.4616C45.6734 16.4874 45.7032 16.5174 45.7319 16.5486C45.7595 16.5743 45.7893 16.6033 45.8169 16.6356C45.8446 16.6614 45.8743 16.6915 45.903 16.7226C45.9306 16.7473 45.9604 16.7774 45.9891 16.8096C46.2783 17.0761 46.4452 17.4597 46.4452 17.8572V34.5113C46.4452 34.5618 46.4431 34.6123 46.4377 34.6606C46.4431 34.709 46.4452 34.7594 46.4452 34.8099V36.5526C46.4452 37.3391 45.8126 37.9783 45.0345 37.9783H39.2184L39.2354 37.9675Z" fill="#161B32"/>
<path d="M39.9526 0.132149C40.1833 0.132149 40.3895 0.234216 40.5341 0.393225C40.5511 0.409341 40.5681 0.426531 40.5841 0.443722C40.6011 0.459837 40.618 0.477028 40.634 0.494218C40.651 0.510333 40.668 0.527524 40.684 0.544714C40.701 0.56083 40.718 0.57802 40.734 0.595211C40.751 0.611326 40.7679 0.628516 40.7839 0.645706C40.8009 0.661822 40.8179 0.677938 40.8339 0.696202C40.8509 0.712318 40.8679 0.729509 40.8839 0.7467C40.9008 0.762813 40.9178 0.780008 40.9338 0.797196C40.9508 0.81331 40.9678 0.830505 40.9838 0.847692C41.0008 0.863806 41.0178 0.881001 41.0337 0.898188C41.0507 0.914302 41.0677 0.931497 41.0837 0.948685C41.1007 0.964798 41.1177 0.981993 41.1337 0.999181C41.1507 1.01529 41.1677 1.03249 41.1836 1.04968C41.2006 1.06579 41.2176 1.08299 41.2336 1.10017C41.2506 1.11629 41.2676 1.13347 41.2836 1.15067C41.3006 1.16678 41.3176 1.18397 41.3335 1.20117C41.3505 1.21728 41.3675 1.23447 41.3835 1.25166C41.4016 1.26777 41.4175 1.28497 41.4335 1.30216C41.4505 1.31827 41.4674 1.33547 41.4834 1.35265C41.5015 1.36877 41.5174 1.38596 41.5334 1.40315C41.5504 1.41926 41.5674 1.43646 41.5834 1.45365C41.6004 1.46976 41.6173 1.48695 41.6333 1.50414C41.6503 1.52026 41.6673 1.53745 41.6833 1.55464C41.7003 1.57075 41.7173 1.58795 41.7333 1.60513C41.7502 1.62125 41.7672 1.63844 41.7832 1.65563C41.8002 1.67174 41.8172 1.68894 41.8332 1.70613C41.8565 1.72761 41.8789 1.75125 41.8991 1.77596C41.9097 1.78671 41.9225 1.7953 41.9331 1.80712C41.9501 1.82323 41.9671 1.84043 41.9831 1.85762C42.0001 1.87373 42.0171 1.88985 42.033 1.90811C42.05 1.92422 42.067 1.94142 42.083 1.95861C42.1 1.97472 42.117 1.99192 42.133 2.0091C42.15 2.02522 42.167 2.04241 42.1829 2.0596C42.1999 2.07571 42.2169 2.09291 42.2329 2.1101C42.2499 2.12621 42.2669 2.1434 42.2829 2.16059C42.2999 2.17671 42.3168 2.1939 42.3328 2.21109C42.3498 2.2272 42.3668 2.2444 42.3828 2.26158C42.3998 2.2777 42.4168 2.29382 42.4328 2.31208C42.4508 2.32819 42.4667 2.34539 42.4827 2.36258C42.5008 2.37869 42.5167 2.39589 42.5327 2.41307C42.5497 2.42919 42.5667 2.44638 42.5827 2.46357C42.5996 2.47968 42.6166 2.49688 42.6326 2.51407C42.6496 2.53018 42.6666 2.54737 42.6826 2.56456C42.6996 2.58067 42.7166 2.59787 42.7325 2.61506C42.7495 2.63117 42.7665 2.64837 42.7825 2.66555C42.7995 2.68167 42.8165 2.69886 42.8325 2.71605C42.8495 2.73216 42.8665 2.74936 42.8824 2.76655C42.8994 2.78266 42.9164 2.79985 42.9324 2.81704C42.9494 2.83316 42.9664 2.84928 42.9824 2.86754C43.0004 2.88365 43.0164 2.90085 43.0323 2.91803C43.0493 2.93415 43.0663 2.95134 43.0823 2.96853C43.0993 2.98465 43.1163 3.00184 43.1323 3.01903C43.2907 3.16514 43.3906 3.37357 43.3906 3.60672V6.50434C43.3906 6.94591 43.0366 7.30261 42.6007 7.30261H42.234C42.268 7.3918 42.2871 7.48958 42.2871 7.59057V10.1326C42.303 10.1476 42.3179 10.1627 42.3328 10.1798C42.3498 10.1959 42.3668 10.2132 42.3828 10.2303C42.3998 10.2464 42.4168 10.2626 42.4328 10.2808C42.4508 10.2969 42.4667 10.3141 42.4827 10.3313C42.5008 10.3474 42.5167 10.3646 42.5327 10.3818C42.5497 10.3979 42.5667 10.4151 42.5827 10.4323C42.5996 10.4484 42.6166 10.4656 42.6326 10.4828C42.6496 10.4989 42.6666 10.5161 42.6826 10.5333C42.6996 10.5494 42.7166 10.5666 42.7325 10.5838C42.7495 10.5999 42.7665 10.6171 42.7825 10.6343C42.7995 10.6504 42.8165 10.6676 42.8325 10.6848C42.8495 10.7009 42.8665 10.7181 42.8824 10.7353C42.8994 10.7514 42.9164 10.7686 42.9324 10.7858C42.9494 10.8019 42.9664 10.818 42.9824 10.8363C43.0004 10.8524 43.0164 10.8696 43.0323 10.8868C43.0493 10.9029 43.0663 10.9201 43.0823 10.9373C43.0993 10.9534 43.1163 10.9706 43.1323 10.9878C43.2907 11.1339 43.3906 11.3423 43.3906 11.5755V13.2999C43.3906 13.3289 43.3895 13.3579 43.3864 13.3869C43.3895 13.4159 43.3906 13.4449 43.3906 13.4739V14.2335C43.4203 14.2603 43.448 14.2893 43.4757 14.3194C43.5054 14.3473 43.5341 14.3763 43.5618 14.4065C43.5915 14.4344 43.6202 14.4634 43.6478 14.4935C43.6776 14.5214 43.7063 14.5493 43.7329 14.5794C43.7626 14.6073 43.7913 14.6364 43.819 14.6665C43.8488 14.6944 43.8775 14.7234 43.9051 14.7535C43.9349 14.7814 43.9636 14.8093 43.9912 14.8405C44.021 14.8684 44.0497 14.8975 44.0773 14.9276C44.1071 14.9555 44.1358 14.9845 44.1634 15.0145C44.1932 15.0425 44.2219 15.0715 44.2496 15.1016C44.2793 15.1296 44.308 15.1585 44.3357 15.1886C44.3654 15.2165 44.3941 15.2445 44.4207 15.2745C44.4505 15.3025 44.4791 15.3315 44.5068 15.3616C44.5365 15.3895 44.5653 15.4185 44.5929 15.4486C44.6227 15.4765 44.6514 15.5045 44.679 15.5356C44.7088 15.5636 44.7375 15.5926 44.7651 15.6227C44.7949 15.6506 44.8236 15.6796 44.8512 15.7097C44.881 15.7376 44.9097 15.7666 44.9374 15.7967C44.9671 15.8247 44.9958 15.8537 45.0235 15.8837C45.0533 15.9117 45.082 15.9396 45.1096 15.9697C45.1394 15.9976 45.168 16.0266 45.1957 16.0567C45.2254 16.0847 45.2541 16.1137 45.2818 16.1437C45.3115 16.1717 45.3403 16.1996 45.3669 16.2297C45.3966 16.2576 45.4253 16.2867 45.453 16.3167C45.4827 16.3447 45.5114 16.3737 45.539 16.4037C45.5688 16.4317 45.5975 16.4606 45.6251 16.4908C45.6549 16.5187 45.6836 16.5477 45.7113 16.5778C45.7411 16.6057 45.7698 16.6337 45.7974 16.6648C45.8272 16.6927 45.8559 16.7218 45.8835 16.7519C45.9133 16.7798 45.942 16.8088 45.9696 16.8389C46.2407 17.0892 46.4118 17.4491 46.4118 17.8498V34.5039C46.4118 34.5544 46.4087 34.6038 46.4044 34.6533C46.4098 34.7027 46.4118 34.7521 46.4118 34.8026V36.5453C46.4118 37.3027 45.8037 37.9173 45.0543 37.9173H39.2382C38.8545 37.9173 38.4962 37.7518 38.241 37.4725C38.2113 37.4445 38.1826 37.4155 38.1549 37.3854C38.1252 37.3575 38.0965 37.3285 38.0688 37.2984C38.0391 37.2705 38.0103 37.2415 37.9827 37.2114C37.9529 37.1834 37.9242 37.1544 37.8966 37.1244C37.8668 37.0964 37.8381 37.0674 37.8105 37.0374C37.7807 37.0094 37.752 36.9804 37.7244 36.9503C37.6946 36.9224 37.6659 36.8934 37.6383 36.8633C37.6085 36.8354 37.5798 36.8064 37.5521 36.7763C37.5224 36.7483 37.4937 36.7193 37.4661 36.6892C37.4363 36.6613 37.4076 36.6323 37.38 36.6022C37.3502 36.5743 37.3215 36.5453 37.2938 36.5152C37.2641 36.4872 37.2354 36.4582 37.2077 36.4282C37.1779 36.4002 37.1492 36.3713 37.1216 36.3412C37.0918 36.3143 37.0631 36.2852 37.0366 36.2552C37.0068 36.2272 36.9781 36.1983 36.9505 36.1682C36.9207 36.1403 36.892 36.1113 36.8643 36.0811C36.8346 36.0532 36.8059 36.0242 36.7782 35.9941C36.7485 35.9662 36.7198 35.9372 36.6921 35.9071C36.6624 35.8803 36.6337 35.8512 36.6071 35.8211C36.5774 35.7932 36.5486 35.7642 36.521 35.7341C36.4912 35.7062 36.4625 35.6772 36.4348 35.6471C36.4051 35.6203 36.3764 35.5901 36.3488 35.56C36.319 35.5321 36.2903 35.5031 36.2627 35.4731C36.2329 35.4451 36.2042 35.4161 36.1766 35.386C36.1468 35.3581 36.1181 35.329 36.0904 35.299C36.0638 35.2743 36.0383 35.2485 36.0128 35.2216V36.5409C36.0128 37.2984 35.4047 37.913 34.6553 37.913H13.6446C13.2885 37.913 12.9472 37.7722 12.6931 37.5197L11.2644 36.1005C11.2644 36.1005 11.2548 36.0898 11.2506 36.0844L11.1793 36.0135C11.1793 36.0135 11.1697 36.0027 11.1655 35.9984L11.0943 35.9275C11.0943 35.9275 11.0847 35.9168 11.0794 35.9114L11.0082 35.8405C11.0082 35.8405 10.9997 35.8308 10.9944 35.8255L10.9221 35.7535C10.9221 35.7535 10.9125 35.7427 10.9072 35.7373L10.836 35.6664C10.836 35.6664 10.8264 35.6557 10.8221 35.6514L10.7509 35.5805C10.7509 35.5805 10.7424 35.5708 10.7381 35.5665L10.6648 35.4935C10.6595 35.4881 10.6553 35.4816 10.6499 35.4763L10.5798 35.4064C10.5798 35.4064 10.5702 35.3957 10.5659 35.3914L10.4947 35.3205C10.4947 35.3205 10.4851 35.3097 10.4798 35.3043L10.4086 35.2335C10.4086 35.2335 10.399 35.2227 10.3947 35.2184L10.3235 35.1475C10.3235 35.1475 10.314 35.1368 10.3097 35.1325L10.2375 35.0605C10.2375 35.0605 10.2279 35.0497 10.2236 35.0443L10.1524 34.9734C10.1524 34.9734 10.1428 34.9627 10.1386 34.9584L10.0673 34.8875C10.0673 34.8875 10.0589 34.8779 10.0546 34.8735L9.98121 34.8005C9.97593 34.7951 9.97167 34.7897 9.96639 34.7833L9.89618 34.7134C9.89618 34.7134 9.88663 34.7027 9.88128 34.6974L9.81006 34.6264C9.81006 34.6264 9.80051 34.6157 9.79625 34.6114L9.72502 34.5405C9.72502 34.5405 9.71548 34.5297 9.71121 34.5244L9.63999 34.4534C9.63999 34.4534 9.63146 34.4427 9.62618 34.4384L9.55387 34.3664C9.55387 34.3664 9.54433 34.3557 9.54006 34.3513L9.46884 34.2805C9.46884 34.2805 9.45929 34.2697 9.45394 34.2644L9.38272 34.1934C9.38272 34.1934 9.37419 34.1838 9.36999 34.1795L9.2966 34.1064C9.29132 34.1011 9.28706 34.0946 9.28069 34.0892L9.21048 34.0194C9.21048 34.0194 9.20094 34.0087 9.19667 34.0033L9.12545 33.9324C9.12545 33.9324 9.1159 33.9216 9.11164 33.9162L9.04041 33.8454C9.04041 33.8454 9.03087 33.8346 9.02552 33.8292L8.9543 33.7583C8.9543 33.7583 8.94576 33.7487 8.94049 33.7433L8.86818 33.6713C8.86818 33.6713 8.85863 33.6605 8.85328 33.6552L8.78206 33.5843C8.78206 33.5843 8.77251 33.5735 8.76825 33.5692L8.69702 33.4983C8.69702 33.4983 8.68856 33.4887 8.6843 33.4844L8.61091 33.4113C8.60563 33.4059 8.60136 33.3994 8.59601 33.3941L8.52587 33.3242C8.52587 33.3242 8.51633 33.3135 8.51206 33.3092L8.44084 33.2383C8.44084 33.2383 8.43129 33.2276 8.42594 33.2222L8.35472 33.1513C8.35472 33.1513 8.34518 33.1405 8.34091 33.1362L8.26969 33.0653C8.26969 33.0653 8.26115 33.0546 8.25588 33.0503L8.18357 32.9783C8.18357 32.9783 8.17402 32.9676 8.16976 32.9622L8.09853 32.8913C8.09853 32.8913 8.08899 32.8805 8.08364 32.8752L8.01242 32.8042C8.01242 32.8042 8.00388 32.7946 7.99969 32.7903L7.9263 32.7173C7.92102 32.7119 7.91675 32.7065 7.9114 32.7L7.84126 32.6302C7.84126 32.6302 7.83172 32.6195 7.82637 32.6141L7.75514 32.5432C7.75514 32.5432 7.7456 32.5325 7.74133 32.5281L7.67011 32.4573C7.67011 32.4573 7.66057 32.4465 7.65522 32.4411L7.58399 32.3702C7.58399 32.3702 7.57546 32.3595 7.57018 32.3552L7.49787 32.2832C7.49787 32.2832 7.48833 32.2724 7.48406 32.2681L7.41284 32.1973C7.41284 32.1973 7.4033 32.1865 7.39794 32.1811L7.32672 32.1102C7.32672 32.1102 7.31826 32.1006 7.314 32.0963L7.2406 32.0232C7.23532 32.0178 7.23106 32.0113 7.22467 32.006L7.15451 31.9361C7.15451 31.9361 7.14495 31.9254 7.14069 31.9201L7.06947 31.8491C7.06947 31.8491 7.0599 31.8384 7.05565 31.8341L6.98442 31.7632C6.98442 31.7632 6.97485 31.7524 6.96954 31.7471L6.89831 31.6761C6.89831 31.6761 6.88981 31.6665 6.88449 31.6611L6.81219 31.5891C6.81219 31.5891 6.80264 31.5784 6.79732 31.573L6.72609 31.5021C6.4667 31.2443 6.32 30.8919 6.32 30.5234V15.338C6.32 15.3208 6.32212 15.3035 6.32318 15.2853H4.46173C4.26825 15.2853 4.08115 15.2133 3.93658 15.0833L3.01914 14.2571C3.00957 14.2485 3.00213 14.2378 2.99363 14.2281L2.96918 14.2066C2.9596 14.198 2.95216 14.1873 2.94366 14.1776L2.91921 14.1561C2.90964 14.1475 2.9022 14.1368 2.8937 14.1271L2.86925 14.1056C2.85968 14.097 2.85223 14.0863 2.84373 14.0766L2.81928 14.0551C2.80971 14.0466 2.80227 14.0358 2.79377 14.0261L2.76932 14.0046C2.75975 13.9961 2.75231 13.9853 2.7438 13.9756L2.71935 13.9541C2.70978 13.9456 2.70234 13.9348 2.69384 13.9251L2.66939 13.9036C2.65982 13.8951 2.65238 13.8843 2.64387 13.8746L2.61942 13.8531C2.60985 13.8446 2.60241 13.8338 2.59391 13.8241L2.56945 13.8026C2.55989 13.7941 2.55245 13.7833 2.54394 13.7736L2.5195 13.7521C2.50993 13.7436 2.50248 13.7328 2.49398 13.7231L2.46952 13.7016C2.45996 13.6931 2.45252 13.6823 2.44401 13.6726L2.41957 13.6511C2.41 13.6426 2.40255 13.6318 2.39405 13.6221L2.3696 13.6006C2.36003 13.5921 2.35259 13.5813 2.34409 13.5716L2.31964 13.5501C2.31007 13.5416 2.30262 13.5308 2.29412 13.5211L2.26967 13.4996C2.2601 13.4911 2.25266 13.4804 2.24416 13.4706L2.21971 13.4492C2.21014 13.4406 2.20269 13.4299 2.19418 13.4201L2.16974 13.3987C2.16017 13.3901 2.15273 13.3794 2.14423 13.3696L2.11978 13.3482C2.11021 13.3396 2.10277 13.3289 2.09426 13.3191L2.06981 13.2977C2.06024 13.2891 2.0528 13.2784 2.0443 13.2687L2.01985 13.2472C2.01028 13.2386 2.00284 13.2279 1.99433 13.2182L1.96988 13.1967C1.96031 13.1881 1.95287 13.1774 1.94437 13.1677L1.91992 13.1462C1.91035 13.1376 1.90291 13.1269 1.8944 13.1172L1.86995 13.0957C1.86038 13.0871 1.85294 13.0764 1.84444 13.0667L1.81999 13.0452C1.81042 13.0366 1.80298 13.0259 1.79447 13.0162L1.77002 12.9947C1.76045 12.9861 1.75301 12.9754 1.74451 12.9657L1.72006 12.9442C1.71049 12.9356 1.70305 12.9249 1.69455 12.9152L1.67009 12.8937C1.66052 12.8851 1.65308 12.8744 1.64458 12.8647L1.62013 12.8432C1.61056 12.8346 1.60312 12.8239 1.59462 12.8142L1.57016 12.7927C1.5606 12.7842 1.55315 12.7734 1.54465 12.7637L1.5202 12.7422C1.51063 12.7337 1.50319 12.7229 1.49469 12.7132L1.47023 12.6917C1.46067 12.6832 1.45323 12.6724 1.44472 12.6627L1.42027 12.6412C1.4107 12.6327 1.40326 12.6219 1.39476 12.6122L1.3703 12.5907C1.36074 12.5822 1.3533 12.5714 1.34479 12.5617L1.32034 12.5402C1.31077 12.5317 1.30333 12.5209 1.29483 12.5112L1.27038 12.4897C1.26081 12.4812 1.25337 12.4704 1.24486 12.4607L1.22041 12.4392C1.21084 12.4307 1.2034 12.4199 1.1949 12.4102L1.17045 12.3887C1.16089 12.3802 1.15344 12.3694 1.14493 12.3597L1.12048 12.3382C1.11091 12.3297 1.10347 12.3189 1.09497 12.3092L1.07052 12.2877C1.06095 12.2792 1.05351 12.2684 1.045 12.2587L1.02055 12.2372C1.01098 12.2287 1.00354 12.2179 0.995041 12.2082L0.970593 12.1867C0.96102 12.1782 0.953579 12.1675 0.945069 12.1577L0.920622 12.1362C0.911055 12.1277 0.903615 12.117 0.895111 12.1072L0.870664 12.0858C0.861091 12.0772 0.85365 12.0665 0.845147 12.0567L0.820692 12.0353C0.813252 12.0288 0.807937 12.0213 0.80156 12.0138C0.799434 12.0117 0.797308 12.0084 0.795182 12.0062L0.770735 11.9848C0.770735 11.9848 0.763287 11.9772 0.760099 11.973C0.754784 11.9676 0.750532 11.9612 0.745218 11.9558L0.720763 11.9343C0.711195 11.9257 0.703755 11.915 0.695251 11.9053L0.670802 11.8838C0.661234 11.8752 0.653794 11.8645 0.645289 11.8548L0.641032 11.8505L0.620834 11.8322C0.611266 11.8236 0.603826 11.8129 0.595321 11.8032L0.570872 11.7818C0.561304 11.7731 0.553864 11.7624 0.545359 11.7527L0.520904 11.7313C0.511337 11.7226 0.503896 11.7119 0.495392 11.7022L0.482635 11.6904L0.472007 11.6808C0.472007 11.6808 0.462439 11.671 0.458186 11.6657C0.453934 11.6614 0.450746 11.6561 0.446494 11.6517L0.422039 11.6303C0.422039 11.6303 0.412471 11.6205 0.408218 11.6152C0.403966 11.6109 0.400778 11.6056 0.396526 11.6023L0.372077 11.5808C0.329554 11.5432 0.292347 11.5013 0.259392 11.4562C0.161588 11.3208 0.107372 11.1553 0.107372 10.9846V0.929341C0.107372 0.653227 0.245568 0.410415 0.456058 0.267522C0.540042 0.21058 0.635722 0.168678 0.73884 0.147191C0.789868 0.136446 0.843021 0.131075 0.8983 0.131075H9.09891C9.15524 0.131075 9.21048 0.137521 9.26363 0.14934C9.27216 0.151488 9.27961 0.154712 9.28814 0.15686C9.33384 0.168678 9.37744 0.182646 9.41887 0.20091C9.42205 0.201984 9.42524 0.205208 9.42842 0.206282C9.52408 0.251407 9.6081 0.314796 9.67824 0.392151C9.69523 0.408267 9.7123 0.424383 9.7282 0.442647C9.74527 0.458763 9.76226 0.475953 9.77817 0.493144C9.79516 0.509259 9.81223 0.525375 9.82813 0.54364C9.8452 0.559755 9.86219 0.575871 9.8781 0.594136C9.89509 0.610251 9.91216 0.627442 9.92806 0.644632C9.94506 0.660748 9.96212 0.676864 9.97803 0.695129C9.99502 0.711245 10.0121 0.727359 10.028 0.745626L10.3193 0.406118C10.4692 0.230993 10.6871 0.131075 10.9157 0.131075H18.5316C18.7516 0.131075 18.9632 0.224547 19.112 0.387854L19.1418 0.420085C19.1482 0.426531 19.1556 0.431904 19.162 0.43835L19.1918 0.470581C19.1981 0.477028 19.2056 0.482399 19.2119 0.488846L19.2406 0.521078C19.247 0.527524 19.2555 0.532896 19.2619 0.539342L19.2917 0.571574C19.2981 0.57802 19.3055 0.583392 19.3119 0.589838L19.3417 0.62207C19.348 0.628516 19.3565 0.633888 19.3618 0.640334L19.3916 0.672566C19.398 0.679012 19.4065 0.684384 19.4118 0.690831L19.4416 0.723062C19.448 0.729509 19.4565 0.734883 19.4618 0.741329L19.4916 0.773556C19.4979 0.780001 19.5054 0.78538 19.5117 0.791825L19.516 0.797196C19.5787 0.420085 19.9019 0.131075 20.2931 0.131075H23.5185C23.7417 0.131075 23.9511 0.22777 24.0989 0.390002L25.6266 2.98357L27.0532 0.525376C27.1956 0.281489 27.454 0.132149 27.7346 0.132149H30.96C31.1099 0.132149 31.247 0.178348 31.3651 0.251407C31.4852 0.177274 31.6255 0.132149 31.7765 0.132149H39.9632M39.9632 0.0247105H31.7765C31.6351 0.0247105 31.4937 0.0601653 31.3651 0.128926C31.2364 0.0601653 31.1003 0.0247105 30.959 0.0247105H27.7335C27.4178 0.0247105 27.1212 0.195539 26.9607 0.471656L25.6255 2.77299L24.1903 0.336283L24.185 0.326614L24.1776 0.318018C24.0075 0.131075 23.7673 0.0247105 23.5195 0.0247105H20.2942C19.921 0.0247105 19.5968 0.25463 19.4639 0.594136L19.4405 0.569425C19.4341 0.561904 19.4256 0.555458 19.4182 0.549012L19.3905 0.518929C19.3831 0.511408 19.3756 0.503887 19.3682 0.497441L19.3406 0.468433C19.3331 0.460912 19.3257 0.454465 19.3182 0.448019L19.2906 0.417936C19.2832 0.410416 19.2757 0.403969 19.2683 0.397523L19.2406 0.36744C19.2332 0.359919 19.2257 0.353473 19.2183 0.347026L19.1907 0.316944C19.0216 0.132149 18.7814 0.025785 18.5316 0.025785H10.9157C10.6553 0.025785 10.4086 0.13967 10.2385 0.338432L10.0227 0.589838C10.0164 0.583392 10.0099 0.576946 10.0036 0.571574C9.98764 0.554383 9.97058 0.537194 9.95359 0.521078C9.94722 0.514631 9.94086 0.50711 9.9345 0.500664V0.475954L9.8909 0.456615C9.87918 0.443722 9.86646 0.431904 9.85366 0.419011C9.83775 0.400747 9.82069 0.384631 9.80369 0.368515C9.78779 0.351325 9.77072 0.334134 9.75373 0.318018C9.67296 0.229919 9.5794 0.161158 9.47412 0.111736C9.47412 0.111736 9.46884 0.108513 9.46349 0.106364C9.41779 0.0859509 9.36891 0.0687602 9.31359 0.0547931C9.30296 0.0504956 9.2945 0.0483475 9.28597 0.0461986C9.2222 0.0322317 9.1595 0.025785 9.09783 0.025785H0.897237C0.836643 0.025785 0.776042 0.0322312 0.716514 0.0440495C0.601701 0.067686 0.493265 0.113885 0.395462 0.180497C0.147764 0.349176 0 0.630665 0 0.931497V10.9867C0 11.18 0.0595319 11.3648 0.172218 11.5217C0.209425 11.5733 0.25195 11.6205 0.299788 11.6635L0.319988 11.6818C0.319988 11.6818 0.325298 11.6883 0.328487 11.6904C0.335929 11.7001 0.343373 11.7076 0.350815 11.714L0.371013 11.7323C0.371013 11.7323 0.375266 11.7377 0.378456 11.7409C0.385897 11.7505 0.392271 11.7571 0.400776 11.7645L0.412475 11.7742L0.422039 11.7828L0.426295 11.7871C0.433737 11.7967 0.44224 11.8054 0.451808 11.814L0.472007 11.8322L0.476257 11.8365C0.483699 11.8462 0.492202 11.8559 0.50177 11.8634L0.523033 11.8816L0.527282 11.886C0.534724 11.8956 0.543234 11.9053 0.552802 11.9128L0.572994 11.9311L0.57725 11.9343V11.9365C0.585755 11.9461 0.59426 11.9547 0.603827 11.9633L0.625091 11.9815L0.62934 11.9859C0.636782 11.9955 0.645285 12.0052 0.654853 12.0127L0.676116 12.031C0.676116 12.031 0.683555 12.0396 0.686745 12.0428C0.693123 12.0503 0.698442 12.0557 0.704821 12.0622L0.725022 12.0804C0.725022 12.0804 0.726078 12.0825 0.727141 12.0836L0.729266 12.0868C0.736714 12.0965 0.745218 12.1051 0.754784 12.1137L0.776042 12.133L0.780294 12.1373C0.787735 12.147 0.796238 12.1556 0.805811 12.1642L0.82707 12.1825L0.831329 12.1867C0.838769 12.1965 0.847273 12.2061 0.856839 12.2147L0.877042 12.233L0.881286 12.2372C0.888734 12.247 0.897237 12.2566 0.906804 12.2641L0.926999 12.2824L0.931258 12.2867C0.938698 12.2964 0.947202 12.305 0.956768 12.3135L0.978034 12.3329L0.981215 12.3372C0.988663 12.3469 0.997166 12.3565 1.00673 12.364L1.02799 12.3823L1.03224 12.3866C1.03968 12.3963 1.04819 12.406 1.05776 12.4135L1.07796 12.4317L1.08221 12.436C1.08966 12.4457 1.09816 12.4554 1.10772 12.4629L1.12792 12.4812L1.13217 12.4855C1.13961 12.4951 1.14812 12.5048 1.15769 12.5134L1.18214 12.5349V12.537C1.19065 12.5467 1.19915 12.5553 1.20765 12.5639L1.22892 12.5832L1.23316 12.5875C1.24061 12.5972 1.24912 12.6069 1.25868 12.6144L1.27994 12.6337L1.28419 12.638C1.29163 12.6477 1.30014 12.6563 1.30971 12.6649L1.32991 12.6832L1.33416 12.6875C1.3416 12.6971 1.35011 12.7068 1.35967 12.7143L1.38094 12.7326L1.38518 12.7369C1.39263 12.7465 1.40114 12.7551 1.4107 12.7637L1.43516 12.7852V12.7874C1.44366 12.797 1.45216 12.8056 1.46067 12.8142L1.48193 12.8336L1.48618 12.8379C1.49362 12.8475 1.50213 12.8561 1.51169 12.8647L1.53296 12.884L1.5372 12.8884C1.54465 12.898 1.55315 12.9076 1.56273 12.9152L1.58292 12.9334L1.58718 12.9378C1.59462 12.9474 1.60312 12.9571 1.61269 12.9647L1.63713 12.9861V12.9883C1.64564 12.9979 1.65415 13.0076 1.66265 13.0151L1.68285 13.0334L1.6871 13.0377C1.69455 13.0474 1.70305 13.057 1.71262 13.0645L1.73706 13.086V13.0882C1.74557 13.0979 1.75408 13.1064 1.76258 13.115L1.78384 13.1333L1.7881 13.1376C1.79554 13.1473 1.80404 13.1569 1.81361 13.1644L1.83487 13.1827L1.83806 13.187C1.8455 13.1967 1.85401 13.2064 1.86357 13.2149L1.88377 13.2332L1.88803 13.2375C1.89547 13.2472 1.90397 13.2558 1.91354 13.2644L1.9348 13.2827L1.93905 13.2869C1.94649 13.2966 1.955 13.3052 1.96456 13.3138L1.98477 13.3321L1.98901 13.3364C1.99646 13.346 2.00497 13.3557 2.01454 13.3632L2.03898 13.3847V13.3869C2.04749 13.3965 2.05599 13.4052 2.06449 13.4137L2.0847 13.432L2.08895 13.4363C2.09639 13.4459 2.10489 13.4557 2.11446 13.4632L2.13465 13.4814L2.13891 13.4857C2.14635 13.4954 2.15486 13.5051 2.16442 13.5126L2.18888 13.5341V13.5362C2.19738 13.5459 2.20588 13.5545 2.21439 13.5631L2.23565 13.5813L2.2399 13.5857C2.24734 13.5953 2.25585 13.6039 2.26542 13.6125L2.28668 13.6318L2.29093 13.6362C2.29837 13.6458 2.30688 13.6554 2.31644 13.663L2.33664 13.6812L2.3409 13.6856C2.34834 13.6952 2.35685 13.7048 2.36641 13.7124L2.38767 13.7306L2.39086 13.735C2.3983 13.7446 2.40681 13.7543 2.41637 13.7629L2.43764 13.7811L2.44189 13.7854C2.44933 13.7951 2.45783 13.8048 2.4674 13.8123L2.4876 13.8306L2.49185 13.8348C2.49929 13.8446 2.5078 13.8542 2.51737 13.8617L2.53757 13.88L2.54182 13.8843C2.54926 13.894 2.55776 13.9036 2.56733 13.9111L2.59178 13.9326V13.9348C2.60029 13.9445 2.60879 13.9531 2.6173 13.9616L2.63856 13.9799L2.64281 13.9842C2.65025 13.9939 2.65875 14.0036 2.66832 14.0111L2.68852 14.0294L2.69277 14.0336C2.70022 14.0433 2.70873 14.053 2.71829 14.0605L2.73849 14.0788L2.74274 14.0831C2.75018 14.0927 2.75868 14.1024 2.76825 14.1099L2.78845 14.1282L2.7927 14.1325C2.80014 14.1421 2.80866 14.1519 2.81822 14.1604L2.83842 14.1787L2.84267 14.183C2.85011 14.1926 2.85861 14.2013 2.86818 14.2098L2.89157 14.2314V14.2335C2.90008 14.2431 2.90858 14.2528 2.91815 14.2603L2.93834 14.2786L2.94153 14.2829C2.94898 14.2926 2.95748 14.3022 2.96705 14.3098L3.88449 15.136C4.04926 15.2843 4.26081 15.3659 4.48087 15.3659H6.23283V30.4954C6.23283 30.8897 6.39229 31.2744 6.67081 31.5504L6.74203 31.6213C6.74736 31.6278 6.75161 31.6321 6.75586 31.6375L6.82815 31.7095C6.83346 31.7159 6.83771 31.7202 6.84196 31.7245L6.91319 31.7954C6.91851 31.8018 6.92276 31.8061 6.92701 31.8116L6.9993 31.8824C7.00461 31.8889 7.00887 31.8932 7.01312 31.8975L7.08435 31.9684C7.08966 31.9748 7.09391 31.9791 7.09923 31.9845L7.16939 32.0543C7.17577 32.0618 7.18002 32.0662 7.18534 32.0716L7.25868 32.1446C7.26295 32.15 7.26721 32.1543 7.27148 32.1585L7.3427 32.2295C7.34798 32.2359 7.35225 32.2413 7.35752 32.2456L7.42882 32.3165C7.4341 32.3229 7.43836 32.3273 7.44263 32.3326L7.51487 32.4046C7.52022 32.411 7.52448 32.4153 7.52875 32.4196L7.59997 32.4905C7.60525 32.497 7.60952 32.5023 7.61378 32.5067L7.68501 32.5775C7.69028 32.584 7.69455 32.5883 7.69882 32.5926L7.77112 32.6646C7.7764 32.671 7.78067 32.6764 7.78595 32.6807L7.85616 32.7505C7.86252 32.758 7.86679 32.7624 7.87105 32.7667L7.94437 32.8397C7.94864 32.8451 7.95291 32.8494 7.9571 32.8537L8.0284 32.9246C8.03367 32.931 8.03794 32.9353 8.04221 32.9407L8.11343 33.0116C8.11871 33.0181 8.12297 33.0224 8.12724 33.0267L8.19955 33.0987C8.20483 33.1051 8.20909 33.1094 8.21336 33.1137L8.28559 33.1857C8.29095 33.1921 8.29521 33.1964 8.29948 33.2018L8.3707 33.2727C8.37598 33.2792 8.38025 33.2835 8.38451 33.2888L8.45675 33.3597C8.4621 33.3662 8.46636 33.3704 8.47063 33.3758L8.54077 33.4457C8.54713 33.4532 8.5514 33.4586 8.55675 33.4629L8.62898 33.5349C8.63325 33.5402 8.63752 33.5445 8.64178 33.5488L8.71402 33.6197C8.71937 33.6262 8.72363 33.6304 8.7279 33.6358L8.79912 33.7067C8.8044 33.7132 8.80867 33.7186 8.81293 33.7229L8.88517 33.7949C8.89052 33.8013 8.89479 33.8056 8.89905 33.8099L8.97027 33.8808C8.97555 33.8872 8.97982 33.8926 8.98409 33.8969L9.05531 33.9678C9.06059 33.9743 9.06485 33.9786 9.06912 33.9829L9.14143 34.0538C9.14671 34.0602 9.15097 34.0656 9.15632 34.0699L9.22646 34.1397C9.23283 34.1472 9.23709 34.1516 9.24237 34.1569L9.31576 34.23C9.31576 34.23 9.32422 34.2396 9.32748 34.2429L9.39971 34.3138C9.40506 34.3202 9.40933 34.3245 9.41352 34.3299L9.48583 34.4008C9.49118 34.4072 9.49537 34.4116 9.49964 34.4169L9.57195 34.4889C9.5773 34.4954 9.58149 34.4996 9.58576 34.5039L9.65698 34.5749C9.66233 34.5813 9.6666 34.5866 9.67188 34.591L9.7431 34.6618C9.74845 34.6684 9.75264 34.6726 9.75691 34.678L9.82813 34.7489C9.83348 34.7553 9.83775 34.7607 9.84194 34.765L9.91317 34.8348C9.9196 34.8423 9.9238 34.8467 9.92915 34.8521L10.0015 34.924C10.0056 34.9294 10.0099 34.9337 10.0142 34.938L10.0854 35.0089C10.0908 35.0153 10.095 35.0196 10.0992 35.025L10.1704 35.0959C10.1758 35.1024 10.1801 35.1078 10.1853 35.1121L10.2576 35.183C10.2629 35.1894 10.2672 35.1937 10.2715 35.198L10.3427 35.2689C10.348 35.2753 10.3522 35.2796 10.3565 35.2839L10.4277 35.3548C10.4331 35.3613 10.4373 35.3667 10.4426 35.371L10.5138 35.4419C10.5192 35.4483 10.5234 35.4526 10.5276 35.4569L10.5989 35.5268C10.6053 35.5343 10.6095 35.5385 10.6138 35.544L10.6871 35.617C10.6871 35.617 10.6956 35.6267 10.6999 35.631L10.7711 35.7019C10.7764 35.7083 10.7806 35.7126 10.7849 35.718L10.8561 35.7889C10.8615 35.7953 10.8668 35.8007 10.871 35.8051L10.9433 35.877C10.9486 35.8835 10.9529 35.8878 10.9571 35.892L11.0284 35.963C11.0336 35.9694 11.0379 35.9737 11.0422 35.9791L11.1145 36.05C11.1198 36.0564 11.124 36.0608 11.1283 36.0661L11.1995 36.137C11.2049 36.1435 11.2091 36.1477 11.2133 36.152L12.6421 37.5713C12.9175 37.8453 13.2821 37.9957 13.668 37.9957H34.6787C35.4855 37.9957 36.1425 37.3317 36.1425 36.5162V35.4569C36.1659 35.4816 36.1882 35.5042 36.2105 35.5246C36.2403 35.5568 36.269 35.5858 36.2967 35.6116C36.3264 35.6439 36.3541 35.6729 36.3828 35.6987C36.4126 35.7309 36.4413 35.7599 36.4689 35.7857C36.4987 35.8179 36.5273 35.8469 36.555 35.8727C36.5847 35.905 36.6124 35.934 36.64 35.9587C36.6698 35.9909 36.6975 36.0188 36.7262 36.0457C36.756 36.0779 36.7836 36.1069 36.8123 36.1327C36.842 36.165 36.8697 36.194 36.8984 36.2198C36.9281 36.252 36.9568 36.281 36.9844 36.3067C37.0142 36.339 37.0419 36.368 37.0695 36.3927C37.0993 36.425 37.1269 36.454 37.1556 36.4797C37.1854 36.5119 37.2141 36.5409 37.2417 36.5667C37.2715 36.599 37.2991 36.628 37.3278 36.6538C37.3576 36.686 37.3852 36.715 37.414 36.7408C37.4437 36.773 37.4725 36.802 37.5001 36.8278C37.5299 36.8601 37.5586 36.8891 37.5862 36.9149C37.6159 36.9471 37.6436 36.9761 37.6723 37.0019C37.702 37.0341 37.7297 37.0621 37.7584 37.0889C37.7881 37.1212 37.8169 37.1502 37.8445 37.1759C37.8743 37.2082 37.903 37.2372 37.9306 37.2629C37.9604 37.2952 37.988 37.3242 38.0167 37.35C38.0465 37.3822 38.0741 37.4102 38.1028 37.437C38.1326 37.4692 38.1613 37.4983 38.1889 37.5241C38.4664 37.8259 38.8566 38 39.2605 38H45.0766C45.8835 38 46.5405 37.336 46.5405 36.5206V34.7779C46.5405 34.7285 46.5384 34.678 46.533 34.6286C46.5384 34.5791 46.5405 34.5286 46.5405 34.4792V17.8251C46.5405 17.4136 46.3682 17.0183 46.0664 16.7379C46.0387 16.7078 46.01 16.6788 45.9802 16.6509C45.9526 16.6208 45.9239 16.5917 45.8941 16.5638C45.8665 16.5337 45.8378 16.5047 45.8091 16.4779C45.7815 16.4478 45.7528 16.4188 45.723 16.3909C45.6954 16.3608 45.6666 16.3317 45.6369 16.3038C45.6092 16.2737 45.5805 16.2447 45.5507 16.2168C45.5231 16.1867 45.4944 16.1577 45.4646 16.1298C45.437 16.0997 45.4083 16.0707 45.3796 16.0438C45.352 16.0137 45.3233 15.9847 45.2935 15.9568C45.2658 15.9267 45.2371 15.8977 45.2074 15.8697C45.1797 15.8397 45.151 15.8107 45.1213 15.7838C45.0936 15.7537 45.0649 15.7247 45.0352 15.6968C45.0075 15.6667 44.9789 15.6377 44.9491 15.6097C44.9214 15.5797 44.8927 15.5507 44.8629 15.5228C44.8353 15.4927 44.8066 15.4637 44.7768 15.4357C44.7492 15.4056 44.7205 15.3766 44.6918 15.3497C44.6642 15.3197 44.6355 15.2907 44.6057 15.2628C44.5781 15.2327 44.5493 15.2037 44.5196 15.1757C44.4919 15.1456 44.4632 15.1166 44.4345 15.0898C44.4069 15.0597 44.3782 15.0307 44.3484 15.0028C44.3208 14.9727 44.2921 14.9436 44.2623 14.9157C44.2347 14.8856 44.206 14.8566 44.1762 14.8287C44.1485 14.7986 44.1198 14.7696 44.09 14.7417C44.0624 14.7116 44.0337 14.6825 44.004 14.6557C43.9763 14.6256 43.9476 14.5966 43.9179 14.5687C43.8902 14.5386 43.8616 14.5096 43.8318 14.4817C43.8041 14.4515 43.7754 14.4226 43.7467 14.3957C43.719 14.3656 43.6904 14.3366 43.6606 14.3087C43.633 14.2786 43.6043 14.2496 43.5745 14.2216C43.5575 14.2024 43.5394 14.1841 43.5214 14.1658V13.4524C43.5214 13.4234 43.5203 13.3944 43.5171 13.3654C43.5203 13.3364 43.5214 13.3074 43.5214 13.2784V11.554C43.5214 11.3004 43.4182 11.0651 43.2311 10.89C43.2152 10.8728 43.1981 10.8556 43.1811 10.8395C43.1652 10.8212 43.1482 10.8051 43.1312 10.789C43.1153 10.7718 43.0982 10.7546 43.0812 10.7385C43.0653 10.7213 43.0493 10.7041 43.0312 10.688C43.0153 10.6708 42.9994 10.6536 42.9813 10.6375C42.9654 10.6203 42.9484 10.6031 42.9313 10.587C42.9154 10.5698 42.8983 10.5526 42.8814 10.5365C42.8654 10.5194 42.8484 10.5021 42.8314 10.486C42.8155 10.4689 42.7984 10.4516 42.7814 10.4355C42.7655 10.4184 42.7495 10.4011 42.7315 10.385C42.7156 10.3679 42.6985 10.3506 42.6815 10.3345C42.6656 10.3174 42.6485 10.3001 42.6315 10.284C42.6156 10.2658 42.5986 10.2496 42.5816 10.2335C42.5657 10.2164 42.5486 10.1991 42.5316 10.1831C42.5157 10.1659 42.4997 10.1486 42.4816 10.1326C42.4657 10.1154 42.4487 10.0981 42.4317 10.0821C42.4264 10.0766 42.4221 10.0713 42.4168 10.0659V7.56799C42.4168 7.50675 42.4104 7.44661 42.3987 7.38749H42.6241C43.1185 7.38749 43.5203 6.98137 43.5203 6.48178V3.58415C43.5203 3.3306 43.4172 3.09531 43.23 2.92018C43.2141 2.903 43.1971 2.8858 43.1801 2.86969C43.1642 2.85142 43.1472 2.83531 43.1302 2.81919C43.1142 2.802 43.0972 2.78482 43.0801 2.76869C43.0642 2.75151 43.0482 2.73432 43.0302 2.7182C43.0143 2.70101 42.9983 2.68382 42.9803 2.6677C42.9643 2.65051 42.9473 2.63332 42.9303 2.61721C42.9143 2.60002 42.8973 2.58282 42.8803 2.56671C42.8644 2.54952 42.8474 2.53233 42.8303 2.51621C42.8144 2.49903 42.7974 2.48183 42.7803 2.46572C42.7644 2.44853 42.7485 2.43133 42.7304 2.41522C42.7145 2.39803 42.6975 2.38084 42.6805 2.36473C42.6645 2.34754 42.6475 2.33034 42.6304 2.31423C42.6145 2.29597 42.5975 2.27985 42.5805 2.26373C42.5646 2.24655 42.5476 2.22935 42.5306 2.21324C42.5146 2.19605 42.4986 2.17885 42.4806 2.16274C42.4646 2.14555 42.4477 2.12836 42.4306 2.11224C42.4147 2.09506 42.3977 2.07786 42.3806 2.06175C42.3647 2.04456 42.3477 2.02737 42.3307 2.01125C42.3148 1.99406 42.2988 1.97687 42.2808 1.96076C42.2648 1.94357 42.2478 1.92637 42.2307 1.91026C42.2148 1.89307 42.1978 1.87588 42.1808 1.85976C42.1649 1.84258 42.1479 1.82538 42.1308 1.80927C42.1149 1.79208 42.0989 1.77488 42.0809 1.75877C42.0649 1.74051 42.0479 1.72439 42.0299 1.7072C42.0213 1.69861 42.0128 1.69109 42.0043 1.68357C42.0022 1.68141 42.0001 1.68034 41.998 1.67819C41.9735 1.64919 41.9523 1.62662 41.9299 1.60621C41.914 1.58902 41.897 1.57183 41.88 1.55571C41.864 1.53852 41.847 1.52133 41.83 1.50522C41.814 1.48803 41.797 1.47083 41.78 1.45472C41.7641 1.43753 41.7481 1.42034 41.7301 1.40422C41.7141 1.38704 41.6971 1.36984 41.6801 1.35373C41.6641 1.33546 41.6471 1.31935 41.6301 1.30323C41.6142 1.28497 41.5972 1.26885 41.5802 1.25274C41.5642 1.23555 41.5472 1.21835 41.5302 1.20224C41.5142 1.18505 41.4972 1.16786 41.4802 1.15174C41.4643 1.13456 41.4473 1.11736 41.4303 1.10125C41.4143 1.08406 41.3973 1.06686 41.3803 1.05075C41.3643 1.03356 41.3473 1.01637 41.3304 1.00025C41.3144 0.983067 41.2974 0.965872 41.2804 0.949759C41.2644 0.932571 41.2474 0.915376 41.2304 0.899263C41.2144 0.882068 41.1975 0.86488 41.1805 0.848767C41.1645 0.831572 41.1486 0.814384 41.1305 0.79827C41.1145 0.781075 41.0975 0.763888 41.0805 0.747774C41.0646 0.730583 41.0486 0.713393 41.0306 0.697277C41.0146 0.680087 40.9976 0.662896 40.9806 0.64678C40.9646 0.628516 40.9476 0.6124 40.9306 0.596284C40.9147 0.579094 40.8988 0.561905 40.8807 0.545789C40.8647 0.528599 40.8477 0.511408 40.8307 0.495293C40.8147 0.478102 40.7977 0.460912 40.7807 0.444797C40.7648 0.427606 40.7478 0.410415 40.7308 0.3943C40.7148 0.37711 40.6978 0.359919 40.6808 0.343804C40.6648 0.326614 40.6478 0.309423 40.6309 0.293307C40.4586 0.104215 40.2247 0 39.9739 0L39.9632 0.0247105Z" fill="#48DFFA"/>
<path d="M0.885211 2.14794H5.6595V1.81488H0.885211V0.930664H9.08577V3.82828H4.1106V8.89942H6.24632V7.8132H4.92704V4.92953H6.99897C7.69211 4.92953 8.38735 4.9349 9.08476 4.9435V10.6238H5.12796L5.07587 10.7978H9.08476V11.812H1.80159L0.884155 10.9858V2.14687L0.885211 2.14794Z" fill="#377FED"/>
<path d="M14.6481 2.14782V1.81476H10.146L10.905 0.930542H18.5209L19.3938 1.88675V10.6237H17.2049L17.1634 10.7977H19.3948V11.8119H16.1694V7.81308H13.2874V11.8119H10.062V2.14782H14.6503H14.6481ZM16.1683 4.91544V3.82923H13.2864V4.91544H16.1683Z" fill="#377FED"/>
<path d="M22.5168 2.14782V1.81476H20.2822V0.930542H23.5076L25.6221 4.53833L27.7227 0.930542H30.948V10.6237H28.7687L28.7167 10.7977H30.948V11.8119H27.7227L27.7322 7.2619L26.4002 9.58045H24.8959L23.5065 7.2619V11.8119H20.2811V2.14782H22.5168Z" fill="#377FED"/>
<path d="M39.9526 3.82839H34.9922V4.91459H38.8491V7.81225H34.9922V8.89839H39.9526V10.6228H35.1644L35.1124 10.7969H39.9526V11.8111H31.7657V2.14697H36.3391V1.81391H31.7657V0.929688H39.9526V3.82839Z" fill="#377FED"/>
<path d="M21.6831 13.248L23.1363 14.8661V29.9021H18.8011L18.7118 30.2008H23.1363V31.9435H9.09621L7.66748 30.5242V15.3388H15.1303V14.7661H7.66748V13.248H21.6831ZM17.6434 26.9647V18.2268H13.2093V26.9647H17.6434Z" fill="#377FED"/>
<path d="M24.5649 15.3398H28.6779V14.7671H24.5649V13.249H30.1067L34.9587 21.4391V13.249H40.5005V29.9031H36.2641L36.1748 30.2018H40.5005V31.9444H34.6843L30.1056 24.153V31.9444H24.5638V15.3408L24.5649 15.3398Z" fill="#377FED"/>
<path d="M2.26737 11.734L1.59338 11.127V2.86385H5.97433C6.1912 2.86385 6.36766 2.68551 6.36766 2.46634V2.13328C6.36766 1.9141 6.1912 1.73575 5.97433 1.73575H1.59338V1.64658H9.00832V3.75023H4.42649C4.20961 3.75023 4.03315 3.92858 4.03315 4.14775V9.21887C4.03315 9.43803 4.20961 9.61641 4.42649 9.61641H6.56221C6.77908 9.61641 6.95555 9.43803 6.95555 9.21887V8.13266C6.95555 7.9135 6.77908 7.73512 6.56221 7.73512H5.63627V5.64652H7.31487C7.86767 5.64652 8.43535 5.64974 9.00731 5.65619V10.5457H5.44385C5.22698 10.5457 5.05052 10.724 5.05052 10.9433V11.1173C5.05052 11.3365 5.22698 11.5148 5.44385 11.5148H9.00731V11.734H2.26737Z" fill="#46E0F9"/>
<path d="M32.4739 11.734V2.86385H36.6538C36.8708 2.86385 37.0472 2.68551 37.0472 2.46634V2.13328C37.0472 1.9141 36.8708 1.73575 36.6538 1.73575H32.4739V1.64658H39.8739V3.75023H35.307C35.0901 3.75023 34.9136 3.92858 34.9136 4.14775V5.23396C34.9136 5.45313 35.0901 5.63148 35.307 5.63148H38.7704V7.73512H35.307C35.0901 7.73512 34.9136 7.9135 34.9136 8.13266V9.21887C34.9136 9.43803 35.0901 9.61641 35.307 9.61641H39.8739V10.5457H35.4781C35.2613 10.5457 35.0848 10.724 35.0848 10.9433V11.1173C35.0848 11.3365 35.2613 11.5148 35.4781 11.5148H39.8739V11.734H32.4739Z" fill="#46E0F9"/>
<path d="M9.91312 31.8074L8.88403 30.7846V16.5683H15.6718C16.045 16.5683 16.3468 16.2632 16.3468 15.8861V15.3135C16.3468 14.9363 16.045 14.6312 15.6718 14.6312H8.88403V14.4775H21.9248L23.0017 15.6766V29.7661H19.3415C18.9684 29.7661 18.6665 30.0712 18.6665 30.4484V30.747C18.6665 31.1241 18.9684 31.4293 19.3415 31.4293H23.0017V31.8063H9.9142L9.91312 31.8074ZM13.7498 18.0908C13.3767 18.0908 13.0747 18.3959 13.0747 18.7729V27.511C13.0747 27.888 13.3767 28.1932 13.7498 28.1932H18.1839C18.557 28.1932 18.8589 27.888 18.8589 27.511V18.7729C18.8589 18.3959 18.557 18.0908 18.1839 18.0908H13.7498Z" fill="#48DFFA"/>
<path d="M35.6095 31.8072L31.2275 24.35C31.1042 24.1394 30.8809 24.0158 30.647 24.0158C30.5875 24.0158 30.528 24.0233 30.4684 24.0406C30.1751 24.1222 29.972 24.3918 29.972 24.6991V31.8083H25.7814V16.5692H29.2193C29.5925 16.5692 29.8944 16.2642 29.8944 15.887V15.3144C29.8944 14.9372 29.5925 14.6321 29.2193 14.6321H25.7814V14.4785H30.2654L34.9206 22.3366C35.045 22.5461 35.2672 22.6685 35.5 22.6685C35.5595 22.6685 35.6201 22.6599 35.6796 22.6438C35.972 22.5622 36.1751 22.2925 36.1751 21.9863V14.4795H40.3657V29.7681H36.8044C36.4313 29.7681 36.1293 30.0732 36.1293 30.4504V30.749C36.1293 31.1261 36.4313 31.4313 36.8044 31.4313H40.3657V31.8083H35.6095V31.8072Z" fill="#48DFFA"/>
<path d="M17.0945 34.2549H16.6481V34.6095H17.0945V34.2549Z" fill="white"/>
<path d="M16.3668 34.2548H15.9203V34.6093H16.3668V34.2548Z" fill="white"/>
<path d="M16.9147 36.3896L16.8488 36.1791C16.8339 36.2091 16.7127 36.4198 16.3906 36.4198C16.1015 36.4198 15.7592 36.2618 15.7592 35.759V34.877H16.2078V35.7622C16.2078 35.9879 16.3279 36.0878 16.4853 36.0878C16.6904 36.0878 16.8159 35.9234 16.8159 35.7042V34.877H17.257V36.3896H16.9147Z" fill="white"/>
<path d="M15.6226 34.0498V34.4408H15.039V36.3909H14.5755V34.4408H13.9918V34.0498H15.6226Z" fill="white"/>
<path d="M18.1821 34.6519V34.9076C18.2863 34.6863 18.4489 34.6348 18.7541 34.6348V35.0763H18.6977C18.4064 35.0763 18.1981 35.2235 18.1981 35.5985V36.3914H17.7516V34.6519H18.1832H18.1821Z" fill="white"/>
<path d="M23.3451 34.0498V34.4408H22.7615V36.3909H22.298V34.4408H21.7144V34.0498H23.3451Z" fill="white"/>
<path d="M30.6794 34.5322C30.1404 34.5322 29.7035 34.9738 29.7035 35.5196C29.7035 36.0654 30.1404 36.5069 30.6794 36.5069C31.2184 36.5069 31.6564 36.0654 31.6564 35.5196C31.6564 34.9738 31.2194 34.5322 30.6794 34.5322ZM30.6794 36.0793C30.3733 36.0793 30.1245 35.828 30.1245 35.5185C30.1245 35.2091 30.3733 34.9577 30.6794 34.9577C30.9856 34.9577 31.2343 35.208 31.2343 35.5185C31.2343 35.829 30.9856 36.0793 30.6794 36.0793Z" fill="white"/>
<path d="M32.312 34.6516L32.3853 34.8826C32.4576 34.7321 32.667 34.6183 32.8616 34.6183C33.0561 34.6183 33.256 34.7385 33.3347 34.9298C33.4208 34.759 33.6057 34.6183 33.8906 34.6183C34.2447 34.6183 34.5062 34.8395 34.5062 35.3445V36.3921H34.0597V35.3145C34.0597 35.1372 33.9906 34.9836 33.7822 34.9836C33.5611 34.9836 33.4644 35.1608 33.4644 35.3886V36.3921H33.0179V35.2908C33.0179 35.1372 32.9456 34.9836 32.7436 34.9836C32.5214 34.9836 32.4226 35.1608 32.4226 35.3853V36.3921H31.9761V34.6526H32.3141L32.312 34.6516Z" fill="white"/>
<path d="M28.5574 33.9736L28.5585 35.4165L29.1325 34.6505H29.6651L28.9837 35.467L29.6353 36.3899H29.1357L28.7253 35.7851L28.5595 35.972V36.3899H28.113V34.2272L28.5574 33.9736Z" fill="white"/>
<path d="M19.5459 33.9736V35.4165L20.1199 34.6505H20.6536L19.9711 35.467L20.6238 36.3899H20.1231L19.7128 35.7851L19.548 35.972V36.3899H19.1005V34.2272L19.5459 33.9736Z" fill="white"/>
<path d="M27.7873 35.481C27.7873 34.9556 27.4854 34.6183 26.9826 34.6183C26.4531 34.6183 26.0885 34.9932 26.0885 35.5283C26.0885 36.0633 26.4628 36.4254 27.0485 36.4254C27.2569 36.4254 27.5184 36.3749 27.7033 36.2749L27.5514 35.9472C27.4259 36.0139 27.2175 36.0579 27.0581 36.0579C26.8167 36.0579 26.5786 35.9344 26.5584 35.6604H27.7767C27.7767 35.6604 27.7863 35.5798 27.7863 35.4831L27.7873 35.481ZM26.5531 35.3574C26.5988 35.106 26.7647 34.9825 27.0102 34.9825C27.242 34.9825 27.3547 35.1565 27.3579 35.3574H26.5531Z" fill="white"/>
<path d="M25.6296 33.9764V35.92C25.6296 36.0167 25.6859 36.0607 25.7848 36.0607C25.8082 36.0607 25.8582 36.0543 25.8911 36.0479V36.3927C25.8018 36.41 25.6891 36.4261 25.5871 36.4261C25.3787 36.4261 25.1831 36.3455 25.1831 35.9512V34.23L25.6296 33.9775V33.9764Z" fill="white"/>
<path d="M24.8412 35.4809C24.8412 34.9555 24.5403 34.6182 24.0375 34.6182C23.5081 34.6182 23.1434 34.9931 23.1434 35.5282C23.1434 36.0632 23.5176 36.4253 24.1034 36.4253C24.3118 36.4253 24.5733 36.3748 24.7594 36.2748L24.6073 35.9471C24.4818 36.0138 24.2735 36.0579 24.114 36.0579C23.8727 36.0579 23.6346 35.9343 23.6144 35.6603H24.8327C24.8327 35.6603 24.8422 35.5797 24.8422 35.483L24.8412 35.4809ZM23.6069 35.3573C23.6537 35.106 23.8185 34.9824 24.0641 34.9824C24.2958 34.9824 24.4085 35.1564 24.4117 35.3573H23.6069Z" fill="white"/>
<path d="M17.5296 10.5447H19.3155V2.359L18.6628 1.64453H11.3989L11.3223 1.7337H14.9623C15.1791 1.7337 15.3556 1.91205 15.3556 2.13122V2.46429C15.3556 2.68346 15.1791 2.86181 14.9623 2.86181H10.7673V11.7319H13.2071V8.13063C13.2071 7.9114 13.3836 7.73309 13.6005 7.73309H16.4825C16.6993 7.73309 16.8758 7.9114 16.8758 8.13063V11.7319H19.3155V11.5128H17.5296C17.3127 11.5128 17.1363 11.3344 17.1363 11.1152V10.9412C17.1363 10.722 17.3127 10.5437 17.5296 10.5437V10.5447ZM16.8758 5.23191C16.8758 5.45108 16.6993 5.62943 16.4825 5.62943H13.6005C13.3836 5.62943 13.2071 5.45108 13.2071 5.23191V4.1457C13.2071 3.92653 13.3836 3.74817 13.6005 3.74817H16.4825C16.6993 3.74817 16.8758 3.92653 16.8758 4.1457V5.23191Z" fill="#46E0F9"/>
<path d="M30.8707 10.5457V1.64658H28.263L26.2761 5.05883C26.2059 5.18024 26.0773 5.25437 25.938 5.25437C25.7987 5.25437 25.6701 5.18024 25.6 5.0599L23.8555 2.08278L23.5992 1.64658H20.9905V1.73575H22.8317C23.0486 1.73575 23.2251 1.9141 23.2251 2.13328V2.46634C23.2251 2.68551 23.0486 2.86385 22.8317 2.86385H20.9905V11.734H23.4302V7.58151C23.4302 7.40313 23.5482 7.24628 23.7173 7.19901C23.7523 7.18934 23.7874 7.18397 23.8225 7.18397C23.9575 7.18397 24.0861 7.25488 24.1584 7.37522L25.4331 9.50248H26.4887L27.707 7.38165C27.7782 7.25703 27.909 7.18397 28.0471 7.18397C28.0812 7.18397 28.1163 7.18827 28.1502 7.19794C28.3225 7.24521 28.4416 7.40203 28.4405 7.58253L28.4309 11.734H30.8696V11.5148H29.0837C28.8668 11.5148 28.6903 11.3365 28.6903 11.1173V10.9433C28.6903 10.724 28.8668 10.5457 29.0837 10.5457H30.8707Z" fill="#46E0F9"/>
</g>
<defs>
<clipPath id="clip0_595_17557">
<rect width="47" height="38" fill="white"/>
</clipPath>
</defs>
</svg>
