<svg width="52" height="38" viewBox="0 0 52 38" fill="none" xmlns="http://www.w3.org/2000/svg">
<g clip-path="url(#clip0_595_17547)">
<path d="M3.53756 0.724465H4.13332V1.19281H3.53756V0.724465ZM2.56882 0.724465H3.16458V1.19281H2.56882V0.724465ZM3.89367 3.54297L3.80591 3.26569C3.78565 3.30627 3.62532 3.58355 3.19496 3.58355C2.81016 3.58355 2.35279 3.3739 2.35279 2.71112V1.54618H2.95024V2.71619C2.95024 3.01376 3.11057 3.14733 3.31985 3.14733C3.59325 3.14733 3.76034 2.93092 3.76034 2.6401V1.54618H4.34766V3.54466H3.89198L3.89367 3.54297ZM2.17389 0.452252V0.969626H1.39586V3.54636H0.778156V0.969626H0.00012207V0.452252H2.17389ZM5.58644 1.24691V1.58507C5.72483 1.29256 5.94255 1.22493 6.3476 1.22493V1.80825H6.27334C5.88516 1.80825 5.60669 2.00269 5.60669 2.49808V3.54466H5.01093V1.2486H5.58644V1.24691ZM12.4655 0.452252V0.969626H11.6875V3.54636H11.0698V0.969626H10.2918V0.452252H12.4655ZM22.2408 3.13381C21.8323 3.13381 21.5015 2.80242 21.5015 2.39325C21.5015 1.98409 21.8323 1.6527 22.2408 1.6527C22.6492 1.6527 22.98 1.98409 22.98 2.39325C22.98 2.80242 22.6492 3.13381 22.2408 3.13381ZM22.2408 1.08967C21.5218 1.08967 20.9395 1.67299 20.9395 2.39325C20.9395 3.11352 21.5218 3.69683 22.2408 3.69683C22.9597 3.69683 23.542 3.11352 23.542 2.39325C23.542 1.67299 22.9597 1.08967 22.2408 1.08967ZM24.4179 1.2486L24.5158 1.55294C24.612 1.35343 24.8905 1.20464 25.1504 1.20464C25.4103 1.20464 25.6752 1.36358 25.7816 1.6155C25.8963 1.39063 26.1427 1.20464 26.5225 1.20464C26.995 1.20464 27.3427 1.49715 27.3427 2.16331V3.54636H26.7469V2.12273C26.7469 1.88771 26.6541 1.68482 26.3756 1.68482C26.0803 1.68482 25.952 1.91984 25.952 2.2191V3.54466H25.3563V2.09061C25.3563 1.88771 25.2601 1.68482 24.99 1.68482C24.6947 1.68482 24.5614 1.91984 24.5614 2.21572V3.54636H23.9656V1.2486H24.4162H24.4179ZM19.4138 0.354187V2.26137L20.1801 1.2486H20.8906L19.9826 2.32731L20.8518 3.54636H20.1851L19.6383 2.74662L19.4172 2.99347V3.54636H18.8215V0.688959L19.4138 0.354187ZM7.40241 0.354187V2.26137L8.16863 1.2486H8.87916L7.97117 2.32731L8.84034 3.54636H8.1737L7.62688 2.74662L7.40579 2.99347V3.54636H6.81003V0.688959L7.40241 0.354187ZM17.316 1.20464C17.986 1.20464 18.3877 1.65101 18.3877 2.34422C18.3877 2.47272 18.3742 2.57924 18.3742 2.57924H16.7506C16.7776 2.94106 17.0949 3.10507 17.4173 3.10507C17.6299 3.10507 17.9067 3.04758 18.0755 2.95966L18.278 3.3925C18.0316 3.52607 17.6822 3.59201 17.4055 3.59201C16.6241 3.59201 16.1262 3.11014 16.1262 2.40678C16.1262 1.70342 16.6122 1.20464 17.3177 1.20464M17.8156 2.18191C17.8105 1.91646 17.662 1.68651 17.3531 1.68651C17.0274 1.68651 16.8063 1.85052 16.7439 2.18191H17.8156ZM15.5135 0.357569V2.92584C15.5135 3.05434 15.5878 3.11183 15.7211 3.11183C15.7515 3.11183 15.819 3.10337 15.8629 3.09492V3.54974C15.7448 3.57172 15.5946 3.5937 15.4578 3.5937C15.1794 3.5937 14.9195 3.48718 14.9195 2.96642V0.688959L15.5152 0.355878L15.5135 0.357569ZM13.3921 1.20633C14.0621 1.20633 14.4638 1.6527 14.4638 2.34591C14.4638 2.47441 14.4503 2.58093 14.4503 2.58093H12.8267C12.8537 2.94275 13.171 3.10676 13.4934 3.10676C13.7043 3.10676 13.9828 3.04927 14.1499 2.96135L14.3524 3.39419C14.106 3.52776 13.7566 3.5937 13.4782 3.5937C12.6968 3.5937 12.1989 3.11183 12.1989 2.40847C12.1989 1.70511 12.6849 1.20633 13.3904 1.20633M13.8883 2.1836C13.8832 1.91815 13.7347 1.6882 13.4258 1.6882C13.1001 1.6882 12.879 1.85221 12.8166 2.1836H13.8883Z" fill="#500099"/>
<path d="M22.4783 24.3275H18.9173C18.9173 24.3275 18.9139 24.3275 18.9139 24.3308V26.9634H18.9156C18.9156 27.9153 18.1443 28.688 17.1941 28.688C16.2439 28.688 15.4726 27.9153 15.4726 26.9634V20.7836C15.4726 20.7836 15.4726 20.7802 15.476 20.7802H22.48C22.48 20.7802 22.4834 20.7802 22.4834 20.7769V11.109C22.4834 8.19585 20.1712 5.76622 17.2633 5.73071C14.3115 5.69352 11.9082 8.07919 11.9082 11.0279H11.9099V26.9634C11.9099 29.8884 14.2777 32.2605 17.1975 32.2605C20.1172 32.2605 22.4851 29.8884 22.4851 26.9634V24.3308C22.4851 24.3308 22.4851 24.3275 22.4834 24.3275H22.4783ZM15.471 11.0719C15.471 10.1352 16.1984 9.33543 17.1334 9.30331C18.1122 9.26949 18.9156 10.054 18.9156 11.0279H18.9173V17.2076C18.9173 17.2076 18.9173 17.211 18.9139 17.211H15.4743C15.4743 17.211 15.471 17.211 15.471 17.2076V11.0719Z" fill="#500099"/>
<path d="M4.90798 5.75586C2.16545 5.9503 0.00012207 8.24129 0.00012207 11.0395H0.00180978V17.2007V20.7614C0.00180978 20.7614 0.0051852 20.7699 0.0102483 20.7699H7.00243C7.00243 20.7699 7.01087 20.7733 7.01087 20.7783V26.9513H7.00918C7.00918 27.9032 6.2379 28.6759 5.28771 28.6759C4.33753 28.6759 3.56625 27.9032 3.56625 26.9513H3.56456V24.3475C3.56456 24.3475 3.56119 24.3391 3.55613 24.3391H0.00856062C0.00856062 24.3391 0.00012207 24.3442 0.00012207 24.3492V26.8178C0.00012207 29.944 2.55531 32.4582 5.66745 32.2367C8.40998 32.0422 10.5753 29.7512 10.5753 26.953V19.2364V17.2091C10.5753 17.2091 10.5719 17.2007 10.5669 17.2007H3.57469C3.57469 17.2007 3.56625 17.1973 3.56625 17.1922V11.1088C3.56625 10.1857 4.26159 9.37579 5.18139 9.32C6.18051 9.25913 7.00918 10.0538 7.00918 11.0412H7.01087V13.623C7.01087 13.623 7.01424 13.6315 7.0193 13.6315H10.5652C10.5652 13.6315 10.5736 13.6281 10.5736 13.623V11.1765C10.5736 8.05023 8.01843 5.53606 4.90629 5.75755L4.90798 5.75586Z" fill="#500099"/>
<path d="M51.9984 32.7039V26.9637C51.9984 26.9502 51.9984 26.9384 51.9984 26.9248V5.96271H48.4356V26.9248C48.4356 27.8767 47.6643 28.6494 46.7142 28.6494C45.764 28.6494 44.9927 27.8767 44.9927 26.9248V5.96271H41.4299V26.9248C41.4299 29.8499 43.7978 32.222 46.7175 32.222C47.3217 32.222 47.9006 32.1189 48.4407 31.9329V32.7039C48.4407 33.6575 47.6694 34.4285 46.7192 34.4285H44.9269V37.9977H46.7192C49.639 37.9994 52.0068 35.6272 52.0068 32.7022L51.9984 32.7039Z" fill="#500099"/>
<path d="M33.0641 5.29797V32.007H36.6268V20.7702H40.0968V17.201H36.6268V5.29797H36.6285C36.6285 4.34438 37.3998 3.57339 38.35 3.57339L40.1423 3.57169V0.000793457H38.35C35.4302 0.000793457 33.0624 2.37294 33.0624 5.29797H33.0641Z" fill="#500099"/>
<path d="M29.0993 28.4364C28.1491 28.4364 27.3778 27.6637 27.3778 26.7118H27.3761V5.96271H23.8134V26.7118C23.8134 29.6368 26.1812 32.009 29.1009 32.009H31.7355V28.4398H29.1009L29.0993 28.4364Z" fill="#500099"/>
</g>
<defs>
<clipPath id="clip0_595_17547">
<rect width="52" height="38" fill="white"/>
</clipPath>
</defs>
</svg>
