<svg width="18" height="18" viewBox="0 0 18 18" fill="none" xmlns="http://www.w3.org/2000/svg">
<path fill-rule="evenodd" clip-rule="evenodd" d="M11.25 2.25V1.125H16.875V6.75H15.75V3.04537L10.9204 7.875L10.125 7.07963L14.9546 2.25H11.25ZM2.57995 15.4201C2.79084 15.6309 3.07675 15.7496 3.375 15.75H14.625C14.9232 15.7496 15.2092 15.6309 15.4201 15.4201C15.6309 15.2092 15.7496 14.9232 15.75 14.625V9H14.625V14.625H3.375V3.375H9V2.25H3.375C3.07675 2.2504 2.79084 2.36906 2.57995 2.57995C2.36906 2.79084 2.2504 3.07675 2.25 3.375V14.625C2.2504 14.9232 2.36906 15.2092 2.57995 15.4201Z" fill="#049EAD"/>
</svg>
