<svg width="144" height="36" viewBox="0 0 144 36" fill="none" xmlns="http://www.w3.org/2000/svg">
<g clip-path="url(#clip0_407_10043)">
<path d="M57.3095 21.8062H50.4339L49.3618 24.9479H43.7061L50.7666 5.54333H56.9768L64.0373 24.9479H58.3446L57.3095 21.8062ZM53.8717 11.3832L51.8016 17.6665H55.9418L53.8717 11.3832Z" fill="#00ADEE"/>
<path d="M74.8314 9.31348C78.528 9.31348 81.4114 12.2704 81.4114 17.2231C81.4114 22.1759 78.528 25.1328 74.8314 25.1328C72.6504 25.1328 71.1348 24.1348 70.3216 22.8042V30.4182H64.9246V9.49828H70.3216V11.642C71.0979 10.2745 72.6874 9.31348 74.8314 9.31348ZM73.131 14.0445C71.6154 14.0445 70.3216 15.1533 70.3216 17.2231C70.3216 19.2929 71.6154 20.4387 73.131 20.4387C74.6466 20.4387 75.9404 19.2929 75.9404 17.2231C75.9404 15.1533 74.6466 14.0445 73.131 14.0445Z" fill="#00ADEE"/>
<path d="M92.0576 9.31348C95.7542 9.31348 98.6376 12.2704 98.6376 17.2231C98.6376 22.1759 95.7542 25.1328 92.0576 25.1328C89.8766 25.1328 88.361 24.1348 87.5478 22.8042V30.4182H82.1508V9.49828H87.5478V11.642C88.3241 10.2745 89.8766 9.31348 92.0576 9.31348ZM90.3202 14.0445C88.8046 14.0445 87.5108 15.1533 87.5108 17.2231C87.5108 19.2929 88.8046 20.4387 90.3202 20.4387C91.8358 20.4387 93.1296 19.2929 93.1296 17.2231C93.1296 15.1533 91.8358 14.0445 90.3202 14.0445Z" fill="#00ADEE"/>
<path d="M94.83 5.54333H101.003L104.404 13.0464L107.805 5.54333H113.904L107.066 18.7754V24.9479H101.632V18.7754L94.83 5.54333Z" fill="#00ADEE"/>
<path d="M116.529 9.31348C118.747 9.31348 120.263 10.2745 121.076 11.642V9.49828H126.473V24.948H121.076V22.8042C120.263 24.1718 118.71 25.1328 116.529 25.1328C112.869 25.1328 109.949 22.1389 109.949 17.1862C109.949 12.2334 112.869 9.31348 116.529 9.31348ZM118.266 14.0445C116.714 14.0445 115.457 15.1533 115.457 17.2231C115.457 19.2929 116.714 20.4387 118.266 20.4387C119.819 20.4387 121.076 19.2929 121.076 17.2231C121.076 15.1533 119.782 14.0445 118.266 14.0445Z" fill="#00ADEE"/>
<path d="M137.267 9.31348C140.964 9.31348 143.847 12.2704 143.847 17.2231C143.847 22.1759 140.964 25.1328 137.267 25.1328C135.086 25.1328 133.57 24.1348 132.757 22.8042V30.4182H127.36V9.49828H132.757V11.642C133.533 10.2745 135.123 9.31348 137.267 9.31348ZM135.567 14.0445C134.051 14.0445 132.757 15.1533 132.757 17.2231C132.757 19.2929 134.051 20.4387 135.567 20.4387C137.082 20.4387 138.376 19.2929 138.376 17.2231C138.376 15.1533 137.045 14.0445 135.567 14.0445Z" fill="#00ADEE"/>
<path d="M14.577 19.2931L0.936554 19.4409C0.751724 19.4409 0.60386 19.2931 0.60386 19.1452C0.566895 18.6647 0.566895 18.1842 0.566895 17.6668C0.566895 8.16782 1.23228 0.849545 8.36671 0.0733643C8.51457 0.0733643 8.66244 0.147286 8.6994 0.29513L14.8727 18.8865C14.9097 19.0713 14.8357 19.2192 14.6509 19.2931C14.6509 19.2931 14.614 19.2931 14.577 19.2931Z" fill="#00ADEE"/>
<path d="M15.612 21.1038L20.2327 35.0751C20.2697 35.2599 20.1958 35.4447 20.0109 35.4816C18.6802 35.8882 17.2385 36.073 15.8338 35.9252C5.88994 34.8533 1.67582 29.42 0.751674 21.3625C0.714708 21.1777 0.862572 21.0299 1.0474 20.9929H1.08437L15.3163 20.8451C15.4641 20.8821 15.575 20.956 15.612 21.1038Z" fill="#00ADEE"/>
<path d="M19.4934 27.7568L10.4367 0.405716C10.3628 0.220911 10.4737 0.0730675 10.6216 -0.000854492C10.6585 -0.000854492 10.6955 -0.000854492 10.7325 -0.000854492C18.3475 0.331794 29.9178 4.3975 33.1338 13.1942C33.1708 13.3051 33.1338 13.416 33.0599 13.5269L20.0479 27.8677C19.937 28.0156 19.7152 28.0156 19.6043 27.9047C19.5304 27.8308 19.4934 27.7938 19.4934 27.7568Z" fill="#00ADEE"/>
<path d="M21.7113 34.4838L20.2696 30.1594C20.2327 30.0485 20.2696 29.9376 20.3436 29.8267L33.2816 15.5968C33.3925 15.4859 33.6143 15.4489 33.7252 15.5598C33.7992 15.5968 33.8361 15.6707 33.8361 15.7816L33.9101 16.7056C34.6494 24.4674 28.4391 31.7487 22.1179 34.6686C22.007 34.7426 21.8222 34.6686 21.7113 34.4838Z" fill="#00ADEE"/>
</g>
<defs>
<clipPath id="clip0_407_10043">
<rect width="143.28" height="36" fill="white" transform="translate(0.566895 -6.10352e-05)"/>
</clipPath>
</defs>
</svg>
