<svg width="117" height="50" viewBox="0 0 117 50" fill="none" xmlns="http://www.w3.org/2000/svg">
<path d="M43.3481 11.842L23.4031 0.327069C22.6471 -0.109104 21.7166 -0.109104 20.9605 0.327069L1.01023 11.8447C1.01023 11.8447 0.201328 12.3575 0.201328 13.4546V36.3629C0.201328 36.3629 0.169606 37.6688 1.01023 38.1552L20.9526 49.6675V49.6596C20.9526 49.6596 22.1131 50.4183 23.4084 49.6702L43.2397 38.2213C44.1517 37.6952 44.1623 36.429 44.1623 36.429V13.407C44.1623 12.3232 43.3508 11.842 43.3508 11.842H43.3481Z" fill="#1B3256"/>
<path d="M23.1105 1.10844L42.77 12.4569C43.1295 12.6631 43.3489 13.0464 43.3489 13.4614V36.1609C43.3489 37.0544 42.3814 37.6122 41.6095 37.1654L21.95 25.817C21.5905 25.6108 21.3711 25.2275 21.3711 24.8125V2.11296C21.3711 1.21947 22.3386 0.661694 23.1105 1.10844Z" fill="#1B3256"/>
<path d="M24.796 4.02836L41.0799 13.4286C41.4394 13.6348 41.6588 14.0181 41.6588 14.4331V33.2388C41.6588 34.1323 40.6913 34.69 39.9194 34.2433L23.6356 24.8431C23.276 24.6369 23.0566 24.2536 23.0566 23.8386V5.03288C23.0566 4.13939 24.0242 3.58162 24.796 4.02836Z" fill="#00B0E0"/>
<path d="M26.6206 7.69907L38.9867 14.8365C39.259 14.9951 39.4282 15.2858 39.4282 15.6004V29.8778C39.4282 30.5572 38.6933 30.9801 38.1065 30.6418L25.7403 23.5044C25.468 23.3458 25.2988 23.055 25.2988 22.7404V8.46303C25.2988 7.78366 26.0337 7.3607 26.6206 7.69907Z" fill="#9BD5E6"/>
<path d="M13.4777 6.64555L33.1372 17.994C33.4967 18.2002 33.7161 18.5835 33.7161 18.9985V41.698C33.7161 42.5915 32.7486 43.1493 31.9767 42.7025L12.3172 31.3541C11.9577 31.1479 11.7383 30.7646 11.7383 30.3496V7.65007C11.7383 6.75658 12.7058 6.1988 13.4777 6.64555Z" fill="#1B3256"/>
<path d="M15.1613 9.57524L31.4451 18.9754C31.8046 19.1816 32.024 19.5649 32.024 19.98V38.783C32.024 39.6765 31.0565 40.2343 30.2846 39.7875L14.0008 30.3873C13.6413 30.1811 13.4219 29.7978 13.4219 29.3828V10.5798C13.4219 9.68626 14.3894 9.12849 15.1613 9.57524Z" fill="#00B0E0"/>
<path d="M16.6948 13.2088L29.061 20.3462C29.3332 20.5048 29.5024 20.7956 29.5024 21.1102V35.3876C29.5024 36.067 28.7675 36.4899 28.1807 36.1515L15.8145 29.0142C15.5422 28.8556 15.373 28.5648 15.373 28.2502V13.9728C15.373 13.2934 16.1079 12.8705 16.6948 13.2088Z" fill="#9BD5E6"/>
<path d="M2.74917 12.8409L22.4087 24.1893C22.7682 24.3955 22.9876 24.7788 22.9876 25.1938V47.8933C22.9876 48.7868 22.0201 49.3446 21.2482 48.8979L1.58869 37.5494C1.22917 37.3432 1.00977 36.9599 1.00977 36.5449V13.8454C1.00977 12.9519 1.97728 12.3941 2.74917 12.8409Z" fill="#1B3256"/>
<path d="M4.43667 15.7706L20.7205 25.1707C21.08 25.3769 21.2994 25.7602 21.2994 26.1753V44.9783C21.2994 45.8718 20.3319 46.4296 19.56 45.9828L3.27619 36.5826C2.91667 36.3764 2.69727 35.9931 2.69727 35.5781V16.7751C2.69727 15.8816 3.66478 15.3238 4.43667 15.7706Z" fill="#00B0E0"/>
<path d="M5.99557 19.4061L18.3617 26.5435C18.634 26.7021 18.8032 26.9929 18.8032 27.3074V41.5848C18.8032 42.2642 18.0683 42.6872 17.4815 42.3488L5.11529 35.2114C4.84301 35.0528 4.67383 34.762 4.67383 34.4475V20.1701C4.67383 19.4907 5.40871 19.0677 5.99557 19.4061Z" fill="#9BD5E6"/>
<path d="M46.2598 30.4839V19.2545C46.2598 18.9927 46.3893 18.8632 46.651 18.8632H51.2665C52.2393 18.8632 52.9953 19.1276 53.5373 19.6563C54.0792 20.185 54.3488 20.9357 54.3488 21.9085V27.8325C54.3488 28.8053 54.0792 29.5534 53.5373 30.0848C52.9953 30.6135 52.2393 30.8778 51.2665 30.8778H46.651C46.3893 30.8778 46.2598 30.7483 46.2598 30.4866V30.4839ZM48.8372 28.8212H50.8726C51.2718 28.8212 51.5546 28.7366 51.7238 28.5701C51.893 28.4009 51.975 28.118 51.975 27.7189V22.0195C51.975 21.6204 51.8904 21.3375 51.7238 21.1683C51.5546 20.9991 51.2718 20.9172 50.8726 20.9172H48.8372C48.6997 20.9172 48.631 20.9859 48.631 21.1234V28.615C48.631 28.7525 48.6997 28.8212 48.8372 28.8212Z" fill="#1B3256"/>
<path d="M55.3184 20.9262V19.4406C55.3184 19.2132 55.432 19.0995 55.6594 19.0995H57.145C57.3723 19.0995 57.486 19.2079 57.486 19.4247V20.9288C57.486 21.1562 57.3723 21.2698 57.145 21.2698H55.6594C55.432 21.2698 55.3184 21.1562 55.3184 20.9288V20.9262ZM55.3184 30.752V22.7555C55.3184 22.5176 55.432 22.396 55.6594 22.396H57.1291C57.3671 22.396 57.4887 22.5149 57.4887 22.7555V30.752C57.4887 30.9 57.4622 30.9978 57.412 31.0428C57.3618 31.0877 57.2719 31.1115 57.1476 31.1115H55.6779C55.44 31.1115 55.3184 30.9925 55.3184 30.752Z" fill="#1B3256"/>
<path d="M58.3205 33.9479H57.1759C56.938 33.9479 56.8164 33.829 56.8164 33.5884V32.4253C56.8164 32.1874 56.9354 32.0658 57.1759 32.0658H57.6544C58.1672 32.0658 58.5162 31.9733 58.7065 31.7935C58.8942 31.6111 58.9893 31.2648 58.9893 30.752V22.7555C58.9893 22.5176 59.1083 22.396 59.3489 22.396H60.8001C61.038 22.396 61.1596 22.5149 61.1596 22.7555V31.1459C61.1596 32.0341 60.9085 32.724 60.4089 33.2131C59.9066 33.7021 59.2114 33.9479 58.3232 33.9479H58.3205ZM58.9867 20.9262V19.4406C58.9867 19.2132 59.1004 19.0995 59.3277 19.0995H60.8133C61.0407 19.0995 61.1543 19.2079 61.1543 19.4247V20.9288C61.1543 21.1562 61.0407 21.2698 60.8133 21.2698H59.3277C59.1004 21.2698 58.9867 21.1562 58.9867 20.9288V20.9262Z" fill="#1B3256"/>
<path d="M62.5684 20.9262V19.4406C62.5684 19.2132 62.682 19.0995 62.9094 19.0995H64.395C64.6223 19.0995 64.736 19.2079 64.736 19.4247V20.9288C64.736 21.1562 64.6223 21.2698 64.395 21.2698H62.9094C62.682 21.2698 62.5684 21.1562 62.5684 20.9288V20.9262ZM62.5684 30.752V22.7555C62.5684 22.5176 62.682 22.396 62.9094 22.396H64.3791C64.6171 22.396 64.7387 22.5149 64.7387 22.7555V30.752C64.7387 30.9 64.7122 30.9978 64.662 31.0428C64.6118 31.0877 64.5219 31.1115 64.3976 31.1115H62.9279C62.69 31.1115 62.5684 30.9925 62.5684 30.752Z" fill="#1B3256"/>
<path d="M66.552 24.2685H65.8673C65.7299 24.2685 65.6373 24.2447 65.5845 24.1998C65.5342 24.1548 65.5078 24.0623 65.5078 23.9275V22.7485C65.5078 22.5106 65.6268 22.389 65.8673 22.389H66.552C66.6762 22.389 66.7397 22.3255 66.7397 22.2013V20.5782C66.7397 20.3403 66.8639 20.2187 67.115 20.2187H68.5505C68.7884 20.2187 68.91 20.3376 68.91 20.5782V22.2013C68.91 22.3282 68.9787 22.389 69.1162 22.389H70.4485C70.6864 22.389 70.808 22.5079 70.808 22.7485V23.9275C70.808 24.0517 70.7815 24.1416 70.7313 24.1918C70.6811 24.2421 70.5859 24.2685 70.4485 24.2685H69.1162C68.9787 24.2685 68.91 24.3319 68.91 24.4562V28.2337C68.91 28.5879 68.9893 28.8391 69.1479 28.995C69.3065 29.1483 69.5682 29.225 69.933 29.225H70.6177C70.8556 29.225 70.9772 29.344 70.9772 29.5845V30.7635C70.9772 30.8904 70.9507 30.9776 70.9005 31.0279C70.8503 31.0781 70.7551 31.1045 70.6177 31.1045H69.5761C68.6747 31.1045 67.9795 30.8666 67.4825 30.3855C66.9882 29.907 66.7397 29.2224 66.7397 28.3342V24.4562C66.7397 24.3319 66.6762 24.2685 66.552 24.2685Z" fill="#1B3256"/>
<path d="M74.7362 31.11H74.3265C73.425 31.11 72.7324 30.8721 72.2407 30.391C71.7517 29.9125 71.5059 29.2226 71.5059 28.3238V25.1807C71.5059 24.2819 71.7517 23.592 72.2407 23.1135C72.7298 22.635 73.425 22.3945 74.3265 22.3945H78.2732C78.5243 22.3945 78.6485 22.5134 78.6485 22.754V30.7505C78.6485 30.9884 78.5216 31.11 78.2732 31.11H76.8378C76.5998 31.11 76.4782 30.991 76.4782 30.7505V30.1874H76.4095C76.2853 30.4941 76.0632 30.7267 75.7433 30.88C75.4235 31.0333 75.0878 31.11 74.7362 31.11ZM76.4782 27.9326V24.4643C76.4782 24.3401 76.4095 24.2766 76.272 24.2766H74.6648C74.3 24.2766 74.0436 24.3533 73.8956 24.5066C73.7475 24.6599 73.6735 24.919 73.6735 25.2838V28.2233C73.6735 28.5881 73.7475 28.8472 73.8956 29.0005C74.0436 29.1538 74.3 29.2305 74.6648 29.2305H75.2966C76.0817 29.2305 76.4756 28.797 76.4756 27.9326H76.4782Z" fill="#1B3256"/>
<path d="M81.6038 31.1141H80.1525C79.9146 31.1141 79.793 30.9952 79.793 30.7546V19.4591C79.793 19.2211 79.9119 19.0995 80.1525 19.0995H81.6038C81.8417 19.0995 81.9633 19.2185 81.9633 19.4591V30.7546C81.9633 30.9925 81.8443 31.1141 81.6038 31.1141Z" fill="#1B3256"/>
<path d="M83.9375 30.707V19.4908C83.9375 19.2291 84.067 19.0995 84.3287 19.0995H88.939C89.9091 19.0995 90.6651 19.3639 91.2071 19.8926C91.749 20.4213 92.0186 21.172 92.0186 22.1422V28.0583C92.0186 29.0284 91.749 29.7792 91.2071 30.3079C90.6651 30.8366 89.9091 31.1009 88.939 31.1009H84.3287C84.067 31.1009 83.9375 30.9714 83.9375 30.7097V30.707ZM86.5122 29.0469H88.5477C88.9469 29.0469 89.2297 28.9624 89.3963 28.7958C89.5628 28.6293 89.6474 28.3438 89.6474 27.9473V22.2559C89.6474 21.8567 89.5628 21.5738 89.3963 21.4073C89.2271 21.2408 88.9442 21.1562 88.5477 21.1562H86.5122C86.3748 21.1562 86.3061 21.2249 86.3061 21.3624V28.846C86.3061 28.9835 86.3748 29.0522 86.5122 29.0522V29.0469Z" fill="#1B3256"/>
<path d="M99.3969 31.0905H95.6194C94.718 31.0905 94.0254 30.8526 93.5337 30.3714C93.0447 29.893 92.7988 29.203 92.7988 28.3043V25.1612C92.7988 24.2624 93.0447 23.5724 93.5337 23.094C94.0228 22.6155 94.718 22.3749 95.6194 22.3749H96.9702C97.869 22.3749 98.5643 22.6128 99.0559 23.094C99.545 23.5724 99.7908 24.2624 99.7908 25.1612V27.3315C99.7908 27.5694 99.6719 27.691 99.4313 27.691H95.141C95.0035 27.691 94.9348 27.7544 94.9348 27.8787V28.254C94.9348 28.6083 95.0114 28.8594 95.1647 29.0153C95.3181 29.1687 95.5771 29.2453 95.9419 29.2453H99.3943C99.6322 29.2453 99.7538 29.3722 99.7538 29.6207V30.7495C99.7538 30.8764 99.7274 30.9636 99.6771 31.0138C99.6269 31.064 99.5318 31.0905 99.3943 31.0905H99.3969ZM95.141 26.2371H97.4646C97.5888 26.2371 97.6523 26.1736 97.6523 26.0494V25.2299C97.6523 24.8651 97.5782 24.6087 97.4302 24.4606C97.2822 24.3126 97.0257 24.2386 96.6609 24.2386H95.9446C95.5798 24.2386 95.3233 24.3126 95.1753 24.4606C95.0273 24.6087 94.9533 24.8651 94.9533 25.2299V26.0494C94.9533 26.1763 95.0167 26.2371 95.141 26.2371Z" fill="#1B3256"/>
<path d="M102.49 33.4141H101.039C100.799 33.4141 100.68 33.3004 100.68 33.0731V22.7344C100.68 22.4965 100.799 22.3749 101.039 22.3749H102.49C102.728 22.3749 102.85 22.4939 102.85 22.7344V23.2975H102.919C103.043 22.9909 103.265 22.7582 103.585 22.6049C103.905 22.4516 104.24 22.3749 104.592 22.3749H105.293C106.17 22.3749 106.834 22.6128 107.283 23.094C107.732 23.5724 107.957 24.2624 107.957 25.1612V28.3043C107.957 29.2057 107.732 29.893 107.283 30.3715C106.834 30.8499 106.17 31.0905 105.293 31.0905H104.592C104.238 31.0905 103.902 31.0138 103.585 30.8605C103.265 30.7072 103.043 30.4745 102.919 30.1679H102.85V33.0731C102.85 33.3004 102.731 33.4141 102.49 33.4141ZM104.029 29.211H104.78C105.145 29.211 105.404 29.1343 105.557 28.981C105.71 28.8277 105.787 28.5686 105.787 28.2038V25.2643C105.787 24.8995 105.71 24.6404 105.557 24.4871C105.404 24.3338 105.145 24.2571 104.78 24.2571H104.029C103.244 24.2571 102.85 24.6906 102.85 25.555V27.913C102.85 28.7801 103.244 29.211 104.029 29.211Z" fill="#1B3256"/>
<path d="M113.1 31.0905H111.58C110.679 31.0905 109.986 30.8526 109.495 30.3714C109.006 29.893 108.76 29.203 108.76 28.3043V25.1612C108.76 24.2624 109.006 23.5724 109.495 23.094C109.984 22.6155 110.679 22.3749 111.58 22.3749H113.1C113.989 22.3749 114.681 22.6181 115.175 23.1019C115.67 23.5857 115.918 24.273 115.918 25.1612V28.3043C115.918 29.1925 115.67 29.8798 115.175 30.3635C114.681 30.8473 113.989 31.0905 113.1 31.0905ZM111.903 29.2268H112.775C113.14 29.2268 113.399 29.1528 113.552 29.0048C113.706 28.8567 113.782 28.6003 113.782 28.2355V25.2272C113.782 24.8624 113.706 24.606 113.552 24.458C113.399 24.31 113.14 24.2359 112.775 24.2359H111.903C111.538 24.2359 111.282 24.31 111.134 24.458C110.986 24.606 110.912 24.8624 110.912 25.2272V28.2355C110.912 28.6003 110.986 28.8567 111.134 29.0048C111.282 29.1528 111.538 29.2268 111.903 29.2268Z" fill="#1B3256"/>
</svg>
