<?xml version="1.0" encoding="UTF-8"?>
<svg id="katman_1" data-name="katman 1" xmlns="http://www.w3.org/2000/svg" version="1.1" viewBox="0 0 824.72 138.6">
  <defs>
    <style>
      .cls-1 {
        opacity: .8;
      }

      .cls-1, .cls-2, .cls-3 {
        stroke-width: 0px;
      }

      .cls-1, .cls-3 {
        fill: #18209c;
      }

      .cls-2 {
        fill: #27c795;
      }
    </style>
  </defs>
  <g>
    <path class="cls-3" d="M388.19,7.44c-9.92-4.96-21.38-7.44-34.38-7.44h-54.39v119.72h54.39c13,0,24.46-2.48,34.38-7.44,9.92-4.96,17.67-11.91,23.26-20.87,5.59-8.95,8.38-19.47,8.38-31.56s-2.79-22.75-8.38-31.64c-5.59-8.89-13.34-15.82-23.26-20.78ZM386.91,79.53c-3.25,5.59-7.81,9.89-13.68,12.91-5.87,3.02-12.8,4.53-20.78,4.53h-25.31V22.75h25.31c7.98,0,14.91,1.51,20.78,4.53,5.87,3.02,10.43,7.3,13.68,12.83,3.25,5.53,4.87,12.12,4.87,19.75s-1.63,14.09-4.87,19.67Z"/>
    <path class="cls-3" d="M501.63,32.07c-7.24-3.82-15.37-5.73-24.37-5.73s-17.73,2.03-25.14,6.07c-7.41,4.05-13.25,9.64-17.53,16.76-4.28,7.13-6.41,15.31-6.41,24.54s2.16,17.25,6.5,24.37c4.33,7.13,10.46,12.74,18.39,16.85,7.92,4.1,17.13,6.16,27.62,6.16,8.32,0,15.68-1.28,22.06-3.85,6.38-2.57,11.69-6.24,15.91-11.03l-14.2-15.39c-3.08,2.97-6.47,5.19-10.18,6.67-3.71,1.48-8.01,2.22-12.91,2.22-5.47,0-10.24-1-14.28-2.99-4.05-1.99-7.18-4.9-9.41-8.72-1.21-2.07-2.07-4.33-2.63-6.76h69.59c.11-1.14.23-2.37.34-3.68.11-1.31.17-2.48.17-3.51,0-9.92-2.11-18.44-6.33-25.57-4.22-7.12-9.95-12.6-17.19-16.42ZM465.38,49.51c3.48-1.99,7.5-2.99,12.06-2.99s8.55,1,11.97,2.99c3.42,2,6.1,4.76,8.04,8.3,1.28,2.35,2.13,4.97,2.57,7.87h-45.3c.44-2.87,1.28-5.46,2.54-7.78,1.94-3.59,4.65-6.38,8.13-8.38Z"/>
    <path class="cls-3" d="M560.83,39.8v-12.09h-25.48v92.02h26.68v-43.44c0-8.78,2.25-15.25,6.76-19.41,4.5-4.16,10.4-6.24,17.7-6.24,1.03,0,1.99.03,2.91.09.91.06,1.94.14,3.08.26v-24.63c-8.67,0-16.02,1.68-22.06,5.05-3.88,2.16-7.06,4.97-9.58,8.41Z"/>
    <path class="cls-3" d="M678.49,79.1c-2.05-3.25-4.7-5.81-7.95-7.7-3.25-1.88-6.87-3.34-10.86-4.36-3.99-1.03-7.95-1.8-11.89-2.31-3.93-.51-7.56-1.11-10.86-1.8-4.75-.98-8.14-2.43-10.18-4.36-1.7-4.16-.58-7.38,3.34-9.67,2.74-1.6,7.07-2.39,13-2.39,4.22,0,8.58.49,13.08,1.45,4.5.97,8.98,2.76,13.43,5.39l8.89-18.98c-4.33-2.62-9.75-4.62-16.25-5.99-6.5-1.37-12.89-2.05-19.16-2.05-8.89,0-16.53,1.28-22.92,3.85-6.39,2.56-11.26,6.07-14.62,10.52-3.37,4.45-5.05,9.58-5.05,15.39,0,5.25,1,9.52,2.99,12.83,1.99,3.31,4.65,5.93,7.95,7.87,3.31,1.94,6.95,3.39,10.95,4.36,3.99.97,7.95,1.74,11.89,2.31,3.93.57,7.55,1.14,10.86,1.71,3.31.57,5.96,1.4,7.95,2.48,1.99,1.08,2.99,2.71,2.99,4.87,0,2.63-1.28,4.68-3.85,6.16-2.56,1.48-6.93,2.22-13.08,2.22-5.59,0-11.26-.83-17.02-2.48-5.76-1.65-10.75-3.79-14.97-6.41l-8.89,19.15c4.22,2.85,9.95,5.22,17.19,7.1,7.24,1.88,14.79,2.82,22.66,2.82,9.24,0,17.07-1.25,23.52-3.76,6.44-2.51,11.37-5.96,14.79-10.35,3.42-4.39,5.13-9.43,5.13-15.14,0-5.24-1.03-9.49-3.08-12.74Z"/>
  </g>
  <g>
    <g>
      <path class="cls-2" d="M185.63,32.07c-7.24-3.82-15.37-5.73-24.37-5.73s-17.73,2.03-25.14,6.07c-7.41,4.05-13.25,9.64-17.53,16.76-4.28,7.13-6.41,15.31-6.41,24.54s2.16,17.25,6.5,24.37c4.33,7.13,10.46,12.74,18.39,16.85,7.92,4.1,17.13,6.16,27.62,6.16,8.32,0,15.68-1.28,22.06-3.85,6.38-2.57,11.69-6.24,15.91-11.03l-14.2-15.39c-3.08,2.97-6.47,5.19-10.18,6.67-3.71,1.48-8.01,2.22-12.91,2.22-5.47,0-10.24-1-14.28-2.99-4.05-1.99-7.18-4.9-9.41-8.72-1.21-2.07-2.08-4.33-2.63-6.76h69.59c.11-1.14.23-2.37.34-3.68.11-1.31.17-2.48.17-3.51,0-9.92-2.11-18.44-6.33-25.57-4.22-7.12-9.95-12.6-17.19-16.42ZM138.71,65.68c.44-2.87,1.28-5.46,2.54-7.78,1.94-3.59,4.65-6.38,8.13-8.38,3.48-1.99,7.5-2.99,12.06-2.99s8.55,1,11.97,2.99c3.42,2,6.1,4.76,8.04,8.3,1.28,2.35,2.13,4.97,2.57,7.87h-45.3Z"/>
      <path class="cls-2" d="M277.21,96.46c-2.97,2.28-6.56,3.42-10.78,3.42-3.54,0-6.33-1.05-8.38-3.16-2.05-2.11-3.08-5.1-3.08-8.98v-37.46h22.92v-20.52h-22.92V7.35h-26.68v22.41h-14.2v20.52h14.2v37.8c0,10.95,3.02,19.18,9.07,24.71,6.04,5.53,14.48,8.29,25.31,8.29,4.1,0,8.07-.49,11.89-1.45,3.82-.97,7.1-2.42,9.83-4.36l-7.18-18.81Z"/>
      <path class="cls-2" d="M26.13,0v22.24h45.56s0,56.95,0,56.95c0,13.23-5.64,19.84-16.93,19.84-4.22,0-8.15-1.11-11.8-3.34-3.65-2.22-7.13-5.5-10.43-9.83l-15.39,18.47c4.33,5.59,9.89,9.89,16.68,12.91,6.78,3.02,14.22,4.53,22.32,4.53,14.14,0,24.86-3.65,32.16-10.95,7.3-7.3,10.95-18.36,10.95-33.18V0H26.13Z"/>
    </g>
    <rect class="cls-2" y="0" width=".66" height="22.24"/>
    <rect class="cls-2" x="6.05" y="0" width="1.32" height="22.24"/>
    <rect class="cls-2" x="12.11" y="0" width="2.48" height="22.24"/>
    <rect class="cls-2" x="18.7" y="0" width="3.28" height="22.24"/>
  </g>
  <path class="cls-2" d="M719.02,126.84V20.59c0-8.71,7.49-14.39,13.87-10.52l86.48,52.36c7.08,4.28,7.14,16.59.1,20.98l-86.48,53.9c-6.39,3.98-13.97-1.69-13.97-10.46Z"/>
  <path class="cls-1" d="M702.8,116.66V30.77c0-7.04,6.83-11.63,12.66-8.5l78.94,42.32c6.46,3.46,6.51,13.41.09,16.96l-78.94,43.57c-5.84,3.22-12.76-1.37-12.76-8.45Z"/>
</svg>