<svg width="113" height="40" viewBox="0 0 113 40" fill="none" xmlns="http://www.w3.org/2000/svg">
<path d="M51.3243 27.6674H46.8666C44.7071 27.6674 43.5618 26.0925 43.5618 23.6853V11.4782H37.1089V24.0483C37.1089 29.8963 39.9397 33.3484 44.7543 33.5635L44.7657 33.5749H57.8193V11.4782H51.3243V27.6674Z" fill="url(#paint0_linear_407_8952)"/>
<path d="M75.3761 27.6674H70.9183C68.7589 27.6674 67.6135 26.0925 67.6135 23.6853L67.6097 11.4782H61.1606V24.0483C61.1606 29.8976 63.9915 33.3484 68.8047 33.5635L68.8162 33.5749H81.8698V11.4782H75.3748L75.3761 27.6674Z" fill="url(#paint1_linear_407_8952)"/>
<path d="M101.105 6.10352e-05V6.67789V12.4222C99.4153 11.4747 97.4648 10.932 95.3869 10.932C95.3831 10.932 95.378 10.932 95.3742 10.932C88.9455 10.9383 83.7373 16.1146 83.7373 22.5003C83.7373 28.8884 88.9531 34.0685 95.3882 34.0685C95.392 34.0685 95.3971 34.0685 95.4009 34.0685C101.83 34.0622 107.038 28.8859 107.038 22.5015V6.67915H112.97V0.00132725L101.105 6.10352e-05ZM95.3945 28.1775H95.3882C93.8606 28.1775 92.4248 27.5867 91.3444 26.514C90.2641 25.4413 89.6691 24.0157 89.6691 22.499C89.6691 19.372 92.2312 16.8256 95.3805 16.8218H95.3869C96.9144 16.8218 98.3503 17.4125 99.4306 18.4852C100.511 19.5579 101.106 20.9835 101.106 22.5003C101.106 25.6273 98.5439 28.175 95.3945 28.1775Z" fill="url(#paint2_linear_407_8952)"/>
<path d="M24.7393 10.9376C22.06 10.9376 19.8343 11.8395 18.0635 13.5978C16.5194 11.8395 14.4758 10.9376 11.887 10.9376C9.75307 10.9376 7.9809 11.6143 6.52853 13.0121V11.479H0.169922V30.6282C0.169922 32.255 1.49872 33.5744 3.1371 33.5744H6.61898V22.2553C6.61898 18.8285 7.93631 16.8893 10.4792 16.8893C12.705 16.8893 13.886 18.5123 13.886 20.9929V30.6282C13.886 32.255 15.2148 33.5744 16.8531 33.5744H20.335V21.805C20.335 18.7387 21.7887 16.8893 24.1953 16.8893C26.421 16.8893 27.602 18.5123 27.602 20.9929V30.6282C27.602 32.255 28.9308 33.5744 30.5692 33.5744H34.0511V20.7222C34.0485 14.4555 30.6889 10.9376 24.7393 10.9376Z" fill="url(#paint3_linear_407_8952)"/>
<defs>
<linearGradient id="paint0_linear_407_8952" x1="-0.536409" y1="22.578" x2="121.699" y2="22.4413" gradientUnits="userSpaceOnUse">
<stop stop-color="#0096FF"/>
<stop offset="0.5" stop-color="#7341FF"/>
<stop offset="1" stop-color="#C300AB"/>
</linearGradient>
<linearGradient id="paint1_linear_407_8952" x1="-0.536743" y1="22.6039" x2="121.699" y2="22.4672" gradientUnits="userSpaceOnUse">
<stop stop-color="#0096FF"/>
<stop offset="0.5" stop-color="#7341FF"/>
<stop offset="1" stop-color="#C300AB"/>
</linearGradient>
<linearGradient id="paint2_linear_407_8952" x1="-0.542997" y1="17.1405" x2="121.692" y2="17.0038" gradientUnits="userSpaceOnUse">
<stop stop-color="#0096FF"/>
<stop offset="0.5" stop-color="#7341FF"/>
<stop offset="1" stop-color="#C300AB"/>
</linearGradient>
<linearGradient id="paint3_linear_407_8952" x1="-0.254377" y1="22.2814" x2="121.981" y2="22.1447" gradientUnits="userSpaceOnUse">
<stop stop-color="#0096FF"/>
<stop offset="0.5" stop-color="#7341FF"/>
<stop offset="1" stop-color="#C300AB"/>
</linearGradient>
</defs>
</svg>
