<svg width="131" height="36" viewBox="0 0 131 36" fill="none" xmlns="http://www.w3.org/2000/svg">
<g clip-path="url(#clip0_407_8976)">
<path fill-rule="evenodd" clip-rule="evenodd" d="M72.8254 11.9762C72.8254 10.8547 72.8252 9.73323 72.825 8.61189V8.58568C72.8246 6.35203 72.8241 4.11823 72.8254 1.88577C72.8254 0.715099 73.4329 -0.0140356 74.393 0.000142041C75.3226 0.0143197 75.9301 0.735352 75.9341 1.85539C75.9369 2.54618 75.9359 3.23698 75.935 3.92796C75.9338 4.77249 75.9325 5.6177 75.9382 6.46311C75.9464 7.8505 76.8515 8.74774 78.2377 8.75583C78.5711 8.75746 78.9046 8.75649 79.2381 8.75551C79.7384 8.75405 80.2386 8.75259 80.7388 8.75988C81.7969 8.77406 82.445 9.38569 82.4512 10.3538C82.4573 11.3058 81.7805 11.9438 80.7511 11.9498C80.4162 11.9524 80.0813 11.9507 79.7464 11.9491C79.2721 11.9468 78.7977 11.9444 78.3232 11.9539C76.8494 11.9822 75.9422 12.8937 75.9382 14.3438C75.9321 16.8796 75.9321 19.4134 75.9382 21.9491C75.9422 23.375 76.8535 24.2743 78.2784 24.2783C78.5726 24.279 78.8669 24.2782 79.1613 24.2774C79.7006 24.2759 80.2403 24.2745 80.7796 24.2823C81.8111 24.2965 82.4654 24.9446 82.4512 25.9127C82.4369 26.8282 81.7704 27.4784 80.7817 27.4642C80.4882 27.4605 80.1935 27.461 79.8986 27.4617C78.9171 27.4636 77.9318 27.4655 76.9758 27.3082C74.6621 26.9295 72.8336 24.6307 72.8275 22.2894C72.8218 19.8841 72.8231 17.4798 72.8244 15.0758V15.0687C72.8248 14.038 72.8254 13.0068 72.8254 11.9762ZM115.256 16.7505C115.263 17.1921 115.272 17.6338 115.272 18.0749C115.253 18.0749 115.235 18.0749 115.216 18.0729C115.216 18.4793 115.216 18.8857 115.217 19.2922C115.218 20.105 115.219 20.9178 115.216 21.7306C115.202 25.0948 117.722 27.665 121.057 27.4787C121.929 27.4306 122.804 27.4425 123.68 27.4544C124.131 27.4605 124.582 27.4666 125.031 27.4645C125.249 27.4645 125.478 27.4564 125.679 27.3916C126.369 27.1688 126.858 26.4174 126.771 25.7612C126.656 24.9024 126.02 24.2988 125.127 24.2847C124.191 24.2699 123.255 24.2723 122.319 24.2746C121.709 24.2762 121.098 24.2778 120.488 24.2746C119.557 24.2705 118.91 23.8127 118.582 22.9499C117.954 21.3074 119.032 19.7316 120.807 19.7134C121.372 19.708 121.939 19.7194 122.505 19.731C123.637 19.7539 124.767 19.7769 125.885 19.6648C128.422 19.4116 130.454 16.9589 130.479 14.3725C130.505 11.5674 128.522 9.11462 125.814 8.8655C123.941 8.69335 122.031 8.67512 120.158 8.825C117.463 9.03969 115.473 11.1461 115.287 13.8358C115.222 14.8027 115.239 15.7767 115.256 16.7505ZM125.011 16.5174H122.806C122.439 16.5174 122.072 16.5178 121.705 16.5184C121.336 16.5189 120.968 16.5194 120.6 16.5194C119.363 16.5133 118.586 15.8206 118.449 14.6034C118.309 13.3436 118.973 12.2986 120.105 12.0413C120.411 11.9704 120.735 11.9562 121.05 11.9542L121.468 11.9516C122.652 11.9439 123.836 11.9362 125.019 11.9562C126.42 11.9806 127.343 12.9648 127.311 14.3542C127.28 15.7174 126.432 16.5154 125.011 16.5174ZM0.325684 24.2628V14.6018C0.325684 11.0514 2.63937 8.75052 6.221 8.75862C6.69772 8.75967 7.17498 8.75488 7.65226 8.75008C9.01781 8.73637 10.3838 8.72266 11.7371 8.84571C14.4096 9.08674 16.4542 11.3876 16.4888 14.0387C16.5235 16.771 16.5296 19.5033 16.4888 22.2355C16.4441 25.1722 14.0304 27.465 11.0624 27.467C10.375 27.4678 9.68771 27.4673 9.00037 27.4668H8.99912C7.96844 27.4661 6.93775 27.4654 5.90707 27.469C4.4047 27.4731 3.42419 28.4392 3.41399 29.936C3.40694 30.8991 3.40868 31.8613 3.41041 32.8239V32.825C3.41119 33.2526 3.41196 33.6803 3.41196 34.1082C3.41196 35.3457 2.88603 35.9938 1.88513 35.9999C0.872 36.0059 0.325684 35.3578 0.325684 34.1406V24.2628ZM13.4189 16.8877C13.4211 16.0167 13.4232 15.1453 13.4148 14.2738C13.4006 12.9633 12.4547 12.0418 11.1276 12.0357C9.33785 12.0296 7.54805 12.0296 5.75826 12.0357C4.41285 12.0397 3.43438 12.9612 3.42215 14.3122C3.39769 16.8703 3.39565 19.4283 3.42215 21.9863C3.43642 23.3595 4.43528 24.273 5.82961 24.275H5.83112C7.57149 24.277 9.31186 24.2791 11.0522 24.275C12.4486 24.271 13.4006 23.3393 13.4148 21.9478C13.4212 21.1416 13.4196 20.3355 13.418 19.5287C13.417 19.0446 13.4161 18.56 13.4168 18.0754C13.4168 17.6794 13.4179 17.2834 13.4189 16.8877ZM99.8878 18.1721C99.8878 18.6779 99.9062 19.1867 99.9256 19.6955C99.9672 20.8248 100.01 21.9544 99.8444 23.0533C99.4327 25.8037 97.2515 27.4706 94.4712 27.4706C93.957 27.4706 93.4428 27.4657 92.9287 27.4607C91.7982 27.4498 90.6677 27.439 89.5382 27.4808C86.295 27.6002 83.9569 25.0666 83.8712 22.3322C83.7816 19.4826 83.753 16.6227 83.912 13.7791C84.0771 10.8221 86.4846 8.75819 89.4709 8.76428C89.9425 8.76525 90.4146 8.76178 90.887 8.7583C92.3795 8.74731 93.8739 8.73632 95.3536 8.86554C97.9392 9.09035 99.981 11.4884 99.9958 14.0769C100.001 15.0317 100 15.9875 99.9985 16.9429V16.9456C99.9985 17.3553 99.9976 17.7648 99.9976 18.1741C99.9782 18.1731 99.9598 18.1726 99.9413 18.1724C99.9238 18.1721 99.9062 18.1721 99.8878 18.1721ZM86.9141 19.237V19.2429C86.9111 20.091 86.908 20.9392 86.9208 21.7874C86.9432 23.3712 87.8749 24.2806 89.4445 24.2806C89.9561 24.2813 90.4684 24.2745 90.9807 24.2676C92.1136 24.2525 93.2472 24.2374 94.3752 24.303C95.8105 24.386 96.9422 23.3003 96.9579 21.8259C96.9865 19.363 96.993 16.9002 96.9561 14.4394C96.9339 12.8737 95.9518 11.9624 94.3853 11.9542C92.7672 11.9461 91.1466 11.9482 89.528 11.9542C87.883 11.9603 86.9351 12.9001 86.9208 14.5447C86.9121 15.3982 86.9137 16.2518 86.9154 17.1054C86.9161 17.4467 86.9167 17.7882 86.9167 18.1296C86.9167 18.4987 86.9154 18.8678 86.9141 19.237ZM38.6423 19.5702C38.6676 20.6433 38.693 21.7166 38.5948 22.7772C38.3461 25.4629 35.9937 27.468 33.2886 27.4701C31.8168 27.4721 30.345 27.4721 28.8732 27.4701C25.842 27.466 23.5059 25.0822 23.4937 21.9813C23.4835 18.9756 25.8685 16.533 28.8366 16.5209C29.5407 16.518 30.2448 16.5188 30.9489 16.5194C31.7411 16.5202 32.5332 16.5211 33.3253 16.5168C34.63 16.5107 35.5146 15.571 35.529 14.1978C35.5432 12.8914 34.7238 11.988 33.4211 11.9617C32.3442 11.9395 31.2673 11.9498 30.1903 11.9602C29.7954 11.9638 29.4006 11.9676 29.0058 11.9698C28.0925 11.9739 27.377 11.3562 27.3138 10.4994C27.2506 9.64471 27.9519 8.79 28.8549 8.77786C29.0621 8.7752 29.2695 8.77214 29.477 8.76909C31.0107 8.74647 32.5506 8.72376 34.0714 8.86292C36.4544 9.08166 38.395 11.0645 38.5927 13.4463C38.6831 14.5168 38.661 15.596 38.6389 16.6759C38.6291 17.155 38.6192 17.6341 38.6192 18.1128C38.6192 18.5977 38.6308 19.0841 38.6423 19.5702ZM31.0565 24.2781C31.3018 24.2781 31.547 24.2782 31.7921 24.2785H31.7937C32.2828 24.279 32.7725 24.2794 33.2621 24.2781C34.6157 24.272 35.5248 23.3362 35.529 21.9489C35.533 20.6161 34.6951 19.7533 33.3457 19.7169C32.9942 19.7072 32.6417 19.7098 32.2895 19.7124C32.1272 19.7136 31.9645 19.7148 31.8026 19.7148C31.4875 19.7148 31.1724 19.7121 30.8574 19.7092C30.1434 19.7027 29.429 19.6963 28.7163 19.723C27.4035 19.7736 26.5799 20.7235 26.633 22.0501C26.686 23.3707 27.5767 24.2679 28.8529 24.2781C29.3422 24.2821 29.8324 24.2807 30.3223 24.2794C30.5671 24.2787 30.8119 24.2781 31.0565 24.2781ZM63.1368 24.2809C62.7667 24.2802 62.3967 24.2794 62.0267 24.2794C61.6797 24.2794 61.3326 24.277 60.9855 24.2746C60.1049 24.2684 59.223 24.2622 58.3432 24.2956C57.9864 24.3098 57.5766 24.4759 57.2974 24.7027C56.7449 25.1504 56.6614 25.7863 56.8999 26.4344C57.1852 27.2101 57.8355 27.4613 58.5959 27.4654C59.0188 27.4671 59.4418 27.4694 59.8647 27.4717C61.7983 27.4821 63.7319 27.4925 65.6654 27.4593C67.3125 27.4309 68.7292 26.8172 69.7791 25.5169C71.1897 23.767 71.4955 21.8166 70.5945 19.7669C69.6792 17.6848 68.0403 16.5506 65.7102 16.5223C64.8619 16.5128 64.0129 16.5151 63.1639 16.5174C62.5647 16.519 61.965 16.5207 61.3662 16.5182C59.9046 16.5121 59.0546 15.6817 59.0566 14.274C59.0566 12.8037 59.9046 11.953 61.3784 11.9509C61.9676 11.9503 62.5567 11.9514 63.1458 11.9525C64.3241 11.9548 65.5023 11.957 66.6806 11.9449C67.7059 11.9348 68.3827 11.2664 68.3847 10.3225C68.3868 9.34637 67.7508 8.761 66.6745 8.75897C66.0935 8.7583 65.5125 8.76033 64.9315 8.76235C63.7695 8.7664 62.6077 8.77045 61.4457 8.7529C59.5785 8.72454 58.1107 9.49822 57.0222 10.9504C54.1744 14.7501 57.0079 19.3456 60.4611 19.5907C61.7237 19.6806 62.9931 19.6884 64.2625 19.6963C64.7084 19.699 65.1544 19.7018 65.6002 19.7082C67.0149 19.7304 67.8854 20.581 67.8996 21.9887C67.9159 23.4187 67.0842 24.2652 65.6348 24.2774C64.8021 24.2844 63.9694 24.2827 63.1368 24.2809ZM48.886 14.0197L48.8804 14.0272C48.4897 14.5539 48.0958 15.0849 47.6984 15.6222C47.3156 15.1055 46.9283 14.6041 46.5455 14.1086C45.6707 12.9762 44.8194 11.8745 44.1005 10.6924C43.222 9.24834 42.1374 8.63664 40.5087 8.94451C40.1765 9.0073 39.7483 9.10654 39.5894 9.33945C39.4752 9.50754 39.6566 9.98154 39.834 10.2265C41.7135 12.8089 43.6093 15.3791 45.5234 17.9351C45.9372 18.486 46.1513 19.043 46.1411 19.7458C46.1129 21.5678 46.1197 23.3912 46.1266 25.2136C46.1282 25.6339 46.1297 26.054 46.1309 26.4742C46.1309 26.7394 46.1452 27.0108 46.2002 27.2701C46.3857 28.143 47.0889 28.7203 47.8411 28.6413C48.6871 28.5542 49.2436 27.8331 49.2376 26.8853L49.2328 26.1989C49.2175 23.9891 49.2022 21.7796 49.2355 19.5717C49.2416 19.12 49.423 18.6076 49.684 18.2328C50.333 17.2972 51.0166 16.3858 51.7004 15.4743C51.983 15.0976 52.2658 14.7206 52.546 14.3422C52.7704 14.0395 52.9951 13.7373 53.22 13.435C54.0286 12.3479 54.8375 11.2606 55.6221 10.1577C55.7831 9.93086 55.9013 9.52379 55.7994 9.31111C55.7036 9.11059 55.3041 8.98299 55.0228 8.9526C54.76 8.92338 54.4936 8.9302 54.2272 8.93701C53.9769 8.94343 53.7266 8.94983 53.4796 8.92628C52.864 8.86754 52.4869 9.11666 52.1363 9.60077C51.0739 11.0704 49.9926 12.5279 48.886 14.0197ZM22.2283 19.0236V19.0409C22.2291 21.5837 22.2298 24.1263 22.2237 26.6677C22.2217 27.5426 21.6692 28.1988 20.8701 28.3366C20.2423 28.4439 19.4779 27.9983 19.2536 27.3279C19.1476 27.0141 19.1435 26.6596 19.1435 26.3213C19.1423 25.0649 19.1407 23.8085 19.1389 22.5521C19.1317 17.3455 19.1246 12.139 19.1558 6.93243C19.1639 5.44176 18.2792 4.24679 16.7708 4.16374C15.7903 4.11109 15.195 3.23815 15.3377 2.3166C15.4804 1.40722 16.2183 0.900871 17.2254 1.02037C20.2198 1.37684 22.2278 3.62297 22.2278 6.6185C22.2292 8.81558 22.2287 11.0118 22.2283 13.207C22.228 14.3041 22.2278 15.4017 22.2278 16.4983C22.2278 17.34 22.2281 18.1819 22.2283 19.0236ZM102.293 18.6804C102.293 19.2375 102.293 19.7947 102.293 20.3518H102.3C102.3 20.9711 102.3 21.5907 102.299 22.2104C102.298 23.7608 102.297 25.3115 102.302 26.8614C102.306 28.0037 103.285 28.7429 104.33 28.4067C105.027 28.1818 105.412 27.5317 105.412 26.6041C105.412 25.5983 105.411 24.5927 105.41 23.5872C105.406 20.5692 105.403 17.5521 105.417 14.5349C105.424 12.7951 106.32 11.9526 108.069 11.9506C108.772 11.9496 109.478 11.9499 110.182 11.9502C111.122 11.9505 112.061 11.9508 113 11.9485C114.062 11.9465 114.736 11.349 114.767 10.4012C114.795 9.47754 114.043 8.76665 113.004 8.76058C111.595 8.75362 110.185 8.75562 108.776 8.7576C108.542 8.75793 108.307 8.75826 108.073 8.75854C104.658 8.76058 102.306 11.0958 102.296 14.5005C102.291 15.8938 102.292 17.2871 102.293 18.6804Z" fill="black"/>
</g>
<defs>
<clipPath id="clip0_407_8976">
<rect width="130.154" height="36" fill="white" transform="translate(0.325684 -6.10352e-05)"/>
</clipPath>
</defs>
</svg>
