<svg width="75" height="46" viewBox="0 0 75 46" fill="none" xmlns="http://www.w3.org/2000/svg">
<path d="M3.8675 26.3742C4.74249 25.2097 6.10748 24.4904 7.85746 24.4904C11.2874 24.4904 13.1774 26.8195 13.1774 30.2788V34.5258C13.1774 37.9851 11.2874 40.3142 7.85746 40.3142C6.24748 40.3142 4.91749 39.6977 4.1125 38.7044V44.4585C4.1125 45.349 3.4825 45.9998 2.53751 45.9998C1.62752 45.9998 0.962524 45.3833 0.962524 44.4585V26.1002C0.962524 25.2097 1.48752 24.6274 2.39751 24.6274C2.99251 24.6274 3.6225 24.8672 3.7625 25.6207L3.8675 26.3742ZM4.1125 30.3473V34.4573C4.1125 36.2726 5.26748 37.6426 7.12247 37.6426C9.04745 37.6426 10.0274 36.3411 10.0274 34.6286V30.2445C10.0274 28.532 9.04745 27.2305 7.12247 27.2305C5.26748 27.1962 4.1125 28.5662 4.1125 30.3473Z" fill="#00D3C9"/>
<path d="M28.6823 34.2861C28.6823 37.9851 26.1623 40.3142 22.5224 40.3142C18.8824 40.3142 16.3624 37.9851 16.3624 34.2861V30.5185C16.3624 26.8195 18.8824 24.4904 22.5224 24.4904C26.1623 24.4904 28.6823 26.8195 28.6823 30.5185V34.2861ZM19.5474 34.5258C19.5474 36.3411 20.6324 37.6769 22.5224 37.6769C24.4474 37.6769 25.4973 36.3411 25.4973 34.5258V30.2788C25.4973 28.4635 24.4124 27.1277 22.5224 27.1277C20.5974 27.1277 19.5474 28.4635 19.5474 30.2788V34.5258Z" fill="#00D3C9"/>
<path d="M41.7371 39.3553L37.7121 32.9847L35.5071 35.1767V38.6703C35.5071 39.5608 34.8422 40.2116 33.9322 40.2116C32.9872 40.2116 32.3572 39.5951 32.3572 38.6703V16.1677C32.3572 15.2772 32.9872 14.6264 33.9322 14.6264C34.8772 14.6264 35.5071 15.2429 35.5071 16.1677V31.3407L41.7721 25.1071C42.0171 24.8673 42.2971 24.6276 42.8221 24.6276C43.5221 24.6276 44.2571 25.2098 44.2571 26.0318C44.2571 26.3058 44.1171 26.6826 43.9071 26.8881L39.9521 30.7927L44.3621 37.814C44.5021 38.088 44.5721 38.362 44.5721 38.636C44.5721 39.4923 43.9071 40.1773 43.0321 40.1773C42.5071 40.1773 41.9821 39.8348 41.7371 39.3553Z" fill="#00D3C9"/>
<path d="M56.5419 38.431C55.6669 39.5955 54.267 40.3148 52.517 40.3148C49.192 40.3148 47.442 38.0885 47.442 34.869V26.1693C47.442 25.2788 48.072 24.6281 49.017 24.6281C49.962 24.6281 50.627 25.2446 50.627 26.1693V34.7662C50.627 36.4102 51.537 37.6433 53.322 37.6433C55.2119 37.6433 56.3319 36.2732 56.3319 34.458V26.1693C56.3319 25.2788 56.9619 24.6281 57.9069 24.6281C58.8169 24.6281 59.4819 25.2446 59.4819 26.1693V38.705C59.4819 39.5613 58.9569 40.1778 58.0469 40.1778C57.4519 40.1778 56.8219 39.9038 56.6819 39.1845L56.5419 38.431Z" fill="#00D3C9"/>
<path d="M66.9018 33.0879C64.9768 32.5057 63.2618 31.2726 63.2618 28.8751C63.2618 26.5118 65.4668 24.4568 68.7918 24.4568C71.6617 24.4568 73.4817 25.5871 74.2517 27.4366C74.6017 28.2928 74.1817 29.4231 73.0617 29.4231C72.3267 29.4231 71.9067 29.0806 71.5917 28.4641C71.1367 27.5393 70.3667 26.7858 68.7918 26.7858C67.4268 26.7858 66.1668 27.4023 66.1668 28.6354C66.1668 29.4231 66.5868 29.9711 67.8468 30.3479L70.2617 31.0671C72.5717 31.7522 74.5667 32.7797 74.5667 35.554C74.5667 38.3968 72.3267 40.3148 68.7568 40.3148C65.6768 40.3148 63.4718 38.979 62.9118 36.7527C62.7018 35.8965 63.2618 34.9717 64.2418 34.9717C64.8718 34.9717 65.2568 35.2115 65.5368 35.8965C65.9918 36.9925 66.7618 37.9173 68.7218 37.9173C70.6467 37.9173 71.5917 37.0952 71.5917 35.828C71.5917 34.8347 71.0667 34.2867 69.7717 33.9442L66.9018 33.0879Z" fill="#00D3C9"/>
<path d="M30.432 9.48884C30.432 10.0368 29.942 10.5164 29.382 10.4821C28.822 10.4821 28.332 10.0026 28.367 9.45459C28.367 8.90658 28.857 8.42707 29.417 8.46132C29.977 8.46132 30.432 8.90658 30.432 9.48884Z" fill="#00D3C9"/>
<path d="M26.8272 7.77626C26.5822 7.77626 26.3722 7.67351 26.1972 7.50225L23.7472 5.10472C23.3972 4.76221 23.3972 4.17995 23.7472 3.83745C24.0972 3.49494 24.6922 3.49494 25.0422 3.83745L27.4922 6.23498C27.8422 6.57749 27.8422 7.15975 27.4922 7.50225C27.2822 7.67351 27.0722 7.77626 26.8272 7.77626Z" fill="#00D3C9"/>
<path d="M38.307 10.4821C37.747 10.4821 37.2571 10.0026 37.2921 9.45459C37.2921 8.90658 37.782 8.42707 38.342 8.46132C38.902 8.46132 39.392 8.94083 39.357 9.48884C39.357 10.0368 38.902 10.4821 38.307 10.4821Z" fill="#00D3C9"/>
<path d="M40.8272 7.77626C40.5822 7.77626 40.3722 7.67351 40.1972 7.50225C39.8472 7.15975 39.8472 6.57749 40.1972 6.23498L42.6472 3.83745C42.9972 3.49494 43.5922 3.49494 43.9422 3.83745C44.2922 4.17995 44.2922 4.76221 43.9422 5.10472L41.4922 7.50225C41.2822 7.67351 41.0722 7.77626 40.8272 7.77626Z" fill="#00D3C9"/>
<path d="M44.187 15.9965C43.767 16.3733 43.1021 16.3733 42.7171 15.9623C42.3321 15.5513 42.3321 14.9005 42.7521 14.5238C43.1721 14.147 43.8371 14.147 44.222 14.558C44.607 14.969 44.572 15.5855 44.187 15.9965ZM44.712 15.2773L46.252 13.8045C46.602 13.462 46.602 12.914 46.252 12.5372C45.902 12.1947 45.342 12.1947 44.957 12.5372L43.4171 14.01L41.9121 12.503C41.5621 12.1605 41.0021 12.1605 40.6171 12.503C40.2321 12.8455 40.2671 13.3935 40.6171 13.7702L42.1221 15.2773L40.5821 16.75C40.2321 17.0925 40.2321 17.6406 40.5821 18.0173C40.7571 18.1886 41.0021 18.2913 41.2471 18.2913C41.4921 18.2913 41.7021 18.2228 41.8771 18.0516L43.4171 16.5788L44.922 18.0858C45.097 18.2571 45.342 18.3598 45.587 18.3598C45.832 18.3598 46.042 18.2913 46.217 18.1201C46.567 17.7776 46.567 17.2295 46.217 16.8528L44.712 15.2773Z" fill="#00D3C9"/>
<path d="M29.1721 1.02906C29.1721 1.57707 28.6821 2.05658 28.1221 2.02233C27.5621 2.02233 27.0721 1.54282 27.1071 0.994812C27.1071 0.446803 27.5971 -0.0327043 28.1571 0.00154628C28.7171 0.0357968 29.1721 0.481054 29.1721 1.02906Z" fill="#00D3C9"/>
<path d="M40.5819 1.02906C40.5819 1.57707 40.0919 2.05658 39.5319 2.02233C38.9719 2.02233 38.4819 1.54282 38.5169 0.994812C38.5169 0.446803 39.0069 -0.0327043 39.5669 0.00154628C40.1269 0.00154628 40.6169 0.481054 40.5819 1.02906Z" fill="#00D3C9"/>
<path d="M33.8622 7.74208C33.6522 7.74208 33.4772 7.67358 33.3022 7.50233L30.6422 4.83078C30.3623 4.55678 30.3623 4.07727 30.6422 3.80326L33.3022 1.13172C33.4422 0.994719 33.6522 0.891968 33.8622 0.891968C34.0722 0.891968 34.2472 0.960469 34.4222 1.13172L37.0822 3.80326C37.3622 4.07727 37.3622 4.55678 37.0822 4.83078L34.4222 7.50233C34.2472 7.67358 34.0372 7.74208 33.8622 7.74208ZM32.2522 4.31702L33.8622 5.9268L35.4722 4.31702L33.8622 2.70725L32.2522 4.31702Z" fill="#00D3C9"/>
<path d="M27.2123 14.1127H25.0423V11.9891C25.0423 11.5096 24.6573 11.0986 24.1323 11.0986C23.6423 11.0986 23.2223 11.5096 23.2223 11.9891V14.1127H21.0523C20.5623 14.1127 20.1423 14.5237 20.1423 15.0032C20.1423 15.4827 20.5623 15.8937 21.0523 15.8937H23.2223V17.983C23.2223 18.4625 23.6423 18.8735 24.1323 18.8735C24.6223 18.8735 25.0423 18.4625 25.0423 17.983V15.8595H27.2123C27.7023 15.8595 28.1223 15.4485 28.1223 14.9689C28.1223 14.4894 27.7023 14.1127 27.2123 14.1127ZM24.1323 15.9965C23.5723 15.9965 23.0823 15.5512 23.0823 14.9689C23.0823 14.4209 23.5373 13.9414 24.1323 13.9414C24.6923 13.9414 25.1823 14.3867 25.1823 14.9689C25.1823 15.5512 24.7273 15.9965 24.1323 15.9965Z" fill="#00D3C9"/>
</svg>
