<svg width="64" height="46" viewBox="0 0 64 46" fill="none" xmlns="http://www.w3.org/2000/svg">
<g clip-path="url(#clip0_407_8948)">
<path d="M4.28788 0.874646H5.009V1.43153H4.28788V0.874646ZM3.1153 0.874646H3.83642V1.43153H3.1153V0.874646ZM4.71892 4.29784L4.61269 3.96207C4.53654 4.08807 4.42726 4.19063 4.29683 4.25852C4.16639 4.32641 4.01982 4.35702 3.87319 4.34698C3.40743 4.34698 2.85178 4.09311 2.85178 3.28849V1.87785H3.57493V3.29463C3.57493 3.65497 3.77922 3.81466 4.02231 3.81466C4.35325 3.81466 4.55549 3.5526 4.55549 3.20045V1.87785H5.26639V4.29784H4.71892ZM2.63728 0.54502V1.17151H1.69554V4.29784H0.94174V1.17151H0V0.54502H2.63728ZM6.76582 1.50728V1.91675C6.93742 1.56461 7.1989 1.48067 7.69122 1.48067V2.18701H7.59929C7.12944 2.18701 6.78216 2.42246 6.78216 3.02233V4.29784H6.06309V1.50728H6.76582ZM15.0924 0.54502V1.17151H14.1527V4.29784H13.4029V1.17151H12.4632V0.54502H15.0924ZM26.9244 3.79214C26.7474 3.79214 26.5744 3.73955 26.4273 3.64101C26.2801 3.54248 26.1654 3.40242 26.0977 3.23857C26.03 3.07471 26.0123 2.8944 26.0468 2.72045C26.0813 2.5465 26.1665 2.38671 26.2917 2.2613C26.4168 2.13589 26.5762 2.05048 26.7498 2.01588C26.9234 1.98128 27.1033 1.99904 27.2668 2.06691C27.4303 2.13478 27.57 2.24972 27.6683 2.39719C27.7666 2.54466 27.8191 2.71803 27.8191 2.89539C27.8186 3.13306 27.7241 3.36084 27.5565 3.52889C27.3888 3.69695 27.1615 3.7916 26.9244 3.79214ZM26.9244 1.31688C26.6129 1.31728 26.3086 1.41021 26.0499 1.5839C25.7912 1.7576 25.5896 2.00427 25.4707 2.29274C25.3518 2.58121 25.3209 2.89853 25.3819 3.2046C25.4429 3.51067 25.5931 3.79174 25.8134 4.0123C26.0338 4.23285 26.3144 4.38299 26.6199 4.44373C26.9254 4.50447 27.2419 4.47309 27.5296 4.35356C27.8173 4.23403 28.0632 4.0317 28.2361 3.77216C28.4091 3.51262 28.5014 3.20751 28.5014 2.89539C28.5014 2.68793 28.4606 2.4825 28.3813 2.29085C28.3021 2.0992 28.1859 1.9251 28.0394 1.77849C27.8929 1.63188 27.7191 1.51565 27.5277 1.43645C27.3364 1.35724 27.1314 1.31661 26.9244 1.31688ZM29.5596 1.50728L29.6781 1.87785C29.7588 1.74682 29.8719 1.63892 30.0065 1.56466C30.1411 1.4904 30.2926 1.4523 30.4462 1.45405C30.608 1.45345 30.7665 1.50021 30.9023 1.58858C31.038 1.67696 31.145 1.8031 31.2102 1.95156C31.2971 1.79186 31.4276 1.66027 31.5865 1.57217C31.7453 1.48407 31.9258 1.4431 32.107 1.45405C32.6769 1.45405 33.0998 1.80824 33.0998 2.61491V4.29784H32.3787V2.57601C32.3787 2.29142 32.2663 2.04574 31.9293 2.04574C31.5922 2.04574 31.4186 2.32828 31.4186 2.69271V4.29784H30.6975V2.53711C30.7054 2.47468 30.6998 2.41126 30.6811 2.35121C30.6623 2.29115 30.6307 2.23588 30.5886 2.1892C30.5465 2.14251 30.4948 2.10552 30.4371 2.08076C30.3793 2.05599 30.3169 2.04405 30.2542 2.04574C29.8967 2.04574 29.7353 2.32828 29.7353 2.68861V4.29784H29.0142V1.50728H29.5596ZM23.5026 0.424226V2.73365L24.4301 1.50523H25.2901L24.189 2.81145L25.2513 4.29784H24.4342L23.7723 3.32944L23.5047 3.6304V4.29784H22.7856V0.837795L23.5026 0.424226ZM8.96389 0.424226V2.73365L9.89133 1.50523H10.7473L9.64824 2.81145L10.7003 4.2876H9.89338L9.2315 3.3192L8.96594 3.62016V4.29784H8.24482V0.837795L8.96389 0.424226ZM20.9634 1.44791C21.7805 1.44791 22.2606 1.98841 22.2606 2.82988C22.2605 2.92429 22.255 3.01862 22.2443 3.11242H20.2791C20.3118 3.5526 20.6876 3.74915 21.086 3.74915C21.3603 3.74753 21.6312 3.68752 21.8806 3.57307L22.1278 4.0972C21.7978 4.25662 21.436 4.33921 21.0696 4.33879C20.1238 4.33879 19.5212 3.75529 19.5212 2.90563C19.5113 2.71273 19.5418 2.5199 19.6106 2.33949C19.6795 2.15909 19.7852 1.9951 19.921 1.85804C20.0568 1.72098 20.2197 1.61388 20.3992 1.5436C20.5787 1.47333 20.7709 1.44143 20.9634 1.44996V1.44791ZM21.566 2.63333C21.573 2.55612 21.5636 2.47831 21.5384 2.40499C21.5133 2.33168 21.4729 2.26451 21.4201 2.20788C21.3673 2.15126 21.3031 2.10645 21.2318 2.07639C21.1605 2.04633 21.0837 2.0317 21.0063 2.03346C20.8297 2.01783 20.654 2.07171 20.5163 2.18368C20.3787 2.29565 20.2899 2.45692 20.2689 2.63333H21.566ZM18.7796 0.42218V3.53212C18.7796 3.68772 18.8695 3.75734 19.0309 3.75734C19.088 3.75485 19.1447 3.74731 19.2005 3.73482V4.29784C19.0391 4.33164 18.875 4.35015 18.7102 4.35312C18.3731 4.35312 18.0585 4.22414 18.0585 3.5915V0.829604L18.7796 0.42218ZM16.2118 1.44586C17.0289 1.44586 17.509 1.98637 17.509 2.82783C17.5089 2.92225 17.5034 3.01657 17.4927 3.11037H15.5275C15.5602 3.55055 15.936 3.7471 16.3446 3.7471C16.6189 3.74548 16.8898 3.68547 17.1393 3.57103L17.3844 4.09515C17.0551 4.25474 16.694 4.33735 16.3283 4.33674C15.3824 4.33674 14.7798 3.75324 14.7798 2.90359C14.7696 2.71061 14.7999 2.51763 14.8686 2.33708C14.9373 2.15653 15.043 1.99241 15.1789 1.85529C15.3148 1.71816 15.4778 1.61107 15.6574 1.5409C15.8371 1.47074 16.0294 1.43906 16.222 1.44791L16.2118 1.44586ZM16.8247 2.63129C16.8295 2.55504 16.8185 2.47862 16.7922 2.40689C16.766 2.33515 16.7252 2.26966 16.6724 2.21459C16.6195 2.15952 16.5558 2.11607 16.4854 2.087C16.4149 2.05793 16.3391 2.04388 16.2629 2.04574C16.0862 2.02959 15.9102 2.08327 15.7724 2.19534C15.6346 2.3074 15.546 2.46898 15.5254 2.64562L16.8247 2.63129Z" fill="#500099"/>
<path d="M27.2134 29.4587H22.899V32.6465C22.9077 32.9264 22.8603 33.2052 22.7595 33.4663C22.6586 33.7274 22.5065 33.9656 22.312 34.1667C22.1176 34.3678 21.8848 34.5276 21.6275 34.6368C21.3702 34.746 21.0937 34.8023 20.8143 34.8023C20.5349 34.8023 20.2584 34.746 20.0011 34.6368C19.7438 34.5276 19.511 34.3678 19.3166 34.1667C19.1221 33.9656 18.97 33.7274 18.8691 33.4663C18.7683 33.2052 18.7209 32.9264 18.7296 32.6465V25.1675H27.2073V13.4525C27.2073 9.92484 24.4086 6.98483 20.8889 6.93979C20.0429 6.93113 19.2036 7.09065 18.4195 7.40912C17.6355 7.72759 16.9222 8.1987 16.321 8.7952C15.7197 9.39169 15.2424 10.1017 14.9167 10.8843C14.591 11.6668 14.4233 12.5063 14.4233 13.3542V32.6485C14.4233 34.3497 15.0976 35.9813 16.2979 37.1842C17.4982 38.3871 19.1261 39.0629 20.8235 39.0629C22.5209 39.0629 24.1488 38.3871 25.3491 37.1842C26.5493 35.9813 27.2236 34.3497 27.2236 32.6485V29.4608L27.2134 29.4587ZM18.7316 13.4074C18.7256 12.8589 18.9315 12.3293 19.3061 11.9294C19.6808 11.5295 20.1952 11.2903 20.7418 11.2618C21.0215 11.2522 21.3002 11.2991 21.5615 11.3997C21.8227 11.5003 22.061 11.6525 22.2623 11.8474C22.4636 12.0422 22.6237 12.2757 22.7331 12.5339C22.8425 12.792 22.8989 13.0696 22.899 13.3501V20.8332H18.7316V13.4074Z" fill="#500099"/>
<path d="M5.94461 6.96063C4.33107 7.07755 2.82151 7.80234 1.71945 8.98928C0.61738 10.1762 0.00452047 11.7373 0.00408651 13.3586V20.8192V25.131V25.1412H8.46749C8.47038 25.1417 8.47299 25.1432 8.47486 25.1455C8.47674 25.1477 8.47774 25.1506 8.4777 25.1535V32.6346C8.4777 33.1884 8.25817 33.7196 7.86741 34.1112C7.47664 34.5029 6.94665 34.7229 6.39403 34.7229C5.8414 34.7229 5.31141 34.5029 4.92065 34.1112C4.52988 33.7196 4.31035 33.1884 4.31035 32.6346V29.4816L4.30014 29.4714H0.0102147L0 29.4816V32.4708C0 36.2564 3.09283 39.3008 6.85979 39.0224C8.4735 38.9059 9.98334 38.1813 11.0855 36.9942C12.1877 35.8072 12.8004 34.2458 12.8003 32.6243V23.2925V20.8356L12.7901 20.8254H4.33078V20.8151V13.4446C4.3231 12.9028 4.52048 12.3781 4.8832 11.9762C5.24591 11.5743 5.74705 11.325 6.28576 11.2785C6.56985 11.2609 6.85453 11.3018 7.12224 11.3987C7.38995 11.4956 7.63502 11.6464 7.84232 11.8419C8.04961 12.0374 8.21475 12.2734 8.32755 12.5353C8.44034 12.7972 8.49839 13.0795 8.49813 13.3648V16.4911C8.49813 16.4944 8.49942 16.4975 8.50172 16.4998C8.50402 16.5021 8.50714 16.5034 8.51039 16.5034H12.8003C12.8036 16.5034 12.8067 16.5021 12.809 16.4998C12.8113 16.4975 12.8126 16.4944 12.8126 16.4911V13.5286C12.8044 9.743 9.71157 6.69856 5.94461 6.96063Z" fill="#500099"/>
<path d="M62.9471 39.5973V32.6363C62.9471 32.6219 62.9471 32.6055 62.9471 32.5892V7.20184H58.6347V32.5892C58.6347 33.143 58.4152 33.6742 58.0244 34.0658C57.6337 34.4575 57.1037 34.6775 56.551 34.6775C55.9984 34.6775 55.4684 34.4575 55.0777 34.0658C54.6869 33.6742 54.4674 33.143 54.4674 32.5892V7.20184H50.1509V32.5892C50.1509 33.6111 50.3945 34.6182 50.8614 35.5266C51.3283 36.4351 52.0051 37.2186 52.8353 37.8119C53.6655 38.4052 54.6251 38.7911 55.6342 38.9375C56.6434 39.0839 57.6728 38.9865 58.6368 38.6535V39.5871C58.6368 40.1411 58.4173 40.6725 58.0266 41.0644C57.6359 41.4564 57.1059 41.6769 56.5531 41.6774H54.3795V45.9994H56.549C57.3895 45.9994 58.2217 45.8335 58.9982 45.5111C59.7747 45.1888 60.4803 44.7163 61.0746 44.1207C61.6689 43.525 62.1403 42.8179 62.462 42.0397C62.7836 41.2615 62.9491 40.4274 62.9491 39.585L62.9471 39.5973Z" fill="#500099"/>
<path d="M40.0288 6.41229V38.7606H44.3412V25.1477H48.5412V20.8257H44.3412V6.41229C44.3417 5.85824 44.5617 5.32708 44.9528 4.9355C45.3439 4.54392 45.8741 4.32397 46.4269 4.32397H48.5964V-6.10352e-05H46.429C44.7319 -6.11218e-05 43.1043 0.675457 41.9041 1.87795C40.7039 3.08044 40.0294 4.71144 40.0288 6.41229Z" fill="#500099"/>
<path d="M35.2273 34.4315C34.6755 34.4315 34.1463 34.2124 33.7554 33.8222C33.3644 33.4319 33.1437 32.9023 33.1416 32.3494V7.21796H28.8271V32.3494C28.8271 34.0506 29.5014 35.6821 30.7017 36.885C31.902 38.088 33.5299 38.7638 35.2273 38.7638H38.4141V34.4336H35.2273V34.4315Z" fill="#500099"/>
</g>
<defs>
<clipPath id="clip0_407_8948">
<rect width="63.48" height="46" fill="white"/>
</clipPath>
</defs>
</svg>
