<svg width="110" height="46" viewBox="0 0 110 46" fill="none" xmlns="http://www.w3.org/2000/svg">
<g clip-path="url(#clip0_407_8954)">
<path d="M21.3804 25.1465V30.4962H23.1863V44.0917H30.3078V25.1465H21.3804Z" fill="#00C1DE"/>
<path d="M45.0623 25.1465L42.3023 34.6191L39.5082 25.1465H32.3867L38.4178 44.0917H46.0163L52.1497 25.1465H45.0623Z" fill="#00C1DE"/>
<path d="M53.751 25.1465V30.4962H55.5569V44.0917H62.6784V25.1465H53.751Z" fill="#00C1DE"/>
<path d="M83.4976 27.8384C81.9983 25.8621 79.8516 24.8058 77.1939 24.8058C75.1494 24.8058 73.6842 25.4191 72.662 26.1687V17.991H65.5405V44.0576H71.8442V42.5584C73.0368 43.751 74.7746 44.3984 76.9213 44.3984C83.259 44.3984 85.5079 39.3554 85.5079 34.6532C85.5079 31.9954 84.7924 29.5762 83.4976 27.8384ZM78.3865 34.6873C78.3865 36.4932 77.6709 38.6399 75.6605 38.6399C74.3316 38.6399 72.9005 37.6176 72.9005 34.6873C72.9005 33.7332 73.105 30.5984 75.6605 30.5984C77.6709 30.5984 78.3865 32.711 78.3865 34.6873Z" fill="#00C1DE"/>
<path d="M98.1153 25.1465V36.6636C98.1153 37.4132 97.9109 38.6399 96.4116 38.6399C95.3894 38.6399 94.8783 38.0947 94.8783 37.0384V25.1465H87.7568V36.834C87.7568 43.1036 91.3687 44.3984 94.4013 44.3984C96.8205 44.3984 98.3198 43.274 99.1717 42.354V44.0577H105.237V25.1465H98.1153Z" fill="#00C1DE"/>
<path d="M30.4101 20.7851L23.936 17.1733V24.3629L30.4101 20.7851Z" fill="#CDDB00"/>
<path d="M58.5214 18.0251H56.1362V23.988H58.5214V18.0251Z" fill="#F32735"/>
<path d="M62.6782 18.0251H60.293V23.988H62.6782V18.0251Z" fill="#F32735"/>
<path d="M18.7228 38.0947L17.7006 38.4014C17.2235 38.5717 16.065 38.8784 15.3835 38.8784C14.8724 38.8784 14.4295 38.7762 14.4295 37.6517V30.5643H18.7569V25.1466H14.4295V20.0695H7.41019V25.1466H5.05908V30.5643H7.30797V37.788C7.30797 42.1154 9.55686 44.3984 13.8502 44.3984C15.4517 44.3984 17.3598 44.0917 18.7569 43.5806V43.4103V38.0947H18.7228Z" fill="#00C1DE"/>
<path d="M55.9315 9.67693C55.9315 8.72286 55.3522 7.87101 54.2278 7.87101C53.0352 7.87101 52.2174 8.48434 51.9789 9.67693H55.9315ZM54.0915 6.09915C56.5448 6.09915 58.01 7.73471 58.01 10.2903C58.01 10.7673 57.9759 11.1421 57.9759 11.1421H52.0129C52.1152 12.471 53.2737 13.0843 54.4663 13.0843C55.25 13.0843 56.2722 12.8799 56.8855 12.5391L57.6352 14.1406C56.7152 14.6177 55.4544 14.8562 54.4322 14.8562C51.57 14.8562 49.73 13.0843 49.73 10.5288C49.73 7.90508 51.5018 6.09915 54.0915 6.09915ZM61.8604 3.03248V12.4369C61.8604 12.914 62.1329 13.1184 62.61 13.1184C62.7122 13.1184 62.9507 13.0843 63.1211 13.0503V14.7199C62.6781 14.788 62.1329 14.8903 61.6218 14.8903C60.5996 14.8903 59.6455 14.5154 59.6455 12.5732V4.25915L61.8604 3.03248ZM70.3107 9.67693C70.2766 8.72286 69.7315 7.87101 68.607 7.87101C67.4144 7.87101 66.5966 8.48434 66.3581 9.67693H70.3107ZM68.5048 6.09915C70.9581 6.09915 72.4233 7.73471 72.4233 10.2903C72.4233 10.7673 72.3892 11.1421 72.3892 11.1421H66.4263C66.5285 12.471 67.687 13.0843 68.8796 13.0843C69.6633 13.0843 70.6855 12.8799 71.2989 12.5391L72.0485 14.1406C71.1285 14.6177 69.8678 14.8562 68.8455 14.8562C65.9833 14.8562 64.1433 13.0843 64.1433 10.5288C64.1092 7.90508 65.9152 6.09915 68.5048 6.09915ZM32.1137 2.99841V9.98359L34.9078 6.26952H37.5315L34.1922 10.2221L37.3952 14.6858H34.9418L32.9315 11.7555L32.1137 12.6755V14.6858H29.9329V4.22508L32.1137 2.99841ZM76.2055 3.16878V10.154L78.9996 6.43989H81.5892L78.25 10.3925L81.4529 14.8562H78.9996L76.9893 11.9258L76.1715 12.8458V14.8562H73.9907V4.39545L76.2055 3.16878ZM94.5374 6.50804L94.8781 7.63248C95.2189 6.91693 96.2411 6.33767 97.1952 6.33767C98.1833 6.33767 99.1374 6.91693 99.5122 7.83693C99.9211 7.01915 100.841 6.33767 102.238 6.33767C103.976 6.33767 105.237 7.39397 105.237 9.8473V14.9243H103.056V9.71101C103.056 8.85915 102.715 8.10952 101.693 8.10952C100.603 8.10952 100.126 8.96138 100.126 10.0858V14.9243H97.9448V9.60879C97.9448 8.85916 97.57 8.10952 96.6159 8.10952C95.5255 8.10952 95.0485 8.96138 95.0485 10.0517V14.9243H92.8678V6.50804H94.5374ZM86.5641 5.69026C83.9404 5.69026 81.7937 7.83694 81.7937 10.4606C81.7937 13.0843 83.9404 15.231 86.5641 15.231C89.1878 15.231 91.3344 13.0843 91.3344 10.4606C91.3344 7.83694 89.1878 5.69026 86.5641 5.69026ZM86.5641 13.1866C85.0648 13.1866 83.8381 11.9599 83.8381 10.4606C83.8381 8.96138 85.0648 7.73471 86.5641 7.73471C88.0633 7.73471 89.29 8.96138 89.29 10.4606C89.29 11.9599 88.0633 13.1866 86.5641 13.1866ZM50.7181 3.33915V5.2473H47.8559V14.6858H45.5729V5.2473H42.7107V3.33915H50.7181ZM25.4692 6.26952V7.49619C25.9804 6.43989 26.7981 6.1673 28.2633 6.1673V8.31397H27.9907C26.5596 8.31397 25.5374 9.02952 25.5374 10.8354V14.6858H23.3567V6.26952H25.4692ZM12.9641 3.33915V5.2473H10.1018V14.6858H7.85295V5.2473H4.99072V3.33915H12.9641ZM19.2678 14.6858L18.927 13.6636C18.8589 13.7999 18.2796 14.8221 16.6781 14.8221C15.2811 14.8221 13.5774 14.0725 13.5774 11.6192V7.3599H15.7581V11.6532C15.7581 12.7436 16.3374 13.2206 17.1211 13.2206C18.1092 13.2206 18.7226 12.4369 18.7226 11.3806V7.39397H20.8692V14.7199H19.2678V14.6858ZM14.3952 4.36138H16.5759V6.06508H14.3952V4.36138ZM17.9729 4.36138H20.1537V6.06508H17.9729V4.36138Z" fill="#002856"/>
</g>
<defs>
<clipPath id="clip0_407_8954">
<rect width="108.356" height="46" fill="white" transform="translate(0.970215 -6.10352e-05)"/>
</clipPath>
</defs>
</svg>
