<svg width="148" height="50" viewBox="0 0 148 50" fill="none" xmlns="http://www.w3.org/2000/svg">
<path d="M26.7542 34.1212C26.5693 34.0664 26.5017 34.0436 26.0644 34.1531L25.9922 34.1713C25.5819 34.2944 18.6113 36.3825 18.3859 36.4737C18.2235 36.5421 18.1289 36.6196 18.0387 36.7153C17.5021 37.2852 17.7186 38.539 19.0306 38.3384C20.2029 38.0238 25.1265 36.501 26.6911 36.036C27.904 35.539 27.4846 34.3446 26.7542 34.1212ZM49.3298 20.6762C49.1855 20.7446 49.0413 20.8084 48.8925 20.8814C48.8699 20.8905 48.8474 20.9042 48.8248 20.9087C48.8023 20.9178 48.7798 20.9315 48.7617 20.9406H48.7572C48.7166 20.9543 48.6715 20.9771 48.6265 20.9999C48.6129 21.009 48.6039 21.0181 48.5859 21.0181C48.5273 21.0455 48.4732 21.0683 48.419 21.0957C48.383 21.1139 48.3424 21.1276 48.3063 21.1412C47.9501 21.2917 47.612 21.4376 47.2828 21.5652C46.8004 21.7567 46.2819 21.9437 45.7408 22.1306C45.6687 22.1534 45.6055 22.1762 45.5379 22.1944C45.4072 22.24 45.2719 22.281 45.1411 22.3266C43.8742 22.6002 43.5811 21.4513 44.0816 20.8905C44.1988 20.7537 44.2439 20.699 44.6091 20.5668L44.6271 20.5622C44.7263 20.5303 44.821 20.4984 44.9157 20.4665C44.9743 20.4483 45.0329 20.43 45.0961 20.4027C45.565 20.2385 46.0159 20.0744 46.4442 19.9057C46.5118 19.8829 46.593 19.851 46.6561 19.8236C46.9672 19.696 47.2873 19.5683 47.612 19.4316C47.6751 19.3996 47.7337 19.3769 47.7878 19.3541C47.8825 19.313 47.9727 19.2766 48.0674 19.231L48.0854 19.2264C48.0989 19.2264 48.0989 19.2173 48.1125 19.2173C48.144 19.2082 48.1756 19.1945 48.2071 19.1808C48.2342 19.1671 48.2612 19.1535 48.2883 19.1443C48.3785 19.1033 48.4732 19.0577 48.5678 19.0167L48.5859 19.0076C48.9421 18.8571 49.0097 18.8662 49.1856 18.8845C49.9295 18.9437 50.457 20.0015 49.3298 20.6762ZM19.9279 44.206C19.743 44.1467 19.6754 44.1285 19.238 44.2334L19.1659 44.2516C18.7556 44.3747 14.6751 45.5874 14.4497 45.6832C14.2873 45.7516 14.1972 45.8291 14.1025 45.9248C13.5659 46.4947 13.7779 47.7485 15.0944 47.5479C16.2667 47.2287 18.3002 46.5813 19.8647 46.1163C21.0731 45.6239 20.6583 44.4248 19.9279 44.206ZM23.5124 19.3358C23.3275 19.2766 23.2599 19.2583 22.8225 19.3632L22.7504 19.3814C22.3401 19.5045 15.3695 21.5926 15.144 21.6838C14.9772 21.7522 14.887 21.8297 14.7968 21.9254C14.2603 22.4953 14.4722 23.7491 15.7888 23.5485C16.9611 23.2339 21.8847 21.7111 23.4493 21.2461C24.6621 20.7537 24.2428 19.5592 23.5124 19.3358ZM31.3893 28.7915C31.2044 28.7322 31.1368 28.714 30.6994 28.8234L30.6318 28.8417C30.2215 28.9648 25.7668 30.296 25.5458 30.3918C25.3835 30.4556 25.2934 30.5377 25.1987 30.6334C24.6621 31.2033 24.874 32.4571 26.1906 32.2565C27.3629 31.9419 29.7661 31.1714 31.3307 30.7109C32.539 30.2094 32.1197 29.0149 31.3893 28.7915ZM45.2313 40.0025C45.0825 39.9523 45.0284 39.9341 44.5956 40.0435L44.5234 40.0617C44.1086 40.1848 39.1444 41.6574 38.91 41.7486C38.7386 41.8124 38.6304 41.8899 38.5087 41.9811C37.8233 42.5328 37.5889 43.7227 38.8514 43.513C40.0236 43.1939 42.9318 42.2957 44.5189 41.8261C45.7859 41.3337 45.8175 40.2031 45.2313 40.0025ZM42.7425 33.3005C42.5621 33.2504 42.4945 33.2321 42.0526 33.3415L41.9805 33.3598C41.5657 33.4829 36.5879 34.9509 36.3625 35.0467C36.1957 35.1105 36.101 35.188 36.0018 35.2792C35.4337 35.8263 35.578 37.0208 36.899 36.8111C38.0849 36.4919 40.9885 35.5892 42.5756 35.1242C43.8065 34.6318 43.4594 33.5011 42.7425 33.3005ZM56.7874 31.5452C56.7604 31.568 56.58 31.6729 56.5439 31.6911C55.7774 32.2017 55.1507 32.5118 54.0911 33.0178L54.0596 33.0315C51.0747 34.4722 46.9266 35.8719 42.5621 37.1256C40.6955 37.6591 40.6955 37.6591 40.47 37.9098C39.929 38.5071 40.1634 39.8201 41.4755 39.5739C48.1485 37.7001 53.4374 35.9083 56.4673 33.9707C56.5169 33.9342 56.5665 33.9023 56.6206 33.8704C56.7017 33.8111 56.7874 33.7519 56.8686 33.6926H56.8731C57.1301 33.451 57.4367 33.2321 57.5043 32.8446C57.581 32.5528 57.5359 32.489 57.4051 32.0604C57.2473 31.5361 57.0534 31.3765 56.7874 31.5452ZM56.8099 29.717C56.7468 29.7672 56.6837 29.8219 56.6116 29.8675C56.571 29.8948 56.5259 29.9267 56.4763 29.9586L56.4628 29.9678C56.3996 30.0088 56.341 30.0361 56.2779 30.0772C55.2364 30.6927 53.9874 31.2854 52.5672 31.8598C52.2245 31.9966 51.8683 32.1379 51.5031 32.2747C51.1694 32.3476 50.9305 32.3066 50.7411 32.1972L50.6735 32.1516C50.2045 31.7914 50.2496 30.9252 50.6735 30.41C50.7366 30.3279 50.7862 30.2641 50.8673 30.2048C50.9665 30.1273 51.1108 30.0453 51.4039 29.9176C51.5887 29.8492 51.7736 29.7808 51.9585 29.7125C51.999 29.6988 52.0441 29.6805 52.0802 29.6623C52.5401 29.4845 52.9865 29.3021 53.4193 29.1152L53.4599 29.097C54.0145 28.8553 54.542 28.6091 55.038 28.3538C55.1958 28.2718 55.3536 28.1897 55.5114 28.1031C55.8721 27.9435 56.0299 27.8888 56.1562 27.8842C56.2193 27.8797 56.2779 27.8888 56.3455 27.8979C57.0128 27.9982 57.4457 28.9556 56.8099 29.717ZM55.6873 21.1412C55.4528 21.4604 54.9749 21.9117 54.267 22.4178C54.2129 22.4543 53.9829 22.5956 53.9333 22.6321C50.8448 24.6837 45.4883 26.4982 38.6304 28.4769C37.2868 28.7231 37.0253 27.3371 37.5709 26.7125C37.8008 26.4527 37.8008 26.4527 39.717 25.8873C44.9878 24.3326 49.8438 22.7917 52.8738 20.9315L52.8918 20.9178C53.0271 20.8358 53.1668 20.7537 53.2931 20.6671C53.4193 20.585 53.5366 20.4938 53.6583 20.4118C53.8251 20.2887 53.9829 20.1701 54.1182 20.0516L54.1678 20.006L54.1813 19.9878C54.267 19.9057 54.3436 19.8236 54.4022 19.737L54.4428 19.7097C54.6142 19.6048 54.8576 19.8054 55.0154 19.9285C55.295 20.1473 55.9488 20.7811 55.6873 21.1412ZM20.0722 32.1379C19.6934 32.2519 19.504 32.3112 19.3372 32.6166C18.9495 33.3324 19.5627 34.3993 20.4599 34.185C20.8116 34.0756 21.2895 33.9297 21.3166 33.264C21.3481 32.6075 20.7936 31.9601 20.0722 32.1379ZM4.34091 40.659C3.96668 40.773 3.7728 40.8322 3.58794 41.1423C3.15058 41.8672 3.66459 42.9522 4.55733 42.738C4.90902 42.6285 5.38695 42.4826 5.4636 41.8079C5.54927 41.1422 5.06683 40.4812 4.34091 40.659ZM57.9417 34.3354C56.7288 35.7032 53.4193 37.1621 49.4831 38.466L49.4786 38.4706C49.2126 38.5891 48.4055 38.9994 48.3289 39.7243C48.2612 40.39 48.7933 40.349 49.2532 40.2213L49.2757 40.2122C49.3884 40.1757 49.4967 40.1438 49.6049 40.1073L49.6229 40.0982L49.6364 40.0936C52.2019 39.2456 54.3166 38.3794 55.8811 37.4448C56.084 37.3217 56.2824 37.194 56.4673 37.0709L56.5349 37.0253C56.571 37.0025 56.6116 36.9706 56.6521 36.9387C57.4141 36.3734 57.7613 35.7579 57.9417 35.1926C58.0318 34.919 57.9913 34.6318 57.9417 34.3354ZM13.8049 9.82543C12.592 10.1856 12.592 10.1856 12.317 10.4044C12.1231 10.5549 11.6722 11.0838 12.0375 11.2069C12.1006 11.2114 12.1727 11.1977 12.2178 11.1841C13.7147 10.7008 13.7147 10.7008 13.9672 10.3588C14.0484 10.254 14.107 10.1218 14.125 10.0534C14.2062 9.74336 13.9176 9.80719 13.8049 9.82543ZM36.2137 2.82713C36.1641 2.80433 36.11 2.78609 36.0469 2.76786C35.844 2.70859 35.5689 2.65844 35.2173 2.62197C34.8115 2.57637 34.3831 2.55358 34.1396 2.54902C38.3689 2.89551 30.8662 4.96993 27.2682 5.96838C24.0083 6.86654 24.0083 6.86654 23.5034 7.6188C23.4312 7.72822 23.2148 8.08383 23.6567 7.99721C33.0846 5.24804 35.321 4.59608 36.376 3.67057C36.5879 3.48365 36.9035 3.09156 36.2137 2.82713ZM34.8205 42.9477C34.4778 43.0525 34.2253 43.13 33.9909 43.5267C33.5986 44.1923 33.8556 45.0221 34.6041 44.8306C34.9287 44.7303 35.3706 44.589 35.5599 43.9644C35.7177 43.4492 35.5103 42.7744 34.8205 42.9477ZM57.9281 24.5105L57.9101 24.5287L57.856 24.5834C55.2995 26.9177 48.2252 29.4617 42.1879 31.3264C42.1473 31.3446 42.1067 31.3583 42.0661 31.372L30.1313 34.9783C29.5497 35.1561 29.0312 34.8415 28.9725 34.2898C28.9139 33.7382 29.3378 33.1409 29.9194 32.9631L41.6062 29.4298V29.4252C44.7173 28.518 46.2729 27.9663 48.2432 27.2186L48.2838 27.2049C49.8483 26.5985 51.1604 26.0469 52.2561 25.5317C52.3417 25.4907 52.4229 25.4542 52.504 25.4132C54.2399 24.6153 55.6602 23.8038 56.5484 23.0059L56.6025 22.9512L56.6251 22.933C56.8686 22.7005 57.0399 22.4725 57.1391 22.2537C57.608 22.2035 58.3384 22.9695 58.3475 22.9831C58.6856 23.4208 58.5053 23.9406 57.9281 24.5105ZM48.2162 7.45923C48.2116 7.45011 47.4497 6.64314 47.0168 6.79359C45.6732 8.5899 41.8227 10.1446 30.4965 13.2721C28.8012 13.7417 28.8012 13.7417 28.5352 14.0791C28.1023 14.6399 28.1565 15.6931 29.2295 15.5061C37.5709 13.1718 50.164 9.61115 48.2162 7.45923ZM34.4012 15.7159C34.0269 15.8298 33.833 15.8891 33.6662 16.19C33.274 16.8921 33.8826 17.9407 34.7799 17.7219C35.1271 17.6125 35.6095 17.4666 35.6411 16.8146C35.6726 16.1718 35.1271 15.538 34.4012 15.7159ZM46.6922 11.9819C46.5118 11.7312 46.1015 11.9409 46.1015 11.9409C44.325 12.7114 42.2961 13.3907 39.3112 14.298C37.5438 14.8359 37.5438 14.8359 37.3364 15.073C36.8179 15.6611 37.111 16.9377 38.4095 16.6778C41.507 15.7341 44.1672 14.8815 46.5749 13.9059C47.9096 13.3724 46.8184 12.1552 46.6922 11.9819ZM52.1569 13.9788C51.9495 13.6642 51.2912 12.994 50.9124 13.2083C49.181 14.7402 46.2864 16.0213 40.5963 17.7675L39.7802 18.0182C39.7351 18.0273 39.6855 18.0365 39.6404 18.0501L28.2917 21.547C27.7416 21.7157 27.4846 22.2582 27.7191 22.7461C27.9536 23.2339 28.5983 23.4983 29.1484 23.3296L39.9831 19.9923C40.0146 19.9878 40.0462 19.9832 40.0823 19.9787C43.8201 18.8298 46.8906 17.845 49.5462 16.5228C52.7746 14.918 52.4589 14.4438 52.1569 13.9788ZM44.555 4.56416C44.4648 4.50945 43.6668 4.0353 43.3782 4.07178C44.023 5.58541 41.0021 7.10817 32.9358 9.33304C31.4163 9.75248 31.4163 9.75248 31.1819 10.0443C30.749 10.605 30.9384 11.4622 31.8762 11.298C35.9296 10.1947 48.2387 6.80727 44.555 4.56416ZM38.2607 2.52622C38.0668 2.50343 37.8504 2.48519 37.652 2.46695C37.404 2.44872 37.1786 2.43504 37.0343 2.43048C37.3138 2.45784 37.5754 2.48975 37.8233 2.52622C40.3979 2.92743 40.7856 4.00795 30.8437 6.75256C29.4956 7.12185 29.446 7.14009 29.1123 7.59144C28.8508 7.95161 28.7291 8.52607 29.4234 8.39841C32.6427 7.4957 38.6394 5.81793 40.2761 4.54593C41.6694 3.46997 40.2671 2.75418 38.2607 2.52622ZM12.0014 19.7735C12.0059 20.2887 12.4793 20.5714 13.061 20.3981L24.9958 16.7918C25.5729 16.6186 26.0463 16.0487 26.0418 15.5335C26.0418 15.0137 25.5639 14.7356 24.9822 14.9089L13.0519 18.5152C12.4703 18.6884 12.0014 19.2538 12.0014 19.7735ZM18.1289 11.1886C18.1334 11.5397 18.449 11.7312 18.8277 11.6172L26.7136 9.25553C27.0969 9.14155 27.408 8.76314 27.4035 8.41209C27.399 8.06559 27.0834 7.87411 26.7001 7.98809L18.8142 10.3452C18.4355 10.4591 18.1243 10.8376 18.1289 11.1886ZM20.1623 29.0924C20.3472 29.6304 20.9739 29.9267 21.551 29.7489L33.4814 26.1426C34.063 25.9694 34.3831 25.3858 34.2028 24.8478C34.0179 24.3144 33.3912 24.0181 32.8141 24.1913L20.8792 27.7976C20.3021 27.9754 19.9775 28.5544 20.1623 29.0924ZM11.9247 31.486C12.0149 32.0331 12.5605 32.3294 13.1421 32.1562L15.5769 31.4176C16.154 31.2443 16.5598 30.6562 16.4651 30.1091C16.3749 29.562 15.8294 29.2611 15.2477 29.4343L12.813 30.1729C12.2313 30.3507 11.83 30.9389 11.9247 31.486ZM0.657212 23.2157C0.733862 23.7172 1.27041 23.9862 1.85205 23.8083L4.2868 23.0743C4.86393 22.9011 5.27874 22.3449 5.19759 21.8434C5.12093 21.3418 4.58439 21.0729 4.00275 21.2507L1.56799 21.9847C0.986356 22.1579 0.576054 22.7142 0.657212 23.2157ZM20.3652 13.7417C20.4283 14.2113 20.9378 14.4621 21.506 14.3025L23.8776 13.6323C24.4412 13.4727 24.856 12.9576 24.7884 12.488C24.7252 12.0184 24.2157 11.7676 23.6521 11.9226L21.2805 12.5928C20.7124 12.757 20.3021 13.2721 20.3652 13.7417ZM33.7474 40.8915C33.558 40.3763 32.9313 40.0982 32.3496 40.276L29.9149 41.01C29.3333 41.1878 29.0131 41.7486 29.2025 42.2638C29.3919 42.779 30.0186 43.0571 30.6002 42.8838L33.035 42.1498C33.6121 41.972 33.9322 41.4067 33.7474 40.8915ZM10.2069 20.7264C10.6893 20.2431 10.6352 19.7142 10.0851 19.5455L7.80368 18.8434C7.2536 18.6747 6.86134 19.0668 6.92897 19.7188L7.20401 22.4178C7.27164 23.0698 7.71801 23.2065 8.20046 22.7233L10.2069 20.7264C10.6893 20.2431 10.6352 19.7142 10.0851 19.5455L7.80368 18.8434C7.2536 18.6747 6.86134 19.0668 6.92897 19.7188L7.20401 22.4178C7.27164 23.0698 7.71801 23.2065 8.20046 22.7233L10.2069 20.7264ZM28.1294 19.3586C28.5577 18.8936 28.4135 18.3875 27.8093 18.2371L25.3069 17.6033C24.7027 17.4483 24.351 17.8313 24.5269 18.4468L25.2528 21.009C25.4241 21.6245 25.9201 21.7522 26.3484 21.2871L28.1294 19.3586C28.5577 18.8936 28.4135 18.3875 27.8093 18.2371L25.3069 17.6033C24.7027 17.4483 24.351 17.8313 24.5269 18.4468L25.2528 21.009C25.4241 21.6245 25.9201 21.7522 26.3484 21.2871L28.1294 19.3586ZM28.463 11.7266C28.8688 11.4029 28.8373 11.0838 28.3864 11.0199L26.5333 10.7464C26.0869 10.678 25.7533 10.947 25.7938 11.3345L25.9652 12.9484C26.0057 13.336 26.371 13.3907 26.7768 13.067L28.463 11.7266C28.8688 11.4029 28.8373 11.0838 28.3864 11.0199L26.5333 10.7464C26.0869 10.678 25.7533 10.947 25.7938 11.3345L25.9652 12.9484C26.0057 13.336 26.371 13.3907 26.7768 13.067L28.463 11.7266ZM16.2171 9.77528C16.5012 9.57011 16.5282 9.36951 16.2757 9.32392L15.2387 9.14611C14.9907 9.10508 14.7563 9.26921 14.7247 9.51996L14.5849 10.5458C14.5489 10.792 14.7563 10.8284 15.0403 10.6233L16.2171 9.77528C16.5012 9.57011 16.5282 9.36951 16.2757 9.32392L15.2387 9.14611C14.9907 9.10508 14.7563 9.26921 14.7247 9.51996L14.5849 10.5458C14.5489 10.792 14.7563 10.8284 15.0403 10.6233L16.2171 9.77528ZM11.7759 40.2486C12.2043 39.7836 12.0645 39.2776 11.4603 39.1271L8.95794 38.4934C8.35375 38.3384 8.00207 38.7213 8.17791 39.3368L8.89932 41.9036C9.07516 42.5191 9.56662 42.6468 9.99496 42.1817L11.7759 40.2486C12.2043 39.7836 12.0645 39.2776 11.4603 39.1271L8.95794 38.4934C8.35375 38.3384 8.00207 38.7213 8.17791 39.3368L8.89932 41.9036C9.07516 42.5191 9.56662 42.6468 9.99496 42.1817L11.7759 40.2486ZM25.8074 44.1011C26.3078 43.5495 26.1185 42.9522 25.3835 42.7744L22.3446 42.0313C21.6097 41.8535 21.2039 42.3048 21.4338 43.0343L22.3987 46.0661C22.6286 46.7956 23.2283 46.9415 23.7288 46.3898L25.8074 44.1011C26.3078 43.5495 26.1185 42.9522 25.3835 42.7744L22.3446 42.0313C21.6097 41.8535 21.2039 42.3048 21.4338 43.0343L22.3987 46.0661C22.6286 46.7956 23.2283 46.9415 23.7288 46.3898L25.8074 44.1011ZM38.4952 24.1731C38.8964 23.7354 38.7431 23.2567 38.157 23.1154L35.7358 22.5227C35.1496 22.3813 34.825 22.7415 35.0098 23.3205L35.7809 25.7369C35.9657 26.3204 36.4436 26.4344 36.8404 25.9967L38.4952 24.1731C38.8964 23.7354 38.7431 23.2567 38.157 23.1154L35.7358 22.5227C35.1496 22.3813 34.825 22.7415 35.0098 23.3205L35.7809 25.7369C35.9657 26.3204 36.4436 26.4344 36.8404 25.9967L38.4952 24.1731ZM53.248 18.1094C53.5366 17.6763 53.3607 17.2842 52.8512 17.2386L50.7456 17.0562C50.2361 17.0152 50.0016 17.3708 50.2181 17.845L51.1198 19.8282C51.3363 20.3069 51.7511 20.3434 52.0441 19.9103L53.248 18.1094C53.5366 17.6763 53.3607 17.2842 52.8512 17.2386L50.7456 17.0562C50.2361 17.0152 50.0016 17.3708 50.2181 17.845L51.1198 19.8282C51.3363 20.3069 51.7511 20.3434 52.0441 19.9103L53.248 18.1094ZM47.4902 32.9267C47.8374 32.5391 47.7112 32.1288 47.2152 32.0103L45.1502 31.5224C44.6542 31.4039 44.3701 31.723 44.5234 32.2245L45.1457 34.3172C45.299 34.8187 45.7002 34.9144 46.0474 34.5315L47.4902 32.9267C47.8374 32.5391 47.7112 32.1288 47.2152 32.0103L45.1502 31.5224C44.6542 31.4039 44.3701 31.723 44.5234 32.2245L45.1457 34.3172C45.299 34.8187 45.7002 34.9144 46.0474 34.5315L47.4902 32.9267Z" fill="url(#paint0_linear_407_10253)"/>
<path d="M74.8759 24.1036L80.235 38.2487H78.4546L77.0744 34.4414H70.9375L69.5572 38.2487H67.7768L73.118 24.1036H74.8759ZM71.3556 33.0888H76.6383L73.9992 25.8371L71.3556 33.0888Z" fill="#003865"/>
<path d="M83.7148 23.6649V30.2985L83.6564 33.3667L85.9583 30.4373L88.1163 27.8887H90.2159L85.9943 32.7083L90.153 38.2489H88.2512L85.0321 33.9042L83.7103 35.3599V38.2489H82.0513V23.6649H83.7148Z" fill="#003865"/>
<path d="M95.7505 27.6915C98.2907 27.6915 99.7518 28.7262 99.7518 31.0598V36.381C99.7518 36.7393 100.013 36.82 100.314 36.82C100.512 36.82 100.876 36.7797 101.092 36.7617V38.0383C100.993 38.0965 100.134 38.2578 99.6304 38.2578C98.9516 38.2578 98.3311 37.9577 98.3311 36.9633V36.6453C97.6522 37.9621 96.29 38.4593 94.8693 38.4593C92.7292 38.4593 91.0118 37.344 91.0297 35.091C91.0297 32.9007 93.0484 31.9243 95.4313 31.9243C96.5507 31.9243 97.8501 32.1438 98.1917 32.202V31.2838C98.1917 29.51 97.0498 29.0711 95.4942 29.0711C94.5725 29.0711 93.2148 29.2503 92.374 29.4877L92.0323 28.3141C92.972 27.9871 94.3522 27.6915 95.7505 27.6915ZM95.5931 33.2098C94.3118 33.2098 92.5539 33.4472 92.5539 35.0821C92.5539 36.4348 93.7947 37.1156 95.0356 37.1156C96.7171 37.1156 98.1962 35.8794 98.1962 34.4863V33.5099C97.931 33.4293 96.8115 33.2098 95.5931 33.2098Z" fill="#003865"/>
<path d="M112.889 23.6649V38.2489H111.608L111.387 36.3543C110.609 37.6487 109.148 38.446 107.53 38.446C104.531 38.446 102.571 36.0542 102.571 33.0666C102.571 30.2761 104.49 27.6872 107.53 27.6872C108.91 27.6872 110.308 28.265 111.23 29.5818V23.6649H112.889ZM104.248 33.0711C104.248 35.342 105.785 36.9948 107.808 36.9948C109.886 36.9948 111.387 35.2793 111.387 33.0711C111.387 30.8629 109.868 29.1474 107.808 29.1474C105.749 29.1429 104.248 30.8181 104.248 33.0711Z" fill="#003865"/>
<path d="M120.505 27.6915C123.585 27.6915 125.266 30.2625 125.266 32.9097C125.266 33.4069 125.208 33.7473 125.208 33.7473H117.111C117.25 35.7181 118.81 36.9946 120.829 36.9946C121.93 36.9946 123.05 36.6945 123.967 36.2959L124.529 37.5501C123.67 37.989 122.268 38.4459 120.788 38.4459C117.628 38.4459 115.389 36.0764 115.389 33.1068C115.384 30.1013 117.524 27.6915 120.505 27.6915ZM123.706 32.4707C123.666 30.818 122.686 29.1428 120.609 29.1428C118.707 29.1428 117.291 30.5582 117.111 32.4707H123.706Z" fill="#003865"/>
<path d="M128.903 27.8886L129.182 29.5638C129.704 28.2693 131.16 27.6915 132.262 27.6915C133.84 27.6915 135.022 28.6097 135.463 29.8012C135.922 28.6635 137.365 27.6915 138.741 27.6915C141.321 27.6915 142.58 29.1248 142.58 31.6959V38.2488H140.921V31.6555C140.921 30.1819 140.08 29.2637 138.561 29.2637C136.96 29.2637 135.922 30.5179 135.922 32.0721V38.2488H134.281V31.5749C134.281 30.1595 133.323 29.2637 131.92 29.2637C130.342 29.2637 129.299 30.5402 129.299 32.0542V38.2488H127.64V27.8886H128.903Z" fill="#003865"/>
<path d="M147.557 27.8896V38.2498H145.898V29.3632L144.819 29.0452V27.8896H147.557ZM147.638 25.0991C147.638 25.7172 147.116 26.2144 146.518 26.2144C145.898 26.2144 145.439 25.7172 145.439 25.117C145.439 24.5213 145.898 24.0197 146.518 24.0197C147.121 24.0241 147.638 24.5213 147.638 25.0991Z" fill="#003865"/>
<path d="M77.362 11.9343V13.5289H74.7095V20.5298H72.9965V13.5289H70.3349V11.9343H77.362Z" fill="#003865"/>
<path d="M79.974 14.1428V17.8873C79.974 18.6353 80.3562 19.0295 81.1834 19.0295C81.8623 19.0295 82.4153 18.6846 82.4153 17.9097V14.1383H84.1418V20.5255H82.8245L82.6132 19.7999C82.195 20.3508 81.5881 20.6464 80.7878 20.6464C79.1243 20.6464 78.2746 19.6745 78.2746 17.9679V14.1338L79.974 14.1428ZM79.6279 13.2828C79.1468 13.2828 78.7781 12.9379 78.7781 12.4586C78.7781 11.9793 79.1873 11.6121 79.6279 11.6121C80.1719 11.6121 80.527 11.957 80.527 12.4586C80.5315 12.9424 80.1719 13.2828 79.6279 13.2828ZM82.5008 13.2828C82.0197 13.2828 81.651 12.9379 81.651 12.4586C81.651 11.9793 82.0557 11.6121 82.5008 11.6121C83.0448 11.6121 83.3999 11.957 83.3999 12.4586C83.4044 12.9424 83.0448 13.2828 82.5008 13.2828Z" fill="#003865"/>
<path d="M87.0237 14.2058L87.244 15.2136C87.6397 14.4029 88.305 14.1431 89.438 14.1431V15.8854C89.3661 15.8854 89.3031 15.8854 89.2267 15.8854C88.1432 15.8854 87.3654 16.302 87.3654 17.6771V20.5258H85.6659V14.2013H87.0237V14.2058Z" fill="#003865"/>
<path d="M92.1536 11.5405V15.1283L92.1041 16.8841L93.2146 15.3612L94.1992 14.1429H96.3438L93.7181 17.1663L96.1954 20.5301H94.2487L92.747 18.3801L92.1536 19.0072V20.5301H90.4631V11.5405H92.1536Z" fill="#003865"/>
<path d="M106.608 11.9343V13.5289H103.955V20.5298H102.243V13.5289H99.5809V11.9343H106.608Z" fill="#003865"/>
<path d="M109.503 14.0217C111.486 14.0217 112.448 15.5581 112.448 17.2512C112.448 17.6812 112.385 17.9857 112.385 17.9857H108.083C108.155 18.895 108.946 19.2399 109.71 19.2399C110.439 19.2399 111.104 19.0428 111.522 18.8592L112.089 20.0999C111.45 20.4672 110.537 20.6508 109.674 20.6508C107.736 20.6508 106.32 19.3474 106.32 17.3945C106.325 15.4326 107.606 14.0217 109.503 14.0217ZM110.848 16.8077C110.812 16.109 110.542 15.4954 109.602 15.4954C108.802 15.4954 108.222 15.9477 108.06 16.8077H110.848Z" fill="#003865"/>
<path d="M115.285 11.5405V18.8012C115.285 18.9624 115.37 19.0207 115.505 19.0207C115.676 19.0207 115.838 19.0072 116.099 18.9848V20.3241C116.049 20.3599 115.384 20.5346 114.867 20.5346C114.017 20.5346 113.595 19.9837 113.595 19.2312V11.5405H115.285Z" fill="#003865"/>
<path d="M120.028 14.0217C122.011 14.0217 122.973 15.5581 122.973 17.2512C122.973 17.6812 122.91 17.9857 122.91 17.9857H118.608C118.679 18.895 119.471 19.2399 120.235 19.2399C120.963 19.2399 121.629 19.0428 122.047 18.8592L122.613 20.0999C121.975 20.4672 121.062 20.6508 120.199 20.6508C118.261 20.6508 116.845 19.3474 116.845 17.3945C116.85 15.4326 118.131 14.0217 120.028 14.0217ZM121.373 16.8077C121.337 16.109 121.067 15.4954 120.127 15.4954C119.327 15.4954 118.747 15.9477 118.585 16.8077H121.373Z" fill="#003865"/>
<path d="M125.797 11.5405V15.1283L125.747 16.8841L126.858 15.3612L127.842 14.1429H129.987L127.361 17.1663L129.839 20.5301H127.892L126.39 18.3801L125.797 19.0072V20.5301H124.106V11.5405H125.797Z" fill="#003865"/>
<path d="M133.413 14.0217C135.261 14.0217 136.753 15.361 136.753 17.3363C136.753 19.3026 135.247 20.6508 133.413 20.6508C131.565 20.6508 130.072 19.2981 130.072 17.3363C130.072 15.3744 131.551 14.0217 133.413 14.0217ZM131.776 17.3363C131.776 18.3933 132.442 19.1772 133.417 19.1772C134.352 19.1772 135.058 18.3889 135.058 17.3363C135.058 16.2434 134.366 15.4954 133.417 15.4954C132.442 15.4954 131.776 16.2434 131.776 17.3363Z" fill="#003865"/>
<path d="M139.28 14.1432L139.55 14.9763V14.9897C139.82 14.4388 140.611 14.0178 141.299 14.0178C142 14.0178 142.827 14.4612 143.124 15.1599C143.443 14.5329 144.136 14.0178 145.197 14.0178C146.514 14.0178 147.553 14.8285 147.553 16.6828V20.5259H145.826V16.7187C145.826 16.1901 145.565 15.6258 144.792 15.6258C143.965 15.6258 143.61 16.2752 143.61 16.9919V20.5304H141.91V16.638C141.91 16.1946 141.64 15.6302 140.885 15.6302C140.058 15.6302 139.689 16.2797 139.689 16.9829V20.5304H137.963V14.1432H139.28Z" fill="#003865"/>
<defs>
<linearGradient id="paint0_linear_407_10253" x1="66.4508" y1="7.79763" x2="0.662975" y2="39.879" gradientUnits="userSpaceOnUse">
<stop offset="0.1649" stop-color="#70C056"/>
<stop offset="0.2008" stop-color="#67BD73"/>
<stop offset="0.2746" stop-color="#52B9A2"/>
<stop offset="0.3359" stop-color="#3AB8C4"/>
<stop offset="0.3815" stop-color="#20B7D8"/>
<stop offset="0.4063" stop-color="#0CB6E0"/>
<stop offset="0.4264" stop-color="#1BB1DD"/>
<stop offset="0.4591" stop-color="#31A4D4"/>
<stop offset="0.5003" stop-color="#458FC6"/>
<stop offset="0.5483" stop-color="#5572B3"/>
<stop offset="0.6016" stop-color="#604C9D"/>
<stop offset="0.6182" stop-color="#633D97"/>
<stop offset="0.6281" stop-color="#753B8A"/>
<stop offset="0.647" stop-color="#8E3978"/>
<stop offset="0.6677" stop-color="#A33667"/>
<stop offset="0.6898" stop-color="#B63258"/>
<stop offset="0.7136" stop-color="#C62E4B"/>
<stop offset="0.7399" stop-color="#D32A3F"/>
<stop offset="0.7695" stop-color="#DD2635"/>
<stop offset="0.8043" stop-color="#E3242E"/>
<stop offset="0.8494" stop-color="#E7222A"/>
<stop offset="0.9422" stop-color="#E82129"/>
</linearGradient>
</defs>
</svg>
