<svg width="151" height="50" viewBox="0 0 151 50" fill="none" xmlns="http://www.w3.org/2000/svg">
<g clip-path="url(#clip0_407_10212)">
<path d="M38.2432 18.5574L33.0509 21.5382V15.5767L38.2432 18.5574Z" fill="#003864"/>
<path d="M33.9163 36.154L31.8009 37.404L30.8394 37.8847L30.2625 38.2693V34.0386L31.8009 35.0001L33.9163 36.154Z" fill="white"/>
<path d="M12.6663 35.8653L12.0893 36.1538L9.10856 37.8845V33.8461L10.0701 34.3268L12.0893 35.5768L12.2816 35.673L12.6663 35.8653Z" fill="#E63323"/>
<path d="M33.9163 36.154L31.8009 37.404L30.8394 37.8847L30.2625 38.2693V34.0386L31.8009 35.0001L33.9163 36.154Z" fill="#0090D7"/>
<path d="M37.9548 26.7304L34.3009 28.9419L33.4356 29.4227L32.6663 29.9035L31.8971 30.2881H31.8009L27.5702 32.7881L26.5125 33.365V33.4612L24.0125 34.8073L20.4548 36.9227L19.3971 37.4996V31.1535L20.6471 30.4804L21.6086 29.9035L22.6663 29.3266L20.4548 27.9804L19.7817 27.5958L19.3971 27.4035V15.9612V16.0573L19.7817 16.2496L23.0509 18.1727L24.0125 18.7496L24.3009 18.8458L24.5894 19.0381L26.5125 20.0958L28.0509 21.0573L29.6856 21.9227L31.8009 23.1727L31.9932 23.2689L33.4356 24.1343L34.3009 24.615L37.9548 26.7304Z" fill="#49BED8"/>
<path d="M19.3971 27.4039V31.1539L18.1471 31.9231L14.3009 34.1347V24.5193L18.1471 26.7308L18.5317 26.9231L19.3971 27.4039Z" fill="#003864"/>
<path d="M31.7048 42.7883L26.5125 45.7691L24.0125 47.2114L23.2433 47.6921L22.7625 47.8844V37.6921L24.0125 38.3652L24.7817 38.846L26.5125 39.8075L29.1086 41.2498L31.7048 42.7883Z" fill="#0090D7"/>
<path d="M45.6471 36.4424L39.3971 40.0962L37.2817 41.2501L36.5125 41.7309V31.1539L39.0125 32.5962L39.3009 32.7885L45.6471 36.4424Z" fill="#49BED8"/>
<path d="M18.2432 42.4035L17.6663 42.7882L13.3394 45.192V39.5189L14.3009 40.0958L17.6663 42.0189L17.7624 42.1151L18.2432 42.4035Z" fill="#49BED8"/>
<path d="M34.1086 49.0383L34.3009 48.9421L38.4355 46.5383L38.5316 46.4421L37.9547 46.1537L37.1855 45.7691L35.2624 44.6152L34.3009 44.0383L34.1086 43.9421V49.0383Z" fill="#E63323"/>
<path d="M28.4356 6.25004C28.0509 6.05773 27.7625 5.76927 27.3779 5.57696C26.6086 5.19235 25.7432 5.09619 24.7817 5.09619C23.9163 5.19235 23.0509 5.48081 22.3779 5.96158C21.7048 6.44234 21.1279 7.11542 20.8394 7.88465L20.9356 7.98081C21.224 7.69235 21.5125 7.50004 21.8009 7.30773C21.9932 7.21158 22.0894 7.11542 22.2817 7.01927C22.474 6.92311 22.5702 6.82696 22.7625 6.73081C23.4356 6.44235 24.2048 6.25004 24.974 6.15388C25.1663 6.15388 25.3586 6.15388 25.5509 6.15388C25.7432 6.15388 25.9356 6.15388 26.1279 6.15388L26.6086 6.25004C26.8009 6.25004 26.9932 6.34619 27.1856 6.34619L27.474 6.44234C27.5702 6.44234 27.6663 6.5385 27.7625 6.5385L28.2432 6.73081C28.6279 6.92311 28.9163 7.11542 29.3009 7.21158L29.3971 7.11542C29.1086 6.82696 28.8202 6.44235 28.4356 6.25004Z" fill="#003864"/>
<path d="M40.6471 12.3075C40.5509 12.2113 40.4548 12.019 40.3586 11.9229C39.974 11.4421 39.5894 11.0575 39.0125 10.6729C38.9163 10.5767 38.8202 10.5767 38.724 10.4806C37.9548 9.9998 37.0894 9.8075 36.224 9.8075C35.3586 9.8075 34.4932 9.9998 33.8202 10.4806V10.5767C34.2048 10.5767 34.5894 10.5767 34.974 10.5767C35.1663 10.5767 35.3586 10.5767 35.5509 10.6729L36.1279 10.769H36.224C36.8971 10.9613 37.5702 11.1536 38.2432 11.5383C38.4356 11.6344 38.6279 11.8267 38.8202 11.9229C39.2048 12.2113 39.5894 12.596 39.974 12.9806C40.2625 13.269 40.4548 13.5575 40.6471 13.846C40.8394 14.1344 41.0317 14.519 41.224 14.8075H41.3202C41.3202 14.4229 41.3202 13.9421 41.224 13.5575C40.9356 13.0767 40.8394 12.6921 40.6471 12.3075Z" fill="#003864"/>
<path d="M57.9548 18.6536C58.8045 18.6536 59.4932 17.9648 59.4932 17.1151C59.4932 16.2655 58.8045 15.5767 57.9548 15.5767C57.1051 15.5767 56.4163 16.2655 56.4163 17.1151C56.4163 17.9648 57.1051 18.6536 57.9548 18.6536Z" fill="#003864"/>
<path d="M59.4932 27.3077C59.4932 26.4424 58.8202 25.7693 57.9548 25.7693C57.0894 25.7693 56.4163 26.4424 56.4163 27.3077C56.4163 28.1731 57.0894 28.8462 57.9548 28.8462C58.8202 28.8462 59.4932 28.1731 59.4932 27.3077Z" fill="#003864"/>
<path d="M57.9548 39.3267C58.8045 39.3267 59.4932 38.6379 59.4932 37.7882C59.4932 36.9385 58.8045 36.2498 57.9548 36.2498C57.1051 36.2498 56.4163 36.9385 56.4163 37.7882C56.4163 38.6379 57.1051 39.3267 57.9548 39.3267Z" fill="#003864"/>
<path d="M64.1086 10.5769C64.1086 10.5769 64.1086 10.3846 64.1086 10.1923C64.1086 9.90382 64.0125 9.61536 63.9163 9.23075C63.8202 8.84613 63.5317 8.55767 63.3394 8.26921C63.2432 8.17305 63.1471 8.0769 63.0509 8.0769C62.7625 7.88459 62.474 7.69228 62.1856 7.59613C62.1856 7.59613 62.1856 7.59613 62.0894 7.59613C61.6086 7.40382 61.1279 7.21151 60.6471 7.01921C59.4933 6.63459 58.3394 6.34613 57.0894 6.15382C55.9356 5.96151 54.7817 5.76921 53.5317 5.67305C48.8202 5.28844 44.1086 5.28844 39.3971 5.5769C37.6663 5.67305 35.9356 5.86536 34.2048 6.24998H34.1086C34.0125 6.24998 33.9163 6.24998 33.724 6.24998C33.6279 5.96151 33.4356 5.67305 33.2432 5.48074C32.7625 4.71151 32.1856 4.03844 31.6086 3.46151C31.1279 3.0769 30.6471 2.69228 30.1663 2.40382C28.4356 1.34613 26.224 0.86536 24.2048 1.05767C23.1471 1.15382 22.1856 1.44228 21.224 1.92305C21.1279 1.92305 20.9356 1.92305 20.8394 2.01921C20.0702 2.40382 19.3009 2.98074 18.6279 3.55767C17.8586 4.23074 17.2817 5.09613 16.7048 6.05767C16.4163 6.63459 16.1279 7.30767 15.9356 7.98074C15.1663 7.88459 14.3971 7.98074 13.6279 8.0769C12.474 8.36536 11.5125 8.84613 10.6471 9.61536C9.30094 10.7692 8.53171 12.5 8.43555 14.1346C8.43555 14.6154 8.43555 15.0961 8.53171 15.4807C8.72402 16.5384 9.10863 17.5 9.78171 18.3654C10.4548 19.1346 11.224 19.8077 12.1856 20.1923C12.6663 20.4807 13.2432 20.5769 13.724 20.7692C13.1471 20.6731 12.6663 20.3846 12.1856 20.0961C11.3202 19.6154 10.6471 18.8461 10.2625 17.9807C9.78171 17.1154 9.5894 16.25 9.5894 15.3846C9.5894 15.2884 9.5894 15.1923 9.5894 15.0961C9.5894 14.3269 9.78171 13.4615 10.1663 12.7884C10.5509 12.0192 11.1279 11.3461 11.8009 10.8654C13.1471 9.80767 14.974 9.61536 16.5125 10.1923L17.6663 10.5769L17.9548 9.3269C18.1471 7.69228 18.9163 6.24998 20.1663 5.09613C20.7432 4.51921 21.4163 4.13459 22.1856 3.74998C22.9548 3.46151 23.724 3.17305 24.4932 3.0769C26.1279 2.88459 27.7625 3.26921 29.1086 4.13459C29.8779 4.61536 30.5509 5.19228 31.0317 5.86536C31.224 6.05767 31.3202 6.24998 31.5125 6.53844C31.8009 6.92305 31.9932 7.40382 32.1856 7.78844L32.5702 8.65382L33.4356 8.36536C34.5894 7.98074 35.8394 7.88459 36.9932 8.17305C38.1471 8.36536 39.3971 8.84613 40.3586 9.61536C40.7432 9.90382 41.224 10.2884 41.5125 10.6731C41.8971 11.0577 42.1856 11.5384 42.474 12.0192C42.5702 12.2115 42.6663 12.4038 42.7625 12.5961C42.8586 12.6923 42.8586 12.7884 42.9548 12.9807C43.4356 14.0384 43.6279 15.2884 43.6279 16.4423C43.8202 15.0961 43.724 13.75 43.2432 12.4038C43.2432 12.3077 43.1471 12.2115 43.1471 12.1154C42.9548 11.6346 42.7625 11.25 42.5702 10.7692C42.1856 10.0961 41.7048 9.42305 41.0317 8.84613C40.0702 7.88459 38.9163 7.21151 37.6663 6.73074C38.2432 6.73074 38.9163 6.63459 39.4932 6.63459C44.1086 6.44228 48.8202 6.53844 53.3394 7.11536C55.6471 7.40382 57.9548 7.78844 60.0702 8.46151C60.6471 8.65382 61.224 8.84613 61.6086 9.13459C61.8009 9.23074 61.9933 9.42305 62.1856 9.51921C62.2817 9.61536 62.3779 9.71151 62.3779 9.71151C62.3779 9.71151 62.3779 9.80767 62.2817 9.99998C62.1856 10.0961 61.9932 10.2884 61.8009 10.3846C61.4163 10.5769 61.0317 10.7692 60.6471 10.8654C60.5509 10.8654 60.5509 10.8654 60.4548 10.9615H60.3586C60.1663 11.0577 59.8779 11.0577 59.6856 11.1538C59.2048 11.25 58.724 11.4423 58.2433 11.5384C57.8586 11.6346 57.474 11.7307 56.9932 11.7307C55.8394 11.9231 54.6856 12.1154 53.5317 12.2115C53.4356 12.2115 53.4356 12.2115 53.3394 12.2115C52.9548 12.2115 52.5702 12.3077 52.2817 12.3077C51.5125 12.4038 50.8394 12.5 50.0702 12.5C49.0125 12.5961 47.9548 12.6923 46.9932 12.7884C46.8971 12.7884 46.7048 12.7884 46.6086 12.7884C48.3394 12.8846 50.0702 12.9807 51.8009 12.9807C52.3779 12.9807 53.0509 12.9807 53.6279 12.9807C53.724 12.9807 53.9163 12.9807 54.0125 12.9807C54.2048 12.9807 54.3009 12.9807 54.4932 12.9807H54.5894C54.7817 12.9807 55.0702 12.9807 55.2625 12.9807C55.3586 12.9807 55.4548 12.9807 55.6471 12.9807C55.8394 12.9807 55.9356 12.9807 56.1279 12.9807C56.3202 12.9807 56.5125 12.9807 56.8009 12.8846H56.8971C57.1856 12.8846 57.3779 12.7884 57.6663 12.7884C57.7625 12.7884 57.8586 12.7884 57.9548 12.7884C58.1471 12.7884 58.3394 12.6923 58.6279 12.6923C58.724 12.6923 58.8202 12.6923 58.9163 12.6923C59.1086 12.6923 59.3009 12.5961 59.4932 12.5961C59.5894 12.5961 59.7817 12.5961 59.8779 12.5C59.974 12.5 60.0702 12.5 60.1663 12.4038C60.3586 12.4038 60.5509 12.3077 60.8394 12.3077C60.9356 12.3077 61.0317 12.3077 61.0317 12.2115H61.1279C61.224 12.2115 61.3202 12.2115 61.3202 12.1154H61.4163H61.5125C61.6086 12.1154 61.7048 12.0192 61.7048 12.0192C61.8009 12.0192 61.8971 11.9231 61.8971 11.9231C61.9932 11.9231 61.9933 11.8269 62.0894 11.8269H62.1856V20C62.1856 20 62.0894 20.0961 62.0894 20.1923C61.8971 20.3846 61.7048 20.4807 61.4163 20.6731C60.8394 20.9615 60.1663 21.1538 59.4932 21.3461C58.1471 21.7307 56.7048 22.0192 55.2625 22.2115C52.3779 22.5961 49.4932 22.8846 46.6086 23.0769C49.4932 23.2692 52.474 23.2692 55.3586 23.1731C56.8009 23.0769 58.3394 22.9807 59.7817 22.7884C60.5509 22.6923 61.3202 22.5 61.9932 22.2115C62.0894 22.2115 62.0894 22.2115 62.1856 22.1154V30.1923C62.1856 30.1923 62.0894 30.2884 62.0894 30.3846C61.8971 30.5769 61.7048 30.673 61.4163 30.8654C60.8394 31.1538 60.1663 31.3461 59.4932 31.5384C58.1471 31.9231 56.7048 32.2115 55.2625 32.4038C52.3779 32.7884 49.4932 33.0769 46.6086 33.2692C49.4932 33.4615 52.474 33.4615 55.3586 33.3654C56.8009 33.2692 58.3394 33.173 59.7817 32.9807C60.5509 32.8846 61.3202 32.6923 61.9932 32.4038C62.0894 32.4038 62.0894 32.4038 62.1856 32.3077V40.3846C62.1856 40.3846 62.1856 40.3846 62.1856 40.4807C62.1856 40.4807 62.0894 40.5769 61.9932 40.673C61.8009 40.8654 61.6086 40.9615 61.3202 41.1538C60.7432 41.4423 60.0702 41.6346 59.3971 41.8269C58.0509 42.2115 56.6086 42.5 55.1663 42.6923C52.2817 43.0769 49.3971 43.3654 46.5125 43.5577C49.3971 43.75 52.3779 43.75 55.2625 43.6538C56.7048 43.5577 58.2433 43.4615 59.6856 43.2692C60.4548 43.173 61.224 42.9807 61.8971 42.6923C62.2817 42.5 62.6663 42.3077 63.0509 42.0192C63.2433 41.8269 63.4356 41.6346 63.6279 41.4423C63.8202 41.1538 63.9163 40.8654 63.9163 40.4807V30.0961V19.9038L64.1086 10.5769Z" fill="#003864"/>
<path d="M74.5894 19.6155L76.8009 26.5386L79.0125 19.6155H80.9356L77.7625 28.8463H76.0317L72.6663 19.5193L74.5894 19.6155Z" fill="#1C5F9A"/>
<path d="M83.7241 21.8268C85.8395 21.8268 86.8972 23.4614 86.8972 25.2883C86.8972 25.7691 86.801 26.0576 86.801 26.0576H82.1856C82.2818 27.0191 83.1472 27.4037 83.9164 27.4037C84.6856 27.4037 85.4549 27.2114 85.8395 27.0191L86.4164 28.3652C85.7433 28.7499 84.7818 28.9422 83.8202 28.9422C81.7049 28.9422 80.1664 27.4999 80.1664 25.3845C80.2625 23.3652 81.6087 21.8268 83.7241 21.8268ZM85.1664 24.9037C85.1664 24.1345 84.8779 23.4614 83.8202 23.4614C82.9549 23.4614 82.3779 23.9422 82.1856 24.9037H85.1664Z" fill="#1C5F9A"/>
<path d="M89.0125 22.0194L89.2048 23.0771C89.5894 22.2117 90.3586 21.9232 91.6086 21.9232V23.8463C91.5125 23.8463 91.4163 23.8463 91.4163 23.8463C90.2625 23.8463 89.3971 24.3271 89.3971 25.7694V28.8463H87.5702V22.0194H89.0125Z" fill="#1C5F9A"/>
<path d="M94.5894 22.0193V28.8463H92.7625V23.5578L91.9932 23.2693V22.0193H94.5894ZM94.5894 20.0963C94.5894 20.6732 94.1086 21.154 93.5317 21.154C92.9548 21.154 92.5702 20.6732 92.5702 20.0963C92.5702 19.5193 92.9548 19.0386 93.5317 19.0386C94.1086 19.0386 94.5894 19.5193 94.5894 20.0963Z" fill="#1C5F9A"/>
<path d="M101.128 19.6155L103.724 26.154L106.32 19.6155H108.82V28.8463H106.993V22.404L104.589 28.2693H102.955L100.551 22.404V28.8463H98.724V19.5193L101.128 19.6155Z" fill="#1C5F9A"/>
<path d="M113.339 21.8268C115.455 21.8268 116.512 23.4614 116.512 25.2883C116.512 25.7691 116.416 26.0576 116.416 26.0576H111.801C111.897 27.0191 112.762 27.4037 113.532 27.4037C114.301 27.4037 115.07 27.2114 115.455 27.0191L116.032 28.3652C115.359 28.7499 114.397 28.9422 113.436 28.9422C111.32 28.9422 109.782 27.4999 109.782 25.3845C109.878 23.3652 111.224 21.8268 113.339 21.8268ZM114.782 24.9037C114.782 24.1345 114.493 23.4614 113.436 23.4614C112.57 23.4614 111.993 23.9422 111.801 24.9037H114.782Z" fill="#1C5F9A"/>
<path d="M118.628 22.0194L118.82 23.0771C119.205 22.2117 119.974 21.9232 121.224 21.9232V23.8463C121.128 23.8463 121.032 23.8463 121.032 23.8463C119.878 23.8463 119.012 24.3271 119.012 25.7694V28.8463H117.186V22.0194H118.628Z" fill="#1C5F9A"/>
<path d="M123.339 19.1346V22.9808L123.243 24.9039L124.397 23.2693L125.455 21.9231H127.762L124.974 25.1923L127.666 28.8462H125.647L124.012 26.5385L123.339 27.2116V28.8462H121.512V19.1346H123.339Z" fill="#1C5F9A"/>
<path d="M130.839 21.8268C132.955 21.8268 134.012 23.4614 134.012 25.2883C134.012 25.7691 133.916 26.0576 133.916 26.0576H129.301C129.397 27.0191 130.262 27.4037 131.032 27.4037C131.801 27.4037 132.57 27.2114 132.955 27.0191L133.532 28.3652C132.859 28.7499 131.897 28.9422 130.936 28.9422C128.82 28.9422 127.282 27.4999 127.282 25.3845C127.378 23.3652 128.82 21.8268 130.839 21.8268ZM132.282 24.9037C132.282 24.1345 131.993 23.4614 130.936 23.4614C130.07 23.4614 129.493 23.9422 129.301 24.9037H132.282Z" fill="#1C5F9A"/>
<path d="M139.974 22.0194V23.4617L136.224 27.5001V27.5963L138.147 27.5001H139.974V28.8463H134.109V27.5001L137.955 23.3655V23.2694L136.032 23.3655H134.397V21.9232H139.974V22.0194Z" fill="#1C5F9A"/>
<path d="M142.762 22.0193V28.8463H141.032V23.5578L140.262 23.2693V22.0193H142.762ZM142.762 20.0963C142.762 20.6732 142.282 21.154 141.705 21.154C141.128 21.154 140.743 20.6732 140.743 20.0963C140.743 19.5193 141.128 19.0386 141.705 19.0386C142.282 19.0386 142.762 19.5193 142.762 20.0963Z" fill="#1C5F9A"/>
<path d="M74.5894 33.8459L76.0317 38.7498L77.474 33.8459H79.3971L76.8971 40.769H75.1663L72.7625 33.8459H74.5894Z" fill="#1C5F9A"/>
<path d="M82.474 33.6539C84.5894 33.6539 85.6471 35.2885 85.6471 37.1154C85.6471 37.5962 85.5509 37.8846 85.5509 37.8846H80.9356C81.0317 38.8462 81.8971 39.2308 82.6663 39.2308C83.4356 39.2308 84.2048 39.0385 84.5894 38.8462L85.1663 40.1923C84.4933 40.5769 83.5317 40.7693 82.5702 40.7693C80.4548 40.7693 78.9163 39.3269 78.9163 37.2116C79.0125 35.1923 80.4548 33.6539 82.474 33.6539ZM83.9163 36.7308C83.9163 35.9616 83.6279 35.2885 82.5702 35.2885C81.7048 35.2885 81.1279 35.7693 80.9356 36.7308H83.9163Z" fill="#1C5F9A"/>
<path d="M93.051 31.442C94.5895 31.442 95.9356 32.4997 95.9356 33.942C95.9356 35.2881 95.0702 35.8651 94.5895 35.9612C95.4549 36.1535 96.4164 36.8266 96.4164 38.0766C96.4164 39.8074 95.1664 40.6727 93.6279 40.6727H89.301V31.3458L93.051 31.442ZM91.1279 35.2881H93.1472C93.7241 35.2881 94.1087 34.8074 94.1087 34.2304C94.1087 33.6535 93.6279 33.1727 93.051 33.1727H91.1279V35.2881ZM93.6279 39.0381C94.2049 39.0381 94.5895 38.4612 94.5895 37.9804C94.5895 37.4035 94.1087 36.9228 93.4356 36.9228H91.1279V39.0381H93.6279Z" fill="#1C5F9A"/>
<path d="M99.0125 33.8459V37.8844C99.0125 38.6536 99.3971 39.1344 100.359 39.1344C101.128 39.1344 101.705 38.7498 101.705 37.8844V33.8459H103.532V40.769H102.089L101.897 39.9998C101.416 40.5767 100.839 40.9613 99.974 40.9613C98.1471 40.9613 97.2817 39.9036 97.2817 38.0767V33.9421L99.0125 33.8459Z" fill="#1C5F9A"/>
<path d="M106.32 31.0575V38.9421C106.32 39.1344 106.416 39.1344 106.512 39.1344C106.705 39.1344 106.897 39.1344 107.186 39.1344V40.5767C107.089 40.5767 106.416 40.769 105.839 40.769C104.878 40.769 104.493 40.1921 104.493 39.3267V30.9613L106.32 31.0575Z" fill="#1C5F9A"/>
<path d="M109.493 33.8459V37.8844C109.493 38.6536 109.878 39.1344 110.839 39.1344C111.609 39.1344 112.185 38.7498 112.185 37.8844V33.8459H114.012V40.769H112.57L112.378 39.9998C111.897 40.5767 111.32 40.9613 110.455 40.9613C108.628 40.9613 107.762 39.9036 107.762 38.0767V33.9421L109.493 33.8459Z" fill="#1C5F9A"/>
<path d="M117.186 31.827V33.8462H118.628V35.1924H117.186V38.5578C117.186 38.9424 117.378 39.2308 117.859 39.2308C118.051 39.2308 118.339 39.2308 118.628 39.1347L118.916 40.3847C118.532 40.577 118.051 40.6731 117.57 40.6731C115.936 40.6731 115.359 39.9039 115.359 38.1731V35.0962H114.397V34.0385L115.359 33.7501L115.647 31.7308L117.186 31.827Z" fill="#1C5F9A"/>
<path d="M106.032 13.5575C106.032 12.8844 105.647 12.4037 104.878 12.4037C104.109 12.4037 103.532 12.7883 103.436 13.5575H106.032ZM104.878 11.2498C106.512 11.2498 107.474 12.3075 107.474 13.9421C107.474 14.2306 107.474 14.5191 107.474 14.5191H103.532C103.628 15.3844 104.397 15.7691 105.166 15.7691C105.647 15.7691 106.32 15.6729 106.705 15.3844L107.186 16.4421C106.609 16.7306 105.743 16.9229 105.07 16.9229C103.243 16.9229 101.993 15.7691 101.993 14.0383C101.993 12.4037 103.147 11.2498 104.878 11.2498ZM109.974 9.23059V15.3844C109.974 15.6729 110.166 15.8652 110.455 15.8652C110.551 15.8652 110.647 15.8652 110.839 15.8652V16.9229C110.551 17.0191 110.166 17.0191 109.878 17.0191C109.205 17.0191 108.628 16.7306 108.628 15.4806V9.99982L109.974 9.23059ZM115.455 13.5575C115.455 12.8844 115.07 12.4037 114.301 12.4037C113.532 12.4037 112.955 12.7883 112.859 13.5575H115.455ZM114.301 11.2498C115.936 11.2498 116.897 12.3075 116.897 13.9421C116.897 14.2306 116.897 14.5191 116.897 14.5191H112.955C113.051 15.3844 113.82 15.7691 114.589 15.7691C115.07 15.7691 115.743 15.6729 116.128 15.3844L116.609 16.4421C116.032 16.7306 115.166 16.9229 114.493 16.9229C112.666 16.9229 111.416 15.7691 111.416 14.0383C111.416 12.4037 112.57 11.2498 114.301 11.2498ZM90.4548 9.23059V13.846L92.2817 11.4421H94.0125L91.8009 14.0383L93.9163 16.9229H92.2817L90.9356 14.9998L90.3586 15.5767V16.9229H89.1086V10.096L90.4548 9.23059ZM119.301 9.23059V13.846L121.128 11.4421H122.859L120.647 14.0383L122.762 16.9229H121.128L119.782 14.9998L119.205 15.5767V16.9229H117.762V10.096L119.301 9.23059ZM131.32 11.346L131.512 12.1152C131.705 11.6344 132.378 11.2498 133.051 11.2498C133.724 11.2498 134.301 11.6344 134.589 12.2114C134.878 11.6344 135.455 11.2498 136.416 11.2498C137.57 11.2498 138.339 11.9229 138.339 13.5575V16.8267H136.897V13.4614C136.897 12.8844 136.705 12.4037 136.032 12.4037C135.359 12.4037 134.974 12.9806 134.974 13.6537V16.8267H133.532V13.3652C133.532 12.8844 133.339 12.4037 132.666 12.4037C131.993 12.4037 131.609 12.9806 131.609 13.6537V16.8267H130.166V11.346H131.32ZM126.128 10.9614C124.397 10.9614 123.051 12.4037 123.051 14.0383C123.051 15.6729 124.493 17.1152 126.128 17.1152C127.859 17.1152 129.205 15.6729 129.205 14.0383C129.205 12.4037 127.859 10.9614 126.128 10.9614ZM126.128 15.8652C125.166 15.8652 124.397 15.096 124.397 14.1344C124.397 13.1729 125.166 12.4037 126.128 12.4037C127.089 12.4037 127.859 13.1729 127.859 14.1344C127.859 15.096 127.089 15.8652 126.128 15.8652ZM102.666 9.4229V10.6729H100.839V16.8267H99.3971V10.6729H97.5702V9.4229H102.666ZM86.1279 11.346V12.1152C86.5125 11.4421 86.9932 11.2498 87.9548 11.2498V12.6921H87.7625C86.8009 12.6921 86.1279 13.1729 86.1279 14.3267V16.8267H84.6856V11.346H86.1279ZM77.9548 9.4229V10.6729H76.1279V16.8267H74.6856V10.6729H72.7625V9.4229H77.9548ZM82.0894 16.8267L81.8971 16.1537C81.8971 16.2498 81.4163 16.9229 80.4548 16.9229C79.4932 16.9229 78.4356 16.4421 78.4356 14.8075V12.0191H79.8779V14.8075C79.8779 15.4806 80.2625 15.8652 80.7432 15.8652C81.4163 15.8652 81.8009 15.3844 81.8009 14.6152V12.0191H83.2432V16.8267H82.0894ZM78.9163 10.096H80.3586V11.2498H78.9163V10.096ZM81.224 10.096H82.6663V11.2498H81.224V10.096Z" fill="#2599D6"/>
</g>
<defs>
<clipPath id="clip0_407_10212">
<rect width="150" height="50" fill="white" transform="translate(0.646973 -6.10352e-05)"/>
</clipPath>
</defs>
</svg>
