<svg width="155" height="50" viewBox="0 0 155 50" fill="none" xmlns="http://www.w3.org/2000/svg">
<g clip-path="url(#clip0_407_9019)">
<path d="M18.8353 43.3482C18.7503 43.2598 18.7061 43.151 18.7061 43.015C18.7061 42.879 18.7469 42.7701 18.8353 42.6817C18.9203 42.5933 19.0291 42.5525 19.1617 42.5525C19.2944 42.5525 19.4032 42.5967 19.4882 42.6817C19.5732 42.7701 19.6174 42.879 19.6174 43.015C19.6174 43.151 19.5732 43.2598 19.4882 43.3482C19.4032 43.4367 19.2944 43.4775 19.1617 43.4775C19.0291 43.4775 18.9203 43.4333 18.8353 43.3482ZM18.7435 43.9298H19.5766V48.5071H18.7435V43.9298Z" fill="#05BEC8"/>
<path d="M21.6816 43.9297H22.5148V47.7861H24.8579V48.507H21.6816V43.9297Z" fill="#05BEC8"/>
<path d="M29.772 47.7964V48.5105H26.4121V43.9332H29.6836V44.6474H27.2453V45.8376H29.4081V46.5381H27.2453V47.7998H29.7754L29.772 47.7964Z" fill="#05BEC8"/>
<path d="M32.5061 44.6508H31.02V43.9332H34.822V44.6508H33.3359V48.5071H32.5027V44.6508H32.5061Z" fill="#05BEC8"/>
<path d="M36.4373 43.3482C36.3523 43.2598 36.3081 43.151 36.3081 43.015C36.3081 42.879 36.3489 42.7701 36.4373 42.6817C36.5223 42.5933 36.6312 42.5525 36.7638 42.5525C36.8964 42.5525 37.0052 42.5967 37.0903 42.6817C37.1753 42.7701 37.2195 42.879 37.2195 43.015C37.2195 43.151 37.1753 43.2598 37.0903 43.3482C37.0052 43.4367 36.8964 43.4775 36.7638 43.4775C36.6312 43.4775 36.5223 43.4333 36.4373 43.3482ZM36.3489 43.9298H37.1821V48.5071H36.3489V43.9298Z" fill="#05BEC8"/>
<path d="M39.6714 48.422C39.3483 48.3234 39.0933 48.1874 38.9062 48.0241L39.1953 47.3644C39.3789 47.514 39.6034 47.6331 39.872 47.7283C40.1373 47.8235 40.4059 47.8677 40.6746 47.8677C41.0079 47.8677 41.2561 47.8133 41.4193 47.7045C41.5826 47.5956 41.6642 47.4528 41.6642 47.2726C41.6642 47.1434 41.6166 47.0345 41.5282 46.9495C41.4363 46.8645 41.3207 46.7999 41.1779 46.7489C41.0385 46.7013 40.8446 46.6469 40.6032 46.5856C40.2631 46.504 39.9843 46.419 39.7734 46.3374C39.5626 46.2558 39.3823 46.1266 39.2293 45.9497C39.0763 45.7729 39.0015 45.5348 39.0015 45.2322C39.0015 44.9805 39.0695 44.7493 39.2021 44.5418C39.3381 44.3344 39.5388 44.1712 39.8108 44.0487C40.0829 43.9263 40.4127 43.8651 40.8072 43.8651C41.0793 43.8651 41.3479 43.8991 41.6132 43.9705C41.8784 44.0419 42.1063 44.1406 42.2967 44.2698L42.0349 44.9295C41.8376 44.8105 41.6336 44.7221 41.4193 44.6609C41.2051 44.5997 40.9977 44.569 40.797 44.569C40.4672 44.569 40.2257 44.6269 40.0625 44.7391C39.9026 44.8513 39.821 45.0043 39.821 45.1914C39.821 45.3206 39.8652 45.4294 39.9571 45.511C40.0489 45.5926 40.1645 45.6607 40.3073 45.7083C40.4468 45.7559 40.6406 45.8103 40.882 45.8715C41.2153 45.9497 41.4874 46.0313 41.7016 46.1164C41.9158 46.2014 42.0961 46.3306 42.2491 46.504C42.4021 46.6775 42.477 46.9155 42.477 47.2114C42.477 47.463 42.4089 47.6943 42.2763 47.8983C42.1403 48.1023 41.9396 48.2656 41.6642 48.388C41.3921 48.5104 41.0589 48.5716 40.6644 48.5716C40.3175 48.5716 39.9843 48.5206 39.6612 48.422H39.6714ZM39.9843 49.8605L40.1305 49.4762C40.2631 49.5476 40.4093 49.5816 40.5658 49.5816C40.7936 49.5816 40.9058 49.5034 40.9058 49.347C40.9058 49.2824 40.8786 49.228 40.8242 49.1906C40.7698 49.1497 40.6848 49.1327 40.5692 49.1327H40.3719L40.5454 48.4662H40.9807L40.8922 48.8335C41.0759 48.8539 41.2153 48.9151 41.3071 49.0137C41.4023 49.1123 41.4465 49.2348 41.4465 49.3844C41.4465 49.5714 41.3683 49.7211 41.2085 49.8367C41.0487 49.9523 40.8378 50.0067 40.576 50.0067C40.3447 50.0067 40.1475 49.9625 39.9877 49.8707L39.9843 49.8605Z" fill="#05BEC8"/>
<path d="M44.2996 43.3482C44.2146 43.2598 44.1704 43.151 44.1704 43.015C44.1704 42.879 44.2112 42.7701 44.2996 42.6817C44.3847 42.5933 44.4935 42.5525 44.6261 42.5525C44.7587 42.5525 44.8675 42.5967 44.9526 42.6817C45.0376 42.7701 45.0818 42.879 45.0818 43.015C45.0818 43.151 45.0376 43.2598 44.9526 43.3482C44.8675 43.4367 44.7587 43.4775 44.6261 43.4775C44.4935 43.4775 44.3847 43.4333 44.2996 43.3482ZM44.2078 43.9298H45.041V48.5071H44.2078V43.9298Z" fill="#05BEC8"/>
<path d="M51.2608 48.507L51.254 45.4737L49.7815 47.9833H49.4108L47.9384 45.5111V48.507H47.146V43.9297H47.8295L49.6081 46.9631L51.356 43.9297H52.0396L52.0464 48.507H51.2574H51.2608Z" fill="#05BEC8"/>
<path d="M54.1548 43.9297H56.1136C56.5931 43.9297 57.0147 44.025 57.3888 44.2154C57.7629 44.4058 58.0485 44.6745 58.2526 45.0214C58.4566 45.3682 58.5586 45.7695 58.5586 46.2218C58.5586 46.6741 58.4566 47.0754 58.2526 47.4222C58.0485 47.7691 57.7595 48.0378 57.3888 48.2248C57.0181 48.4118 56.5931 48.5104 56.1136 48.5104H54.1548V43.9332V43.9297ZM56.0762 47.7895C56.406 47.7895 56.6951 47.7249 56.9433 47.5957C57.1916 47.4664 57.3854 47.2828 57.518 47.0448C57.6541 46.8067 57.7187 46.5313 57.7187 46.2184C57.7187 45.9055 57.6507 45.6301 57.518 45.392C57.382 45.154 57.1916 44.9704 56.9433 44.8445C56.6951 44.7153 56.406 44.6507 56.0762 44.6507H54.9879V47.7895H56.0762Z" fill="#05BEC8"/>
<path d="M63.7002 47.7964V48.5105H60.3403V43.9332H63.6118V44.6474H61.1735V45.8376H63.3363V46.5381H61.1735V47.7998H63.7036L63.7002 47.7964Z" fill="#05BEC8"/>
<path d="M69.7295 46.5925L69.0187 47.3373V48.5071H68.1855V43.9298H69.0187V46.2763L71.2325 43.9298H72.1677L70.2872 45.977L72.2834 48.5071H71.3108L69.7295 46.5925Z" fill="#05BEC8"/>
<path d="M76.4629 47.4494H74.2219L73.7798 48.507H72.9229L74.9394 43.9297H75.759L77.7824 48.507H76.9118L76.4629 47.4494ZM76.1875 46.7829L75.3441 44.7833L74.5042 46.7829H76.1875Z" fill="#05BEC8"/>
<path d="M79.248 43.9297H80.0812V47.7861H82.4243V48.507H79.248V43.9297Z" fill="#05BEC8"/>
<path d="M88.0967 48.507L88.0899 45.4737L86.6175 47.9833H86.2468L84.7743 45.5111V48.507H83.9819V43.9297H84.6655L86.444 46.9631L88.192 43.9297H88.8755L88.8823 48.507H88.0933H88.0967Z" fill="#05BEC8"/>
<path d="M93.8946 47.4494H91.6535L91.2115 48.507H90.3545L92.3711 43.9297H93.1906L95.214 48.507H94.3435L93.8946 47.4494ZM93.6191 46.7829L92.7758 44.7833L91.9358 46.7829H93.6191Z" fill="#05BEC8"/>
<path d="M98.3427 46.8917V48.507H97.5096V46.9053L95.748 43.9297H96.639L97.9517 46.1606L99.2779 43.9297H100.097L98.3427 46.8917Z" fill="#05BEC8"/>
<path d="M104.175 47.4494H101.934L101.492 48.507H100.635L102.651 43.9297H103.471L105.494 48.507H104.624L104.175 47.4494ZM103.899 46.7829L103.056 44.7833L102.216 46.7829H103.899Z" fill="#05BEC8"/>
<path d="M109.623 43.9297H111.582C112.061 43.9297 112.483 44.025 112.857 44.2154C113.231 44.4058 113.517 44.6745 113.721 45.0214C113.925 45.3682 114.027 45.7695 114.027 46.2218C114.027 46.6741 113.925 47.0754 113.721 47.4222C113.517 47.7691 113.228 48.0378 112.857 48.2248C112.486 48.4118 112.061 48.5104 111.582 48.5104H109.623V43.9332V43.9297ZM111.544 47.7895C111.874 47.7895 112.163 47.7249 112.412 47.5957C112.66 47.4664 112.854 47.2828 112.986 47.0448C113.122 46.8067 113.187 46.5313 113.187 46.2184C113.187 45.9055 113.119 45.6301 112.986 45.392C112.85 45.154 112.66 44.9704 112.412 44.8445C112.163 44.7153 111.874 44.6507 111.544 44.6507H110.456V47.7895H111.544Z" fill="#05BEC8"/>
<path d="M119.168 47.7964V48.5105H115.809V43.9332H119.08V44.6474H116.642V45.8376H118.805V46.5381H116.642V47.7998H119.172L119.168 47.7964Z" fill="#05BEC8"/>
<path d="M124.032 46.1674H124.821V47.9902C124.589 48.1772 124.321 48.32 124.015 48.422C123.709 48.5207 123.392 48.5717 123.066 48.5717C122.61 48.5717 122.199 48.4697 121.831 48.269C121.464 48.065 121.175 47.7861 120.968 47.4291C120.76 47.072 120.655 46.6673 120.655 46.2184C120.655 45.7695 120.76 45.3648 120.968 45.0078C121.175 44.6507 121.468 44.3719 121.835 44.1678C122.202 43.9638 122.62 43.8652 123.079 43.8652C123.454 43.8652 123.797 43.9298 124.103 44.0556C124.409 44.1814 124.668 44.3684 124.878 44.6099L124.355 45.1336C124.015 44.7833 123.603 44.6099 123.12 44.6099C122.804 44.6099 122.525 44.6779 122.277 44.8139C122.029 44.95 121.838 45.137 121.702 45.3818C121.563 45.6267 121.495 45.9056 121.495 46.2184C121.495 46.5313 121.563 46.7965 121.702 47.0414C121.842 47.2862 122.032 47.4767 122.277 47.6161C122.522 47.7555 122.801 47.8269 123.113 47.8269C123.464 47.8269 123.77 47.7487 124.035 47.5923V46.1674H124.032ZM122.243 43.3483C122.035 43.1782 121.927 42.9504 121.913 42.6613H122.437C122.44 42.8109 122.498 42.93 122.61 43.0184C122.722 43.1068 122.858 43.151 123.018 43.151C123.178 43.151 123.318 43.1068 123.43 43.0184C123.542 42.93 123.6 42.8109 123.603 42.6613H124.127C124.113 42.9504 124.004 43.1782 123.797 43.3483C123.59 43.5183 123.331 43.6033 123.018 43.6033C122.705 43.6033 122.447 43.5183 122.239 43.3483H122.243Z" fill="#05BEC8"/>
<path d="M130.173 47.7964V48.5105H126.813V43.9332H130.085V44.6474H127.647V45.8376H129.809V46.5381H127.647V47.7998H130.177L130.173 47.7964Z" fill="#05BEC8"/>
<path d="M134.927 48.507L134.013 47.1672C133.975 47.1706 133.917 47.174 133.839 47.174H132.829V48.507H131.996V43.9297H133.839C134.227 43.9297 134.567 43.9944 134.853 44.127C135.142 44.2562 135.363 44.4467 135.516 44.6881C135.669 44.9329 135.747 45.222 135.747 45.5587C135.747 45.8953 135.665 46.198 135.502 46.4462C135.339 46.6945 135.101 46.8815 134.795 47.0006L135.825 48.5036H134.927V48.507ZM134.628 44.8853C134.441 44.7289 134.166 44.6507 133.802 44.6507H132.829V46.4735H133.802C134.166 46.4735 134.441 46.3952 134.628 46.2354C134.815 46.0756 134.91 45.8511 134.91 45.5587C134.91 45.2662 134.815 45.0418 134.628 44.8853Z" fill="#05BEC8"/>
<path d="M49.7133 22.0124C46.9044 22.0124 44.6157 24.2977 44.6157 27.11V39.213H47.8022V35.3396C48.3939 35.5777 49.0366 35.7103 49.7099 35.7103C50.7641 35.7103 51.6177 36.5673 51.6177 37.6181V39.213H54.8041V37.6181C54.8041 36.2612 54.2736 35.0302 53.4065 34.1154C54.2736 33.2006 54.8041 31.9696 54.8041 30.6127V27.11C54.8041 24.3011 52.5189 22.0124 49.7065 22.0124H49.7133ZM51.6211 30.6127C51.6211 31.6669 50.7641 32.5205 49.7133 32.5205C48.6625 32.5205 47.8056 31.6635 47.8056 30.6127V27.11C47.8056 26.0592 48.6625 25.2022 49.7133 25.2022C50.7641 25.2022 51.6211 26.0592 51.6211 27.11V30.6127ZM34.0805 27.11V34.1188C34.0805 36.9311 36.3691 39.2164 39.1781 39.2164H42.6808V36.03H39.1781C38.1273 36.03 37.2703 35.173 37.2703 34.1222V32.2144H42.6808V29.028H37.2703V27.1202C37.2703 26.066 38.1273 25.2124 39.1781 25.2124H42.6808V22.0226H39.1645C36.3623 22.0328 34.0839 24.3147 34.0839 27.1168L34.0805 27.11ZM29.9929 18.7308H24.5994V20.8086H29.9929V18.7308ZM5.37885 22.0124H0.28125V34.1154C0.28125 36.9243 2.5665 39.213 5.37885 39.213C8.1912 39.213 10.4764 36.9277 10.4764 34.1154V27.11C10.4764 24.3011 8.1912 22.0124 5.37885 22.0124ZM7.28662 34.1154C7.28662 35.1696 6.42965 36.0232 5.37885 36.0232C4.32804 36.0232 3.47108 35.1662 3.47108 34.1154V25.2022H5.37885C6.42965 25.2022 7.28662 26.0592 7.28662 27.11V34.1154ZM27.2961 25.2022C28.3504 25.2022 29.2039 26.0592 29.2039 27.11H32.3903C32.3903 24.3011 30.1051 22.0124 27.2927 22.0124C24.4804 22.0124 22.1951 24.2977 22.1951 27.11V34.1154C22.1951 36.9243 24.4804 39.213 27.2927 39.213C30.1051 39.213 32.3903 36.9277 32.3903 34.1154V30.6127C32.3903 29.7319 31.6762 29.0178 30.7954 29.0178H27.2927V32.2042H29.2005V34.112C29.2005 35.1662 28.3435 36.0198 27.2927 36.0198C26.2419 36.0198 25.385 35.1628 25.385 34.112V27.1066C25.385 26.0558 26.2385 25.1988 27.2927 25.1988L27.2961 25.2022ZM11.9965 27.11V34.1188C11.9965 36.9311 14.2852 39.2164 17.0941 39.2164H20.5968V36.03H17.0941C16.0433 36.03 15.1864 35.173 15.1864 34.1222V32.2144H20.5968V29.028H15.1864V27.1202C15.1864 26.066 16.0433 25.2124 17.0941 25.2124H20.5968V22.0226H17.0805C14.2784 22.0328 11.9999 24.3147 11.9999 27.1168L11.9965 27.11ZM137.148 22.0124C134.336 22.0124 132.05 24.2977 132.05 27.11V39.213H135.237V33.959H139.052V39.213H142.242V27.11C142.242 24.3011 139.957 22.0124 137.144 22.0124H137.148ZM139.056 30.7691H135.24V27.11C135.24 26.0592 136.097 25.2022 137.148 25.2022C138.199 25.2022 139.056 26.0592 139.056 27.11V30.7691ZM124.956 34.1154V22.0124H121.77V34.1154C121.77 36.9243 124.055 39.213 126.868 39.213H130.37V36.0266H126.868C125.813 36.0266 124.96 35.1696 124.96 34.1188L124.956 34.1154ZM114.727 22.0124C111.918 22.0124 109.63 24.2977 109.63 27.11V39.213H112.816V27.11C112.816 26.0592 113.673 25.2022 114.724 25.2022C115.775 25.2022 116.632 26.0592 116.632 27.11V37.6181V39.213H119.818V27.11C119.818 24.3011 117.533 22.0124 114.72 22.0124H114.727ZM154.25 27.11C154.25 24.3011 151.965 22.0124 149.152 22.0124C146.34 22.0124 144.055 24.2977 144.055 27.11V39.213H147.241V35.3396C147.833 35.5777 148.475 35.7103 149.149 35.7103C150.203 35.7103 151.057 36.5673 151.057 37.6181V39.213H154.243V37.6181C154.243 36.2612 153.713 35.0302 152.845 34.1154C153.713 33.2006 154.243 31.9696 154.243 30.6127V27.11H154.25ZM151.06 30.6127C151.06 31.6669 150.203 32.5205 149.152 32.5205C148.101 32.5205 147.244 31.6635 147.244 30.6127V27.11C147.244 26.0592 148.101 25.2022 149.152 25.2022C150.203 25.2022 151.06 26.0592 151.06 27.11V30.6127ZM102.373 22.0124C99.5603 22.0124 97.2751 24.2977 97.2751 27.11V39.213H100.461V33.959H104.277V39.213H107.467V27.11C107.467 24.3011 105.182 22.0124 102.369 22.0124H102.373ZM104.28 30.7691H100.465V27.11C100.465 26.0592 101.322 25.2022 102.373 25.2022C103.423 25.2022 104.28 26.0592 104.28 27.11V30.7691ZM79.5882 22.0124C76.7758 22.0124 74.4906 24.2977 74.4906 27.11V39.213H77.677V33.959H81.4926V39.213H84.6824V27.11C84.6824 24.3011 82.3971 22.0124 79.5848 22.0124H79.5882ZM81.496 30.7691H77.6804V27.11C77.6804 26.0592 78.5374 25.2022 79.5882 25.2022C80.639 25.2022 81.496 26.0592 81.496 27.11V30.7691ZM89.8718 22.0124L86.682 22.009V34.1154C86.682 36.9209 88.9604 39.2028 91.7626 39.213H95.2789V36.0232H91.7762C90.7254 36.0232 89.8684 35.1662 89.8684 34.1154V30.7691H95.2789V27.5827H89.8684V22.0124H89.8718ZM71.1239 22.0124C68.8693 22.0124 66.9547 23.4815 66.2848 25.5151H65.7135V22.0124H62.5236V39.2096H65.7135V28.7049H67.6212C68.6755 28.7049 69.529 29.5585 69.529 30.6127V39.213H72.7154V30.6127C72.7154 28.5145 71.4402 26.7087 69.6242 25.93C69.9745 25.4879 70.5152 25.2022 71.1205 25.2022H72.7154V22.0124H71.1205H71.1239Z" fill="#0082CA"/>
<path d="M61.636 10.2054L59.9594 12.4192V8.2466L58.6604 8.98115V15.235H59.9662V14.0277L60.4491 13.487L61.6496 15.2384H63.1084L61.2041 12.5689L63.1969 10.2088H61.6394L61.636 10.2054ZM52.7976 9.05936H51.4918V10.083H52.7976V9.05936ZM71.0592 8.46425H66.2949V9.59667H67.9986V15.235H69.3521V9.59667H71.0558V8.46425H71.0592ZM43.7348 9.59667H45.4386V15.235H46.792V9.59667H48.4958V8.46425H43.7314V9.59667H43.7348ZM51.9815 13.249C51.9815 13.8815 51.6142 14.3576 51.0157 14.3576C50.5566 14.3576 50.2063 14.0651 50.2063 13.4156V10.8549H48.8937V13.4054C48.8937 14.8575 49.8935 15.3166 50.7402 15.3166C51.6822 15.3166 52.0359 14.7079 52.0801 14.6195L52.2739 15.2282H53.2737V10.8549H51.9849V13.249H51.9815ZM50.6722 9.05936H49.3663V10.083H50.6722V9.05936ZM55.9738 10.9433V10.202H54.719V15.2316H56.0249V12.9395C56.0249 11.8547 56.6336 11.4296 57.4837 11.4296H57.647V10.1544C56.756 10.1544 56.2833 10.304 55.9738 10.9433ZM87.9707 10.2054L86.2908 12.4192V8.2466L84.9917 8.98115V15.235H86.2976V14.0277L86.7805 13.487L87.9809 15.2384H89.4398L87.5354 12.5689L89.5282 10.2088H87.9707V10.2054ZM101.873 10.1068C101.039 10.1068 100.499 10.5148 100.247 11.0079C100.016 10.457 99.4548 10.1068 98.8631 10.1068C98.2713 10.1068 97.683 10.4366 97.4722 10.8719L97.2579 10.2054H96.2717V15.235H97.5776V12.324C97.5776 11.6779 97.8667 11.1644 98.5162 11.1644C99.1079 11.1644 99.3187 11.6099 99.3187 12.0554V15.2384H100.625V12.3376C100.625 11.6813 100.907 11.1678 101.553 11.1678C102.162 11.1678 102.366 11.6133 102.366 12.1268V15.2418H103.672V12.2152C103.672 10.7563 102.906 10.117 101.873 10.117V10.1068ZM105.498 8.13098C105.117 8.13098 104.845 8.39623 104.845 8.82132C104.845 9.20899 105.144 9.44364 105.498 9.44364C105.528 9.44364 105.559 9.44024 105.59 9.43344C105.586 10.0116 105.307 10.3788 104.756 10.6883L105.035 11.2052C105.865 10.7699 106.283 10.117 106.283 9.243C106.283 8.53906 106.004 8.13438 105.494 8.13438L105.498 8.13098ZM108.96 10.0762C108.177 10.0762 107.48 10.3788 106.94 10.7223L107.365 11.4908C107.797 11.2256 108.259 11.0079 108.745 11.0079C109.409 11.0079 109.623 11.45 109.64 11.9771C107.62 12.1948 106.749 12.7423 106.749 13.7965C106.749 14.6535 107.341 15.2384 108.205 15.2384C108.786 15.2384 109.289 14.9493 109.732 14.5752H109.762L109.851 15.1194H110.796V12.2084C110.796 10.8379 110.191 10.083 108.963 10.083L108.96 10.0762ZM109.64 13.7999C109.276 14.1366 108.97 14.3338 108.572 14.3338C108.174 14.3338 107.865 14.1434 107.865 13.7081C107.865 13.2116 108.31 12.8647 109.643 12.6947V13.7999H109.64ZM77.7381 13.8713V8.25341L76.4323 8.98115V13.9563C76.4323 15.0989 77.0036 15.3302 77.6123 15.3302C77.9115 15.3302 78.2414 15.2826 78.5033 15.2316V14.2352C78.408 14.2556 78.2618 14.2726 78.1938 14.2726C77.9047 14.2726 77.7381 14.1468 77.7381 13.8679V13.8713ZM73.086 10.1068C71.5387 10.1068 70.4743 11.1916 70.4743 12.7389C70.4743 14.2862 71.5659 15.3302 73.2798 15.3302C73.8886 15.3302 74.6537 15.184 75.1944 14.8949L74.7489 13.9461C74.3817 14.14 73.7729 14.2658 73.307 14.2658C72.5997 14.2658 71.906 13.9087 71.8482 13.1164H75.4087C75.4087 13.1164 75.4359 12.8851 75.4359 12.6029C75.4359 11.0828 74.5551 10.1068 73.086 10.1068ZM71.8278 12.2458C71.9638 11.5214 72.4467 11.161 73.1608 11.161C73.8375 11.161 74.1674 11.6643 74.1776 12.2458H71.8278ZM81.6931 10.1068C80.1458 10.1068 79.0814 11.1916 79.0814 12.7389C79.0814 14.2862 80.173 15.3302 81.8869 15.3302C82.4956 15.3302 83.2608 15.184 83.8015 14.8949L83.356 13.9461C82.9887 14.14 82.38 14.2658 81.9141 14.2658C81.2068 14.2658 80.5131 13.9087 80.4552 13.1164H84.0157C84.0157 13.1164 84.0463 12.8851 84.0463 12.6029C84.0463 11.0828 83.1656 10.1068 81.6965 10.1068H81.6931ZM80.4348 12.2458C80.5709 11.5214 81.0538 11.161 81.7679 11.161C82.4446 11.161 82.7745 11.6643 82.7847 12.2458H80.4348ZM92.4902 9.85852C90.9157 9.85852 89.637 11.1372 89.637 12.7117C89.637 14.2862 90.9123 15.5648 92.4902 15.5648C94.0681 15.5648 95.3434 14.2862 95.3434 12.7117C95.3434 11.1372 94.0647 9.85852 92.4902 9.85852ZM92.4902 14.3338C91.5958 14.3338 90.8681 13.6095 90.8681 12.7117C90.8681 11.8139 91.5924 11.0896 92.4902 11.0896C93.388 11.0896 94.1123 11.8139 94.1123 12.7117C94.1123 13.6095 93.388 14.3338 92.4902 14.3338Z" fill="#002855"/>
<path d="M122.801 15.7688L115.482 11.5452V19.9958L122.801 15.7688Z" fill="#05BEC8"/>
<path d="M120.773 12.1165V8.66486L123.763 10.3924L120.773 12.1165Z" fill="#002855"/>
<path d="M38.5863 3.00273L33.3833 -6.10352e-05V6.00552V12.0145L38.5863 9.01171L43.7859 6.00552L38.5863 3.00273Z" fill="#05BEC8"/>
<path d="M26.3472 11.5043V5.49536L31.5502 8.49815L26.3472 11.5043Z" fill="#CEDC00"/>
</g>
<defs>
<clipPath id="clip0_407_9019">
<rect width="153.969" height="50" fill="white" transform="translate(0.28125 -6.10352e-05)"/>
</clipPath>
</defs>
</svg>
