<svg width="142" height="50" viewBox="0 0 142 50" fill="none" xmlns="http://www.w3.org/2000/svg">
<g clip-path="url(#clip0_407_9866)">
<path fill-rule="evenodd" clip-rule="evenodd" d="M65.9352 14.478C65.671 14.8812 65.628 15.6708 65.66 19.528C65.681 22.0426 65.7747 24.2514 65.8684 24.4364C66.101 24.8956 66.739 25.0678 67.2316 24.804C67.5466 24.6356 67.6392 24.3866 67.6392 23.7094C67.6392 21.8342 68.0476 21.751 69.116 23.409C70.0046 24.7882 70.4221 25.0794 71.2509 24.8974C71.9937 24.7342 72.0042 24.3028 71.286 23.453C70.3662 22.3648 69.4392 21.0292 69.4392 20.792C69.4392 20.5138 70.7751 18.8346 71.3999 18.3278C71.6783 18.102 71.8368 17.7848 71.7999 17.527C71.7517 17.1886 71.5784 17.0868 70.965 17.0364C70.1258 16.9676 69.7752 17.2598 68.4236 19.1542C68.0886 19.6238 67.7283 19.9552 67.6234 19.8902C67.5185 19.8254 67.476 19.7022 67.5292 19.6162C67.7554 19.25 67.6726 14.5812 67.4345 14.2946C67.0595 13.8426 66.2898 13.9368 65.9352 14.478ZM98.0462 14.2916C97.8713 14.5022 97.8063 15.8966 97.8121 19.3154C97.8191 23.3902 97.8653 24.0976 98.1446 24.4058C98.8296 25.163 100.277 25.0434 100.494 24.2118C100.601 23.8026 100.203 23.2 99.8249 23.2C99.7165 23.2 99.6391 21.4462 99.6391 18.9868C99.6391 16.465 99.5559 14.6184 99.4321 14.3868C99.1879 13.9308 98.3909 13.876 98.0462 14.2916ZM112.679 14.24C112.505 14.414 112.439 15.8696 112.439 19.533C112.439 24.4814 112.448 24.5906 112.864 24.8136C113.173 24.9788 113.42 24.9818 113.764 24.8248C114.16 24.6446 114.239 24.461 114.239 23.7206C114.239 21.8128 114.618 21.7602 115.839 23.4986C116.739 24.7806 117.301 25.1342 118.056 24.8946C118.688 24.694 118.5 24.1848 117.14 22.4124C115.667 20.493 115.633 20.8336 117.498 18.9124C118.669 17.7072 118.707 17.1308 117.624 17.04C117.001 16.9878 116.808 17.0912 116.124 17.8434C115.692 18.3184 115.096 19.0204 114.799 19.4034L114.258 20.1L114.249 17.257C114.24 14.6564 114.206 14.3964 113.852 14.207C113.344 13.935 112.974 13.9454 112.679 14.24ZM39.4392 14.543C38.7882 14.7968 38.6438 15.5762 39.1534 16.0858C39.3788 16.311 39.8604 16.4 40.8534 16.4H42.2392V20.5042V24.6086L42.7139 24.8248C43.0583 24.9818 43.3051 24.9788 43.6139 24.8136C44.0263 24.5928 44.0392 24.4624 44.0392 20.493V16.4H45.3228C46.0288 16.4 46.7488 16.3454 46.9228 16.2786C47.376 16.1048 47.3452 14.8708 46.8816 14.6226C46.4988 14.4178 39.9408 14.3476 39.4392 14.543ZM79.2082 14.5342C78.7806 14.6476 78.5691 15.4954 78.8414 16.0042C79.0213 16.3404 79.2628 16.4 80.4462 16.4H81.8392V20.505V24.61L82.3178 24.7918C82.6966 24.936 83.4188 24.9014 83.679 24.7266C83.7008 24.712 83.7682 22.815 83.829 20.511L83.9392 16.3218L85.0764 16.3748C86.5148 16.4418 87.0392 16.1782 87.0392 15.388C87.0392 14.9302 86.919 14.7444 86.5261 14.595C86.0308 14.4068 79.8816 14.3556 79.2082 14.5342ZM50.5506 15.2446C50.1462 15.8216 50.1556 15.9066 50.677 16.3922C51.4766 17.1372 52.4392 16.8136 52.4392 15.8C52.4392 15.514 52.3311 15.172 52.1991 15.04C51.8013 14.6422 50.8936 14.7548 50.5506 15.2446ZM53.4792 15.04C53.3472 15.172 53.2392 15.514 53.2392 15.8C53.2392 16.432 53.5736 16.8 54.1482 16.8C54.9908 16.8 55.5671 15.608 54.9991 15.04C54.6897 14.7306 53.7886 14.7306 53.4792 15.04ZM90.7183 16.9722C89.9135 17.1378 88.7516 18.1722 88.2162 19.1992C87.879 19.8462 87.8095 20.2682 87.8741 21.2814C87.9706 22.796 88.5494 23.6962 89.958 24.5216C90.761 24.9922 91.0154 25.0412 92.2133 24.9554C94.3144 24.805 95.2083 23.9772 94.2279 23.0898C93.8893 22.7834 93.7487 22.7602 93.4308 22.9588C93.2183 23.0914 92.5489 23.2 91.9433 23.2C91.0985 23.2 90.7255 23.0984 90.3407 22.764C89.3757 21.925 89.6295 21.8 92.2991 21.8C93.9457 21.8 94.8385 21.7206 94.9991 21.56C95.3647 21.1944 95.2857 19.8754 94.8467 19.0148C94.0615 17.4758 92.3601 16.634 90.7183 16.9722ZM105.486 16.9482C104.146 17.1074 102.439 19.4228 102.439 21.0802C102.439 22.5354 104.181 24.6584 105.591 24.923C106.855 25.16 108.456 24.874 109.019 24.3108L109.53 23.8L109.01 23.2796C108.576 22.8456 108.421 22.7958 108.077 22.9796C107.851 23.1008 107.192 23.2 106.613 23.2C105.744 23.2 105.464 23.1066 105 22.6626C104.692 22.367 104.439 22.052 104.439 21.9626C104.439 21.8732 105.558 21.8 106.925 21.8C110.159 21.8 110.436 21.581 109.702 19.6066C108.913 17.4864 107.651 16.6906 105.486 16.9482ZM123.239 16.9662C121.666 17.3868 120.039 19.3942 120.039 20.9138C120.039 22.6766 121.839 24.759 123.527 24.9492C125.038 25.1196 125.795 24.8632 126.827 23.8312C127.986 22.6722 128.351 21.5282 128.029 20.0608C127.578 18.0014 125.174 16.4488 123.239 16.9662ZM133.639 16.9534C133.364 16.9992 132.98 17.1786 132.786 17.3522C132.463 17.6406 132.411 17.6374 132.175 17.3148C132.017 17.0992 131.727 16.9888 131.428 17.031L130.939 17.1L130.885 20.8406C130.832 24.441 130.846 24.5896 131.242 24.8016C131.469 24.923 131.831 24.9662 132.047 24.8976C132.408 24.783 132.44 24.5796 132.444 22.3366C132.447 20.3304 132.509 19.8246 132.794 19.4734C133.556 18.5328 134.477 18.5156 135.118 19.4302C135.37 19.7906 135.439 20.4112 135.439 22.3232C135.439 24.3952 135.488 24.776 135.767 24.8832C136.271 25.0762 136.783 24.8352 136.915 24.3434C136.98 24.0996 137.035 22.9406 137.036 21.7678L137.039 19.6356L137.662 19.1116C138.357 18.5268 138.906 18.5652 139.489 19.2396C139.782 19.5776 139.839 20.0486 139.839 22.0976C139.839 24.7862 139.971 25.1252 140.92 24.887L141.439 24.7566V21.9824C141.439 17.9178 140.91 16.9428 138.704 16.9428C137.787 16.9428 137.53 17.0298 137.03 17.5088L136.439 18.0748L135.889 17.5638C135.318 17.033 134.498 16.8108 133.639 16.9534ZM49.644 17.2944C49.4702 17.5036 49.42 18.356 49.47 20.2444C49.546 23.1136 49.7268 23.6934 50.7922 24.4866C51.5826 25.075 53.2502 25.1494 54.085 24.6334C54.7546 24.2198 54.7552 24.2196 55.0056 24.6204C55.2678 25.0404 55.9811 24.986 56.2861 24.523C56.5153 24.1752 56.4674 17.8262 56.2322 17.3868C55.9262 16.8152 54.9316 16.8732 54.5298 17.4862C54.2756 17.8742 54.2239 18.4178 54.2751 20.1748C54.3349 22.232 54.3099 22.4042 53.8975 22.7886C53.3149 23.3312 52.2218 23.3334 51.7326 22.7928C51.4138 22.4406 51.3712 22.088 51.4164 20.18C51.4578 18.4324 51.4024 17.8734 51.1492 17.4874C50.7888 16.9372 50.022 16.8388 49.644 17.2944ZM59.4462 17.3868C59.229 17.7928 59.1575 23.5752 59.3603 24.3316C59.4871 24.804 60.015 25.0212 60.6392 24.858C61.0086 24.7614 61.0392 24.5852 61.0392 22.5576C61.0392 19.9978 61.2738 19.4042 62.4722 18.9334C63.3576 18.5858 63.5836 18.1758 63.2698 17.4872C62.9894 16.872 62.0594 16.8252 61.5392 17.4C61.3402 17.62 61.1071 17.8 61.0215 17.8C60.9361 17.8 60.809 17.62 60.7392 17.4C60.5732 16.877 59.7238 16.8684 59.4462 17.3868ZM90.6337 18.9384C90.0573 19.3328 89.8466 19.6024 89.8422 19.95C89.84 20.1306 90.3107 20.2 91.5392 20.2C93.0518 20.2 93.2391 20.1598 93.2391 19.8348C93.2391 19.2862 92.3955 18.6 91.7207 18.6C91.3947 18.6 90.9055 18.7522 90.6337 18.9384ZM105.089 19.1168C103.976 19.9936 104.195 20.2 106.239 20.2C107.844 20.2 108.039 20.1606 108.039 19.8376C108.039 19.347 106.985 18.5994 106.297 18.6022C105.99 18.6034 105.447 18.835 105.089 19.1168ZM122.753 19.2736C122.155 19.8382 122.039 20.0832 122.039 20.7868C122.039 22.3226 122.785 23.2022 124.081 23.1956C125.453 23.1884 126.239 22.3228 126.239 20.8198C126.239 20.1634 126.108 19.8818 125.533 19.3066C124.577 18.3514 123.742 18.3414 122.753 19.2736Z" fill="#043B64"/>
<path fill-rule="evenodd" clip-rule="evenodd" d="M1.37446 5.33156C1.30006 5.40576 1.23926 14.2716 1.23926 25.0334C1.23926 42.8138 1.26846 44.6 1.55846 44.6C1.73386 44.6 2.11646 44.4314 2.40846 44.2254C2.97306 43.8268 6.73646 41.5778 7.24006 41.3382C7.40466 41.2598 7.80926 41.0176 8.13926 40.8C8.46926 40.5824 8.87426 40.3438 9.03926 40.2696C9.20426 40.1956 9.79866 39.8344 10.3603 39.4672L11.3815 38.7996L11.5603 35.8498C11.8181 31.6016 11.7915 28.4714 11.4951 28.1756C11.3199 28.0004 10.3753 27.945 8.14506 27.9786C5.49306 28.0184 5.03926 27.9814 5.03926 27.7244C5.03926 27.559 5.12226 27.3722 5.22386 27.3096C5.32546 27.2468 5.46886 26.9204 5.54266 26.5842C5.61646 26.248 5.80286 25.7316 5.95686 25.4366C6.11086 25.1414 6.23726 24.7478 6.23806 24.5618C6.23866 24.3758 6.32926 24.168 6.43926 24.1C6.54926 24.032 6.63986 23.8242 6.64046 23.6382C6.64126 23.4522 6.77626 23.0422 6.94046 22.7272C7.10486 22.412 7.23926 21.9956 7.23926 21.8016C7.23926 21.6076 7.37426 21.337 7.53926 21.2C7.70426 21.063 7.83926 20.7444 7.83926 20.4918C7.83926 20.2392 7.96546 19.7776 8.11966 19.4662C8.63106 18.433 9.03926 17.39 9.03926 17.116C9.03926 16.9674 9.17366 16.588 9.33806 16.2728C9.50226 15.9578 9.63726 15.5478 9.63806 15.3618C9.63866 15.1758 9.72926 14.968 9.83926 14.9C9.94926 14.832 10.0399 14.6242 10.0405 14.4382C10.0413 14.2522 10.1619 13.8696 10.3089 13.5882C10.6439 12.946 10.8779 11.5334 10.7181 11.117C10.6185 10.8576 7.51426 8.83996 6.43926 8.33616C6.27426 8.25876 5.86926 8.02216 5.53926 7.80996C5.20926 7.59796 4.35426 7.09536 3.63926 6.69316C2.92426 6.29116 2.15266 5.78976 1.92446 5.57916C1.69626 5.36856 1.44886 5.25716 1.37446 5.33156ZM11.3737 11.8824C11.3141 12.0376 11.2469 14.1506 11.2241 16.5778C11.1921 20.0016 11.2425 21.0628 11.4485 21.3112C11.6743 21.5832 12.1637 21.6232 14.7139 21.5774C17.9477 21.5192 18.1561 21.5868 17.5581 22.4994C17.3827 22.767 17.2393 23.1518 17.2393 23.3548C17.2393 23.5576 17.1071 23.8982 16.9457 24.1118C16.7841 24.3252 16.6491 24.6852 16.6457 24.9118C16.6421 25.1382 16.5071 25.4982 16.3457 25.7118C16.1841 25.9252 16.0491 26.2846 16.0457 26.51C16.0421 26.7356 15.9563 27.0056 15.8549 27.11C15.6701 27.3004 14.7795 29.6862 14.4029 31C14.2925 31.385 14.1205 31.7856 14.0207 31.89C13.9209 31.9946 13.8365 32.2646 13.8329 32.49C13.8295 32.7156 13.6945 33.0748 13.5329 33.2882C13.3715 33.5018 13.2393 33.7884 13.2393 33.9252C13.2393 34.062 13.1353 34.4274 13.0083 34.737C12.4803 36.0232 12.0519 37.3226 12.0459 37.6562C12.0361 38.1882 12.5533 38.2848 13.1831 37.8686C14.0711 37.2818 14.5107 37.0134 14.9393 36.7966C15.1593 36.6852 15.6093 36.4164 15.9393 36.1992C16.2693 35.982 16.6743 35.7418 16.8393 35.6652C17.0043 35.5886 17.6793 35.1992 18.3393 34.8C18.9993 34.4008 19.6743 34.0114 19.8393 33.9348C20.0043 33.8582 20.4093 33.618 20.7393 33.4008C21.0693 33.1836 21.5193 32.9132 21.7393 32.8C21.9593 32.6868 22.4093 32.4202 22.7393 32.208C23.0693 31.9956 23.7443 31.6144 24.2393 31.361C24.7343 31.1076 25.1843 30.8426 25.2393 30.772C25.2943 30.7014 25.6993 30.4492 26.1393 30.2116C26.5793 29.9738 27.0743 29.696 27.2393 29.5942C28.1911 29.007 31.1855 27.2542 31.4393 27.1356C31.6043 27.0586 32.0093 26.8194 32.3393 26.6042C32.6693 26.3888 33.2245 26.0824 33.5733 25.9234C34.3419 25.5724 34.7251 24.9658 34.3899 24.6306C34.2631 24.5038 34.0889 24.4 34.0029 24.4C33.9167 24.4 33.2823 24.0566 32.5929 23.637C31.9033 23.2174 31.2043 22.8114 31.0393 22.7348C30.8743 22.6582 30.4693 22.418 30.1393 22.2008C29.8093 21.9836 29.3593 21.7132 29.1393 21.6C28.9193 21.4868 28.4693 21.2216 28.1393 21.0106C27.8093 20.7998 27.1793 20.4276 26.7393 20.1834C25.2935 19.381 25.1477 19.2952 24.2829 18.7384C23.8119 18.435 23.0919 18.0038 22.6829 17.7798C22.2739 17.5558 21.6693 17.2038 21.3393 16.9976C21.0093 16.7912 20.5143 16.4972 20.2393 16.344C19.2513 15.794 16.0107 13.8928 15.4805 13.5522C15.1829 13.361 14.8043 13.141 14.6393 13.0636C14.4743 12.9862 13.8443 12.6254 13.2393 12.262C12.0459 11.545 11.5425 11.4424 11.3737 11.8824ZM122.766 27.4146C122.366 27.7292 122.24 28.006 122.242 28.5646C122.246 29.4222 122.369 29.6504 123.01 29.9884C123.978 30.4984 125.439 29.733 125.439 28.7164C125.439 28.1564 124.995 27.4442 124.508 27.222C123.798 26.8988 123.36 26.9472 122.766 27.4146ZM56.0625 27.4722C55.8839 27.6872 55.8367 29.2372 55.8805 33.4622L55.9393 39.162L56.4997 39.681C56.9549 40.1028 57.2569 40.2 58.1113 40.2C59.6019 40.2 59.8777 39.9392 59.8013 38.602C59.7459 37.6312 59.6863 37.5038 59.2393 37.3992L58.7393 37.2824L58.6393 32.2912L58.5393 27.3L57.4213 27.241C56.6305 27.1992 56.2327 27.2668 56.0625 27.4722ZM82.2463 27.5868C82.1175 27.8276 82.0393 30.1352 82.0393 33.7C82.0393 37.2648 82.1175 39.5724 82.2463 39.8132C82.4149 40.128 82.6713 40.2 83.6249 40.2C84.9463 40.2 85.0393 40.102 85.0393 38.7082C85.0393 38.1884 85.1579 37.7506 85.3393 37.6C85.5111 37.4574 85.6393 37.4376 85.6393 37.5536C85.6393 37.6648 86.0441 38.3058 86.5389 38.978L87.4385 40.2H88.8389C90.1883 40.2 90.2393 40.1824 90.2393 39.7142C90.2393 39.4472 90.1239 39.1096 89.9831 38.9642C89.4343 38.3982 87.8393 36.22 87.8393 36.0366C87.8393 35.93 87.7043 35.791 87.5393 35.7276C87.0527 35.541 87.1919 35.1554 88.0917 34.198C88.5579 33.7018 89.3301 32.8208 89.8075 32.2404C90.9261 30.8808 90.7627 30.6 88.8541 30.6C87.6069 30.6 87.4765 30.6434 86.8983 31.25C86.5575 31.6074 85.9999 32.3452 85.6591 32.8892C85.3181 33.4332 85.0329 33.7932 85.0249 33.6892C85.0171 33.5852 85.0231 32.2114 85.0383 30.6366C85.0571 28.6808 84.9905 27.6822 84.8281 27.4866C84.6761 27.3032 84.2053 27.2 83.5219 27.2C82.6701 27.2 82.4113 27.2784 82.2463 27.5868ZM132.989 27.416C132.668 27.6028 132.639 28.112 132.639 33.523C132.639 37.2098 132.717 39.5716 132.846 39.8132C133.018 40.1342 133.273 40.2 134.342 40.2C135.772 40.2 135.771 40.2008 135.886 38.5154C135.956 37.4838 136.229 37.4368 136.837 38.3514C137.111 38.7632 137.39 39.145 137.457 39.2C137.524 39.255 137.688 39.5064 137.821 39.7586C138.043 40.1812 138.175 40.2124 139.501 40.1586L140.939 40.1L140.897 39.5166C140.874 39.1958 140.771 38.8808 140.67 38.8166C140.342 38.6102 138.015 35.373 138.078 35.212C138.147 35.036 139.406 33.4986 140.404 32.3698C140.838 31.8798 141.047 31.4582 141.004 31.159C140.945 30.7404 140.825 30.6954 139.639 30.6484C138.924 30.62 138.239 30.665 138.116 30.7484C137.993 30.8318 137.43 31.5122 136.866 32.2606L135.839 33.6212V30.6506C135.839 28.6068 135.764 27.6052 135.599 27.44C135.308 27.1492 133.476 27.1324 132.989 27.416ZM39.7765 27.9296C39.7011 28.005 39.6393 30.742 39.6393 34.012C39.6393 39.2488 39.6769 39.9716 39.9557 40.0786C40.5847 40.32 48.3457 40.2136 48.5993 39.96C48.7313 39.828 48.8393 39.302 48.8393 38.791C48.8393 37.3054 48.6125 37.2032 45.4299 37.2556L42.7393 37.3L42.6779 36.45L42.6163 35.6H45.0207C47.7285 35.6 47.8421 35.538 47.8363 34.0632C47.8309 32.756 47.7227 32.7 45.1963 32.7C43.9229 32.7 42.8753 32.6128 42.7923 32.5C42.7115 32.39 42.6441 31.9176 42.6423 31.45L42.6393 30.6H45.4149C48.6369 30.6 48.6921 30.5716 48.6003 28.9662L48.5393 27.9L44.2265 27.8462C41.8543 27.8166 39.8519 27.8542 39.7765 27.9296ZM98.2893 28.4062C97.9055 28.5606 97.8393 28.7364 97.8393 29.6028C97.8393 30.5252 97.7837 30.65 97.2337 30.9594C96.9007 31.1466 96.5743 31.5092 96.5083 31.7648C96.3423 32.4086 96.7275 33.1562 97.2655 33.2346C97.7035 33.2984 97.7131 33.354 97.6623 35.5216C97.6019 38.0978 97.8285 38.8664 98.8869 39.6736C99.4687 40.1174 99.7811 40.2 100.877 40.2C102.494 40.2 102.96 39.8238 102.773 38.6718C102.625 37.757 102.437 37.5632 101.663 37.5242C100.715 37.4766 100.618 37.2454 100.681 35.182C100.739 33.3024 100.74 33.3 101.266 33.2802C102.152 33.2468 102.412 33.0508 102.551 32.3096C102.742 31.287 102.254 30.6 101.335 30.6H100.639V29.64C100.639 29.112 100.531 28.572 100.399 28.44C100.121 28.162 98.9439 28.1432 98.2893 28.4062ZM68.8735 30.9948C67.1907 31.9346 66.4061 33.1796 66.2825 35.1066C66.1543 37.1062 66.7011 38.3358 68.2215 39.4656L69.3393 40.2962L71.3879 40.2882C73.1331 40.2814 73.5181 40.2196 73.9879 39.87C74.6853 39.3512 74.7523 38.8722 74.2429 38.0454L73.8395 37.3906L72.2485 37.5234C70.6877 37.6534 69.4393 37.41 69.4393 36.9758C69.4393 36.879 70.6363 36.8 72.0993 36.8C73.9015 36.8 74.8367 36.7226 74.9993 36.56C75.3337 36.2256 75.2989 34.6462 74.9337 33.5744C74.5959 32.583 73.5565 31.2 73.1493 31.2C73.0057 31.2 72.7763 31.065 72.6393 30.9C72.2639 30.4476 69.7393 30.5112 68.8735 30.9948ZM109.96 30.8602C109.669 31.0728 109.637 31.6176 109.685 35.6002L109.739 40.1H111.039H112.339L112.439 37.7C112.559 34.8274 112.876 34 113.857 34C115.01 34 115.239 33.7238 115.239 32.333C115.239 30.495 114.693 30.1736 113.11 31.079C112.318 31.5322 112.265 31.5376 111.91 31.2014C111.422 30.7386 110.376 30.5556 109.96 30.8602ZM121.688 30.85C121.104 31.5802 121.359 32.973 122.132 33.2694C122.391 33.369 122.439 33.9018 122.439 36.6724C122.439 39.4832 122.485 39.9748 122.756 40.0786C123.306 40.2896 124.949 40.21 125.199 39.96C125.371 39.788 125.439 38.486 125.439 35.367C125.439 31.268 125.417 31.002 125.052 30.807C124.496 30.5094 121.934 30.5422 121.688 30.85ZM69.7381 33.8012C69.2387 34.3532 69.4563 34.4814 70.7883 34.4196C72.1671 34.3558 72.3005 34.288 72.0329 33.7878C71.7377 33.2364 70.2415 33.2452 69.7381 33.8012Z" fill="#43BBDB"/>
</g>
<defs>
<clipPath id="clip0_407_9866">
<rect width="141" height="50" fill="white" transform="translate(0.839111 -6.10352e-05)"/>
</clipPath>
</defs>
</svg>
