<svg width="115" height="50" viewBox="0 0 115 50" fill="none" xmlns="http://www.w3.org/2000/svg">
<g clip-path="url(#clip0_407_10181)">
<path d="M38.3729 38.1107L34.1273 35.6603V40.5677L38.3729 38.1107Z" fill="#0082CA"/>
<path d="M64.9265 4.47063L72.6464 8.92149V-0.000366211L64.9265 4.47063Z" fill="#CEDC00"/>
<path d="M98.603 42.8233L86.1948 35.6603V49.9998L98.603 42.8233Z" fill="#E63323"/>
<path opacity="0.85" d="M112.205 21.0389L83.3978 4.42367C80.3662 2.67152 76.5766 4.86674 76.5766 8.37104V41.6484C76.5766 45.1527 80.3662 47.3479 83.4045 45.5891L112.205 28.9336C115.237 27.1815 115.237 22.7977 112.205 21.0456V21.0389Z" fill="url(#paint0_linear_407_10181)" stroke="white" stroke-width="0.306569" stroke-miterlimit="10"/>
<path d="M31.8668 8.92134C31.8601 8.31716 31.5113 7.79353 30.8071 7.79353C30.0626 7.79353 29.5595 8.16947 29.4187 8.92134H31.8668ZM30.7266 6.69256C32.2558 6.69256 33.1747 7.70625 33.1747 9.29057C33.1747 9.58595 33.1479 9.82763 33.1479 9.82763H29.4455C29.5059 10.6534 30.2302 11.0293 30.968 11.0293C31.4509 11.0293 32.0881 10.895 32.4704 10.7003L32.9332 11.6872C32.3698 11.9893 31.5717 12.1437 30.9412 12.1437C29.1638 12.1437 28.0236 11.0494 28.0236 9.44498C28.0035 7.82709 29.1168 6.69256 30.7266 6.69256ZM35.5691 4.75915V10.6131C35.5691 10.9085 35.7368 11.0293 36.0386 11.0293C36.1124 11.0293 36.26 11.0092 36.3606 10.9957V12.0296C36.0856 12.0833 35.7435 12.1303 35.435 12.1303C34.8045 12.1303 34.2076 11.8886 34.2076 10.6936V5.51103L35.5691 4.76587V4.75915ZM40.8209 8.92134C40.8142 8.31716 40.4654 7.79353 39.7611 7.79353C39.0166 7.79353 38.5136 8.16947 38.3727 8.92134H40.8209ZM39.6941 6.69256C41.2233 6.69256 42.1422 7.70625 42.1422 9.29057C42.1422 9.58595 42.1153 9.82763 42.1153 9.82763H38.413C38.4734 10.6534 39.1977 11.0293 39.9355 11.0293C40.4184 11.0293 41.0556 10.895 41.4379 10.7003L41.9007 11.6872C41.3373 11.9893 40.5392 12.1437 39.9087 12.1437C38.1313 12.1437 36.9911 11.0494 36.9911 9.44498C36.9709 7.82709 38.0843 6.69256 39.6941 6.69256ZM17.0641 4.75244V9.09589L18.8079 6.78654H20.4243L18.3518 9.24358L20.3372 12.0228H18.8146L17.5671 10.1969L17.0573 10.7608V12.0161H15.6958V5.50432L17.0573 4.74573L17.0641 4.75244ZM44.483 4.75244V9.09589L46.2268 6.78654H47.8433L45.7708 9.24358L47.7561 12.0228H46.2335L44.986 10.1969L44.4763 10.7608V12.0161H43.1147V5.50432L44.4763 4.74573L44.483 4.75244ZM55.8986 6.79326L56.1199 7.48472C56.3413 7.02822 56.9717 6.69256 57.5687 6.69256C58.1656 6.69256 58.7692 7.05507 59.0107 7.62569C59.2656 7.10878 59.8357 6.69256 60.7009 6.69256C61.7808 6.69256 62.5722 7.36388 62.5722 8.87435V12.0296H61.2107V8.78708C61.2107 8.25002 60.996 7.78681 60.3656 7.78681C59.6881 7.78681 59.393 8.32387 59.393 9.00862V12.0296H58.0315V8.71324C58.0315 8.25002 57.8101 7.78681 57.1931 7.78681C56.5156 7.78681 56.2138 8.32387 56.2138 8.99519V12.0296H54.8523V6.79326H55.8919H55.8986ZM50.9353 6.43074C49.2987 6.43074 47.964 7.75996 47.964 9.4047C47.964 11.0494 49.292 12.3786 50.9353 12.3786C52.5785 12.3786 53.9065 11.0494 53.9065 9.4047C53.9065 7.75996 52.5718 6.43074 50.9353 6.43074ZM50.9353 11.0964C50.003 11.0964 49.2451 10.3378 49.2451 9.4047C49.2451 8.47156 50.003 7.71297 50.9353 7.71297C51.8676 7.71297 52.6255 8.47156 52.6255 9.4047C52.6255 10.3378 51.8676 11.0964 50.9353 11.0964ZM28.6205 4.9874V6.16222H26.8498V12.043H25.4413V6.16222H23.6706V4.9874H28.6205ZM12.9257 6.79326V7.56528C13.2343 6.89396 13.7373 6.74626 14.6629 6.74626V8.07548H14.4952C13.6032 8.07548 12.9727 8.51855 12.9727 9.65309V12.043H11.6111V6.80668H12.9257V6.79997V6.79326ZM5.13871 4.9874V6.16222H3.36801V12.043H1.95951V6.16222H0.188812V4.9874H5.13871ZM9.0624 12.0296L8.85448 11.3985C8.80753 11.4858 8.44534 12.1168 7.45939 12.1168C6.58075 12.1168 5.53443 11.6335 5.53443 10.1297V7.478H6.89598V10.1431C6.89598 10.8212 7.25817 11.1233 7.74109 11.1233C8.36485 11.1233 8.74716 10.6265 8.74716 9.96861V7.478H10.0886V12.0363H9.05569L9.0624 12.0296ZM6.03747 5.59831H7.39902V6.66571H6.03747V5.59831ZM8.25083 5.59831H9.61239V6.66571H8.25083V5.59831Z" fill="#0082CA"/>
<path d="M13.0062 18.9106H5.05824V22.7035H11.8928V26.134H5.05824V32.3974H0.638214V15.4801H12.9995V18.9106H13.0062Z" fill="#002855"/>
<path d="M15.3001 22.7305H13.1739V19.8304H19.4049V32.3975H15.3001V22.7305ZM15.7561 17.944C15.3873 17.6351 15.1995 17.1719 15.1995 16.5409C15.1995 15.9099 15.3873 15.4466 15.7561 15.1378C16.125 14.829 16.6482 14.6813 17.3256 14.6813C18.7878 14.6813 19.5256 15.2989 19.5256 16.5409C19.5256 17.7828 18.7945 18.4005 17.3256 18.4005C16.6482 18.4005 16.125 18.246 15.7561 17.944Z" fill="#002855"/>
<path d="M32.4101 20.5489C33.2418 21.1933 33.6509 22.442 33.6509 24.2948V32.391H29.5461V24.7983C29.5461 23.4154 28.9693 22.7172 27.809 22.7172C27.0712 22.7172 26.5078 23.0059 26.1188 23.5899C25.7298 24.174 25.542 24.8923 25.542 25.765V32.391H21.4372V19.8238H25.0322L25.2737 21.5625C25.7432 20.9047 26.2865 20.4079 26.9035 20.0789C27.5206 19.75 28.2785 19.5822 29.1638 19.5822C30.4986 19.5822 31.5851 19.9044 32.4101 20.5489Z" fill="#002855"/>
<path d="M49.1039 32.223C48.8155 32.2901 48.3661 32.3506 47.7491 32.4177C47.1387 32.4848 46.6357 32.5117 46.2534 32.5117C44.6571 32.5117 43.7047 31.9545 43.3827 30.8468C42.6449 32.0418 41.2901 32.6392 39.3249 32.6392C37.8426 32.6392 36.7158 32.317 35.9445 31.6725C35.1731 31.0281 34.7841 30.0681 34.7841 28.7993C34.7841 27.3022 35.2939 26.2483 36.3201 25.6441C37.3395 25.0399 38.8285 24.7378 40.7736 24.7378C41.4041 24.7378 42.1151 24.7646 42.9199 24.8116V24.2074C42.9199 23.8046 42.7724 23.4623 42.4705 23.1803C42.1754 22.8984 41.5651 22.7574 40.6462 22.7574C40.0694 22.7574 39.2913 22.8447 38.3255 23.0125C37.3597 23.1803 36.5481 23.3884 35.8841 23.6301L35.5487 20.3205C37.2524 19.8371 39.1371 19.5955 41.1962 19.5955C43.2553 19.5955 44.6235 19.9177 45.576 20.5622C46.5351 21.2066 47.0113 22.368 47.0113 24.0396V28.4368C47.0113 28.9872 47.2662 29.2558 47.7826 29.2558C48.2186 29.2558 48.6277 29.2021 49.0167 29.0879L49.0905 32.2297L49.1039 32.223ZM42.2693 29.3565C42.7053 29.0611 42.9199 28.5777 42.9199 27.9198V27.2888C42.3699 27.2418 41.8669 27.215 41.3974 27.215C40.445 27.215 39.8078 27.3358 39.4791 27.5775C39.1505 27.8191 38.9828 28.1481 38.9828 28.571C38.9828 29.0409 39.1237 29.3632 39.4054 29.5377C39.6871 29.7123 40.0761 29.8063 40.5791 29.8063C41.27 29.8063 41.8334 29.6586 42.2693 29.3565Z" fill="#002855"/>
<path d="M60.6874 20.5489C61.5123 21.1933 61.9282 22.442 61.9282 24.2948V32.391H57.8234V24.7983C57.8234 23.4154 57.2466 22.7172 56.0862 22.7172C55.3417 22.7172 54.785 23.0059 54.396 23.5899C54.007 24.174 53.8192 24.8923 53.8192 25.765V32.391H49.7144V19.8238H53.3095L53.5509 21.5625C54.0204 20.9047 54.5637 20.4079 55.1808 20.0789C55.7978 19.75 56.549 19.5822 57.4411 19.5822C58.7758 19.5822 59.8624 19.9044 60.6874 20.5489Z" fill="#002855"/>
<path d="M65.852 32.344C65.0404 32.1829 64.202 31.9479 63.3502 31.6458L63.6856 28.457C63.7661 28.4906 64.0612 28.6316 64.5642 28.88C65.0673 29.1283 65.6575 29.3365 66.3282 29.511C66.9989 29.6855 67.6361 29.7661 68.2465 29.7661C68.9574 29.7661 69.4202 29.6855 69.6483 29.5244C69.8763 29.3633 69.9836 29.1686 69.9836 28.9471C69.9836 28.6383 69.8629 28.4235 69.6214 28.2959C69.38 28.1684 68.9239 28.0207 68.2465 27.8595C67.9581 27.8126 67.6428 27.7387 67.3075 27.6447C66.1002 27.3359 65.1276 26.9063 64.3966 26.3424C63.6655 25.7785 63.2966 24.8789 63.2966 23.6369C63.2966 22.254 63.7996 21.2336 64.8057 20.5824C65.8118 19.9312 67.1331 19.6023 68.7763 19.6023C69.6617 19.6023 70.5537 19.6694 71.4458 19.797C72.3378 19.9245 73.1226 20.1192 73.8 20.3743L73.411 23.4892C71.8013 22.7776 70.4196 22.4286 69.2593 22.4286C68.0989 22.4286 67.569 22.7172 67.569 23.3013C67.569 23.6101 67.6898 23.8249 67.9312 23.9525C68.1727 24.08 68.6422 24.2344 69.333 24.409L70.1044 24.6036C70.9226 24.8319 71.6202 25.0736 72.1903 25.3421C72.7604 25.6106 73.25 26.0067 73.6524 26.537C74.0549 27.0674 74.2561 27.7588 74.2561 28.6181C74.2561 30.0212 73.7262 31.0349 72.6598 31.6659C71.6001 32.297 70.1983 32.6058 68.4611 32.6058C67.5288 32.6058 66.6569 32.5252 65.8386 32.3641L65.852 32.344Z" fill="#002855"/>
<path d="M93.3576 32.2226C93.0692 32.2898 92.6198 32.3502 92.0028 32.4173C91.3857 32.4845 90.8894 32.5113 90.5071 32.5113C88.9108 32.5113 87.9583 31.9541 87.6297 30.8464C86.8919 32.0414 85.5371 32.6389 83.5719 32.6389C82.0896 32.6389 80.9628 32.3166 80.1914 31.6722C79.4201 31.0277 79.0311 30.0677 79.0311 28.7989C79.0311 27.3019 79.5408 26.2479 80.567 25.6437C81.5865 25.0395 83.0755 24.7374 85.0206 24.7374C85.6511 24.7374 86.362 24.7643 87.1669 24.8113V24.2071C87.1669 23.8043 87.0193 23.4619 86.7175 23.1799C86.4224 22.898 85.812 22.757 84.8932 22.757C84.3163 22.757 83.5383 22.8443 82.5725 23.0121C81.6067 23.1799 80.7951 23.3881 80.1311 23.6297L79.7957 20.3201C81.4993 19.8368 83.3841 19.5951 85.4432 19.5951C87.5023 19.5951 88.8705 19.9173 89.8296 20.5618C90.7888 21.2063 91.265 22.3676 91.265 24.0392V28.4364C91.265 28.9869 91.5199 29.2554 92.0363 29.2554C92.4723 29.2554 92.8814 29.2017 93.2704 29.0876L93.3442 32.2294L93.3576 32.2226ZM86.523 29.3561C86.959 29.0607 87.1736 28.5774 87.1736 27.9195V27.2884C86.6236 27.2414 86.1206 27.2146 85.6511 27.2146C84.6987 27.2146 84.0615 27.3354 83.7328 27.5771C83.4042 27.8188 83.2365 28.1477 83.2365 28.5707C83.2365 29.0406 83.3773 29.3628 83.659 29.5374C83.9407 29.7119 84.3298 29.8059 84.8328 29.8059C85.5236 29.8059 86.087 29.6582 86.523 29.3561Z" fill="#0082CA"/>
<path d="M98.1131 28.6985C98.1131 29.0073 98.2003 29.2154 98.3679 29.3295C98.5356 29.4436 98.7771 29.4973 99.0789 29.4973C99.2533 29.4973 99.7228 29.4101 100.481 29.2288V32.3974C99.5149 32.5586 98.5557 32.6391 97.6033 32.6391C96.3491 32.6391 95.4369 32.3706 94.8601 31.8268C94.29 31.2898 94.0016 30.5043 94.0016 29.4705V14.7014H98.1064V28.6985H98.1131Z" fill="#0082CA"/>
</g>
<defs>
<linearGradient id="paint0_linear_407_10181" x1="79.7089" y1="8.31062" x2="114.067" y2="62.5053" gradientUnits="userSpaceOnUse">
<stop stop-color="#DCFCFC"/>
<stop offset="0.5" stop-color="#D5F7F7"/>
<stop offset="1" stop-color="#CDD5EB"/>
</linearGradient>
<clipPath id="clip0_407_10181">
<rect width="114.458" height="50" fill="white" transform="translate(0.188965 -6.10352e-05)"/>
</clipPath>
</defs>
</svg>
