<svg width="149" height="43" viewBox="0 0 149 43" fill="none" xmlns="http://www.w3.org/2000/svg">
<path d="M13.5165 28.3225L0.676758 20.8757V35.7692L13.5165 28.3225Z" fill="#E02814"/>
<path d="M11.2419 16.9132L5.64795 13.6697V20.1568L11.2419 16.9132Z" fill="#D6D900"/>
<path d="M57.9935 37.8951H52.4955L50.9646 33.5452H42.6217L41.0866 37.8951H35.7179L43.4393 17.2018H50.318L57.9935 37.8951ZM44.0858 29.3546H49.4837L46.8348 21.8115H46.7764L44.0858 29.3546Z" fill="#003864"/>
<path d="M71.1077 17.2018C75.8132 17.2018 78.2243 20.3028 78.2243 23.9948C78.2675 25.3001 77.9024 26.5863 77.1804 27.6725C76.4583 28.7586 75.4156 29.5902 74.1988 30.0502L77.8488 37.8951H72.1673L69.168 30.5405H65.6098V37.8951H60.2286V17.2018H71.1077ZM65.6098 21.3924V26.3457H70.0524C71.7835 26.3457 72.7555 25.2813 72.7555 23.9235C72.7555 22.5658 71.8461 21.4092 70.0524 21.4092L65.6098 21.3924Z" fill="#003864"/>
<path d="M86.547 37.8949H81.1866V23.8773H86.5678L86.547 37.8949Z" fill="#003864"/>
<path d="M86.547 21.6899H81.1866V17.2018H86.5678L86.547 21.6899Z" fill="#003864"/>
<path d="M95.985 37.8951V30.0376L88.5181 17.2018H94.1162L98.6631 25.5495L103.193 17.2018H108.808L101.366 29.979V37.8951H95.985Z" fill="#003864"/>
<path d="M126.338 21.4134H116.227V25.6668H124.987V29.8574H116.227V33.6961H126.488V37.8867H110.845V17.2018H126.342L126.338 21.4134Z" fill="#003864"/>
<path d="M140.927 17.2018C145.628 17.2018 148.043 20.3028 148.043 23.9948C148.086 25.3005 147.72 26.5868 146.997 27.6729C146.274 28.759 145.231 29.5903 144.014 30.0502L147.66 37.8783H141.982L138.983 30.5238H135.416V37.8951H130.035V17.2018H140.927ZM135.416 21.4134V26.3457H139.859C141.594 26.3457 142.562 25.2813 142.562 23.9235C142.562 22.5658 141.653 21.4092 139.859 21.4092L135.416 21.4134Z" fill="#003864"/>
<path d="M47.1983 8.5393C47.2119 8.38819 47.1935 8.23592 47.1444 8.09245C47.0953 7.94898 47.0166 7.81755 46.9134 7.70677C46.8102 7.59599 46.6849 7.50836 46.5456 7.44962C46.4064 7.39088 46.2564 7.36236 46.1054 7.36592C45.7607 7.33515 45.4177 7.44045 45.149 7.65951C44.8803 7.87856 44.7072 8.19413 44.6662 8.5393H47.1983ZM46.0219 6.22607C47.6071 6.22607 48.554 7.28211 48.554 8.92902C48.5538 9.11379 48.5441 9.29843 48.5248 9.48218H44.6871C44.7497 10.3413 45.5214 10.7394 46.2639 10.7394C46.7996 10.7374 47.3287 10.6202 47.8157 10.3957L48.2954 11.4224C47.6452 11.7375 46.9315 11.8981 46.2097 11.8918C44.3659 11.8918 43.1895 10.7519 43.1895 9.08408C43.17 8.70701 43.2291 8.33001 43.3632 7.97728C43.4973 7.62455 43.7033 7.3039 43.9681 7.03593C44.2329 6.76796 44.5505 6.5586 44.9007 6.42129C45.2508 6.28398 45.6256 6.22177 46.0011 6.23865L46.0219 6.22607ZM51.0068 4.22715V10.2994C51.0068 10.6011 51.182 10.7394 51.4949 10.7394C51.607 10.734 51.7186 10.72 51.8286 10.6975V11.7745C51.5127 11.8387 51.1915 11.8738 50.8692 11.8792C50.2143 11.8792 49.6177 11.6278 49.6177 10.3915V5.00661L51.0068 4.22715ZM56.4297 8.55187C56.4433 8.40077 56.4249 8.24849 56.3758 8.10502C56.3267 7.96155 56.248 7.83012 56.1448 7.71934C56.0416 7.60856 55.9163 7.52093 55.7771 7.46219C55.6378 7.40345 55.4878 7.37493 55.3368 7.37849C54.9922 7.34772 54.6491 7.45303 54.3804 7.67208C54.1118 7.89113 53.9386 8.2067 53.8977 8.55187H56.4297ZM55.2534 6.23865C56.8344 6.23865 57.7855 7.29468 57.7855 8.9416C57.7852 9.12648 57.7741 9.31119 57.7521 9.49476H53.9185C53.9811 10.3538 54.7528 10.7519 55.4912 10.7519C56.0282 10.7496 56.5586 10.6325 57.0471 10.4083L57.5227 11.435C56.8803 11.7471 56.1755 11.9076 55.462 11.9044C53.614 11.9044 52.4377 10.7645 52.4377 9.09665C52.4187 8.71938 52.4784 8.34229 52.613 7.98955C52.7475 7.63682 52.954 7.31623 53.2191 7.04833C53.4842 6.78043 53.8021 6.57114 54.1524 6.43387C54.5027 6.2966 54.8777 6.23439 55.2534 6.25122V6.23865ZM31.8765 4.21039V8.72787L33.6869 6.33084H35.3555L33.2156 8.88712L35.2679 11.7745H33.6953L32.4021 9.88029L31.8807 10.467V11.7745H30.4749V5.00661L31.8765 4.21039ZM60.2425 4.21039V8.72787L62.0529 6.33084H63.7215L61.5815 8.88712L63.6672 11.7745H62.0946L60.8014 9.88029L60.28 10.467V11.7745H58.8742V5.00661L60.2425 4.21039ZM72.0644 6.33084L72.2938 7.05163C72.4514 6.79414 72.6724 6.58177 72.9354 6.43497C73.1984 6.28817 73.4946 6.2119 73.7955 6.2135C74.111 6.21262 74.4198 6.3041 74.6843 6.47677C74.9488 6.64944 75.1574 6.8958 75.2847 7.18573C75.455 6.87347 75.71 6.61626 76.0203 6.44412C76.3305 6.27198 76.683 6.192 77.0368 6.2135C78.1505 6.2135 78.9765 6.90495 78.9765 8.48482V11.7619H77.5665V8.40101C77.5665 7.84365 77.3496 7.36173 76.6905 7.36173C76.0314 7.36173 75.6935 7.91908 75.6935 8.61892V11.7577H74.2836V8.32976C74.3022 8.20713 74.2936 8.08187 74.2582 7.96301C74.2228 7.84416 74.1616 7.73468 74.079 7.64247C73.9964 7.55026 73.8944 7.47762 73.7805 7.4298C73.6665 7.38197 73.5435 7.36016 73.4201 7.36592C72.7235 7.36592 72.4106 7.92327 72.4106 8.62311V11.7745H71.0006V6.32665L72.0644 6.33084ZM66.9251 5.95368C66.3161 5.95286 65.7205 6.13353 65.2137 6.47286C64.7068 6.81218 64.3116 7.2949 64.078 7.85994C63.8443 8.42498 63.7828 9.04694 63.9011 9.64714C64.0194 10.2473 64.3123 10.7988 64.7426 11.2317C65.173 11.6647 65.7215 11.9596 66.3188 12.0793C66.9161 12.199 67.5353 12.138 68.0981 11.904C68.6609 11.6701 69.1419 11.2737 69.4804 10.765C69.8188 10.2563 69.9995 9.65821 69.9995 9.04636C70.0006 8.22869 69.6789 7.44395 69.1049 6.8642C68.531 6.28445 67.7516 5.95701 66.9376 5.95368H66.9251ZM66.9251 10.798C66.5793 10.798 66.2412 10.695 65.9537 10.5018C65.6661 10.3087 65.4421 10.0342 65.3099 9.71314C65.1778 9.39205 65.1434 9.03879 65.2112 8.69807C65.279 8.35735 65.4458 8.0445 65.6907 7.7991C65.9356 7.55371 66.2474 7.38681 66.5867 7.31953C66.926 7.25225 67.2776 7.28762 67.5969 7.42116C67.9162 7.5547 68.1889 7.78041 68.3804 8.06971C68.572 8.35901 68.6738 8.6989 68.673 9.04636C68.673 9.50949 68.4904 9.95377 68.1652 10.282C67.84 10.6103 67.3986 10.7958 66.9376 10.798H66.9251ZM43.8403 4.44506V5.66872H42.0048V11.7745H40.5448V5.66872H38.7052V4.44506H43.8403ZM27.5716 6.33084V7.13125C27.9053 6.4398 28.4059 6.29312 29.3778 6.29312V7.67603H29.211C28.2932 7.67603 27.6342 8.137 27.6342 9.31037V11.7912H26.2284V6.34341L27.5716 6.33084ZM19.5248 4.44506V5.66872H17.6894V11.7745H16.2294V5.66872H14.3898V4.44506H19.5248ZM23.592 11.7535L23.3834 11.0956C23.2382 11.3432 23.0278 11.5458 22.7753 11.6811C22.5229 11.8164 22.2383 11.8791 21.9526 11.8625C21.0432 11.8625 19.967 11.368 19.967 9.79648V7.03486H21.377V9.80486C21.377 10.5089 21.7566 10.8232 22.253 10.8232C22.4019 10.8201 22.5486 10.7858 22.6835 10.7224C22.8185 10.659 22.9387 10.5679 23.0366 10.455C23.1344 10.3422 23.2076 10.21 23.2516 10.067C23.2955 9.92396 23.3092 9.7733 23.2917 9.62467V7.03486H24.6808V11.7535H23.592ZM20.4634 5.09042H21.8692V6.20093H20.4634V5.09042ZM22.7494 5.09042H24.1593V6.20093H22.7494V5.09042Z" fill="#137FC3"/>
<path fill-rule="evenodd" clip-rule="evenodd" d="M15.2368 34.9611V19.9629L20.7807 23.6297V26.5757L22.1823 24.5558L26.4372 27.5521L22.1114 30.4143L20.7807 28.5788V31.2943L15.2368 34.9611Z" fill="#4BBFD8"/>
<path fill-rule="evenodd" clip-rule="evenodd" d="M15.2368 37.8364V36.1308L19.2206 33.4949L20.7807 32.464V37.8364H15.2368ZM27.0379 28.3237L34.4672 37.8364H27.4717L22.6787 31.2068L27.0379 28.3237ZM15.2368 18.7942V17.2018H20.7807V22.4652L19.2206 21.4301L15.2368 18.7942ZM22.7454 23.7559L27.2756 17.2018H33.7956L26.821 26.4589L22.7454 23.7559Z" fill="#003864"/>
</svg>
