<svg width="239" height="40" viewBox="0 0 239 40" fill="none" xmlns="http://www.w3.org/2000/svg">
<g clip-path="url(#clip0_407_10057)">
<path d="M5.5467 26.4091C5.93747 26.4105 6.32062 26.5173 6.65579 26.7181C6.98795 26.9553 7.25868 27.2684 7.44546 27.6313C7.63225 27.9941 7.72969 28.3964 7.72969 28.8045C7.72969 29.2126 7.63225 29.6149 7.44546 29.9778C7.25868 30.3407 6.98795 30.6537 6.65579 30.8909C6.31513 31.0866 5.93045 31.193 5.53761 31.2H3.57397V26.4091H5.5467ZM4.28307 27V30.6363H5.31943C5.73323 30.643 6.1337 30.49 6.43761 30.2091C6.60625 30.019 6.73563 29.7974 6.81832 29.5572C6.90101 29.3169 6.93537 29.0627 6.91943 28.8091C6.95166 28.5218 6.91205 28.2311 6.80415 27.9629C6.69625 27.6947 6.52344 27.4576 6.30125 27.2727C6.03199 27.0914 5.71667 26.9905 5.39216 26.9818L4.28307 27Z" fill="#002855"/>
<path d="M9.07392 29.6818C9.07392 30.3636 9.60119 30.7 10.3285 30.7C10.7441 30.694 11.1536 30.5978 11.5285 30.4181L11.6557 30.9454C11.2198 31.1474 10.7453 31.2528 10.2648 31.2545C9.78261 31.3015 9.30147 31.1551 8.92725 30.8473C8.55303 30.5396 8.31638 30.0958 8.26937 29.6136C8.22235 29.1314 8.36882 28.6503 8.67655 28.276C8.98428 27.9018 9.42807 27.6652 9.91028 27.6181H10.1466C10.3743 27.6008 10.603 27.6338 10.8164 27.7148C11.0299 27.7958 11.2229 27.9228 11.3817 28.0868C11.5405 28.2509 11.6612 28.4478 11.7353 28.6638C11.8094 28.8797 11.835 29.1094 11.8103 29.3363C11.8196 29.4604 11.8196 29.585 11.8103 29.7091L9.07392 29.6818ZM9.07392 29.1727H11.1103C11.1345 28.9438 11.0711 28.7143 10.9327 28.5304C10.7944 28.3465 10.5914 28.2219 10.3648 28.1818C10.2985 28.1725 10.2312 28.1725 10.1648 28.1818C9.58301 28.1818 9.18301 28.4545 9.0921 29.2091" fill="#002855"/>
<path d="M14.6648 27.6454H15.8648V28.1181H15.3103C15.4194 28.2065 15.5066 28.319 15.565 28.4468C15.6233 28.5746 15.6513 28.7141 15.6466 28.8545C15.6466 29.509 15.1103 29.9545 14.083 29.9545C13.8118 29.9566 13.542 29.9167 13.283 29.8363C13.2259 29.8669 13.1786 29.913 13.1464 29.9693C13.1143 30.0256 13.0986 30.0897 13.1012 30.1545C13.1012 30.4454 13.4648 30.4908 14.0103 30.4908H14.5557C15.2557 30.4908 15.7921 30.6999 15.7921 31.3999C15.7921 32.2363 14.883 32.4363 14.0739 32.4363C13.2648 32.4363 12.4103 32.2636 12.4103 31.5272C12.4126 31.3863 12.4504 31.2482 12.5204 31.1258C12.5903 31.0035 12.69 30.9007 12.8103 30.8272C12.7123 30.7734 12.6319 30.6924 12.5787 30.5941C12.5254 30.4957 12.5017 30.3842 12.5103 30.2727C12.5111 30.1428 12.5439 30.0152 12.6057 29.9011C12.6676 29.7869 12.7565 29.6897 12.8648 29.6181C12.7506 29.514 12.6612 29.3857 12.603 29.2426C12.5448 29.0994 12.5193 28.9451 12.5285 28.7908C12.5285 27.9908 13.1194 27.5999 14.1194 27.5999C14.3089 27.5914 14.4986 27.6098 14.683 27.6545M13.3194 31.0363C13.2466 31.0761 13.1851 31.1336 13.1406 31.2035C13.0961 31.2735 13.07 31.3536 13.0648 31.4363C13.0648 31.809 13.4921 31.8636 14.0557 31.8636C14.6194 31.8636 15.0557 31.809 15.0557 31.409C15.0557 31.009 14.8376 31.0727 14.4648 31.0727H14.0376C13.7957 31.0955 13.5522 31.0955 13.3103 31.0727M14.983 26.3636C14.9759 26.5838 14.8821 26.7923 14.7221 26.9438C14.5621 27.0953 14.3488 27.1776 14.1285 27.1727H14.0376C13.8249 27.1962 13.6114 27.1364 13.4419 27.0059C13.2724 26.8754 13.1601 26.6842 13.1285 26.4727C13.1235 26.4395 13.1235 26.4058 13.1285 26.3727L13.5557 26.3272C13.6376 26.6454 13.7557 26.8181 14.0921 26.8181C14.4285 26.8181 14.5194 26.6454 14.6103 26.3272L14.983 26.3636ZM13.2376 28.7999C13.2376 29.2272 13.6012 29.4181 14.0921 29.4181C14.583 29.4181 14.9285 29.1908 14.9285 28.7999C14.9285 28.409 14.6012 28.1636 14.1012 28.1636C13.6012 28.1636 13.2376 28.3727 13.2376 28.7999Z" fill="#002855"/>
<path d="M17.0285 29.6818C17.0285 30.3636 17.5558 30.7 18.2831 30.7C18.6987 30.694 19.1082 30.5978 19.483 30.4181L19.6103 30.9454C19.1744 31.1474 18.6999 31.2528 18.2194 31.2545C17.7372 31.3015 17.2561 31.1551 16.8818 30.8473C16.5076 30.5396 16.271 30.0958 16.224 29.6136C16.1769 29.1314 16.3234 28.6503 16.6311 28.276C16.9389 27.9018 17.3827 27.6652 17.8649 27.6181H18.1194C18.3471 27.6008 18.5757 27.6338 18.7892 27.7148C19.0026 27.7958 19.1956 27.9228 19.3544 28.0868C19.5132 28.2509 19.634 28.4478 19.7081 28.6638C19.7821 28.8797 19.8077 29.1094 19.783 29.3363C19.7921 29.4604 19.7921 29.585 19.783 29.7091L17.0285 29.6818ZM17.0285 29.1727H19.0649C19.0894 28.9452 19.0272 28.7168 18.8907 28.5331C18.7542 28.3494 18.5534 28.2239 18.3285 28.1818C18.2591 28.1721 18.1888 28.1721 18.1194 28.1818C17.5376 28.1818 17.1376 28.4545 17.0376 29.2091" fill="#002855"/>
<path d="M22.374 28.3272C21.6194 28.2181 21.2467 28.8181 21.2467 29.5454V31.1999H20.5376V27.6454H21.1194L21.1831 28.3908C21.2641 28.1413 21.4309 27.9286 21.6539 27.7904C21.877 27.6523 22.1417 27.5977 22.4012 27.6363L22.374 28.3272Z" fill="#002855"/>
<path d="M23.7558 30.4272C23.7558 30.6636 23.8831 30.709 24.0286 30.709H24.3195V31.2181C24.1351 31.2361 23.9493 31.2361 23.7649 31.2181C23.2467 31.2181 23.0286 30.9999 23.0286 30.5181V26.1909H23.7286L23.7558 30.4272Z" fill="#002855"/>
<path d="M25.7103 31.2H25.0103V28.1818H24.574V27.6818H25.7194L25.7103 31.2ZM25.7103 26.7363C25.7103 26.9727 25.5558 27.0818 25.3012 27.0818C25.0467 27.0818 24.9103 26.9727 24.9103 26.7363C24.9103 26.5 25.0558 26.3818 25.3012 26.3818C25.5467 26.3818 25.7103 26.5 25.7103 26.7363Z" fill="#002855"/>
<path d="M32.7375 31.1909H31.9739V29.1181H29.4648V31.1909H28.7012V26.4091H29.4648V28.5272H31.9739V26.4091H32.7375V31.1909Z" fill="#002855"/>
<path d="M34.6467 31.2H33.9376V28.1818H33.5104V27.6818H34.6467V31.2ZM34.6467 26.7363C34.6467 26.9727 34.4922 27.0818 34.2376 27.0818C33.9831 27.0818 33.8467 26.9727 33.8467 26.7363C33.8467 26.5 33.9922 26.3818 34.2376 26.3818C34.4831 26.3818 34.6467 26.5 34.6467 26.7363Z" fill="#002855"/>
<path d="M38.1194 27.8363L38.0012 28.309C37.6624 28.1739 37.3022 28.1001 36.9376 28.0909C36.3921 28.0909 36.1739 28.2909 36.1739 28.5636C36.1739 28.8363 36.5376 28.9909 37.083 29.1363C37.6285 29.2818 38.283 29.4909 38.283 30.209C38.283 30.9272 37.6467 31.2545 36.8649 31.2545C36.3866 31.2277 35.9177 31.1105 35.483 30.9091L35.6285 30.4272C36.0054 30.5998 36.414 30.6927 36.8285 30.7C37.3921 30.7 37.5921 30.5 37.5921 30.2181C37.5921 29.9363 37.1649 29.7909 36.683 29.6545C36.2012 29.5181 35.5103 29.3272 35.5103 28.5909C35.5103 27.8545 36.0921 27.5545 36.883 27.5545C37.3249 27.555 37.7628 27.6382 38.1739 27.8" fill="#002855"/>
<path d="M41.4831 27.8363L41.3558 28.309C41.0138 28.174 40.6507 28.1001 40.2831 28.0908C39.7376 28.0908 39.5285 28.2908 39.5285 28.5635C39.5285 28.8363 39.8831 28.9908 40.4376 29.1363C40.9922 29.2817 41.6285 29.4908 41.6285 30.209C41.6285 30.9272 40.9922 31.2545 40.2013 31.2545C39.7109 31.2302 39.2296 31.113 38.7831 30.909L38.9376 30.4272C39.3117 30.5988 39.7171 30.6917 40.1285 30.6999C40.7013 30.6999 40.9104 30.4999 40.9104 30.2181C40.9104 29.9363 40.474 29.7908 40.0013 29.6545C39.5285 29.5181 38.8376 29.3272 38.8376 28.5908C38.8376 27.8545 39.4285 27.5545 40.2104 27.5545C40.6524 27.5532 41.0906 27.6365 41.5013 27.7999" fill="#002855"/>
<path d="M42.8558 29.6818C42.8558 30.3636 43.383 30.7 44.1103 30.7C44.5259 30.6931 44.9351 30.597 45.3103 30.4181L45.4376 30.9454C45.0013 31.1463 44.527 31.2517 44.0467 31.2545C43.5645 31.3015 43.0833 31.1551 42.7091 30.8473C42.3349 30.5396 42.0982 30.0958 42.0512 29.6136C42.0042 29.1314 42.1507 28.6503 42.4584 28.276C42.7661 27.9018 43.2099 27.6652 43.6921 27.6181H43.9285C44.1554 27.6022 44.3831 27.6362 44.5954 27.7179C44.8077 27.7995 44.9995 27.9267 45.1573 28.0906C45.3151 28.2544 45.435 28.4509 45.5086 28.6662C45.5821 28.8814 45.6076 29.1102 45.583 29.3363C45.5921 29.4604 45.5921 29.585 45.583 29.7091L42.8558 29.6818ZM42.8558 29.1727H44.8921C44.9159 28.9412 44.8499 28.7094 44.7079 28.525C44.5658 28.3407 44.3584 28.2178 44.1285 28.1818C44.0622 28.1725 43.9948 28.1725 43.9285 28.1818C43.3467 28.1818 42.9558 28.4545 42.8558 29.2091" fill="#002855"/>
<path d="M47.2104 27.6454H48.1922V28.1818H47.2104V30.1818C47.2104 30.609 47.3558 30.7636 47.6922 30.7636C47.8621 30.763 48.0309 30.7354 48.1922 30.6818V31.1727C47.957 31.248 47.7119 31.2879 47.4649 31.2908C46.8286 31.2908 46.4831 31.0272 46.4831 30.1999V28.1818H45.9922V27.6818H46.5013L46.6013 26.6545H47.2104V27.6454Z" fill="#002855"/>
<path d="M49.7104 27.6454H50.6922V28.1818H49.7104V30.1818C49.7104 30.609 49.8649 30.7636 50.1922 30.7636C50.3592 30.7638 50.5252 30.7362 50.6831 30.6818V31.1727C50.4523 31.253 50.2093 31.293 49.9649 31.2908C49.3285 31.2908 48.9831 31.0272 48.9831 30.1999V28.1818H48.474V27.6818H49.0285L49.1285 26.6545H49.7376L49.7104 27.6454Z" fill="#002855"/>
<path d="M52.174 31.2H51.4649V28.1818H51.0376V27.6818H52.1831L52.174 31.2ZM52.174 26.7363C52.174 26.9727 52.0194 27.0818 51.7649 27.0818C51.5103 27.0818 51.374 26.9727 51.374 26.7363C51.374 26.5 51.5194 26.3818 51.7649 26.3818C52.0103 26.3818 52.174 26.5 52.174 26.7363Z" fill="#002855"/>
<path d="M55.0376 28.3272C54.2921 28.2181 53.9103 28.8181 53.9103 29.5454V31.2H53.2103V27.6454H53.7921L53.8558 28.4C53.9352 28.1494 54.1017 27.9355 54.3252 27.7971C54.5486 27.6587 54.8143 27.6049 55.074 27.6454L55.0376 28.3272Z" fill="#002855"/>
<path d="M56.5285 31.2H55.8285V28.1818H55.3921V27.6818H56.5285V31.2ZM56.5285 26.7363C56.5285 26.9727 56.383 27.0818 56.1285 27.0818C55.8739 27.0818 55.7285 26.9727 55.7285 26.7363C55.7285 26.5 55.883 26.3818 56.1285 26.3818C56.3739 26.3818 56.5285 26.5 56.5285 26.7363Z" fill="#002855"/>
<path d="M59.4103 28.3272C58.6648 28.2181 58.283 28.8181 58.283 29.5454V31.2H57.583V27.6454H58.1648L58.2285 28.4C58.3079 28.1494 58.4744 27.9355 58.6978 27.7971C58.9213 27.6587 59.1869 27.6049 59.4466 27.6454L59.4103 28.3272Z" fill="#002855"/>
<path d="M104.329 7.99085L99.7195 5.32721L104.329 2.66357V7.99085ZM104.329 7.99085L99.7195 10.6454L102.019 11.9818L104.329 10.6454V7.99085Z" fill="#CEDC00"/>
<path d="M104.328 7.99085L99.7194 10.6454L95.1012 7.99085L99.7194 5.32721L104.328 7.99085Z" fill="#0082CA"/>
<path d="M122.765 2.66358L118.156 -6.10352e-05V5.32721L122.765 2.66358Z" fill="#E63323"/>
<path d="M104.329 23.9545V15.9727L108.938 18.6363V7.99085L104.329 10.6454V2.66357L122.765 13.309L104.329 23.9545ZM95.1013 2.66357V7.99085L99.7195 5.32721L95.1013 2.66357ZM95.1013 13.309L99.7195 10.6454L95.1013 7.99085V13.309ZM93.0558 34.4818L83.474 28.9545V39.9999L93.0558 34.4818Z" fill="#05BEC8"/>
<path d="M48.7194 19.2545C48.7399 19.0345 48.7138 18.8127 48.6428 18.6035C48.5718 18.3943 48.4575 18.2024 48.3075 18.0403C48.1574 17.8782 47.9748 17.7495 47.7717 17.6627C47.5685 17.5759 47.3494 17.5328 47.1285 17.5363C46.6236 17.4928 46.1217 17.648 45.7295 17.9689C45.3373 18.2898 45.0858 18.751 45.0285 19.2545H48.7194ZM47.0012 15.8908C49.3194 15.8908 50.7012 17.4363 50.7012 19.8181C50.7012 20.0908 50.7012 20.3727 50.6558 20.6454H45.0649C45.0953 20.9154 45.1789 21.1768 45.3106 21.4145C45.4424 21.6521 45.6198 21.8615 45.8326 22.0304C46.0455 22.1993 46.2896 22.3246 46.551 22.3989C46.8124 22.4732 47.0859 22.4952 47.3558 22.4636C48.1383 22.4517 48.9096 22.2752 49.6194 21.9454L50.3103 23.4363C49.3701 23.8834 48.3424 24.1163 47.3012 24.1181C44.574 24.1181 42.8921 22.4636 42.8921 20.0363C42.8662 19.4898 42.9547 18.9439 43.152 18.4336C43.3494 17.9234 43.6511 17.4599 44.038 17.0731C44.4249 16.6862 44.8883 16.3844 45.3986 16.1871C45.9089 15.9898 46.4547 15.9013 47.0012 15.9272M54.274 13.009V21.8181C54.274 22.2454 54.5376 22.4636 54.9921 22.4636C55.1543 22.4564 55.3155 22.4351 55.474 22.3999V23.9636C55.0158 24.0559 54.5503 24.1076 54.0831 24.1181C53.1194 24.1181 52.2649 23.7545 52.2649 21.9636V14.1181L54.274 13.009ZM62.2194 19.2908C62.2399 19.0697 62.2135 18.8467 62.1421 18.6364C62.0706 18.4261 61.9557 18.2332 61.8048 18.0702C61.6538 17.9073 61.4703 17.778 61.266 17.6907C61.0618 17.6034 60.8415 17.5601 60.6194 17.5636C60.1131 17.5202 59.61 17.6766 59.2176 17.9994C58.8251 18.3222 58.5746 18.7857 58.5194 19.2908H62.2194ZM60.4921 15.9272C62.8103 15.9272 64.1921 17.4636 64.1921 19.8454C64.2105 20.1148 64.2105 20.3851 64.1921 20.6545H58.5921C58.6237 20.9249 58.7083 21.1865 58.841 21.4242C58.9737 21.6619 59.1519 21.8712 59.3655 22.04C59.5791 22.2089 59.8238 22.334 60.0858 22.4082C60.3477 22.4825 60.6217 22.5044 60.8921 22.4727C61.6751 22.4644 62.4472 22.2877 63.1558 21.9545L63.8558 23.4454C62.9181 23.8999 61.8887 24.1332 60.8467 24.1272C58.1194 24.1272 56.4376 22.4727 56.4376 20.0545C56.4104 19.508 56.4978 18.962 56.694 18.4512C56.8901 17.9405 57.1909 17.4764 57.5769 17.0887C57.9629 16.701 58.4257 16.3982 58.9355 16.1997C59.4454 16.0013 59.9911 15.9116 60.5376 15.9363M26.3649 12.9908V19.5272L29.0285 16.0454H31.474L28.3467 19.7636L31.3558 23.9545H29.0285L27.1467 21.2272L26.383 22.0908V23.9817H24.3194V14.1181L26.3649 12.9908ZM67.774 12.9908V19.5272L70.4103 16.0454H72.8558L69.7285 19.7636L72.7376 23.9545H70.4467L68.5558 21.2272L67.8012 22.0908V23.9817H65.7467V14.1181L67.774 12.9908ZM85.0467 16.0727L85.3922 17.1181C85.6241 16.7473 85.9473 16.4422 86.3309 16.232C86.7145 16.0219 87.1457 15.9138 87.5831 15.9181C88.0446 15.9143 88.4971 16.0457 88.8849 16.2961C89.2726 16.5465 89.5785 16.905 89.7649 17.3272C90.0136 16.8746 90.3857 16.5018 90.8379 16.2524C91.2901 16.0029 91.8039 15.887 92.3194 15.9181C93.9376 15.9181 95.1376 16.9181 95.1376 19.2181V23.9545H93.0921V19.0908C93.0921 18.2908 92.774 17.5908 91.8012 17.5908C90.8285 17.5908 90.3467 18.3908 90.3467 19.409V23.9545H88.2558V18.9545C88.2796 18.7766 88.2645 18.5957 88.2113 18.4243C88.1582 18.2529 88.0684 18.0951 87.9482 17.9619C87.8279 17.8286 87.6801 17.7232 87.515 17.6528C87.3499 17.5825 87.1715 17.5489 86.9921 17.5545C85.974 17.5545 85.5194 18.3545 85.5194 19.3727V23.9181H83.474V16.009L85.0467 16.0727ZM77.5194 15.4545C76.6335 15.4545 75.7675 15.7166 75.0302 16.2077C74.2929 16.6988 73.7173 17.397 73.3758 18.2144C73.0344 19.0319 72.9423 19.932 73.1112 20.8017C73.2801 21.6713 73.7025 22.4715 74.3251 23.1017C74.9477 23.7319 75.7428 24.1639 76.6103 24.3433C77.4779 24.5226 78.3791 24.4415 79.2006 24.1099C80.0221 23.7783 80.7271 23.2112 81.2271 22.4799C81.7271 21.7486 81.9996 20.8857 82.0103 19.9999C82.0175 19.4056 81.9067 18.8158 81.6843 18.2646C81.4618 17.7134 81.1322 17.2119 80.7144 16.7891C80.2967 16.3662 79.7992 16.0306 79.2507 15.8015C78.7023 15.5724 78.1138 15.4544 77.5194 15.4545ZM77.5194 22.4908C77.0111 22.4925 76.5139 22.3425 76.0913 22.06C75.6688 21.7774 75.3401 21.3753 75.1473 20.9049C74.9546 20.4346 74.9066 19.9174 75.0094 19.4196C75.1122 18.9218 75.3612 18.466 75.7245 18.1105C76.0878 17.755 76.5489 17.516 77.0488 17.424C77.5487 17.332 78.0647 17.3912 78.5307 17.5941C78.9968 17.7969 79.3917 18.1342 79.665 18.5628C79.9383 18.9914 80.0775 19.4918 80.0649 19.9999C80.0673 20.3342 80.0038 20.6657 79.8781 20.9754C79.7524 21.2852 79.5669 21.5671 79.3322 21.8052C79.0975 22.0432 78.8182 22.2327 78.5103 22.3629C78.2024 22.493 77.8719 22.5612 77.5376 22.5636L77.5194 22.4908ZM43.8194 13.309V15.1272H41.0921V23.9908H39.0285V15.0908H36.3012V13.2727L43.8194 13.309ZM20.1012 16.0363V17.1999C20.5921 16.1999 21.3376 15.9636 22.7376 15.9636V17.9727H22.474C22.1573 17.9372 21.8367 17.975 21.537 18.083C21.2372 18.191 20.9662 18.3663 20.7449 18.5956C20.5236 18.8248 20.3578 19.1017 20.2604 19.4051C20.163 19.7085 20.1365 20.0302 20.183 20.3454V23.9817H18.1194V16.0727L20.1012 16.0363ZM8.33759 13.309V15.1272H5.65577V23.9908H3.57395V15.0908H0.84668V13.2727L8.33759 13.309ZM14.274 23.9454L13.9649 22.9908C13.7519 23.3509 13.4422 23.644 13.071 23.8368C12.6998 24.0297 12.2819 24.1145 11.8649 24.0818C11.4675 24.1092 11.0689 24.0493 10.6972 23.9062C10.3254 23.7631 9.98953 23.5403 9.71311 23.2535C9.4367 22.9667 9.22646 22.6228 9.09719 22.246C8.96792 21.8693 8.92275 21.4688 8.96486 21.0727V17.0727H11.0194V21.0727C11.0194 22.0999 11.574 22.5636 12.3103 22.5636C12.5289 22.5589 12.7441 22.5083 12.942 22.4153C13.1398 22.3223 13.316 22.1888 13.459 22.0234C13.6021 21.8581 13.7089 21.6646 13.7725 21.4554C13.8362 21.2462 13.8552 21.026 13.8285 20.809V17.0727H15.8558V23.9545L14.274 23.9454ZM9.7285 14.2454H11.7558V15.8545H9.71032L9.7285 14.2454ZM13.0649 14.2454H15.1103V15.8545H13.0467L13.0649 14.2454ZM88.2831 13.3363V7.98175L92.9103 10.6454L88.2831 13.3363ZM70.4285 31.209V26.6636L74.3376 28.9272L70.4285 31.209Z" fill="#002855"/>
<path d="M108.938 7.99084L104.328 10.6454V15.9727L108.938 18.6363V7.99084Z" fill="#0082CA"/>
<path d="M99.7195 13.309L104.329 15.9727V10.6454L99.7195 13.309Z" fill="#002855"/>
<path d="M151.919 23.7091V14.7363H152.829L156.465 22.8636H156.092L159.729 14.7363H160.638V23.7091H159.674V16.1H160.056L156.656 23.7091H155.956L152.547 16.1H152.929V23.7091H151.919Z" fill="#666F85"/>
<path d="M165.547 23.8181C165.112 23.8365 164.677 23.7653 164.271 23.6089C163.864 23.4525 163.494 23.2143 163.183 22.9091C162.884 22.5844 162.654 22.2031 162.506 21.7877C162.357 21.3723 162.294 20.9313 162.319 20.4909C162.305 19.884 162.436 19.2824 162.701 18.7363C162.94 18.2591 163.309 17.8589 163.765 17.5818C164.245 17.3016 164.791 17.157 165.347 17.1636C165.863 17.1458 166.374 17.2751 166.819 17.5363C167.219 17.7875 167.535 18.1512 167.729 18.5818C167.955 19.0904 168.064 19.6435 168.047 20.2V20.5727H163.101V20H167.374L167.156 20.1636C167.187 19.5973 167.027 19.037 166.701 18.5727C166.534 18.378 166.324 18.2249 166.087 18.1255C165.85 18.0261 165.594 17.9831 165.338 18C165.054 17.9878 164.771 18.0424 164.512 18.1592C164.253 18.276 164.025 18.4519 163.847 18.6727C163.463 19.1983 163.273 19.841 163.31 20.4909V20.6091C163.263 21.269 163.475 21.9214 163.901 22.4272C164.121 22.6392 164.382 22.8036 164.669 22.91C164.955 23.0163 165.26 23.0624 165.565 23.0454C165.933 23.0494 166.298 22.991 166.647 22.8727C166.998 22.7465 167.321 22.5553 167.601 22.3091L167.956 23.0363C167.655 23.3206 167.295 23.5348 166.901 23.6636C166.461 23.7877 166.004 23.8399 165.547 23.8181Z" fill="#666F85"/>
<path d="M172.056 23.8181C171.539 23.8373 171.028 23.7013 170.589 23.4275C170.15 23.1536 169.802 22.7546 169.592 22.2818C169.335 21.7112 169.214 21.0889 169.238 20.4636C169.216 19.8384 169.337 19.2165 169.592 18.6454C169.805 18.1833 170.146 17.7921 170.574 17.5181C171.019 17.2457 171.534 17.1068 172.056 17.1181C172.586 17.1053 173.107 17.2578 173.547 17.5545C173.963 17.8288 174.263 18.2461 174.392 18.7272H174.247V14.3363H175.274V23.709H174.256V22.1818H174.392C174.272 22.6719 173.974 23.0998 173.556 23.3818C173.112 23.6775 172.589 23.8299 172.056 23.8181ZM172.274 22.9818C172.547 22.9923 172.818 22.9414 173.068 22.8328C173.318 22.7243 173.541 22.5608 173.719 22.3545C174.113 21.8333 174.307 21.1881 174.265 20.5363C174.307 19.8845 174.113 19.2393 173.719 18.7181C173.542 18.5102 173.32 18.345 173.069 18.2348C172.819 18.1246 172.547 18.0723 172.274 18.0818C172.001 18.0723 171.729 18.1246 171.479 18.2348C171.228 18.345 171.006 18.5102 170.829 18.7181C170.435 19.2393 170.241 19.8845 170.283 20.5363C170.241 21.1881 170.435 21.8333 170.829 22.3545C171.007 22.5608 171.23 22.7243 171.48 22.8328C171.73 22.9414 172.001 22.9923 172.274 22.9818Z" fill="#666F85"/>
<path d="M177.019 26.5999L176.774 25.7454C177.117 25.6693 177.452 25.5597 177.774 25.4181C178.033 25.3087 178.263 25.1407 178.447 24.9272C178.638 24.6987 178.792 24.4408 178.901 24.1636L179.229 23.4181V23.8454L176.438 17.3181H177.556L179.865 22.9272H179.529L181.756 17.3181H182.838L179.938 24.2454C179.791 24.6063 179.602 24.9481 179.374 25.2636C179.194 25.522 178.973 25.7492 178.719 25.9363C178.489 26.1157 178.231 26.2569 177.956 26.3545C177.65 26.4597 177.337 26.5418 177.019 26.5999Z" fill="#666F85"/>
<path d="M186.301 23.8181C185.776 23.8343 185.257 23.6952 184.81 23.4181C184.376 23.1439 184.032 22.7489 183.819 22.2818C183.57 21.709 183.452 21.0878 183.474 20.4636C183.454 19.8395 183.572 19.2186 183.819 18.6454C184.032 18.1807 184.377 17.7887 184.81 17.5181C185.258 17.244 185.776 17.1051 186.301 17.1181C186.833 17.1036 187.356 17.2597 187.792 17.5636C188.203 17.8453 188.499 18.2644 188.629 18.7454H188.474L188.61 17.2363H189.61C189.61 17.4818 189.556 17.7272 189.538 17.9818C189.519 18.2363 189.538 18.4727 189.538 18.709V23.6272H188.51V22.1999H188.647C188.527 22.6875 188.228 23.1123 187.81 23.3908C187.365 23.6886 186.837 23.8381 186.301 23.8181ZM186.501 22.9818C186.775 22.9937 187.049 22.9435 187.3 22.8348C187.552 22.7262 187.776 22.562 187.956 22.3545C188.337 21.8277 188.523 21.1851 188.483 20.5363C188.525 19.8873 188.338 19.2442 187.956 18.7181C187.771 18.5179 187.547 18.358 187.297 18.2487C187.048 18.1394 186.778 18.083 186.506 18.083C186.233 18.083 185.964 18.1394 185.714 18.2487C185.465 18.358 185.241 18.5179 185.056 18.7181C184.665 19.2405 184.475 19.8856 184.519 20.5363C184.475 21.187 184.665 21.8321 185.056 22.3545C185.238 22.5657 185.467 22.7322 185.724 22.841C185.981 22.9497 186.259 22.9979 186.538 22.9818H186.501Z" fill="#666F85"/>
<path d="M194.992 23.7091V14.7363H195.901L199.538 22.8636H199.165L202.801 14.7363H203.71V23.7091H202.665V16.1H203.047L199.647 23.7091H198.947L195.538 16.1H195.919V23.7091H194.992Z" fill="#666F85"/>
<path d="M208.619 23.8181C208.184 23.837 207.75 23.7661 207.343 23.6096C206.936 23.4532 206.566 23.2148 206.256 22.9091C205.947 22.5894 205.707 22.2099 205.551 21.794C205.395 21.3781 205.325 20.9347 205.347 20.4909C205.332 19.884 205.463 19.2824 205.729 18.7363C205.968 18.2567 206.341 17.856 206.801 17.5818C207.28 17.2994 207.827 17.1547 208.383 17.1636C208.899 17.1458 209.41 17.2751 209.856 17.5363C210.253 17.7903 210.569 18.1532 210.765 18.5818C210.987 19.0917 211.096 19.6439 211.083 20.2V20.5727H206.129V20H210.41L210.192 20.1636C210.225 19.5958 210.061 19.0339 209.729 18.5727C209.564 18.377 209.356 18.2231 209.12 18.1236C208.885 18.024 208.629 17.9817 208.374 18C208.09 17.9878 207.808 18.0424 207.549 18.1592C207.29 18.276 207.062 18.4519 206.883 18.6727C206.493 19.1951 206.302 19.8402 206.347 20.4909V20.6091C206.299 21.269 206.511 21.9214 206.938 22.4272C207.156 22.6406 207.418 22.8059 207.704 22.9123C207.991 23.0188 208.296 23.0641 208.601 23.0454C208.966 23.0494 209.329 22.991 209.674 22.8727C210.028 22.7466 210.354 22.5554 210.638 22.3091L210.992 23.0363C210.687 23.308 210.327 23.5124 209.938 23.6363C209.511 23.7667 209.066 23.8281 208.619 23.8181Z" fill="#666F85"/>
<path d="M212.665 23.7091V18.8545C212.665 18.6 212.665 18.3454 212.665 18.0818C212.665 17.8181 212.665 17.5636 212.61 17.3181H213.574L213.701 18.8727H213.574C213.642 18.5365 213.795 18.2234 214.019 17.9636C214.218 17.7202 214.475 17.5297 214.765 17.4091C215.051 17.2825 215.361 17.2175 215.674 17.2181H216.01C216.104 17.2242 216.196 17.2457 216.283 17.2818V18.1909C216.168 18.15 216.049 18.1196 215.929 18.1H215.565C215.221 18.0913 214.882 18.1864 214.592 18.3727C214.328 18.542 214.112 18.7769 213.965 19.0545C213.826 19.3373 213.754 19.6485 213.756 19.9636V23.7363L212.665 23.7091Z" fill="#666F85"/>
<path d="M217.328 23.709V14.3363H218.356V20.1545L221.319 17.3181H222.665L219.165 20.6545V20.1272L222.965 23.709H221.628L218.374 20.6999V23.709H217.328Z" fill="#666F85"/>
<path d="M226.556 23.8181C226.119 23.8372 225.683 23.7663 225.275 23.6099C224.867 23.4536 224.495 23.215 224.183 22.909C223.884 22.5844 223.654 22.2031 223.506 21.7876C223.357 21.3722 223.294 20.9312 223.319 20.4909C223.305 19.8839 223.436 19.2824 223.701 18.7363C223.941 18.2567 224.313 17.856 224.774 17.5818C225.25 17.3006 225.794 17.1559 226.347 17.1636C226.866 17.1471 227.379 17.2762 227.829 17.5363C228.226 17.7895 228.542 18.1526 228.738 18.5818C228.964 19.0903 229.073 19.6435 229.056 20.1999V20.5727H224.11V19.9999H228.383L228.165 20.1636C228.201 19.5968 228.04 19.035 227.71 18.5727C227.543 18.378 227.333 18.2249 227.096 18.1255C226.859 18.026 226.603 17.9831 226.347 17.9999C226.063 17.9878 225.78 18.0424 225.521 18.1592C225.262 18.276 225.035 18.4519 224.856 18.6727C224.475 19.1995 224.289 19.842 224.329 20.4909V20.609C224.302 20.9361 224.341 21.2651 224.443 21.5771C224.544 21.8891 224.706 22.178 224.919 22.4272C225.137 22.6394 225.397 22.804 225.682 22.9104C225.967 23.0169 226.27 23.0628 226.574 23.0454C226.942 23.0494 227.308 22.991 227.656 22.8727C227.991 22.7434 228.3 22.5522 228.565 22.309L228.929 23.0363C228.623 23.3189 228.26 23.5328 227.865 23.6636C227.439 23.7838 226.998 23.836 226.556 23.8181Z" fill="#666F85"/>
<path d="M230.247 23.709V23.0181L234.547 17.8545V18.1181H230.238V17.3181H235.501V17.9999L231.147 23.1999V22.909H235.692V23.709H230.247Z" fill="#666F85"/>
<path d="M237.092 15.8636V14.709H238.365V15.8636H237.092ZM237.219 23.709V17.3454H238.247V23.709H237.219Z" fill="#666F85"/>
<path d="M137.765 3.63629H136.856V36.3636H137.765V3.63629Z" fill="#666F85"/>
</g>
<defs>
<clipPath id="clip0_407_10057">
<rect width="237.518" height="40" fill="white" transform="translate(0.84668 -6.10352e-05)"/>
</clipPath>
</defs>
</svg>
