<svg width="168" height="40" viewBox="0 0 168 40" fill="none" xmlns="http://www.w3.org/2000/svg">
<path d="M47.4032 20.0001L12.761 0.00012207V40.0001L47.4032 20.0001Z" fill="#39C2D7"/>
<mask id="mask0_407_9199" style="mask-type:luminance" maskUnits="userSpaceOnUse" x="0" y="0" width="168" height="40">
<path d="M167.157 -6.10352e-05H0.540771V39.9999H167.157V-6.10352e-05Z" fill="white"/>
</mask>
<g mask="url(#mask0_407_9199)">
<path d="M29.26 14.2535L26.9114 11.4352C26.7463 11.237 26.4564 11.2003 26.2582 11.3618L20.4307 16.2022H20.6215L26.3756 11.4242C26.5151 11.3068 26.7242 11.3324 26.8417 11.4719L29.1719 14.2756C29.2894 14.415 29.271 14.6169 29.1279 14.7343L27.3518 16.2022H27.6086L29.194 14.8921C29.3921 14.7269 29.4178 14.448 29.2527 14.2535" fill="white"/>
<path d="M18.0379 16.2022L21.9498 9.95635C22.0452 9.80222 22.2471 9.76185 22.4012 9.85727L25.0911 11.5417L24.7939 11.7912L22.5627 10.3967C22.3462 10.2609 22.0599 10.316 21.9241 10.5325L18.3755 16.1985H18.5223L22.0563 10.5582C22.1553 10.4041 22.3572 10.36 22.515 10.4591L24.7278 11.8463L19.4728 16.2022H19.9865L26.4673 10.8187C26.6067 10.705 26.8122 10.727 26.9296 10.8664L29.8177 14.338C29.9315 14.4774 29.9131 14.6719 29.7737 14.7894L28.0636 16.2022H28.5774L29.6342 15.3325L30.0049 16.1912L30.0085 16.2022H30.1003C30.1003 16.2022 30.0966 16.2022 30.0929 16.1949L29.7003 15.2848L29.9829 15.0536C29.9829 15.0536 29.9902 15.0352 29.9975 15.0316L30.504 16.2059H30.8599L30.203 14.683C30.2434 14.4921 30.203 14.2903 30.0673 14.1288L29.8544 13.8756L29.1241 12.1692C28.981 11.8352 28.5957 11.6848 28.2654 11.8279L28.181 11.8646L27.1829 10.6646C26.9517 10.3857 26.5407 10.349 26.2618 10.5802L25.3627 11.3288L22.581 9.58937C22.2728 9.39855 21.8691 9.47928 21.6783 9.78387L17.6562 16.2059H18.0416L18.0379 16.2022ZM28.8232 12.2976L29.1205 12.9912L28.3975 12.1252C28.5627 12.0591 28.7535 12.1362 28.8232 12.2976Z" fill="white"/>
<path d="M29.348 20.4592H32.3902V17.2959C32.3902 16.8298 32.0379 16.4628 31.5719 16.4628H16.3866C15.9205 16.4628 15.5168 16.8298 15.5168 17.2959V27.3289C15.5168 27.7949 15.9205 28.1839 16.3866 28.1839H31.5719C32.0379 28.1839 32.3902 27.7949 32.3902 27.3289V24.0848H29.348C28.882 24.0848 28.5003 23.7142 28.5003 23.2481V21.3326C28.5003 20.8665 28.882 20.4555 29.348 20.4555M31.3921 19.894C31.3921 19.9564 31.348 20.0078 31.2857 20.0078C31.2233 20.0078 31.1792 19.9564 31.1792 19.894V19.2151C31.1792 19.1527 31.2233 19.1014 31.2857 19.1014C31.348 19.1014 31.3921 19.1527 31.3921 19.2151V19.894ZM31.2123 17.7619C31.271 17.7399 31.3334 17.7693 31.3554 17.828C31.3847 17.905 31.3921 17.9858 31.3921 18.0702V18.5436C31.3921 18.6059 31.348 18.6573 31.2857 18.6573C31.2233 18.6573 31.1792 18.6059 31.1792 18.5436V18.0702C31.1792 18.0151 31.1646 17.9601 31.1462 17.9087C31.1242 17.85 31.1499 17.7876 31.2086 17.7619M30.049 17.3546H30.7279C30.7902 17.3546 30.8416 17.4243 30.8416 17.4867C30.8416 17.5491 30.7939 17.6151 30.7315 17.6151C30.7315 17.6151 30.7279 17.6151 30.7242 17.6151H30.049C29.9866 17.6115 29.9352 17.5491 29.9352 17.4867C29.9352 17.4243 29.9866 17.3546 30.049 17.3546ZM28.6912 17.3546H29.3701C29.4324 17.3546 29.4838 17.4243 29.4838 17.4867C29.4838 17.5491 29.4324 17.6188 29.3701 17.6188H28.6912C28.6288 17.6188 28.5774 17.5491 28.5774 17.4867C28.5774 17.4243 28.6288 17.3546 28.6912 17.3546ZM31.1792 24.639C31.1792 24.5766 31.2233 24.5252 31.2857 24.5252C31.348 24.5252 31.3921 24.5766 31.3921 24.639V25.3179C31.3921 25.3803 31.348 25.4316 31.2857 25.4316C31.2233 25.4316 31.1792 25.3803 31.1792 25.3179V24.639ZM31.1609 26.639C31.1719 26.5986 31.1792 26.5546 31.1792 26.5105V25.9968C31.1792 25.9344 31.2233 25.883 31.2857 25.883C31.348 25.883 31.3921 25.9344 31.3921 25.9968V26.5105C31.3921 26.5766 31.3921 26.639 31.3701 26.7014C31.3554 26.7491 31.315 26.7821 31.2673 26.7821C31.2563 26.7821 31.2453 26.7821 31.2343 26.7784C31.1756 26.7601 31.1425 26.6977 31.1609 26.639ZM30.093 26.9729H30.7279C30.7279 26.9729 30.7499 26.9656 30.7646 26.9656C30.8269 26.9619 30.882 27.0059 30.8857 27.0683C30.8893 27.1307 30.8453 27.1748 30.7829 27.1784C30.7646 27.1784 30.7462 27.1784 30.7315 27.1784H30.0967C30.0343 27.1784 29.9829 27.1344 29.9829 27.072C29.9829 27.0096 30.0343 26.9656 30.0967 26.9656M28.7425 26.9656H29.4214C29.4838 26.9656 29.5352 27.0096 29.5352 27.072C29.5352 27.1344 29.4838 27.1784 29.4214 27.1784H28.7425C28.6801 27.1784 28.6288 27.1344 28.6288 27.072C28.6288 27.0096 28.6801 26.9656 28.7425 26.9656ZM16.5737 17.8683C16.6508 17.6004 16.8893 17.4096 17.1682 17.3876C17.2306 17.3803 17.2857 17.428 17.2893 17.4904C17.293 17.5527 17.249 17.6078 17.1866 17.6115C17.0031 17.6261 16.8416 17.7546 16.7902 17.9344C16.7756 17.9821 16.7315 18.0151 16.6838 18.0151C16.6728 18.0151 16.6618 18.0151 16.6508 18.0115C16.5921 17.9931 16.559 17.9307 16.5737 17.872M16.5223 18.5803C16.5223 18.5179 16.5664 18.4665 16.6288 18.4665C16.6912 18.4665 16.7352 18.5179 16.7352 18.5803V19.2592C16.7352 19.3215 16.6912 19.3729 16.6288 19.3729C16.5664 19.3729 16.5223 19.3215 16.5223 19.2592V18.5803ZM16.5223 19.9344C16.5223 19.872 16.5664 19.8206 16.6288 19.8206C16.6912 19.8206 16.7352 19.872 16.7352 19.9344V20.6133C16.7352 20.6757 16.6912 20.7271 16.6288 20.7271C16.5664 20.7271 16.5223 20.6757 16.5223 20.6133V19.9344ZM16.5223 21.2885C16.5223 21.2261 16.5664 21.1748 16.6288 21.1748C16.6912 21.1748 16.7352 21.2261 16.7352 21.2885V21.9674C16.7352 22.0298 16.6912 22.0812 16.6288 22.0812C16.5664 22.0812 16.5223 22.0298 16.5223 21.9674V21.2885ZM16.5223 22.6463C16.5223 22.5839 16.5664 22.5326 16.6288 22.5326C16.6912 22.5326 16.7352 22.5839 16.7352 22.6463V23.3252C16.7352 23.3876 16.6912 23.439 16.6288 23.439C16.5664 23.439 16.5223 23.3876 16.5223 23.3252V22.6463ZM16.5223 24.0004C16.5223 23.9381 16.5664 23.8867 16.6288 23.8867C16.6912 23.8867 16.7352 23.9381 16.7352 24.0004V24.6793C16.7352 24.7417 16.6912 24.7931 16.6288 24.7931C16.5664 24.7931 16.5223 24.7417 16.5223 24.6793V24.0004ZM16.5223 26.0335V25.3546C16.5223 25.2922 16.5664 25.2408 16.6288 25.2408C16.6912 25.2408 16.7352 25.2922 16.7352 25.3546V26.0335C16.7352 26.0959 16.6912 26.1472 16.6288 26.1472C16.5664 26.1472 16.5223 26.0959 16.5223 26.0335ZM17.2233 27.1784C16.9444 27.1784 16.6912 27.0059 16.5921 26.7454C16.5701 26.6867 16.5994 26.6206 16.6581 26.5986C16.7168 26.5766 16.7792 26.606 16.8049 26.6647C16.871 26.8371 17.0398 26.9546 17.2233 26.9546C17.2857 26.9546 17.337 27.0023 17.337 27.0647C17.337 27.127 17.2857 27.1748 17.2233 27.1748M17.8581 17.3436H18.537C18.5994 17.3436 18.6508 17.4133 18.6508 17.4757C18.6508 17.5381 18.5994 17.6078 18.537 17.6078H17.8581C17.7957 17.6078 17.7444 17.5381 17.7444 17.4757C17.7444 17.4133 17.7957 17.3436 17.8581 17.3436ZM18.5811 27.1748H17.9022C17.8398 27.1748 17.7884 27.1307 17.7884 27.0683C17.7884 27.0059 17.8398 26.9619 17.9022 26.9619H18.5811C18.6435 26.9619 18.6948 27.0059 18.6948 27.0683C18.6948 27.1307 18.6435 27.1748 18.5811 27.1748ZM19.2159 17.3436H19.8948C19.9572 17.3436 20.0086 17.4133 20.0086 17.4757C20.0086 17.5381 19.9572 17.6078 19.8948 17.6078H19.2159C19.1535 17.6078 19.1022 17.5381 19.1022 17.4757C19.1022 17.4133 19.1535 17.3436 19.2159 17.3436ZM19.9389 27.1748H19.26C19.1976 27.1748 19.1462 27.1307 19.1462 27.0683C19.1462 27.0059 19.1976 26.9619 19.26 26.9619H19.9389C20.0012 26.9619 20.0526 27.0059 20.0526 27.0683C20.0526 27.1307 20.0012 27.1748 19.9389 27.1748ZM20.5737 17.3436H21.2526C21.315 17.3436 21.3664 17.4133 21.3664 17.4757C21.3664 17.5381 21.315 17.6078 21.2526 17.6078H20.5737C20.5113 17.6078 20.46 17.5381 20.46 17.4757C20.46 17.4133 20.5113 17.3436 20.5737 17.3436ZM21.2967 27.1748H20.6178C20.5554 27.1748 20.504 27.1307 20.504 27.0683C20.504 27.0059 20.5554 26.9619 20.6178 26.9619H21.2967C21.359 26.9619 21.4104 27.0059 21.4104 27.0683C21.4104 27.1307 21.359 27.1748 21.2967 27.1748ZM21.9315 17.3436H22.6104C22.6728 17.3436 22.7242 17.4133 22.7242 17.4757C22.7242 17.5381 22.6728 17.6078 22.6104 17.6078H21.9315C21.8691 17.6078 21.8178 17.5381 21.8178 17.4757C21.8178 17.4133 21.8691 17.3436 21.9315 17.3436ZM22.6545 27.1748H21.9756C21.9132 27.1748 21.8618 27.1307 21.8618 27.0683C21.8618 27.0059 21.9132 26.9619 21.9756 26.9619H22.6545C22.7168 26.9619 22.7682 27.0059 22.7682 27.0683C22.7682 27.1307 22.7168 27.1748 22.6545 27.1748ZM23.2893 17.3436H23.9682C24.0306 17.3436 24.082 17.4133 24.082 17.4757C24.082 17.5381 24.0306 17.6078 23.9682 17.6078H23.2893C23.2269 17.6078 23.1756 17.5381 23.1756 17.4757C23.1756 17.4133 23.2269 17.3436 23.2893 17.3436ZM24.0123 27.1748H23.3334C23.271 27.1748 23.2196 27.1307 23.2196 27.0683C23.2196 27.0059 23.271 26.9619 23.3334 26.9619H24.0123C24.0746 26.9619 24.126 27.0059 24.126 27.0683C24.126 27.1307 24.0746 27.1748 24.0123 27.1748ZM24.6471 17.3436H25.326C25.3884 17.3436 25.4398 17.4133 25.4398 17.4757C25.4398 17.5381 25.3884 17.6078 25.326 17.6078H24.6471C24.5847 17.6078 24.5334 17.5381 24.5334 17.4757C24.5334 17.4133 24.5847 17.3436 24.6471 17.3436ZM25.3701 27.1748H24.6912C24.6288 27.1748 24.5774 27.1307 24.5774 27.0683C24.5774 27.0059 24.6288 26.9619 24.6912 26.9619H25.3701C25.4324 26.9619 25.4838 27.0059 25.4838 27.0683C25.4838 27.1307 25.4324 27.1748 25.3701 27.1748ZM26.0049 17.3436H26.6838C26.7462 17.3436 26.7976 17.4133 26.7976 17.4757C26.7976 17.5381 26.7462 17.6078 26.6838 17.6078H26.0049C25.9425 17.6078 25.8912 17.5381 25.8912 17.4757C25.8912 17.4133 25.9425 17.3436 26.0049 17.3436ZM26.7279 27.1748H26.049C25.9866 27.1748 25.9352 27.1307 25.9352 27.0683C25.9352 27.0059 25.9866 26.9619 26.049 26.9619H26.7279C26.7902 26.9619 26.8416 27.0059 26.8416 27.0683C26.8416 27.1307 26.7902 27.1748 26.7279 27.1748ZM27.3627 17.3436H28.0416C28.104 17.3436 28.1554 17.4133 28.1554 17.4757C28.1554 17.5381 28.104 17.6078 28.0416 17.6078H27.3627C27.3003 17.6078 27.249 17.5381 27.249 17.4757C27.249 17.4133 27.3003 17.3436 27.3627 17.3436ZM28.0857 27.1748H27.4068C27.3444 27.1748 27.293 27.1307 27.293 27.0683C27.293 27.0059 27.3444 26.9619 27.4068 26.9619H28.0857C28.148 26.9619 28.1994 27.0059 28.1994 27.0683C28.1994 27.1307 28.148 27.1748 28.0857 27.1748Z" fill="white"/>
<path d="M29.8289 21.6883C29.5646 21.9525 29.5279 22.3599 29.7224 22.6644C29.6087 22.4039 29.6564 22.0883 29.8692 21.8755C30.1445 21.6002 30.5922 21.6002 30.8711 21.8755C31.1243 22.1287 31.1463 22.5213 30.9371 22.7966C31.2417 22.492 31.2417 21.9929 30.9371 21.6883C30.6325 21.3837 30.1335 21.3837 29.8289 21.6883ZM32.4454 20.7745H29.3481C29.0362 20.7745 28.7646 21.0241 28.7646 21.336V23.2516C28.7646 23.5635 29.0399 23.8241 29.3481 23.8241H32.4454C32.7573 23.8241 33.0215 23.5599 33.0215 23.2516V21.336C33.0215 21.0241 32.7573 20.7745 32.4454 20.7745ZM30.3903 23.314C29.7958 23.314 29.3114 22.8296 29.3114 22.2351C29.3114 21.6406 29.7958 21.1562 30.3903 21.1562C30.9848 21.1562 31.4692 21.6406 31.4692 22.2351C31.4692 22.8296 30.9848 23.314 30.3903 23.314Z" fill="white"/>
</g>
<mask id="mask1_407_9199" style="mask-type:luminance" maskUnits="userSpaceOnUse" x="22" y="13" width="5" height="4">
<path d="M26.9957 13.7286H22.3389V16.4626H26.9957V13.7286Z" fill="white"/>
</mask>
<g mask="url(#mask1_407_9199)">
<path d="M23.3628 14.4589C22.5555 15.1232 22.438 16.3158 23.1023 17.1232C23.7665 17.9305 24.9555 18.0479 25.7628 17.3837C26.5702 16.7195 26.6876 15.5305 26.0234 14.7232C25.3592 13.9158 24.1702 13.7984 23.3628 14.4626" fill="white"/>
<path d="M23.4693 14.5912C22.7354 15.1967 22.629 16.2829 23.2308 17.0168C23.8363 17.7508 24.9225 17.8609 25.6565 17.2554C26.3904 16.6499 26.4969 15.5636 25.895 14.8297C25.2895 14.0957 24.2033 13.9857 23.4693 14.5912Z" fill="#39C2D7"/>
<path d="M23.3372 15.2113L23.55 15.0352L23.7775 15.3141L24.0051 15.5893L24.4601 14.8223L24.5996 14.9911L24.1445 15.7581L24.1812 15.8021L24.2179 15.8462L24.4675 15.4352L24.673 15.0829L24.739 15.1636L24.8051 15.2443C24.8051 15.2443 24.8124 15.2554 24.8051 15.259L24.3647 15.993C24.3647 15.993 24.3574 16.0113 24.3537 16.0187L24.728 16.4737L25.1023 16.9287V16.9361C25.2491 16.782 25.3445 16.6021 25.3849 16.393C25.4289 16.1654 25.4069 15.9489 25.3152 15.7434C25.2711 15.648 25.2197 15.5636 25.1537 15.4865L25.3702 15.3104C25.5133 15.4865 25.6051 15.6847 25.6491 15.9086C25.6858 16.0774 25.6895 16.2462 25.6601 16.415C25.6344 16.5765 25.5794 16.7306 25.4986 16.8737C25.3922 17.0609 25.2491 17.2113 25.0693 17.3287L24.6363 16.804L24.2032 16.2755C24.2032 16.2755 24.1959 16.2902 24.1775 16.3196L23.917 16.7563L23.7775 16.5875L24.0638 16.1104L23.9867 16.015C23.9757 16.0407 23.9574 16.0737 23.9353 16.1141C23.9133 16.1544 23.8986 16.1801 23.8913 16.1875L23.7409 16.4407C23.7409 16.4407 23.7372 16.448 23.7262 16.459C23.7188 16.4737 23.7078 16.4847 23.7005 16.4921L23.561 16.3232L23.8473 15.8499L23.5867 15.5343L23.3262 15.2187L23.3372 15.2113Z" fill="white"/>
</g>
<path d="M56.1187 28.4516C56.1187 29.769 55.2856 30.7158 53.8214 30.7158C52.3572 30.7158 51.5205 29.769 51.5205 28.4516C51.5205 27.1342 52.3609 26.1874 53.8214 26.1874C55.282 26.1874 56.1187 27.1378 56.1187 28.4516ZM53.5242 25.5232C53.5242 25.8094 53.3701 25.9782 53.0251 25.9782C52.7095 25.9782 52.5444 25.8094 52.5444 25.5232C52.5444 25.2369 52.7058 25.0681 53.0251 25.0681C53.3664 25.0681 53.5242 25.2369 53.5242 25.5232ZM52.7205 28.4589C52.7205 29.3433 53.1315 29.8167 53.8214 29.8167C54.5113 29.8167 54.915 29.3433 54.915 28.4589C54.915 27.5745 54.5113 27.0901 53.8214 27.0901C53.1315 27.0901 52.7205 27.5819 52.7205 28.4589ZM55.1022 25.5232C55.1022 25.8094 54.948 25.9782 54.6031 25.9782C54.2875 25.9782 54.1297 25.8094 54.1297 25.5232C54.1297 25.2369 54.2838 25.0681 54.6031 25.0681C54.9444 25.0681 55.1022 25.2369 55.1022 25.5232Z" fill="#39C2D7"/>
<path d="M59.7406 30.6275H58.8305L58.7388 30.2165C58.515 30.5578 58.1113 30.6899 57.7113 30.6899C56.6838 30.6899 56.2507 29.8752 56.2507 29.0238C56.2507 28.1174 56.7094 27.3321 57.7186 27.3321C58.2287 27.3321 58.515 27.5266 58.6838 27.7357V26.0734H59.7406V30.6275ZM57.326 29.0238C57.326 29.5853 57.5828 29.8825 58.0232 29.8825C58.4342 29.8825 58.7058 29.5779 58.7058 29.0238C58.7058 28.4403 58.4305 28.1394 58.0232 28.1394C57.5755 28.1394 57.326 28.4367 57.326 29.0238Z" fill="#39C2D7"/>
<path d="M61.0618 29.3356C61.0691 29.7577 61.4214 29.8788 61.9205 29.8788C62.3315 29.8788 62.7352 29.7466 63.0031 29.6366L63.1902 30.3962C62.7682 30.5944 62.3132 30.6934 61.8104 30.6934C60.6104 30.6934 59.9866 30.0916 59.9866 29.0311C59.9866 27.9705 60.6104 27.332 61.704 27.332C62.6508 27.332 63.2783 27.8678 63.2783 28.8806C63.2783 29.1118 63.249 29.3356 63.249 29.3356H61.0655H61.0618ZM61.0912 28.6714H62.2838C62.2838 28.3522 62.1334 28.143 61.7297 28.143C61.4141 28.143 61.1756 28.2311 61.0875 28.6714H61.0912Z" fill="#39C2D7"/>
<path d="M68.5188 28.5872V30.6276H67.4619V28.6056C67.4619 28.3744 67.3812 28.1395 67.0509 28.1395C66.6216 28.1395 66.5702 28.5505 66.5702 28.767V30.6276H65.5133V28.6129C65.5133 28.3964 65.4399 28.1395 65.1096 28.1395C64.7537 28.1395 64.6252 28.4257 64.6252 28.7303V30.6276H63.5684V27.3909H64.4895L64.5518 27.8459C64.7023 27.5707 64.9702 27.3285 65.4362 27.3285C65.7849 27.3285 66.1151 27.4643 66.2876 27.8936C66.4931 27.5964 66.8051 27.3285 67.3885 27.3285C67.9353 27.3285 68.5188 27.5597 68.5188 28.5835V28.5872Z" fill="#39C2D7"/>
<path d="M69.8399 29.3356C69.8472 29.7577 70.1995 29.8788 70.6986 29.8788C71.1096 29.8788 71.5133 29.7466 71.7812 29.6366L71.9683 30.3962C71.5463 30.5944 71.0913 30.6934 70.5885 30.6934C69.3885 30.6934 68.7646 30.0916 68.7646 29.0311C68.7646 27.9705 69.3885 27.332 70.4821 27.332C71.4289 27.332 72.0564 27.8678 72.0564 28.8806C72.0564 29.1118 72.027 29.3356 72.027 29.3356H69.8435H69.8399ZM69.8692 28.6714H71.0619C71.0619 28.3522 70.9114 28.143 70.5078 28.143C70.1922 28.143 69.9536 28.2311 69.8656 28.6714H69.8692Z" fill="#39C2D7"/>
<path d="M75.7517 30.6277H74.5334L73.3958 27.391H74.4783L75.1609 29.6075L75.8435 27.391H76.8967L75.7517 30.6277Z" fill="#39C2D7"/>
<path d="M77.8802 29.3356C77.8875 29.7577 78.2398 29.8788 78.7389 29.8788C79.1499 29.8788 79.5536 29.7466 79.8214 29.6366L80.0086 30.3962C79.5866 30.5944 79.1315 30.6934 78.6288 30.6934C77.4288 30.6934 76.8049 30.0916 76.8049 29.0311C76.8049 27.9705 77.4288 27.332 78.5224 27.332C79.4691 27.332 80.0967 27.8678 80.0967 28.8806C80.0967 29.1118 80.0673 29.3356 80.0673 29.3356H77.8838H77.8802ZM77.9095 28.6714H79.1022C79.1022 28.3522 78.9517 28.143 78.5481 28.143C78.2325 28.143 77.9939 28.2311 77.9058 28.6714H77.9095Z" fill="#39C2D7"/>
<path d="M85.1865 27.1558H83.047V28.0512H84.9003V28.9356H83.047V29.743H85.2195V30.6274H81.9094V26.2714H85.1865V27.1558Z" fill="#39C2D7"/>
<path d="M86.6177 29.6769C86.6177 29.8457 86.7314 29.8824 86.8672 29.8824C86.9553 29.8824 87.036 29.8751 87.1351 29.8714L87.1645 30.631C86.9406 30.6677 86.7791 30.6934 86.4856 30.6934C85.8213 30.6934 85.5571 30.3962 85.5571 29.8787V26.0769H86.614V29.6806L86.6177 29.6769Z" fill="#39C2D7"/>
<path d="M88.2434 29.3356C88.2508 29.7577 88.6031 29.8788 89.1022 29.8788C89.5132 29.8788 89.9168 29.7466 90.1847 29.6366L90.3719 30.3962C89.9499 30.5944 89.4948 30.6934 88.9921 30.6934C87.7921 30.6934 87.1682 30.0916 87.1682 29.0311C87.1682 27.9705 87.7921 27.332 88.8856 27.332C89.8324 27.332 90.46 27.8678 90.46 28.8806C90.46 29.1118 90.4306 29.3356 90.4306 29.3356H88.2471H88.2434ZM88.2728 28.6714H89.4655C89.4655 28.3522 89.315 28.143 88.9113 28.143C88.5957 28.143 88.3572 28.2311 88.2691 28.6714H88.2728Z" fill="#39C2D7"/>
<path d="M91.8066 28.631L92.8965 27.3943H94.0525L92.8782 28.6714L94.0048 30.631H92.8231L92.1773 29.431L91.8103 29.8347V30.631H90.7534V26.0769H91.8103V28.6347L91.8066 28.631Z" fill="#39C2D7"/>
<path d="M95.3444 27.3944H96.1921V28.1393H95.3444V29.5779C95.3444 29.8751 95.5059 29.9338 95.649 29.9338C95.7921 29.9338 96.0857 29.8715 96.1701 29.8421L96.2178 30.5503C95.9572 30.6494 95.6159 30.6935 95.3591 30.6935C94.7756 30.6935 94.2838 30.5063 94.2838 29.6036V28.143H93.8655V27.3981H94.2838L94.4453 26.4659H95.3407V27.3981L95.3444 27.3944Z" fill="#39C2D7"/>
<path d="M98.5847 28.4586C97.8324 28.3338 97.5388 28.8989 97.5388 29.5338V30.6274H96.4819V27.3907H97.359L97.4397 28.1173C97.5645 27.7687 97.9388 27.2843 98.6287 27.3907L98.5847 28.4549V28.4586Z" fill="#39C2D7"/>
<path d="M102.159 29.0054C102.159 30.0769 101.48 30.6898 100.405 30.6898C99.3298 30.6898 98.6509 30.0733 98.6509 29.0054C98.6509 27.9375 99.3224 27.332 100.405 27.332C101.488 27.332 102.159 27.9338 102.159 29.0054ZM99.7261 29.0164C99.7261 29.5778 99.939 29.8824 100.405 29.8824C100.871 29.8824 101.084 29.5778 101.084 29.0164C101.084 28.4549 100.871 28.1393 100.405 28.1393C99.939 28.1393 99.7261 28.4366 99.7261 29.0164Z" fill="#39C2D7"/>
<path d="M105.561 28.5432V30.6276H104.504V28.6753C104.504 28.2789 104.31 28.1395 104.056 28.1395C103.66 28.1395 103.473 28.5065 103.473 28.9248V30.6276H102.416V27.3909H103.344L103.4 27.8386C103.634 27.5083 103.928 27.3285 104.409 27.3285C104.963 27.3285 105.565 27.4789 105.565 28.5432H105.561Z" fill="#39C2D7"/>
<path d="M107.231 30.6277H106.174V28.1396H105.777V27.3947H107.234V30.6314L107.231 30.6277ZM107.205 26.547C107.205 26.8772 106.999 27.0277 106.64 27.0277C106.302 27.0277 106.093 26.8772 106.093 26.547C106.093 26.2167 106.306 26.0699 106.64 26.0699C106.999 26.0699 107.205 26.2203 107.205 26.547Z" fill="#39C2D7"/>
<path d="M108.776 28.631L109.866 27.3943H111.021L109.847 28.6714L110.974 30.631H109.792L109.146 29.431L108.779 29.8347V30.631H107.722V26.0769H108.779V28.6347L108.776 28.631Z" fill="#39C2D7"/>
<path d="M114.911 26.2753C115.902 26.2753 116.431 27.035 116.431 27.7762C116.431 28.6019 115.895 29.2808 114.926 29.2808H113.788V30.6313H112.651V26.2753H114.915H114.911ZM113.785 27.1597V28.3964H114.592C114.988 28.3964 115.264 28.1909 115.264 27.7799C115.264 27.4203 114.988 27.1561 114.592 27.1561H113.785V27.1597Z" fill="#39C2D7"/>
<path d="M119.609 28.4771V29.6074C119.609 29.7799 119.689 29.8202 119.788 29.8202C119.825 29.8202 119.877 29.8129 119.961 29.8019L120.016 30.5285C119.899 30.5799 119.598 30.6606 119.33 30.6606C118.988 30.6606 118.765 30.5101 118.651 30.2936C118.497 30.5065 118.192 30.69 117.605 30.69C116.871 30.69 116.449 30.367 116.449 29.6991C116.449 28.8771 117.073 28.6533 118.016 28.6533C118.17 28.6533 118.339 28.6643 118.544 28.6789V28.5175C118.544 28.2129 118.295 28.1432 117.954 28.1432C117.568 28.1432 117.132 28.2312 116.798 28.323L116.647 27.5267C117.106 27.3945 117.686 27.3285 118.159 27.3285C119.018 27.3285 119.601 27.5597 119.601 28.4734L119.609 28.4771ZM118.552 29.479V29.3358C118.409 29.3248 118.258 29.3175 118.13 29.3175C117.627 29.3175 117.539 29.4716 117.539 29.6478C117.539 29.9156 117.719 29.967 117.961 29.967C118.265 29.967 118.552 29.8496 118.552 29.4826V29.479Z" fill="#39C2D7"/>
<path d="M122.291 28.4586C121.539 28.3338 121.245 28.8989 121.245 29.5338V30.6274H120.188V27.3907H121.066L121.146 28.1173C121.271 27.7687 121.645 27.2843 122.335 27.3907L122.291 28.4549V28.4586Z" fill="#39C2D7"/>
<path d="M125.502 28.4771V29.6074C125.502 29.7799 125.583 29.8202 125.682 29.8202C125.719 29.8202 125.77 29.8129 125.854 29.8019L125.91 30.5285C125.792 30.5799 125.491 30.6606 125.223 30.6606C124.882 30.6606 124.658 30.5101 124.544 30.2936C124.39 30.5065 124.086 30.69 123.498 30.69C122.765 30.69 122.343 30.367 122.343 29.6991C122.343 28.8771 122.966 28.6533 123.909 28.6533C124.064 28.6533 124.232 28.6643 124.438 28.6789V28.5175C124.438 28.2129 124.188 28.1432 123.847 28.1432C123.462 28.1432 123.025 28.2312 122.691 28.323L122.541 27.5267C122.999 27.3945 123.579 27.3285 124.053 27.3285C124.911 27.3285 125.495 27.5597 125.495 28.4734L125.502 28.4771ZM124.445 29.479V29.3358C124.302 29.3248 124.152 29.3175 124.023 29.3175C123.521 29.3175 123.432 29.4716 123.432 29.6478C123.432 29.9156 123.612 29.967 123.854 29.967C124.159 29.967 124.445 29.8496 124.445 29.4826V29.479Z" fill="#39C2D7"/>
<path d="M131.609 30.6274H130.471V28.943H128.746V30.6274H127.609V26.2714H128.746V28.0512H130.471V26.2714H131.609V30.6274Z" fill="#39C2D7"/>
<path d="M133.414 30.6277H132.357V28.1396H131.961V27.3947H133.418V30.6314L133.414 30.6277ZM133.388 26.547C133.388 26.8772 133.183 27.0277 132.823 27.0277C132.486 27.0277 132.277 26.8772 132.277 26.547C132.277 26.2167 132.489 26.0699 132.823 26.0699C133.183 26.0699 133.388 26.2203 133.388 26.547Z" fill="#39C2D7"/>
<path d="M136.636 28.2203L134.992 29.9048L136.148 29.8791H136.632V30.624H133.788V29.8167L135.462 28.1176L134.13 28.1359H133.832V27.391H136.632V28.2167L136.636 28.2203Z" fill="#39C2D7"/>
<path d="M141.939 28.5872V30.6276H140.882V28.6056C140.882 28.3744 140.801 28.1395 140.471 28.1395C140.042 28.1395 139.994 28.5505 139.994 28.767V30.6276H138.937V28.6129C138.937 28.3964 138.864 28.1395 138.533 28.1395C138.178 28.1395 138.049 28.4257 138.049 28.7303V30.6276H136.992V27.3909H137.913L137.976 27.8459C138.126 27.5707 138.394 27.3285 138.86 27.3285C139.209 27.3285 139.539 27.4643 139.711 27.8936C139.917 27.5964 140.229 27.3285 140.812 27.3285C141.359 27.3285 141.943 27.5597 141.943 28.5835L141.939 28.5872Z" fill="#39C2D7"/>
<path d="M143.26 29.3356C143.267 29.7577 143.62 29.8788 144.119 29.8788C144.53 29.8788 144.933 29.7466 145.201 29.6366L145.388 30.3962C144.966 30.5944 144.511 30.6934 144.009 30.6934C142.809 30.6934 142.185 30.0916 142.185 29.0311C142.185 27.9705 142.809 27.332 143.902 27.332C144.849 27.332 145.477 27.8678 145.477 28.8806C145.477 29.1118 145.447 29.3356 145.447 29.3356H143.264H143.26ZM143.289 28.6714H144.482C144.482 28.3522 144.332 28.143 143.928 28.143C143.612 28.143 143.374 28.2311 143.286 28.6714H143.289Z" fill="#39C2D7"/>
<path d="M146.952 27.3944H147.8V28.1393H146.952V29.5779C146.952 29.8751 147.113 29.9338 147.256 29.9338C147.4 29.9338 147.693 29.8715 147.777 29.8421L147.825 30.5503C147.565 30.6494 147.223 30.6935 146.966 30.6935C146.383 30.6935 145.891 30.5063 145.891 29.6036V28.143H145.473V27.3981H145.891L146.053 26.4659H146.948V27.3981L146.952 27.3944Z" fill="#39C2D7"/>
<path d="M149.109 29.6769C149.109 29.8457 149.223 29.8824 149.359 29.8824C149.447 29.8824 149.528 29.8751 149.627 29.8714L149.656 30.631C149.432 30.6677 149.271 30.6934 148.977 30.6934C148.313 30.6934 148.049 30.3962 148.049 29.8787V26.0769H149.106V29.6806L149.109 29.6769Z" fill="#39C2D7"/>
<path d="M150.735 29.3356C150.742 29.7577 151.095 29.8788 151.594 29.8788C152.005 29.8788 152.409 29.7466 152.676 29.6366L152.864 30.3962C152.442 30.5944 151.987 30.6934 151.484 30.6934C150.284 30.6934 149.66 30.0916 149.66 29.0311C149.66 27.9705 150.284 27.332 151.377 27.332C152.324 27.332 152.952 27.8678 152.952 28.8806C152.952 29.1118 152.922 29.3356 152.922 29.3356H150.739H150.735ZM150.764 28.6714H151.957C151.957 28.3522 151.807 28.143 151.403 28.143C151.087 28.143 150.849 28.2311 150.761 28.6714H150.764Z" fill="#39C2D7"/>
<path d="M155.341 28.4586C154.588 28.3338 154.295 28.8989 154.295 29.5338V30.6274H153.238V27.3907H154.115L154.196 28.1173C154.321 27.7687 154.695 27.2843 155.385 27.3907L155.341 28.4549V28.4586Z" fill="#39C2D7"/>
<path d="M156.827 30.6277H155.77V28.1396H155.374V27.3947H156.831V30.6314L156.827 30.6277ZM156.801 26.547C156.801 26.8772 156.596 27.0277 156.236 27.0277C155.899 27.0277 155.689 26.8772 155.689 26.547C155.689 26.2167 155.902 26.0699 156.236 26.0699C156.596 26.0699 156.801 26.2203 156.801 26.547Z" fill="#39C2D7"/>
<path d="M61.5535 13.3545H57.9425V22.6425H54.8966V13.3545H51.3003V10.9911H61.5535V13.3545Z" fill="#003865"/>
<path d="M69.9791 22.6461H67.4984L67.3333 21.4461C66.7021 22.3452 65.9168 22.8112 64.6544 22.8112C63.1718 22.8112 61.5571 22.4112 61.5571 19.5635V13.9856H64.3865V19.2112C64.3865 20.2755 64.9039 20.6424 65.5681 20.6424C66.6507 20.6424 67.1498 19.6773 67.1498 18.5434V13.9819H69.9791V22.6388V22.6461ZM65.036 11.725C65.036 12.5397 64.57 13.0057 63.6048 13.0057C62.7058 13.0057 62.2213 12.5397 62.2213 11.725C62.2213 10.9103 62.7058 10.4443 63.6048 10.4443C64.57 10.4443 65.036 10.9103 65.036 11.725ZM69.2636 11.725C69.2636 12.5397 68.7975 13.0057 67.8324 13.0057C66.9333 13.0057 66.4672 12.5397 66.4672 11.725C66.4672 10.9103 66.9333 10.4443 67.8324 10.4443C68.7975 10.4443 69.2636 10.9103 69.2636 11.725Z" fill="#003865"/>
<path d="M77.1389 16.8333C75.1242 16.4994 74.3425 18.015 74.3425 19.714V22.6425H71.5132V13.9856H73.8618L74.0783 15.9342C74.4123 15.0021 75.4104 13.703 77.2563 13.9856L77.1389 16.8333Z" fill="#003865"/>
<path d="M81.0178 17.2992L83.9316 13.9855H87.0288L83.8839 17.3983L86.8967 22.6424H83.7334L82.0013 19.4277L81.0178 20.5102V22.6424H78.1885V10.4552H81.0178V17.2956V17.2992Z" fill="#003865"/>
<path d="M100.963 13.3546H97.3517V22.6427H94.3058V13.3546H90.7095V10.9913H100.963V13.3546Z" fill="#003865"/>
<path d="M102.878 19.182C102.893 20.3122 103.843 20.6315 105.176 20.6315C106.273 20.6315 107.355 20.2829 108.071 19.982L108.57 22.0113C107.44 22.5434 106.221 22.8113 104.875 22.8113C101.664 22.8113 99.9976 21.1966 99.9976 18.3673C99.9976 15.5379 101.664 13.8242 104.592 13.8242C107.124 13.8242 108.805 15.2554 108.805 17.9709C108.805 18.5875 108.721 19.1856 108.721 19.1856H102.878V19.182ZM102.963 17.4021H106.159C106.159 16.5544 105.759 15.9856 104.676 15.9856C103.829 15.9856 103.194 16.2168 102.963 17.4021Z" fill="#003865"/>
<path d="M112.651 20.0958C112.651 20.5471 112.952 20.6462 113.315 20.6462C113.546 20.6462 113.763 20.6279 114.031 20.6132L114.115 22.6425C113.517 22.7416 113.084 22.8077 112.299 22.8077C110.519 22.8077 109.818 22.0077 109.818 20.6279V10.4554H112.647V20.0958H112.651Z" fill="#003865"/>
<path d="M117.33 19.182C117.344 20.3122 118.295 20.6315 119.627 20.6315C120.724 20.6315 121.807 20.2829 122.522 19.982L123.021 22.0113C121.891 22.5434 120.673 22.8113 119.326 22.8113C116.115 22.8113 114.449 21.1966 114.449 18.3673C114.449 15.5379 116.115 13.8242 119.043 13.8242C121.576 13.8242 123.256 15.2554 123.256 17.9709C123.256 18.5875 123.172 19.1856 123.172 19.1856H117.33V19.182ZM117.414 17.4021H120.61C120.61 16.5544 120.21 15.9856 119.128 15.9856C118.28 15.9856 117.645 16.2168 117.414 17.4021Z" fill="#003865"/>
<path d="M127.205 17.2994L130.119 13.9857H133.216L130.071 17.3985L133.084 22.6425H129.92L128.188 19.4279L127.205 20.5104V22.6425H124.375V10.4554H127.205V17.2958V17.2994Z" fill="#003865"/>
<path d="M142.702 18.3012C142.702 21.1636 140.889 22.8113 138.009 22.8113C135.128 22.8113 133.315 21.1636 133.315 18.3012C133.315 15.4388 135.113 13.8242 138.009 13.8242C140.904 13.8242 142.702 15.4388 142.702 18.3012ZM136.192 18.3342C136.192 19.8315 136.757 20.6498 138.005 20.6498C139.253 20.6498 139.818 19.8352 139.818 18.3342C139.818 16.8333 139.253 15.9856 138.005 15.9856C136.757 15.9856 136.192 16.7856 136.192 18.3342Z" fill="#003865"/>
<path d="M156.988 17.1854V22.6459H154.159V17.2368C154.159 16.6203 153.943 15.9891 153.062 15.9891C151.913 15.9891 151.781 17.0863 151.781 17.6698V22.6459H148.952V17.2514C148.952 16.668 148.754 15.9854 147.869 15.9854C146.919 15.9854 146.57 16.7524 146.57 17.567V22.6459H143.741V13.9891H146.203L146.368 15.2037C146.768 14.4698 147.484 13.8203 148.732 13.8203C149.664 13.8203 150.548 14.1872 151.01 15.3358C151.561 14.5358 152.394 13.8203 153.957 13.8203C155.421 13.8203 156.988 14.4368 156.988 17.1817V17.1854Z" fill="#003865"/>
</svg>
