<svg width="162" height="40" viewBox="0 0 162 40" fill="none" xmlns="http://www.w3.org/2000/svg">
<g clip-path="url(#clip0_407_10152)">
<path d="M40.92 12.572C40.9052 11.7949 40.462 11.1242 39.555 11.1272C38.5977 11.1301 37.9506 11.6147 37.7733 12.5838L40.92 12.572ZM39.4456 9.71779C41.4134 9.71188 42.5953 11.0149 42.6041 13.0477C42.6041 13.4229 42.5687 13.7332 42.5687 13.7332L37.8029 13.7509C37.8856 14.8146 38.8192 15.2873 39.7647 15.2843C40.3852 15.2843 41.2007 15.11 41.6941 14.85L42.2939 16.1176C41.57 16.5076 40.5477 16.7085 39.7322 16.7114C37.4394 16.7203 35.971 15.3139 35.9651 13.2515C35.9562 11.1803 37.3774 9.7237 39.4486 9.71779M45.6593 7.22998L45.6858 14.7555C45.6858 15.1307 45.9104 15.2991 46.2975 15.2962C46.3861 15.2962 46.5811 15.2696 46.7111 15.243L46.717 16.5755C46.3684 16.6435 45.9281 16.7114 45.5263 16.7114C44.7108 16.7144 43.9456 16.4071 43.9397 14.8766L43.916 8.21388L45.6593 7.22998ZM52.4431 12.5306C52.4254 11.7535 51.9852 11.0828 51.0781 11.0858C50.1178 11.0887 49.4737 11.5733 49.2964 12.5424L52.4431 12.5306ZM50.9717 9.67347C52.9395 9.66756 54.1243 10.9706 54.1302 13.0063C54.1302 13.3816 54.0918 13.6918 54.0918 13.6918L49.326 13.7095C49.4057 14.7732 50.3424 15.2459 51.2849 15.243C51.9054 15.243 52.7238 15.0687 53.2143 14.8086L53.8111 16.0762C53.0872 16.4662 52.0649 16.6671 51.2524 16.6701C48.9626 16.6789 47.4911 15.2725 47.4823 13.2102C47.4764 11.139 48.8975 9.68234 50.9688 9.67643M21.8596 7.28907L21.8832 12.8763L24.1169 9.90098L26.2029 9.89507L23.5467 13.0654L26.1113 16.6287L24.1583 16.6346L22.5451 14.2975L21.9009 15.0243L21.9069 16.6435L20.1577 16.6494L20.1282 8.27888L21.8655 7.28907H21.8596ZM57.141 7.29794L57.1646 12.8852L59.4013 9.90984L61.4843 9.90098L58.8281 13.0713L61.3898 16.6346L59.4338 16.6405L57.8206 14.3034L57.1735 15.0302L57.1794 16.6494L55.4332 16.6553L55.4037 8.28479L57.1381 7.29498L57.141 7.29794ZM71.8167 9.91871L72.1033 10.811C72.387 10.2289 73.2025 9.78279 73.9648 9.77984C74.7537 9.77689 75.51 10.2408 75.8232 10.9765C76.1542 10.3146 76.878 9.76802 77.992 9.76507C79.3777 9.75916 80.4029 10.6131 80.4118 12.569L80.4266 16.6198L78.6774 16.6258L78.6627 12.4567C78.6627 11.7713 78.3879 11.1774 77.5724 11.1803C76.7067 11.1833 76.3314 11.8717 76.3344 12.7522L76.3492 16.6346L74.603 16.6405L74.5882 12.3799C74.5882 11.7831 74.2986 11.1892 73.5098 11.1922C72.6411 11.1951 72.254 11.8835 72.2599 12.7522L72.2747 16.6494L70.5256 16.6553L70.5019 9.92166L71.8226 9.91575L71.8167 9.91871ZM65.4258 9.28641C63.3162 9.29528 61.6114 11.0119 61.6203 13.1245C61.6291 15.2312 63.3428 16.936 65.4524 16.9271C67.562 16.9212 69.2669 15.2046 69.261 13.095C69.2521 10.9824 67.5355 9.27755 65.4258 9.28641ZM65.4495 15.2784C64.2499 15.2843 63.2778 14.3152 63.2719 13.1186C63.266 11.916 64.2351 10.941 65.4347 10.9381C66.6343 10.9322 67.6093 11.9013 67.6123 13.1038C67.6182 14.3004 66.6491 15.2755 65.4495 15.2784ZM36.7244 7.52545L36.7303 9.03822L34.4493 9.04709L34.4759 16.5962L32.6618 16.6021L32.6352 9.053L30.3512 9.06186L30.3453 7.54908L36.7244 7.52545ZM16.5412 9.93053V10.9233C16.949 10.0664 17.5872 9.86257 18.7749 9.85962L18.7808 11.5674H18.5622C17.4217 11.5733 16.6092 12.1465 16.6151 13.5972L16.6269 16.6642L14.8778 16.6701L14.8541 9.93644L16.5412 9.93053ZM6.51906 7.63772L6.52497 9.15346L4.23807 9.16232L4.26466 16.7114L2.45347 16.7173L2.42687 9.16823L0.142933 9.17709L0.137024 7.66431L6.5161 7.64068L6.51906 7.63772ZM11.604 16.676L11.341 15.8635C11.2819 15.9816 10.8151 16.7971 9.55053 16.8001C8.4189 16.803 7.07749 16.1973 7.07158 14.2532L7.05976 10.8376L8.81482 10.8317L8.82664 14.2561C8.82959 15.1277 9.30234 15.5148 9.9169 15.5148C10.7176 15.5119 11.2081 14.8736 11.2051 14.0227L11.1933 10.8228L12.9159 10.8169L12.9366 16.6701L11.6011 16.676H11.604ZM7.68614 8.42957L9.4353 8.42366L9.4412 9.79757L7.69205 9.80348L7.68614 8.42957ZM10.5285 8.41775L12.2777 8.41184L12.2836 9.78279L10.5344 9.7887L10.5285 8.41775Z" fill="#143A64"/>
<path d="M0.0454102 31.2305L0.976124 29.1889C1.68819 29.5346 3.09165 30.1019 4.63988 30.1019C6.18812 30.1019 7.06565 29.5907 7.06565 28.7161C7.06565 26.3642 0.157687 27.6584 0.157687 22.9014C0.157687 20.514 1.92456 19.0544 4.82307 19.0544C6.62836 19.0544 8.28592 19.6188 9.12504 20.0206L8.23273 22.0445C8.23273 22.0445 6.57518 21.3147 4.95308 21.3147C3.58508 21.3147 2.7105 21.8436 2.7105 22.7005C2.7105 25.0878 9.60074 23.9385 9.60074 28.5152C9.60074 30.941 7.70385 32.3622 4.66057 32.3622C2.41799 32.3622 0.704296 31.5969 0.0483648 31.2335L0.0454102 31.2305Z" fill="#00C1DE"/>
<path d="M31.0042 33.2545L31.4415 32.2529C29.9287 32.179 28.8887 31.7063 28.3598 31.4315L29.1073 29.6439C29.7633 29.9364 30.7472 30.2821 31.7133 30.2821C33.0075 30.2821 33.427 29.8271 33.427 29.4075C33.427 27.9125 28.3953 28.8609 28.3953 25.3242C28.3953 23.5367 29.8164 22.4257 32.0413 22.4257C33.4447 22.4257 34.7389 22.863 35.4125 23.1732L34.665 24.9401C34.665 24.9401 33.4241 24.3935 32.2038 24.3935C31.146 24.3935 30.7442 24.8663 30.7442 25.2858C30.7442 26.7454 35.7582 25.8502 35.7582 29.3514C35.7582 31.0828 34.3902 32.1406 32.2393 32.2499L32.1299 32.962C32.1299 32.962 32.257 32.9443 32.3486 32.9443C33.3502 32.9443 34.0445 33.3815 34.0445 34.33C34.0445 35.4793 33.0045 36.0437 31.8936 36.0437C31.4385 36.0437 30.9097 35.9166 30.3808 35.5887L30.7442 34.6225C31.1254 34.7495 31.474 34.8411 31.7636 34.8234C32.1477 34.8057 32.4549 34.6048 32.4549 34.2413C32.4549 34.0227 32.3102 33.6563 31.672 33.6563C31.5449 33.6563 31.4179 33.6741 31.4179 33.6741L30.9983 33.2545H31.0042Z" fill="#00C1DE"/>
<path d="M41.7591 22.6089L43.6914 29.2982H43.7269L45.7508 22.6089H48.3391L44.894 32.0874H42.4889L39.1885 22.6089H41.7591Z" fill="#00C1DE"/>
<path d="M52.6352 22.4257C55.5691 22.4257 56.9933 24.7038 56.9933 27.2211C56.9933 27.8593 56.9017 28.3143 56.9017 28.3143H50.5403C50.6496 29.6616 51.8167 30.1728 52.9454 30.1728C54.0741 30.1728 55.0048 29.8803 55.6253 29.6085L56.4644 31.4492C55.5159 31.9958 54.1686 32.2706 52.8922 32.2706C50.0292 32.2706 47.9343 30.3383 47.9343 27.4398C47.9343 24.5412 49.8312 22.4257 52.6381 22.4257H52.6352ZM54.6236 26.5652C54.5675 25.5251 54.1686 24.6151 52.7829 24.6151C51.5981 24.6151 50.7412 25.2888 50.5049 26.5652H54.6236Z" fill="#00C1DE"/>
<path d="M61.4045 32.0874V19.3263H65.9074C67.2016 19.3263 68.2032 19.6897 68.9507 20.13C71.0278 21.3502 71.8138 23.5012 71.8315 25.7083C71.8315 27.9125 70.9746 30.1373 68.9507 31.2867C68.15 31.7417 67.0538 32.0874 65.9074 32.0874H61.4045ZM63.9544 29.6823H65.414C66.324 29.6823 67.0538 29.5376 67.8191 29.118C68.9862 28.4621 69.2787 26.9847 69.2787 25.6906C69.2787 24.2694 68.933 22.9753 67.8191 22.2987C67.0361 21.8259 66.0315 21.7343 65.414 21.7343H63.9544V29.6823Z" fill="#00C1DE"/>
<path d="M80.4384 32.0549H78.5651V30.6485C78.0362 31.5792 76.9253 32.2706 75.6134 32.2706C73.882 32.2706 72.186 31.1951 72.186 29.1889C72.186 27.1827 73.9352 26.1633 76.1039 26.1633C76.7421 26.1633 77.4719 26.2165 78.0717 26.2904V26.0156C78.0717 24.6299 77.1232 24.4467 76.358 24.4467C75.5366 24.4467 74.207 24.6476 73.4949 24.8101L73.0399 23.0403C73.8968 22.7478 75.4834 22.4198 76.7598 22.4198C79.1117 22.4198 80.4413 23.513 80.4413 25.5724V32.046L80.4384 32.0549ZM76.5589 27.7677C75.7375 27.7677 74.4818 27.9686 74.4818 29.0796C74.4818 29.9187 75.2116 30.3914 76.033 30.3914C76.9814 30.3914 78.0746 29.7355 78.0746 28.8609V27.9125C77.6019 27.8386 77.0553 27.7677 76.5619 27.7677H76.5589Z" fill="#00C1DE"/>
<path d="M90.2892 24.4112L89.1044 24.7037C89.2491 24.9401 89.4501 25.3419 89.4501 26.0156C89.4501 27.747 88.1205 29.0766 85.6208 29.0766C85.1481 29.0766 84.309 29.0027 83.7446 28.7309C83.5821 28.8225 83.4167 29.0234 83.4167 29.2243C83.4167 30.0457 84.9679 30.0073 86.8263 30.0073C89.4323 30.0073 89.9612 31.2453 89.9612 32.4331C89.9612 34.7466 87.3168 35.1661 85.7686 35.1661C84.2203 35.1661 81.4105 34.8736 81.4105 32.6694C81.4105 31.5762 82.0664 31.2098 82.4298 30.9912C81.7739 30.681 81.4105 30.0989 81.4105 29.3868C81.4105 28.5654 81.8832 28.1104 82.3944 27.7825C81.8832 27.2358 81.5375 26.6331 81.5375 25.7231C81.5375 23.6991 83.1242 22.4227 85.4554 22.4227C85.8188 22.4227 86.4038 22.4582 86.7672 22.6059H90.2862V24.4112H90.2892ZM83.9455 31.7033C83.7269 31.8126 83.5437 32.1228 83.5437 32.4153C83.5437 33.2545 84.7108 33.2899 85.8395 33.2899C86.4245 33.2899 87.8073 33.2545 87.8073 32.4331C87.8073 32.0874 87.5325 31.8303 86.9682 31.8303C84.9619 31.8303 84.4153 31.7949 83.9426 31.7033H83.9455ZM83.8362 25.7969C83.8362 26.7099 84.5099 27.4013 85.5322 27.4013C86.4984 27.4013 87.1543 26.7454 87.1543 25.7792C87.1543 24.9224 86.59 24.231 85.5499 24.231C84.5099 24.231 83.8362 24.9253 83.8362 25.7999V25.7969Z" fill="#00C1DE"/>
<path d="M97.9181 30.0103C97.2444 30.0103 96.9873 29.573 96.9873 29.0619V24.4674H98.9729V22.6089H96.9873V19.8759L94.4907 19.8936V28.7162C94.4907 31.0503 95.2736 32.0874 97.5162 32.0874C98.0126 32.0874 98.5415 31.984 98.9935 31.8274V29.9039C98.571 29.9571 98.2194 30.0073 97.9181 30.0073V30.0103Z" fill="#00C1DE"/>
<path d="M102.217 22.6089V32.0874H99.7559V22.6148L102.217 22.6089Z" fill="#00C1DE"/>
<path d="M93.5718 22.6089V32.0874H91.1106V22.6148L93.5718 22.6089Z" fill="#00C1DE"/>
<path d="M105.071 22.6089L105.473 23.8498V23.8676C105.875 23.0462 107.042 22.4286 108.061 22.4286C109.081 22.4286 110.322 23.0846 110.759 24.1246C111.232 23.1939 112.254 22.4286 113.82 22.4286C115.77 22.4286 117.301 23.6312 117.301 26.3849V32.0903H114.748V26.4381C114.748 25.6551 114.364 24.816 113.217 24.816C111.997 24.816 111.468 25.7822 111.468 26.8399V32.0903H108.954V26.3111C108.954 25.6551 108.552 24.816 107.441 24.816C106.221 24.816 105.674 25.7822 105.674 26.8222V32.0903H103.121V22.6118H105.071V22.6089Z" fill="#00C1DE"/>
<path d="M27.3611 22.6089V32.0874H24.8999V22.6148L27.3611 22.6089Z" fill="#00C1DE"/>
<path d="M18.5474 32.0549H16.6742V30.6485C16.1453 31.5792 15.0344 32.2706 13.7225 32.2706C11.9911 32.2706 10.2951 31.1951 10.2951 29.1889C10.2951 27.1827 12.0443 26.1633 14.213 26.1633C14.8512 26.1633 15.581 26.2165 16.1808 26.2904V26.0156C16.1808 24.6299 15.2323 24.4467 14.4671 24.4467C13.6457 24.4467 12.3161 24.6476 11.604 24.8101L11.149 23.0403C12.0058 22.7478 13.5925 22.4198 14.8689 22.4198C17.2208 22.4198 18.5504 23.513 18.5504 25.5724V32.046L18.5474 32.0549ZM14.668 27.7677C13.8466 27.7677 12.5909 27.9686 12.5909 29.0796C12.5909 29.9187 13.3207 30.3914 14.1421 30.3914C15.0905 30.3914 16.1837 29.7355 16.1837 28.8609V27.9125C15.711 27.8386 15.1644 27.7677 14.6709 27.7677H14.668Z" fill="#00C1DE"/>
<path d="M22.873 30.0103C22.1993 30.0103 21.9423 29.573 21.9423 29.0619V24.4674H23.9278V22.6089H21.9423V19.8759L19.4456 19.8936V28.7162C19.4456 31.0503 20.2286 32.0874 22.4712 32.0874C22.9676 32.0874 23.4964 31.984 23.9485 31.8274V29.9039C23.526 29.9571 23.1744 30.0073 22.873 30.0073V30.0103Z" fill="#00C1DE"/>
<path d="M84.1819 19.282C84.4006 19.9556 84.6754 20.4136 85.5854 20.4136C86.4954 20.4136 86.7525 19.9763 86.9711 19.282H88.2091C88.0821 20.9041 87.2607 21.8525 85.5854 21.8525C83.9101 21.8525 83.0887 20.9041 82.941 19.282H84.179H84.1819Z" fill="#00C1DE"/>
<path d="M161.189 20.0029L151.403 25.6522L147.361 23.318L153.102 20.0029L126.549 4.67123V-6.10352e-05L161.189 20.0029Z" fill="#CDDB00"/>
<path d="M113.519 4.1837L110.605 2.5025V5.86784L113.519 4.1837Z" fill="#F32735"/>
<path d="M115.903 2.47003V9.70301L122.167 6.08652L115.903 2.47003Z" fill="#00C1DE"/>
<path d="M121.02 15.3316V10.3057L125.373 12.8201L121.02 15.3316Z" fill="#CDDB00"/>
<path d="M147.937 27.6673L126.575 39.9999V30.7489L130.528 33.0329L131.914 33.8336V21.498L126.575 24.5826V15.3316L143.881 25.3242L147.922 27.6584L147.937 27.6673Z" fill="#00C1DE"/>
<path d="M131.914 21.4979V33.8336L130.528 33.0329L126.575 30.7519V30.7489V24.5826L131.914 21.4979Z" fill="#0082CA"/>
<path d="M126.575 24.5826V30.7489L126.549 30.7342L121.233 27.6672L126.549 24.5974L126.575 24.5826Z" fill="#002856"/>
</g>
<defs>
<clipPath id="clip0_407_10152">
<rect width="161.143" height="40" fill="white" transform="translate(0.0454102 -6.10352e-05)"/>
</clipPath>
</defs>
</svg>
