<svg width="184" height="40" viewBox="0 0 184 40" fill="none" xmlns="http://www.w3.org/2000/svg">
<g clip-path="url(#clip0_407_9829)">
<path d="M103.82 7.98071L99.2117 5.31976L103.82 2.65881V7.98071ZM103.82 7.98071L99.2117 10.6417L101.517 11.9721L103.82 10.6417V7.98071Z" fill="#D6DE27"/>
<path d="M103.82 7.9807L99.2116 10.6416L94.603 7.9807L99.2116 5.32184L103.82 7.9807Z" fill="#1998D5"/>
<path d="M122.254 2.66089L117.646 -6.10352e-05V5.32184L122.254 2.66089Z" fill="#EE412F"/>
<path d="M103.82 23.9464V15.9636L108.429 18.6245V7.98071L103.82 10.6417V2.65881L122.254 13.3026L103.82 23.9464ZM94.6032 2.66091V7.9828L99.2118 5.32185L94.6032 2.66091ZM94.6032 13.3026L99.2118 10.6417L94.6032 7.98071V13.3026ZM92.551 34.4689L82.9741 28.9399V40L92.551 34.4689Z" fill="#3BC1D7"/>
<path d="M48.2353 19.2479C48.2206 18.3358 47.7039 17.545 46.6391 17.545C45.5136 17.545 44.7543 18.1078 44.5409 19.2479H48.2353ZM46.5178 15.8882C48.8294 15.8882 50.2121 17.4237 50.2121 19.8106C50.2121 20.252 50.1661 20.6181 50.1661 20.6181H44.5723C44.6622 21.8649 45.7584 22.4276 46.8671 22.4276C47.5972 22.4276 48.5553 22.2289 49.1327 21.9256L49.8314 23.415C48.98 23.8711 47.7792 24.1012 46.8211 24.1012C44.1309 24.1012 42.4134 22.4444 42.4134 20.0261C42.4134 17.6078 44.0848 15.8882 46.5178 15.8882ZM53.8291 12.97V21.8021C53.8291 22.2415 54.0864 22.4402 54.5425 22.4402C54.6492 22.4402 54.8772 22.4109 55.0299 22.3795V23.9443C54.6199 24.0217 54.1032 24.097 53.6304 24.097C52.6723 24.097 51.7748 23.733 51.7748 21.9381V14.1164L53.8291 12.97ZM61.7659 19.2479C61.7513 18.3358 61.2346 17.545 60.1698 17.545C59.0443 17.545 58.2849 18.1078 58.0716 19.2479H61.7659ZM60.0484 15.8882C62.36 15.8882 63.7428 17.4237 63.7428 19.8106C63.7428 20.252 63.6968 20.6181 63.6968 20.6181H58.1008C58.1929 21.8649 59.287 22.4276 60.3957 22.4276C61.1258 22.4276 62.0839 22.2289 62.6613 21.9256L63.36 23.415C62.5086 23.8711 61.3078 24.1012 60.3497 24.1012C57.6574 24.1012 55.9399 22.4444 55.9399 20.0261C55.942 17.5911 57.6155 15.8882 60.0484 15.8882ZM25.8808 12.9616V19.5198L28.5208 16.0389H30.9684L27.8367 19.75L30.8324 23.9464H28.5355L26.6506 21.1955L25.8912 22.0469V23.9464H23.839V14.1164L25.8808 12.9616ZM67.2782 12.9616V19.5198L69.9182 16.0389H72.3658L69.2342 19.75L72.2277 23.9464H69.9329L68.048 21.1955L67.2887 22.0469V23.9464H65.2365V14.1164L67.2782 12.9616ZM84.5242 16.0409L84.8589 17.089C85.1936 16.4049 86.1517 15.8882 87.047 15.8882C87.9424 15.8882 88.8566 16.4363 89.2206 17.3024C89.6159 16.5284 90.4674 15.8882 91.7748 15.8882C93.4024 15.8882 94.6031 16.8924 94.6031 19.1872V23.9464H92.5509V19.0512C92.5509 18.2438 92.2309 17.545 91.2748 17.545C90.2582 17.545 89.8147 18.3504 89.8147 19.386V23.9464H87.7625V18.9446C87.7625 18.2458 87.4278 17.545 86.501 17.545C85.4823 17.545 85.0262 18.3504 85.0262 19.3692V23.9464H82.974V16.0409H84.5242ZM77.0225 15.497C74.5456 15.497 72.5373 17.5053 72.5373 19.9822C72.5373 22.459 74.5456 24.4673 77.0225 24.4673C79.4993 24.4673 81.5097 22.459 81.5097 19.9822C81.5097 17.5053 79.5014 15.497 77.0225 15.497ZM77.0225 22.5301C75.6167 22.5301 74.4745 21.39 74.4745 19.9822C74.4745 18.5743 75.6146 17.4342 77.0225 17.4342C78.4303 17.4342 79.5704 18.5743 79.5704 19.9822C79.5704 21.39 78.4303 22.5301 77.0225 22.5301ZM43.3338 13.3047V15.0828H40.6541V23.9464H38.5245V15.0828H35.8426V13.3047H43.3338ZM19.6238 16.0409L19.6154 17.2041C20.1028 16.1999 20.8497 15.9656 22.2471 15.9656V17.9718H21.9919C20.653 17.9718 19.697 18.6412 19.697 20.3441V23.9464H17.6448V16.0409H19.6238ZM7.86499 13.3047V15.0828H5.18521V23.9464H3.05771V15.0828H0.37793V13.3047H7.86499ZM13.7977 23.938L13.4944 22.982C13.4254 23.1201 12.871 24.0761 11.3899 24.0761C10.0615 24.0761 8.48838 23.3565 8.48838 21.0721V17.0618H10.551V21.0867C10.551 22.1097 11.1033 22.5678 11.825 22.5678C12.7664 22.5678 13.3417 21.821 13.3417 20.8231V17.0618H15.3667V23.938H13.7977ZM9.23102 14.2398H11.2832V15.8506H9.23102V14.2398ZM12.5698 14.2398H14.622V15.8506H12.5698V14.2398ZM87.7625 13.3047V7.98279L92.3731 10.6437L87.7625 13.3047ZM69.9329 31.1971V26.6806L73.8448 28.9398L69.9329 31.1971Z" fill="#173A64"/>
<path d="M108.429 7.98279L103.82 10.6437V15.9635L108.429 18.6245V7.98279Z" fill="#1998D5"/>
<path d="M99.2117 13.3047L103.82 15.9656V10.6437L99.2117 13.3047Z" fill="#173A64"/>
<path d="M4.95305 26.5069C5.37144 26.5069 5.75427 26.624 6.06806 26.8081C6.82116 27.2537 7.14332 28.0403 7.14332 28.8896C7.14332 29.7389 6.81488 30.5736 6.06806 30.9962C5.73962 31.1887 5.32124 31.2974 4.95305 31.2974H2.94897V26.5069H4.95305ZM3.70835 27.0947V30.7075H4.74177C5.16016 30.7075 5.5911 30.5506 5.85677 30.2828C6.17893 29.9753 6.3421 29.4754 6.3421 28.8792C6.3421 28.1951 6.1099 27.6679 5.69151 27.373C5.40491 27.1742 5.04719 27.0926 4.73968 27.0926H3.70835V27.0947Z" fill="#173A64"/>
<path d="M8.4864 29.7704C8.49895 30.4607 9.01357 30.7891 9.74574 30.7891C10.183 30.7891 10.6139 30.6657 10.9423 30.5151L11.072 31.0423C10.6955 31.2138 10.2311 31.3498 9.67671 31.3498C8.42364 31.3498 7.74585 30.6594 7.74585 29.5444C7.74585 28.4294 8.42991 27.6826 9.55956 27.6826C10.6265 27.6826 11.2227 28.3604 11.2227 29.4001C11.2227 29.5633 11.208 29.7495 11.2017 29.7704H8.4864ZM8.50732 29.2641H10.547C10.547 28.6826 10.2729 28.237 9.58257 28.237C8.99892 28.237 8.60145 28.511 8.50732 29.2641Z" fill="#173A64"/>
<path d="M14.0842 27.7391H15.2892V28.2181L14.7286 28.2244C14.8855 28.3478 15.0633 28.5738 15.0633 28.9566C15.0633 29.6135 14.5361 30.059 13.5027 30.059C13.2014 30.059 12.9274 30.0256 12.7015 29.9503C12.599 30.0193 12.509 30.1155 12.5174 30.2578C12.5237 30.5527 12.8877 30.6009 13.4336 30.6009H13.9734C14.6784 30.6009 15.2118 30.8059 15.2118 31.469C15.2118 32.31 14.3562 32.5087 13.4734 32.5087C12.6534 32.5087 11.8103 32.3372 11.8103 31.6196C11.8103 31.2912 11.9881 31.0715 12.2078 30.9209C12.0237 30.8038 11.9065 30.6322 11.9065 30.3666C11.9065 30.0716 12.0572 29.8457 12.2684 29.7097C12.0572 29.5256 11.9337 29.2515 11.9337 28.8813C11.9337 28.0738 12.5216 27.6847 13.5152 27.6847C13.7014 27.6847 13.9064 27.6972 14.0842 27.7391ZM12.7559 31.1113C12.6052 31.2075 12.5027 31.3309 12.5027 31.5088C12.5027 31.8853 12.9483 31.946 13.4943 31.946C14.0068 31.946 14.4943 31.8916 14.4943 31.4941C14.4943 31.2263 14.2746 31.151 13.9064 31.151H13.488C13.2768 31.151 13.009 31.151 12.7559 31.1113ZM14.4336 26.4525C14.352 27.0194 14.0424 27.2537 13.4818 27.2537C12.9211 27.2537 12.6136 27.0215 12.5299 26.4525L12.9546 26.4044C13.0299 26.7203 13.1533 26.8897 13.4818 26.8897C13.8102 26.8897 13.9336 26.7182 14.0089 26.4044L14.4336 26.4525ZM12.6534 28.875C12.6534 29.3206 13.0153 29.4984 13.4943 29.4984C14.034 29.4984 14.3353 29.2725 14.3353 28.875C14.3353 28.4503 14.0006 28.2453 13.5006 28.2453C13.0006 28.2453 12.6534 28.4503 12.6534 28.875Z" fill="#173A64"/>
<path d="M16.4525 29.7704C16.465 30.4607 16.9796 30.7891 17.7118 30.7891C18.149 30.7891 18.58 30.6657 18.9084 30.5151L19.0381 31.0423C18.6615 31.2138 18.1971 31.3498 17.6428 31.3498C16.3897 31.3498 15.7119 30.6594 15.7119 29.5444C15.7119 28.4294 16.396 27.6826 17.5256 27.6826C18.5925 27.6826 19.1887 28.3604 19.1887 29.4001C19.1887 29.5633 19.1741 29.7495 19.1678 29.7704H16.4525ZM16.4734 29.2641H18.513C18.513 28.6826 18.239 28.237 17.5486 28.237C16.965 28.237 16.5675 28.511 16.4734 29.2641Z" fill="#173A64"/>
<path d="M21.8036 28.4231C21.0505 28.3143 20.674 28.9168 20.674 29.649V31.2974H19.969V27.7391H20.5506L20.6112 28.4922C20.7556 28.1031 21.1593 27.6428 21.8287 27.7391L21.8036 28.4231Z" fill="#173A64"/>
<path d="M23.1863 30.5297C23.1863 30.762 23.3097 30.8038 23.4603 30.8038C23.5838 30.8038 23.6988 30.7975 23.7553 30.7912L23.7762 31.3038C23.6319 31.331 23.4687 31.3519 23.2219 31.3519C22.7093 31.3519 22.4834 31.1322 22.4834 30.6532V26.2873H23.1884V30.5297H23.1863Z" fill="#173A64"/>
<path d="M25.1422 31.2975H24.4372V28.2453H24V27.7391H25.1422V31.2975ZM25.1778 26.8291C25.1778 27.0676 25.0271 27.1784 24.774 27.1784C24.5209 27.1784 24.3765 27.0697 24.3765 26.8291C24.3765 26.5885 24.5272 26.4797 24.774 26.4797C25.0271 26.4797 25.1778 26.5948 25.1778 26.8291Z" fill="#173A64"/>
<path d="M32.1776 31.2974H31.4182V29.216H28.9016V31.2974H28.1401V26.5069H28.9016V28.6281H31.4182V26.5069H32.1776V31.2974Z" fill="#173A64"/>
<path d="M34.0875 31.2975H33.3825V28.2453H32.9453V27.7391H34.0875V31.2975ZM34.1231 26.8291C34.1231 27.0676 33.9725 27.1784 33.7193 27.1784C33.4662 27.1784 33.3219 27.0697 33.3219 26.8291C33.3219 26.5885 33.4725 26.4797 33.7193 26.4797C33.9725 26.4797 34.1231 26.5948 34.1231 26.8291Z" fill="#173A64"/>
<path d="M37.6061 27.9294L37.4826 28.4022C37.3195 28.3416 36.8948 28.1909 36.4074 28.1909C35.8593 28.1909 35.648 28.3897 35.648 28.6637C35.648 29.0549 36.0099 29.0947 36.5643 29.239C37.1605 29.4022 37.7609 29.5884 37.7609 30.3059C37.7609 31.0234 37.1249 31.3519 36.3384 31.3519C35.7422 31.3519 35.2234 31.1803 34.9075 31.0443L35.0581 30.5653C35.2422 30.6469 35.7087 30.8393 36.2547 30.8393C36.8007 30.8393 37.0287 30.6343 37.0287 30.3603C37.0287 29.9712 36.6187 29.9293 36.0915 29.7913C35.5371 29.6344 34.9221 29.4628 34.9221 28.7244C34.9221 27.9859 35.5099 27.6847 36.2965 27.6847C36.7923 27.6847 37.2776 27.7997 37.6061 27.9294Z" fill="#173A64"/>
<path d="M40.9322 27.9294L40.8088 28.4022C40.6436 28.3416 40.221 28.1909 39.7336 28.1909C39.1855 28.1909 38.9742 28.3897 38.9742 28.6637C38.9742 29.0549 39.3361 29.0947 39.8905 29.239C40.4867 29.4022 41.087 29.5884 41.087 30.3059C41.087 31.0234 40.4511 31.3519 39.6645 31.3519C39.0683 31.3519 38.5495 31.1803 38.2336 31.0443L38.3843 30.5653C38.5684 30.6469 39.0349 30.8393 39.5808 30.8393C40.1268 30.8393 40.3549 30.6343 40.3549 30.3603C40.3549 29.9712 39.9448 29.9293 39.4177 29.7913C38.8633 29.6344 38.2483 29.4628 38.2483 28.7244C38.2483 27.9859 38.8361 27.6847 39.6227 27.6847C40.1164 27.6847 40.6038 27.7997 40.9322 27.9294Z" fill="#173A64"/>
<path d="M42.3067 29.7704C42.3193 30.4607 42.8339 30.7891 43.5661 30.7891C44.0033 30.7891 44.4342 30.6657 44.7626 30.5151L44.8923 31.0423C44.5158 31.2138 44.0514 31.3498 43.497 31.3498C42.244 31.3498 41.5662 30.6594 41.5662 29.5444C41.5662 28.4294 42.2502 27.6826 43.3799 27.6826C44.4468 27.6826 45.043 28.3604 45.043 29.4001C45.043 29.5633 45.0283 29.7495 45.022 29.7704H42.3067ZM42.3276 29.2641H44.3673C44.3673 28.6826 44.0932 28.237 43.4029 28.237C42.8213 28.237 42.4239 28.511 42.3276 29.2641Z" fill="#173A64"/>
<path d="M46.6601 27.7391H47.6454V28.2453H46.6601V30.2431C46.6601 30.695 46.8107 30.8309 47.1391 30.8309C47.3169 30.8309 47.5429 30.7766 47.6391 30.7494L47.6663 31.2347C47.4676 31.31 47.1935 31.3518 46.9488 31.3518C46.3044 31.3518 45.9572 31.0924 45.9572 30.264V28.2453H45.4509V27.7391H45.9572L46.0597 26.7119H46.6622V27.7391H46.6601Z" fill="#173A64"/>
<path d="M49.1725 27.7391H50.1578V28.2453H49.1725V30.2431C49.1725 30.695 49.3231 30.8309 49.6516 30.8309C49.8294 30.8309 50.0553 30.7766 50.1515 30.7494L50.1787 31.2347C49.98 31.31 49.706 31.3518 49.4612 31.3518C48.8169 31.3518 48.4696 31.0924 48.4696 30.264V28.2453H47.9634V27.7391H48.4696L48.5721 26.7119H49.1746V27.7391H49.1725Z" fill="#173A64"/>
<path d="M51.6346 31.2975H50.9296V28.2453H50.4924V27.7391H51.6346V31.2975ZM51.6702 26.8291C51.6702 27.0676 51.5196 27.1784 51.2664 27.1784C51.0133 27.1784 50.869 27.0697 50.869 26.8291C50.869 26.5885 51.0196 26.4797 51.2664 26.4797C51.5196 26.4797 51.6702 26.5948 51.6702 26.8291Z" fill="#173A64"/>
<path d="M54.5236 28.4231C53.7705 28.3143 53.3939 28.9168 53.3939 29.649V31.2974H52.689V27.7391H53.2705L53.3312 28.4922C53.4755 28.1031 53.8793 27.6428 54.5487 27.7391L54.5236 28.4231Z" fill="#173A64"/>
<path d="M56.0025 31.2975H55.2976V28.2453H54.8604V27.7391H56.0025V31.2975ZM56.036 26.8291C56.036 27.0676 55.8854 27.1784 55.6323 27.1784C55.3792 27.1784 55.2348 27.0697 55.2348 26.8291C55.2348 26.5885 55.3854 26.4797 55.6323 26.4797C55.8854 26.4797 56.036 26.5948 56.036 26.8291Z" fill="#173A64"/>
<path d="M58.8896 28.4231C58.1365 28.3143 57.7599 28.9168 57.7599 29.649V31.2974H57.0549V27.7391H57.6365L57.6972 28.4922C57.8415 28.1031 58.2452 27.6428 58.9147 27.7391L58.8896 28.4231Z" fill="#173A64"/>
<path d="M130.287 7.98071V31.7995" stroke="#A5A7AA" stroke-width="0.209194" stroke-miterlimit="10"/>
<path d="M144.368 13.7963H140.471V24.0698H139.477V13.7963H135.58V13.0223H144.37V13.7963H144.368Z" fill="#002855"/>
<path d="M151.849 19.9822C151.849 22.5866 150.098 24.1953 147.682 24.1953C145.266 24.1953 143.5 22.5845 143.5 19.9822C143.5 17.3798 145.268 15.7523 147.682 15.7523C150.096 15.7523 151.849 17.3463 151.849 19.9822ZM144.448 19.9822C144.448 22.1913 145.789 23.4694 147.667 23.4694C149.546 23.4694 150.902 22.1913 150.902 19.9822C150.902 17.7731 149.544 16.4782 147.667 16.4782C145.791 16.4782 144.448 17.7563 144.448 19.9822Z" fill="#002855"/>
<path d="M153.554 26.7517V15.8631H154.343L154.437 17.5513C154.972 16.5723 156.045 15.7523 157.704 15.7523C160.229 15.7523 161.493 17.5827 161.493 19.9654C161.493 22.3481 160.167 24.1786 157.721 24.1786C155.985 24.1786 154.96 23.2958 154.485 22.4904V26.7517H153.554ZM160.545 19.9675C160.545 17.8379 159.409 16.4949 157.485 16.4949C155.97 16.4949 154.47 17.6308 154.47 19.9675C154.47 22.3042 155.97 23.4548 157.499 23.4548C159.424 23.4548 160.545 22.0971 160.545 19.9675Z" fill="#002855"/>
<path d="M164.3 15.8631H166.652V16.5409H164.3V21.8126C164.3 23.0427 164.599 23.4694 165.627 23.4694C166.037 23.4694 166.432 23.3586 166.652 23.2958L166.7 23.9589C166.369 24.0845 165.863 24.164 165.359 24.164C163.89 24.164 163.371 23.5008 163.371 21.8273V16.5409H162.141V15.8631H163.371L163.514 13.4951H164.302V15.8631H164.3Z" fill="#002855"/>
<path d="M174.434 18.3567V22.8544C174.434 23.2811 174.687 23.3585 174.971 23.3585C175.114 23.3585 175.256 23.3418 175.413 23.3272L175.475 23.9903C175.27 24.0217 174.906 24.1012 174.607 24.1012C173.85 24.1012 173.503 23.6744 173.503 23.1075V22.7289C173.061 23.5029 172.082 24.166 170.363 24.166C168.643 24.166 167.365 23.4234 167.365 21.7352C167.365 19.842 168.865 19.2249 170.915 19.2249C172.036 19.2249 172.982 19.3357 173.503 19.3985V18.3253C173.503 16.8254 172.572 16.4781 171.12 16.4781C170.172 16.4781 169.053 16.635 168.216 16.8735L168.091 16.179C169.053 15.9112 170.174 15.769 171.248 15.769C173.346 15.769 174.436 16.3526 174.436 18.3567H174.434ZM173.501 21.0721V20.047C172.886 19.9675 171.938 19.8734 170.976 19.8734C169.367 19.8734 168.308 20.3943 168.308 21.7038C168.308 23.0134 169.382 23.4548 170.549 23.4548C172.174 23.4548 173.501 22.4611 173.501 21.0721Z" fill="#002855"/>
<path d="M183.839 18.9571V24.0698H182.908V19.0031C182.908 17.361 182.071 16.4782 180.557 16.4782C178.536 16.4782 177.701 18.1036 177.701 19.5868V24.0677H176.771V15.861H177.576L177.655 17.5032C178.193 16.4782 179.17 15.7669 180.795 15.7669C182.737 15.7669 183.841 16.8233 183.841 18.955L183.839 18.9571Z" fill="#002855"/>
</g>
<defs>
<clipPath id="clip0_407_9829">
<rect width="183.461" height="40" fill="white" transform="translate(0.37793 -6.10352e-05)"/>
</clipPath>
</defs>
</svg>
