<svg width="160" height="36" viewBox="0 0 160 36" fill="none" xmlns="http://www.w3.org/2000/svg">
<g clip-path="url(#clip0_407_8995)">
<path d="M80.3176 4.52971C80.3058 3.87182 79.9332 3.30353 79.1669 3.30353C78.3557 3.30353 77.8087 3.70912 77.653 4.52971H80.3153H80.3176ZM79.0796 2.10802C80.7444 2.10802 81.7419 3.21393 81.7419 4.93529C81.7419 5.25362 81.7088 5.51536 81.7088 5.51536H77.6766C77.7426 6.41377 78.5326 6.81935 79.332 6.81935C79.8578 6.81935 80.5487 6.67551 80.9637 6.45622L81.4683 7.52912C80.8529 7.85924 79.9898 8.02195 79.2989 8.02195C77.3606 8.02195 76.1227 6.82643 76.1227 5.0862C76.1227 3.34598 77.3276 2.10566 79.0796 2.10566M84.3498 0.00701305V6.37133C84.3498 6.6873 84.5361 6.83114 84.8662 6.83114C84.9417 6.83114 85.1068 6.80992 85.2152 6.7887V7.91584C84.9205 7.97007 84.5479 8.02666 84.206 8.02666C83.5175 8.02666 82.869 7.76492 82.869 6.47037V0.832322L84.3498 0.00701305ZM90.0681 4.52971C90.0563 3.87182 89.6861 3.30353 88.9173 3.30353C88.1062 3.30353 87.5591 3.70912 87.4035 4.52971H90.0657H90.0681ZM88.8301 2.10802C90.4949 2.10802 91.4923 3.21393 91.4923 4.93529C91.4923 5.25362 91.4593 5.51536 91.4593 5.51536H87.4271C87.4931 6.41377 88.283 6.81935 89.0824 6.81935C89.6082 6.81935 90.2991 6.67551 90.7141 6.45622L91.2164 7.52912C90.6033 7.85924 89.7379 8.02195 89.047 8.02195C87.1087 8.02195 85.8708 6.82643 85.8708 5.0862C85.8708 3.34598 87.0757 2.10566 88.8277 2.10566M64.2076 -6.10352e-05V4.72543L66.1105 2.21648H67.8743L65.6177 4.89049L67.7753 7.91348H66.1199L64.7617 5.93038L64.2123 6.54582V7.91348H62.7338V0.832322L64.2052 -6.10352e-05H64.2076ZM94.039 -6.10352e-05V4.72543L95.9419 2.21648H97.7057L95.4491 4.89049L97.6067 7.91348H95.9537L94.5931 5.93038L94.046 6.54582V7.91348H92.5676V0.832322L94.039 -6.10352e-05ZM106.468 2.21648L106.709 2.97341C106.949 2.48058 107.64 2.10802 108.286 2.10802C108.932 2.10802 109.59 2.50181 109.854 3.12668C110.14 2.56783 110.753 2.10802 111.694 2.10802C112.865 2.10802 113.731 2.83193 113.731 4.48491V7.91348H112.252V4.38587C112.252 3.80344 112.021 3.30118 111.333 3.30118C110.599 3.30118 110.281 3.88361 110.281 4.62875V7.91584H108.803V4.31041C108.803 3.80579 108.562 3.30118 107.892 3.30118C107.159 3.30118 106.829 3.88361 106.829 4.61696V7.91348H105.35V2.21648H106.468ZM101.064 1.82505C99.2785 1.82505 97.8307 3.27052 97.8307 5.05791C97.8307 6.84529 99.2761 8.29076 101.064 8.29076C102.851 8.29076 104.296 6.84293 104.296 5.05791C104.296 3.27288 102.849 1.82505 101.064 1.82505ZM101.064 6.89481C100.05 6.89481 99.2266 6.07422 99.2266 5.05791C99.2266 4.0416 100.05 3.221 101.064 3.221C102.077 3.221 102.9 4.0416 102.9 5.05791C102.9 6.07422 102.08 6.89481 101.064 6.89481ZM76.7853 0.245174V1.52558H74.8541V7.91348H73.319V1.52794H71.3878V0.245174H76.7853ZM59.699 2.21648L59.6943 3.05594C60.0433 2.33203 60.5833 2.16461 61.5902 2.16461V3.61008H61.4039C60.4394 3.61008 59.7485 4.09347 59.7485 5.31965V7.91584H58.2701V2.21648H59.6967H59.699ZM51.2243 0.245174V1.52558H49.293V7.91348H47.7603V1.52794H45.8291V0.245174H51.2243ZM51.2243 0.245174V1.52558H49.293V7.91348H47.7603V1.52794H45.8291V0.245174H51.2243ZM51.2243 0.245174V1.52558H49.293V7.91348H47.7603V1.52794H45.8291V0.245174H51.2243ZM51.2243 0.245174V1.52558H49.293V7.91348H47.7603V1.52794H45.8291V0.245174H51.2243ZM55.4994 7.90876L55.2801 7.22022C55.2306 7.31925 54.8321 8.0078 53.7639 8.0078C52.8065 8.0078 51.6747 7.48903 51.6747 5.84313V2.95455H53.1602V5.85492C53.1602 6.59298 53.5587 6.92311 54.0775 6.92311C54.7566 6.92311 55.1692 6.38312 55.1692 5.66628V2.95455H56.6289V7.91112H55.497L55.4994 7.90876ZM52.2099 0.919569H53.6884V2.07972H52.2099V0.919569ZM54.6151 0.919569H56.0936V2.07972H54.6151V0.919569Z" fill="#003865"/>
<path d="M79.9949 16.6711H71.4023V20.7717H78.7923V24.4809H71.4023V31.2437H66.6226V12.9619H79.9926V16.6711H79.9949Z" fill="#0090D7"/>
<path d="M87.2526 31.2438H82.8125V20.7977H81.1406V17.6639H87.2503V31.2438H87.2526ZM87.1489 14.1127C87.1489 15.4969 86.2882 16.1241 84.772 16.1241C83.3619 16.1241 82.4729 15.4969 82.4729 14.1127C82.4729 12.7286 83.3619 12.1013 84.772 12.1013C86.2858 12.1013 87.1489 12.7286 87.1489 14.1127Z" fill="#0090D7"/>
<path d="M108.881 16.6547H100.272V20.7624H107.676V24.4786H100.272V31.2556H95.4849V12.9384H108.881V16.6547Z" fill="#0090D7"/>
<path d="M115.267 27.2493C115.267 27.9567 115.738 28.1123 116.314 28.1123C116.679 28.1123 117.021 28.0864 117.438 28.0604L117.568 31.2532C116.627 31.4112 115.946 31.515 114.717 31.515C111.918 31.515 110.819 30.2581 110.819 28.0864V12.1013H115.267V27.2493Z" fill="#0090D7"/>
<path d="M127.981 31.9063C126.83 35.125 125.312 35.8301 122.852 35.8301C121.256 35.8301 120.419 35.7523 119.268 35.5424L119.426 32.1681C120.315 32.3001 121.023 32.3779 121.73 32.3779C122.567 32.3779 123.116 32.1162 123.326 31.5927L123.484 31.2013L117.78 17.6473H122.725L125.812 26.0207L128.533 17.6473H133.138L127.983 31.9063H127.981Z" fill="#0090D7"/>
<path d="M155.763 10.4012L151.948 12.672C153.785 15.7515 154.841 19.3523 154.841 23.1982C154.841 27.0465 153.785 30.6472 151.948 33.7268L155.763 35.9976C157.996 32.253 159.281 27.8765 159.281 23.1982C159.281 18.5222 157.996 14.1457 155.763 10.4012Z" fill="#0090D7"/>
<path d="M148.474 14.7399L144.543 17.0791C145.612 18.8712 146.227 20.9628 146.227 23.2005C146.227 25.4383 145.612 27.5299 144.543 29.322L148.474 31.6611C149.95 29.1852 150.799 26.2943 150.799 23.2005C150.799 20.1092 149.95 17.2159 148.474 14.7399Z" fill="#0090D7"/>
<path d="M140.898 19.2485L134.258 23.2005L140.898 27.1526C141.587 25.9971 141.985 24.646 141.985 23.2005C141.985 21.7574 141.589 20.4063 140.898 19.2485Z" fill="#0090D7"/>
<path d="M47.0482 31.2438H41.172L38.7432 19.963L36.3404 31.2438H30.4642L25.5288 12.9644H30.7L32.5015 20.3804C32.9967 22.4177 33.5202 25.8651 33.5202 25.8651H33.572L36.2885 12.9644H41.2238L43.9403 25.8651H43.9922C43.9922 25.8651 44.5133 22.4177 45.0108 20.3804L46.8383 12.9644H51.9835L47.0482 31.2438Z" fill="#0090D7"/>
<path d="M58.7443 31.2438H54.3042V20.7977H52.6323V17.6639H58.742V31.2438H58.7443ZM58.6406 14.1127C58.6406 15.4969 57.7799 16.1241 56.2637 16.1241C54.8536 16.1241 53.9646 15.4969 53.9646 14.1127C53.9646 12.7286 54.8536 12.1013 56.2637 12.1013C57.7775 12.1013 58.6406 12.7286 58.6406 14.1127Z" fill="#0090D7"/>
<path d="M3.79747 10.4012L7.61276 12.672C5.77586 15.7515 4.71946 19.3523 4.71946 23.1982C4.71946 27.0441 5.77586 30.6472 7.61276 33.7268L3.79747 35.9976C1.56442 32.2554 0.279297 27.8789 0.279297 23.2006C0.279297 18.5222 1.56442 14.1481 3.79747 10.4035" fill="#0090D7"/>
<path d="M11.0862 14.7399L15.0171 17.0791C13.9489 18.8712 13.3334 20.9628 13.3334 23.2005C13.3334 25.4383 13.9489 27.5299 15.0171 29.322L11.0862 31.6611C9.61012 29.1852 8.76123 26.2943 8.76123 23.2005C8.76123 20.1068 9.61012 17.2159 11.0862 14.7399Z" fill="#0090D7"/>
<path d="M18.6622 19.2485L25.3025 23.2005L18.6622 27.1526C17.9737 25.9971 17.5752 24.646 17.5752 23.2005C17.5752 21.7551 17.9713 20.4063 18.6622 19.2485Z" fill="#0090D7"/>
<path d="M65.0826 20.7363H60.2935V24.4879H65.0826V20.7363Z" fill="#0090D7"/>
</g>
<defs>
<clipPath id="clip0_407_8995">
<rect width="159.002" height="36" fill="white" transform="translate(0.279297 -6.10352e-05)"/>
</clipPath>
</defs>
</svg>
