<svg width="114" height="40" viewBox="0 0 114 40" fill="none" xmlns="http://www.w3.org/2000/svg">
<g clip-path="url(#clip0_407_8993)">
<path d="M47.5232 31.5394H40.9505L38.2313 18.9206L35.5456 31.5394H28.9729L23.4512 11.0859H29.2398L31.2249 19.3873C31.7754 21.671 32.3593 25.5217 32.3593 25.5217H32.426L35.4621 11.0859H40.9839L44.02 25.5217H44.0867C44.0867 25.5217 44.6706 21.671 45.2211 19.3873L47.2729 11.0859H53.0282L47.5232 31.5394Z" fill="#0082CA"/>
<path d="M60.6203 31.5391H55.6491V19.8537H53.7808V16.3531H60.6203V31.5391ZM60.5036 12.3691C60.5036 13.9194 59.536 14.6195 57.8345 14.6195C56.2497 14.6195 55.2655 13.9194 55.2655 12.3691C55.2655 10.8188 56.2664 10.1187 57.8345 10.1187C59.536 10.1187 60.5036 10.8188 60.5036 12.3691Z" fill="#0082CA"/>
<path d="M79.455 15.2366H69.8295V19.8207H78.1037V23.9714H69.8295V31.5394H64.4746V11.0859H79.455V15.2366Z" fill="#0082CA"/>
<path d="M87.5769 31.5391H82.6057V19.8537H80.7373V16.3531H87.5769V31.5391ZM87.4601 12.3691C87.4601 13.9194 86.4926 14.6195 84.791 14.6195C83.2062 14.6195 82.222 13.9194 82.222 12.3691C82.222 10.8188 83.2229 10.1187 84.791 10.1187C86.4926 10.1187 87.4601 10.8188 87.4601 12.3691Z" fill="#0082CA"/>
<path d="M56.0139 4.28401C55.9972 3.66724 55.6469 3.11714 54.9295 3.11714C54.1622 3.11714 53.645 3.50054 53.4949 4.28401H56.0139ZM54.8461 2.00028C56.4142 2.00028 57.3651 3.05047 57.3651 4.66741C57.3651 4.96746 57.3317 5.21751 57.3317 5.21751H53.5283C53.595 6.06765 54.329 6.45105 55.0964 6.45105C55.5968 6.45105 56.2474 6.3177 56.6311 6.11766L57.1149 7.1345C56.531 7.45123 55.7136 7.60125 55.063 7.60125C53.228 7.60125 52.0603 6.46772 52.0603 4.83411C52.0436 3.15048 53.1946 2.00028 54.8461 2.00028ZM59.8173 -6.10352e-05V6.01765C59.8173 6.3177 60.0008 6.45105 60.3011 6.45105C60.3679 6.45105 60.5347 6.43438 60.6348 6.41771V7.48457C60.3512 7.53457 60.0009 7.58458 59.6839 7.58458C59.0333 7.58458 58.4161 7.33454 58.4161 6.11766V0.800078L59.8173 -6.10352e-05ZM65.2223 4.28401C65.2056 3.66724 64.8553 3.11714 64.138 3.11714C63.3706 3.11714 62.8535 3.50054 62.7033 4.28401H65.2223ZM64.0546 2.00028C65.6227 2.00028 66.5735 3.05047 66.5735 4.66741C66.5735 4.96746 66.5402 5.21751 66.5402 5.21751H62.7367C62.8034 6.06765 63.5374 6.45105 64.3048 6.45105C64.8052 6.45105 65.4558 6.3177 65.8395 6.11766L66.3233 7.1345C65.7394 7.45123 64.922 7.60125 64.2714 7.60125C62.4364 7.60125 61.2687 6.46772 61.2687 4.83411C61.2687 3.15048 62.403 2.00028 64.0546 2.00028ZM40.8 -6.10352e-05V4.46738L42.6016 2.1003H44.2698L42.1345 4.6174L44.1697 7.4679H42.6016L41.3171 5.60091L40.8 6.18434V7.48457H39.3987V0.800078L40.8 -6.10352e-05ZM68.9757 -6.10352e-05V4.46738L70.7774 2.1003H72.4456L70.3103 4.6174L72.3455 7.4679H70.7774L69.4929 5.60091L68.9757 6.18434V7.48457H67.5911V0.800078L68.9757 -6.10352e-05ZM80.7198 2.1003L80.9533 2.81709C81.1869 2.35035 81.8375 2.00028 82.438 2.00028C83.0719 2.00028 83.6725 2.36701 83.9227 2.96712C84.1896 2.43369 84.7735 2.00028 85.6576 2.00028C86.7586 2.00028 87.5761 2.68374 87.5761 4.25067V7.48457H86.1748V4.15066C86.1748 3.60056 85.9579 3.13381 85.3073 3.13381C84.6067 3.13381 84.3064 3.68391 84.3064 4.38403V7.48457H82.9051V4.08398C82.9051 3.60056 82.6716 3.13381 82.0543 3.13381C81.3537 3.13381 81.0534 3.68391 81.0534 4.36736V7.48457H79.6521V2.1003H80.7198ZM75.6151 1.73357C73.9302 1.73357 72.5623 3.10047 72.5623 4.7841C72.5623 6.46772 73.9302 7.83462 75.6151 7.83462C77.3 7.83462 78.6679 6.46772 78.6679 4.7841C78.6679 3.0838 77.3 1.73357 75.6151 1.73357ZM75.6151 6.51773C74.6643 6.51773 73.8802 5.73426 73.8802 4.7841C73.8802 3.83393 74.6643 3.05047 75.6151 3.05047C76.566 3.05047 77.35 3.83393 77.35 4.7841C77.35 5.73426 76.566 6.51773 75.6151 6.51773ZM52.6775 0.233314V1.45019H50.8592V7.48457H49.4078V1.45019H47.5728V0.233314H52.6775ZM36.5294 2.1003V2.88377C36.863 2.20032 37.3635 2.03362 38.3144 2.03362V3.40053H38.1309C37.2133 3.40053 36.5628 3.8506 36.5628 5.01747V7.4679H35.1615V2.08363H36.5294V2.1003ZM28.5221 0.233314V1.45019H26.7037V7.48457H25.2524V1.45019H23.4341V0.233314H28.5221ZM28.5221 0.233314V1.45019H26.7037V7.48457H25.2524V1.45019H23.4341V0.233314H28.5221ZM28.5221 0.233314V1.45019H26.7037V7.48457H25.2524V1.45019H23.4341V0.233314H28.5221ZM28.5221 0.233314V1.45019H26.7037V7.48457H25.2524V1.45019H23.4341V0.233314H28.5221ZM32.5591 7.4679L32.3589 6.81778C32.3089 6.9178 31.9419 7.56791 30.9243 7.56791C30.0234 7.56791 28.9558 7.0845 28.9558 5.51756V2.78375H30.3571V5.51756C30.3571 6.21768 30.7408 6.51773 31.2245 6.51773C31.8585 6.51773 32.2588 6.00098 32.2588 5.33419V2.76708H33.6434V7.45122H32.5591V7.4679ZM29.4563 0.866755H30.8575V1.96695H29.4563V0.866755ZM31.725 0.866755H33.1263V1.96695H31.725V0.866755Z" fill="#002855"/>
<path d="M3.79919 33.6721L7.40249 31.5217C5.66757 28.6212 4.66665 25.2207 4.66665 21.5867C4.66665 17.9527 5.66757 14.5522 7.40249 11.6517L3.79919 9.50128C1.68059 13.0352 0.479492 17.1693 0.479492 21.5867C0.479492 26.0041 1.69727 30.1382 3.79919 33.6721Z" fill="#0082CA"/>
<path d="M10.6893 29.5706L14.4094 27.3702C13.3918 25.6866 12.8246 23.7029 12.8246 21.5859C12.8246 19.4689 13.4085 17.5019 14.4094 15.8016L10.6893 13.6012C9.28804 15.9349 8.4873 18.6687 8.4873 21.5859C8.4873 24.5031 9.30472 27.2369 10.6893 29.5706Z" fill="#0082CA"/>
<path d="M17.8482 25.3208L24.1206 21.5868L17.8482 17.8528C17.1976 18.9364 16.814 20.2199 16.814 21.5868C16.8306 22.9537 17.1976 24.2373 17.8482 25.3208Z" fill="#0082CA"/>
<path d="M109.96 9.50153L106.356 11.6519C108.091 14.5524 109.092 17.953 109.092 21.5869C109.092 25.2209 108.091 28.6215 106.356 31.522L109.96 33.6724C112.078 30.1384 113.279 26.0044 113.279 21.5869C113.279 17.1695 112.062 13.0355 109.96 9.50153Z" fill="#0082CA"/>
<path d="M103.07 13.6015L99.3501 15.8019C100.368 17.4855 100.935 19.4692 100.935 21.5862C100.935 23.7032 100.351 25.6702 99.3501 27.3705L103.07 29.5709C104.471 27.2372 105.272 24.5034 105.272 21.5862C105.272 18.669 104.455 15.9352 103.07 13.6015Z" fill="#0082CA"/>
<path d="M95.913 17.8531L89.6406 21.5871L95.913 25.321C96.5636 24.2375 96.9473 22.954 96.9473 21.5871C96.9306 20.2202 96.5636 18.9533 95.913 17.8531Z" fill="#0082CA"/>
</g>
<defs>
<clipPath id="clip0_407_8993">
<rect width="112.8" height="40" fill="white" transform="translate(0.479492 -6.10352e-05)"/>
</clipPath>
</defs>
</svg>
