<svg width="248" height="40" viewBox="0 0 248 40" fill="none" xmlns="http://www.w3.org/2000/svg">
<g clip-path="url(#clip0_407_10099)">
<path d="M5.05296 26.4086C5.44005 26.4086 5.82715 26.4946 6.17124 26.7096C6.85941 27.1398 7.28952 27.957 7.24651 28.7742C7.28952 29.6344 6.90242 30.4086 6.17124 30.8817C5.82715 31.0967 5.44005 31.1828 5.05296 31.1828H3.07446V26.4086H5.05296ZM3.80565 27.0107V30.6236H4.8379C5.26801 30.6236 5.65511 30.4946 5.95618 30.1935C6.30027 29.8064 6.47231 29.2903 6.4293 28.7742C6.47231 28.215 6.21425 27.6559 5.78414 27.2688C5.48307 27.0967 5.18199 26.9677 4.8379 26.9677L3.80565 27.0107Z" fill="#002855"/>
<path d="M8.57986 29.6774C8.57986 30.3655 9.09599 30.7096 9.82717 30.7096C10.2573 30.7096 10.6444 30.6236 11.0315 30.4516L11.1605 30.9677C10.7304 31.1827 10.2573 31.2688 9.78416 31.2688C8.53685 31.2688 7.84868 30.5806 7.84868 29.4623C7.76266 28.5161 8.49384 27.6989 9.44008 27.6129C9.5261 27.6129 9.61212 27.6129 9.65513 27.6129C10.7304 27.6129 11.3325 28.301 11.3325 29.3333C11.3325 29.4623 11.3325 29.5913 11.3325 29.7204L8.57986 29.6774ZM8.62287 29.1612H10.6444C10.7304 28.6881 10.3863 28.215 9.87018 28.129C9.78416 28.129 9.74115 28.129 9.65513 28.129C9.09599 28.129 8.70889 28.4301 8.62287 29.1612Z" fill="#002855"/>
<path d="M14.1713 27.6559H15.3756V28.129H14.8164C15.0315 28.301 15.1605 28.5591 15.1605 28.8602C15.1605 29.5053 14.6444 29.9784 13.6121 29.9784C13.354 29.9784 13.053 29.9354 12.7949 29.8494C12.6659 29.8924 12.6229 30.0215 12.6229 30.1505C12.6229 30.4516 13.01 30.4946 13.5261 30.4946H14.0852C14.7734 30.4946 15.3325 30.7096 15.3325 31.3548C15.3325 32.172 14.4723 32.387 13.6121 32.387C12.7519 32.387 11.9347 32.215 11.9347 31.4838C11.9347 31.1827 12.1067 30.9247 12.3218 30.7956C12.1067 30.6666 12.0207 30.4516 12.0207 30.2365C12.0207 29.9784 12.1497 29.7204 12.3648 29.5913C12.1497 29.3763 12.0207 29.0752 12.0207 28.7741C12.0207 27.9569 12.6229 27.5698 13.6121 27.5698C13.8272 27.5698 13.9992 27.5698 14.1713 27.6559ZM12.8379 31.0107C12.7089 31.0967 12.5799 31.2258 12.5799 31.3978C12.5799 31.7849 13.01 31.8279 13.5691 31.8279C14.1282 31.8279 14.5583 31.7849 14.5583 31.3978C14.5583 31.1397 14.3433 31.0537 13.9562 31.0537H13.5261C13.311 31.0537 13.053 31.0537 12.8379 31.0107ZM14.5153 26.3655C14.5153 26.8387 14.1282 27.1827 13.6551 27.1827C13.6121 27.1827 13.6121 27.1827 13.5691 27.1827C13.096 27.2688 12.7089 26.9247 12.6229 26.4946C12.6229 26.4516 12.6229 26.4086 12.6229 26.4086L13.053 26.3655C13.139 26.6666 13.268 26.8387 13.5691 26.8387C13.8702 26.8387 13.9992 26.6666 14.0852 26.3655H14.5153ZM12.7519 28.7741C12.7519 29.2043 13.139 29.3763 13.6121 29.3763C14.0852 29.3763 14.4723 29.1612 14.4723 28.7741C14.4723 28.387 14.1282 28.129 13.6551 28.129C13.182 28.129 12.7519 28.344 12.7519 28.7741Z" fill="#002855"/>
<path d="M16.5368 29.6774C16.5368 30.3655 17.0529 30.7096 17.7841 30.7096C18.2142 30.7096 18.6013 30.6236 18.9884 30.4516L19.1174 30.9677C18.6873 31.1827 18.2142 31.2688 17.7411 31.2688C16.4938 31.2688 15.8056 30.5806 15.8056 29.4623C15.7196 28.5161 16.4507 27.6989 17.397 27.6129C17.483 27.6129 17.569 27.6129 17.612 27.6129C18.6873 27.6129 19.2895 28.301 19.2895 29.3333C19.2895 29.4623 19.2895 29.5913 19.2895 29.7204L16.5368 29.6774ZM16.5798 29.1612H18.6013C18.6873 28.6881 18.3432 28.215 17.8271 28.129C17.7411 28.129 17.6981 28.129 17.612 28.129C17.0529 28.129 16.6658 28.4301 16.5798 29.1612Z" fill="#002855"/>
<path d="M21.8702 28.3441C21.096 28.215 20.7519 28.8172 20.7519 29.5484V31.1828H20.0637V27.6129H20.6229L20.7089 28.3441C20.8809 27.8279 21.3971 27.5268 21.9132 27.5699L21.8702 28.3441Z" fill="#002855"/>
<path d="M23.2895 30.4515C23.2895 30.6666 23.4186 30.7096 23.5476 30.7096C23.6766 30.7096 23.7627 30.7096 23.8487 30.7096V31.2257C23.6766 31.2687 23.4616 31.2687 23.2895 31.2687C22.7734 31.2687 22.5583 31.0537 22.5583 30.5806V26.1935H23.2465V30.4515H23.2895Z" fill="#002855"/>
<path d="M25.225 31.1828H24.5368V28.129H24.1067V27.6129H25.268L25.225 31.1828ZM25.268 26.7527C25.268 26.9677 25.1389 27.0967 24.8809 27.0967C24.6228 27.0967 24.4508 26.9677 24.4508 26.7527C24.4508 26.5376 24.5798 26.4086 24.8379 26.4086C25.0959 26.4086 25.268 26.4946 25.268 26.7527Z" fill="#002855"/>
<path d="M32.2357 31.1828H31.5045V29.1182H28.9669V31.1828H28.2357V26.4086H28.9669V28.5161H31.5045V26.4086H32.2357V31.1828Z" fill="#002855"/>
<path d="M34.1713 31.1828H33.4831V28.129H33.053V27.6129H34.2143L34.1713 31.1828ZM34.2143 26.7527C34.2143 26.9677 34.0852 27.0967 33.8272 27.0967C33.5691 27.0967 33.4401 26.9677 33.4401 26.7527C33.4401 26.5376 33.5691 26.4086 33.8272 26.4086C34.0852 26.4086 34.2143 26.4946 34.2143 26.7527Z" fill="#002855"/>
<path d="M37.6981 27.8279L37.569 28.301C37.225 28.172 36.8809 28.086 36.4938 28.086C35.9346 28.086 35.7196 28.301 35.7196 28.5591C35.7196 28.9462 36.0637 28.9892 36.6228 29.1182C37.182 29.2472 37.8271 29.4623 37.8271 30.1935C37.8271 30.9247 37.182 31.2257 36.4078 31.2257C35.9346 31.2257 35.4185 31.0967 34.9884 30.9247L35.1174 30.4515C35.5045 30.6236 35.8916 30.7096 36.3217 30.7096C36.8809 30.7096 37.0959 30.4946 37.0959 30.2365C37.0959 29.8494 36.6658 29.8064 36.1497 29.6774C35.6336 29.5483 34.9884 29.3333 34.9884 28.6021C34.9884 27.8709 35.5906 27.5698 36.3647 27.5698C36.8379 27.6128 37.268 27.6558 37.6981 27.8279Z" fill="#002855"/>
<path d="M41.0098 27.8279L40.8808 28.301C40.5367 28.172 40.1926 28.086 39.8055 28.086C39.2464 28.086 39.0314 28.301 39.0314 28.5591C39.0314 28.9462 39.3754 28.9892 39.9346 29.1182C40.4937 29.2472 41.1389 29.4623 41.1389 30.1935C41.1389 30.9247 40.4937 31.2257 39.7195 31.2257C39.2464 31.2257 38.7303 31.0967 38.3002 30.9247L38.4292 30.4515C38.8163 30.6236 39.2034 30.7096 39.6335 30.7096C40.1926 30.7096 40.4077 30.4946 40.4077 30.2365C40.4077 29.8494 39.9776 29.8064 39.4615 29.6774C38.9453 29.5483 38.3002 29.3333 38.3002 28.6021C38.3002 27.8709 38.9023 27.5698 39.6765 27.5698C40.1496 27.6128 40.5797 27.6558 41.0098 27.8279Z" fill="#002855"/>
<path d="M42.3863 29.6774C42.3863 30.3655 42.9024 30.7096 43.6336 30.7096C44.0637 30.7096 44.4508 30.6236 44.8379 30.4516L44.9669 30.9677C44.5368 31.1827 44.0637 31.2688 43.5906 31.2688C42.3432 31.2688 41.6551 30.5806 41.6551 29.4623C41.5691 28.5161 42.3002 27.6989 43.2465 27.6129C43.3325 27.6129 43.4185 27.6129 43.4615 27.6129C44.5368 27.6129 45.1389 28.301 45.1389 29.3333C45.1389 29.4623 45.1389 29.5913 45.1389 29.7204L42.3863 29.6774ZM42.3863 29.1612H44.4078C44.4938 28.6881 44.1497 28.215 43.6336 28.129C43.5475 28.129 43.5045 28.129 43.4185 28.129C42.8594 28.129 42.4723 28.4301 42.3863 29.1612Z" fill="#002855"/>
<path d="M46.7303 27.6559H47.7195V28.172H46.7303V30.1505C46.7303 30.5806 46.8593 30.7526 47.2034 30.7526C47.3755 30.7526 47.5475 30.7096 47.7195 30.6666L47.7626 31.1397C47.5475 31.2257 47.2894 31.2688 47.0314 31.2688C46.3862 31.2688 46.0421 31.0107 46.0421 30.1935V28.172H45.526V27.6559H46.0421L46.1282 26.6236H46.7303V27.6559Z" fill="#002855"/>
<path d="M49.2249 27.6559H50.2142V28.172H49.2249V30.1505C49.2249 30.5806 49.354 30.7526 49.698 30.7526C49.8701 30.7526 50.0421 30.7096 50.2142 30.6666L50.2572 31.1397C50.0421 31.2257 49.7841 31.2688 49.526 31.2688C48.8808 31.2688 48.5368 31.0107 48.5368 30.1935V28.172H48.0206V27.6559H48.5368L48.6228 26.6236H49.2249V27.6559Z" fill="#002855"/>
<path d="M51.6766 31.1828H50.9885V28.129H50.5583V27.6129H51.7196L51.6766 31.1828ZM51.7196 26.7527C51.7196 26.9677 51.5906 27.0967 51.3325 27.0967C51.0745 27.0967 50.9454 26.9677 50.9454 26.7527C50.9454 26.5376 51.0745 26.4086 51.3325 26.4086C51.5906 26.4086 51.7196 26.4946 51.7196 26.7527Z" fill="#002855"/>
<path d="M54.5583 28.344C53.8271 28.215 53.44 28.8171 53.44 29.5483V31.1827H52.7518V27.6128H53.311L53.354 28.387C53.526 27.8709 54.0422 27.5698 54.5583 27.6128V28.344Z" fill="#002855"/>
<path d="M56.0637 31.1828H55.3755V28.129H54.9454V27.6129H56.1067L56.0637 31.1828ZM56.1067 26.7527C56.1067 26.9677 55.9347 27.0967 55.7196 27.0967C55.5046 27.0967 55.3325 26.9677 55.3325 26.7527C55.3325 26.5376 55.5046 26.4086 55.7196 26.4086C55.9347 26.4086 56.1067 26.4946 56.1067 26.7527Z" fill="#002855"/>
<path d="M58.9454 28.344C58.2142 28.215 57.8271 28.8171 57.8271 29.5483V31.1827H57.1389V27.6128H57.7411L57.7841 28.387C57.9561 27.8709 58.4723 27.5698 58.9884 27.6128L58.9454 28.344Z" fill="#002855"/>
<path d="M103.849 7.99996L99.2465 5.33329L103.849 2.66663V7.99996ZM103.849 7.99996L99.2465 10.6666L101.569 12L103.892 10.6666V7.99996H103.849Z" fill="#CEDC00"/>
<path d="M103.849 7.99992L99.2464 10.6666L94.6443 7.99992L99.2464 5.33325L103.849 7.99992Z" fill="#0082CA"/>
<path d="M122.3 2.66661L117.655 -6.10352e-05V5.33327L122.3 2.66661Z" fill="#E63323"/>
<path d="M103.849 23.9569V15.9569L108.451 18.6236V7.99996L103.849 10.6666V2.66663L122.3 13.3333L103.849 23.9569ZM94.6013 2.66663V7.99996L99.2035 5.33329L94.6013 2.66663ZM94.6013 13.2903L99.2035 10.6236L94.6013 7.95695V13.2903ZM92.5798 34.4946L82.9884 28.9462V40L92.5798 34.4946Z" fill="#05BEC8"/>
<path d="M48.2357 19.2688C48.2357 18.3655 47.7196 17.5483 46.6443 17.5483C45.6121 17.4623 44.6658 18.2365 44.5368 19.2688H48.2357ZM46.5153 15.9139C48.8379 15.9139 50.2142 17.4623 50.2142 19.8279C50.2142 20.086 50.2142 20.387 50.1712 20.6451H44.5798C44.6658 21.8924 45.7841 22.4516 46.8594 22.4516C47.6336 22.4516 48.4078 22.2795 49.1389 21.9354L49.8271 23.4408C48.8809 23.9139 47.8486 24.129 46.8164 24.129C44.1067 24.129 42.4293 22.4946 42.4293 20.0429C42.4293 17.5913 44.1067 15.9139 46.5153 15.9139ZM53.8271 12.9892V21.8064C53.8271 22.2365 54.0852 22.4516 54.5583 22.4516C54.7303 22.4516 54.9024 22.4085 55.0314 22.4085V23.9569C54.5583 24.0429 54.0852 24.086 53.6551 24.086C52.7088 24.086 51.8056 23.7419 51.8056 21.9354V14.1075L53.8271 12.9892ZM61.7841 19.2688C61.7841 18.3655 61.268 17.5483 60.1927 17.5483C59.1604 17.4623 58.2142 18.2365 58.0852 19.2688H61.7841ZM60.0637 15.9139C62.3863 15.9139 63.7626 17.4623 63.7626 19.8279C63.7626 20.086 63.7626 20.344 63.7196 20.6451H58.1282C58.2142 21.8924 59.3325 22.4516 60.4078 22.4516C61.182 22.4516 61.9561 22.2795 62.6873 21.9354L63.3755 23.4408C62.4293 23.9139 61.397 24.129 60.3647 24.129C57.6551 24.129 55.9776 22.4946 55.9776 20.0429C55.9776 17.5913 57.6121 15.9139 60.0637 15.9139ZM25.8701 12.9892V19.5268L28.4938 16.0429H30.9454L27.8056 19.7419L30.8164 23.9569H28.4938L26.6013 21.2042L25.8271 22.0645V23.9569H23.7626V14.1075L25.8701 12.9892ZM67.2895 12.9892V19.5268L69.9131 16.0429H72.3647L69.225 19.7419L72.2357 23.9569H69.9561L68.0637 21.2042L67.2895 22.0645V23.9569H65.225V14.1075L67.2895 12.9892ZM84.5368 16.086L84.8809 17.1182C85.354 16.344 86.1712 15.9139 87.0744 15.9139C88.0207 15.9139 88.8809 16.4731 89.268 17.3333C89.7841 16.387 90.7734 15.8709 91.8056 15.9139C93.44 15.9139 94.6443 16.9032 94.6443 19.2257V23.9569H92.5798V19.0537C92.5798 18.2365 92.2787 17.5483 91.2895 17.5483C90.3002 17.5483 89.8271 18.3655 89.8271 19.3978V23.9569H87.7626V18.9677C87.7626 18.2795 87.4185 17.5913 86.5153 17.5913C85.483 17.5913 85.0529 18.4085 85.0529 19.3978V23.9569H82.9884V16.0429L84.5368 16.086ZM77.0529 15.4838C74.5583 15.4838 72.5798 17.5053 72.5798 19.9569C72.5798 22.4516 74.6013 24.43 77.0529 24.43C79.5475 24.43 81.526 22.4516 81.526 19.9569C81.526 17.5053 79.5475 15.4838 77.0529 15.4838ZM77.0529 22.5376C75.6336 22.5376 74.5153 21.4193 74.5153 19.9999C74.5153 18.5806 75.6336 17.4623 77.0529 17.4623C78.4723 17.4623 79.5906 18.5806 79.5906 19.9999C79.5906 21.3763 78.4723 22.5376 77.0529 22.5376ZM43.3325 13.2903V15.0537H40.6658V23.9139H38.5153V15.0967H35.8486V13.3333H43.3325V13.2903ZM19.6336 16.0429V17.2042C20.1067 16.215 20.8809 15.9569 22.2572 15.9569V17.9784H21.9992C20.6658 17.9784 19.7196 18.6666 19.7196 20.344V23.9569H17.6551V16.0429H19.6336ZM7.84862 13.2903V15.0537H5.18195V23.9139H3.03141V15.0967H0.364746V13.3333H7.84862V13.2903ZM13.7841 23.9569L13.483 23.0107C13.0529 23.7419 12.2357 24.172 11.3755 24.086C10.0422 24.086 8.49378 23.3548 8.49378 21.0752V17.0752H10.5583V21.0752C10.5583 22.1075 11.1174 22.5806 11.8486 22.5806C12.7949 22.5806 13.354 21.8494 13.354 20.8171V17.0752H15.3755V23.9569H13.7841ZM9.22496 14.2365H11.2895V15.8709H9.22496V14.2365ZM12.5798 14.2365H14.6443V15.8709H12.5798V14.2365ZM87.7626 13.2903V7.99994L92.4078 10.6666L87.7626 13.2903ZM69.9561 31.2257V26.7096L73.8701 28.9462L69.9561 31.2257Z" fill="#002855"/>
<path d="M108.451 7.99994L103.849 10.6666V15.9569L108.451 18.6236V7.99994Z" fill="#0082CA"/>
<path d="M99.2465 13.2903L103.849 15.9569V10.6666L99.2465 13.2903Z" fill="#002855"/>
<path d="M133.096 10.1935H132.537V33.2903H133.096V10.1935Z" fill="#DDDDDD"/>
<path d="M146.902 22.9249V27.183H145.999V22.9249L141.999 16.9034H143.031L146.429 22.1507L149.827 16.9034H150.859L146.902 22.9249Z" fill="#002855"/>
<path d="M157.053 19.9139V27.1827H156.15V25.8064C155.935 26.2795 155.634 26.6666 155.203 26.9246C154.773 27.1827 154.257 27.3117 153.655 27.3117C153.01 27.3117 152.451 27.1397 151.935 26.8386C151.462 26.5375 151.074 26.1074 150.816 25.5483C150.558 24.9892 150.429 24.344 150.429 23.5698C150.429 22.7956 150.558 22.1504 150.816 21.5913C151.074 21.0322 151.462 20.559 151.935 20.258C152.408 19.9569 152.967 19.7849 153.612 19.7849C154.214 19.7849 154.73 19.9139 155.16 20.1719C155.591 20.43 155.935 20.7741 156.15 21.2902V19.9999H157.053V19.9139ZM155.548 25.6773C155.978 25.1612 156.15 24.43 156.15 23.4838C156.15 22.5375 155.935 21.8064 155.548 21.2902C155.117 20.7741 154.558 20.516 153.784 20.516C153.01 20.516 152.408 20.7741 152.021 21.3332C151.591 21.8494 151.376 22.6236 151.376 23.5698C151.376 24.516 151.591 25.2472 152.021 25.7633C152.451 26.2795 153.053 26.5375 153.827 26.5375C154.515 26.4945 155.117 26.2365 155.548 25.6773Z" fill="#002855"/>
<path d="M160.666 20.6021V24.9032C160.666 25.4623 160.795 25.8924 161.01 26.1075C161.225 26.3225 161.569 26.4515 161.999 26.4515C162.257 26.4515 162.515 26.4085 162.773 26.3225V27.1397C162.472 27.2257 162.171 27.2687 161.827 27.2687C161.182 27.2687 160.709 27.0967 160.322 26.7526C159.978 26.4085 159.763 25.8494 159.763 25.1612V20.6021H158.343V19.9139H159.763V17.9784L160.666 17.6343V19.8709H162.816V20.5591H160.666V20.6021Z" fill="#002855"/>
<path d="M164.322 19.914H165.182V27.1828H164.322V19.914Z" fill="#002855"/>
<path d="M171.376 19.785L171.333 20.6022C171.16 20.5592 170.945 20.5592 170.687 20.5592C169.956 20.5592 169.397 20.7743 169.053 21.2474C168.709 21.7205 168.494 22.2796 168.494 22.9248V27.1829H167.634V21.9356C167.634 21.1614 167.591 20.5162 167.505 19.914H168.365L168.494 21.2474C168.666 20.7743 168.967 20.3872 169.397 20.1291C169.827 19.871 170.257 19.742 170.773 19.742C170.988 19.742 171.204 19.742 171.376 19.785Z" fill="#002855"/>
<path d="M172.666 19.914H173.526V27.1828H172.666V19.914Z" fill="#002855"/>
<path d="M186.171 22.5377V27.1398H185.311V22.5807C185.311 21.8495 185.182 21.3334 184.924 20.9893C184.666 20.6452 184.236 20.4732 183.677 20.4732C183.031 20.4732 182.472 20.6882 182.085 21.1183C181.698 21.5484 181.526 22.1506 181.526 22.9248V27.0968H180.623V22.5807C180.623 21.8495 180.494 21.3334 180.236 20.9893C179.978 20.6452 179.548 20.4732 178.988 20.4732C178.343 20.4732 177.827 20.6882 177.397 21.1183C177.01 21.5484 176.795 22.1506 176.795 22.9248V27.0968H175.935V21.9355C175.935 21.1613 175.892 20.5162 175.806 19.914H176.666L176.795 21.2044C177.01 20.7312 177.311 20.3441 177.698 20.0861C178.085 19.828 178.558 19.699 179.074 19.699C180.236 19.699 181.01 20.1721 181.311 21.1183C181.526 20.6882 181.827 20.3441 182.257 20.0861C182.687 19.828 183.161 19.699 183.72 19.699C185.397 19.742 186.171 20.6882 186.171 22.5377Z" fill="#002855"/>
<path d="M189.698 26.7958C189.182 26.4947 188.795 26.0646 188.494 25.5054C188.193 24.9463 188.064 24.3011 188.064 23.527C188.064 22.7528 188.193 22.1076 188.494 21.5485C188.795 20.9893 189.182 20.5162 189.698 20.2151C190.214 19.914 190.816 19.742 191.505 19.742C191.978 19.742 192.451 19.828 192.924 20.0001C193.354 20.1721 193.741 20.3872 194.042 20.6882L193.698 21.3764C193.311 21.0753 192.967 20.8603 192.623 20.6882C192.279 20.5592 191.935 20.4732 191.548 20.4732C190.773 20.4732 190.128 20.7313 189.698 21.2904C189.268 21.8495 189.01 22.5807 189.01 23.527C189.01 24.4732 189.225 25.1614 189.698 25.6775C190.128 26.1936 190.773 26.4517 191.548 26.4517C191.935 26.4517 192.279 26.3657 192.623 26.2366C192.967 26.1076 193.311 25.8925 193.698 25.5915L194.042 26.2796C193.741 26.5807 193.354 26.7958 192.881 26.9678C192.408 27.1399 191.978 27.2259 191.505 27.2259C190.816 27.2689 190.214 27.0968 189.698 26.7958Z" fill="#002855"/>
<path d="M195.634 19.914H196.494V27.1828H195.634V19.914Z" fill="#002855"/>
<path d="M203.806 14.2795V15.3978H202.644V14.2795H203.806ZM202.773 16.8601H203.677V27.1827H202.773V16.8601Z" fill="#002855"/>
<path d="M206.171 16.5162H207.031V27.1829H206.171V16.5162Z" fill="#002855"/>
<path d="M210.515 16.9034V18.0217H209.354V16.9034H210.515ZM209.483 19.9141H210.343V27.183H209.483V19.9141Z" fill="#002855"/>
<path d="M217.225 26.6666C216.752 27.0107 216.15 27.2257 215.333 27.2687L215.29 27.7849C215.419 27.7419 215.548 27.7419 215.677 27.7419C215.978 27.7419 216.236 27.8279 216.451 27.9999C216.666 28.172 216.795 28.43 216.795 28.7741C216.795 29.1182 216.666 29.4193 216.365 29.6343C216.064 29.8494 215.677 29.9784 215.16 29.9784C214.945 29.9784 214.73 29.9784 214.515 29.8924C214.3 29.8494 214.085 29.7634 213.913 29.6773L214.128 29.1182C214.429 29.2472 214.816 29.3333 215.203 29.3333C215.505 29.3333 215.677 29.2902 215.849 29.2042C215.978 29.1182 216.064 28.9892 216.064 28.8171C216.064 28.6881 216.021 28.5591 215.935 28.5161C215.849 28.473 215.72 28.387 215.548 28.387C215.376 28.387 215.117 28.43 214.859 28.5161L214.601 28.301L214.687 27.2687C213.741 27.1827 213.01 26.8816 212.451 26.3225L212.752 25.6343C213.139 25.9354 213.526 26.1935 213.913 26.3225C214.3 26.4515 214.773 26.5376 215.247 26.5376C215.849 26.5376 216.322 26.4515 216.623 26.2365C216.924 26.0214 217.096 25.7204 217.096 25.3333C217.096 24.9892 217.01 24.7311 216.795 24.5591C216.58 24.387 216.236 24.215 215.763 24.0859L214.515 23.8279C213.956 23.6988 213.483 23.4408 213.139 23.0967C212.795 22.7526 212.623 22.3225 212.623 21.8924C212.623 21.2472 212.881 20.7311 213.354 20.387C213.827 19.9999 214.472 19.8279 215.29 19.8279C215.806 19.8279 216.279 19.9139 216.709 20.0859C217.139 20.258 217.526 20.473 217.784 20.7741L217.44 21.4623C216.795 20.9032 216.064 20.6021 215.247 20.6021C214.687 20.6021 214.257 20.7311 213.956 20.9462C213.655 21.1612 213.483 21.4623 213.483 21.8924C213.483 22.2365 213.569 22.4945 213.784 22.7096C213.999 22.9247 214.3 23.0537 214.687 23.1397L215.935 23.4408C217.225 23.7419 217.87 24.387 217.87 25.3763C217.913 25.8064 217.698 26.2795 217.225 26.6666Z" fill="#002855"/>
<path d="M224.795 27.1399L220.795 23.613V27.1399H219.935V16.5162H220.795V23.2689L224.451 19.9141H225.612L221.827 23.398L226.042 27.1399H224.795Z" fill="#002855"/>
<path d="M228.193 16.9034V18.0217H227.031V16.9034H228.193ZM227.16 19.9141H228.021V27.183H227.16V19.9141Z" fill="#002855"/>
<path d="M230.429 16.5162H231.29V27.1829H230.429V16.5162Z" fill="#002855"/>
<path d="M234.214 23.4409V23.4839C234.214 24.4732 234.429 25.2044 234.902 25.7205C235.376 26.2366 236.021 26.4947 236.881 26.4947C237.741 26.4947 238.558 26.1936 239.29 25.5915L239.634 26.2796C239.333 26.5807 238.902 26.8388 238.429 27.0108C237.956 27.1829 237.44 27.2689 236.924 27.2689C235.806 27.2689 234.945 26.9248 234.3 26.2796C233.655 25.6345 233.354 24.6882 233.354 23.527C233.354 22.7958 233.483 22.1076 233.784 21.5485C234.085 20.9893 234.472 20.5162 234.988 20.2151C235.505 19.914 236.107 19.742 236.752 19.742C237.698 19.742 238.472 20.0431 238.988 20.6882C239.505 21.2904 239.806 22.1506 239.806 23.2689V23.4409H234.214ZM235.031 21.0753C234.601 21.4624 234.343 22.0216 234.257 22.7528H238.859C238.816 22.0216 238.601 21.4624 238.214 21.0323C237.827 20.6452 237.311 20.4302 236.666 20.4302C236.021 20.4732 235.462 20.6452 235.031 21.0753Z" fill="#002855"/>
<path d="M245.354 19.785L245.311 20.6022C245.139 20.5592 244.924 20.5592 244.666 20.5592C243.935 20.5592 243.376 20.7743 243.031 21.2474C242.687 21.7205 242.472 22.2796 242.472 22.9248V27.1829H241.612V21.9356C241.612 21.1614 241.569 20.5162 241.483 19.914H242.343L242.472 21.2474C242.644 20.7743 242.945 20.3872 243.376 20.1291C243.806 19.871 244.236 19.742 244.752 19.742C244.967 19.742 245.182 19.742 245.354 19.785Z" fill="#002855"/>
<path d="M247.677 16.9034V18.0217H246.515V16.9034H247.677ZM246.644 19.9141H247.505V27.183H246.644V19.9141Z" fill="#002855"/>
</g>
<defs>
<clipPath id="clip0_407_10099">
<rect width="247.312" height="40" fill="white" transform="translate(0.364746 -6.10352e-05)"/>
</clipPath>
</defs>
</svg>
