<svg width="49" height="50" viewBox="0 0 49 50" fill="none" xmlns="http://www.w3.org/2000/svg">
<g clip-path="url(#clip0_407_9901)">
<path d="M23.8257 44.0214C34.1459 44.0214 42.5121 35.2962 42.5121 24.5331C42.5121 13.7701 34.1459 5.04492 23.8257 5.04492C13.5054 5.04492 5.13916 13.7701 5.13916 24.5331C5.13916 35.2962 13.5054 44.0214 23.8257 44.0214Z" fill="white"/>
<path d="M0.670166 25C0.670166 11.4394 11.2099 0.446533 24.2123 0.446533C37.2147 0.446533 47.7545 11.4394 47.7545 25C47.7545 38.5606 37.2147 49.5534 24.2123 49.5534C11.2099 49.5534 0.670166 38.5606 0.670166 25ZM5.98293 25C5.98293 35.5001 14.1442 44.0117 24.2123 44.0117C34.2805 44.0117 42.4417 35.5001 42.4417 25C42.4417 14.4998 34.2805 5.98825 24.2123 5.98825C14.1442 5.98825 5.98293 14.4998 5.98293 25Z" fill="#005BAA"/>
<path d="M0.670166 25C0.670166 11.4393 11.2099 0.446533 24.2123 0.446533C37.2147 0.446533 47.7545 11.4393 47.7545 25C47.7545 38.5606 37.2147 49.5534 24.2123 49.5534C11.2099 49.5534 0.670166 38.5606 0.670166 25ZM5.98293 25C5.98293 35.5001 14.1442 44.0117 24.2123 44.0117C34.2805 44.0117 42.4417 35.5001 42.4417 25C42.4417 14.4998 34.2805 5.98825 24.2123 5.98825C14.1442 5.98825 5.98293 14.4998 5.98293 25Z" stroke="white" stroke-width="0.893146" stroke-miterlimit="3.86"/>
<path fill-rule="evenodd" clip-rule="evenodd" d="M32.2036 45.7252C32.143 45.1055 28.0178 36.7274 8.98345 35.4799L6.14868 35.585C6.14868 35.585 13.1693 44.0092 16.8357 44.7115C20.5021 45.4137 22.4526 46.7396 26.2752 46.3497C30.0978 45.9598 32.2036 45.726 32.2036 45.726V45.7252Z" fill="#005BAA"/>
<path d="M32.2036 45.7252C32.143 45.1055 28.0178 36.7274 8.98345 35.4799L6.14868 35.585C6.14868 35.585 13.1693 44.0092 16.8357 44.7115C20.5021 45.4137 22.4526 46.7396 26.2752 46.3497C30.0978 45.9598 32.2036 45.726 32.2036 45.726V45.7252Z" stroke="#005BAA" stroke-width="0.101126" stroke-miterlimit="3.86"/>
<path fill-rule="evenodd" clip-rule="evenodd" d="M11.4882 41.5733C11.5392 41.6049 11.6095 41.6324 11.6985 41.6559C11.7875 41.6793 11.883 41.6923 11.9849 41.6931C12.2244 41.6882 12.4024 41.6292 12.5173 41.5151C12.6321 41.401 12.6896 41.2611 12.6888 41.0952C12.6888 40.9601 12.6524 40.846 12.5787 40.753C12.5051 40.66 12.391 40.5823 12.2365 40.52C12.1225 40.4747 12.0399 40.4334 11.9882 40.3946C11.9364 40.3558 11.9105 40.3072 11.9113 40.2482C11.9113 40.198 11.9323 40.1543 11.9744 40.1187C12.0165 40.0823 12.0804 40.0637 12.1661 40.0621C12.2511 40.0637 12.3247 40.0742 12.3862 40.0937C12.4477 40.1131 12.4962 40.1333 12.5302 40.1535L12.6184 39.8048C12.5666 39.7773 12.5043 39.7539 12.4307 39.7361C12.3571 39.7183 12.2705 39.7086 12.171 39.7078C11.9639 39.711 11.8021 39.7668 11.6856 39.8736C11.5691 39.9804 11.51 40.1179 11.5084 40.2862C11.51 40.4254 11.5545 40.5419 11.6411 40.6349C11.7277 40.7279 11.8442 40.8024 11.9914 40.859C12.0958 40.8978 12.171 40.9375 12.2171 40.9787C12.2632 41.02 12.2859 41.0693 12.2851 41.1284C12.2851 41.1923 12.2616 41.2425 12.2139 41.2805C12.1669 41.3177 12.0974 41.3371 12.0068 41.3379C11.921 41.3363 11.8401 41.3242 11.7624 41.3007C11.6856 41.2772 11.6209 41.2497 11.5675 41.2182L11.4866 41.5758L11.4882 41.5733Z" fill="white"/>
<path fill-rule="evenodd" clip-rule="evenodd" d="M14.001 40.4949H13.3562V40.0936H14.0398V39.7368H12.9614V41.6647H14.0762V41.3079H13.3562V40.8492H14.001V40.4949Z" fill="white"/>
<path fill-rule="evenodd" clip-rule="evenodd" d="M14.8148 40.8444L14.9183 40.435C14.9329 40.3776 14.9467 40.3161 14.9596 40.2497C14.9725 40.1834 14.9863 40.1211 14.9992 40.0629H15.0041C15.017 40.1211 15.0316 40.1834 15.0462 40.2489C15.0615 40.3145 15.0769 40.3768 15.0923 40.435L15.2015 40.8444H14.814H14.8148ZM15.2589 41.1696L15.394 41.6647H15.8228L15.2775 39.736H14.7582L14.2258 41.6647H14.6336L14.7582 41.1696H15.2597H15.2589Z" fill="white"/>
<path fill-rule="evenodd" clip-rule="evenodd" d="M16.4467 40.0621C16.4605 40.0581 16.4823 40.054 16.5115 40.0516C16.5406 40.0492 16.5786 40.0475 16.6263 40.0475C16.7178 40.0475 16.7898 40.0702 16.8399 40.1147C16.8909 40.1592 16.9168 40.2255 16.9176 40.3121C16.9176 40.397 16.8893 40.4642 16.8343 40.5135C16.7792 40.5629 16.7024 40.588 16.6029 40.5888H16.4467V40.0621ZM16.0552 41.6647H16.4475V40.9035H16.5649C16.6458 40.9027 16.708 40.9237 16.7517 40.9682C16.7962 41.0127 16.8294 41.0944 16.8529 41.2141C16.8779 41.3339 16.9006 41.4317 16.9216 41.5078C16.9427 41.5838 16.9596 41.6364 16.9726 41.6656H17.3779C17.3609 41.6235 17.3399 41.5507 17.3156 41.4463C17.2913 41.3419 17.2655 41.2319 17.2379 41.117C17.2169 41.0272 17.187 40.952 17.1506 40.8913C17.1134 40.8307 17.0648 40.7862 17.0041 40.7587V40.7498C17.0826 40.719 17.153 40.6632 17.2153 40.5831C17.2776 40.5022 17.3099 40.4011 17.3132 40.2797C17.3132 40.1915 17.2994 40.1131 17.2711 40.0451C17.2436 39.9771 17.2032 39.9205 17.1498 39.8744C17.0883 39.8202 17.0106 39.7814 16.9176 39.7579C16.8245 39.7344 16.7129 39.7223 16.5835 39.7231C16.4759 39.7231 16.3772 39.7272 16.2874 39.7344C16.1976 39.7417 16.1199 39.7514 16.056 39.7628V41.6656L16.0552 41.6647Z" fill="white"/>
<path fill-rule="evenodd" clip-rule="evenodd" d="M18.8122 41.2708C18.771 41.2894 18.7208 41.3047 18.6618 41.3161C18.6027 41.3274 18.542 41.333 18.4797 41.3339C18.3026 41.3314 18.1658 41.2748 18.0688 41.164C17.9717 41.0531 17.9223 40.8994 17.9207 40.7044C17.9248 40.4901 17.9782 40.3299 18.0817 40.2239C18.1853 40.1179 18.3171 40.0653 18.4765 40.0661C18.5477 40.0661 18.6116 40.0742 18.6674 40.088C18.7233 40.1017 18.7702 40.1187 18.809 40.1373L18.8923 39.7943C18.8567 39.7717 18.8017 39.7522 18.7273 39.7353C18.6529 39.7183 18.5647 39.7094 18.4611 39.7086C18.2823 39.7086 18.1213 39.7482 17.9773 39.8267C17.8333 39.9051 17.7193 40.0208 17.6351 40.1721C17.551 40.3234 17.5073 40.5095 17.5049 40.7295C17.5049 40.9148 17.5397 41.0798 17.6084 41.2246C17.6772 41.3695 17.7791 41.4843 17.915 41.5685C18.051 41.6526 18.22 41.6955 18.4223 41.6971C18.5283 41.6963 18.6205 41.6866 18.6982 41.6696C18.7758 41.6526 18.8333 41.634 18.8689 41.6146L18.8114 41.2716L18.8122 41.2708Z" fill="white"/>
<path fill-rule="evenodd" clip-rule="evenodd" d="M19.1367 39.7368V41.6647H19.5315V40.8581H20.1844V41.6647H20.5792V39.7368H20.1844V40.4779H19.5315V39.7368H19.1367Z" fill="white"/>
<path fill-rule="evenodd" clip-rule="evenodd" d="M21.7781 41.1987C21.7781 41.21 21.7781 41.223 21.7757 41.2367C21.7733 41.2505 21.7717 41.2642 21.7676 41.2788C21.749 41.3395 21.7142 41.3929 21.6616 41.439C21.609 41.4843 21.5419 41.5085 21.4578 41.511C21.3987 41.511 21.3493 41.4924 21.3081 41.4527C21.2668 41.4131 21.2458 41.3532 21.2442 41.2699C21.2458 41.1809 21.2741 41.1137 21.3267 41.0684C21.3801 41.0223 21.4472 40.9924 21.5281 40.977C21.609 40.9617 21.6924 40.9552 21.7773 40.9584V41.1987H21.7781ZM21.999 40.8152C22.0006 40.7214 21.9877 40.6324 21.9602 40.5466C21.9335 40.4609 21.8849 40.3913 21.8153 40.3363C21.7458 40.2813 21.6471 40.253 21.5209 40.2513C21.4408 40.2513 21.3647 40.2627 21.2927 40.2845C21.2207 40.3064 21.1584 40.3347 21.105 40.3711L21.1568 40.5402C21.2013 40.507 21.2531 40.4819 21.3097 40.4641C21.3671 40.4463 21.4262 40.4374 21.4869 40.4374C21.5718 40.4382 21.6341 40.4568 21.6754 40.494C21.7166 40.5305 21.7433 40.5733 21.7563 40.6227C21.7692 40.672 21.7741 40.7165 21.7733 40.7554V40.7837C21.5289 40.7837 21.3421 40.8265 21.2126 40.9147C21.0832 41.0029 21.0177 41.1307 21.0168 41.299C21.0168 41.4034 21.0492 41.4948 21.1139 41.5733C21.1786 41.6517 21.2741 41.693 21.4019 41.697C21.4917 41.6954 21.5702 41.6744 21.6357 41.6347C21.7013 41.5951 21.7514 41.5474 21.787 41.4916H21.7951L21.8129 41.6655H22.0176C22.0111 41.6178 22.0063 41.566 22.0038 41.5094C22.0006 41.4527 21.9998 41.3945 21.9998 41.3338V40.816L21.999 40.8152Z" fill="white"/>
<path fill-rule="evenodd" clip-rule="evenodd" d="M22.2198 41.6647H22.448V40.8322C22.448 40.8104 22.4496 40.7893 22.452 40.7691C22.4544 40.7489 22.4585 40.7311 22.4633 40.7149C22.4852 40.6429 22.5232 40.5822 22.5766 40.5337C22.63 40.4851 22.6947 40.4593 22.7699 40.4576C22.8767 40.4609 22.952 40.5013 22.9965 40.5782C23.041 40.6558 23.0628 40.7521 23.0612 40.8662V41.6647H23.2893V40.8403C23.2869 40.6833 23.2618 40.562 23.2133 40.4762C23.1647 40.3905 23.1065 40.3314 23.0377 40.2983C22.9698 40.2651 22.9059 40.2497 22.8452 40.2513C22.7408 40.2538 22.6535 40.2805 22.5823 40.3314C22.5119 40.3824 22.4601 40.4415 22.4285 40.5086H22.4237L22.4107 40.2797H22.2085C22.2125 40.3363 22.215 40.3945 22.2166 40.4552C22.2182 40.5159 22.219 40.5822 22.219 40.6542V41.6639L22.2198 41.6647Z" fill="white"/>
<path fill-rule="evenodd" clip-rule="evenodd" d="M24.3708 41.0839C24.3708 41.1041 24.3708 41.1227 24.3684 41.1405C24.3668 41.1583 24.3644 41.1753 24.3603 41.1931C24.3377 41.2869 24.2956 41.3605 24.2349 41.4131C24.1734 41.4657 24.1039 41.4924 24.0254 41.494C23.9032 41.49 23.8102 41.4398 23.7479 41.3427C23.6856 41.2457 23.6541 41.1251 23.6541 40.9811C23.6549 40.8258 23.688 40.6996 23.7536 40.6009C23.8191 40.5022 23.9113 40.452 24.0311 40.4488C24.1176 40.4512 24.1904 40.4795 24.2479 40.5345C24.3053 40.5896 24.3433 40.6575 24.3611 40.7384C24.3652 40.7546 24.3676 40.7724 24.3692 40.791C24.3708 40.8104 24.3717 40.8274 24.3717 40.8436V41.0839H24.3708ZM24.3708 39.6333V40.4601H24.366C24.3377 40.4043 24.2916 40.3557 24.2276 40.3153C24.1645 40.2748 24.0836 40.2538 23.9866 40.2514C23.8838 40.2514 23.79 40.2821 23.7042 40.3412C23.6185 40.4002 23.5505 40.4852 23.4995 40.5952C23.4486 40.7052 23.4227 40.8379 23.4219 40.9924C23.4251 41.206 23.4777 41.3759 23.578 41.5021C23.6783 41.6283 23.807 41.693 23.9623 41.6963C24.0658 41.6947 24.1532 41.6688 24.226 41.6186C24.2988 41.5685 24.3522 41.5037 24.3862 41.4253H24.3943L24.4048 41.6655H24.6071C24.6046 41.617 24.6022 41.5612 24.5998 41.4973C24.5974 41.4333 24.5966 41.3702 24.5966 41.308V39.6341H24.3708V39.6333Z" fill="white"/>
<path fill-rule="evenodd" clip-rule="evenodd" d="M14.8319 42.7091C14.8505 42.7043 14.878 42.7002 14.9161 42.697C14.9541 42.6938 15.0042 42.6921 15.0665 42.6921C15.1863 42.6921 15.2793 42.7188 15.3456 42.7722C15.412 42.8248 15.446 42.9033 15.4468 43.0068C15.446 43.108 15.4096 43.1873 15.3384 43.2455C15.2672 43.3038 15.166 43.3337 15.0358 43.3345H14.8319V42.7099V42.7091ZM14.3198 44.6087H14.8319V43.7058H14.9848C15.09 43.7042 15.1717 43.7301 15.2291 43.7827C15.2866 43.8353 15.3311 43.9324 15.3618 44.0739C15.3942 44.2155 15.4241 44.3312 15.4516 44.4218C15.4791 44.5124 15.501 44.5739 15.518 44.6087H16.0471C16.0244 44.5593 15.9977 44.4728 15.9653 44.3482C15.9338 44.2244 15.8998 44.0942 15.8634 43.9574C15.8351 43.8515 15.7971 43.7625 15.7493 43.6897C15.7008 43.6176 15.6377 43.5651 15.5584 43.5319V43.5214C15.6612 43.485 15.7534 43.4186 15.8335 43.3232C15.9144 43.2277 15.9573 43.108 15.9613 42.9632C15.9613 42.858 15.9427 42.7658 15.9063 42.6849C15.8699 42.6048 15.8173 42.5368 15.7477 42.4826C15.6668 42.4187 15.5657 42.3726 15.4443 42.3443C15.323 42.316 15.1774 42.3022 15.0083 42.303C14.8683 42.303 14.7397 42.3079 14.6224 42.3168C14.5051 42.3257 14.404 42.337 14.3198 42.3507V44.6063V44.6087Z" fill="white"/>
<path fill-rule="evenodd" clip-rule="evenodd" d="M17.4976 43.2221H16.6562V42.7464H17.5485V42.3224H16.1409V44.6087H17.5963V44.1856H16.6562V43.6419H17.4976V43.2221Z" fill="white"/>
<path fill-rule="evenodd" clip-rule="evenodd" d="M17.6692 44.5003C17.7363 44.5375 17.8278 44.5699 17.9434 44.5982C18.0591 44.6265 18.1837 44.6411 18.3172 44.6427C18.6303 44.6371 18.8617 44.5667 19.0121 44.4324C19.1626 44.2973 19.237 44.1314 19.2362 43.934C19.2362 43.7738 19.1893 43.6387 19.0922 43.5279C18.996 43.4171 18.8471 43.3256 18.6457 43.252C18.4976 43.1986 18.3892 43.1493 18.3213 43.1032C18.2533 43.0579 18.2201 42.9996 18.2209 42.9292C18.2209 42.8694 18.2484 42.8184 18.3035 42.7755C18.3585 42.7326 18.4418 42.7108 18.5542 42.7084C18.6651 42.71 18.7605 42.7229 18.8414 42.7464C18.9223 42.7699 18.9846 42.7933 19.0291 42.8176L19.144 42.4042C19.0769 42.371 18.9952 42.3435 18.8997 42.3225C18.8042 42.3006 18.691 42.2901 18.5607 42.2893C18.2897 42.2934 18.0785 42.3589 17.9273 42.4859C17.7752 42.6129 17.6983 42.7755 17.6959 42.9745C17.6983 43.1396 17.7558 43.2779 17.869 43.3879C17.9815 43.498 18.1344 43.587 18.3269 43.6533C18.4636 43.6994 18.5615 43.7463 18.6222 43.7949C18.6829 43.8434 18.712 43.9025 18.7112 43.972C18.7112 44.0481 18.6805 44.108 18.619 44.1516C18.5575 44.1961 18.4669 44.2188 18.3479 44.2196C18.2363 44.218 18.1295 44.2034 18.0292 44.1751C17.9289 44.1468 17.8439 44.1144 17.7744 44.0772L17.6692 44.5011V44.5003Z" fill="white"/>
<path fill-rule="evenodd" clip-rule="evenodd" d="M20.9948 44.1411C20.9406 44.1637 20.875 44.1815 20.7982 44.1953C20.7213 44.209 20.642 44.2155 20.5603 44.2163C20.3298 44.2139 20.151 44.1467 20.024 44.0149C19.8969 43.883 19.833 43.701 19.8306 43.4696C19.8355 43.2156 19.9058 43.0255 20.041 42.9001C20.1761 42.7747 20.3484 42.7124 20.5571 42.7124C20.6501 42.7124 20.7335 42.7221 20.8063 42.7383C20.8791 42.7544 20.9406 42.7747 20.9915 42.7973L21.0999 42.3904C21.053 42.3637 20.981 42.3402 20.8847 42.32C20.7885 42.2998 20.672 42.2893 20.5369 42.2885C20.3039 42.2885 20.0927 42.3362 19.9058 42.4292C19.7182 42.5223 19.5693 42.659 19.4585 42.8386C19.3476 43.0182 19.291 43.239 19.2886 43.4995C19.2886 43.7188 19.3339 43.9146 19.4237 44.0861C19.5135 44.2584 19.647 44.3935 19.8241 44.493C20.0013 44.5925 20.2222 44.6435 20.4859 44.6451C20.6251 44.6435 20.7448 44.633 20.8467 44.6127C20.9479 44.5925 21.0223 44.5707 21.07 44.5472L20.9956 44.1403L20.9948 44.1411Z" fill="white"/>
<path fill-rule="evenodd" clip-rule="evenodd" d="M21.219 42.3224V43.5983C21.2206 43.9599 21.3007 44.2252 21.4593 44.3943C21.617 44.5642 21.8411 44.6475 22.1316 44.6459C22.4325 44.6459 22.6663 44.561 22.8322 44.3903C22.998 44.2188 23.0821 43.9575 23.0846 43.6047V42.3224H22.5692V43.6355C22.5692 43.8385 22.5328 43.989 22.4608 44.0869C22.3888 44.1848 22.2845 44.2333 22.1485 44.2325C22.0167 44.2325 21.9156 44.1824 21.8435 44.0829C21.7715 43.9833 21.7351 43.8337 21.7343 43.6355V42.3224H21.219Z" fill="white"/>
<path fill-rule="evenodd" clip-rule="evenodd" d="M24.7009 43.2221H23.8596V42.7464H24.7519V42.3224H23.3442V44.6087H24.7988V44.1856H23.8596V43.6419H24.7009V43.2221Z" fill="white"/>
<path fill-rule="evenodd" clip-rule="evenodd" d="M6.56051 32.9744L6.35583 32.514L4.70221 33.2502L4.45385 32.6936L4.06714 32.866L4.76531 34.4338L5.15283 34.2615L4.90689 33.7106L6.56051 32.9744Z" fill="white"/>
<path fill-rule="evenodd" clip-rule="evenodd" d="M3.32691 31.2244C3.30345 31.1613 3.26461 31.1176 3.21122 31.0926C3.15782 31.0675 3.10039 31.0651 3.04052 31.0845C2.97742 31.1079 2.93211 31.146 2.90622 31.1985C2.88033 31.2511 2.8771 31.3078 2.89652 31.3692C2.91917 31.4315 2.958 31.4744 3.01139 31.5003C3.06479 31.5254 3.12304 31.5286 3.18614 31.5084C3.2452 31.4865 3.28888 31.4501 3.31558 31.3976C3.34309 31.345 3.34632 31.2875 3.32691 31.2252V31.2244ZM3.551 31.8733C3.52835 31.8118 3.48952 31.7689 3.43612 31.7446C3.38273 31.7204 3.3261 31.7179 3.26623 31.7373C3.20313 31.7608 3.15783 31.7988 3.13194 31.8506C3.10605 31.9024 3.102 31.959 3.12142 32.0181C3.14407 32.0804 3.1829 32.124 3.2363 32.1507C3.2905 32.1774 3.34875 32.1799 3.41185 32.1596C3.47091 32.1378 3.51379 32.0998 3.54049 32.0464C3.56718 31.993 3.57123 31.9347 3.55181 31.8733H3.551ZM3.86409 32.3862L5.04282 31.98C5.37613 31.8635 5.59537 31.705 5.70216 31.5052C5.80895 31.3053 5.81461 31.0715 5.72077 30.8037C5.6253 30.5254 5.4724 30.3369 5.26125 30.2382C5.0501 30.1395 4.78151 30.1452 4.45548 30.2544L3.27028 30.6622L3.43451 31.1379L4.64802 30.7204C4.83571 30.6565 4.98619 30.6419 5.09945 30.6775C5.21271 30.7131 5.29037 30.7932 5.33325 30.9194C5.37532 31.0408 5.36157 31.1508 5.29199 31.2487C5.22242 31.3466 5.09621 31.4275 4.91337 31.4914L3.69986 31.9089L3.86409 32.3845V32.3862Z" fill="white"/>
<path fill-rule="evenodd" clip-rule="evenodd" d="M3.33583 29.3216C3.32693 29.3055 3.31722 29.2796 3.3067 29.244C3.29619 29.2084 3.28486 29.1606 3.27192 29.1016C3.24764 28.9867 3.25412 28.8929 3.29133 28.8184C3.32855 28.744 3.3965 28.6963 3.49439 28.6744C3.59066 28.655 3.67399 28.6736 3.74438 28.7294C3.81476 28.7861 3.8633 28.8759 3.89081 29.0005L3.93207 29.1954L3.33502 29.3224L3.33583 29.3216ZM5.25561 29.4244L5.15124 28.9349L4.28884 29.1186L4.2581 28.9721C4.23544 28.8718 4.24354 28.7885 4.28156 28.723C4.31958 28.6574 4.40372 28.5951 4.53316 28.5369C4.66179 28.477 4.76696 28.4253 4.84706 28.3808C4.92796 28.3363 4.98297 28.3031 5.01209 28.2788L4.9045 27.7732C4.86162 27.8047 4.78476 27.8484 4.67231 27.9034C4.55986 27.9585 4.44255 28.0175 4.31958 28.0798C4.22412 28.1283 4.14645 28.1826 4.0874 28.2432C4.02834 28.3039 3.99112 28.3751 3.97575 28.4576L3.96604 28.46C3.91022 28.3694 3.82851 28.295 3.72092 28.2368C3.61332 28.1785 3.48954 28.1623 3.3512 28.1874C3.25088 28.2093 3.16593 28.2448 3.09636 28.2958C3.02679 28.3468 2.97339 28.4115 2.93537 28.4892C2.89087 28.579 2.86741 28.6858 2.86498 28.8071C2.86256 28.9293 2.87874 29.0708 2.91352 29.2326C2.94184 29.3661 2.97258 29.4883 3.00494 29.5991C3.0373 29.71 3.06804 29.8038 3.09879 29.8807L5.2548 29.422L5.25561 29.4244Z" fill="white"/>
<path fill-rule="evenodd" clip-rule="evenodd" d="M4.85283 27.4294L4.80025 26.9318L4.07537 27.0079L3.82135 26.8445L4.72339 26.1965L4.66191 25.6132L3.467 26.5184L2.4436 25.8826L2.50913 26.5023L3.30034 26.9262C3.34241 26.9488 3.38529 26.9707 3.42817 26.9925C3.47105 27.0144 3.51554 27.0354 3.56085 27.0556V27.0621L2.57952 27.1656L2.6321 27.6632L4.85364 27.4294H4.85283Z" fill="white"/>
<path fill-rule="evenodd" clip-rule="evenodd" d="M4.6375 24.3212L4.6464 23.818L2.83665 23.7864L2.84716 23.1764L2.42324 23.1691L2.39331 24.8858L2.81723 24.8931L2.82775 24.2896L4.6375 24.3212Z" fill="white"/>
<path fill-rule="evenodd" clip-rule="evenodd" d="M3.46373 21.4201L3.37798 22.238L2.91603 22.1894L3.00745 21.3222L2.59566 21.2785L2.45166 22.6465L4.6732 22.8803L4.82206 21.4662L4.41027 21.4225L4.31481 22.3359L3.78653 22.2809L3.87228 21.463L3.46373 21.4201Z" fill="white"/>
<path fill-rule="evenodd" clip-rule="evenodd" d="M4.89652 21.0625L5.16268 19.6961L4.74604 19.6152L4.57696 20.4873L2.79956 20.1418L2.7041 20.6361L4.89652 21.0625Z" fill="white"/>
<path fill-rule="evenodd" clip-rule="evenodd" d="M4.30745 17.6946L4.08092 18.485L3.63435 18.3572L3.87463 17.519L3.47659 17.405L3.09717 18.7269L5.24509 19.3425L5.63665 17.9761L5.23942 17.8621L4.9862 18.7447L4.47572 18.5983L4.70224 17.8079L4.30745 17.6946Z" fill="white"/>
<path fill-rule="evenodd" clip-rule="evenodd" d="M5.7759 17.5813L5.96359 17.1178L5.28726 16.8443L5.14002 16.5806L6.24027 16.4317L6.46032 15.8873L4.98064 16.1259L4.3755 15.0839L4.1417 15.6616L4.64167 16.4067C4.66836 16.4463 4.69587 16.4859 4.72338 16.5248C4.75088 16.5644 4.78001 16.6032 4.81075 16.6429L4.80832 16.6494L3.89252 16.2796L3.70483 16.7432L5.77671 17.5797L5.7759 17.5813Z" fill="white"/>
<path fill-rule="evenodd" clip-rule="evenodd" d="M5.3656 13.9359C5.42385 13.8348 5.50152 13.766 5.59941 13.7296C5.6973 13.6924 5.80571 13.6835 5.92463 13.7021C6.04355 13.7207 6.16248 13.7636 6.28221 13.8291C6.47556 13.9375 6.61148 14.0662 6.68833 14.215C6.76519 14.3639 6.76519 14.5144 6.68591 14.6673C6.60015 14.8145 6.47476 14.897 6.30972 14.9148C6.14468 14.9326 5.96346 14.8873 5.76687 14.7797C5.57352 14.6713 5.43842 14.5419 5.36156 14.3922C5.2847 14.2425 5.28632 14.0904 5.36641 13.9359H5.3656ZM5.02016 13.7329C4.91499 13.9262 4.86725 14.1188 4.87696 14.3097C4.88667 14.5006 4.94654 14.6778 5.05656 14.8412C5.16659 15.0046 5.3203 15.1413 5.51608 15.2514C5.70539 15.3549 5.8947 15.4124 6.08481 15.4229C6.27493 15.4334 6.45129 15.3946 6.61471 15.3056C6.77813 15.2174 6.91405 15.0774 7.02326 14.8849C7.18183 14.592 7.21985 14.3097 7.13572 14.0387C7.05158 13.7676 6.84852 13.5395 6.52653 13.3551C6.3437 13.2539 6.15762 13.1973 5.96913 13.186C5.78063 13.1746 5.60345 13.2127 5.43842 13.3017C5.27338 13.3898 5.13423 13.5338 5.02097 13.7337L5.02016 13.7329Z" fill="white"/>
<path fill-rule="evenodd" clip-rule="evenodd" d="M8.81692 11.9709L9.09845 11.5688L7.19971 10.3852L6.81947 10.928L7.29274 11.5469C7.37364 11.6505 7.46102 11.7573 7.55405 11.8665C7.64709 11.9757 7.73851 12.0809 7.82831 12.1804L7.82103 12.1909C7.69887 12.1359 7.57266 12.0825 7.44322 12.0315C7.31378 11.9798 7.18515 11.932 7.05813 11.8875L6.32193 11.6392L5.93604 12.1901L7.6843 13.5881L7.95209 13.2054L7.28142 12.6836C7.16896 12.597 7.04923 12.5048 6.9206 12.4077C6.79197 12.3098 6.66657 12.2152 6.54441 12.1238L6.54846 12.1181C6.68599 12.1796 6.82594 12.2386 6.96914 12.2969C7.11233 12.3551 7.24987 12.4077 7.38093 12.4546L8.22391 12.7532L8.45044 12.4304L7.89222 11.7079C7.80808 11.5963 7.71747 11.479 7.62039 11.3576C7.5225 11.2363 7.42542 11.1182 7.32834 11.0057L7.33239 11C7.46668 11.0939 7.59855 11.1837 7.72961 11.2702C7.85986 11.3568 7.98202 11.4369 8.09609 11.5105L8.81773 11.9709H8.81692Z" fill="white"/>
<path fill-rule="evenodd" clip-rule="evenodd" d="M9.64764 9.61986L9.40656 9.19109C9.37258 9.13122 9.33455 9.06812 9.29168 9.00259C9.24961 8.93625 9.20997 8.87315 9.17356 8.81409L9.17842 8.80924C9.23828 8.84564 9.30139 8.88367 9.36934 8.92331C9.43649 8.96376 9.50121 9.00016 9.5635 9.03414L9.99713 9.27118L9.64764 9.62067V9.61986ZM10.3151 9.48638L10.8425 9.77034L11.2293 9.38363L9.15738 8.29633L8.68896 8.76474L9.78841 10.8253L10.1565 10.4572L9.86365 9.93942L10.3159 9.48719L10.3151 9.48638Z" fill="white"/>
<path fill-rule="evenodd" clip-rule="evenodd" d="M10.7706 7.36762C10.782 7.35306 10.8006 7.33283 10.8281 7.30775C10.8556 7.28267 10.8928 7.25112 10.9413 7.21391C11.0336 7.1419 11.1217 7.10631 11.2043 7.10712C11.2876 7.10793 11.3604 7.14757 11.4227 7.22685C11.4826 7.30532 11.5028 7.38784 11.4826 7.47603C11.4623 7.56421 11.4025 7.64753 11.3038 7.72601L11.1468 7.84817L10.7706 7.36681V7.36762ZM11.5198 9.13854L11.9138 8.83031L11.3709 8.13537L11.4882 8.04314C11.5683 7.97923 11.6468 7.9493 11.7228 7.95496C11.7989 7.96062 11.8911 8.00835 12.0003 8.09977C12.1104 8.18957 12.2034 8.26076 12.2786 8.31335C12.3539 8.36674 12.4081 8.40072 12.442 8.4169L12.849 8.09896C12.8021 8.07469 12.7292 8.02372 12.6297 7.94768C12.531 7.87163 12.4267 7.79154 12.3167 7.70821C12.2317 7.64349 12.1484 7.59738 12.0675 7.57149C11.9866 7.54479 11.9065 7.54236 11.8256 7.56502L11.8191 7.55693C11.8766 7.46713 11.9073 7.36115 11.9121 7.23899C11.917 7.11683 11.8774 6.99871 11.794 6.88464C11.7309 6.80374 11.6614 6.74387 11.5845 6.70342C11.5085 6.66297 11.4267 6.64355 11.3402 6.64355C11.2399 6.64355 11.1339 6.66863 11.023 6.7196C10.9122 6.77138 10.7925 6.84743 10.6622 6.95017C10.5546 7.03431 10.4584 7.11521 10.3726 7.19287C10.2877 7.27054 10.2165 7.3393 10.1606 7.40079L11.5182 9.13773L11.5198 9.13854Z" fill="white"/>
<path fill-rule="evenodd" clip-rule="evenodd" d="M13.1216 6.76648L12.9743 6.29645C12.9533 6.23092 12.929 6.16134 12.9015 6.08772C12.874 6.0141 12.8489 5.94453 12.8255 5.87819L12.8311 5.87495C12.8821 5.92269 12.9363 5.97284 12.9937 6.02624C13.0512 6.07963 13.107 6.12898 13.1604 6.1751L13.5358 6.49708L13.1216 6.76567V6.76648ZM13.8019 6.77376L14.259 7.16128L14.7177 6.86356L12.9169 5.36932L12.3611 5.73014L13.0083 7.97352L13.4443 7.69037L13.2656 7.12245L13.8019 6.77376Z" fill="white"/>
<path fill-rule="evenodd" clip-rule="evenodd" d="M16.8374 5.88791L17.2856 5.68808L16.2679 3.6955L15.6619 3.9649L15.7485 4.73831C15.7646 4.86937 15.7841 5.00528 15.8075 5.14686C15.831 5.28843 15.8553 5.42516 15.8811 5.55703L15.869 5.56269C15.7922 5.45266 15.7121 5.34183 15.6279 5.2318C15.5438 5.12097 15.458 5.01418 15.3715 4.90982L14.8683 4.31762L14.2534 4.59107L15.0317 6.68964L15.4588 6.49952L15.153 5.70669C15.1013 5.57482 15.0462 5.43406 14.9864 5.28439C14.9265 5.13472 14.8683 4.9891 14.81 4.84672L14.8157 4.84429C14.9014 4.96726 14.9912 5.09104 15.0843 5.21481C15.1773 5.33859 15.2679 5.45428 15.3561 5.56188L15.9248 6.25196L16.2848 6.09178L16.1789 5.18488C16.1651 5.04573 16.1473 4.8993 16.1263 4.74397C16.1052 4.58945 16.0826 4.43897 16.0575 4.29174L16.0632 4.28931C16.1303 4.43898 16.1967 4.58379 16.2638 4.72536C16.331 4.86694 16.3949 4.998 16.4547 5.12016L16.8358 5.8871L16.8374 5.88791Z" fill="white"/>
<path fill-rule="evenodd" clip-rule="evenodd" d="M18.0104 4.45597L17.9983 3.96409C17.9958 3.89532 17.9918 3.8217 17.9861 3.74323C17.9796 3.66476 17.9748 3.59114 17.9707 3.52156L17.9772 3.51994C18.0128 3.57981 18.0508 3.64291 18.0921 3.71006C18.1325 3.77721 18.1722 3.84031 18.211 3.89937L18.4828 4.31196L18.0104 4.45597ZM18.6633 4.65175L18.9958 5.1501L19.5184 4.98991L18.1997 3.05719L17.5654 3.25135L17.5687 5.58615L18.0662 5.43406L18.0508 4.83944L18.6624 4.65256L18.6633 4.65175Z" fill="white"/>
<path fill-rule="evenodd" clip-rule="evenodd" d="M21.5783 4.64037L22.0127 2.32336L21.4812 2.39779L21.3316 3.38317C21.3113 3.51503 21.2935 3.64852 21.2782 3.78443C21.2628 3.91954 21.2507 4.05626 21.241 4.19298L21.2312 4.1946C21.1851 4.06112 21.1366 3.93248 21.0856 3.8079C21.0338 3.68331 20.9796 3.55791 20.9238 3.4309L20.5234 2.5329L19.9749 2.60975L20.995 4.72208L21.5791 4.63956L21.5783 4.64037Z" fill="white"/>
<path fill-rule="evenodd" clip-rule="evenodd" d="M23.9171 3.11946L23.096 3.14778L23.0798 2.6834L23.9511 2.65347L23.9365 2.23926L22.562 2.2878L22.6397 4.51985L24.0611 4.4705L24.0465 4.0571L23.1283 4.08865L23.1097 3.55875L23.9317 3.52963L23.9171 3.11946Z" fill="white"/>
<path fill-rule="evenodd" clip-rule="evenodd" d="M25.158 4.50452L25.6563 4.5482L25.7202 3.82171L25.9289 3.60409L26.3933 4.61292L26.9782 4.66389L26.3173 3.31851L27.1368 2.43507L26.5155 2.38087L25.9484 3.07661C25.9184 3.11383 25.8885 3.15104 25.8594 3.18907C25.8302 3.22709 25.8003 3.26673 25.772 3.30718H25.7655L25.8513 2.32262L25.3529 2.27893L25.158 4.50452Z" fill="white"/>
<path fill-rule="evenodd" clip-rule="evenodd" d="M27.78 2.55725L27.4993 3.77157C27.4216 4.11621 27.4394 4.38642 27.5527 4.5822C27.6659 4.77798 27.8609 4.90742 28.1376 4.96972C28.424 5.03686 28.6651 5.00693 28.8609 4.87992C29.0566 4.7529 29.1942 4.52233 29.2743 4.18821L29.5558 2.96742L29.0655 2.85416L28.7767 4.10408C28.7314 4.29743 28.6643 4.43253 28.5745 4.5102C28.4847 4.58786 28.3746 4.61132 28.2452 4.58058C28.1198 4.55146 28.034 4.48188 27.9879 4.37105C27.9418 4.26021 27.9394 4.11055 27.9823 3.92124L28.2711 2.67132L27.7808 2.55806L27.78 2.55725Z" fill="white"/>
<path fill-rule="evenodd" clip-rule="evenodd" d="M30.6649 3.6979C30.6835 3.69952 30.7102 3.70518 30.7458 3.71489C30.7814 3.7246 30.8283 3.73997 30.885 3.76101C30.995 3.80146 31.0719 3.85647 31.1147 3.92766C31.1576 3.99885 31.1625 4.08137 31.1293 4.17684C31.0945 4.26906 31.0346 4.32974 30.9497 4.35967C30.8647 4.38961 30.762 4.38313 30.6423 4.34026L30.4554 4.2723L30.6641 3.69871L30.6649 3.6979ZM29.5598 5.27143L30.0298 5.44213L30.3316 4.6137L30.4716 4.66467C30.5687 4.69865 30.635 4.74962 30.6706 4.81676C30.7062 4.88391 30.7143 4.98827 30.6949 5.12823C30.6771 5.269 30.6657 5.3855 30.6609 5.47772C30.6552 5.56995 30.6552 5.63386 30.6593 5.67189L31.1447 5.84906C31.1406 5.79647 31.1447 5.70748 31.1568 5.5829C31.1689 5.45831 31.1811 5.32725 31.194 5.19053C31.2037 5.08374 31.1989 4.98908 31.1786 4.90656C31.1584 4.82404 31.118 4.75447 31.0565 4.69865L31.0597 4.68894C31.1665 4.68975 31.2725 4.65982 31.3785 4.59914C31.4844 4.53846 31.5637 4.44219 31.6163 4.31113C31.6511 4.21486 31.6657 4.12344 31.6592 4.03769C31.6527 3.95193 31.6268 3.87184 31.5807 3.79903C31.5281 3.71327 31.4505 3.63723 31.3485 3.57089C31.2466 3.50455 31.1172 3.44307 30.9618 3.38724C30.8332 3.34032 30.7135 3.30149 30.6026 3.27075C30.4918 3.2392 30.3955 3.21654 30.3138 3.20117L29.5598 5.27224V5.27143Z" fill="white"/>
<path fill-rule="evenodd" clip-rule="evenodd" d="M31.8647 6.16704L32.317 6.3879L33.1106 4.76098L33.6591 5.02876L33.8444 4.64772L32.3016 3.89453L32.1155 4.27557L32.6584 4.54012L31.8647 6.16704Z" fill="white"/>
<path fill-rule="evenodd" clip-rule="evenodd" d="M33.9908 6.17836L34.3483 5.84019C34.3977 5.79246 34.4503 5.74069 34.5037 5.68325C34.5579 5.62662 34.6088 5.57322 34.6582 5.52306L34.6638 5.5263C34.6436 5.59264 34.6218 5.66383 34.5991 5.73907C34.5765 5.81431 34.5563 5.8855 34.5385 5.95426L34.4139 6.43239L33.9908 6.17836ZM34.282 6.79402L34.1339 7.37408L34.6024 7.65561L35.1565 5.3823L34.5886 5.04089L32.8557 6.60552L33.3015 6.8733L33.7335 6.46394L34.282 6.79321V6.79402Z" fill="white"/>
<path fill-rule="evenodd" clip-rule="evenodd" d="M36.4178 6.69368C36.4348 6.70015 36.459 6.7139 36.4906 6.73332C36.5221 6.75354 36.5618 6.78105 36.6103 6.81826C36.7033 6.88865 36.7608 6.96469 36.781 7.04479C36.8012 7.12488 36.7818 7.20578 36.722 7.28668C36.6621 7.36515 36.5869 7.4056 36.4971 7.40884C36.4073 7.41208 36.311 7.37648 36.209 7.30043L36.0497 7.1807L36.417 6.69287L36.4178 6.69368ZM34.9009 7.87564L35.3005 8.17659L35.8312 7.47194L35.9502 7.56174C36.0327 7.62242 36.0812 7.69038 36.0958 7.76561C36.1103 7.84004 36.0877 7.94198 36.0278 8.07061C35.9696 8.20005 35.9251 8.30846 35.8935 8.39502C35.862 8.48159 35.8426 8.54307 35.8353 8.58029L36.2479 8.89095C36.2592 8.83917 36.2891 8.75584 36.3377 8.64015C36.3854 8.52446 36.4356 8.40311 36.4882 8.2761C36.5286 8.17659 36.5513 8.08517 36.5561 8.00023C36.561 7.91528 36.5424 7.83681 36.4995 7.76561L36.5051 7.75752C36.6071 7.78988 36.7171 7.79231 36.8368 7.7648C36.9558 7.73811 37.0601 7.66934 37.1483 7.55932C37.2098 7.47761 37.2502 7.39428 37.2688 7.31014C37.2875 7.226 37.2858 7.14187 37.264 7.05854C37.2381 6.96146 37.1863 6.866 37.1087 6.77215C37.0302 6.6783 36.925 6.58203 36.7923 6.48333C36.6831 6.40081 36.5796 6.32881 36.4833 6.26652C36.3862 6.20423 36.3013 6.15407 36.2277 6.11523L34.9009 7.87564Z" fill="white"/>
<path fill-rule="evenodd" clip-rule="evenodd" d="M37.9122 10.4572L38.2649 10.7978L39.7308 9.10775L39.2535 8.64742L38.5683 9.01795C38.4534 9.08186 38.3345 9.15143 38.2115 9.22586C38.0885 9.30029 37.9712 9.37472 37.8588 9.44753L37.849 9.43863C37.9227 9.32618 37.9947 9.21049 38.0659 9.09076C38.1371 8.97103 38.2042 8.85129 38.2681 8.73237L38.6289 8.0439L38.1451 7.57629L36.4907 9.08429L36.8273 9.4087L37.4478 8.82783C37.5505 8.73075 37.6605 8.62639 37.777 8.51474C37.8935 8.4031 38.0068 8.29388 38.1168 8.1879L38.1217 8.19276C38.04 8.31896 37.9591 8.4476 37.879 8.58027C37.7989 8.71295 37.7261 8.83997 37.6589 8.96213L37.2318 9.74767L37.5157 10.0219L38.3167 9.58345C38.4404 9.51792 38.5699 9.44672 38.705 9.36906C38.8401 9.29139 38.972 9.21373 39.099 9.13525L39.1038 9.14011C38.9906 9.25822 38.8805 9.37472 38.7746 9.4896C38.6686 9.60529 38.5707 9.71289 38.4801 9.81401L37.9122 10.4547V10.4572Z" fill="white"/>
<path fill-rule="evenodd" clip-rule="evenodd" d="M39.6854 11.0429L40.1408 10.8552C40.2039 10.8285 40.2711 10.7986 40.3423 10.7646C40.4135 10.7306 40.4806 10.6991 40.5437 10.6708L40.5478 10.6756C40.5049 10.7306 40.4588 10.7889 40.411 10.8512C40.3633 10.9135 40.318 10.9725 40.2776 11.03L39.9895 11.432L39.6854 11.0429ZM39.7363 11.7217L39.3909 12.2103L39.7274 12.6415L41.0591 10.7177L40.6513 10.1951L38.4727 11.0348L38.793 11.445L39.3431 11.2177L39.7371 11.7217H39.7363Z" fill="white"/>
<path fill-rule="evenodd" clip-rule="evenodd" d="M42.157 13.991L41.746 13.279L42.1481 13.0468L42.5842 13.8017L42.9426 13.5954L42.2549 12.4037L40.3206 13.5209L41.0317 14.7522L41.3901 14.5451L40.9306 13.7499L41.3901 13.4845L41.8019 14.1964L42.157 13.991Z" fill="white"/>
<path fill-rule="evenodd" clip-rule="evenodd" d="M41.2356 15.1154L41.4387 15.5725L42.1045 15.2756L42.3965 15.3525L41.7388 16.2472L41.9775 16.7836L42.8342 15.5531L44.004 15.8419L43.7508 15.2724L42.8674 15.1138C42.8204 15.1057 42.7727 15.0976 42.7258 15.0904C42.6781 15.0831 42.6295 15.0766 42.5802 15.0709L42.5777 15.0653L43.4798 14.6632L43.2767 14.2061L41.2356 15.1146V15.1154Z" fill="white"/>
<path fill-rule="evenodd" clip-rule="evenodd" d="M44.381 16.4608C44.4053 16.5223 44.4449 16.5652 44.4999 16.5887C44.555 16.6121 44.6116 16.6154 44.6698 16.5951C44.7313 16.5709 44.775 16.5328 44.8009 16.4794C44.8268 16.4261 44.8292 16.3694 44.809 16.3079C44.7847 16.2465 44.7459 16.202 44.6909 16.1761C44.6359 16.1502 44.5776 16.1469 44.5145 16.168C44.4571 16.1906 44.415 16.2287 44.3891 16.2837C44.3632 16.3387 44.36 16.3969 44.381 16.46V16.4608ZM44.1731 16.2691L42.0737 17.0328L42.246 17.5061L44.3454 16.7424L44.1731 16.2691Z" fill="white"/>
<path fill-rule="evenodd" clip-rule="evenodd" d="M43.5088 18.1671L43.5566 18.3329C43.593 18.4567 43.5994 18.5667 43.5752 18.6622C43.5517 18.7576 43.487 18.8224 43.3818 18.8555C43.2685 18.8838 43.1763 18.8652 43.1051 18.7997C43.0339 18.7342 42.9822 18.6444 42.9506 18.5303C42.9385 18.489 42.9288 18.4534 42.9207 18.4227C42.9126 18.392 42.9069 18.3645 42.9029 18.3402L43.5088 18.1663V18.1671ZM44.3567 17.9235C44.3656 17.9413 44.3753 17.9664 44.3874 17.998C44.3995 18.0303 44.4133 18.0732 44.4287 18.1266C44.4602 18.2374 44.4635 18.3281 44.4384 18.3992C44.4133 18.4704 44.3599 18.5182 44.279 18.5424C44.1981 18.5651 44.1245 18.5505 44.0581 18.4979C43.9918 18.4454 43.94 18.3547 43.9012 18.2261L43.8551 18.0667L44.3559 17.9235H44.3567ZM42.4304 17.9551C42.4377 18.0117 42.4506 18.0853 42.4701 18.1751C42.4887 18.2649 42.5154 18.3701 42.5493 18.4899C42.6108 18.7018 42.6772 18.8717 42.75 18.9995C42.8228 19.1265 42.9013 19.2204 42.9854 19.2786C43.059 19.3312 43.1399 19.366 43.2273 19.3838C43.3155 19.4016 43.4085 19.3968 43.508 19.3701C43.6456 19.328 43.7475 19.2552 43.8154 19.1508C43.8826 19.0465 43.915 18.9275 43.9117 18.7924L43.9182 18.7908C44.0007 18.8976 44.0897 18.9688 44.1868 19.0036C44.2839 19.0384 44.3801 19.0416 44.4756 19.0141C44.5743 18.9842 44.6528 18.9364 44.711 18.8693C44.7693 18.8021 44.8073 18.7253 44.8259 18.6379C44.8494 18.5473 44.855 18.4494 44.8445 18.3434C44.834 18.2374 44.8073 18.112 44.7644 17.9656C44.728 17.8402 44.6892 17.7221 44.6479 17.6113C44.6067 17.5004 44.5711 17.4139 44.5403 17.3508L42.4312 17.9559L42.4304 17.9551Z" fill="white"/>
<path fill-rule="evenodd" clip-rule="evenodd" d="M45.3178 19.692C45.3332 19.7559 45.3663 19.8037 45.4173 19.8352C45.4683 19.8668 45.5241 19.8765 45.5848 19.8651C45.6487 19.8498 45.698 19.8182 45.7304 19.7689C45.7635 19.7195 45.7741 19.6637 45.7619 19.6006C45.7466 19.5359 45.7142 19.4873 45.6632 19.4534C45.6131 19.4194 45.5548 19.4089 45.4901 19.421C45.4302 19.4356 45.3833 19.4679 45.3501 19.5181C45.3162 19.5682 45.3056 19.6265 45.3178 19.6912V19.692ZM45.139 19.4728L42.9539 19.9371L43.0582 20.4298L45.2434 19.9655L45.139 19.4728Z" fill="white"/>
<path fill-rule="evenodd" clip-rule="evenodd" d="M13.8601 19.6095V21.9718H12.0512V31.4348H8.97048V21.9718H7.14697V19.6095H13.8601Z" fill="#FAA634"/>
<path d="M13.8601 19.6095V21.9718H12.0512V31.4348H8.97048V21.9718H7.14697V19.6095H13.8601Z" stroke="#005BAA" stroke-width="0.267782" stroke-miterlimit="3.86"/>
<path fill-rule="evenodd" clip-rule="evenodd" d="M15.6216 26.9084C15.501 25.7563 15.3724 23.8835 15.2357 22.1838C14.9832 24.1359 14.8231 26.0079 14.7559 26.9084H15.6216ZM17.2129 19.6095L18.8697 31.4356H15.7486L15.5892 29.3128H14.7761L14.6135 31.4356H11.4131L12.9178 19.6095H17.2121H17.2129Z" fill="#FAA634"/>
<path d="M15.6216 26.9084C15.501 25.7563 15.3724 23.8835 15.2357 22.1838C14.9832 24.1359 14.8231 26.0079 14.7559 26.9084H15.6216ZM17.2129 19.6095L18.8697 31.4356H15.7486L15.5892 29.3128H14.7761L14.6135 31.4356H11.4131L12.9178 19.6095H17.2121H17.2129Z" stroke="#005BAA" stroke-width="0.267782" stroke-linecap="round" stroke-linejoin="round"/>
<path fill-rule="evenodd" clip-rule="evenodd" d="M26.1532 19.6095L24.4414 24.949L26.3134 31.4348H23.2254L22.0087 26.3663V31.4348H19.0081V19.6095H22.0087V24.2039L23.3565 19.6095H26.1532Z" fill="#FAA634"/>
<path d="M26.1532 19.6095L24.4414 24.949L26.3134 31.4348H23.2254L22.0087 26.3663V31.4348H19.0081V19.6095H22.0087V24.2039L23.3565 19.6095H26.1532Z" stroke="#005BAA" stroke-width="0.267782" stroke-linejoin="round"/>
<path fill-rule="evenodd" clip-rule="evenodd" d="M26.5059 19.6095H31.5953V21.9718H29.5623V24.2289H31.4619V26.4715H29.5623V29.0733H31.8033V31.4348H26.5059V19.6095Z" fill="#FAA634"/>
<path d="M26.5059 19.6095H31.5953V21.9718H29.5623V24.2289H31.4619V26.4715H29.5623V29.0733H31.8033V31.4348H26.5059V19.6095Z" stroke="#005BAA" stroke-width="0.267782" stroke-linejoin="round"/>
<path fill-rule="evenodd" clip-rule="evenodd" d="M10.5232 19.6095H13.9049V22.0163H12.0514V31.4348H10.5264L10.5232 19.6095Z" fill="#005BAA"/>
<path d="M10.5232 19.6095H13.9049V22.0163H12.0514V31.4348H10.5264L10.5232 19.6095Z" stroke="#006684" stroke-width="0.0444955" stroke-miterlimit="3.86"/>
<path fill-rule="evenodd" clip-rule="evenodd" d="M8.49976 35.5049C8.49976 35.5049 26.7243 36.4717 32.3396 45.7049C32.3396 45.7049 44.2167 41.4803 46.1009 27.571H42.7281C42.7281 27.571 41.5373 36.5963 32.7611 41.3541C32.7611 41.3541 23.2804 35.6999 13.137 35.3245C10.371 35.3181 8.50056 35.5049 8.50056 35.5049H8.49976Z" fill="#FAA634"/>
<path fill-rule="evenodd" clip-rule="evenodd" d="M37.6549 11.8592C37.6379 11.8851 37.6549 12.8729 37.6549 12.8729C37.6549 12.8729 37.3669 13.8906 37.2552 14.1997C37.1444 14.5087 37.2164 15.2902 37.2164 15.2902C37.2164 15.2902 36.7957 15.5353 36.6412 15.5604C36.4867 15.5863 36.5126 15.986 36.6153 16.0628C36.718 16.1397 37.0069 16.0499 37.1177 16.2691C37.2293 16.4884 36.9632 19.167 36.9632 19.167C36.9632 19.167 36.7828 19.2956 36.7698 19.7082C36.7569 20.1208 36.7439 20.5925 36.7828 20.7219C36.8216 20.8505 36.7828 21.2372 36.7828 21.2372C36.7828 21.2372 36.5935 21.2486 36.4988 21.179C36.4041 21.1094 36.2933 20.9986 36.2933 20.9986C36.2933 20.9986 36.3386 20.7526 36.3087 20.607C36.2787 20.4614 36.1283 20.4064 36.1032 20.336C36.0781 20.2656 36.1833 19.0772 35.3411 18.6856C34.4981 18.2941 33.7263 18.6808 33.4003 19.1217C33.0743 19.5634 33.0993 20.5261 33.2296 20.8416C33.3598 21.158 33.8113 21.4282 33.8663 21.4686C33.9213 21.5091 33.9164 21.6846 33.9067 21.7493C33.897 21.8141 34.0022 21.95 34.0774 21.9702C34.1527 21.9904 34.469 21.9548 34.5337 21.9702C34.5992 21.9856 34.5839 22.1911 34.579 22.2809C34.5742 22.3715 34.4585 22.5114 34.1575 22.5867C33.8566 22.6619 33.3801 22.8625 33.2547 23.0729C33.1293 23.2832 33.0087 23.5494 32.9036 23.966C32.7984 24.3827 32.783 24.7483 32.8631 24.9643C32.9432 25.1803 33.1641 25.6916 33.2094 25.8874C33.2547 26.0832 33.3946 26.4545 33.4901 26.5549C33.5856 26.6552 33.6754 26.7458 33.9965 26.7005C34.3177 26.6552 34.473 26.5953 34.473 26.5953C34.473 26.5953 34.5531 26.7256 34.5281 26.9116C34.503 27.0969 34.448 27.283 34.503 27.4132C34.558 27.5435 34.6688 27.7295 34.6988 27.8096C34.7287 27.8897 34.5936 27.9447 34.4981 27.9447C34.4027 27.9447 34.3428 28.236 34.3274 28.5167C34.312 28.7974 34.3428 29.0684 34.3177 29.1591C34.2926 29.2497 34.2724 29.3548 34.3525 29.4147C34.4326 29.4746 34.4827 29.6356 34.4528 29.8758C34.4229 30.1169 32.8324 37.5194 32.8324 37.5194C32.8324 37.5194 32.7118 40.4585 32.7021 40.7392C32.6924 41.0199 32.7118 41.3508 32.8324 41.371C32.9529 41.3913 33.2134 41.4511 33.2935 41.3007C33.3736 41.1502 33.5144 37.6391 33.6042 37.3082C33.694 36.9773 34.9989 29.8055 34.9989 29.8055C34.9989 29.8055 34.8185 31.4308 34.8484 31.6913C34.8784 31.9518 34.8889 32.2729 34.7578 32.5941C34.6276 32.9153 34.4973 33.4064 34.5272 33.8578C34.5572 34.3092 34.6478 35.3221 34.6478 35.4629C34.6478 35.6036 34.6478 35.7436 34.7481 35.7735C34.8484 35.8034 34.9188 35.8237 34.9188 35.8237L34.8986 36.5162C34.8986 36.5162 34.6777 36.7419 34.6429 36.8721C34.6081 37.0024 34.6583 37.2184 34.7182 37.258C34.778 37.2977 34.778 37.4336 34.753 37.5137C34.7279 37.5938 34.7125 37.6391 34.6979 37.669C34.6826 37.699 34.6979 37.7394 34.723 37.779C34.7481 37.8187 34.7077 37.9198 34.6729 38.0396C34.6381 38.1601 34.6826 38.4311 34.6227 38.6115C34.5628 38.7919 34.5426 38.9974 34.5426 39.1285C34.5426 39.2595 34.5725 39.5047 34.6478 39.605C34.723 39.7053 35.1445 39.8008 35.5409 39.7603C35.9373 39.7199 36.1331 39.5297 36.2529 39.3688C36.3734 39.2086 36.1623 38.9424 36.1776 38.8421C36.193 38.7418 36.4834 38.2248 36.5134 38.1099C36.5433 37.9942 36.5287 37.7637 36.4729 37.699C36.4179 37.6334 36.2723 37.5485 36.2626 37.4684C36.2529 37.3883 36.333 37.1521 36.2472 36.9668C36.1623 36.7815 36.0369 36.5057 36.0369 36.36C36.0369 36.2144 36.0822 35.7128 36.2221 35.5421C36.3629 35.3714 36.3273 35.1757 36.2723 35.0608C36.2173 34.9451 36.0765 34.4742 36.1121 34.2785C36.1469 34.0827 36.5231 33.0148 36.6185 32.5431C36.714 32.0715 36.7488 31.2795 36.8038 31.0287C36.8588 30.7779 37.0093 30.4316 37.0392 30.2812C37.0692 30.1307 37.0991 29.8046 37.1193 29.5943C37.1395 29.384 37.1994 29.2278 37.1994 29.2278C37.1994 29.2278 37.345 30.2108 37.4405 30.642C37.5359 31.0732 37.5813 31.2439 37.7317 31.2236C37.8822 31.2034 37.9275 31.1136 37.8725 30.8475C37.8175 30.5813 37.667 29.6687 37.6168 29.5587C37.5667 29.4487 37.5262 29.3985 37.5262 29.3985C37.5262 29.3985 37.6921 29.6194 37.9073 29.659C38.1233 29.6995 38.2382 29.7998 38.3433 29.8847C38.4485 29.9697 38.353 30.2011 38.3482 30.4365C38.3433 30.6719 38.3328 30.828 38.3328 30.828C38.3328 30.828 38.1322 30.9381 38.0869 31.1136C38.0416 31.2892 38.1468 31.3992 38.222 31.4995C38.2972 31.5998 38.2171 31.7552 38.1265 31.8158C38.0359 31.8757 37.434 32.493 37.3741 32.6888C37.3143 32.8845 37.324 32.9145 37.2738 32.9695C37.2237 33.0245 37.1436 33.0949 37.1387 33.2607C37.1339 33.4266 37.1541 33.4962 37.1088 33.5965C37.0635 33.6968 36.9082 33.8772 36.8677 33.9678C36.8273 34.0584 36.968 34.4742 37.4292 34.5948C37.8903 34.7153 38.061 34.67 38.2414 34.5398C38.4218 34.4095 38.3668 34.2688 38.472 34.1684C38.5771 34.0681 39.0286 33.8424 39.2041 33.5617C39.3797 33.281 39.2842 32.9145 39.1888 32.6637C39.0933 32.4129 38.9428 32.1119 39.0229 31.9461C39.103 31.7802 39.4242 31.8053 39.5844 31.7608C39.7445 31.7155 40.0261 31.6104 40.0512 31.2188C40.0762 30.8272 39.9355 30.7577 39.9856 30.4915C40.0358 30.2253 40.2162 30.1105 40.3521 29.93C40.4872 29.7496 40.6231 29.3629 40.6935 29.0474C40.7639 28.7319 40.8739 28.4957 40.9742 28.3201C41.0746 28.1446 41.1749 27.9536 41.1749 27.9536C41.1749 27.9536 41.2048 27.0362 41.1902 26.7401C41.1757 26.444 40.9694 26.033 40.7841 25.9473C40.5989 25.8623 39.9363 25.7515 39.8109 25.7467C39.6855 25.7418 39.2939 25.792 39.2292 25.7216C39.1637 25.6512 39.1289 25.5258 39.2341 25.3753C39.3392 25.2248 39.3797 25.0647 39.3546 24.9142C39.3295 24.7637 39.2341 24.6537 39.2494 24.5178C39.2648 24.3819 39.3295 24.3374 39.2947 24.1513C39.2599 23.966 39.0787 23.8552 39.069 23.7597C39.0593 23.6643 39.0941 23.589 39.0941 23.589C39.0941 23.589 39.9816 23.6942 40.4484 23.589C40.9152 23.4839 41.1053 23.2225 41.0802 22.7614C41.0551 22.3003 40.7388 21.7679 40.5082 21.4678C40.2777 21.1669 39.5148 20.6103 39.4954 20.535C39.4751 20.4598 39.5253 20.3894 39.5156 20.264C39.5059 20.1386 39.2494 20.0181 39.1896 19.8474C39.1297 19.6767 39.1548 19.5116 39.124 19.2455C39.0933 18.9793 38.798 18.8992 38.6823 18.8037C38.5666 18.7083 38.4615 18.5683 38.4412 18.4073C38.421 18.2471 38.1249 17.4988 38.1249 17.4737C38.1249 17.4486 38.1548 12.0922 38.1548 12.0922C38.1548 12.0922 37.9421 11.8341 37.8264 11.7985C37.7107 11.7637 37.6678 11.8293 37.6508 11.8552L37.6549 11.8592Z" fill="#FAA634"/>
<path d="M37.6549 11.8592C37.6379 11.8851 37.6549 12.8729 37.6549 12.8729C37.6549 12.8729 37.3669 13.8906 37.2552 14.1997C37.1444 14.5087 37.2164 15.2902 37.2164 15.2902C37.2164 15.2902 36.7957 15.5353 36.6412 15.5604C36.4867 15.5863 36.5126 15.986 36.6153 16.0628C36.718 16.1397 37.0069 16.0499 37.1177 16.2691C37.2293 16.4884 36.9632 19.167 36.9632 19.167C36.9632 19.167 36.7828 19.2956 36.7698 19.7082C36.7569 20.1208 36.7439 20.5925 36.7828 20.7219C36.8216 20.8505 36.7828 21.2372 36.7828 21.2372C36.7828 21.2372 36.5935 21.2486 36.4988 21.179C36.4041 21.1094 36.2933 20.9986 36.2933 20.9986C36.2933 20.9986 36.3386 20.7526 36.3087 20.607C36.2787 20.4614 36.1283 20.4064 36.1032 20.336C36.0781 20.2656 36.1833 19.0772 35.3411 18.6856C34.4981 18.2941 33.7263 18.6808 33.4003 19.1217C33.0743 19.5634 33.0993 20.5261 33.2296 20.8416C33.3598 21.158 33.8113 21.4282 33.8663 21.4686C33.9213 21.5091 33.9164 21.6846 33.9067 21.7493C33.897 21.8141 34.0022 21.95 34.0774 21.9702C34.1527 21.9904 34.469 21.9548 34.5337 21.9702C34.5992 21.9856 34.5839 22.1911 34.579 22.2809C34.5742 22.3715 34.4585 22.5114 34.1575 22.5867C33.8566 22.6619 33.3801 22.8625 33.2547 23.0729C33.1293 23.2832 33.0087 23.5494 32.9036 23.966C32.7984 24.3827 32.783 24.7483 32.8631 24.9643C32.9432 25.1803 33.1641 25.6916 33.2094 25.8874C33.2547 26.0832 33.3946 26.4545 33.4901 26.5549C33.5856 26.6552 33.6754 26.7458 33.9965 26.7005C34.3177 26.6552 34.473 26.5953 34.473 26.5953C34.473 26.5953 34.5531 26.7256 34.5281 26.9116C34.503 27.0969 34.448 27.283 34.503 27.4132C34.558 27.5435 34.6688 27.7295 34.6988 27.8096C34.7287 27.8897 34.5936 27.9447 34.4981 27.9447C34.4027 27.9447 34.3428 28.236 34.3274 28.5167C34.312 28.7974 34.3428 29.0684 34.3177 29.1591C34.2926 29.2497 34.2724 29.3548 34.3525 29.4147C34.4326 29.4746 34.4827 29.6356 34.4528 29.8758C34.4229 30.1169 32.8324 37.5194 32.8324 37.5194C32.8324 37.5194 32.7118 40.4585 32.7021 40.7392C32.6924 41.0199 32.7118 41.3508 32.8324 41.371C32.9529 41.3913 33.2134 41.4511 33.2935 41.3007C33.3736 41.1502 33.5144 37.6391 33.6042 37.3082C33.694 36.9773 34.9989 29.8055 34.9989 29.8055C34.9989 29.8055 34.8185 31.4308 34.8484 31.6913C34.8784 31.9518 34.8889 32.2729 34.7578 32.5941C34.6276 32.9153 34.4973 33.4064 34.5272 33.8578C34.5572 34.3092 34.6478 35.3221 34.6478 35.4629C34.6478 35.6036 34.6478 35.7436 34.7481 35.7735C34.8484 35.8034 34.9188 35.8237 34.9188 35.8237L34.8986 36.5162C34.8986 36.5162 34.6777 36.7419 34.6429 36.8721C34.6081 37.0024 34.6583 37.2184 34.7182 37.258C34.778 37.2977 34.778 37.4336 34.753 37.5137C34.7279 37.5938 34.7125 37.6391 34.6979 37.669C34.6826 37.699 34.6979 37.7394 34.723 37.779C34.7481 37.8187 34.7077 37.9198 34.6729 38.0396C34.6381 38.1601 34.6826 38.4311 34.6227 38.6115C34.5628 38.7919 34.5426 38.9974 34.5426 39.1285C34.5426 39.2595 34.5725 39.5047 34.6478 39.605C34.723 39.7053 35.1445 39.8008 35.5409 39.7603C35.9373 39.7199 36.1331 39.5297 36.2529 39.3688C36.3734 39.2086 36.1623 38.9424 36.1776 38.8421C36.193 38.7418 36.4834 38.2248 36.5134 38.1099C36.5433 37.9942 36.5287 37.7637 36.4729 37.699C36.4179 37.6334 36.2723 37.5485 36.2626 37.4684C36.2529 37.3883 36.333 37.1521 36.2472 36.9668C36.1623 36.7815 36.0369 36.5057 36.0369 36.36C36.0369 36.2144 36.0822 35.7128 36.2221 35.5421C36.3629 35.3714 36.3273 35.1757 36.2723 35.0608C36.2173 34.9451 36.0765 34.4742 36.1121 34.2785C36.1469 34.0827 36.5231 33.0148 36.6185 32.5431C36.714 32.0715 36.7488 31.2795 36.8038 31.0287C36.8588 30.7779 37.0093 30.4316 37.0392 30.2812C37.0692 30.1307 37.0991 29.8046 37.1193 29.5943C37.1395 29.384 37.1994 29.2278 37.1994 29.2278C37.1994 29.2278 37.345 30.2108 37.4405 30.642C37.5359 31.0732 37.5813 31.2439 37.7317 31.2236C37.8822 31.2034 37.9275 31.1136 37.8725 30.8475C37.8175 30.5813 37.667 29.6687 37.6168 29.5587C37.5667 29.4487 37.5262 29.3985 37.5262 29.3985C37.5262 29.3985 37.6921 29.6194 37.9073 29.659C38.1233 29.6995 38.2382 29.7998 38.3433 29.8847C38.4485 29.9697 38.353 30.2011 38.3482 30.4365C38.3433 30.6719 38.3328 30.828 38.3328 30.828C38.3328 30.828 38.1322 30.9381 38.0869 31.1136C38.0416 31.2892 38.1468 31.3992 38.222 31.4995C38.2972 31.5998 38.2171 31.7552 38.1265 31.8158C38.0359 31.8757 37.434 32.493 37.3741 32.6888C37.3143 32.8845 37.324 32.9145 37.2738 32.9695C37.2237 33.0245 37.1436 33.0949 37.1387 33.2607C37.1339 33.4266 37.1541 33.4962 37.1088 33.5965C37.0635 33.6968 36.9082 33.8772 36.8677 33.9678C36.8273 34.0584 36.968 34.4742 37.4292 34.5948C37.8903 34.7153 38.061 34.67 38.2414 34.5398C38.4218 34.4095 38.3668 34.2688 38.472 34.1684C38.5771 34.0681 39.0286 33.8424 39.2041 33.5617C39.3797 33.281 39.2842 32.9145 39.1888 32.6637C39.0933 32.4129 38.9428 32.1119 39.0229 31.9461C39.103 31.7802 39.4242 31.8053 39.5844 31.7608C39.7445 31.7155 40.0261 31.6104 40.0512 31.2188C40.0762 30.8272 39.9355 30.7577 39.9856 30.4915C40.0358 30.2253 40.2162 30.1105 40.3521 29.93C40.4872 29.7496 40.6231 29.3629 40.6935 29.0474C40.7639 28.7319 40.8739 28.4957 40.9742 28.3201C41.0746 28.1446 41.1749 27.9536 41.1749 27.9536C41.1749 27.9536 41.2048 27.0362 41.1902 26.7401C41.1757 26.444 40.9694 26.033 40.7841 25.9473C40.5989 25.8623 39.9363 25.7515 39.8109 25.7467C39.6855 25.7418 39.2939 25.792 39.2292 25.7216C39.1637 25.6512 39.1289 25.5258 39.2341 25.3753C39.3392 25.2248 39.3797 25.0647 39.3546 24.9142C39.3295 24.7637 39.2341 24.6537 39.2494 24.5178C39.2648 24.3819 39.3295 24.3374 39.2947 24.1513C39.2599 23.966 39.0787 23.8552 39.069 23.7597C39.0593 23.6643 39.0941 23.589 39.0941 23.589C39.0941 23.589 39.9816 23.6942 40.4484 23.589C40.9152 23.4839 41.1053 23.2225 41.0802 22.7614C41.0551 22.3003 40.7388 21.7679 40.5082 21.4678C40.2777 21.1669 39.5148 20.6103 39.4954 20.535C39.4751 20.4598 39.5253 20.3894 39.5156 20.264C39.5059 20.1386 39.2494 20.0181 39.1896 19.8474C39.1297 19.6767 39.1548 19.5116 39.124 19.2455C39.0933 18.9793 38.798 18.8992 38.6823 18.8037C38.5666 18.7083 38.4615 18.5683 38.4412 18.4073C38.421 18.2471 38.1249 17.4988 38.1249 17.4737C38.1249 17.4486 38.1548 12.0922 38.1548 12.0922C38.1548 12.0922 37.9421 11.8341 37.8264 11.7985C37.7107 11.7637 37.6678 11.8293 37.6508 11.8552L37.6549 11.8592Z" stroke="#005BAA" stroke-width="0.321177" stroke-miterlimit="3.86"/>
<path fill-rule="evenodd" clip-rule="evenodd" d="M37.5578 16.0434C37.5578 16.0434 37.6986 15.9382 37.7204 15.9382C37.7423 15.9382 37.7479 16.816 37.7479 16.8888C37.7479 16.9616 37.7075 18.2455 37.7075 18.2455C37.7075 18.2455 37.5869 18.4365 37.5473 18.4963C37.5069 18.5562 37.4268 18.5667 37.4268 18.5667C37.4268 18.5667 37.5319 16.1745 37.5424 16.1243C37.553 16.0741 37.5578 16.0442 37.5578 16.0442V16.0434Z" fill="#005BAA"/>
<path fill-rule="evenodd" clip-rule="evenodd" d="M37.4323 18.6719C37.4525 18.6767 37.5229 18.8272 37.5674 18.8725C37.6127 18.9178 37.6523 19.0683 37.6426 19.1735C37.6329 19.2786 37.5771 19.5092 37.5018 19.595C37.4266 19.6807 37.3813 19.8004 37.3813 19.8757C37.3813 19.9509 37.4412 20.1168 37.4719 20.1516C37.5018 20.1863 37.6175 20.3522 37.6628 20.3473C37.7081 20.3425 37.7332 20.3627 37.7332 20.3627L37.7486 21.5811C37.7486 21.5811 37.4824 21.6312 37.3522 21.611C37.2219 21.5908 37.2114 21.5406 37.2017 21.4508C37.192 21.3602 37.1669 21.2348 37.2017 21.1499C37.2365 21.0649 37.302 21.0843 37.3425 20.9994C37.3829 20.9144 37.4428 20.2268 37.4177 20.1718C37.3926 20.1168 37.1823 19.9461 37.1871 19.811C37.192 19.6759 37.1718 19.51 37.2122 19.455C37.2527 19.4 37.3425 19.3749 37.3627 19.2948C37.3829 19.2147 37.3975 18.6832 37.3975 18.6832L37.4323 18.6735V18.6719Z" fill="#005BAA"/>
<path fill-rule="evenodd" clip-rule="evenodd" d="M37.4549 21.4104C37.4727 21.4079 37.5124 21.4355 37.5302 21.3756C37.548 21.3157 37.5456 21.2526 37.5229 21.23C37.5003 21.2073 37.4727 21.23 37.4501 21.2502C37.4274 21.2704 37.425 21.2575 37.4226 21.3028C37.4202 21.3481 37.438 21.4128 37.4549 21.4104Z" fill="white"/>
<path fill-rule="evenodd" clip-rule="evenodd" d="M38.0682 19.9857C38.0682 19.9857 38.0383 20.1111 37.9687 20.1839C37.8991 20.2567 37.8652 20.2875 37.8611 20.3304C37.8571 20.3732 37.8781 21.4112 37.883 21.4719C37.887 21.5325 38.0771 21.4371 38.1807 21.4201C38.2842 21.4031 38.5496 21.4808 38.6402 21.5277C38.7308 21.5754 38.8125 21.6596 38.9549 21.7243C39.0973 21.789 39.1709 21.7655 39.1749 21.6984C39.179 21.6312 38.9897 21.234 38.9419 21.1094C38.8942 20.9848 38.8942 20.9412 38.8214 20.9501C38.7486 20.959 38.6685 21.0059 38.5755 20.9719C38.4824 20.9371 38.4048 20.8902 38.4347 20.7478C38.4646 20.6054 38.4258 20.4347 38.3352 20.3312C38.2446 20.2276 38.1321 20.1111 38.1192 20.0634C38.1062 20.0157 38.0674 19.9857 38.0674 19.9857H38.0682Z" fill="#005BAA"/>
<path fill-rule="evenodd" clip-rule="evenodd" d="M38.0989 20.5188V21.1701C38.0989 21.196 38.1337 21.2219 38.2283 21.2219C38.323 21.2219 38.5455 21.2178 38.6021 21.2388C38.6587 21.2599 38.7485 21.3295 38.7793 21.3335C38.8092 21.3375 38.7534 21.2599 38.6717 21.2C38.5899 21.1393 38.4014 21.2041 38.2979 21.1264C38.1943 21.0487 38.1596 21.0139 38.1596 20.8974C38.1596 20.7809 38.1685 20.6345 38.1466 20.5779C38.1248 20.5221 38.0989 20.5172 38.0989 20.5172V20.5188Z" fill="white"/>
</g>
<defs>
<clipPath id="clip0_407_9901">
<rect width="47.9775" height="50" fill="white" transform="translate(0.223633 -6.10352e-05)"/>
</clipPath>
</defs>
</svg>
