<svg width="32" height="32" viewBox="0 0 32 32" fill="none" xmlns="http://www.w3.org/2000/svg">
<g id="basketball">
<path id="Vector" d="M16 2C13.2311 2 10.5243 2.82109 8.22202 4.35943C5.91973 5.89777 4.12532 8.08427 3.06569 10.6424C2.00607 13.2006 1.72882 16.0155 2.26901 18.7313C2.80921 21.447 4.14258 23.9416 6.10051 25.8995C8.05845 27.8574 10.553 29.1908 13.2687 29.731C15.9845 30.2712 18.7994 29.9939 21.3576 28.9343C23.9157 27.8747 26.1022 26.0803 27.6406 23.778C29.1789 21.4757 30 18.7689 30 16C29.9958 12.2883 28.5195 8.72973 25.8949 6.10512C23.2703 3.48052 19.7118 2.00418 16 2ZM27.9492 15H22.041C22.2917 12.4122 23.2379 9.94042 24.7793 7.8467C26.6094 9.80739 27.7261 12.3272 27.9492 15ZM17 15V4.0508C19.2868 4.24108 21.47 5.08747 23.2874 6.4883C21.4162 8.95826 20.2896 11.9114 20.04 15H17ZM15 15H11.96C11.7105 11.9114 10.5838 8.95826 8.71261 6.4883C10.5301 5.08747 12.7133 4.24108 15 4.0508V15ZM15 17V27.9492C12.7133 27.7589 10.5301 26.9125 8.71261 25.5117C10.5838 23.0417 11.7105 20.0887 11.96 17H15ZM17 17H20.04C20.2896 20.0887 21.4163 23.0418 23.2876 25.5117C21.4701 26.9126 19.2868 27.759 17 27.9492V17ZM7.22071 7.8467C8.76213 9.94042 9.70833 12.4122 9.95901 15H4.05081C4.27396 12.3272 5.39059 9.80739 7.22071 7.8467ZM4.05081 17H9.95901C9.70833 19.5878 8.76213 22.0596 7.22071 24.1533C5.39059 22.1926 4.27396 19.6728 4.05081 17ZM24.7793 24.1533C23.2379 22.0596 22.2917 19.5878 22.041 17H27.9492C27.7261 19.6728 26.6094 22.1926 24.7793 24.1533Z" fill="#002855"/>
</g>
</svg>
