<svg width="32" height="32" viewBox="0 0 32 32" fill="none" xmlns="http://www.w3.org/2000/svg">
<path d="M30.0002 17C29.9957 13.0231 28.414 9.21044 25.6019 6.39837C22.7898 3.5863 18.9771 2.0045 15.0002 2H14.0002V8.0591C11.9733 8.28863 10.0842 9.19904 8.64172 10.6415C7.19929 12.0839 6.28888 13.973 6.05934 16H4.00024V17C4.00403 19.7426 5.03124 22.3852 6.88082 24.4103C8.7304 26.4354 11.2692 27.6974 14.0002 27.9492V30H15.0002C18.2723 29.995 21.4222 28.757 23.8222 26.533C26.2221 24.309 27.6958 21.2622 27.9494 18H30.0002V17ZM16.0002 4.0381C19.0919 4.28097 21.9953 5.61923 24.1882 7.81207C26.381 10.0049 27.7193 12.9084 27.9621 16H16.0002V4.0381ZM14.0002 10.08V16H8.08024C8.29788 14.5073 8.99164 13.1247 10.0583 12.0581C11.125 10.9914 12.5075 10.2976 14.0002 10.08ZM6.05544 18H14.0002V25.939C11.973 25.7102 10.0833 24.8003 8.64012 23.3582C7.19698 21.9162 6.28576 20.0271 6.05544 18ZM16.0002 27.9551V18H25.9553C25.7181 20.5601 24.593 22.9567 22.775 24.7747C20.9569 26.5928 18.5604 27.7178 16.0002 27.9551Z" fill="#14C0D9"/>
</svg>
