<svg width="32" height="32" viewBox="0 0 32 32" fill="none" xmlns="http://www.w3.org/2000/svg">
<g id="dashboard">
<path id="Vector" fill-rule="evenodd" clip-rule="evenodd" d="M4.00024 1.99951H28.0002C28.5305 2.00012 29.0388 2.21103 29.4138 2.58597C29.7887 2.96091 29.9996 3.46927 30.0002 3.99951V27.9995C29.9995 28.5297 29.7886 29.038 29.4137 29.4129C29.0388 29.7879 28.5305 29.9988 28.0002 29.9995H4.00024C3.47 29.9989 2.96164 29.788 2.5867 29.4131C2.21176 29.0381 2.00085 28.5298 2.00024 27.9995V3.99951C2.00077 3.46924 2.21166 2.96084 2.58662 2.58588C2.96157 2.21092 3.46997 2.00004 4.00024 1.99951ZM14.0002 10.9995H28.0002V3.99951H14.0002V10.9995ZM12.0002 10.9995V3.99951H4.00024V10.9995H12.0002ZM4.00024 12.9995V27.9995H28.0022L28.0009 12.9995H4.00024ZM11.0001 25.9997C9.67449 25.9981 8.40363 25.4708 7.46629 24.5335C6.52894 23.5961 6.00166 22.3253 6.0001 20.9997H8.0001C8.0001 21.593 8.17604 22.173 8.50569 22.6664C8.83533 23.1597 9.30387 23.5443 9.85205 23.7713C10.4002 23.9984 11.0034 24.0578 11.5854 23.942C12.1673 23.8263 12.7019 23.5406 13.1214 23.121C13.541 22.7014 13.8267 22.1669 13.9425 21.585C14.0582 21.003 13.9988 20.3998 13.7717 19.8516C13.5447 19.3035 13.1602 18.8349 12.6668 18.5053C12.1735 18.1756 11.5934 17.9997 11.0001 17.9997V15.9997C12.3262 15.9997 13.5979 16.5265 14.5356 17.4641C15.4733 18.4018 16.0001 19.6736 16.0001 20.9997C16.0001 22.3258 15.4733 23.5975 14.5356 24.5352C13.5979 25.4729 12.3262 25.9997 11.0001 25.9997ZM20.0003 15.9997H22.0003V25.9997H20.0003V15.9997ZM24.0001 21H26.0001V26H24.0001V21Z" fill="#002855"/>
</g>
</svg>
