<svg width="28" height="28" viewBox="0 0 28 28" fill="none" xmlns="http://www.w3.org/2000/svg">
<path fill-rule="evenodd" clip-rule="evenodd" d="M2.00024 0.000244141H26.0002C26.5305 0.000852883 27.0388 0.211762 27.4138 0.586703C27.7887 0.961644 27.9996 1.47 28.0002 2.00024V26.0002C27.9995 26.5305 27.7886 27.0388 27.4137 27.4137C27.0388 27.7886 26.5305 27.9995 26.0002 28.0002H2.00024C1.47 27.9996 0.961644 27.7887 0.586703 27.4138C0.211762 27.0388 0.000852883 26.5305 0.000244141 26.0002V2.00024C0.000773609 1.46997 0.211657 0.961574 0.586615 0.586615C0.961574 0.211657 1.46997 0.000773609 2.00024 0.000244141ZM12.0002 9.00025H26.0002V2.00024H12.0002V9.00025ZM10.0002 9.00025V2.00024H2.00024V9.00025H10.0002ZM2.00024 11.0002V26.0002H26.0022L26.0009 11.0002H2.00024ZM9.0001 24.0001C7.67449 23.9986 6.40363 23.4713 5.46629 22.5339C4.52894 21.5966 4.00166 20.3257 4.0001 19.0001H6.0001C6.0001 19.5935 6.17604 20.1735 6.50569 20.6668C6.83533 21.1602 7.30387 21.5447 7.85205 21.7718C8.40022 21.9988 9.00342 22.0582 9.58537 21.9425C10.1673 21.8267 10.7019 21.541 11.1214 21.1215C11.541 20.7019 11.8267 20.1674 11.9425 19.5854C12.0582 19.0035 11.9988 18.4003 11.7717 17.8521C11.5447 17.3039 11.1602 16.8354 10.6668 16.5057C10.1735 16.1761 9.59344 16.0001 9.0001 16.0001V14.0001C10.3262 14.0001 11.5979 14.5269 12.5356 15.4646C13.4733 16.4023 14.0001 17.6741 14.0001 19.0001C14.0001 20.3262 13.4733 21.598 12.5356 22.5357C11.5979 23.4734 10.3262 24.0001 9.0001 24.0001ZM18.0003 14.0001H20.0003V24.0001H18.0003V14.0001ZM22.0001 19.0002H24.0001V24.0002H22.0001V19.0002Z" fill="#14C0D9"/>
</svg>
