<svg width="32" height="32" viewBox="0 0 32 32" fill="none" xmlns="http://www.w3.org/2000/svg">
<g id="document--horizontal">
<path id="Vector" fill-rule="evenodd" clip-rule="evenodd" d="M4.00024 6.00012H28.0002C28.5305 6.00073 29.0388 6.21164 29.4138 6.58658C29.7887 6.96152 29.9996 7.46988 30.0002 8.00012V24.0001C29.9996 24.5304 29.7887 25.0387 29.4138 25.4137C29.0388 25.7886 28.5305 25.9995 28.0002 26.0001H4.00024C3.47 25.9995 2.96164 25.7886 2.5867 25.4137C2.21176 25.0387 2.00085 24.5304 2.00024 24.0001V8.00012C2.00085 7.46988 2.21176 6.96152 2.5867 6.58658C2.96164 6.21164 3.47 6.00073 4.00024 6.00012ZM12.0002 24.0001H20.0002V22.0001C20.0002 21.7349 19.8949 21.4805 19.7074 21.293C19.5198 21.1055 19.2655 21.0001 19.0002 21.0001H13.0002C12.735 21.0001 12.4807 21.1055 12.2931 21.293C12.1056 21.4805 12.0002 21.7349 12.0002 22.0001V24.0001ZM22.0002 24.0001H28.0002V8.00012H4.00024V24.0001H10.0002V22.0001C10.0002 21.2045 10.3163 20.4414 10.8789 19.8788C11.4415 19.3162 12.2046 19.0001 13.0002 19.0001H19.0002C19.7959 19.0001 20.559 19.3162 21.1216 19.8788C21.6842 20.4414 22.0002 21.2045 22.0002 22.0001V24.0001ZM18.2226 17.326C17.5648 17.7655 16.7914 18.0001 16.0003 18.0001C14.9394 18.0001 13.922 17.5787 13.1719 16.8285C12.4217 16.0784 12.0003 15.061 12.0003 14.0001C12.0003 13.209 12.2349 12.4356 12.6744 11.7778C13.1139 11.12 13.7386 10.6073 14.4696 10.3046C15.2005 10.0018 16.0047 9.92263 16.7806 10.077C17.5566 10.2313 18.2693 10.6123 18.8287 11.1717C19.3881 11.7311 19.7691 12.4438 19.9234 13.2198C20.0778 13.9957 19.9986 14.7999 19.6958 15.5308C19.3931 16.2618 18.8804 16.8865 18.2226 17.326ZM17.1114 12.3372C16.7825 12.1174 16.3958 12.0001 16.0003 12.0001C15.4699 12.0001 14.9611 12.2108 14.5861 12.5859C14.211 12.961 14.0003 13.4697 14.0003 14.0001C14.0003 14.3957 14.1176 14.7824 14.3373 15.1113C14.5571 15.4402 14.8695 15.6965 15.2349 15.8479C15.6004 15.9992 16.0025 16.0389 16.3905 15.9617C16.7784 15.8845 17.1348 15.694 17.4145 15.4143C17.6942 15.1346 17.8847 14.7783 17.9619 14.3903C18.039 14.0023 17.9994 13.6002 17.848 13.2347C17.6967 12.8693 17.4403 12.5569 17.1114 12.3372Z" fill="#002855"/>
</g>
</svg>
