<svg width="32" height="32" viewBox="0 0 32 32" fill="none" xmlns="http://www.w3.org/2000/svg">
<g id="document--attachment">
<path id="Vector" fill-rule="evenodd" clip-rule="evenodd" d="M5.46607 17.5342C6.40344 18.4715 7.67436 18.9988 9 19.0002C10.3256 18.9988 11.5966 18.4715 12.5339 17.5342C13.4713 16.5968 13.9985 15.3259 14 14.0002V5.00024C14 4.20459 13.6839 3.44153 13.1213 2.87892C12.5587 2.31631 11.7956 2.00024 11 2.00024C10.2044 2.00024 9.44129 2.31631 8.87868 2.87892C8.31607 3.44153 8 4.20459 8 5.00024V15.0002H10V5.00024C10 4.73503 10.1054 4.48067 10.2929 4.29314C10.4804 4.1056 10.7348 4.00024 11 4.00024C11.2652 4.00024 11.5196 4.1056 11.7071 4.29314C11.8946 4.48067 12 4.73503 12 5.00024V14.0002C12 14.7959 11.6839 15.559 11.1213 16.1216C10.5587 16.6842 9.79565 17.0002 9 17.0002C8.20435 17.0002 7.44129 16.6842 6.87868 16.1216C6.31607 15.559 6 14.7959 6 14.0002V3.00024H4V14.0002C4.00146 15.3259 4.52871 16.5968 5.46607 17.5342ZM25.9997 30.0003H10.9997C10.4695 29.9997 9.96114 29.7888 9.5862 29.4139C9.21126 29.0389 9.00035 28.5306 8.99974 28.0003V22.0003H10.9997V28.0003H25.9997V6.00031H16.9997V4.00031H25.9997C26.53 4.00092 27.0383 4.21183 27.4133 4.58677C27.7882 4.96171 27.9991 5.47006 27.9997 6.00031V28.0003C27.9991 28.5306 27.7882 29.0389 27.4133 29.4139C27.0383 29.7888 26.53 29.9997 25.9997 30.0003ZM24 10.0002H17V12.0002H24V10.0002ZM15.9998 15.0002H23.9998V17.0002H15.9998V15.0002ZM23.9999 20.0003H14.9999V22.0003H23.9999V20.0003Z" fill="#002855"/>
</g>
</svg>
