<svg width="32" height="32" viewBox="0 0 32 32" fill="none" xmlns="http://www.w3.org/2000/svg">
<g id="document--security">
<path id="Vector" fill-rule="evenodd" clip-rule="evenodd" d="M6 27.9999H16V29.9999H6C5.47004 29.9983 4.96222 29.7871 4.58748 29.4124C4.21274 29.0376 4.00153 28.5298 4 27.9999V3.99986C4.00153 3.46989 4.21274 2.96207 4.58748 2.58733C4.96222 2.21259 5.47004 2.00139 6 1.99986H16C16.1314 1.99624 16.2621 2.02119 16.3829 2.07298C16.5038 2.12478 16.612 2.20218 16.7 2.29986L23.7 9.29986C23.7976 9.3879 23.875 9.49608 23.9268 9.61693C23.9786 9.73778 24.0036 9.86842 24 9.99986V14.9999H22V11.9999H16C15.47 11.9983 14.9622 11.7871 14.5875 11.4124C14.2127 11.0376 14.0015 10.5298 14 9.99986V3.99986H6V27.9999ZM21.6 9.99986L16 4.39986V9.99986H21.6ZM20.8612 28.9873L22.9999 30L25.1386 28.9878C25.993 28.5806 26.715 27.9403 27.2212 27.1405C27.7275 26.3408 27.9974 25.4143 27.9999 24.4678V18H17.9999V24.4678C18.0025 25.4142 18.2724 26.3406 18.7787 27.1402C19.2849 27.9399 20.0068 28.5802 20.8612 28.9873ZM19.9999 24.4678V20H25.9999V24.4678C25.9983 25.0355 25.8363 25.5913 25.5325 26.0709C25.2288 26.5505 24.7957 26.9346 24.2831 27.1787L22.9999 27.7861L21.7167 27.1787C21.2041 26.9346 20.771 26.5505 20.4672 26.0709C20.1635 25.5913 20.0015 25.0355 19.9999 24.4678Z" fill="#002855"/>
</g>
</svg>
