<svg width="32" height="32" viewBox="0 0 32 32" fill="none" xmlns="http://www.w3.org/2000/svg">
<path fill-rule="evenodd" clip-rule="evenodd" d="M25.7 9.30025L18.7 2.30024C18.5 2.10024 18.3 2.00024 18 2.00024H8C6.9 2.00024 6 2.90024 6 4.00024V28.0002C6 29.1002 6.9 30.0002 8 30.0002H24C25.1 30.0002 26 29.1002 26 28.0002V10.0002C26 9.70025 25.9 9.50025 25.7 9.30025ZM18 4.40024L23.6 10.0002H18V4.40024ZM24 28.0002H8V4.00024H16V10.0002C16 11.1002 16.9 12.0002 18 12.0002H24V28.0002ZM22.0001 22.0001H10.0001V24.0001H22.0001V22.0001ZM10.0001 16.0001H22.0001V18.0001H10.0001V16.0001Z" fill="#14C0D9"/>
</svg>
