<svg width="32" height="32" viewBox="0 0 32 32" fill="none" xmlns="http://www.w3.org/2000/svg">
<path d="M26.0002 9.99999H23.2385C23.8894 9.03797 24.1419 7.86102 23.9428 6.71669C23.7437 5.57235 23.1086 4.54982 22.171 3.86416C21.2335 3.17851 20.0665 2.88317 18.9157 3.04026C17.7648 3.19736 16.7197 3.79464 16.0002 4.70649C15.2792 3.79915 14.235 3.206 13.0864 3.05125C11.9378 2.89651 10.7739 3.19217 9.83836 3.87632C8.90285 4.56047 8.26834 5.58004 8.06769 6.72151C7.86704 7.86299 8.11583 9.03783 8.76194 9.99999H6.00024C5.47001 10.0007 4.96169 10.2116 4.58676 10.5865C4.21183 10.9614 4.00091 11.4698 4.00024 12V16C4.00091 16.5302 4.21183 17.0385 4.58676 17.4135C4.96169 17.7884 5.47001 17.9993 6.00024 18V28C6.00091 28.5302 6.21183 29.0385 6.58676 29.4135C6.96169 29.7884 7.47001 29.9993 8.00024 30H24.0002C24.5305 29.9993 25.0388 29.7884 25.4137 29.4135C25.7887 29.0385 25.9996 28.5302 26.0002 28V18C26.5305 17.9993 27.0388 17.7884 27.4137 17.4135C27.7887 17.0385 27.9996 16.5302 28.0002 16V12C27.9996 11.4698 27.7887 10.9614 27.4137 10.5865C27.0388 10.2116 26.5305 10.0007 26.0002 9.99999ZM17.0002 7.49999C17.0002 7.00554 17.1469 6.52219 17.4216 6.11107C17.6963 5.69994 18.0867 5.37951 18.5435 5.19029C19.0004 5.00107 19.503 4.95157 19.988 5.04803C20.4729 5.14449 20.9184 5.38259 21.268 5.73223C21.6176 6.08186 21.8557 6.52731 21.9522 7.01227C22.0487 7.49722 21.9992 7.99989 21.8099 8.4567C21.6207 8.91352 21.3003 9.30396 20.8892 9.57867C20.478 9.85337 19.9947 9.99999 19.5002 9.99999H17.0002V7.49999ZM12.5002 4.99999C13.163 5.00079 13.7985 5.26443 14.2671 5.7331C14.7358 6.20177 14.9995 6.83719 15.0002 7.49999V9.99999H12.5002C11.8372 9.99999 11.2013 9.7366 10.7325 9.26776C10.2636 8.79892 10.0002 8.16303 10.0002 7.49999C10.0002 6.83695 10.2636 6.20107 10.7325 5.73223C11.2013 5.26338 11.8372 4.99999 12.5002 4.99999ZM6.00024 12H15.0002V16H6.00024V12ZM8.00024 18H15.0002V28H8.00024V18ZM24.0014 28H17.0002V18H24.0002L24.0014 28ZM17.0002 16V12H26.0002L26.0014 16H17.0002Z" fill="#14C0D9"/>
</svg>
