<svg width="32" height="32" viewBox="0 0 32 32" fill="none" xmlns="http://www.w3.org/2000/svg">
<g id="group--security">
<path id="Vector" fill-rule="evenodd" clip-rule="evenodd" d="M8.76585 24.9424L14.0002 27.7334V30L7.82445 26.707C6.0637 25.7704 4.59126 24.372 3.56517 22.6618C2.53908 20.9517 1.99809 18.9944 2.00025 17V4C2.00086 3.46975 2.21177 2.9614 2.58671 2.58646C2.96165 2.21152 3.47 2.00061 4.00025 2H24.0002C24.5305 2.00061 25.0389 2.21152 25.4138 2.58646C25.7887 2.9614 25.9996 3.46975 26.0002 4V10H24.0002V4H4.00025V17C3.99857 18.6318 4.44127 20.2333 5.28085 21.6325C6.12044 23.0318 7.3252 24.176 8.76585 24.9424ZM15.0001 14.9999C14.209 14.9999 13.4356 14.7653 12.7778 14.3258C12.12 13.8862 11.6074 13.2615 11.3046 12.5306C11.0018 11.7997 10.9226 10.9954 11.077 10.2195C11.2313 9.4436 11.6123 8.73087 12.1717 8.17146C12.7311 7.61205 13.4438 7.23108 14.2198 7.07674C14.9957 6.9224 15.7999 7.00162 16.5309 7.30437C17.2618 7.60712 17.8865 8.11981 18.326 8.7776C18.7655 9.4354 19.0001 10.2088 19.0001 10.9999C18.9989 12.0604 18.5771 13.0771 17.8272 13.827C17.0773 14.5769 16.0606 14.9987 15.0001 14.9999ZM15.0001 8.99989C14.6046 8.99989 14.2179 9.11718 13.889 9.33695C13.5601 9.55671 13.3037 9.86907 13.1524 10.2345C13.001 10.6 12.9614 11.0021 13.0385 11.3901C13.1157 11.778 13.3062 12.1344 13.5859 12.4141C13.8656 12.6938 14.222 12.8843 14.6099 12.9615C14.9979 13.0386 15.4 12.999 15.7655 12.8476C16.1309 12.6963 16.4433 12.4399 16.6631 12.111C16.8828 11.7821 17.0001 11.3954 17.0001 10.9999C16.9996 10.4696 16.7887 9.96124 16.4137 9.58629C16.0388 9.21133 15.5304 9.00044 15.0001 8.99989ZM11.0001 20.9999H9.00005V18.9999C9.00093 18.2045 9.31728 17.442 9.8797 16.8795C10.4421 16.3171 11.2047 16.0008 12.0001 15.9999H18.0001V17.9999H12.0001C11.7349 18.0002 11.4807 18.1056 11.2933 18.2931C11.1058 18.4806 11.0003 18.7348 11.0001 18.9999V20.9999ZM21.778 21.3259C22.4358 21.7654 23.2091 22 24.0003 22C25.0608 21.9988 26.0775 21.577 26.8274 20.8271C27.5773 20.0772 27.9991 19.0605 28.0003 18C28.0003 17.2088 27.7657 16.4355 27.3261 15.7777C26.8866 15.1199 26.2619 14.6072 25.531 14.3045C24.8001 14.0017 23.9958 13.9225 23.2199 14.0768C22.444 14.2312 21.7313 14.6121 21.1718 15.1715C20.6124 15.731 20.2315 16.4437 20.0771 17.2196C19.9228 17.9955 20.002 18.7998 20.3047 19.5307C20.6075 20.2616 21.1202 20.8863 21.778 21.3259ZM22.8891 16.337C23.218 16.1173 23.6047 16 24.0003 16C24.5305 16.0005 25.0389 16.2114 25.4139 16.5864C25.7888 16.9613 25.9997 17.4697 26.0003 18C26.0003 18.3955 25.883 18.7822 25.6632 19.1111C25.4434 19.44 25.1311 19.6964 24.7656 19.8477C24.4002 19.9991 23.998 20.0387 23.6101 19.9615C23.2221 19.8844 22.8658 19.6939 22.5861 19.4142C22.3063 19.1345 22.1159 18.7781 22.0387 18.3902C21.9615 18.0022 22.0011 17.6001 22.1525 17.2346C22.3039 16.8692 22.5602 16.5568 22.8891 16.337ZM30.0002 28H28.0002V26C27.9999 25.7349 27.8945 25.4807 27.707 25.2932C27.5195 25.1057 27.2653 25.0003 27.0002 25H21.0002C20.7351 25.0003 20.4809 25.1057 20.2934 25.2932C20.1059 25.4807 20.0005 25.7349 20.0002 26V28H18.0002V26C18.0011 25.2046 18.3174 24.442 18.8798 23.8796C19.4423 23.3172 20.2048 23.0009 21.0002 23H27.0002C27.7956 23.0009 28.5581 23.3172 29.1206 23.8796C29.683 24.442 29.9993 25.2046 30.0002 26V28Z" fill="#002855"/>
</g>
</svg>
