<svg width="32" height="32" viewBox="0 0 32 32" fill="none" xmlns="http://www.w3.org/2000/svg">
<g id="ibm-cloud-pak--security">
<path id="Vector" fill-rule="evenodd" clip-rule="evenodd" d="M15.4961 30.8645C15.6491 30.9535 15.823 31.0004 16 31.0002C16.177 31.0004 16.3509 30.9535 16.5039 30.8645L28.5039 23.8645C28.6549 23.7763 28.7801 23.6501 28.8672 23.4984C28.9542 23.3468 29 23.175 29 23.0002V15.0002H27V22.426L16 28.843L5 22.426V9.57436L16 3.15786L27.4961 9.86396L28.5039 8.13636L16.5039 1.13636C16.351 1.04714 16.1771 1.00012 16 1.00012C15.8229 1.00012 15.649 1.04714 15.4961 1.13636L3.4961 8.13636C3.34509 8.22438 3.21981 8.35047 3.13276 8.50205C3.04571 8.65362 2.99993 8.82537 3 9.00016V23.0002C2.99999 23.175 3.04578 23.3468 3.13282 23.4984C3.21986 23.6501 3.34511 23.7763 3.4961 23.8645L15.4961 30.8645ZM11.7595 21.9693C12.8843 23.0941 14.4093 23.7268 16.0001 23.7286C17.5908 23.7268 19.1159 23.0941 20.2407 21.9693C21.3655 20.8444 21.9983 19.3194 22.0001 17.7286V11.2716L16.0001 8.27164L10.0001 11.2716V17.7286C10.0019 19.3194 10.6346 20.8444 11.7595 21.9693ZM12.0001 17.7286V12.5074L16.0001 10.5074L20.0001 12.5074V17.7286C20.0001 18.7895 19.5787 19.8069 18.8285 20.5571C18.0784 21.3072 17.061 21.7286 16.0001 21.7286C14.9392 21.7286 13.9218 21.3072 13.1717 20.5571C12.4215 19.8069 12.0001 18.7895 12.0001 17.7286Z" fill="#002855"/>
</g>
</svg>
