<svg width="32" height="32" viewBox="0 0 32 32" fill="none" xmlns="http://www.w3.org/2000/svg">
<g id="mobile--check">
<path id="Vector" fill-rule="evenodd" clip-rule="evenodd" d="M9.99976 9.99988V27.9999H13.9998V29.9999H9.99976C9.46951 29.9993 8.96116 29.7884 8.58622 29.4134C8.21127 29.0385 8.00036 28.5301 7.99976 27.9999V5.99988C8.00029 5.46961 8.21117 4.96121 8.58613 4.58625C8.96109 4.21129 9.46949 4.00041 9.99976 3.99988H21.9998C22.53 4.00049 23.0384 4.2114 23.4133 4.58634C23.7882 4.96128 23.9991 5.46963 23.9998 5.99988V18.9999H21.9998V9.99988H9.99976ZM21.9998 5.99988H9.99976V7.99988H21.9998V5.99988ZM17.4097 24.5898L19.9997 27.1798L26.5897 20.5898L27.9997 21.9998L19.9997 29.9998L15.9997 25.9998L17.4097 24.5898Z" fill="#002855"/>
</g>
</svg>
