<svg width="32" height="32" viewBox="0 0 32 32" fill="none" xmlns="http://www.w3.org/2000/svg">
<g id="music">
<path id="Vector" d="M25 4H10C9.46973 4.00053 8.96133 4.21141 8.58637 4.58637C8.21141 4.96133 8.00053 5.46973 8 6V20.5563C7.39476 20.1961 6.70431 20.004 6 20C5.20888 20 4.43552 20.2346 3.77772 20.6741C3.11992 21.1136 2.60723 21.7384 2.30448 22.4693C2.00173 23.2002 1.92252 24.0044 2.07686 24.7804C2.2312 25.5563 2.61216 26.269 3.17157 26.8284C3.73098 27.3878 4.44372 27.7688 5.21964 27.9231C5.99556 28.0775 6.79983 27.9983 7.53074 27.6955C8.26164 27.3928 8.88635 26.8801 9.32588 26.2223C9.76541 25.5645 10 24.7911 10 24V12H25V20.5562C24.3948 20.196 23.7043 20.004 23 20C22.2089 20 21.4355 20.2346 20.7777 20.6741C20.1199 21.1136 19.6072 21.7384 19.3045 22.4693C19.0017 23.2002 18.9225 24.0044 19.0769 24.7804C19.2312 25.5563 19.6122 26.269 20.1716 26.8284C20.731 27.3878 21.4437 27.7688 22.2196 27.9231C22.9956 28.0775 23.7998 27.9983 24.5307 27.6955C25.2616 27.3928 25.8864 26.8801 26.3259 26.2223C26.7654 25.5645 27 24.7911 27 24V6C26.9994 5.46975 26.7885 4.9614 26.4135 4.58646C26.0386 4.21152 25.5302 4.00061 25 4ZM6 26C5.60444 26 5.21776 25.8827 4.88886 25.6629C4.55996 25.4432 4.30362 25.1308 4.15224 24.7654C4.00087 24.3999 3.96126 23.9978 4.03843 23.6098C4.1156 23.2219 4.30608 22.8655 4.58579 22.5858C4.86549 22.3061 5.22186 22.1156 5.60982 22.0384C5.99778 21.9613 6.39992 22.0009 6.76537 22.1522C7.13082 22.3036 7.44318 22.56 7.66294 22.8889C7.8827 23.2178 8 23.6044 8 24C7.99939 24.5302 7.78848 25.0386 7.41354 25.4135C7.0386 25.7885 6.53025 25.9994 6 26ZM23 26C22.6044 26 22.2178 25.8827 21.8889 25.6629C21.56 25.4432 21.3036 25.1308 21.1522 24.7654C21.0009 24.3999 20.9613 23.9978 21.0384 23.6098C21.1156 23.2219 21.3061 22.8655 21.5858 22.5858C21.8655 22.3061 22.2219 22.1156 22.6098 22.0384C22.9978 21.9613 23.3999 22.0009 23.7654 22.1522C24.1308 22.3036 24.4432 22.56 24.6629 22.8889C24.8827 23.2178 25 23.6044 25 24C24.9993 24.5302 24.7883 25.0385 24.4134 25.4134C24.0385 25.7883 23.5302 25.9993 23 26ZM10 6H25V10H10V6Z" fill="#002855"/>
</g>
</svg>
