<svg width="32" height="32" viewBox="0 0 32 32" fill="none" xmlns="http://www.w3.org/2000/svg">
<g id="navaid--dme">
<path id="Vector" fill-rule="evenodd" clip-rule="evenodd" d="M4.00024 28H28.0002C28.5305 27.9994 29.0389 27.7886 29.4138 27.4136C29.7888 27.0386 29.9997 26.5303 30.0002 26V6C29.9997 5.46974 29.7888 4.96135 29.4138 4.5864C29.0389 4.21145 28.5305 4.00056 28.0002 4H4.00024C3.46998 4.00056 2.9616 4.21145 2.58664 4.5864C2.21169 4.96135 2.0008 5.46974 2.00024 6V26C2.0008 26.5303 2.21169 27.0386 2.58664 27.4136C2.9616 27.7886 3.46998 27.9994 4.00024 28ZM4.00024 26V6H28.0002V26H4.00024ZM24.0001 23.9999H8.0001C7.46983 23.9993 6.96145 23.7884 6.5865 23.4135C6.21154 23.0385 6.00065 22.5301 6.0001 21.9999V9.99985C6.00065 9.46959 6.21154 8.9612 6.5865 8.58625C6.96145 8.2113 7.46983 8.00041 8.0001 7.99985H24.0001C24.5304 8.00041 25.0387 8.2113 25.4137 8.58625C25.7886 8.9612 25.9995 9.46959 26.0001 9.99985V21.9999C25.9995 22.5301 25.7886 23.0385 25.4137 23.4135C25.0387 23.7884 24.5304 23.9993 24.0001 23.9999ZM8.0001 9.99985V21.9999H24.0001V9.99985H8.0001ZM16.0003 20C15.2092 20 14.4358 19.7654 13.778 19.3259C13.1202 18.8863 12.6075 18.2616 12.3048 17.5307C12.002 16.7998 11.9228 15.9955 12.0771 15.2196C12.2315 14.4437 12.6125 13.731 13.1719 13.1716C13.7313 12.6121 14.444 12.2312 15.2199 12.0768C15.9959 11.9225 16.8001 12.0017 17.531 12.3045C18.2619 12.6072 18.8866 13.1199 19.3262 13.7777C19.7657 14.4355 20.0003 15.2089 20.0003 16C19.9991 17.0605 19.5773 18.0772 18.8274 18.8271C18.0775 19.577 17.0608 19.9988 16.0003 20ZM16.0003 14C15.6047 14 15.218 14.1173 14.8891 14.337C14.5602 14.5568 14.3039 14.8692 14.1525 15.2346C14.0012 15.6001 13.9615 16.0022 14.0387 16.3902C14.1159 16.7781 14.3064 17.1345 14.5861 17.4142C14.8658 17.6939 15.2221 17.8844 15.6101 17.9616C15.9981 18.0387 16.4002 17.9991 16.7657 17.8477C17.1311 17.6964 17.4435 17.44 17.6632 17.1111C17.883 16.7822 18.0003 16.3955 18.0003 16C17.9997 15.4697 17.7888 14.9613 17.4139 14.5864C17.0389 14.2114 16.5306 14.0005 16.0003 14Z" fill="#002855"/>
</g>
</svg>
