<svg width="32" height="32" viewBox="0 0 32 32" fill="none" xmlns="http://www.w3.org/2000/svg">
<g id="notebook">
<path id="Vector" d="M26 10H19V12H26V10Z" fill="#002855"/>
<path id="Vector_2" d="M26 15H19V17H26V15Z" fill="black"/>
<path id="Vector_3" d="M26 20H19V22H26V20Z" fill="black"/>
<path id="Vector_4" d="M28 4.99951H4C3.46973 5.00004 2.96133 5.21093 2.58637 5.58588C2.21141 5.96084 2.00053 6.46924 2 6.99951V24.9995C2.00061 25.5298 2.21152 26.0381 2.58646 26.4131C2.9614 26.788 3.46975 26.9989 4 26.9995H28C28.5302 26.9988 29.0385 26.7879 29.4134 26.4129C29.7883 26.038 29.9993 25.5297 30 24.9995V6.99951C29.9994 6.46927 29.7885 5.96091 29.4135 5.58597C29.0386 5.21103 28.5302 5.00012 28 4.99951ZM4 6.99951H15V24.9995H4V6.99951ZM17 24.9995V6.99951H28L28.002 24.9995H17Z" fill="black"/>
</g>
</svg>
