<svg width="32" height="32" viewBox="0 0 32 32" fill="none" xmlns="http://www.w3.org/2000/svg">
<g id="replicate">
<path id="Vector" fill-rule="evenodd" clip-rule="evenodd" d="M28.0002 21.9995V17.9995H30.0002V21.9995C29.9996 22.5298 29.7887 23.0381 29.4138 23.4131C29.0388 23.788 28.5305 23.9989 28.0002 23.9995H24.0002V27.9995C23.9996 28.5298 23.7887 29.0381 23.4138 29.4131C23.0388 29.788 22.5305 29.9989 22.0002 29.9995H4.00024C3.47 29.9989 2.96164 29.788 2.5867 29.4131C2.21176 29.0381 2.00085 28.5298 2.00024 27.9995V9.99951C2.00085 9.46927 2.21176 8.96091 2.5867 8.58597C2.96164 8.21103 3.47 8.00012 4.00024 7.99951H8.00025V3.99951C8.00085 3.46927 8.21176 2.96091 8.5867 2.58597C8.96165 2.21103 9.47 2.00012 10.0002 1.99951H14.0002V3.99951H10.0002V7.99951H22.0002C22.5305 8.00012 23.0388 8.21103 23.4138 8.58597C23.7887 8.96091 23.9996 9.46927 24.0002 9.99951V21.9995H28.0002ZM4.00024 27.9995H22.0002V9.99951H4.00024V27.9995ZM17.0003 1.99951H21.0003V3.99951H17.0003V1.99951ZM30.0001 7.99951H28.0001V3.99951H24.0001V1.99951H28.0001C28.5304 2.00007 29.0388 2.21096 29.4137 2.58591C29.7887 2.96086 29.9996 3.46925 30.0001 3.99951V7.99951ZM30.0002 10.9999H28.0002V14.9999H30.0002V10.9999Z" fill="#002855"/>
</g>
</svg>
