<svg width="32" height="32" viewBox="0 0 32 32" fill="none" xmlns="http://www.w3.org/2000/svg">
<g id="send--alt">
<path id="Vector" d="M27.71 4.29026C27.575 4.15593 27.4045 4.06293 27.2185 4.02218C27.0325 3.98144 26.8388 3.99465 26.66 4.06026L4.66 12.0603C4.47027 12.1322 4.30692 12.2602 4.19165 12.4272C4.07638 12.5942 4.01465 12.7923 4.01465 12.9953C4.01465 13.1982 4.07638 13.3963 4.19165 13.5633C4.30692 13.7303 4.47027 13.8583 4.66 13.9303L14.26 17.7703L18.1 27.3703C18.1722 27.5517 18.2958 27.708 18.4557 27.8199C18.6157 27.9319 18.8049 27.9946 19 28.0003C19.2021 27.9961 19.3982 27.9308 19.5624 27.813C19.7266 27.6952 19.8513 27.5304 19.92 27.3403L27.92 5.34026C27.9881 5.16333 28.0046 4.97069 27.9674 4.78478C27.9302 4.59887 27.8409 4.42737 27.71 4.29026ZM19 24.2003L16.21 17.2003L21 12.4103L19.59 11.0003L14.76 15.8303L7.8 13.0003L25.33 6.67026L19 24.2003Z" fill="#002855"/>
</g>
</svg>
