<svg width="32" height="32" viewBox="0 0 32 32" fill="none" xmlns="http://www.w3.org/2000/svg">
<g id="share">
<path id="Vector" d="M22.9999 20C22.2514 20.0038 21.5133 20.1756 20.84 20.5027C20.1667 20.8298 19.5755 21.3039 19.1099 21.89L11.7999 17.32C12.0664 16.4602 12.0664 15.5399 11.7999 14.68L19.1099 10.11C19.8519 11.0288 20.8951 11.6552 22.0547 11.8784C23.2143 12.1017 24.4155 11.9073 25.4455 11.3297C26.4755 10.7521 27.2678 9.82853 27.6821 8.72268C28.0963 7.61684 28.1058 6.40005 27.7089 5.28787C27.3119 4.17569 26.5341 3.2399 25.5133 2.64627C24.4925 2.05264 23.2944 1.83949 22.1315 2.04457C20.9685 2.24966 19.9157 2.85974 19.1595 3.76676C18.4033 4.67377 17.9925 5.81916 17.9999 7.00004C18.0047 7.44721 18.072 7.89153 18.1999 8.32004L10.8899 12.89C10.2446 12.0776 9.36248 11.4861 8.36589 11.1974C7.3693 10.9088 6.3076 10.9373 5.32795 11.279C4.3483 11.6208 3.49923 12.2588 2.89843 13.1047C2.29762 13.9506 1.97485 14.9625 1.97485 16C1.97485 17.0376 2.29762 18.0494 2.89843 18.8953C3.49923 19.7412 4.3483 20.3793 5.32795 20.721C6.3076 21.0628 7.3693 21.0913 8.36589 20.8026C9.36248 20.514 10.2446 19.9225 10.8899 19.11L18.1999 23.68C18.072 24.1085 18.0047 24.5529 17.9999 25C17.9999 25.9889 18.2932 26.9556 18.8426 27.7779C19.392 28.6001 20.1729 29.241 21.0865 29.6194C22.0002 29.9979 23.0055 30.0969 23.9754 29.904C24.9453 29.711 25.8362 29.2348 26.5355 28.5356C27.2347 27.8363 27.7109 26.9454 27.9039 25.9755C28.0968 25.0056 27.9978 24.0002 27.6193 23.0866C27.2409 22.173 26.6 21.3921 25.7778 20.8427C24.9555 20.2933 23.9888 20 22.9999 20ZM22.9999 4.00004C23.5933 4.00004 24.1733 4.17598 24.6666 4.50563C25.16 4.83527 25.5445 5.30381 25.7716 5.85199C25.9986 6.40016 26.0581 7.00336 25.9423 7.58531C25.8265 8.16725 25.5408 8.7018 25.1213 9.12136C24.7017 9.54091 24.1672 9.82664 23.5852 9.94239C23.0033 10.0581 22.4001 9.99874 21.8519 9.77167C21.3037 9.54461 20.8352 9.16009 20.5055 8.66675C20.1759 8.1734 19.9999 7.59338 19.9999 7.00004C19.9999 6.20439 20.316 5.44132 20.8786 4.87872C21.4412 4.31611 22.2043 4.00004 22.9999 4.00004ZM6.99994 19C6.4066 19 5.82658 18.8241 5.33323 18.4944C4.83988 18.1648 4.45536 17.6963 4.2283 17.1481C4.00124 16.5999 3.94183 15.9967 4.05758 15.4148C4.17334 14.8328 4.45906 14.2983 4.87862 13.8787C5.29818 13.4592 5.83273 13.1734 6.41467 13.0577C6.99661 12.9419 7.59981 13.0013 8.14799 13.2284C8.69617 13.4555 9.1647 13.84 9.49435 14.3333C9.82399 14.8267 9.99994 15.4067 9.99994 16C9.99994 16.7957 9.68387 17.5587 9.12126 18.1214C8.55865 18.684 7.79559 19 6.99994 19ZM22.9999 28C22.4066 28 21.8266 27.8241 21.3332 27.4944C20.8399 27.1648 20.4554 26.6963 20.2283 26.1481C20.0012 25.5999 19.9418 24.9967 20.0576 24.4148C20.1733 23.8328 20.4591 23.2983 20.8786 22.8787C21.2982 22.4592 21.8327 22.1734 22.4147 22.0577C22.9966 21.9419 23.5998 22.0013 24.148 22.2284C24.6962 22.4555 25.1647 22.84 25.4943 23.3333C25.824 23.8267 25.9999 24.4067 25.9999 25C25.9999 25.7957 25.6839 26.5587 25.1213 27.1214C24.5586 27.684 23.7956 28 22.9999 28Z" fill="#002855"/>
</g>
</svg>
