<svg width="32" height="32" viewBox="0 0 32 32" fill="none" xmlns="http://www.w3.org/2000/svg">
<g id="shopping--catalog">
<path id="Vector" fill-rule="evenodd" clip-rule="evenodd" d="M22 11H28V13H5.2L6.9 24H15V26H6.9C5.9 26 5 25.3 4.9 24.3L3 12.2V12C3 11.4 3.4 11 4 11H10V7C10 5.3 11.3 4 13 4H19C20.7 4 22 5.3 22 7V11ZM13 6C12.4 6 12 6.4 12 7V11H20V7C20 6.4 19.6 6 19 6H13ZM17.0002 17H21.0002V21H17.0002V17ZM21.0002 23.9998H17.0002V27.9998H21.0002V23.9998ZM28 23.9998H24V27.9998H28V23.9998ZM28 17H24V21H28V17Z" fill="#002855"/>
</g>
</svg>
