<svg width="32" height="32" viewBox="0 0 32 32" fill="none" xmlns="http://www.w3.org/2000/svg">
<g id="thumbnail-preview">
<path id="Vector" fill-rule="evenodd" clip-rule="evenodd" d="M30.0001 7.99951V3.99951C29.9993 3.4693 29.7884 2.96101 29.4135 2.58609C29.0386 2.21117 28.5303 2.00023 28.0001 1.99951H24.0001C23.4698 2.00023 22.9615 2.21117 22.5866 2.58609C22.2117 2.96101 22.0008 3.4693 22.0001 3.99951V7.99951C22.0008 8.52973 22.2117 9.03802 22.5866 9.41294C22.9615 9.78785 23.4698 9.9988 24.0001 9.99951H28.0001C28.5303 9.9988 29.0386 9.78785 29.4135 9.41294C29.7884 9.03802 29.9993 8.52973 30.0001 7.99951ZM28.0021 3.99951L28.0001 7.99951H24.0001V3.99951H28.0021ZM28.0002 11.9996H4.00024C3.47 12.0002 2.96164 12.2111 2.5867 12.586C2.21176 12.961 2.00085 13.4693 2.00024 13.9996V27.9996C2.00077 28.5298 2.21166 29.0382 2.58662 29.4132C2.96157 29.7881 3.46997 29.999 4.00024 29.9996H28.0002C28.5305 29.9989 29.0388 29.788 29.4138 29.4131C29.7887 29.0382 29.9996 28.5298 30.0002 27.9996V13.9996C29.9995 13.4693 29.7886 12.961 29.4137 12.5861C29.0388 12.2112 28.5305 12.0003 28.0002 11.9996ZM20.0002 27.9996H12.0002V26.9996C12.0005 26.7344 12.1059 26.4802 12.2934 26.2927C12.4809 26.1052 12.7351 25.9998 13.0002 25.9996H19.0002C19.2654 25.9998 19.5196 26.1052 19.7071 26.2927C19.8946 26.4802 20 26.7344 20.0002 26.9996V27.9996ZM28.0002 27.9996H22.0002V26.9996C21.9994 26.2042 21.683 25.4416 21.1206 24.8792C20.5582 24.3168 19.7956 24.0004 19.0002 23.9996H13.0002C12.2049 24.0004 11.4423 24.3168 10.8799 24.8792C10.3175 25.4416 10.0011 26.2042 10.0002 26.9996V27.9996H4.00024V13.9996H28.0022L28.0002 27.9996ZM16.0003 22.9995C15.2092 22.9995 14.4358 22.7649 13.778 22.3254C13.1202 21.8859 12.6075 21.2612 12.3048 20.5302C12.002 19.7993 11.9228 18.9951 12.0771 18.2192C12.2315 17.4432 12.6125 16.7305 13.1719 16.1711C13.7313 15.6117 14.444 15.2307 15.2199 15.0764C15.9959 14.922 16.8001 15.0012 17.531 15.304C18.2619 15.6067 18.8866 16.1194 19.3262 16.7772C19.7657 17.435 20.0003 18.2084 20.0003 18.9995C19.9992 20.06 19.5774 21.0768 18.8275 21.8267C18.0776 22.5766 17.0608 22.9984 16.0003 22.9995ZM16.0003 16.9995C15.6047 16.9995 15.218 17.1168 14.8891 17.3366C14.5602 17.5563 14.3039 17.8687 14.1525 18.2341C14.0012 18.5996 13.9615 19.0017 14.0387 19.3897C14.1159 19.7777 14.3064 20.134 14.5861 20.4137C14.8658 20.6934 15.2221 20.8839 15.6101 20.9611C15.9981 21.0383 16.4002 20.9986 16.7657 20.8473C17.1311 20.6959 17.4435 20.4396 17.6632 20.1107C17.883 19.7818 18.0003 19.3951 18.0003 18.9995C17.9997 18.4693 17.7888 17.9609 17.4138 17.586C17.0389 17.211 16.5305 17.0001 16.0003 16.9995ZM20.0003 3.99951V7.99951C19.9996 8.52973 19.7886 9.03802 19.4137 9.41294C19.0388 9.78785 18.5305 9.9988 18.0003 9.99951H14.0003C13.47 9.9989 12.9617 9.78799 12.5867 9.41305C12.2118 9.03811 12.0009 8.52976 12.0003 7.99951V3.99951C12.0009 3.46927 12.2118 2.96091 12.5867 2.58597C12.9617 2.21103 13.47 2.00012 14.0003 1.99951H18.0003C18.5305 2.00023 19.0388 2.21117 19.4137 2.58609C19.7886 2.96101 19.9996 3.4693 20.0003 3.99951ZM18.0003 7.99951L18.0023 3.99951H14.0003V7.99951H18.0003ZM10.0002 7.99951V3.99951C9.99964 3.46927 9.78873 2.96091 9.41378 2.58597C9.03884 2.21103 8.53049 2.00012 8.00024 1.99951H4.00024C3.47 2.00012 2.96164 2.21103 2.5867 2.58597C2.21176 2.96091 2.00085 3.46927 2.00024 3.99951V7.99951C2.00085 8.52976 2.21176 9.03811 2.5867 9.41305C2.96164 9.78799 3.47 9.9989 4.00024 9.99951H8.00024C8.53049 9.9989 9.03884 9.78799 9.41378 9.41305C9.78873 9.03811 9.99964 8.52976 10.0002 7.99951ZM8.00174 3.99951L8.00024 7.99951H4.00024V3.99951H8.00174Z" fill="#002855"/>
</g>
</svg>
