<svg width="32" height="32" viewBox="0 0 32 32" fill="none" xmlns="http://www.w3.org/2000/svg">
<g id="user">
<path id="Vector" fill-rule="evenodd" clip-rule="evenodd" d="M18.7778 4.84265C17.9556 4.29324 16.9889 4 16 4C14.6739 4 13.4021 4.52678 12.4644 5.46447C11.5267 6.40215 11 7.67392 11 9C11 9.98891 11.2932 10.9556 11.8426 11.7779C12.392 12.6001 13.1729 13.241 14.0865 13.6194C15.0002 13.9978 16.0055 14.0969 16.9754 13.9039C17.9453 13.711 18.8362 13.2348 19.5355 12.5355C20.2348 11.8363 20.711 10.9454 20.9039 9.97545C21.0968 9.00555 20.9978 8.00021 20.6194 7.08658C20.2409 6.17295 19.6001 5.39206 18.7778 4.84265ZM12.111 3.17971C13.2621 2.41054 14.6155 2 16 2C17.8565 2 19.637 2.7375 20.9497 4.05025C22.2625 5.36301 23 7.14348 23 9C23 10.3845 22.5894 11.7378 21.8202 12.889C21.0511 14.0401 19.9578 14.9373 18.6787 15.4672C17.3997 15.997 15.9922 16.1356 14.6343 15.8655C13.2765 15.5954 12.0292 14.9287 11.0502 13.9497C10.0712 12.9708 9.40456 11.7235 9.13446 10.3656C8.86437 9.00776 9.00299 7.6003 9.5328 6.32122C10.0626 5.04213 10.9598 3.94888 12.111 3.17971ZM24 30H26V25C26 23.1435 25.2625 21.363 23.9497 20.0503C22.637 18.7375 20.8565 18 19 18H13C11.1435 18 9.36301 18.7375 8.05025 20.0503C6.7375 21.363 6 23.1435 6 25V30H8V25C8 23.6739 8.52678 22.4022 9.46447 21.4645C10.4021 20.5268 11.6739 20 13 20H19C19.6566 20 20.3068 20.1293 20.9134 20.3806C21.52 20.6319 22.0712 21.0002 22.5355 21.4645C22.9998 21.9288 23.3681 22.48 23.6194 23.0866C23.8707 23.6932 24 24.3434 24 25V30Z" fill="#002855"/>
</g>
</svg>
