<svg width="32" height="32" viewBox="0 0 32 32" fill="none" xmlns="http://www.w3.org/2000/svg">
<g id="user--avatar">
<path id="Vector" fill-rule="evenodd" clip-rule="evenodd" d="M8.22178 4.35943C10.5241 2.82109 13.2308 2 15.9998 2C19.7115 2.00418 23.27 3.48052 25.8946 6.10512C28.5192 8.72973 29.9956 12.2883 29.9998 16C29.9998 18.7689 29.1787 21.4757 27.6403 23.778C26.102 26.0803 23.9155 27.8747 21.3573 28.9343C18.7992 29.9939 15.9842 30.2712 13.2685 29.731C10.5528 29.1908 8.0582 27.8574 6.10027 25.8995C4.14233 23.9416 2.80896 21.447 2.26877 18.7313C1.72858 16.0155 2.00582 13.2006 3.06545 10.6424C4.12508 8.08427 5.91949 5.89777 8.22178 4.35943ZM9.99976 25V26.3765C11.8206 27.4397 13.8912 28 15.9998 28C18.1083 28 20.1789 27.4397 21.9998 26.3765V25C21.9989 24.2046 21.6825 23.4421 21.1201 22.8796C20.5577 22.3172 19.7951 22.0009 18.9998 22H12.9998C12.2044 22.0009 11.4418 22.3172 10.8794 22.8796C10.317 23.4421 10.0006 24.2046 9.99976 25ZM22.504 21.4412C23.4379 22.3626 23.9724 23.6141 23.9923 24.9258C25.8057 23.3066 27.0845 21.1747 27.6594 18.8125C28.2343 16.4503 28.0782 13.9691 27.2116 11.6977C26.3451 9.42618 24.809 7.47147 22.8069 6.09237C20.8047 4.71327 18.4309 3.97483 15.9998 3.97483C13.5686 3.97483 11.1948 4.71327 9.19263 6.09237C7.19048 7.47147 5.65444 9.42618 4.7879 11.6977C3.92136 13.9691 3.7652 16.4503 4.3401 18.8125C4.91499 21.1747 6.19383 23.3066 8.00726 24.9258C8.02714 23.6141 8.56161 22.3626 9.49549 21.4412C10.4294 20.5198 11.6879 20.0022 12.9998 20H18.9998C20.3117 20.0022 21.5702 20.5198 22.504 21.4412ZM13.2223 8.84257C14.0446 8.29316 15.0113 7.99992 16.0002 7.99992C17.3263 7.99992 18.598 8.5267 19.5357 9.46438C20.4734 10.4021 21.0002 11.6738 21.0002 12.9999C21.0002 13.9888 20.7069 14.9555 20.1575 15.7778C19.6081 16.6 18.8272 17.2409 17.9136 17.6193C17 17.9978 15.9946 18.0968 15.0247 17.9038C14.0548 17.7109 13.1639 17.2347 12.4646 16.5354C11.7654 15.8362 11.2892 14.9453 11.0963 13.9754C10.9033 13.0055 11.0023 12.0001 11.3808 11.0865C11.7592 10.1729 12.4001 9.39197 13.2223 8.84257ZM14.3335 15.4943C14.8268 15.824 15.4068 15.9999 16.0002 15.9999C16.7956 15.999 17.5581 15.6827 18.1205 15.1202C18.6829 14.5578 18.9993 13.7953 19.0002 12.9999C19.0002 12.4066 18.8242 11.8266 18.4946 11.3332C18.1649 10.8399 17.6964 10.4553 17.1482 10.2283C16.6001 10.0012 15.9969 9.9418 15.4149 10.0576C14.833 10.1733 14.2984 10.459 13.8789 10.8786C13.4593 11.2982 13.1736 11.8327 13.0578 12.4146C12.9421 12.9966 13.0015 13.5998 13.2285 14.148C13.4556 14.6961 13.8401 15.1647 14.3335 15.4943Z" fill="#002855"/>
</g>
</svg>
