<svg width="32" height="32" viewBox="0 0 32 32" fill="none" xmlns="http://www.w3.org/2000/svg">
<g id="user--favorite">
<path id="Vector" fill-rule="evenodd" clip-rule="evenodd" d="M14.7781 4.84216C13.9558 4.29276 12.9891 3.99951 12.0002 3.99951C10.6741 3.99951 9.40235 4.5263 8.46467 5.46398C7.52699 6.40166 7.00021 7.67343 7.00021 8.99951C7.00021 9.98842 7.29345 10.9551 7.84286 11.7774C8.39226 12.5996 9.17316 13.2405 10.0868 13.6189C11.0004 13.9973 12.0058 14.0964 12.9757 13.9034C13.9456 13.7105 14.8365 13.2343 15.5357 12.535C16.235 11.8358 16.7112 10.9449 16.9041 9.97496C17.0971 9.00506 16.998 7.99972 16.6196 7.08609C16.2412 6.17246 15.6003 5.39157 14.7781 4.84216ZM8.11121 3.17922C9.26236 2.41005 10.6157 1.99951 12.0002 1.99951C13.8567 1.99951 15.6372 2.73701 16.95 4.04976C18.2627 5.36252 19.0002 7.143 19.0002 8.99951C19.0002 10.384 18.5897 11.7374 17.8205 12.8885C17.0513 14.0396 15.9581 14.9369 14.679 15.4667C13.3999 15.9965 11.9924 16.1351 10.6346 15.865C9.27671 15.5949 8.02943 14.9282 7.05046 13.9493C6.07149 12.9703 5.4048 11.723 5.13471 10.3651C4.86461 9.00728 5.00323 7.59981 5.53305 6.32073C6.06286 5.04165 6.96007 3.94839 8.11121 3.17922ZM27.3033 11.9996C26.9476 11.9996 26.5954 12.0709 26.2677 12.2093C25.94 12.3477 25.6434 12.5504 25.3954 12.8054L25.0022 13.2108L24.6052 12.8054C24.3572 12.5504 24.0605 12.3477 23.7328 12.2093C23.4052 12.0709 23.053 11.9996 22.6973 11.9996C22.3416 11.9996 21.9895 12.0709 21.6618 12.2093C21.3341 12.3477 21.0375 12.5504 20.7895 12.8054C20.2833 13.3276 20.0003 14.0263 20.0003 14.7536C20.0003 15.4808 20.2833 16.1795 20.7895 16.7018L25.0022 20.9996L29.2111 16.7018C29.7172 16.1795 30.0003 15.4808 30.0003 14.7536C30.0003 14.0263 29.7172 13.3276 29.2111 12.8054C28.9631 12.5504 28.6664 12.3477 28.3388 12.2093C28.0111 12.0709 27.659 11.9996 27.3033 11.9996ZM2.00024 29.9995H4.00024V24.9995C4.00181 23.6739 4.52909 22.403 5.46644 21.4657C6.40378 20.5283 7.67464 20.001 9.00025 19.9995H15.0002C16.3258 20.001 17.5967 20.5283 18.5341 21.4657C19.4714 22.403 19.9987 23.6739 20.0002 24.9995V29.9995H22.0002V24.9995C21.9981 23.1436 21.2599 21.3644 19.9476 20.0521C18.6353 18.7398 16.8561 18.0016 15.0002 17.9995H9.00025C7.1444 18.0016 5.36518 18.7398 4.05289 20.0521C2.74061 21.3644 2.00241 23.1436 2.00024 24.9995V29.9995Z" fill="#002855"/>
</g>
</svg>
