<svg width="32" height="32" viewBox="0 0 32 32" fill="none" xmlns="http://www.w3.org/2000/svg">
<g id="video">
<path id="Vector" d="M21 26H4C3.46957 26 2.96086 25.7893 2.58579 25.4142C2.21071 25.0391 2 24.5304 2 24V8C2 7.46957 2.21071 6.96086 2.58579 6.58579C2.96086 6.21071 3.46957 6 4 6H21C21.5304 6 22.0391 6.21071 22.4142 6.58579C22.7893 6.96086 23 7.46957 23 8V12.06L28.42 8.19C28.5693 8.08373 28.7448 8.02051 28.9276 8.00724C29.1103 7.99396 29.2932 8.03115 29.4562 8.11473C29.6193 8.19832 29.7562 8.32509 29.8521 8.4812C29.948 8.63732 29.9992 8.81678 30 9V23C29.9992 23.1832 29.948 23.3627 29.8521 23.5188C29.7562 23.6749 29.6193 23.8017 29.4562 23.8853C29.2932 23.9688 29.1103 24.006 28.9276 23.9928C28.7448 23.9795 28.5693 23.9163 28.42 23.81L23 19.94V24C23 24.5304 22.7893 25.0391 22.4142 25.4142C22.0391 25.7893 21.5304 26 21 26ZM4 8V24H21V18C21.0008 17.8168 21.052 17.6373 21.1479 17.4812C21.2438 17.3251 21.3807 17.1983 21.5438 17.1147C21.7068 17.0311 21.8897 16.994 22.0724 17.0072C22.2552 17.0205 22.4308 17.0837 22.58 17.19L28 21.06V10.94L22.58 14.81C22.4308 14.9163 22.2552 14.9795 22.0724 14.9928C21.8897 15.006 21.7068 14.9689 21.5438 14.8853C21.3807 14.8017 21.2438 14.6749 21.1479 14.5188C21.052 14.3627 21.0008 14.1832 21 14V8H4Z" fill="#002855"/>
</g>
</svg>
