<svg width="32" height="32" viewBox="0 0 32 32" fill="none" xmlns="http://www.w3.org/2000/svg">
<g id="view">
<path id="Vector" fill-rule="evenodd" clip-rule="evenodd" d="M25.0669 8.0916C27.722 9.98613 29.7639 12.6172 30.9401 15.6595C31.0195 15.8792 31.0195 16.1198 30.9401 16.3395C29.7639 19.3819 27.722 22.0129 25.0669 23.9074C22.4117 25.802 19.2595 26.8769 16.0001 26.9995C12.7406 26.8769 9.58845 25.802 6.93327 23.9074C4.27808 22.0129 2.23622 19.3819 1.06006 16.3395C0.98063 16.1198 0.98063 15.8792 1.06006 15.6595C2.23622 12.6172 4.27808 9.98613 6.93327 8.0916C9.58845 6.19707 12.7406 5.12208 16.0001 4.99951C19.2595 5.12208 22.4117 6.19707 25.0669 8.0916ZM3.07006 15.9995C5.10006 21.0695 10.7001 24.9995 16.0001 24.9995C21.3001 24.9995 26.9001 21.0695 28.9301 15.9995C26.9001 10.9295 21.3001 6.99951 16.0001 6.99951C10.7001 6.99951 5.10006 10.9295 3.07006 15.9995ZM12.6667 11.011C13.6534 10.3517 14.8134 9.99981 16.0001 9.99981C17.5914 9.99981 19.1175 10.6319 20.2427 11.7572C21.3679 12.8824 22.0001 14.4085 22.0001 15.9998C22.0001 17.1865 21.6482 18.3465 20.9889 19.3332C20.3296 20.3199 19.3925 21.089 18.2962 21.5431C17.1998 21.9972 15.9934 22.116 14.8295 21.8845C13.6657 21.653 12.5966 21.0816 11.7574 20.2425C10.9183 19.4033 10.3469 18.3342 10.1154 17.1704C9.88386 16.0065 10.0027 14.8001 10.4568 13.7037C10.9109 12.6074 11.68 11.6703 12.6667 11.011ZM13.7778 19.3257C14.4356 19.7652 15.209 19.9998 16.0001 19.9998C17.061 19.9998 18.0784 19.5784 18.8285 18.8282C19.5787 18.0781 20.0001 17.0607 20.0001 15.9998C20.0001 15.2087 19.7655 14.4353 19.326 13.7775C18.8864 13.1197 18.2617 12.607 17.5308 12.3043C16.7999 12.0015 15.9957 11.9223 15.2197 12.0767C14.4438 12.231 13.7311 12.612 13.1717 13.1714C12.6123 13.7308 12.2313 14.4435 12.0769 15.2194C11.9226 15.9954 12.0018 16.7996 12.3046 17.5305C12.6073 18.2614 13.12 18.8862 13.7778 19.3257Z" fill="#002855"/>
</g>
</svg>
